<?xml version="1.0" encoding="UTF-8"?><svg id="Layer_1" xmlns="http://www.w3.org/2000/svg" viewBox="0 0 24 24"><defs><style>.cls-1{fill:#fff;}</style></defs><g id="Black-Logo-Square"><path id="_" class="cls-1" d="M12.28,5.54c1.05,0,2.37-.73,3.15-1.71,.71-.88,1.23-2.12,1.23-3.36,0-.17-.01-.34-.04-.47-1.17,.05-2.58,.81-3.42,1.83-.67,.78-1.27,2-1.27,3.25,0,.18,.03,.37,.04,.43,.07,.02,.19,.03,.31,.03Zm-3.7,18.46c1.44,0,2.07-.99,3.86-.99s2.22,.96,3.82,.96,2.62-1.5,3.61-2.96c1.11-1.68,1.57-3.33,1.6-3.4-.1-.03-3.11-1.3-3.11-4.85,0-3.08,2.37-4.47,2.5-4.58-1.57-2.32-3.95-2.38-4.6-2.38-1.76,0-3.2,1.1-4.1,1.1-.98,0-2.26-1.04-3.79-1.04-2.9,0-5.85,2.47-5.85,7.14,0,2.9,1.1,5.97,2.44,7.95,1.15,1.68,2.16,3.05,3.61,3.05Z"/></g></svg>