<?xml version="1.0" encoding="utf-8"?>
<!-- Generator: Adobe Illustrator 24.1.3, SVG Export Plug-In . SVG Version: 6.00 Build 0)  -->
<svg version="1.1" id="Layer_1" xmlns="http://www.w3.org/2000/svg" xmlns:xlink="http://www.w3.org/1999/xlink" x="0px" y="0px"
	 viewBox="0 0 172 256" style="enable-background:new 0 0 172 256;" xml:space="preserve">
<style type="text/css">
	.st0{fill:#FDC113;}
	.st1{fill:#FDD803;}
	.st2{fill:#FFFFFF;}
	.st3{fill:#E82264;}
	.st4{fill:#EF4A67;}
	.st5{fill:#8CC34A;}
	.st6{fill:#B9D64F;}
	.st7{fill:#39A4DD;}
	.st8{fill:#2CC4EE;}
	.st9{fill:#904098;}
	.st10{fill:#BC5BA3;}
	.st11{fill:#F06492;}
	.st12{fill:#F59395;}
	.st13{fill:#FFD10D;}
	.st14{fill:#F26B48;}
	.st15{fill:#EF8272;}
	.st16{fill:#92C83E;}
	.st17{fill:#C0DA72;}
	.st18{fill:#68BD45;}
	.st19{fill:#7DC242;}
	.st20{fill:#A04895;}
	.st21{fill:#FFC610;}
	.st22{opacity:0.5;fill:#8BC8EE;enable-background:new    ;}
	.st23{fill:#E12E51;}
	.st24{fill:#D41D52;}
	.st25{opacity:0.1;fill:#642B7D;enable-background:new    ;}
	.st26{fill:#B72948;}
	.st27{opacity:0.2;fill:#C9DFF2;enable-background:new    ;}
	.st28{opacity:0.5;fill:#FFFFFF;enable-background:new    ;}
</style>
<g>
	<g>
		<path class="st0" d="M107.5,145.4c-1.5,11.2-11.8,19-23,17.4s-19-11.8-17.4-23s11.8-19,23-17.4c0,0,0,0,0.1,0
			C101.3,124,109.1,134.3,107.5,145.4"/>
		<path class="st1" d="M70.4,150.9c-4.6-9.3-0.8-20.7,8.6-25.3c2.6-1.3,5.4-1.9,8.3-1.9c0.9,0,1.8,0.1,2.7,0.2
			c10.3,1.5,17.5,11,16,21.3c-1.3,9.1-8.9,15.9-18.1,16.2h-1c-0.4,0-0.8,0-1.1,0c-0.5,0-1-0.1-1.5-0.1l-0.7-0.1
			c-0.8-0.2-1.6-0.4-2.4-0.6l-0.7-0.3c-3.9-1.5-7.1-4.3-9.3-7.9c-0.1-0.2-0.3-0.5-0.4-0.6C70.7,151.5,70.5,151.2,70.4,150.9
			L70.4,150.9 M87.3,122.2c-10.1,0-18.6,7.4-20.1,17.3c0,0.1,0,0.1,0,0.2v0.2l0,0c-1.4,10.7,5.8,20.7,16.5,22.7l0.8,0.1
			c0.4,0.1,0.8,0.1,1.2,0.1c0.6,0.1,1.2,0.1,1.7,0.1c9.5,0,17.8-6.6,19.9-15.9c0.1-0.5,0.2-1.1,0.3-1.6c0.1-0.7,0.2-1.5,0.2-2.2
			c0.3-9.9-6.4-18.5-16.1-20.6c-0.5-0.1-0.9-0.2-1.4-0.2c-0.5-0.1-1-0.1-1.4-0.2C88.4,122.1,87.8,122.1,87.3,122.2"/>
		<path class="st2" d="M86.8,126.7c-0.7,2.6,11.1,6.4,11.7,2.9C99.2,126.2,88,122.1,86.8,126.7z"/>
	</g>
	<g>
		<path class="st3" d="M165.7,122.3c4.4,10.4-0.3,22.3-10.7,26.8c-10.4,4.4-22.3-0.3-26.8-10.7s0.3-22.3,10.7-26.8l0,0
			C149.2,107.1,161.2,111.9,165.7,122.3"/>
		<path class="st4" d="M136.8,146.2c-8.8-5.6-11.4-17.2-5.8-26c5.6-8.8,17.2-11.4,26-5.8s11.4,17.2,5.8,26c-1.4,2.3-3.4,4.2-5.6,5.7
			l0,0c-0.6,0.4-1.2,0.8-1.8,1.1c-0.4,0.2-0.9,0.4-1.4,0.6l-0.6,0.2c-0.8,0.3-1.6,0.5-2.4,0.7l-0.7,0.1c-1,0.2-2.1,0.3-3.2,0.3
			c-3.1,0-6.1-0.7-8.9-2.2c-0.3-0.1-0.5-0.3-0.7-0.4L136.8,146.2L136.8,146.2L136.8,146.2 M146.9,110c-11.3,0-20.4,9.1-20.4,20.4
			s9.1,20.4,20.4,20.4c2.4,0,4.7-0.4,6.9-1.2c0.4-0.1,0.7-0.3,1.1-0.4l0.8-0.3c8.4-4,13-13.2,11.2-22.3l0,0l0,0
			c-0.3-1.4-0.7-2.8-1.3-4.1c-0.3-0.7-0.6-1.4-1-2.1C161.1,113.9,154.3,109.9,146.9,110"/>
		<path class="st2" d="M138.3,117.1c0.7,2.6,12.8-0.2,11.6-3.6C148.6,110.2,137,112.5,138.3,117.1z"/>
	</g>
	<g>
		<path class="st5" d="M73.5,139.7c-3.3,10.8-14.6,16.9-25.4,13.6c-10.8-3.3-16.9-14.6-13.6-25.4s14.6-16.9,25.4-13.6l0,0
			C70.7,117.5,76.8,128.9,73.5,139.7"/>
		<path class="st6" d="M36,139.4c-3.1-9.9,2.4-20.5,12.3-23.6s20.5,2.4,23.6,12.3s-2.4,20.5-12.3,23.6c-1.8,0.6-3.7,0.9-5.6,0.9
			c-0.8,0-1.6-0.1-2.4-0.2c-0.7-0.1-1.4-0.2-2.1-0.3c-0.5-0.1-1-0.2-1.4-0.4l-0.6-0.2c-0.8-0.3-1.5-0.6-2.3-1l-0.7-0.4
			c-3.6-2.1-6.4-5.3-8-9.2c-0.1-0.3-0.2-0.5-0.3-0.7C36.2,140.1,36.1,139.7,36,139.4L36,139.4 M54,113.4c-8.7,0-16.5,5.6-19.3,13.8
			c-0.1,0.2-0.1,0.4-0.2,0.6l-0.1,0.3c-2.9,10,2.3,20.6,11.9,24.5c0.6,0.2,1.2,0.4,1.8,0.6c0.4,0.1,0.7,0.2,1.1,0.3
			c11,2.6,22-4.1,24.6-15.1c2.3-9.4-2.4-19.2-11.2-23.3c-0.8-0.4-1.7-0.7-2.6-1c-0.6-0.2-1.3-0.3-1.9-0.5
			C56.7,113.5,55.4,113.4,54,113.4"/>
		<path class="st2" d="M55.9,118.1c-1.1,2.5,10,8.1,11.2,4.7S57.9,113.7,55.9,118.1z"/>
	</g>
	<g>
		<path class="st7" d="M38.3,142c-8.3,7.7-21.2,7.2-28.8-1.1s-7.2-21.2,1.1-28.8s21.2-7.2,28.8,1.1l0,0
			C47.1,121.4,46.6,134.3,38.3,142"/>
		<path class="st8" d="M5.9,123.7c1.8-10.3,11.6-17.1,21.9-15.3c10.3,1.8,17.1,11.6,15.3,21.9c-1.8,10.3-11.6,17.1-21.9,15.3
			c-3-0.5-5.8-1.8-8.2-3.6c-0.6-0.4-1.1-0.8-1.6-1.3c-0.4-0.3-0.7-0.7-1-1.1l-0.4-0.5c-0.5-0.6-1-1.3-1.4-2L8,136.5
			c-2-3.6-2.8-7.9-2.3-12C5.8,124.2,5.8,123.9,5.9,123.7 M24.4,106.6C13.2,106.6,4,115.8,4,127c0,3.9,1.1,7.6,3.2,10.9
			c1.3,2,2.9,3.8,4.8,5.3c8.9,6.9,21.7,5.2,28.6-3.8c6.9-8.9,5.2-21.7-3.8-28.6C33.3,108.1,28.9,106.7,24.4,106.6"/>
		<path class="st2" d="M34,114.5c-2.2,1.6,4.5,12,7.2,9.7C43.9,121.8,37.9,111.7,34,114.5"/>
	</g>
	<g>
		<path class="st9" d="M134,125c8.4,7.5,9.2,20.3,1.8,28.8c-7.5,8.4-20.3,9.2-28.8,1.8c-8.4-7.4-9.2-20.3-1.8-28.8
			C112.7,118.3,125.5,117.5,134,125"/>
		<path class="st10" d="M118.2,159c-10.3-1.3-17.7-10.7-16.4-21c1.3-10.3,10.7-17.7,21-16.4c10.3,1.3,17.7,10.7,16.4,21
			c-0.3,2.7-1.2,5.2-2.6,7.5c-0.4,0.6-0.8,1.2-1.2,1.8c-0.3,0.4-0.6,0.8-0.9,1.2l-0.5,0.5c-0.6,0.6-1.2,1.1-1.9,1.6l-0.6,0.4
			c-3.2,2.2-6.9,3.4-10.8,3.5c-0.3,0-0.6,0-0.9,0s-0.5,0-0.8,0L118.2,159L118.2,159 M120.5,119.9c-5.6,0-10.9,2.3-14.7,6.3l-0.6,0.6
			c-0.3,0.3-0.5,0.6-0.7,0.9l0,0c-6.3,8-5.7,19.5,1.4,26.8l0,0c0.3,0.4,0.7,0.7,1.1,1s0.6,0.5,0.9,0.7l0,0c8.9,7,21.7,5.4,28.6-3.4
			c7-8.9,5.4-21.7-3.4-28.6C129.5,121.4,125,119.9,120.5,119.9"/>
		<path class="st2" d="M107,132c1.8,2,11.5-5.7,8.9-8.2C113.3,121.4,103.8,128.4,107,132"/>
	</g>
	<g>
		<path class="st0" d="M43.4,171.3c-5.1,10-17.4,14-27.5,8.9s-14-17.4-8.9-27.5s17.4-14,27.5-8.9l0,0
			C44.6,149,48.6,161.3,43.4,171.3"/>
		<path class="st1" d="M6.7,165.3c-1.8-10.3,5.1-20,15.3-21.8s20,5.1,21.8,15.3c1.8,10.3-5.1,20-15.3,21.8c-3,0.5-6,0.3-8.9-0.6
			c-0.7-0.2-1.4-0.4-2-0.7c-0.5-0.2-0.9-0.4-1.4-0.6l-0.6-0.3c-0.7-0.4-1.4-0.9-2.1-1.4l-0.6-0.5c-3.2-2.7-5.4-6.4-6.2-10.5
			C6.7,165.7,6.7,165.5,6.7,165.3 M18.3,142.9c-4.8,1.7-8.8,5.3-11.2,9.8c-0.2,0.5-0.5,0.9-0.7,1.4c-3.9,9.3-0.4,20.2,8.3,25.4
			c0.4,0.2,0.8,0.5,1.2,0.6c0.4,0.2,0.8,0.4,1.1,0.5c9.3,4.1,20.2,0.7,25.5-7.9c0.3-0.5,0.5-0.9,0.8-1.4c0.4-0.8,0.8-1.6,1.1-2.4
			l0,0c3.8-10.6-1.7-22.3-12.3-26.1C27.7,141.2,22.8,141.3,18.3,142.9"/>
		<path class="st2" d="M29.9,146.9c-1.5,2.2,8.4,9.7,10.1,6.6S32.6,143,29.9,146.9"/>
	</g>
	<g>
		<path class="st11" d="M72.9,175.6c-8.3,7.7-21.2,7.2-28.8-1.1s-7.2-21.2,1.1-28.8c8.3-7.7,21.1-7.2,28.8,1.1
			C81.6,155.1,81.1,168,72.9,175.6"/>
		<path class="st12" d="M40.4,157.4c1.8-10.3,11.6-17.1,21.9-15.3s17.1,11.6,15.3,21.9c-1.8,10.3-11.6,17.1-21.9,15.3
			c-3-0.5-5.7-1.7-8.1-3.6l0,0c-0.6-0.4-1.2-0.9-1.7-1.4c-0.4-0.3-0.7-0.7-1-1.1l-0.4-0.5c-0.5-0.6-1-1.3-1.4-2l-0.4-0.6
			c-2-3.6-2.8-7.9-2.3-12C40.4,157.8,40.5,157.6,40.4,157.4 M59.1,140.3h-0.5c-11.3,0.3-20.2,9.6-19.9,20.9c0,0.5,0,1.1,0.1,1.6l0,0
			l0,0l0,0l0,0l0,0c0.3,2.9,1.2,5.7,2.7,8.3l0,0c0.7,1.2,1.6,2.4,2.5,3.4c0.3,0.4,0.7,0.7,1,1c8.2,7.7,21.1,7.3,28.8-0.9
			s7.3-21.1-0.9-28.8c-3.8-3.5-8.8-5.5-14-5.5"/>
		<path class="st2" d="M68.6,148.1c-2.2,1.6,4.5,12,7.3,9.7S72.4,145.3,68.6,148.1"/>
	</g>
	<path class="st13" d="M93.7,143.3c0,0.1,0.1,0.2,0.1,0.4C93.8,143.6,93.8,143.5,93.7,143.3"/>
	<g>
		<path class="st7" d="M106.1,171.5c-1.9,11.1-12.4,18.6-23.5,16.7c-11.1-1.9-18.6-12.4-16.7-23.5c1.9-11.1,12.4-18.6,23.5-16.7
			C100.5,149.8,107.9,160.4,106.1,171.5"/>
		<path class="st8" d="M68.8,175.9c-4.4-9.5-0.2-20.7,9.2-25c2.5-1.1,5.2-1.7,7.9-1.7c1.1,0,2.1,0.1,3.2,0.3
			c10.3,1.7,17.3,11.3,15.6,21.6c-1.5,9.2-9.4,15.9-18.7,15.9h-0.6c-0.5,0-1.1,0-1.6-0.1c-0.5,0-1-0.1-1.5-0.2l-0.7-0.1
			c-0.8-0.2-1.6-0.4-2.4-0.7l-0.7-0.3c-3.8-1.6-7-4.5-9.1-8.1c-0.1-0.2-0.3-0.5-0.4-0.7C69.1,176.6,69,176.2,68.8,175.9L68.8,175.9
			 M85.9,147.7c-0.5,0-1.1,0-1.6,0.1c-11.2,0.9-19.6,10.8-18.6,22c0.9,10.6,9.7,18.7,20.3,18.7c0.7,0,1.3,0,1.9-0.1
			c11.2-1.1,19.5-11,18.4-22.2C105.3,155.6,96.5,147.6,85.9,147.7"/>
		<path class="st2" d="M85.9,152.3c-0.8,2.6,10.9,6.7,11.7,3.3C98.3,152.1,87.2,147.7,85.9,152.3z"/>
	</g>
	<path class="st14" d="M136.8,153.6L136.8,153.6L136.8,153.6L136.8,153.6 M157.2,153.4c-5.9,3.9-13.6,4.1-19.7,0.5
		c0.2,0.1,0.4,0.3,0.7,0.4c2.7,1.4,5.8,2.2,8.9,2.2c1.1,0,2.1-0.1,3.2-0.3l0.7-0.1c0.8-0.2,1.6-0.4,2.4-0.7l0.6-0.2
		c0.5-0.2,0.9-0.4,1.4-0.6C156,154.2,156.6,153.9,157.2,153.4L157.2,153.4"/>
	<g>
		<path class="st9" d="M72.5,201.2c-5.2,10-17.5,13.9-27.5,8.7s-13.9-17.5-8.7-27.5s17.5-13.9,27.5-8.7l0,0
			C73.8,178.9,77.7,191.2,72.5,201.2"/>
		<path class="st10" d="M35.7,194c-1.2-10.3,6.2-19.7,16.5-21c10.3-1.2,19.7,6.2,21,16.5c1.2,10.3-6.2,19.7-16.5,21
			c-2.7,0.3-5.4,0.1-8-0.8c-0.7-0.2-1.3-0.4-2-0.7c-0.5-0.2-0.9-0.4-1.4-0.6l-0.6-0.3c-0.7-0.4-1.4-0.9-2-1.4l-0.6-0.5
			c-3.1-2.7-5.3-6.4-6.1-10.5c-0.1-0.3-0.1-0.5-0.1-0.8C35.9,194.7,35.8,194.3,35.7,194L35.7,194 M54.5,171.4
			c-11.3,0-20.4,9.1-20.4,20.4c0,9.6,6.8,18,16.2,19.9c1.4,0.3,2.8,0.4,4.1,0.4c6.8,0,13.2-3.4,17-9.1c0.4-0.6,0.7-1.2,1.1-1.8
			c0.3-0.5,0.5-1.1,0.8-1.6l0,0c4.3-10.4-0.7-22.3-11.1-26.6C59.8,172,57.1,171.4,54.5,171.4"/>
		<path class="st2" d="M59.2,176.7c-1.5,2.2,8.3,9.8,10.1,6.7S61.9,172.8,59.2,176.7z"/>
	</g>
	<path class="st15" d="M88.2,201.6c0,0.1,0.1,0.3,0.1,0.4C88.3,201.9,88.2,201.8,88.2,201.6"/>
	<g>
		<path class="st11" d="M102.3,202.4c-1.2,11.2-11.3,19.3-22.5,18.1S60.5,209.2,61.7,198s11.3-19.3,22.5-18.1l0,0
			C95.4,181.1,103.5,191.2,102.3,202.4"/>
		<path class="st12" d="M65.8,209.9c-5.3-8.9-2.4-20.5,6.5-25.9c2.9-1.7,6.2-2.7,9.6-2.7c0.7,0,1.4,0,2.1,0.1
			c10.4,1.1,17.8,10.5,16.7,20.8c-1,9.1-8.4,16.2-17.6,16.8c-0.5,0.1-1,0.1-1.6,0.1h-0.6c-0.5,0-1,0-1.5-0.1l-0.7-0.1
			c-0.8-0.1-1.6-0.3-2.4-0.6l-0.7-0.2c-3.9-1.4-7.3-4.1-9.5-7.6L65.8,209.9 M82,179.8c-1,0-2,0.1-3,0.2c-4.8,0.7-9.2,3.2-12.4,6.9
			l0,0c-7.3,8.5-6.4,21.4,2.2,28.8c3.1,2.7,7,4.4,11.1,4.8c0.8,0.1,1.5,0.1,2.3,0.1h1c11.3-0.6,19.9-10.2,19.3-21.4
			c-0.5-9.3-7.2-17.1-16.3-18.9c-0.6-0.1-1.2-0.2-1.8-0.3C83.5,179.8,82.7,179.8,82,179.8"/>
		<path class="st2" d="M81,184.4c-0.6,2.6,11.3,6.1,11.8,2.6S82.1,179.8,81,184.4"/>
	</g>
	<g>
		<path class="st3" d="M82.4,231.1c-1.1,11.2-11.1,19.4-22.3,18.3c-11.2-1.1-19.4-11.1-18.3-22.3s11.1-19.4,22.3-18.3l0,0
			C75.4,209.9,83.5,219.9,82.4,231.1"/>
		<path class="st4" d="M46,238.8c-5.4-8.9-2.5-20.5,6.4-25.9c2.9-1.8,6.3-2.7,9.7-2.7c0.7,0,1.3,0,1.9,0.1
			c10.4,1.1,17.9,10.3,16.8,20.7c-0.9,9.1-8.3,16.2-17.4,16.9l0,0c-0.6,0.1-1.2,0.1-1.7,0.1h-0.4c-0.5,0-1,0-1.5-0.1l-0.7-0.1
			c-0.8-0.1-1.6-0.3-2.4-0.5L56,247c-3.9-1.4-7.3-4-9.6-7.5C46.2,239.3,46.1,239,46,238.8 M62.1,208.7c-11.3,0-20.4,9.1-20.4,20.4
			c0,11.3,9.1,20.4,20.4,20.4c9.8,0,18.3-7,20-16.7c0.1-0.5,0.2-1.1,0.2-1.6c0.1-0.6,0.1-0.9,0.1-1.4l0,0c0.3-11.3-8.6-20.7-19.9-21
			C62.4,208.7,62.3,208.7,62.1,208.7"/>
		<path class="st2" d="M61,213.3c-0.6,2.6,11.3,6,11.8,2.5S62,208.7,61,213.3"/>
	</g>
	<g>
		<path class="st3" d="M46.1,198.1c-4.3,10.4-16.3,15.3-26.7,11s-15.3-16.3-11-26.7s16.3-15.3,26.7-11l0,0
			C45.5,175.7,50.4,187.7,46.1,198.1"/>
		<path class="st4" d="M9,195c-2.6-10.1,3.5-20.4,13.6-23s20.4,3.5,23,13.6s-3.5,20.4-13.6,23c-2.9,0.7-5.9,0.8-8.9,0.1l0,0
			c-0.7-0.1-1.4-0.3-2.1-0.5c-0.5-0.1-0.9-0.3-1.4-0.5l-0.6-0.3c-0.7-0.4-1.5-0.8-2.1-1.2l-0.6-0.4c-3.3-2.5-5.8-6-7-9.9
			C9.1,195.4,9.1,195.2,9,195 M27.3,169.9c-8,0-15.2,4.7-18.6,11.9l0,0c-0.1,0.2-0.2,0.4-0.3,0.6c-0.1,0.2-0.1,0.3-0.2,0.5l0,0
			c-4,10.3,1,21.9,11.2,26.1c1.9,0.8,3.9,1.3,6,1.5c0.6,0.1,1.2,0.1,1.9,0.1c6.9,0,13.3-3.5,17.1-9.2c1.3-1.9,2.2-4.1,2.7-6.3
			c2.4-9.7-2.7-19.7-11.9-23.6h-0.1l-0.1-0.1l0,0C32.6,170.4,30,169.9,27.3,169.9"/>
		<path class="st2" d="M25.9,176.3c-0.6,2.6,11.3,6,11.8,2.5S26.9,171.7,25.9,176.3"/>
	</g>
	<path class="st16" d="M34.8,211.4c0.1,0.1,0.2,0.2,0.3,0.2C35,211.5,34.9,211.5,34.8,211.4"/>
	<g>
		<path class="st5" d="M135.5,159.7c3.4,10.7-2.5,22.2-13.2,25.6c-10.7,3.4-22.2-2.5-25.6-13.2s2.5-22.2,13.2-25.6l0,0
			C120.5,143.1,132,149,135.5,159.7"/>
		<path class="st6" d="M105.2,181.3c-8.5-6-10.5-17.8-4.5-26.3s17.8-10.5,26.3-4.5s10.5,17.8,4.5,26.3c-1.7,2.4-4,4.4-6.7,5.8
			c-0.6,0.4-1.3,0.7-1.9,0.9c-0.5,0.2-0.9,0.4-1.4,0.5l-0.6,0.2c-0.8,0.2-1.6,0.4-2.4,0.4l-0.7,0.1c-0.4,0-0.9,0.1-1.3,0.1
			c-3.7,0-7.3-1.1-10.5-3.1C105.5,181.6,105.3,181.5,105.2,181.3 M116.1,145.5c-11.3,0-20.4,9.1-20.4,20.4s9.1,20.4,20.4,20.4
			c1.7,0,3.4-0.2,5-0.6l1.1-0.3c0.3-0.1,0.6-0.2,0.9-0.3l0,0c10.6-3.9,15.9-15.7,12-26.2C132.2,150.8,124.5,145.5,116.1,145.5"/>
		<path class="st16" d="M118.6,168.8c0.7,0,1.4-0.1,2.1-0.3c1.2-0.3,2.3-0.8,3.3-1.4c1.1-0.6,2.1-1.3,3-2.1c1-0.8,1.8-1.6,2.5-2.6
			h0.1c-0.7,1.1-1.5,2-2.4,2.8s-1.9,1.6-3,2.3s-2.2,1.2-3.4,1.5c-0.5,0.1-0.9,0.2-1.4,0.2c-0.8,0-1.6-0.2-2.3-0.6v-0.1
			C117.6,168.7,118.1,168.8,118.6,168.8 M125.6,162.6c-0.3,0-0.7-0.2-0.7-0.5c-0.1-0.4,0.1-0.9,0.5-1l0,0c0.1,0,0.2,0,0.2,0
			c0.3,0,0.6,0.2,0.7,0.5c0.1,0.4-0.1,0.9-0.5,1l0,0H125.6 M112.1,166c-2,0-3.6-1.6-3.6-3.7c0-1.6,1-3,2.5-3.5
			c0.4-0.1,0.7-0.2,1.1-0.2c2,0,3.6,1.6,3.6,3.7c0,1.6-1,3-2.5,3.5C112.8,165.9,112.5,166,112.1,166 M115.3,156.2
			c-0.7,0-1.4,0-2.2,0.1l0,0c-1.7,0.1-3.3,0.5-4.8,1.3c-6,3.8-6.1,7.4-5.2,11.3l0,0c1,4.4,1.8,7.7,1.3,11.9l0.5,0.4l0.2,0.2
			c4.8,3.4,11,4.4,16.6,2.6c1-0.3,2-0.7,3-1.2l0,0c-2.4-5,0.6-11.6,2.4-15.1c0.4-0.8,1-1.8,1.6-2.9c2.4-4.1,2-8-4.8-8h-1.2
			c-1.3,0-2.6-0.1-4-0.2l0,0C117.5,156.3,116.4,156.2,115.3,156.2 M118.4,156.2c0.1,0.1,0.2,0.2,0.2,0.3
			C118.6,156.4,118.5,156.3,118.4,156.2"/>
		<path class="st2" d="M108.7,152c0.5,2.7,12.8,1,11.9-2.4S107.8,147.3,108.7,152"/>
		<path class="st17" d="M125.7,161.1c-0.1,0-0.2,0-0.2,0c-0.4,0.1-0.6,0.6-0.5,1l0,0c0.1,0.3,0.4,0.6,0.7,0.5h0.2
			c0.4-0.1,0.6-0.6,0.5-1l0,0C126.3,161.3,126,161.1,125.7,161.1"/>
		<path class="st18" d="M116.3,155.3c-1.1,0.1-2.2,0.4-3.2,1c0.7-0.1,1.4-0.1,2.2-0.1c1.1,0,2.3,0.1,3.4,0.3l0,0
			c-0.1-0.1-0.2-0.2-0.2-0.3c-0.3-0.3-0.7-0.5-1.2-0.7C117,155.3,116.6,155.2,116.3,155.3"/>
		<path class="st17" d="M112.1,164.9c-1.4,0-2.6-1.2-2.6-2.6c0-1.1,0.7-2.1,1.8-2.4c0.2-0.1,0.5-0.1,0.8-0.1c1.4,0,2.6,1.2,2.6,2.6
			c0,1.1-0.7,2.1-1.8,2.4C112.6,164.9,112.4,164.9,112.1,164.9 M112.1,158.6c-0.4,0-0.7,0.1-1.1,0.2c-1.9,0.6-3,2.7-2.4,4.6
			c0.5,1.5,1.9,2.5,3.5,2.5c0.4,0,0.7-0.1,1.1-0.2c1.9-0.6,3-2.7,2.4-4.6C115.1,159.7,113.7,158.6,112.1,158.6"/>
		<path class="st16" d="M112.1,159.8c-0.3,0-0.5,0-0.8,0.1c-1.3,0.4-2.1,1.9-1.7,3.2c0.3,1.1,1.3,1.8,2.4,1.8c0.3,0,0.5,0,0.8-0.1
			c1.3-0.4,2.1-1.9,1.7-3.2C114.2,160.5,113.2,159.8,112.1,159.8"/>
		<path class="st19" d="M129.6,162.4c-0.7,1-1.6,1.9-2.5,2.6c-0.9,0.8-1.9,1.5-3,2.1s-2.2,1-3.3,1.4c-0.7,0.2-1.4,0.3-2.1,0.3
			c-0.5,0-1-0.1-1.5-0.2v0.1c0.7,0.4,1.5,0.6,2.3,0.6c0.5,0,1-0.1,1.4-0.2c1.2-0.3,2.4-0.8,3.4-1.5c1.1-0.7,2.1-1.4,3-2.3
			c0.9-0.8,1.7-1.8,2.4-2.8L129.6,162.4"/>
	</g>
	<path class="st20" d="M117.5,138l0.4,0.1C117.8,138.1,117.6,138,117.5,138"/>
	<g>
		<path class="st9" d="M127.1,179.5c8.5,7.4,9.3,20.3,1.8,28.8c-7.4,8.5-20.3,9.3-28.8,1.8c-8.5-7.4-9.3-20.3-1.8-28.8l0,0
			C105.8,172.8,118.7,172,127.1,179.5"/>
		<path class="st10" d="M112.2,213.6c-10.4-0.8-18.1-9.9-17.3-20.2c0.8-10.4,9.9-18.1,20.2-17.3c10.4,0.8,18.1,9.9,17.3,20.2
			c-0.2,3-1.2,5.9-2.8,8.5c-0.3,0.6-0.7,1.2-1.2,1.7c-0.3,0.4-0.6,0.8-1,1.2l-0.5,0.5c-0.6,0.6-1.2,1.2-1.9,1.6l-0.6,0.4
			c-3.2,2.2-6.9,3.4-10.8,3.5c-0.3,0-0.6,0-0.9,0C112.6,213.6,112.3,213.6,112.2,213.6 M113.6,174.4c-8.5,0-16.1,5.3-19.1,13.3l0,0
			l0,0c-3.9,10.6,1.5,22.3,12,26.2c7.5,2.8,15.9,0.9,21.6-4.7c0.3-0.3,0.5-0.6,0.8-0.8l0.4-0.5c6.9-8.2,6.2-20.4-1.5-27.8
			c-0.2-0.2-0.4-0.4-0.6-0.6l-0.6-0.5l0,0C122.9,176,118.4,174.4,113.6,174.4"/>
		<path class="st2" d="M100.1,186.5c1.8,2,11.5-5.7,8.9-8.2C106.5,175.9,97,182.9,100.1,186.5"/>
	</g>
	<path class="st13" d="M120.8,216.7l0.3,0.2C121,216.8,120.9,216.7,120.8,216.7"/>
	<g>
		<path class="st0" d="M133.3,212.8c7.7,8.2,7.2,21.1-1,28.8s-21.1,7.2-28.8-1s-7.2-21.1,1-28.8S125.6,204.6,133.3,212.8"/>
		<path class="st1" d="M115.1,245.3c-10.3-1.8-17.1-11.6-15.3-21.9c1.8-10.3,11.6-17.1,21.9-15.3s17.1,11.6,15.3,21.9
			c-0.5,3-1.7,5.7-3.6,8.1c-0.4,0.6-0.9,1.1-1.4,1.7c-0.3,0.4-0.7,0.7-1,1.1l-0.5,0.4c-0.6,0.5-1.3,1-2,1.5l-0.6,0.4
			c-2.9,1.6-6.1,2.5-9.4,2.5c-0.8,0-1.7-0.1-2.5-0.2C115.6,245.5,115.4,245.4,115.1,245.3 M118.4,206.4c-4.6,0-9.1,1.6-12.7,4.5
			c-0.4,0.3-0.8,0.6-1.1,1c-0.6,0.6-1.2,1.2-1.7,1.8l0,0c-7.2,8.6-6.1,21.5,2.6,28.7c8.6,7.2,21.5,6.1,28.7-2.6
			c5.1-6.1,6.2-14.7,2.7-21.9c-1.7-3.5-4.4-6.4-7.7-8.5C125.9,207.4,122.2,206.4,118.4,206.4"/>
		<path class="st2" d="M105.8,217.2c1.6,2.2,12-4.6,9.7-7.3S103,213.4,105.8,217.2"/>
	</g>
	<g>
		<path class="st5" d="M112,235.6c-3.3,10.8-14.6,16.9-25.4,13.6S69.7,234.5,73,223.7s14.6-16.9,25.4-13.6
			C109.2,213.4,115.3,224.8,112,235.6"/>
		<path class="st6" d="M74.5,235.3c-2.8-9.6,2.8-19.7,12.4-22.5s19.7,2.8,22.5,12.4s-2.8,19.7-12.4,22.5c-2.9,0.8-6,0.9-8.9,0.3
			c-0.5-0.1-1-0.2-1.4-0.4l-0.6-0.2c-0.8-0.3-1.5-0.6-2.3-1L83,246c-3.6-2.1-6.4-5.3-8-9.2c-0.1-0.3-0.2-0.5-0.3-0.7
			C74.7,235.9,74.6,235.6,74.5,235.3L74.5,235.3 M92.5,209.2c-8.6,0-16.3,5.4-19.2,13.5l0,0c-0.1,0.3-0.2,0.6-0.3,1
			c0,0.1-0.1,0.3-0.1,0.4c-2.8,9.9,2.2,20.4,11.7,24.4l0,0c0.6,0.2,1.2,0.5,1.9,0.7c0.4,0.1,0.7,0.2,1.1,0.3
			c9.1,2.2,18.5-2,22.9-10.3c0.6-1.1,1.1-2.3,1.5-3.6c0.2-0.5,0.3-1,0.4-1.6c2.2-10.2-3.6-20.5-13.6-23.8l-0.4-0.1l-0.9-0.3l0,0
			C95.9,209.5,94.2,209.2,92.5,209.2"/>
		<path class="st2" d="M92.4,217c-1.1,2.5,10,8.1,11.1,4.7C104.7,218.4,94.3,212.7,92.4,217z"/>
	</g>
	<path class="st15" d="M144,155.5c0.1,0,0.3,0.1,0.4,0.1C144.3,155.6,144.2,155.5,144,155.5"/>
	<g>
		<path class="st11" d="M160.4,149.6c8.4,7.5,9,20.4,1.5,28.8c-7.5,8.4-20.4,9-28.8,1.5s-9-20.4-1.5-28.8
			C139.2,142.7,152.1,142,160.4,149.6L160.4,149.6"/>
		<path class="st12" d="M144.2,183.4c-10.3-1.4-17.5-10.9-16.1-21.2s10.9-17.5,21.2-16.1s17.5,10.9,16.1,21.2
			c-0.4,2.7-1.3,5.2-2.7,7.5l0,0c-0.4,0.6-0.8,1.2-1.2,1.8c-0.3,0.4-0.6,0.8-1,1.1l-0.5,0.5c-0.6,0.6-1.2,1.1-1.9,1.6l-0.6,0.4
			c-3.1,2.1-6.8,3.3-10.6,3.3c-0.4,0-0.7,0-1.1,0l-0.8-0.1H144.2L144.2,183.4 M146.8,144.3c-5.7,0-11.2,2.4-15.1,6.6v0.1l-0.4,0.4
			l0,0l0,0l0,0l0,0l0,0c-3,3.5-4.7,7.9-4.8,12.5l0,0l0,0l0,0c-0.3,11.3,8.5,20.7,19.8,21c0.2,0,0.4,0,0.6,0c1.2,0,2.5-0.1,3.7-0.3
			h0.1c1.8-0.3,3.5-0.9,5.1-1.6h0.1c3.2-1.6,5.9-4,7.9-7l0,0c6.2-9.4,3.6-22.1-5.9-28.2C154.6,145.6,150.8,144.4,146.8,144.3"/>
		<path class="st2" d="M133.4,156.3c1.8,2,11.5-5.6,9-8.1C139.8,145.8,130.3,152.7,133.4,156.3"/>
	</g>
	<path class="st13" d="M152.7,182c0,0.1,0.1,0.3,0.1,0.4C152.8,182.3,152.8,182.1,152.7,182"/>
	<g>
		<path class="st0" d="M166.5,191.3c-1.6,11.2-11.9,18.9-23,17.4c-11.2-1.6-18.9-11.9-17.4-23c1.6-11.2,11.9-18.9,23-17.4l0,0
			C160.3,169.8,168.1,180.1,166.5,191.3"/>
		<path class="st1" d="M129.9,197.6c-5.1-9.1-1.8-20.6,7.3-25.7c9.1-5.1,20.6-1.8,25.7,7.3c5.1,9.1,1.8,20.6-7.3,25.7
			c-2.7,1.5-5.6,2.3-8.7,2.4h-1c-0.4,0-0.8,0-1.1,0c-0.5,0-1-0.1-1.5-0.2l-0.7-0.1c-0.8-0.2-1.6-0.4-2.4-0.6l-0.7-0.2
			c-3.9-1.5-7.1-4.3-9.3-7.9C130,198,129.9,197.8,129.9,197.6 M146.3,168c-11.3,0-20.4,9.2-20.3,20.5c0,9.6,6.8,17.9,16.2,19.9
			c0.4,0.1,0.8,0.2,1.3,0.2c0.6,0.1,1.2,0.1,1.8,0.2l0,0c0.4,0,0.7,0,1.1,0c9.9,0,18.3-7.1,20-16.8c0-0.2,0.1-0.5,0.1-0.7
			s0.1-0.6,0.1-0.9c1-10.3-5.8-19.7-15.9-21.9c-0.5-0.1-1-0.2-1.5-0.3l-0.9-0.1C147.6,168,147,168,146.3,168"/>
		<path class="st2" d="M145.8,172.7c-0.7,2.6,11.1,6.4,11.7,3C158.2,172.2,147.1,168,145.8,172.7z"/>
	</g>
	<path class="st21" d="M148.9,179.7c-0.3,0-0.7,0-1,0.1l0,0c0.3,0,0.5,0,0.8,0c1.2-0.1,2.4,0.3,3.3,1.1c0.3,0.3,0.6,0.7,0.7,1.1
		C152.3,180.4,150.6,179.8,148.9,179.7"/>
	<g>
		<path class="st5" d="M54.5,221.3c0.8,11.2-7.6,21-18.8,21.8s-21-7.6-21.8-18.8c-0.8-11.2,7.6-21,18.8-21.8
			C43.8,201.6,53.6,210.1,54.5,221.3"/>
		<path class="st6" d="M20,235.3c-6.9-7.8-6.1-19.7,1.7-26.6c7.8-6.9,19.7-6.1,26.6,1.7s6.1,19.7-1.7,26.6c-2.3,2-5,3.4-7.9,4.1
			c-0.7,0.2-1.4,0.3-2.1,0.4c-0.5,0.1-1,0.1-1.5,0.2h-0.7c-0.8,0-1.7,0-2.5-0.1l-0.7-0.1c-1.5-0.3-3-0.7-4.4-1.3
			c-2.4-1-4.6-2.5-6.4-4.4C20.3,235.6,20.1,235.4,20,235.3 M42,204c-1.4-0.6-2.9-1-4.4-1.3l0,0c-1.6-0.3-3.3-0.4-5-0.2
			c-1.2,0.1-2.3,0.3-3.4,0.5l0,0c-9.1,2.3-15.5,10.5-15.5,19.9l0,0c0,0.4,0,0.9,0.1,1.3c0,0.5,0.1,1.1,0.2,1.7
			c1.7,11.1,12.2,18.7,23.3,17c8.9-1.4,15.8-8.4,17.1-17.3c0.4-2.8,0.2-5.7-0.6-8.5l0,0l0,0C52,211.2,47.7,206.4,42,204"/>
		<path class="st2" d="M39.1,211.2c-1.6,2.2,8.1,9.9,9.9,6.9C50.8,215.1,41.8,207.4,39.1,211.2"/>
	</g>
	<g>
		<path class="st7" d="M161,222.5c-1.9,11.1-12.4,18.6-23.5,16.7s-18.6-12.4-16.7-23.5s12.4-18.6,23.5-16.7
			C155.4,200.9,162.8,211.4,161,222.5"/>
		<path class="st8" d="M123.7,227c-4.4-9.5-0.2-20.7,9.2-25c2.5-1.1,5.2-1.7,7.9-1.7c1.1,0,2.1,0.1,3.2,0.3
			c10.3,1.7,17.3,11.3,15.6,21.6c-1.5,9.2-9.4,15.9-18.7,15.9h-0.6c-0.5,0-1.1,0-1.6-0.1c-0.5,0-1-0.1-1.5-0.2l-0.7-0.1
			c-0.8-0.2-1.6-0.4-2.4-0.7l-0.7-0.3c-3.8-1.6-7-4.5-9.1-8.1c-0.1-0.2-0.3-0.5-0.4-0.7C124,227.6,123.9,227.3,123.7,227L123.7,227
			 M140.8,198.7c-0.5,0-1.1,0-1.6,0.1c-11.2,0.9-19.6,10.8-18.6,22c0.9,10.6,9.7,18.7,20.3,18.7c0.7,0,1.3,0,1.9-0.1
			c11.2-1.1,19.5-11,18.4-22.2C160.2,206.7,151.4,198.7,140.8,198.7"/>
		<path class="st2" d="M140.8,203.3c-0.8,2.6,10.9,6.7,11.7,3.3S142.1,198.8,140.8,203.3z"/>
	</g>
	<g>
		<path class="st22" d="M163,63.6c-8.1-14-25.6-15.7-28-18.3c-2-2.9-3.2-6.3-3.6-9.8l-96.6-0.3c0,0,0.6,9.1-3.8,12.2
			s-23.3,5.5-26.8,29C0.5,100.5-8,237.9,24.6,248.7s118.1,11.4,135.1-10.8S173.5,81.8,163,63.6z M156.2,233.2L156.2,233.2
			c-16.1,21.2-97.6,20.7-128.7,10.3S4.6,101.8,8,78.8c3.4-22.5,23.3-27.4,27.4-30.2c0,0,8.4-3.2,48.2-3.4
			c28.9-0.2,45.2,2.2,53.9,4.9c6.6,3.1,16.3,6.9,21.8,16.6C169.4,84,172.3,212,156.2,233.2L156.2,233.2z"/>
		<path id="Path_282" class="st23" d="M33.5,17.9c-3.8,2.9-4.7,21.1-3.3,22.4C34.7,44,121,45,134.1,40.5c4.2-1.4-2.3-22.4-7-24.3
			c-2.7-1.1-24.6-3-46.2-3.3C58.8,12.6,36.9,15.3,33.5,17.9z"/>
		<path id="Path_283" class="st24" d="M128.4,17.2c-0.4-0.4-0.8-0.8-1.3-1c-2.7-1.1-24.6-3-46.2-3.3s-43,2.3-47.1,4.8
			C65.8,20.2,103.1,20.4,128.4,17.2z"/>
		<path id="Path_284" class="st25" d="M55.7,19.1c-5.7-0.1-14.5-0.5-22-1.4c-0.1,0.1-0.2,0.1-0.3,0.2c-3.8,2.9-4.7,21.1-3.2,22.4
			c2.6,2.2,32.6,3.5,60,3.3C75.9,40.4,63.4,31.6,55.7,19.1z"/>
		<path id="Path_285" class="st26" d="M96.4,13.9c0,1.8-6.4,2.9-14,2.9S68.5,15.7,68.5,14c0-7.7,6.2-14,13.8-14S96.3,6.2,96.4,13.9
			L96.4,13.9z"/>
		<g>
			<path id="Path_329" class="st27" d="M159.3,66.8c10,17.4,13,145.4-3.1,166.6S58.5,254,27.4,243.7C-3.6,233.3,4.6,102,8,79
				c1.9-14.8,12.8-26.9,27.4-30.2c10-2.7,54.3-6.9,94.2-0.5C135.7,49.2,151.6,53.4,159.3,66.8z"/>
			<path class="st28" d="M153.1,208.9c-1.2,1.6-2.9,3.1-5,4.4c11-25.4,8.4-120.8,0.5-134.5c-6.4-11.1-19.6-14.6-24.7-15.4
				c-33.1-5.3-69.9-1.9-78.2,0.4c-4.4,1-8.3,3-11.7,5.6c4-6.8,10.7-11.9,18.8-13.8c8.2-2.3,45.1-5.7,78.1-0.4
				c5.1,0.8,18.3,4.2,24.7,15.3C164,85.2,166.5,191.3,153.1,208.9z"/>
		</g>
	</g>
</g>
</svg>
