<?xml version="1.0" encoding="utf-8"?>
<!-- Generator: Adobe Illustrator 26.3.1, SVG Export Plug-In . SVG Version: 6.00 Build 0)  -->
<svg version="1.1" id="Layer_1" xmlns="http://www.w3.org/2000/svg" xmlns:xlink="http://www.w3.org/1999/xlink" x="0px" y="0px"
	 viewBox="0 0 16 16" style="enable-background:new 0 0 16 16;" xml:space="preserve">
<style type="text/css">
	.st0{fill:#8DC63F;}
	.st1{fill:#F9E988;}
	.st2{fill:#FFFFFF;}
	.st3{fill:#8BC53F;}
	.st4{fill:#009345;}
	.st5{fill:#58595B;}
</style>
<g>
	<path class="st0" d="M16,8c0,4.4-3.6,8-8,8s-8-3.6-8-8s3.6-8,8-8S16,3.6,16,8z"/>
	<path class="st1" d="M15.4,8c0,4.1-3.3,7.4-7.4,7.4S0.6,12.1,0.6,8c0-4.1,3.3-7.4,7.4-7.4c0,0,0,0,0,0C12.1,0.6,15.4,3.9,15.4,8z"
		/>
	<path class="st2" d="M8.1,1.1c0.5-0.1,1-0.1,1.4,0c0.5,0.1,0.9,0.2,1.4,0.4c0.4,0.2,0.8,0.5,1.1,0.9c0.4,0.3,0.7,0.6,1.1,0.9
		C13.5,3.6,13.8,4,14,4.4c0.3,0.4,0.5,0.8,0.6,1.3C15,6.6,15,7.6,14.9,8.5l0,0c-0.1-0.9-0.4-1.8-0.7-2.6C14,5.4,13.9,5,13.7,4.6
		c-0.2-0.4-0.5-0.8-0.7-1.2c-0.3-0.4-0.6-0.7-1-1c-0.4-0.3-0.8-0.5-1.2-0.6c-0.4-0.2-0.8-0.3-1.3-0.4S8.6,1.2,8.1,1.1L8.1,1.1z"/>
	<path class="st3" d="M11.8,5.3c-0.6-0.2-1.1-0.4-1.7-0.6C10,4.5,9.9,4.3,9.7,4.2C9.2,3.9,8.6,3.9,8,4.1C7.4,3.9,6.7,3.9,6.1,4
		C1,5.4,3.9,8.8,2,12.3c1.6,2.3,4.5,3.5,7.3,3c0,0-1.4-3.4,1.8-5.1C13.7,8.9,15.6,6.4,11.8,5.3z"/>
	<path class="st2" d="M12.4,7.6c0,0.2-0.1,0.3-0.3,0.3c-0.2,0-0.3-0.1-0.3-0.3s0.1-0.3,0.3-0.3c0,0,0,0,0,0
		C12.2,7.3,12.4,7.4,12.4,7.6C12.4,7.6,12.4,7.6,12.4,7.6z"/>
	<path class="st4" d="M8,4.1c0.7,0.1,1.4,0.4,2.1,0.7C9.8,3.9,8.8,3.8,8,4.1z"/>
	<path class="st2" d="M8.4,6.2c0,0.8-0.6,1.4-1.4,1.4C6.2,7.6,5.5,7,5.5,6.2c0-0.8,0.6-1.4,1.4-1.4c0,0,0,0,0,0
		C7.8,4.8,8.4,5.4,8.4,6.2z"/>
	<path class="st5" d="M8,6.2c0,0.6-0.4,1-1,1s-1-0.4-1-1s0.4-1,1-1S8,5.6,8,6.2z"/>
	<path class="st3" d="M13.5,8.2c-1.3,0.9-2.8,1.4-4.4,1.4c-0.9,0-1-0.9-1.6-0.5C6.9,9.6,6.2,9.9,5.4,9.9C4.1,9.9,3,8.9,2.8,7.6
		c0,1.6-0.3,3.1-0.9,4.6c1.6,2.4,4.5,3.6,7.4,3.1C9,13.1,10.9,11,12,9.9C12.6,9.4,13.1,8.8,13.5,8.2L13.5,8.2z"/>
	<path class="st5" d="M13.5,8.3c-0.4,0.3-0.8,0.6-1.2,0.8c-0.4,0.2-0.9,0.4-1.4,0.5c-0.5,0.1-1,0.2-1.5,0.2c-0.5,0-1-0.2-1.3-0.6
		l0,0C8.5,9.4,9,9.5,9.4,9.5c0.5,0,0.9,0,1.4-0.1c0.5-0.1,0.9-0.2,1.4-0.4C12.7,8.8,13.1,8.6,13.5,8.3L13.5,8.3z"/>
</g>
</svg>
