<svg  xmlns="http://www.w3.org/2000/svg" xmlns:xlink="http://www.w3.org/1999/xlink" shape-rendering="crispEdges" height="128" width="128" viewBox="0 0 29 29"><path fill="#FFFFFF" d="M0,0 h29v29H0z"></path><path fill="#000000" d="M0 0h7v1H0zM8 0h1v1H8zM10 0h2v1H10zM14 0h1v1H14zM16 0h5v1H16zM22,0 h7v1H22zM0 1h1v1H0zM6 1h1v1H6zM8 1h3v1H8zM12 1h1v1H12zM14 1h1v1H14zM17 1h2v1H17zM20 1h1v1H20zM22 1h1v1H22zM28,1 h1v1H28zM0 2h1v1H0zM2 2h3v1H2zM6 2h1v1H6zM11 2h3v1H11zM15 2h2v1H15zM20 2h1v1H20zM22 2h1v1H22zM24 2h3v1H24zM28,2 h1v1H28zM0 3h1v1H0zM2 3h3v1H2zM6 3h1v1H6zM8 3h1v1H8zM13 3h3v1H13zM17 3h1v1H17zM19 3h1v1H19zM22 3h1v1H22zM24 3h3v1H24zM28,3 h1v1H28zM0 4h1v1H0zM2 4h3v1H2zM6 4h1v1H6zM9 4h1v1H9zM11 4h1v1H11zM14 4h3v1H14zM19 4h2v1H19zM22 4h1v1H22zM24 4h3v1H24zM28,4 h1v1H28zM0 5h1v1H0zM6 5h1v1H6zM12 5h1v1H12zM19 5h1v1H19zM22 5h1v1H22zM28,5 h1v1H28zM0 6h7v1H0zM8 6h1v1H8zM10 6h1v1H10zM12 6h1v1H12zM14 6h1v1H14zM16 6h1v1H16zM18 6h1v1H18zM20 6h1v1H20zM22,6 h7v1H22zM8 7h1v1H8zM14 7h1v1H14zM16 7h3v1H16zM20 7h1v1H20zM0 8h1v1H0zM2 8h2v1H2zM5 8h3v1H5zM10 8h2v1H10zM13 8h1v1H13zM17 8h4v1H17zM22 8h1v1H22zM25 8h1v1H25zM27,8 h2v1H27zM1 9h3v1H1zM5 9h1v1H5zM11 9h3v1H11zM16 9h9v1H16zM28,9 h1v1H28zM0 10h3v1H0zM5 10h2v1H5zM9 10h1v1H9zM11 10h1v1H11zM13 10h1v1H13zM16 10h1v1H16zM18 10h1v1H18zM20 10h2v1H20zM23 10h2v1H23zM26 10h2v1H26zM3 11h1v1H3zM5 11h1v1H5zM9 11h2v1H9zM12 11h1v1H12zM19 11h1v1H19zM21 11h1v1H21zM23 11h2v1H23zM28,11 h1v1H28zM0 12h1v1H0zM4 12h1v1H4zM6 12h3v1H6zM12 12h1v1H12zM14 12h2v1H14zM17 12h1v1H17zM20 12h1v1H20zM25 12h2v1H25zM0 13h1v1H0zM4 13h1v1H4zM8 13h1v1H8zM14 13h1v1H14zM16 13h1v1H16zM19 13h1v1H19zM22 13h1v1H22zM26,13 h3v1H26zM0 14h1v1H0zM2 14h2v1H2zM5 14h2v1H5zM8 14h3v1H8zM12 14h2v1H12zM17 14h1v1H17zM19 14h5v1H19zM26,14 h3v1H26zM4 15h1v1H4zM7 15h1v1H7zM10 15h1v1H10zM14 15h2v1H14zM27 15h1v1H27zM2 16h1v1H2zM5 16h2v1H5zM9 16h4v1H9zM14 16h3v1H14zM20 16h2v1H20zM23 16h3v1H23zM27 16h1v1H27zM3 17h1v1H3zM8 17h1v1H8zM11 17h2v1H11zM14 17h1v1H14zM17 17h1v1H17zM20 17h1v1H20zM23 17h1v1H23zM25 17h3v1H25zM0 18h1v1H0zM5 18h2v1H5zM11 18h1v1H11zM13 18h3v1H13zM17 18h1v1H17zM21 18h1v1H21zM23 18h1v1H23zM26 18h1v1H26zM2 19h1v1H2zM4 19h1v1H4zM7 19h2v1H7zM10 19h1v1H10zM12 19h3v1H12zM17 19h3v1H17zM21 19h2v1H21zM24 19h1v1H24zM26 19h1v1H26zM1 20h3v1H1zM5 20h4v1H5zM12 20h5v1H12zM18 20h1v1H18zM20 20h7v1H20zM8 21h3v1H8zM12 21h1v1H12zM15 21h2v1H15zM20 21h1v1H20zM24,21 h5v1H24zM0 22h7v1H0zM8 22h1v1H8zM10 22h1v1H10zM12 22h1v1H12zM14 22h1v1H14zM16 22h2v1H16zM19 22h2v1H19zM22 22h1v1H22zM24 22h2v1H24zM27 22h1v1H27zM0 23h1v1H0zM6 23h1v1H6zM8 23h1v1H8zM10 23h1v1H10zM13 23h2v1H13zM16 23h1v1H16zM19 23h2v1H19zM24 23h2v1H24zM0 24h1v1H0zM2 24h3v1H2zM6 24h1v1H6zM10 24h1v1H10zM12 24h1v1H12zM17 24h1v1H17zM20 24h5v1H20zM26 24h1v1H26zM0 25h1v1H0zM2 25h3v1H2zM6 25h1v1H6zM8 25h1v1H8zM10 25h1v1H10zM16 25h1v1H16zM18 25h2v1H18zM21 25h1v1H21zM23 25h3v1H23zM28,25 h1v1H28zM0 26h1v1H0zM2 26h3v1H2zM6 26h1v1H6zM8 26h1v1H8zM11 26h1v1H11zM13 26h2v1H13zM16 26h1v1H16zM20 26h1v1H20zM23 26h1v1H23zM26 26h1v1H26zM28,26 h1v1H28zM0 27h1v1H0zM6 27h1v1H6zM9 27h2v1H9zM15 27h1v1H15zM20 27h4v1H20zM25 27h1v1H25zM27 27h1v1H27zM0 28h7v1H0zM8 28h7v1H8zM16 28h1v1H16zM19 28h5v1H19zM27 28h1v1H27z"></path></svg>