<?xml version="1.0" standalone="no"?>
<!DOCTYPE svg PUBLIC "-//W3C//DTD SVG 1.1//EN" "http://www.w3.org/Graphics/SVG/1.1/DTD/svg11.dtd">

<svg width="135" height="50" viewBox="0 0 135 50" preserveAspectRatio="none" 
  xmlns="http://www.w3.org/2000/svg"
  xmlns:xlink="http://www.w3.org/1999/xlink">


<polyline points="0.0, 36.33736788676538 0.7988165680473372, 37.17518793184738 1.5976331360946745, 38.07764309188867 2.396449704142012, 36.97229386178335 3.195266272189349, 38.63835787586042 3.994082840236686, 37.51431136265616 4.792899408284024, 37.19657870303328 5.591715976331361, 36.9926728945887 6.390532544378698, 37.094210106478485 7.189349112426036, 38.55209636099152 7.988165680473372, 40.20471304160483 8.78698224852071, 38.98269612722086 9.585798816568047, 38.17576072071641 10.384615384615385, 38.97975753074528 11.183431952662723, 37.34281724790826 11.982248520710058, 39.71970417976858 12.781065088757396, 44.0021895995812 13.579881656804734, 46.177480741453145 14.378698224852071, 45.77894543192356 15.177514792899409, 44.37436147404212 15.976331360946745, 42.62032243484472 16.775147928994084, 40.99164644403474 17.57396449704142, 40.05350065595916 18.37278106508876, 40.17641610710946 19.171597633136095, 39.89996392596844 19.970414201183434, 39.67943476245523 20.76923076923077, 40.393821542196115 21.56804733727811, 41.19678517572035 22.366863905325445, 40.903719688266634 23.16568047337278, 41.561496385337534 23.964497041420117, 42.65569422685028 24.763313609467456, 43.5227557263475 25.562130177514792, 44.404205063148865 26.36094674556213, 43.798272753241285 27.159763313609467, 47.41492561500012 27.958579881656807, 46.62703253848816 28.757396449704142, 47.54548205134338 29.55621301775148, 45.9438519421764 30.355029585798817, 46.91111240367412 31.153846153846157, 49.780707248238905 31.95266272189349, 48.758210978612624 32.751479289940825, 47.54361667481686 33.55029585798817, 48.790605745301505 34.349112426035504, 50.0 35.14792899408284, 48.725545911685394 35.94674556213018, 48.8352728196992 36.74556213017752, 46.565794965139276 37.54437869822485, 45.61898048912635 38.34319526627219, 44.9104837593324 39.142011834319526, 46.10935871599208 39.94082840236687, 47.906464219618535 40.7396449704142, 47.457140340256984 41.53846153846154, 46.34909079281876 42.337278106508876, 45.69331613125933 43.13609467455622, 45.12861641691488 43.93491124260355, 42.433896630752 44.73372781065089, 42.718797525652455 45.532544378698226, 41.556529774766545 46.33136094674556, 41.97405597488437 47.1301775147929, 43.6259879347091 47.928994082840234, 42.59989491489712 48.72781065088758, 43.48959776841866 49.52662721893491, 44.78860003987638 50.32544378698225, 43.53451142913569 51.124260355029584, 42.81142673603971 51.92307692307693, 43.76513792463334 52.72189349112426, 42.169190678890736 53.5207100591716, 41.027856578676335 54.319526627218934, 41.63932626734123 55.11834319526627, 40.842236590466015 55.91715976331361, 41.853373839831626 56.71597633136094, 42.18480418973037 57.514792899408285, 43.403035523620595 58.31360946745562, 42.652235259684105 59.11242603550296, 43.1029089203326 59.91124260355029, 44.75616057773883 60.710059171597635, 44.97557091482065 61.50887573964497, 44.712031952442956 62.307692307692314, 44.961211950301404 63.10650887573964, 43.83101202383368 63.90532544378698, 46.59636639122927 64.70414201183432, 47.850299877789546 65.50295857988165, 47.40789711471567 66.30177514792899, 45.96385361650887 67.10059171597634, 45.79436548519789 67.89940828402366, 46.55128604886451 68.69822485207101, 45.64558518771806 69.49704142011834, 42.47292283197204 70.29585798816568, 42.20051820305864 71.09467455621302, 42.73511977699309 71.89349112426036, 40.76248100039253 72.6923076923077, 41.73326776562825 73.49112426035504, 40.1917725483656 74.28994082840237, 40.955190326737444 75.0887573964497, 40.78358874136477 75.88757396449704, 41.430093836319706 76.68639053254438, 40.75948195141761 77.48520710059172, 39.91558456629518 78.28402366863905, 42.88716879534082 79.0828402366864, 41.125350581812214 79.88165680473374, 40.31657879771425 80.68047337278107, 37.20340971269664 81.4792899408284, 34.090565771524126 82.27810650887574, 26.390034299141107 83.07692307692308, 25.480542731837595 83.87573964497041, 25.454159614602613 84.67455621301775, 18.492094406186663 85.4733727810651, 12.075897994878979 86.27218934911244, 0.0 87.07100591715975, 9.987527650657785 87.8698224852071, 9.42631431489516 88.66863905325444, 16.926344345464233 89.46745562130178, 23.59105438804468 90.26627218934911, 22.570880734425927 91.06508875739645, 20.641685359726015 91.8639053254438, 22.304012384513307 92.66272189349112, 22.34813520117505 93.46153846153845, 22.33775397208257 94.2603550295858, 23.337586298398445 95.05917159763314, 25.029771893847176 95.85798816568047, 26.17363038743355 96.65680473372781, 26.399265956175448 97.45562130177515, 24.587651069443293 98.2544378698225, 26.789484394200798 99.05325443786982, 27.59179143906832 99.85207100591715, 29.164975833531425 100.6508875739645, 27.946062196141725 101.44970414201183, 27.312159806512344 102.24852071005917, 27.131111359774096 103.04733727810651, 28.016149167056888 103.84615384615385, 27.356685448110586 104.64497041420118, 26.952785444746702 105.44378698224853, 21.357860875542407 106.24260355029585, 21.36607946577043 107.0414201183432, 22.45292709954011 107.84023668639053, 23.74920049412196 108.63905325443787, 25.41216010039563 109.43786982248521, 24.35929365833768 110.23668639053254, 23.383884858649363 111.03550295857988, 23.478411522441885 111.83431952662723, 24.062194132308676 112.63313609467457, 23.964882965052055 113.43195266272188, 24.947930433544663 114.23076923076923, 25.59782243250746 115.02958579881657, 25.804450935303404 115.82840236686391, 25.216209639159636 116.62721893491124, 24.996293894350266 117.42603550295858, 24.195802213365276 118.22485207100593, 22.96410829275926 119.02366863905324, 24.119119934718633 119.82248520710058, 25.104688251972146 120.62130177514793, 24.548829642271134 121.42011834319527, 25.666873507267436 122.2189349112426, 25.96871663133432 123.01775147928994, 30.810950774873263 123.81656804733728, 29.57262559381895 124.61538461538463, 28.507389818474575 125.41420118343194, 28.12176906252228 126.21301775147928, 28.252011229224767 127.01183431952663, 26.501305154026472 127.81065088757396, 24.81039662077526 128.60946745562129, 24.233865618319445 129.40828402366864, 24.2222931822804 130.20710059171597, 25.180179939301546 131.0059171597633, 23.47325703477486 131.80473372781066, 22.583803439804544 132.60355029585799, 21.11020437909073 133.40236686390534, 22.402368676049363 134.20118343195267, 22.336488482563222" fill="none" stroke="#32ca5b" stroke-width="1.25"/>

</svg>