<?xml version="1.0" standalone="no"?>
<!DOCTYPE svg PUBLIC "-//W3C//DTD SVG 1.1//EN" "http://www.w3.org/Graphics/SVG/1.1/DTD/svg11.dtd">

<svg width="135" height="50" viewBox="0 0 135 50" preserveAspectRatio="none" 
  xmlns="http://www.w3.org/2000/svg"
  xmlns:xlink="http://www.w3.org/1999/xlink">


<polyline points="0.0, 10.409991007534153 0.7988165680473372, 6.037227990366387 1.5976331360946745, 9.001327425264222 2.396449704142012, 0.9330490038479732 3.195266272189349, 6.585826116969994 3.994082840236686, 0.0 4.792899408284024, 2.2274400056365 5.591715976331361, 1.0654509074650387 6.390532544378698, 0.004272088454404959 7.189349112426036, 5.266991345985296 7.988165680473372, 10.093379950154368 8.78698224852071, 11.501492519631071 9.585798816568047, 8.49170526417921 10.384615384615385, 4.301097830796736 11.183431952662723, 2.8980365636505288 11.982248520710058, 6.7335712288896845 12.781065088757396, 16.130851493131875 13.579881656804734, 14.957572737064753 14.378698224852071, 22.57867855054362 15.177514792899409, 17.716123986129617 15.976331360946745, 15.45256086539952 16.775147928994084, 19.362705334240214 17.57396449704142, 18.383406548851173 18.37278106508876, 14.70205341871836 19.171597633136095, 8.650444556418554 19.970414201183434, 14.774096957516273 20.76923076923077, 18.134508604801216 21.56804733727811, 14.764006635000323 22.366863905325445, 12.785778557872279 23.16568047337278, 13.996449667228877 23.964497041420117, 12.708051568685663 24.763313609467456, 7.967850271086846 25.562130177514792, 13.981493123141034 26.36094674556213, 5.799567529309869 27.159763313609467, 8.368418955672652 27.958579881656807, 9.767715414556116 28.757396449704142, 6.108551769475804 29.55621301775148, 5.4893210884583645 30.355029585798817, 6.338730346001789 31.153846153846157, 16.655706546872064 31.95266272189349, 14.802271935746433 32.751479289940825, 13.684290159912994 33.55029585798817, 14.27176349918991 34.349112426035504, 18.092340925595487 35.14792899408284, 18.203861419083506 35.94674556213018, 18.19079237549559 36.74556213017752, 17.940144393949907 37.54437869822485, 15.724190461699076 38.34319526627219, 12.27337433995659 39.142011834319526, 6.5929441850441 39.94082840236687, 9.288516073147047 40.7396449704142, 4.253352341580852 41.53846153846154, 11.359981070259053 42.337278106508876, 12.27839871191637 43.13609467455622, 10.05742197054741 43.93491124260355, 15.821552511441423 44.73372781065089, 16.48371050634386 45.532544378698226, 15.61317997424361 46.33136094674556, 15.552345188993252 47.1301775147929, 16.17879100736238 47.928994082840234, 16.243424113798547 48.72781065088758, 19.509959275171116 49.52662721893491, 30.196899938787542 50.32544378698225, 24.988548088909614 51.124260355029584, 26.20724764532702 51.92307692307693, 28.089561699827055 52.72189349112426, 26.032788486413512 53.5207100591716, 30.90451503257906 54.319526627218934, 29.318948511915522 55.11834319526627, 30.63833219580394 55.91715976331361, 33.04977287004059 56.71597633136094, 32.703019250406534 57.514792899408285, 32.3325478996501 58.31360946745562, 30.952561220545217 59.11242603550296, 30.99911143773806 59.91124260355029, 31.39541479820085 60.710059171597635, 36.88510484100361 61.50887573964497, 34.970850699632386 62.307692307692314, 34.146147523200796 63.10650887573964, 31.994952128528592 63.90532544378698, 32.130962414940036 64.70414201183432, 31.08845155475316 65.50295857988165, 30.194025349452197 66.30177514792899, 26.95325087481923 67.10059171597634, 26.182109231694835 67.89940828402366, 25.43238602194827 68.69822485207101, 25.064457126055274 69.49704142011834, 24.47012109781019 70.29585798816568, 29.786462345437346 71.09467455621302, 32.543807953082684 71.89349112426036, 32.931670356502565 72.6923076923077, 36.59703078436311 73.49112426035504, 35.8021432415302 74.28994082840237, 35.584646772144836 75.0887573964497, 33.919355990725386 75.88757396449704, 33.871374864841286 76.68639053254438, 34.88900211953009 77.48520710059172, 35.028805277905875 78.28402366863905, 39.66385131744076 79.0828402366864, 40.1900393276415 79.88165680473374, 41.33965103154939 80.68047337278107, 41.80311441041666 81.4792899408284, 42.328295488394254 82.27810650887574, 39.43420015598409 83.07692307692308, 42.659286050723715 83.87573964497041, 42.75960888725726 84.67455621301775, 42.45046280801741 85.4733727810651, 42.71473241095927 86.27218934911244, 38.25327535503747 87.07100591715975, 35.636552206953446 87.8698224852071, 31.4216071380704 88.66863905325444, 32.64653592049548 89.46745562130178, 37.20259120307035 90.26627218934911, 33.89397050306855 91.06508875739645, 31.110234615230663 91.8639053254438, 36.929163750290684 92.66272189349112, 37.714998567060974 93.46153846153845, 38.29202087618 94.2603550295858, 42.55106983914991 95.05917159763314, 39.426851959963166 95.85798816568047, 42.712443618185574 96.65680473372781, 41.52763351555138 97.45562130177515, 37.62420116013104 98.2544378698225, 36.95043750054347 99.05325443786982, 35.538559585338575 99.85207100591715, 35.27010905063174 100.6508875739645, 38.90710805323418 101.44970414201183, 42.26910395287916 102.24852071005917, 47.36779536096303 103.04733727810651, 41.95487560297423 103.84615384615385, 45.132432781292835 104.64497041420118, 50.0 105.44378698224853, 44.08044474087227 106.24260355029585, 44.01225138928756 107.0414201183432, 44.59118407803484 107.84023668639053, 44.1503284455167 108.63905325443787, 44.46646819428178 109.43786982248521, 32.88991251478622 110.23668639053254, 35.59359820436048 111.03550295857988, 32.62358160328224 111.83431952662723, 33.91688811899661 112.63313609467457, 41.002542839360935 113.43195266272188, 37.936360094888755 114.23076923076923, 39.286830447734886 115.02958579881657, 42.33979355061776 115.82840236686391, 42.6635693872798 116.62721893491124, 43.978863683194966 117.42603550295858, 44.95961837943943 118.22485207100593, 44.2508017078649 119.02366863905324, 42.05325575433713 119.82248520710058, 42.39804762624537 120.62130177514793, 38.212159829614315 121.42011834319527, 36.9510643946939 122.2189349112426, 36.4995263227686 123.01775147928994, 38.115957934173565 123.81656804733728, 37.92200558636609 124.61538461538463, 36.021392720446904 125.41420118343194, 32.89540950020174 126.21301775147928, 34.698959173950065 127.01183431952663, 35.187857925366366 127.81065088757396, 16.16709555246774 128.60946745562129, 11.317754483501677 129.40828402366864, 14.803128310868729 130.20710059171597, 11.884856945646655 131.0059171597633, 14.095663860953591 131.80473372781066, 14.883932147167297 132.60355029585799, 3.700300591977542 133.40236686390534, 2.3146646634576924 134.20118343195267, 9.419099134803476" fill="none" stroke="#32ca5b" stroke-width="1.25"/>

</svg>