<?xml version="1.0" standalone="no"?>
<!DOCTYPE svg PUBLIC "-//W3C//DTD SVG 1.1//EN" "http://www.w3.org/Graphics/SVG/1.1/DTD/svg11.dtd">

<svg width="135" height="50" viewBox="0 0 135 50" preserveAspectRatio="none" 
  xmlns="http://www.w3.org/2000/svg"
  xmlns:xlink="http://www.w3.org/1999/xlink">


<polyline points="0.0, 44.24445456648049 0.7988165680473372, 45.04868614114487 1.5976331360946745, 45.490265487332714 2.396449704142012, 45.07315774356864 3.195266272189349, 45.960765979225094 3.994082840236686, 45.698291637111545 4.792899408284024, 45.33999332340339 5.591715976331361, 45.24397393421982 6.390532544378698, 45.191964845834086 7.189349112426036, 45.67658868042549 7.988165680473372, 46.22367117285799 8.78698224852071, 45.56600025732621 9.585798816568047, 45.02559516799617 10.384615384615385, 45.35737650588005 11.183431952662723, 44.18758750312624 11.982248520710058, 45.78055311156809 12.781065088757396, 47.531410331962896 13.579881656804734, 47.892485421281286 14.378698224852071, 47.22341359182485 15.177514792899409, 47.095650011886136 15.976331360946745, 46.28892844973416 16.775147928994084, 46.08902977556376 17.57396449704142, 45.64529126933009 18.37278106508876, 45.35566144584 19.171597633136095, 45.56990362391046 19.970414201183434, 45.78874412607123 20.76923076923077, 46.11960631147084 21.56804733727811, 46.38664446323217 22.366863905325445, 46.42838309640316 23.16568047337278, 46.754736136271106 23.964497041420117, 47.22450620748322 24.763313609467456, 47.748831934712705 25.562130177514792, 47.981848845698465 26.36094674556213, 47.46343503002365 27.159763313609467, 48.969890680143 27.958579881656807, 48.235904931211735 28.757396449704142, 48.42497170191669 29.55621301775148, 47.83764285479327 30.355029585798817, 48.21776051321901 31.153846153846157, 48.983874841858274 31.95266272189349, 48.67062403584231 32.751479289940825, 48.32290709568557 33.55029585798817, 49.17849980560692 34.349112426035504, 49.502642236392006 35.14792899408284, 49.06523145926635 35.94674556213018, 49.05779303293114 36.74556213017752, 47.92548954101602 37.54437869822485, 47.39417401303525 38.34319526627219, 46.959429934821955 39.142011834319526, 47.25310990920952 39.94082840236687, 47.79536640453101 40.7396449704142, 47.67903143375376 41.53846153846154, 47.39442291282066 42.337278106508876, 47.70213937540201 43.13609467455622, 47.49668059272019 43.93491124260355, 46.3845377480355 44.73372781065089, 46.56593499349601 45.532544378698226, 45.988670447811046 46.33136094674556, 46.02664974262573 47.1301775147929, 46.71774010315 47.928994082840234, 46.70383430328354 48.72781065088758, 46.98120732518982 49.52662721893491, 47.72326349594844 50.32544378698225, 47.01255713845163 51.124260355029584, 46.639191395226426 51.92307692307693, 47.16257246715897 52.72189349112426, 46.62660536721063 53.5207100591716, 46.351501493826916 54.319526627218934, 46.59087689190324 55.11834319526627, 46.09325576675301 55.91715976331361, 46.78561491117752 56.71597633136094, 46.87649712138815 57.514792899408285, 47.303143256466136 58.31360946745562, 46.86220487794988 59.11242603550296, 47.1634568004738 59.91124260355029, 47.91020744590547 60.710059171597635, 48.52573260101088 61.50887573964497, 48.73506481894297 62.307692307692314, 49.61148318923166 63.10650887573964, 49.19380828781891 63.90532544378698, 49.646682229125574 64.70414201183432, 50.0 65.50295857988165, 49.48526863607395 66.30177514792899, 49.477270585874564 67.10059171597634, 49.57714774079556 67.89940828402366, 49.371563891080456 68.69822485207101, 48.95138626598134 69.49704142011834, 14.771454210132118 70.29585798816568, 9.005634786998263 71.09467455621302, 12.140327051391067 71.89349112426036, 13.902284972265564 72.6923076923077, 17.323503841214034 73.49112426035504, 14.650355133068608 74.28994082840237, 12.086976394007532 75.0887573964497, 12.517563679780224 75.88757396449704, 13.983857883525053 76.68639053254438, 11.57372470208234 77.48520710059172, 2.3865073878241603 78.28402366863905, 7.1072009649477685 79.0828402366864, 5.732549408415552 79.88165680473374, 4.029123206614311 80.68047337278107, 4.4401507476732895 81.4792899408284, 5.583434599327337 82.27810650887574, 5.035050101844378 83.07692307692308, 0.0 83.87573964497041, 2.924813677175797 84.67455621301775, 1.9081639399341204 85.4733727810651, 1.448728182576058 86.27218934911244, 4.337600543834101 87.07100591715975, 6.567504983483223 87.8698224852071, 5.667978601810382 88.66863905325444, 13.279176238055989 89.46745562130178, 13.59757309405754 90.26627218934911, 12.822185950978158 91.06508875739645, 12.00180823546317 91.8639053254438, 13.394870461865702 92.66272189349112, 12.866398796022423 93.46153846153845, 12.77079978752094 94.2603550295858, 12.600972812135428 95.05917159763314, 12.472729758958407 95.85798816568047, 12.270691582531274 96.65680473372781, 12.05473467503808 97.45562130177515, 10.833013951735403 98.2544378698225, 16.722677278780516 99.05325443786982, 19.59109079314368 99.85207100591715, 19.212499267195877 100.6508875739645, 18.013104307979862 101.44970414201183, 19.01894512345125 102.24852071005917, 18.910174674663114 103.04733727810651, 19.05410741681229 103.84615384615385, 18.138673345823605 104.64497041420118, 18.387104668168252 105.44378698224853, 16.47099297039963 106.24260355029585, 16.75907309022421 107.0414201183432, 18.809694464964448 107.84023668639053, 18.783918034384357 108.63905325443787, 19.161502028781058 109.43786982248521, 18.722353730383578 110.23668639053254, 16.74785450575388 111.03550295857988, 17.063945764878756 111.83431952662723, 16.984808109061202 112.63313609467457, 17.48230889302584 113.43195266272188, 17.22136287607751 114.23076923076923, 15.942476640209295 115.02958579881657, 13.70291287739632 115.82840236686391, 14.41928737271087 116.62721893491124, 15.330433722976384 117.42603550295858, 11.737423120842863 118.22485207100593, 13.611789365229871 119.02366863905324, 14.757035141309757 119.82248520710058, 15.539805331173579 120.62130177514793, 15.680643648824322 121.42011834319527, 17.74048736363484 122.2189349112426, 16.985026694882617 123.01775147928994, 17.85314895129164 123.81656804733728, 18.113357462868805 124.61538461538463, 18.372229304285725 125.41420118343194, 18.34480962714374 126.21301775147928, 19.08986663868233 127.01183431952663, 17.637476580943677 127.81065088757396, 16.495681399546417 128.60946745562129, 16.611305979685145 129.40828402366864, 18.269735804902904 130.20710059171597, 19.19562056216151 131.0059171597633, 18.798632364742378 131.80473372781066, 18.921737846624588 132.60355029585799, 18.413992363184995 133.40236686390534, 18.32693002005663 134.20118343195267, 17.995326089470286" fill="none" stroke="#32ca5b" stroke-width="1.25"/>

</svg>