<?xml version="1.0" standalone="no"?>
<!DOCTYPE svg PUBLIC "-//W3C//DTD SVG 1.1//EN" "http://www.w3.org/Graphics/SVG/1.1/DTD/svg11.dtd">

<svg width="135" height="50" viewBox="0 0 135 50" preserveAspectRatio="none" 
  xmlns="http://www.w3.org/2000/svg"
  xmlns:xlink="http://www.w3.org/1999/xlink">


<polyline points="0.0, 29.946531562937977 0.7988165680473372, 30.878821760234587 1.5976331360946745, 28.592586980810385 2.396449704142012, 31.505647650639506 3.195266272189349, 29.911294686260128 3.994082840236686, 29.38968227063273 4.792899408284024, 29.461463347225557 5.591715976331361, 30.487346743574033 6.390532544378698, 32.44481472242155 7.189349112426036, 33.22316059558268 7.988165680473372, 30.70824425853771 8.78698224852071, 29.62873948791149 9.585798816568047, 32.15403806609346 10.384615384615385, 28.52878532852562 11.183431952662723, 34.40436497380229 11.982248520710058, 38.58499188528809 12.781065088757396, 40.709597782858836 13.579881656804734, 40.474349929601985 14.378698224852071, 39.61932356381008 15.177514792899409, 35.88451226193096 15.976331360946745, 34.721751820697364 16.775147928994084, 33.960207771376375 17.57396449704142, 32.68608547530891 18.37278106508876, 33.29084131723729 19.171597633136095, 35.07892712932949 19.970414201183434, 36.45148859855643 20.76923076923077, 36.66674176440144 21.56804733727811, 35.78251292582266 22.366863905325445, 36.70985725155165 23.16568047337278, 37.63628407159536 23.964497041420117, 39.44449391570062 24.763313609467456, 40.64683858934014 25.562130177514792, 38.616086390861696 26.36094674556213, 44.41280665662112 27.159763313609467, 42.33418566975898 27.958579881656807, 44.49034844123157 28.757396449704142, 42.314395917066314 29.55621301775148, 43.53121552537259 30.355029585798817, 46.1685137970563 31.153846153846157, 44.96486277427712 31.95266272189349, 44.15813704634923 32.751479289940825, 46.50586508165714 33.55029585798817, 50.0 34.349112426035504, 48.26648885077145 35.14792899408284, 49.34943569697 35.94674556213018, 45.38650445521878 36.74556213017752, 44.00127826868661 37.54437869822485, 43.31338703587177 38.34319526627219, 45.89271445990655 39.142011834319526, 48.70269540339861 39.94082840236687, 47.94518250822383 40.7396449704142, 46.79875982377489 41.53846153846154, 46.40541816650064 42.337278106508876, 43.439762667682146 43.13609467455622, 39.2132159003819 43.93491124260355, 39.35972860049654 44.73372781065089, 37.601107744124704 45.532544378698226, 37.45829288207385 46.33136094674556, 39.049794949146204 47.1301775147929, 39.82866456675184 47.928994082840234, 41.152015959839034 48.72781065088758, 42.86040855901992 49.52662721893491, 40.11181625324947 50.32544378698225, 38.427541578688654 51.124260355029584, 34.80839005082646 51.92307692307693, 31.15268540048343 52.72189349112426, 29.296179079304146 53.5207100591716, 30.309810515854775 54.319526627218934, 27.076020474129663 55.11834319526627, 28.62676688924866 55.91715976331361, 26.74299261846782 56.71597633136094, 27.39313348619276 57.514792899408285, 28.587750433748187 58.31360946745562, 26.007065037116718 59.11242603550296, 30.021852596692337 59.91124260355029, 32.338926901148916 60.710059171597635, 32.42060187537421 61.50887573964497, 31.012729938961805 62.307692307692314, 27.618742544759883 63.10650887573964, 30.775187452005397 63.90532544378698, 30.873245246752607 64.70414201183432, 29.958937935248453 65.50295857988165, 25.66949586592283 66.30177514792899, 25.787334836131016 67.10059171597634, 28.673566785418185 67.89940828402366, 26.952548640323826 68.69822485207101, 22.178752595051897 69.49704142011834, 19.521497864215068 70.29585798816568, 21.95838224794239 71.09467455621302, 16.50532223726312 71.89349112426036, 20.20591017419431 72.6923076923077, 20.40121075323624 73.49112426035504, 17.967524319766877 74.28994082840237, 14.18469691906612 75.0887573964497, 16.803273698820043 75.88757396449704, 14.807055144299003 76.68639053254438, 8.584918600146297 77.48520710059172, 21.38791077695633 78.28402366863905, 18.34093098834229 79.0828402366864, 16.330541276751333 79.88165680473374, 14.688866093433987 80.68047337278107, 12.368559927452923 81.4792899408284, 14.590548985667365 82.27810650887574, 13.816037788903913 83.07692307692308, 10.305904611335993 83.87573964497041, 3.0908927540518447 84.67455621301775, 6.271222285114263 85.4733727810651, 4.921417954815474 86.27218934911244, 8.74601846019146 87.07100591715975, 9.74067555810792 87.8698224852071, 10.974250149121566 88.66863905325444, 13.753873001525662 89.46745562130178, 14.862561485803502 90.26627218934911, 13.021194936976933 91.06508875739645, 12.764281971829453 91.8639053254438, 15.228993597835252 92.66272189349112, 16.412146088954085 93.46153846153845, 15.972698963296134 94.2603550295858, 15.490158551908282 95.05917159763314, 16.41011053754079 95.85798816568047, 15.233779269723199 96.65680473372781, 14.406076217749309 97.45562130177515, 15.100273926006835 98.2544378698225, 16.848286767523543 99.05325443786982, 18.914278049316362 99.85207100591715, 17.875867613011636 100.6508875739645, 17.612481360300006 101.44970414201183, 16.842496970767705 102.24852071005917, 19.239254940476606 103.04733727810651, 17.718797658618367 103.84615384615385, 15.962316164225468 104.64497041420118, 13.805046238338809 105.44378698224853, 10.496623288383638 106.24260355029585, 8.584556922611238 107.0414201183432, 10.781204894139467 107.84023668639053, 12.582041282810541 108.63905325443787, 14.328082650388673 109.43786982248521, 14.888821564771176 110.23668639053254, 13.147452341202955 111.03550295857988, 11.008427815759116 111.83431952662723, 10.006550398141039 112.63313609467457, 8.887408621776792 113.43195266272188, 11.555897068577247 114.23076923076923, 10.78361753229528 115.02958579881657, 7.907375079302885 115.82840236686391, 3.359844751565265 116.62721893491124, 4.997416875525728 117.42603550295858, 3.991301982450262 118.22485207100593, 0.0 119.02366863905324, 0.3351172731026848 119.82248520710058, 2.0350551033158704 120.62130177514793, 9.264968018597969 121.42011834319527, 9.380176485280165 122.2189349112426, 17.725304528998752 123.01775147928994, 17.745360823287143 123.81656804733728, 16.905897177284167 124.61538461538463, 15.934621020535293 125.41420118343194, 17.853560051047086 126.21301775147928, 13.99422369725377 127.01183431952663, 7.674376678500945 127.81065088757396, 7.639874430961259 128.60946745562129, 6.9365992801620076 129.40828402366864, 8.770558569516353 130.20710059171597, 6.5188478839696185 131.0059171597633, 6.808611016762265 131.80473372781066, 3.0236914801925003 132.60355029585799, 4.420098716897964 133.40236686390534, 4.667719917503657 134.20118343195267, 0.8733118116262113" fill="none" stroke="#32ca5b" stroke-width="1.25"/>

</svg>