<?xml version="1.0" standalone="no"?>
<!DOCTYPE svg PUBLIC "-//W3C//DTD SVG 1.1//EN" "http://www.w3.org/Graphics/SVG/1.1/DTD/svg11.dtd">

<svg width="135" height="50" viewBox="0 0 135 50" preserveAspectRatio="none" 
  xmlns="http://www.w3.org/2000/svg"
  xmlns:xlink="http://www.w3.org/1999/xlink">


<polyline points="0.0, 3.7800363935223755 0.7988165680473372, 6.943667744958789 1.5976331360946745, 10.470833829685597 2.396449704142012, 9.904945275143383 3.195266272189349, 17.942373352926843 3.994082840236686, 14.606554910498426 4.792899408284024, 11.411292643318921 5.591715976331361, 13.006284264514736 6.390532544378698, 13.892581276048654 7.189349112426036, 16.2288454774362 7.988165680473372, 16.993384869466936 8.78698224852071, 13.966806256991907 9.585798816568047, 11.740229046609334 10.384615384615385, 14.851415652085917 11.183431952662723, 0.0 11.982248520710058, 12.968269881693095 12.781065088757396, 17.975097752321172 13.579881656804734, 27.06626659235038 14.378698224852071, 24.573169161258416 15.177514792899409, 25.817248127975894 15.976331360946745, 20.949102699110902 16.775147928994084, 17.90053606165019 17.57396449704142, 17.937282596457806 18.37278106508876, 14.646503959791387 19.171597633136095, 13.151132355897454 19.970414201183434, 14.111731839945552 20.76923076923077, 16.633990651594385 21.56804733727811, 17.831452822235587 22.366863905325445, 9.14135658339821 23.16568047337278, 12.918243690366163 23.964497041420117, 15.421316731285357 24.763313609467456, 17.20810433253704 25.562130177514792, 16.68818434839143 26.36094674556213, 11.983881207564968 27.159763313609467, 24.701132068540463 27.958579881656807, 20.467320329550294 28.757396449704142, 25.434768150283503 29.55621301775148, 23.95332868136259 30.355029585798817, 26.021535586131716 31.153846153846157, 31.64360871778755 31.95266272189349, 27.747844782220593 32.751479289940825, 24.387626919155807 33.55029585798817, 28.515680440193915 34.349112426035504, 34.01279875087243 35.14792899408284, 30.622907909685775 35.94674556213018, 31.310698246264597 36.74556213017752, 26.530388305086944 37.54437869822485, 26.5506953870006 38.34319526627219, 22.588661659643932 39.142011834319526, 27.360858923214998 39.94082840236687, 35.86321828474236 40.7396449704142, 36.22919963180794 41.53846153846154, 31.462168724835138 42.337278106508876, 31.024806577552482 43.13609467455622, 31.865443928780852 43.93491124260355, 28.077432949660906 44.73372781065089, 24.608782253405455 45.532544378698226, 19.64378810264732 46.33136094674556, 18.92895271322857 47.1301775147929, 24.249385448638343 47.928994082840234, 24.27329792155658 48.72781065088758, 25.33594650697402 49.52662721893491, 30.557683828778963 50.32544378698225, 27.179652519883412 51.124260355029584, 28.904645675651096 51.92307692307693, 33.89334979866928 52.72189349112426, 33.239435093492744 53.5207100591716, 29.657263024452092 54.319526627218934, 31.787093400450306 55.11834319526627, 28.278458109317565 55.91715976331361, 33.68031893105874 56.71597633136094, 34.487520521246076 57.514792899408285, 36.89568453121848 58.31360946745562, 33.66964370684524 59.11242603550296, 35.4928375365937 59.91124260355029, 41.934428029843154 60.710059171597635, 44.11810355004802 61.50887573964497, 42.11042913538524 62.307692307692314, 41.64294454897606 63.10650887573964, 37.45722241592621 63.90532544378698, 41.10627849894961 64.70414201183432, 43.23064774597633 65.50295857988165, 41.792732050417214 66.30177514792899, 42.015279856422644 67.10059171597634, 42.03217613273675 67.89940828402366, 45.80887270819696 68.69822485207101, 43.109920059667814 69.49704142011834, 41.06054724336866 70.29585798816568, 43.11837600817939 71.09467455621302, 43.66770171885293 71.89349112426036, 37.45067882875178 72.6923076923077, 39.4867401135456 73.49112426035504, 38.76688741260022 74.28994082840237, 37.51643256695322 75.0887573964497, 40.714837069081376 75.88757396449704, 44.932862706774 76.68639053254438, 44.20968345610541 77.48520710059172, 41.59257595228439 78.28402366863905, 50.0 79.0828402366864, 45.53055794603797 79.88165680473374, 43.742851228173606 80.68047337278107, 37.46749086713599 81.4792899408284, 35.64833601110416 82.27810650887574, 40.25723154728292 83.07692307692308, 36.91186794544961 83.87573964497041, 39.046013394439136 84.67455621301775, 33.48381766482893 85.4733727810651, 33.14260682197304 86.27218934911244, 34.05954337232755 87.07100591715975, 34.8815237916543 87.8698224852071, 33.52542988889592 88.66863905325444, 38.6585560839378 89.46745562130178, 37.73547848083521 90.26627218934911, 36.98391207714454 91.06508875739645, 34.578336562930126 91.8639053254438, 36.66256695542566 92.66272189349112, 36.801448191227685 93.46153846153845, 36.633116264829624 94.2603550295858, 36.966647721274335 95.05917159763314, 36.44781154097653 95.85798816568047, 36.66455080685769 96.65680473372781, 36.683020288954076 97.45562130177515, 35.27609508886142 98.2544378698225, 29.4067393106204 99.05325443786982, 28.76166631228013 99.85207100591715, 34.500340060940786 100.6508875739645, 31.358354088824274 101.44970414201183, 30.56902848636553 102.24852071005917, 31.32148800952221 103.04733727810651, 35.37316662138656 103.84615384615385, 35.161262107384964 104.64497041420118, 34.687698501524565 105.44378698224853, 32.69694043670133 106.24260355029585, 32.409238893374784 107.0414201183432, 33.76270115234185 107.84023668639053, 24.731131632592227 108.63905325443787, 29.99545181631287 109.43786982248521, 32.282334197085696 110.23668639053254, 29.422080225347663 111.03550295857988, 28.68821404945285 111.83431952662723, 28.595951812143277 112.63313609467457, 25.85041669454286 113.43195266272188, 23.373288157248545 114.23076923076923, 25.09359794480594 115.02958579881657, 17.26863907161708 115.82840236686391, 18.052294138919926 116.62721893491124, 22.049379322288274 117.42603550295858, 24.752213070365396 118.22485207100593, 21.28101853852194 119.02366863905324, 21.70004105976903 119.82248520710058, 24.801160028640957 120.62130177514793, 24.194004681064055 121.42011834319527, 29.197557088176545 122.2189349112426, 28.350642764174278 123.01775147928994, 36.97177703221065 123.81656804733728, 34.856260705603496 124.61538461538463, 33.65868423556482 125.41420118343194, 33.55762707268028 126.21301775147928, 35.063599965822654 127.01183431952663, 29.34622359090817 127.81065088757396, 25.079470801115853 128.60946745562129, 22.712887380401263 129.40828402366864, 23.23980346146778 130.20710059171597, 27.002676062521267 131.0059171597633, 24.10121427991414 131.80473372781066, 23.612120442204567 132.60355029585799, 23.539588891951375 133.40236686390534, 25.874027453364366 134.20118343195267, 23.787802794888602" fill="none" stroke="#ff3a33" stroke-width="1.25"/>

</svg>