<?xml version="1.0" standalone="no"?>
<!DOCTYPE svg PUBLIC "-//W3C//DTD SVG 1.1//EN" "http://www.w3.org/Graphics/SVG/1.1/DTD/svg11.dtd">

<svg width="135" height="50" viewBox="0 0 135 50" preserveAspectRatio="none" 
  xmlns="http://www.w3.org/2000/svg"
  xmlns:xlink="http://www.w3.org/1999/xlink">


<polyline points="0.0, 17.973426669151557 0.7988165680473372, 21.93107603632088 1.5976331360946745, 11.087243503507642 2.396449704142012, 15.342263919689922 3.195266272189349, 10.338155402853378 3.994082840236686, 9.811320312151746 4.792899408284024, 5.191851705187293 5.591715976331361, 5.329331540089229 6.390532544378698, 9.413026613114967 7.189349112426036, 15.24113963861927 7.988165680473372, 4.516196032863036 8.78698224852071, 1.552292963503955 9.585798816568047, 7.899740333104443 10.384615384615385, 1.7433170628785906 11.183431952662723, 14.687284413082317 11.982248520710058, 26.89154920097479 12.781065088757396, 33.726171470079734 13.579881656804734, 31.93549136038448 14.378698224852071, 27.956895362426536 15.177514792899409, 20.23014761521033 15.976331360946745, 15.851524290562624 16.775147928994084, 13.169205436477563 17.57396449704142, 8.921457225382737 18.37278106508876, 12.319288346119372 19.171597633136095, 0.0 19.970414201183434, 6.438833680368146 20.76923076923077, 3.2258076125312347 21.56804733727811, 4.188289740003958 22.366863905325445, 8.779042987170316 23.16568047337278, 16.51643715509985 23.964497041420117, 20.922083934455348 24.763313609467456, 23.561145272790736 25.562130177514792, 19.46700657327237 26.36094674556213, 33.67027865336915 27.159763313609467, 30.128851650366826 27.958579881656807, 35.39238564750898 28.757396449704142, 30.523570292179787 29.55621301775148, 35.71986067195031 30.355029585798817, 39.59226471520809 31.153846153846157, 34.02916270667787 31.95266272189349, 33.11772268808877 32.751479289940825, 37.74765578213672 33.55029585798817, 39.93290037117094 34.349112426035504, 37.56611731966509 35.14792899408284, 38.47167329200953 35.94674556213018, 30.685482405576064 36.74556213017752, 26.928187175964386 37.54437869822485, 25.766546381900607 38.34319526627219, 32.16380138411045 39.142011834319526, 38.5317487888887 39.94082840236687, 38.91297465672031 40.7396449704142, 35.27917555222073 41.53846153846154, 35.15493515828238 42.337278106508876, 34.31193967987839 43.13609467455622, 28.944090953441293 43.93491124260355, 22.49547809011961 44.73372781065089, 18.470910746562108 45.532544378698226, 18.049591464382527 46.33136094674556, 23.613572330185274 47.1301775147929, 24.737340561163045 47.928994082840234, 25.85265202047723 48.72781065088758, 34.440287823723345 49.52662721893491, 30.87558359547416 50.32544378698225, 30.82374114356467 51.124260355029584, 33.96510617193606 51.92307692307693, 28.69629381446927 52.72189349112426, 27.04213321289557 53.5207100591716, 29.344108698984677 54.319526627218934, 26.205235070428955 55.11834319526627, 32.79607303604535 55.91715976331361, 30.91128851421059 56.71597633136094, 36.91849600040787 57.514792899408285, 35.87965773071997 58.31360946745562, 37.0856351684879 59.11242603550296, 41.21986304899261 59.91124260355029, 45.758668551861746 60.710059171597635, 43.309028172785645 61.50887573964497, 42.22416208107313 62.307692307692314, 39.667435530740484 63.10650887573964, 44.01205683440173 63.90532544378698, 46.591283534340604 64.70414201183432, 45.7063737208077 65.50295857988165, 40.602564989884684 66.30177514792899, 39.391049883873805 67.10059171597634, 45.141056621713716 67.89940828402366, 42.70649589594196 68.69822485207101, 38.91137870303141 69.49704142011834, 45.133771027903656 70.29585798816568, 45.5825553519615 71.09467455621302, 39.343759624106035 71.89349112426036, 41.25398179157935 72.6923076923077, 39.356165401524144 73.49112426035504, 38.222569945069715 74.28994082840237, 40.02846327468072 75.0887573964497, 43.83593289146454 75.88757396449704, 43.86527244484962 76.68639053254438, 40.14799372520115 77.48520710059172, 50.0 78.28402366863905, 42.36072359896505 79.0828402366864, 39.488293023826955 79.88165680473374, 37.378887383155565 80.68047337278107, 37.6666164306172 81.4792899408284, 38.84683377171165 82.27810650887574, 33.70606216329642 83.07692307692308, 34.734440139814936 83.87573964497041, 33.01756847963676 84.67455621301775, 32.8189186816801 85.4733727810651, 31.5993451853746 86.27218934911244, 34.80777711979372 87.07100591715975, 32.9607926138558 87.8698224852071, 33.983492530417394 88.66863905325444, 32.670709338015804 89.46745562130178, 30.47728590842577 90.26627218934911, 28.264248454666514 91.06508875739645, 30.39610130615884 91.8639053254438, 30.032018913469187 92.66272189349112, 31.353816118021864 93.46153846153845, 31.32813341353153 94.2603550295858, 29.34269059883226 95.05917159763314, 30.690447577871666 95.85798816568047, 33.11476482974096 96.65680473372781, 31.373652230915113 97.45562130177515, 32.32605901038568 98.2544378698225, 34.79263972042103 99.05325443786982, 36.89718708462749 99.85207100591715, 35.12282298620455 100.6508875739645, 34.242650647943655 101.44970414201183, 35.377875016550284 102.24852071005917, 38.91106259435602 103.04733727810651, 37.514883404365996 103.84615384615385, 37.85497926441963 104.64497041420118, 34.313247507183256 105.44378698224853, 32.75372238745195 106.24260355029585, 33.72441078985797 107.0414201183432, 31.789481061977487 107.84023668639053, 33.883608618192895 108.63905325443787, 32.88754269671035 109.43786982248521, 28.913748841973515 110.23668639053254, 28.5668659591251 111.03550295857988, 27.890518045355833 111.83431952662723, 27.96367620199719 112.63313609467457, 27.97975366379179 113.43195266272188, 29.38842173703066 114.23076923076923, 28.682505811206894 115.02958579881657, 28.267865867273517 115.82840236686391, 31.288329844035566 116.62721893491124, 32.64004169652549 117.42603550295858, 31.90372342989609 118.22485207100593, 33.444221753522534 119.02366863905324, 28.90013827711315 119.82248520710058, 28.95199427535808 120.62130177514793, 36.60236997549175 121.42011834319527, 35.924263047257035 122.2189349112426, 45.0011252825775 123.01775147928994, 41.822295438775605 123.81656804733728, 42.405721386141906 124.61538461538463, 39.33603992769137 125.41420118343194, 42.52125050227939 126.21301775147928, 36.2022047615216 127.01183431952663, 30.887086501460598 127.81065088757396, 25.86352877736814 128.60946745562129, 23.690700400081788 129.40828402366864, 24.755671873903207 130.20710059171597, 20.84408780588728 131.0059171597633, 19.628121331793768 131.80473372781066, 21.18689475002509 132.60355029585799, 20.356287422456127 133.40236686390534, 21.896640055543674 134.20118343195267, 21.001609850791105" fill="none" stroke="#ff3a33" stroke-width="1.25"/>

</svg>