<?xml version="1.0" standalone="no"?>
<!DOCTYPE svg PUBLIC "-//W3C//DTD SVG 1.1//EN" "http://www.w3.org/Graphics/SVG/1.1/DTD/svg11.dtd">

<svg width="135" height="50" viewBox="0 0 135 50" preserveAspectRatio="none" 
  xmlns="http://www.w3.org/2000/svg"
  xmlns:xlink="http://www.w3.org/1999/xlink">


<polyline points="0.0, 47.13973569159491 0.7988165680473372, 45.64776143510634 1.5976331360946745, 45.32187421209419 2.396449704142012, 45.66604645626773 3.195266272189349, 44.5503810898715 3.994082840236686, 42.30364482610127 4.792899408284024, 42.155075555234674 5.591715976331361, 41.33093820099031 6.390532544378698, 43.26108727877212 7.189349112426036, 45.1134082742473 7.988165680473372, 42.83139427090363 8.78698224852071, 41.63898654338539 9.585798816568047, 43.614237860903074 10.384615384615385, 40.64211882175249 11.183431952662723, 44.95174976172337 11.982248520710058, 47.71296927757397 12.781065088757396, 50.0 13.579881656804734, 49.788990163556456 14.378698224852071, 48.5543844471557 15.177514792899409, 45.42914674236299 15.976331360946745, 45.73582336182862 16.775147928994084, 45.42507203812568 17.57396449704142, 44.93369130862184 18.37278106508876, 44.591897922598896 19.171597633136095, 44.98573998527158 19.970414201183434, 45.6755824447563 20.76923076923077, 45.642217323637 21.56804733727811, 45.87789196141697 22.366863905325445, 45.88877984890066 23.16568047337278, 45.058079845349816 23.964497041420117, 46.676639796287645 24.763313609467456, 40.87261946346294 25.562130177514792, 36.2766325211341 26.36094674556213, 38.88802449327345 27.159763313609467, 36.00149145599483 27.958579881656807, 36.210417218989285 28.757396449704142, 29.92684992038851 29.55621301775148, 30.29902854446695 30.355029585798817, 31.76836959965995 31.153846153846157, 32.14421716815083 31.95266272189349, 29.140261405768786 32.751479289940825, 31.7040374372587 33.55029585798817, 33.52228154481794 34.349112426035504, 29.931382118639 35.14792899408284, 29.097961757762548 35.94674556213018, 27.24919201507484 36.74556213017752, 26.015716115624482 37.54437869822485, 22.656104702382603 38.34319526627219, 18.996417689289785 39.142011834319526, 22.776206405732612 39.94082840236687, 24.90316970028156 40.7396449704142, 25.85502480368677 41.53846153846154, 25.394942529265553 42.337278106508876, 23.649270445131705 43.13609467455622, 20.709704331928286 43.93491124260355, 22.438455337127614 44.73372781065089, 19.88444925430444 45.532544378698226, 18.87916329624649 46.33136094674556, 20.46459279819338 47.1301775147929, 19.58695407080888 47.928994082840234, 20.369375755686413 48.72781065088758, 23.757756915312143 49.52662721893491, 20.858481231876862 50.32544378698225, 21.025386211788934 51.124260355029584, 23.53573845148769 51.92307692307693, 21.102823488373517 52.72189349112426, 20.123106705585478 53.5207100591716, 20.103708574253297 54.319526627218934, 16.549609777485124 55.11834319526627, 19.455562634485688 55.91715976331361, 17.74735709729163 56.71597633136094, 19.730286453932063 57.514792899408285, 16.694076035190484 58.31360946745562, 18.321338280164408 59.11242603550296, 21.759771750191565 59.91124260355029, 22.931111345177115 60.710059171597635, 22.852363696804986 61.50887573964497, 21.4347437730487 62.307692307692314, 19.03651498770563 63.10650887573964, 24.72147611980711 63.90532544378698, 23.7752008530934 64.70414201183432, 24.94733338843528 65.50295857988165, 24.49046948152912 66.30177514792899, 24.96535661562959 67.10059171597634, 27.152034514236135 67.89940828402366, 26.4209910715123 68.69822485207101, 24.72401834334364 69.49704142011834, 28.484109197770223 70.29585798816568, 27.092918115391168 71.09467455621302, 26.37457790610407 71.89349112426036, 25.9828014818998 72.6923076923077, 24.32056415129611 73.49112426035504, 24.839781278765642 74.28994082840237, 25.508722378035532 75.0887573964497, 27.4511303929024 75.88757396449704, 25.844174785317147 76.68639053254438, 24.47493289930488 77.48520710059172, 28.818815647546476 78.28402366863905, 25.980265862541934 79.0828402366864, 23.996479005487732 79.88165680473374, 22.564814076189823 80.68047337278107, 21.815125090500842 81.4792899408284, 22.469316517084025 82.27810650887574, 22.31530110409751 83.07692307692308, 21.310959975304257 83.87573964497041, 22.11521943173154 84.67455621301775, 20.200174169970534 85.4733727810651, 20.96478913406751 86.27218934911244, 22.018079035339092 87.07100591715975, 21.522465763709718 87.8698224852071, 21.70461135770129 88.66863905325444, 22.335636623390943 89.46745562130178, 21.547226848321934 90.26627218934911, 19.080766801096928 91.06508875739645, 19.686249236054334 91.8639053254438, 19.674007716754446 92.66272189349112, 19.66034540319532 93.46153846153845, 19.722490994914846 94.2603550295858, 20.287962511660886 95.05917159763314, 19.924995173147085 95.85798816568047, 20.90132255980383 96.65680473372781, 21.02459216602238 97.45562130177515, 21.53185644717391 98.2544378698225, 22.088251614060145 99.05325443786982, 22.598114621284456 99.85207100591715, 22.12436327733503 100.6508875739645, 21.20843753378356 101.44970414201183, 20.999162323151534 102.24852071005917, 21.530303226670313 103.04733727810651, 22.271863846738032 103.84615384615385, 21.905397859165816 104.64497041420118, 16.87951152768374 105.44378698224853, 17.029100423980434 106.24260355029585, 17.907785866767373 107.0414201183432, 17.382222430002876 107.84023668639053, 17.480709587885684 108.63905325443787, 17.803286557291173 109.43786982248521, 16.35316477963496 110.23668639053254, 15.84108948323838 111.03550295857988, 14.042718476333011 111.83431952662723, 14.068202267140423 112.63313609467457, 13.461276930914842 113.43195266272188, 13.420837169576227 114.23076923076923, 13.992049459170222 115.02958579881657, 13.412897244724666 115.82840236686391, 17.003508734336283 116.62721893491124, 18.25433371831799 117.42603550295858, 17.523690221048618 118.22485207100593, 15.989746520434805 119.02366863905324, 16.743196774197763 119.82248520710058, 15.362556332681464 120.62130177514793, 16.170614067776476 121.42011834319527, 13.769954337160783 122.2189349112426, 17.203501958843663 123.01775147928994, 14.398741659804266 123.81656804733728, 12.164497634963357 124.61538461538463, 12.306329769288363 125.41420118343194, 9.457139938070837 126.21301775147928, 4.693894989828596 127.01183431952663, 6.263980373501374 127.81065088757396, 4.463676994962237 128.60946745562129, 5.101216471507923 129.40828402366864, 6.821676054889994 130.20710059171597, 4.603797317224447 131.0059171597633, 0.0 131.80473372781066, 1.806339770290831 132.60355029585799, 1.8927448587775206 133.40236686390534, 2.3561904818427424 134.20118343195267, 1.4429858744698856" fill="none" stroke="#32ca5b" stroke-width="1.25"/>

</svg>