<?xml version="1.0" standalone="no"?>
<!DOCTYPE svg PUBLIC "-//W3C//DTD SVG 1.1//EN" "http://www.w3.org/Graphics/SVG/1.1/DTD/svg11.dtd">

<svg width="135" height="50" viewBox="0 0 135 50" preserveAspectRatio="none" 
  xmlns="http://www.w3.org/2000/svg"
  xmlns:xlink="http://www.w3.org/1999/xlink">


<polyline points="0.0, 12.51925857206754 0.7988165680473372, 10.803716234939365 1.5976331360946745, 0.0 2.396449704142012, 3.6069047749880796 3.195266272189349, 3.362049091867176 3.994082840236686, 1.999152800268094 4.792899408284024, 4.225551111065792 5.591715976331361, 6.62298513717664 6.390532544378698, 8.050747420349445 7.189349112426036, 12.817346475080157 7.988165680473372, 12.265668071648134 8.78698224852071, 12.766256654668284 9.585798816568047, 20.111268395878803 10.384615384615385, 17.68488193497418 11.183431952662723, 27.135735436022667 11.982248520710058, 39.87734523241782 12.781065088757396, 46.51834598096974 13.579881656804734, 45.98996928582972 14.378698224852071, 44.562270387101535 15.177514792899409, 39.84453624131046 15.976331360946745, 41.40799782330147 16.775147928994084, 43.07852045090612 17.57396449704142, 40.94408939057198 18.37278106508876, 41.3584824572181 19.171597633136095, 42.918278871325896 19.970414201183434, 44.49851275308932 20.76923076923077, 45.29242974981405 21.56804733727811, 42.98734440710329 22.366863905325445, 43.60829811123101 23.16568047337278, 42.58110419696037 23.964497041420117, 39.59442786386074 24.763313609467456, 42.98150861843698 25.562130177514792, 40.825564204329325 26.36094674556213, 41.90508030982265 27.159763313609467, 33.84923170171048 27.958579881656807, 38.51069361886695 28.757396449704142, 38.15011200938768 29.55621301775148, 41.500254867899145 30.355029585798817, 49.27969871143992 31.153846153846157, 42.89429259366294 31.95266272189349, 42.989174884604424 32.751479289940825, 46.316673068994774 33.55029585798817, 49.557249134308194 34.349112426035504, 47.63845846382495 35.14792899408284, 46.96757692874248 35.94674556213018, 39.11187439256663 36.74556213017752, 40.00159094386749 37.54437869822485, 38.16839997184056 38.34319526627219, 42.2406646329597 39.142011834319526, 47.88141975038826 39.94082840236687, 48.188488515750386 40.7396449704142, 46.08923949448406 41.53846153846154, 46.59151036482715 42.337278106508876, 45.39672614655217 43.13609467455622, 41.31597483988853 43.93491124260355, 42.67506872478769 44.73372781065089, 40.32067389989676 45.532544378698226, 38.834086939592424 46.33136094674556, 42.681198390572675 47.1301775147929, 42.90704013669274 47.928994082840234, 42.8865099194382 48.72781065088758, 45.850890960617136 49.52662721893491, 42.81665420572629 50.32544378698225, 42.6655261714982 51.124260355029584, 45.643764637834025 51.92307692307693, 43.403244653945734 52.72189349112426, 38.86460625509706 53.5207100591716, 39.987299678193686 54.319526627218934, 38.18300678358915 55.11834319526627, 41.527331458038084 55.91715976331361, 42.33122935000912 56.71597633136094, 46.21022703821871 57.514792899408285, 42.64651530680265 58.31360946745562, 45.9522716303852 59.11242603550296, 48.82568128905356 59.91124260355029, 48.926109697187485 60.710059171597635, 46.81977418774503 61.50887573964497, 46.277072669970565 62.307692307692314, 44.07866359254054 63.10650887573964, 46.14514137995533 63.90532544378698, 46.55488371084619 64.70414201183432, 41.52154932688114 65.50295857988165, 39.314448879485376 66.30177514792899, 40.213849288089634 67.10059171597634, 42.60067565114699 67.89940828402366, 41.85463901938132 68.69822485207101, 43.77177017291086 69.49704142011834, 45.34398423172628 70.29585798816568, 46.35240866190389 71.09467455621302, 43.104859899067044 71.89349112426036, 41.774479061505545 72.6923076923077, 41.599511141116594 73.49112426035504, 39.660857300779725 74.28994082840237, 42.549769988537314 75.0887573964497, 45.014136678864155 75.88757396449704, 44.38228487058222 76.68639053254438, 44.31462055611017 77.48520710059172, 50.0 78.28402366863905, 49.48627238890336 79.0828402366864, 45.103515133753916 79.88165680473374, 44.80439106910329 80.68047337278107, 44.66196896193886 81.4792899408284, 46.785417313123446 82.27810650887574, 42.32872304366862 83.07692307692308, 39.65102940154461 83.87573964497041, 38.32026808003599 84.67455621301775, 36.59818702321945 85.4733727810651, 34.817739459658924 86.27218934911244, 35.8906406084884 87.07100591715975, 35.613318685525556 87.8698224852071, 38.51387169419066 88.66863905325444, 37.71168318999303 89.46745562130178, 36.22786150137764 90.26627218934911, 35.41029475069845 91.06508875739645, 36.16729599703422 91.8639053254438, 34.69701739086365 92.66272189349112, 35.62406003571494 93.46153846153845, 36.66296851413157 94.2603550295858, 37.01215642836079 95.05917159763314, 36.95247562865491 95.85798816568047, 37.785954734532204 96.65680473372781, 34.644811373270755 97.45562130177515, 36.97473245925506 98.2544378698225, 40.5022875874135 99.05325443786982, 43.66736505004253 99.85207100591715, 43.858932453221875 100.6508875739645, 40.80243107527541 101.44970414201183, 42.32692567870487 102.24852071005917, 44.34360662213276 103.04733727810651, 43.07676293081993 103.84615384615385, 42.88414612890345 104.64497041420118, 41.02129656472267 105.44378698224853, 41.584886081336435 106.24260355029585, 40.2875076102457 107.0414201183432, 37.06508902152061 107.84023668639053, 40.237874401193096 108.63905325443787, 37.05821982592062 109.43786982248521, 37.436356733396536 110.23668639053254, 38.10311655957866 111.03550295857988, 37.92536136935539 111.83431952662723, 38.18859418782688 112.63313609467457, 36.622501587362564 113.43195266272188, 37.31668188906912 114.23076923076923, 38.15077025098685 115.02958579881657, 38.2515319102863 115.82840236686391, 39.482046653505606 116.62721893491124, 41.11899761231642 117.42603550295858, 39.621649889824326 118.22485207100593, 37.84159082263199 119.02366863905324, 37.20731567812413 119.82248520710058, 32.58321688072569 120.62130177514793, 34.86849150163662 121.42011834319527, 31.17818899435052 122.2189349112426, 33.15456498943784 123.01775147928994, 31.63920129284532 123.81656804733728, 30.139390259463774 124.61538461538463, 28.553626342760875 125.41420118343194, 26.907987160454873 126.21301775147928, 20.80428910676323 127.01183431952663, 24.789888624903643 127.81065088757396, 24.878890775595902 128.60946745562129, 20.006063520184178 129.40828402366864, 22.389072395957456 130.20710059171597, 19.977774991894552 131.0059171597633, 20.438782024165906 131.80473372781066, 18.07619055105621 132.60355029585799, 19.937709463602747 133.40236686390534, 19.63101964082655 134.20118343195267, 20.474431574527852" fill="none" stroke="#ff3a33" stroke-width="1.25"/>

</svg>