<?xml version="1.0" standalone="no"?>
<!DOCTYPE svg PUBLIC "-//W3C//DTD SVG 1.1//EN" "http://www.w3.org/Graphics/SVG/1.1/DTD/svg11.dtd">

<svg width="135" height="50" viewBox="0 0 135 50" preserveAspectRatio="none" 
  xmlns="http://www.w3.org/2000/svg"
  xmlns:xlink="http://www.w3.org/1999/xlink">


<polyline points="0.0, 43.57522814812821 0.7988165680473372, 43.99452444419813 1.5976331360946745, 44.44671760082528 2.396449704142012, 44.20124974951206 3.195266272189349, 44.45377019153838 3.994082840236686, 44.313649967735884 4.792899408284024, 44.55263973306177 5.591715976331361, 44.08214273572405 6.390532544378698, 44.05658994812772 7.189349112426036, 44.24287560715802 7.988165680473372, 45.37431059623449 8.78698224852071, 44.055777174875196 9.585798816568047, 43.579765889702216 10.384615384615385, 44.16479619621519 11.183431952662723, 42.29089387061598 11.982248520710058, 45.03578796940515 12.781065088757396, 46.055361299521955 13.579881656804734, 44.62471299323229 14.378698224852071, 44.19474076586611 15.177514792899409, 44.34869722713081 15.976331360946745, 45.03209123734743 16.775147928994084, 44.62129763167678 17.57396449704142, 44.353654960455216 18.37278106508876, 44.05300649352592 19.171597633136095, 43.91924923701043 19.970414201183434, 44.75971092797671 20.76923076923077, 43.789470617354034 21.56804733727811, 44.38629926572454 22.366863905325445, 44.02300788095037 23.16568047337278, 43.96398670048593 23.964497041420117, 43.6185744780733 24.763313609467456, 44.06022493333545 25.562130177514792, 45.012531003847855 26.36094674556213, 40.64463024718969 27.159763313609467, 46.395861726083524 27.958579881656807, 45.11706396190663 28.757396449704142, 42.22619590352115 29.55621301775148, 42.71975414065638 30.355029585798817, 39.315571691718205 31.153846153846157, 42.62672984402026 31.95266272189349, 45.251663927711185 32.751479289940825, 45.87181280784053 33.55029585798817, 46.30002147377716 34.349112426035504, 47.92826762237935 35.14792899408284, 47.516237653363675 35.94674556213018, 49.12824718329605 36.74556213017752, 50.0 37.54437869822485, 48.89559127316685 38.34319526627219, 47.857392657833934 39.142011834319526, 47.210088274234714 39.94082840236687, 47.6495202932545 40.7396449704142, 47.30568207155365 41.53846153846154, 45.64849760883551 42.337278106508876, 44.49507266060721 43.13609467455622, 44.24475354145858 43.93491124260355, 43.895159293746524 44.73372781065089, 44.075329920355884 45.532544378698226, 44.25780208047241 46.33136094674556, 44.17053185095545 47.1301775147929, 44.36653201227333 47.928994082840234, 44.44246766988097 48.72781065088758, 44.09825893460378 49.52662721893491, 43.901228747771434 50.32544378698225, 43.23242523049095 51.124260355029584, 44.150534955366496 51.92307692307693, 43.96616367171387 52.72189349112426, 44.640339590681485 53.5207100591716, 45.11082502454109 54.319526627218934, 45.05504813075716 55.11834319526627, 45.2860466964113 55.91715976331361, 45.350518146622235 56.71597633136094, 44.97326421343364 57.514792899408285, 45.236984830480445 58.31360946745562, 45.087676390229795 59.11242603550296, 45.28315322383663 59.91124260355029, 45.79426862683431 60.710059171597635, 45.43579599869696 61.50887573964497, 45.49041925640848 62.307692307692314, 45.29798363653897 63.10650887573964, 45.14867543066724 63.90532544378698, 45.17118617917918 64.70414201183432, 45.57779402884733 65.50295857988165, 45.094041650269816 66.30177514792899, 44.95963535755331 67.10059171597634, 45.40956382931789 67.89940828402366, 45.39087237690293 68.69822485207101, 42.95688148174746 69.49704142011834, 41.0880379418357 70.29585798816568, 40.65007347215911 71.09467455621302, 20.454514591339837 71.89349112426036, 25.663013669299772 72.6923076923077, 35.052722362027794 73.49112426035504, 30.212245475763122 74.28994082840237, 24.503622302991896 75.0887573964497, 31.97884857312253 75.88757396449704, 36.114717538900685 76.68639053254438, 43.29399434290133 77.48520710059172, 44.36365712456098 78.28402366863905, 44.191580351683115 79.0828402366864, 43.83771014259683 79.88165680473374, 41.36485072182536 80.68047337278107, 40.13754517411115 81.4792899408284, 38.899466162262186 82.27810650887574, 39.762736421788325 83.07692307692308, 38.660661986308185 83.87573964497041, 38.40274723554841 84.67455621301775, 36.967020590618134 85.4733727810651, 36.70842216603252 86.27218934911244, 36.72945469348014 87.07100591715975, 37.53748166929915 87.8698224852071, 35.30711261365244 88.66863905325444, 36.39108162223167 89.46745562130178, 33.83354368014553 90.26627218934911, 32.609111449444015 91.06508875739645, 35.743569989649046 91.8639053254438, 32.81254818287898 92.66272189349112, 36.120091190493916 93.46153846153845, 36.36580207990925 94.2603550295858, 37.92859711170162 95.05917159763314, 33.29408774141662 95.85798816568047, 27.042222175270826 96.65680473372781, 31.17353751815611 97.45562130177515, 28.32884517093953 98.2544378698225, 31.38846752157749 99.05325443786982, 31.512447150680302 99.85207100591715, 29.73874147099816 100.6508875739645, 30.003766370814493 101.44970414201183, 30.112718839069075 102.24852071005917, 31.487198960491057 103.04733727810651, 29.810505696174733 103.84615384615385, 30.419793137630673 104.64497041420118, 29.838028319615017 105.44378698224853, 14.049321620854899 106.24260355029585, 8.074448505330613 107.0414201183432, 3.8416996344774272 107.84023668639053, 0.0 108.63905325443787, 7.0035745824362685 109.43786982248521, 5.001087043168677 110.23668639053254, 10.079679848529176 111.03550295857988, 12.343747248555374 111.83431952662723, 10.960372148268704 112.63313609467457, 10.491517801531575 113.43195266272188, 10.9816554124367 114.23076923076923, 10.52678486488534 115.02958579881657, 5.223375648221595 115.82840236686391, 3.2382921776778253 116.62721893491124, 5.431431856168182 117.42603550295858, 10.039672465443736 118.22485207100593, 9.893759838628082 119.02366863905324, 6.841145634856552 119.82248520710058, 6.697679584435086 120.62130177514793, 8.958403978043176 121.42011834319527, 7.10368103405854 122.2189349112426, 5.670007135612807 123.01775147928994, 4.6682599934277365 123.81656804733728, 14.196924884423332 124.61538461538463, 8.836178355248371 125.41420118343194, 10.357248748680309 126.21301775147928, 10.138441385601864 127.01183431952663, 9.380005419882892 127.81065088757396, 7.552691957837371 128.60946745562129, 2.641377773236837 129.40828402366864, 0.9664339914820753 130.20710059171597, 4.256134280990719 131.0059171597633, 6.038681466802393 131.80473372781066, 6.0074929180792624 132.60355029585799, 6.422913958175613 133.40236686390534, 6.459126248010949 134.20118343195267, 5.977416502665991" fill="none" stroke="#32ca5b" stroke-width="1.25"/>

</svg>