<?xml version="1.0" standalone="no"?>
<!DOCTYPE svg PUBLIC "-//W3C//DTD SVG 1.1//EN" "http://www.w3.org/Graphics/SVG/1.1/DTD/svg11.dtd">

<svg width="135" height="50" viewBox="0 0 135 50" preserveAspectRatio="none" 
  xmlns="http://www.w3.org/2000/svg"
  xmlns:xlink="http://www.w3.org/1999/xlink">


<polyline points="0.0, 14.223507494702664 0.7988165680473372, 15.695169206236216 1.5976331360946745, 13.531360669028125 2.396449704142012, 19.19206137952874 3.195266272189349, 23.380408617890268 3.994082840236686, 22.8825213686569 4.792899408284024, 21.962864284184622 5.591715976331361, 23.482163946106702 6.390532544378698, 27.938862900630763 7.189349112426036, 30.939737316325598 7.988165680473372, 25.553627353872454 8.78698224852071, 23.666278522240866 9.585798816568047, 29.488155387309355 10.384615384615385, 24.99740321078313 11.183431952662723, 35.30305490764925 11.982248520710058, 38.73357354120014 12.781065088757396, 41.20998933760559 13.579881656804734, 37.3966071087253 14.378698224852071, 36.63590415340512 15.177514792899409, 31.100276323543635 15.976331360946745, 31.709813920553742 16.775147928994084, 32.476217092959374 17.57396449704142, 30.12157717347521 18.37278106508876, 31.04116708006801 19.171597633136095, 34.033847599297175 19.970414201183434, 34.751894421850814 20.76923076923077, 34.731917541334745 21.56804733727811, 32.63992593180302 22.366863905325445, 35.12417696724075 23.16568047337278, 36.776802682780634 23.964497041420117, 40.08445409702078 24.763313609467456, 42.51997045607471 25.562130177514792, 39.156368566019076 26.36094674556213, 48.22695862725362 27.159763313609467, 45.43663361225326 27.958579881656807, 49.019158131289146 28.757396449704142, 46.0920284220198 29.55621301775148, 45.49673338091081 30.355029585798817, 50.0 31.153846153846157, 45.28596772127831 31.95266272189349, 42.1678946918381 32.751479289940825, 47.86616954931247 33.55029585798817, 49.91641587472056 34.349112426035504, 47.219816881270546 35.14792899408284, 48.18203175309736 35.94674556213018, 42.86241932486322 36.74556213017752, 39.69543128128803 37.54437869822485, 37.42833801704107 38.34319526627219, 40.741774953295604 39.142011834319526, 44.12255674311057 39.94082840236687, 42.550677097078434 40.7396449704142, 41.71761769562921 41.53846153846154, 42.270774124888355 42.337278106508876, 39.75299534851521 43.13609467455622, 31.214978138227472 43.93491124260355, 24.670987172928807 44.73372781065089, 28.01799703885624 45.532544378698226, 27.626069243390305 46.33136094674556, 30.43448248298567 47.1301775147929, 29.27187703940358 47.928994082840234, 31.83542265345618 48.72781065088758, 35.78270438915174 49.52662721893491, 31.096513221172735 50.32544378698225, 28.1947439307954 51.124260355029584, 30.17025728746674 51.92307692307693, 18.482713923373627 52.72189349112426, 19.30887691383043 53.5207100591716, 24.08499002250885 54.319526627218934, 20.684202797940298 55.11834319526627, 25.312764746705657 55.91715976331361, 26.43905388920028 56.71597633136094, 29.541386286806425 57.514792899408285, 25.26265244100361 58.31360946745562, 27.14685908516275 59.11242603550296, 29.28372114825852 59.91124260355029, 31.268558927087298 60.710059171597635, 29.813045319539793 61.50887573964497, 30.731179924643286 62.307692307692314, 27.003276023865247 63.10650887573964, 30.87286287333777 63.90532544378698, 35.60242027396154 64.70414201183432, 32.436562890389126 65.50295857988165, 31.561399365431726 66.30177514792899, 31.597846620960055 67.10059171597634, 34.565220499051016 67.89940828402366, 31.228003668136097 68.69822485207101, 26.18538125157215 69.49704142011834, 36.76011099563594 70.29585798816568, 37.06650466883755 71.09467455621302, 31.606552881524657 71.89349112426036, 32.779485135136945 72.6923076923077, 31.02698925926109 73.49112426035504, 32.496910476920235 74.28994082840237, 34.277961670676845 75.0887573964497, 37.35783104600668 75.88757396449704, 35.13288687885391 76.68639053254438, 34.464851954395186 77.48520710059172, 39.127862738969185 78.28402366863905, 34.25832091366092 79.0828402366864, 31.599116126185596 79.88165680473374, 29.606339009163236 80.68047337278107, 29.2630864483172 81.4792899408284, 30.22286925842261 82.27810650887574, 26.482976273625848 83.07692307692308, 28.782306905037235 83.87573964497041, 26.558677221686693 84.67455621301775, 27.66228615144425 85.4733727810651, 25.489688285774154 86.27218934911244, 27.05581241664543 87.07100591715975, 28.026951198402188 87.8698224852071, 31.607640587430907 88.66863905325444, 31.64151248373635 89.46745562130178, 29.691310080502674 90.26627218934911, 27.485237408187885 91.06508875739645, 28.068119884421655 91.8639053254438, 27.25046444577515 92.66272189349112, 27.07235690238888 93.46153846153845, 27.273607763536795 94.2603550295858, 27.044264968198295 95.05917159763314, 24.954665527809798 95.85798816568047, 25.485850096114937 96.65680473372781, 22.270227372321173 97.45562130177515, 25.690640175993757 98.2544378698225, 28.491820218227076 99.05325443786982, 29.979167581849413 99.85207100591715, 30.259202180611055 100.6508875739645, 27.78650766020285 101.44970414201183, 29.80472185068056 102.24852071005917, 32.679532025087674 103.04733727810651, 33.543604552258984 103.84615384615385, 33.61186702078945 104.64497041420118, 29.7217776880045 105.44378698224853, 28.774130704141154 106.24260355029585, 30.58056814838917 107.0414201183432, 27.917628191463834 107.84023668639053, 29.387833987988554 108.63905325443787, 29.66024455633576 109.43786982248521, 27.820467668309725 110.23668639053254, 28.947940677956463 111.03550295857988, 26.813321330414176 111.83431952662723, 25.955407513212503 112.63313609467457, 25.508525722574493 113.43195266272188, 26.97398875729833 114.23076923076923, 26.3515383357101 115.02958579881657, 22.894240333120237 115.82840236686391, 24.874747993957403 116.62721893491124, 28.471467798461557 117.42603550295858, 25.607619781898983 118.22485207100593, 27.87853500774896 119.02366863905324, 23.02520126455592 119.82248520710058, 22.38388719066397 120.62130177514793, 25.44861063808806 121.42011834319527, 24.598606129579434 122.2189349112426, 31.708294817639615 123.01775147928994, 30.22369141065798 123.81656804733728, 32.1924418558358 124.61538461538463, 30.86474775728305 125.41420118343194, 31.310617835097766 126.21301775147928, 25.39827764271014 127.01183431952663, 17.996064406125782 127.81065088757396, 11.76960048965704 128.60946745562129, 11.932907073811593 129.40828402366864, 9.682477315979074 130.20710059171597, 7.425947210220528 131.0059171597633, 8.824998693103627 131.80473372781066, 5.473148483513093 132.60355029585799, 3.2098865284034788 133.40236686390534, 0.0 134.20118343195267, 2.067573566319526" fill="none" stroke="#32ca5b" stroke-width="1.25"/>

</svg>