<?xml version="1.0" standalone="no"?>
<!DOCTYPE svg PUBLIC "-//W3C//DTD SVG 1.1//EN" "http://www.w3.org/Graphics/SVG/1.1/DTD/svg11.dtd">

<svg width="135" height="50" viewBox="0 0 135 50" preserveAspectRatio="none" 
  xmlns="http://www.w3.org/2000/svg"
  xmlns:xlink="http://www.w3.org/1999/xlink">


<polyline points="0.0, 0.0 0.7988165680473372, 6.480545730398132 1.5976331360946745, 11.451738599585221 2.396449704142012, 10.226700185000055 3.195266272189349, 13.955220602530954 3.994082840236686, 12.346479534506386 4.792899408284024, 11.629216802127692 5.591715976331361, 10.746792176253765 6.390532544378698, 8.471726291152825 7.189349112426036, 12.360420158267159 7.988165680473372, 15.876134051169167 8.78698224852071, 12.894608493076246 9.585798816568047, 10.337646694564267 10.384615384615385, 15.321918591988752 11.183431952662723, 8.550281202065587 11.982248520710058, 14.447047025213353 12.781065088757396, 31.431962651534484 13.579881656804734, 36.20517063949477 14.378698224852071, 41.891157688850484 15.177514792899409, 39.96684910092677 15.976331360946745, 36.0515073794312 16.775147928994084, 34.57758262930978 17.57396449704142, 32.147422427995295 18.37278106508876, 31.00431322198772 19.171597633136095, 31.271478514387972 19.970414201183434, 29.671972848387195 20.76923076923077, 29.6456979770915 21.56804733727811, 29.482499697063975 22.366863905325445, 29.627756818763736 23.16568047337278, 27.760396398350405 23.964497041420117, 32.2290972243893 24.763313609467456, 34.125401349256165 25.562130177514792, 34.09711795314562 26.36094674556213, 20.72206393920632 27.159763313609467, 39.548208485148464 27.958579881656807, 35.63663115259234 28.757396449704142, 36.70459824877387 29.55621301775148, 37.051246602747526 30.355029585798817, 29.588715181326066 31.153846153846157, 34.238494976917885 31.95266272189349, 34.623138088494464 32.751479289940825, 30.9217933985981 33.55029585798817, 34.74459102274326 34.349112426035504, 34.63778968910587 35.14792899408284, 26.392268784995576 35.94674556213018, 28.45801285378241 36.74556213017752, 27.85817893500412 37.54437869822485, 27.467640421681804 38.34319526627219, 35.72203207352514 39.142011834319526, 36.933706167823495 39.94082840236687, 27.893801636694526 40.7396449704142, 28.65195969907188 41.53846153846154, 30.196336217149604 42.337278106508876, 19.620542052084563 43.13609467455622, 10.423163495799939 43.93491124260355, 7.4184348380455445 44.73372781065089, 22.38704032695225 45.532544378698226, 24.956802784151204 46.33136094674556, 28.077114615754855 47.1301775147929, 24.138925381803855 47.928994082840234, 25.011506680729706 48.72781065088758, 26.664703089359826 49.52662721893491, 33.51518500584197 50.32544378698225, 27.146630255128418 51.124260355029584, 30.72142115096813 51.92307692307693, 32.153673532439 52.72189349112426, 28.9244115393503 53.5207100591716, 29.992355932432453 54.319526627218934, 31.133657680386357 55.11834319526627, 28.638659459252352 55.91715976331361, 30.314340070006608 56.71597633136094, 31.43420426403335 57.514792899408285, 33.72464808261959 58.31360946745562, 32.14177486714112 59.11242603550296, 31.810802221131407 59.91124260355029, 35.925057245333555 60.710059171597635, 37.297090790139755 61.50887573964497, 39.383730060334734 62.307692307692314, 40.14780188094487 63.10650887573964, 36.522190576028514 63.90532544378698, 41.33408733473378 64.70414201183432, 37.76832450350751 65.50295857988165, 36.488271203877545 66.30177514792899, 35.70906104703226 67.10059171597634, 30.57762167597811 67.89940828402366, 33.142840429084096 68.69822485207101, 33.046705360910785 69.49704142011834, 33.744618138680494 70.29585798816568, 39.54785678992233 71.09467455621302, 37.73889979286522 71.89349112426036, 34.87408964808317 72.6923076923077, 36.099789484486635 73.49112426035504, 35.04075828027041 74.28994082840237, 32.356131369683936 75.0887573964497, 31.89197221897325 75.88757396449704, 34.68026731138584 76.68639053254438, 38.29283161893572 77.48520710059172, 37.59861929879512 78.28402366863905, 42.551901195573365 79.0828402366864, 41.43837449557696 79.88165680473374, 39.030839954331874 80.68047337278107, 38.22605184342752 81.4792899408284, 37.841162645614936 82.27810650887574, 39.47848902975622 83.07692307692308, 38.297585517170255 83.87573964497041, 35.593727051380746 84.67455621301775, 32.39585172785197 85.4733727810651, 28.39413631192213 86.27218934911244, 26.40977172959908 87.07100591715975, 30.174654967006504 87.8698224852071, 27.96066691164954 88.66863905325444, 30.068123151878567 89.46745562130178, 27.998676914258187 90.26627218934911, 27.258114234328495 91.06508875739645, 22.39976228056932 91.8639053254438, 22.79737989298508 92.66272189349112, 23.2399361017064 93.46153846153845, 24.649103044020002 94.2603550295858, 24.765033959810225 95.05917159763314, 24.578135380713192 95.85798816568047, 25.11541963638919 96.65680473372781, 24.57865100182476 97.45562130177515, 24.985869797366156 98.2544378698225, 29.412323212304393 99.05325443786982, 37.71879315919555 99.85207100591715, 34.55743183652016 100.6508875739645, 37.54418718929609 101.44970414201183, 38.79151201049588 102.24852071005917, 38.43869337290622 103.04733727810651, 39.453196260699485 103.84615384615385, 37.683798137062254 104.64497041420118, 37.283140819808416 105.44378698224853, 37.755265206719194 106.24260355029585, 36.91419431566161 107.0414201183432, 37.26278605965958 107.84023668639053, 38.09315295692187 108.63905325443787, 38.54476603966053 109.43786982248521, 43.30343899676136 110.23668639053254, 39.30586244136049 111.03550295857988, 45.474618255055965 111.83431952662723, 43.916536116795214 112.63313609467457, 40.77480523039797 113.43195266272188, 38.820799726423175 114.23076923076923, 44.46400609565323 115.02958579881657, 42.19276356217822 115.82840236686391, 41.5545076141467 116.62721893491124, 41.22294421192926 117.42603550295858, 41.30675676808114 118.22485207100593, 41.13879630000992 119.02366863905324, 44.3403440554182 119.82248520710058, 45.2486347023911 120.62130177514793, 47.04863782078609 121.42011834319527, 47.24904951306643 122.2189349112426, 50.0 123.01775147928994, 48.366072518494065 123.81656804733728, 45.295262704790524 124.61538461538463, 45.966743579883754 125.41420118343194, 46.744161335214855 126.21301775147928, 45.493083266535876 127.01183431952663, 45.75468999751483 127.81065088757396, 43.720527230321125 128.60946745562129, 38.02370709073145 129.40828402366864, 38.360235836760495 130.20710059171597, 38.70778306423321 131.0059171597633, 36.47937027142324 131.80473372781066, 32.89672673025806 132.60355029585799, 29.62163779043363 133.40236686390534, 20.65076367937574 134.20118343195267, 26.712458136885864" fill="none" stroke="#ff3a33" stroke-width="1.25"/>

</svg>