<?xml version="1.0" standalone="no"?>
<!DOCTYPE svg PUBLIC "-//W3C//DTD SVG 1.1//EN" "http://www.w3.org/Graphics/SVG/1.1/DTD/svg11.dtd">

<svg width="135" height="50" viewBox="0 0 135 50" preserveAspectRatio="none" 
  xmlns="http://www.w3.org/2000/svg"
  xmlns:xlink="http://www.w3.org/1999/xlink">


<polyline points="0.0, 5.218411278703187 0.7988165680473372, 4.866547675205924 1.5976331360946745, 6.121654042919422 2.396449704142012, 7.36758375213888 3.195266272189349, 6.73942384613993 3.994082840236686, 6.0099391149578265 4.792899408284024, 0.0 5.591715976331361, 1.00092375975297 6.390532544378698, 4.771822913063336 7.189349112426036, 1.6605241807606166 7.988165680473372, 6.283719706732797 8.78698224852071, 6.238084044269084 9.585798816568047, 0.366542360578756 10.384615384615385, 5.68490962248298 11.183431952662723, 14.407220631430034 11.982248520710058, 26.956550553503224 12.781065088757396, 24.023678158204735 13.579881656804734, 25.677992173662425 14.378698224852071, 11.947952175991327 15.177514792899409, 18.7157325716156 15.976331360946745, 15.050644010628531 16.775147928994084, 21.736362458305088 17.57396449704142, 19.104019534361615 18.37278106508876, 3.11672927380784 19.171597633136095, 7.415834593222262 19.970414201183434, 3.898547358449657 20.76923076923077, 14.645750786263918 21.56804733727811, 14.93906483897296 22.366863905325445, 18.264712005234447 23.16568047337278, 17.97222859288841 23.964497041420117, 23.433761350720903 24.763313609467456, 14.660296505388079 25.562130177514792, 13.999295650761928 26.36094674556213, 18.60621233318805 27.159763313609467, 17.89295794820186 27.958579881656807, 15.702445330018305 28.757396449704142, 11.902039136033347 29.55621301775148, 6.524609206017972 30.355029585798817, 17.754689864163254 31.153846153846157, 11.262453569910098 31.95266272189349, 23.624699743715198 32.751479289940825, 18.134092672318904 33.55029585798817, 17.397214099191274 34.349112426035504, 17.2075499896886 35.14792899408284, 15.480061282214097 35.94674556213018, 21.03892182723626 36.74556213017752, 12.926166018636923 37.54437869822485, 12.944818195392372 38.34319526627219, 20.449235046381816 39.142011834319526, 25.38895253536051 39.94082840236687, 28.60733250996545 40.7396449704142, 34.68647649965381 41.53846153846154, 30.38130029726113 42.337278106508876, 21.219124245720067 43.13609467455622, 29.33605401464176 43.93491124260355, 28.126688832142005 44.73372781065089, 21.4494299136986 45.532544378698226, 25.791943072181805 46.33136094674556, 26.43060603205127 47.1301775147929, 26.238319014488056 47.928994082840234, 19.467996031917796 48.72781065088758, 27.50030924866531 49.52662721893491, 22.510918876998335 50.32544378698225, 28.397167504879047 51.124260355029584, 30.25359640756402 51.92307692307693, 34.24693755065289 52.72189349112426, 34.81039750217874 53.5207100591716, 30.86132209457232 54.319526627218934, 21.78384663218299 55.11834319526627, 30.405493796868434 55.91715976331361, 25.761057916593046 56.71597633136094, 35.027074272478536 57.514792899408285, 39.93777104334156 58.31360946745562, 34.93872350678179 59.11242603550296, 43.16366939034455 59.91124260355029, 50.0 60.710059171597635, 40.08967263616018 61.50887573964497, 35.54023181781382 62.307692307692314, 32.97784605012448 63.10650887573964, 36.050930105057994 63.90532544378698, 45.75011682163914 64.70414201183432, 44.7193557647717 65.50295857988165, 47.89524272799384 66.30177514792899, 41.49739400736053 67.10059171597634, 41.600099586010316 67.89940828402366, 34.94174298805653 68.69822485207101, 37.69550167654198 69.49704142011834, 38.13569684017828 70.29585798816568, 40.86246824204665 71.09467455621302, 36.77225730614791 71.89349112426036, 45.60283876924915 72.6923076923077, 41.886741389444744 73.49112426035504, 37.5495231983032 74.28994082840237, 42.538426103615336 75.0887573964497, 44.18987123602473 75.88757396449704, 41.35265195958267 76.68639053254438, 44.456974678204624 77.48520710059172, 37.07460922513585 78.28402366863905, 39.92078214212808 79.0828402366864, 37.39656082780856 79.88165680473374, 35.30067927827877 80.68047337278107, 34.216094697680774 81.4792899408284, 32.3250177082659 82.27810650887574, 35.533929342503065 83.07692307692308, 27.92964723366012 83.87573964497041, 42.969444867009464 84.67455621301775, 27.063893365614135 85.4733727810651, 34.20934404565193 86.27218934911244, 36.34123489824167 87.07100591715975, 32.2991763716403 87.8698224852071, 36.57473854621864 88.66863905325444, 39.110156638834766 89.46745562130178, 36.72175414666554 90.26627218934911, 33.26893604007131 91.06508875739645, 34.61619208147073 91.8639053254438, 35.4531406046786 92.66272189349112, 34.535715323942384 93.46153846153845, 34.441678154389166 94.2603550295858, 34.777567904300675 95.05917159763314, 34.87515967703633 95.85798816568047, 34.56031087749679 96.65680473372781, 34.482644067957764 97.45562130177515, 35.192649042514205 98.2544378698225, 33.294099659675396 99.05325443786982, 26.85328164865723 99.85207100591715, 24.80045705396446 100.6508875739645, 24.227880579212364 101.44970414201183, 15.93283866160039 102.24852071005917, 17.13296531521013 103.04733727810651, 19.787549179092252 103.84615384615385, 18.22265043809484 104.64497041420118, 15.913777703284723 105.44378698224853, 14.405931163966775 106.24260355029585, 21.347793526065036 107.0414201183432, 21.34945341583914 107.84023668639053, 21.876505058843204 108.63905325443787, 25.066622903364355 109.43786982248521, 21.31397226957735 110.23668639053254, 30.831800580216616 111.03550295857988, 24.175853715783894 111.83431952662723, 24.815310076410093 112.63313609467457, 23.996083705376307 113.43195266272188, 21.265974940641026 114.23076923076923, 21.094410977224182 115.02958579881657, 21.86462178007222 115.82840236686391, 24.3996374980988 116.62721893491124, 24.258558470856048 117.42603550295858, 25.979946582319112 118.22485207100593, 26.855055851417475 119.02366863905324, 24.723252285039138 119.82248520710058, 27.75511345959077 120.62130177514793, 26.45540161024096 121.42011834319527, 22.09160609517892 122.2189349112426, 31.03348885997224 123.01775147928994, 26.73371628870055 123.81656804733728, 30.85345091591919 124.61538461538463, 30.73509881320279 125.41420118343194, 30.7735712009921 126.21301775147928, 30.56912625409919 127.01183431952663, 30.52527640979311 127.81065088757396, 30.053457932367834 128.60946745562129, 28.640010272190608 129.40828402366864, 29.90086786938246 130.20710059171597, 28.274163606642965 131.0059171597633, 24.300449711708914 131.80473372781066, 26.484613258886352 132.60355029585799, 26.812961044864352 133.40236686390534, 21.784320836233555 134.20118343195267, 19.511331952527957" fill="none" stroke="#ff3a33" stroke-width="1.25"/>

</svg>