<?xml version="1.0" standalone="no"?>
<!DOCTYPE svg PUBLIC "-//W3C//DTD SVG 1.1//EN" "http://www.w3.org/Graphics/SVG/1.1/DTD/svg11.dtd">

<svg width="135" height="50" viewBox="0 0 135 50" preserveAspectRatio="none" 
  xmlns="http://www.w3.org/2000/svg"
  xmlns:xlink="http://www.w3.org/1999/xlink">


<polyline points="0.0, 14.014557991315698 0.7988165680473372, 25.263550228044764 1.5976331360946745, 31.42789872844714 2.396449704142012, 28.282623632266617 3.195266272189349, 31.360911665312805 3.994082840236686, 26.327532152923734 4.792899408284024, 25.258257081910646 5.591715976331361, 18.82161404432817 6.390532544378698, 20.693903118966325 7.189349112426036, 20.032070948739214 7.988165680473372, 24.020211660735402 8.78698224852071, 10.564340523352149 9.585798816568047, 1.2154536497881512 10.384615384615385, 8.176887356572864 11.183431952662723, 4.381787951104014 11.982248520710058, 21.898854915073137 12.781065088757396, 28.39508587951012 13.579881656804734, 48.43224567954036 14.378698224852071, 40.87310607751262 15.177514792899409, 38.51437380825081 15.976331360946745, 33.213663614540906 16.775147928994084, 31.024009858285158 17.57396449704142, 29.042985468662426 18.37278106508876, 22.762399340208354 19.171597633136095, 19.397670282819266 19.970414201183434, 0.0 20.76923076923077, 2.698498907404933 21.56804733727811, 5.223666023500106 22.366863905325445, 6.278036012628534 23.16568047337278, 6.092556928885464 23.964497041420117, 8.74744803696448 24.763313609467456, 12.864826567863258 25.562130177514792, 15.833468691071612 26.36094674556213, 7.274433896327191 27.159763313609467, 32.38851892352292 27.958579881656807, 28.16833058260157 28.757396449704142, 37.28074123398258 29.55621301775148, 30.935434897599883 30.355029585798817, 32.25831044756845 31.153846153846157, 35.56940616075135 31.95266272189349, 35.3515224416173 32.751479289940825, 29.1392316989486 33.55029585798817, 37.09544322331361 34.349112426035504, 37.860736527698194 35.14792899408284, 28.356164113242382 35.94674556213018, 19.28250286478391 36.74556213017752, 13.168692126348786 37.54437869822485, 11.364527863341667 38.34319526627219, 8.782590689730787 39.142011834319526, 17.700176034276623 39.94082840236687, 29.169567762794006 40.7396449704142, 29.879768984691026 41.53846153846154, 20.933969857451604 42.337278106508876, 15.955098576016807 43.13609467455622, 12.783271817125193 43.93491124260355, 6.452775564448351 44.73372781065089, 7.576056528419395 45.532544378698226, 6.2024129069142475 46.33136094674556, 1.0168903865025498 47.1301775147929, 6.791812623610954 47.928994082840234, 5.665435772335493 48.72781065088758, 9.632635061606951 49.52662721893491, 21.105316182874574 50.32544378698225, 15.9206078038694 51.124260355029584, 12.614225496865494 51.92307692307693, 14.596631510545011 52.72189349112426, 14.12782438753227 53.5207100591716, 17.538717424165355 54.319526627218934, 18.935119431740233 55.11834319526627, 19.116920547260115 55.91715976331361, 20.63523371282909 56.71597633136094, 17.422887404547733 57.514792899408285, 21.140442884682983 58.31360946745562, 22.753276510405325 59.11242603550296, 23.45098832535843 59.91124260355029, 28.708181341361687 60.710059171597635, 30.022039890738807 61.50887573964497, 27.55116839776929 62.307692307692314, 24.962822737465615 63.10650887573964, 19.99576485322575 63.90532544378698, 27.29624598336995 64.70414201183432, 28.304005210122245 65.50295857988165, 27.400893519383523 66.30177514792899, 23.10979653316261 67.10059171597634, 23.25819762753567 67.89940828402366, 24.543649229464332 68.69822485207101, 24.837975122304737 69.49704142011834, 21.1501594691494 70.29585798816568, 30.115282883103273 71.09467455621302, 32.74588926255454 71.89349112426036, 33.95717936050715 72.6923076923077, 34.76945473446184 73.49112426035504, 34.069373307098616 74.28994082840237, 33.70914127426518 75.0887573964497, 33.61548157684829 75.88757396449704, 38.48553847443487 76.68639053254438, 36.97169958751358 77.48520710059172, 36.34629994998654 78.28402366863905, 43.59703761449845 79.0828402366864, 43.01363550167271 79.88165680473374, 42.23489871302098 80.68047337278107, 39.04233732385509 81.4792899408284, 38.88295854762265 82.27810650887574, 37.89332259908982 83.07692307692308, 34.63364607529162 83.87573964497041, 36.51500933053599 84.67455621301775, 32.83824821930393 85.4733727810651, 33.876267214792506 86.27218934911244, 31.06913934856183 87.07100591715975, 31.37351914147181 87.8698224852071, 30.212979882263497 88.66863905325444, 33.257900602787004 89.46745562130178, 32.52290690659536 90.26627218934911, 30.251325250962008 91.06508875739645, 26.437872271302187 91.8639053254438, 28.014706085581274 92.66272189349112, 25.97891220781981 93.46153846153845, 26.736059754195768 94.2603550295858, 25.703286546705144 95.05917159763314, 25.267342678291016 95.85798816568047, 25.844406010250637 96.65680473372781, 8.741512652266062 97.45562130177515, 24.355658074452975 98.2544378698225, 27.565691314135087 99.05325443786982, 29.28509599703279 99.85207100591715, 32.72004524658945 100.6508875739645, 33.866190315578926 101.44970414201183, 31.97266657767095 102.24852071005917, 31.9710373607554 103.04733727810651, 32.41741794739505 103.84615384615385, 33.501467221601985 104.64497041420118, 35.04157587144384 105.44378698224853, 34.527248048773856 106.24260355029585, 35.53264280946826 107.0414201183432, 36.188637881866406 107.84023668639053, 34.50369297831973 108.63905325443787, 37.770199022015866 109.43786982248521, 37.32386128251775 110.23668639053254, 33.21011648240076 111.03550295857988, 34.94656370616847 111.83431952662723, 31.769393428055693 112.63313609467457, 30.347685576303235 113.43195266272188, 33.17072954848255 114.23076923076923, 30.591469826105733 115.02958579881657, 31.419814238064614 115.82840236686391, 34.54189159574108 116.62721893491124, 37.7725726878516 117.42603550295858, 39.08530202700325 118.22485207100593, 37.38171957017471 119.02366863905324, 37.19205297269224 119.82248520710058, 36.797217469030294 120.62130177514793, 36.973490031022294 121.42011834319527, 41.397976379059756 122.2189349112426, 41.37817179801671 123.01775147928994, 49.06947668039669 123.81656804733728, 50.0 124.61538461538463, 49.65089964637747 125.41420118343194, 47.136762179394374 126.21301775147928, 45.91473770368629 127.01183431952663, 42.038544672208175 127.81065088757396, 33.991702651466184 128.60946745562129, 23.389830398274466 129.40828402366864, 19.746461210306645 130.20710059171597, 25.848308928461694 131.0059171597633, 17.166624339973215 131.80473372781066, 19.495825063662902 132.60355029585799, 14.574516776756747 133.40236686390534, 13.046367271153569 134.20118343195267, 10.59993433823899" fill="none" stroke="#32ca5b" stroke-width="1.25"/>

</svg>