<?xml version="1.0" standalone="no"?>
<!DOCTYPE svg PUBLIC "-//W3C//DTD SVG 1.1//EN" "http://www.w3.org/Graphics/SVG/1.1/DTD/svg11.dtd">

<svg width="135" height="50" viewBox="0 0 135 50" preserveAspectRatio="none" 
  xmlns="http://www.w3.org/2000/svg"
  xmlns:xlink="http://www.w3.org/1999/xlink">


<polyline points="0.0, 14.066248236589567 0.7988165680473372, 15.906590535427393 1.5976331360946745, 12.345487152801295 2.396449704142012, 13.084446654387364 3.195266272189349, 13.222848498759273 3.994082840236686, 7.519136695017224 4.792899408284024, 4.825765728841724 5.591715976331361, 9.202294750369557 6.390532544378698, 16.412766284277012 7.189349112426036, 21.01521663966615 7.988165680473372, 12.002142677853206 8.78698224852071, 4.17830319950427 9.585798816568047, 8.98203685179234 10.384615384615385, 6.91761294552276 11.183431952662723, 20.850390587396596 11.982248520710058, 26.356081684069 12.781065088757396, 32.20700675240843 13.579881656804734, 30.021608190760084 14.378698224852071, 28.89442124090723 15.177514792899409, 23.264357553302155 15.976331360946745, 16.857486839114305 16.775147928994084, 15.605472021294291 17.57396449704142, 12.939743148353653 18.37278106508876, 8.799929748740357 19.171597633136095, 12.607150796983507 19.970414201183434, 16.058083495047594 20.76923076923077, 14.257117623126032 21.56804733727811, 16.89463104365534 22.366863905325445, 19.63936700034989 23.16568047337278, 22.462567873883714 23.964497041420117, 27.613629411232548 24.763313609467456, 30.77979975339076 25.562130177514792, 30.042029647756102 26.36094674556213, 39.996778431725986 27.159763313609467, 38.72619240089142 27.958579881656807, 41.59637544447081 28.757396449704142, 38.38514417306694 29.55621301775148, 42.118167275253136 30.355029585798817, 47.7898439622152 31.153846153846157, 44.9186396131582 31.95266272189349, 42.08378493221704 32.751479289940825, 47.14604510374714 33.55029585798817, 50.0 34.349112426035504, 46.998632254412584 35.14792899408284, 47.16500270842132 35.94674556213018, 38.57236754617974 36.74556213017752, 34.61272517244717 37.54437869822485, 29.599538212580306 38.34319526627219, 34.086502798664725 39.142011834319526, 40.143250660139714 39.94082840236687, 40.223463131979216 40.7396449704142, 38.741992413950484 41.53846153846154, 38.99706133351614 42.337278106508876, 33.56950086392509 43.13609467455622, 23.923132419981055 43.93491124260355, 22.699257515713104 44.73372781065089, 19.51223939732432 45.532544378698226, 16.510773159560774 46.33136094674556, 20.225926695929232 47.1301775147929, 19.84499600717042 47.928994082840234, 22.282229672788564 48.72781065088758, 26.225317639862066 49.52662721893491, 22.87105652952671 50.32544378698225, 22.756705057780678 51.124260355029584, 24.502595086628308 51.92307692307693, 20.145972666973908 52.72189349112426, 18.35812868913383 53.5207100591716, 22.099187820793972 54.319526627218934, 19.799972396959813 55.11834319526627, 23.2549851644961 55.91715976331361, 23.709772406199598 56.71597633136094, 27.66247967422753 57.514792899408285, 23.850011211765512 58.31360946745562, 26.818111427188956 59.11242603550296, 31.62527969554505 59.91124260355029, 33.97041138705729 60.710059171597635, 32.52232064745188 61.50887573964497, 30.852159901247088 62.307692307692314, 28.634840432065232 63.10650887573964, 34.98638057805137 63.90532544378698, 38.10118199954552 64.70414201183432, 36.41343169286666 65.50295857988165, 34.50492281905851 66.30177514792899, 34.01155882634907 67.10059171597634, 36.054034968345796 67.89940828402366, 33.67786425287181 68.69822485207101, 24.33346650261278 69.49704142011834, 20.469313964458163 70.29585798816568, 28.904906786337047 71.09467455621302, 16.212629249876485 71.89349112426036, 27.498805561459438 72.6923076923077, 23.801133704713852 73.49112426035504, 21.134810384090322 74.28994082840237, 25.222959463528362 75.0887573964497, 31.39830009364495 75.88757396449704, 30.550067903322425 76.68639053254438, 29.490390185841402 77.48520710059172, 37.34640024661429 78.28402366863905, 34.214688632005156 79.0828402366864, 27.58893586713227 79.88165680473374, 24.768887272847014 80.68047337278107, 21.61579285692477 81.4792899408284, 19.949544962773714 82.27810650887574, 11.831339956920974 83.07692307692308, 13.380214510728134 83.87573964497041, 4.6683858429510625 84.67455621301775, 3.3030748053961667 85.4733727810651, 9.226617808805406 86.27218934911244, 13.699069243772316 87.07100591715975, 14.53122383929268 87.8698224852071, 17.33469762813028 88.66863905325444, 16.132569045979185 89.46745562130178, 15.631576609333257 90.26627218934911, 13.302361426363959 91.06508875739645, 14.975830760144005 91.8639053254438, 12.695087472121127 92.66272189349112, 14.008258854572913 93.46153846153845, 14.855952330245048 94.2603550295858, 17.411502754289504 95.05917159763314, 17.27622859048653 95.85798816568047, 14.393932978818134 96.65680473372781, 13.216932403795981 97.45562130177515, 17.211108821351225 98.2544378698225, 19.394130521969842 99.05325443786982, 21.286961905990005 99.85207100591715, 21.212896860478576 100.6508875739645, 21.29755883199116 101.44970414201183, 24.640006472091518 102.24852071005917, 23.859636594710103 103.04733727810651, 16.722603132681485 103.84615384615385, 18.62380882107793 104.64497041420118, 14.610768836284361 105.44378698224853, 13.100880968890163 106.24260355029585, 15.853734720010648 107.0414201183432, 15.026363277697028 107.84023668639053, 17.24031753682846 108.63905325443787, 18.21916330214815 109.43786982248521, 16.129994322870196 110.23668639053254, 16.410812344485073 111.03550295857988, 14.57649349011323 111.83431952662723, 14.24634079340215 112.63313609467457, 10.816428455909632 113.43195266272188, 6.692467157870512 114.23076923076923, 6.125012359699321 115.02958579881657, 9.810528992726114 115.82840236686391, 13.817393082740786 116.62721893491124, 15.208470043621125 117.42603550295858, 12.86229972289844 118.22485207100593, 11.221701597121328 119.02366863905324, 8.465488040759967 119.82248520710058, 8.305935564133504 120.62130177514793, 13.878599472549707 121.42011834319527, 16.380534485283302 122.2189349112426, 27.1864135336411 123.01775147928994, 22.40716758197276 123.81656804733728, 20.85633343206414 124.61538461538463, 17.668300918924967 125.41420118343194, 19.345842709605993 126.21301775147928, 13.618949133583818 127.01183431952663, 9.203362286720074 127.81065088757396, 3.4133107330794554 128.60946745562129, 5.391378472334494 129.40828402366864, 9.613637769812682 130.20710059171597, 5.423756534255518 131.0059171597633, 3.0468836835332214 131.80473372781066, 0.2285477341931502 132.60355029585799, 0.0 133.40236686390534, 1.9804814851536525 134.20118343195267, 1.9094735189130438" fill="none" stroke="#32ca5b" stroke-width="1.25"/>

</svg>