<?xml version="1.0" standalone="no"?>
<!DOCTYPE svg PUBLIC "-//W3C//DTD SVG 1.1//EN" "http://www.w3.org/Graphics/SVG/1.1/DTD/svg11.dtd">

<svg width="135" height="50" viewBox="0 0 135 50" preserveAspectRatio="none" 
  xmlns="http://www.w3.org/2000/svg"
  xmlns:xlink="http://www.w3.org/1999/xlink">


<polyline points="0.0, 9.337711856324708 0.7988165680473372, 14.216892059760866 1.5976331360946745, 16.635544604413 2.396449704142012, 3.651448482124514 3.195266272189349, 4.474181485670559 3.994082840236686, 0.35507414829845274 4.792899408284024, 0.0 5.591715976331361, 4.353302318498646 6.390532544378698, 4.9873274175591895 7.189349112426036, 11.624583822706722 7.988165680473372, 12.819999081972075 8.78698224852071, 10.977319712443508 9.585798816568047, 7.17835027151447 10.384615384615385, 10.1745032242601 11.183431952662723, 3.529349194856886 11.982248520710058, 16.786129834737586 12.781065088757396, 25.80070648277786 13.579881656804734, 29.17428319463024 14.378698224852071, 27.376298583959567 15.177514792899409, 25.852469567871267 15.976331360946745, 20.65100632615382 16.775147928994084, 19.096625395131824 17.57396449704142, 18.207771969492285 18.37278106508876, 15.875537561802968 19.171597633136095, 18.4599486851532 19.970414201183434, 20.585604138426383 20.76923076923077, 22.094966940199026 21.56804733727811, 22.84351368335635 22.366863905325445, 22.94560474007796 23.16568047337278, 23.487229471907597 23.964497041420117, 25.631293426749213 24.763313609467456, 27.862332550740582 25.562130177514792, 27.439932442988756 26.36094674556213, 27.092694337468632 27.159763313609467, 32.2818818270957 27.958579881656807, 29.73806533345551 28.757396449704142, 33.38895461920266 29.55621301775148, 28.843954025148825 30.355029585798817, 29.938999167192648 31.153846153846157, 36.21926066871245 31.95266272189349, 33.9549706254061 32.751479289940825, 31.49993181793681 33.55029585798817, 35.61080570716168 34.349112426035504, 40.172190356413566 35.14792899408284, 38.48348885043566 35.94674556213018, 39.25107365023487 36.74556213017752, 32.250180935596845 37.54437869822485, 32.1554628123952 38.34319526627219, 29.77663837905387 39.142011834319526, 35.2457955131853 39.94082840236687, 39.64788668472087 40.7396449704142, 39.57439568296488 41.53846153846154, 37.34380497583515 42.337278106508876, 39.005836828515044 43.13609467455622, 37.5944790433652 43.93491124260355, 34.822514289626554 44.73372781065089, 33.24358155526364 45.532544378698226, 32.24313829779491 46.33136094674556, 28.427391520916466 47.1301775147929, 32.16092906339181 47.928994082840234, 29.685609719748463 48.72781065088758, 31.179688245799742 49.52662721893491, 35.25720798296532 50.32544378698225, 31.096858440615698 51.124260355029584, 26.782016052051556 51.92307692307693, 31.30648634356315 52.72189349112426, 29.37678364669066 53.5207100591716, 28.85276580822288 54.319526627218934, 31.956056882851954 55.11834319526627, 27.7199468511608 55.91715976331361, 33.952653410919986 56.71597633136094, 32.889667752366556 57.514792899408285, 36.48896432175327 58.31360946745562, 34.14220473290118 59.11242603550296, 35.9258838227767 59.91124260355029, 39.812993698836614 60.710059171597635, 43.06068570043596 61.50887573964497, 39.80637694394489 62.307692307692314, 40.151150335542546 63.10650887573964, 38.50364157695356 63.90532544378698, 38.954965905135644 64.70414201183432, 40.421341860730585 65.50295857988165, 39.60890697597663 66.30177514792899, 37.48104961857837 67.10059171597634, 36.76061442385841 67.89940828402366, 42.927145339089165 68.69822485207101, 42.36493848987479 69.49704142011834, 41.6805513733217 70.29585798816568, 48.91173786446985 71.09467455621302, 48.48497529593379 71.89349112426036, 43.016013659337915 72.6923076923077, 44.34502977286111 73.49112426035504, 43.91848364573256 74.28994082840237, 42.16037284527038 75.0887573964497, 44.31683088573145 75.88757396449704, 47.14855457363678 76.68639053254438, 46.95384031270523 77.48520710059172, 46.345304099909676 78.28402366863905, 50.0 79.0828402366864, 45.406233098069016 79.88165680473374, 44.29035869540901 80.68047337278107, 42.66522257833565 81.4792899408284, 42.878096545207164 82.27810650887574, 43.24656834107135 83.07692307692308, 39.376515236135745 83.87573964497041, 40.5439213352389 84.67455621301775, 36.939469326139275 85.4733727810651, 36.331382846603645 86.27218934911244, 35.21974126352174 87.07100591715975, 35.27446448025181 87.8698224852071, 34.77323702225787 88.66863905325444, 36.768507042356944 89.46745562130178, 36.73000523103461 90.26627218934911, 34.08716398411091 91.06508875739645, 31.163465144726803 91.8639053254438, 33.508806210548165 92.66272189349112, 32.588912387545 93.46153846153845, 32.25321012145844 94.2603550295858, 33.306829860044104 95.05917159763314, 34.463456471039386 95.85798816568047, 33.43066998227015 96.65680473372781, 35.61974189212263 97.45562130177515, 34.24589232569601 98.2544378698225, 35.79782672534149 99.05325443786982, 36.415295103378895 99.85207100591715, 37.79358744651906 100.6508875739645, 37.436094957941144 101.44970414201183, 36.46937000040803 102.24852071005917, 38.10191007411875 103.04733727810651, 41.288375840830014 103.84615384615385, 40.365062439848984 104.64497041420118, 38.67336466847279 105.44378698224853, 38.15193352379653 106.24260355029585, 38.22831050882046 107.0414201183432, 38.17358999098835 107.84023668639053, 34.921697792984766 108.63905325443787, 35.06539904330003 109.43786982248521, 31.710234971963313 110.23668639053254, 32.54252032987151 111.03550295857988, 32.46058368679094 111.83431952662723, 29.163510510246876 112.63313609467457, 25.507153059512422 113.43195266272188, 25.000119351521327 114.23076923076923, 26.75808501002248 115.02958579881657, 24.292261986721673 115.82840236686391, 24.66141659025791 116.62721893491124, 26.411020638485972 117.42603550295858, 28.352411196215595 118.22485207100593, 27.09904445673849 119.02366863905324, 28.737537441251877 119.82248520710058, 28.482224628412077 120.62130177514793, 24.573812275589546 121.42011834319527, 25.845744854090626 122.2189349112426, 21.497895934440212 123.01775147928994, 30.79312938866014 123.81656804733728, 25.980458413057494 124.61538461538463, 23.656569553122818 125.41420118343194, 24.373871205182954 126.21301775147928, 23.42717862403235 127.01183431952663, 18.09043568697257 127.81065088757396, 14.897019322057107 128.60946745562129, 10.758816698049657 129.40828402366864, 11.287884712354943 130.20710059171597, 14.605974868979004 131.0059171597633, 14.175494886577592 131.80473372781066, 15.259708278062392 132.60355029585799, 14.969403995774996 133.40236686390534, 16.417401041703876 134.20118343195267, 16.355385072254926" fill="none" stroke="#ff3a33" stroke-width="1.25"/>

</svg>