<?xml version="1.0" standalone="no"?>
<!DOCTYPE svg PUBLIC "-//W3C//DTD SVG 1.1//EN" "http://www.w3.org/Graphics/SVG/1.1/DTD/svg11.dtd">

<svg width="135" height="50" viewBox="0 0 135 50" preserveAspectRatio="none" 
  xmlns="http://www.w3.org/2000/svg"
  xmlns:xlink="http://www.w3.org/1999/xlink">


<polyline points="0.0, 16.266492792145247 0.7988165680473372, 18.364504219092847 1.5976331360946745, 15.66049472923629 2.396449704142012, 17.489921868957783 3.195266272189349, 16.075806766022218 3.994082840236686, 16.43254148563556 4.792899408284024, 16.28491592036317 5.591715976331361, 13.67623989554657 6.390532544378698, 13.37806952634212 7.189349112426036, 20.450640337037445 7.988165680473372, 20.2567417736184 8.78698224852071, 17.825144739610714 9.585798816568047, 20.230066529479966 10.384615384615385, 19.582950022174483 11.183431952662723, 27.57859194841744 11.982248520710058, 34.00391489306895 12.781065088757396, 36.62801669623588 13.579881656804734, 37.157759093390965 14.378698224852071, 34.74540742440106 15.177514792899409, 27.57593014492241 15.976331360946745, 24.43400574091223 16.775147928994084, 26.316950906338633 17.57396449704142, 25.522792636914925 18.37278106508876, 23.857659069378773 19.171597633136095, 21.761102816316505 19.970414201183434, 23.71393467756558 20.76923076923077, 25.20943812621504 21.56804733727811, 23.12692227371858 22.366863905325445, 24.780319462397692 23.16568047337278, 28.452720527743818 23.964497041420117, 30.62972418312023 24.763313609467456, 33.635610585461976 25.562130177514792, 31.48013260379956 26.36094674556213, 37.321249058487304 27.159763313609467, 41.30989243469599 27.958579881656807, 42.06479065255986 28.757396449704142, 38.776302732213686 29.55621301775148, 42.842927389772086 30.355029585798817, 47.9910051165165 31.153846153846157, 44.65214618476169 31.95266272189349, 43.587795879657975 32.751479289940825, 47.02228308600926 33.55029585798817, 50.0 34.349112426035504, 45.862608733523935 35.14792899408284, 46.60040210277769 35.94674556213018, 42.11016859585916 36.74556213017752, 40.502019021744644 37.54437869822485, 39.38007791136121 38.34319526627219, 41.70348451264972 39.142011834319526, 45.42851313998211 39.94082840236687, 44.56682948969733 40.7396449704142, 43.23228745173458 41.53846153846154, 43.175038623987504 42.337278106508876, 41.22800618220292 43.13609467455622, 36.695312543494445 43.93491124260355, 33.87551021273962 44.73372781065089, 32.19764807104133 45.532544378698226, 28.346764538668907 46.33136094674556, 24.749899054557677 47.1301775147929, 25.224393860796457 47.928994082840234, 28.014288264274157 48.72781065088758, 29.850001480179706 49.52662721893491, 29.061392953571545 50.32544378698225, 27.145290131133827 51.124260355029584, 29.12250752889229 51.92307692307693, 26.29924058927557 52.72189349112426, 25.012292862197356 53.5207100591716, 28.00648185993666 54.319526627218934, 27.246709862752184 55.11834319526627, 31.050594355471002 55.91715976331361, 32.169600243533374 56.71597633136094, 34.25905360231914 57.514792899408285, 31.791882176084396 58.31360946745562, 33.12566644237712 59.11242603550296, 35.34844954218402 59.91124260355029, 34.8116020514627 60.710059171597635, 33.76842046273714 61.50887573964497, 33.57359092742897 62.307692307692314, 30.494421225080938 63.10650887573964, 32.80854175357703 63.90532544378698, 35.99344027972645 64.70414201183432, 34.1322015119601 65.50295857988165, 33.49511224555529 66.30177514792899, 32.190292801090166 67.10059171597634, 34.713387389074356 67.89940828402366, 31.391084032417783 68.69822485207101, 27.800393253985295 69.49704142011834, 30.72859888313348 70.29585798816568, 28.965988989142645 71.09467455621302, 23.062829523753678 71.89349112426036, 20.819358571287193 72.6923076923077, 21.732000676989607 73.49112426035504, 22.7264421563221 74.28994082840237, 20.9981845558935 75.0887573964497, 23.368509242598574 75.88757396449704, 25.16453036435732 76.68639053254438, 24.267095328957858 77.48520710059172, 30.4904788266927 78.28402366863905, 27.999098927871945 79.0828402366864, 26.26765068986075 79.88165680473374, 23.88447212128329 80.68047337278107, 20.576531597279047 81.4792899408284, 15.218818538742863 82.27810650887574, 18.901941041804825 83.07692307692308, 22.406256775304506 83.87573964497041, 21.271929117337258 84.67455621301775, 22.899141668245996 85.4733727810651, 22.32476578374873 86.27218934911244, 21.896190516062155 87.07100591715975, 21.42909170844181 87.8698224852071, 23.36317920379133 88.66863905325444, 24.59280546978924 89.46745562130178, 23.766412682345198 90.26627218934911, 21.7568740180104 91.06508875739645, 22.39059977259398 91.8639053254438, 21.965527917589295 92.66272189349112, 22.149642080424954 93.46153846153845, 21.399501752369083 94.2603550295858, 20.79580613464788 95.05917159763314, 21.021081402036103 95.85798816568047, 21.127439077163928 96.65680473372781, 19.042671839968264 97.45562130177515, 18.48376420993274 98.2544378698225, 19.50338689350592 99.05325443786982, 20.349142663326287 99.85207100591715, 19.554605913962455 100.6508875739645, 20.153726556063447 101.44970414201183, 22.349663310614414 102.24852071005917, 23.04399711232777 103.04733727810651, 23.655309909945128 103.84615384615385, 24.877134174959053 104.64497041420118, 23.869764715123036 105.44378698224853, 23.038012557435515 106.24260355029585, 23.26157406790151 107.0414201183432, 21.105389832762672 107.84023668639053, 21.724503452510117 108.63905325443787, 20.548691072853178 109.43786982248521, 18.441083255335236 110.23668639053254, 18.810882565262947 111.03550295857988, 17.79664004442981 111.83431952662723, 18.89545155466085 112.63313609467457, 18.687578375765337 113.43195266272188, 18.953374741316235 114.23076923076923, 18.638265275265482 115.02958579881657, 14.441368008673535 115.82840236686391, 14.721466084973114 116.62721893491124, 13.225539305043164 117.42603550295858, 13.62677905893365 118.22485207100593, 13.092321810000977 119.02366863905324, 8.169300954626584 119.82248520710058, 7.6774313164245545 120.62130177514793, 11.280943192236691 121.42011834319527, 10.728183940763946 122.2189349112426, 18.477314190775008 123.01775147928994, 13.79581389554316 123.81656804733728, 15.894221939060547 124.61538461538463, 14.553341508632315 125.41420118343194, 13.179895148735287 126.21301775147928, 11.108106842239724 127.01183431952663, 8.529653652155655 127.81065088757396, 5.152809674038931 128.60946745562129, 0.0 129.40828402366864, 1.6503239306331279 130.20710059171597, 3.182814188912693 131.0059171597633, 2.727242066925316 131.80473372781066, 0.6954928908251968 132.60355029585799, 2.058480191971759 133.40236686390534, 1.0147942377160568 134.20118343195267, 0.1676192232707753" fill="none" stroke="#32ca5b" stroke-width="1.25"/>

</svg>