<?xml version="1.0" standalone="no"?>
<!DOCTYPE svg PUBLIC "-//W3C//DTD SVG 1.1//EN" "http://www.w3.org/Graphics/SVG/1.1/DTD/svg11.dtd">

<svg width="135" height="50" viewBox="0 0 135 50" preserveAspectRatio="none" 
  xmlns="http://www.w3.org/2000/svg"
  xmlns:xlink="http://www.w3.org/1999/xlink">


<polyline points="0.0, 21.71751234490589 0.7988165680473372, 23.455287145329685 1.5976331360946745, 25.144033153293186 2.396449704142012, 25.602663735697558 3.195266272189349, 27.860893016104292 3.994082840236686, 26.67537582443069 4.792899408284024, 23.901859606121757 5.591715976331361, 22.604081161846317 6.390532544378698, 25.112162374479794 7.189349112426036, 26.401191892215948 7.988165680473372, 30.214375065132447 8.78698224852071, 26.540878352156522 9.585798816568047, 24.046320277460413 10.384615384615385, 25.5988407065259 11.183431952662723, 19.065173613752023 11.982248520710058, 28.94272732990918 12.781065088757396, 37.35058059941136 13.579881656804734, 41.05290666896082 14.378698224852071, 38.138537000617184 15.177514792899409, 37.00125046261035 15.976331360946745, 29.486268094698172 16.775147928994084, 31.639860714056038 17.57396449704142, 30.005230753686128 18.37278106508876, 27.620930516775573 19.171597633136095, 28.824965287698102 19.970414201183434, 30.47489870065388 20.76923076923077, 31.609067175913786 21.56804733727811, 31.13771545257076 22.366863905325445, 31.199330126949526 23.16568047337278, 32.68746487038918 23.964497041420117, 35.70168574836087 24.763313609467456, 37.73454937256812 25.562130177514792, 40.06625701331764 26.36094674556213, 38.62270553532347 27.159763313609467, 45.69954681399886 27.958579881656807, 43.27126865177636 28.757396449704142, 45.514378507676014 29.55621301775148, 43.26340791578996 30.355029585798817, 46.72963447394468 31.153846153846157, 50.0 31.95266272189349, 48.42590392299192 32.751479289940825, 44.45442858475272 33.55029585798817, 47.87781464754007 34.349112426035504, 48.645570882047934 35.14792899408284, 46.69901555032964 35.94674556213018, 47.331831568797305 36.74556213017752, 43.18869814898792 37.54437869822485, 41.91458390378454 38.34319526627219, 39.144134360763665 39.142011834319526, 42.334576716038804 39.94082840236687, 46.59992153787028 40.7396449704142, 44.36060743562742 41.53846153846154, 42.24983718716744 42.337278106508876, 41.65851712041391 43.13609467455622, 42.761429959017846 43.93491124260355, 38.565528985779515 44.73372781065089, 35.31439694559712 45.532544378698226, 34.68416893817318 46.33136094674556, 34.001977807421724 47.1301775147929, 37.83383124204676 47.928994082840234, 38.7338265789923 48.72781065088758, 40.00349586945229 49.52662721893491, 43.77871161655623 50.32544378698225, 41.700890446349554 51.124260355029584, 40.247179057113435 51.92307692307693, 42.66875393593806 52.72189349112426, 39.016440903701685 53.5207100591716, 37.25224917000225 54.319526627218934, 37.045586878384356 55.11834319526627, 33.811393187147296 55.91715976331361, 37.441763623490246 56.71597633136094, 37.07244718428172 57.514792899408285, 39.19104224936499 58.31360946745562, 37.27584552588517 59.11242603550296, 38.253836894557296 59.91124260355029, 41.239323723253726 60.710059171597635, 42.16153812103642 61.50887573964497, 41.32834161580133 62.307692307692314, 41.64371971658081 63.10650887573964, 39.6243535531654 63.90532544378698, 43.705926829518496 64.70414201183432, 45.520005870802244 65.50295857988165, 46.895850959248214 66.30177514792899, 44.31476706850061 67.10059171597634, 43.59156073303516 67.89940828402366, 45.41325939826373 68.69822485207101, 44.52350539504415 69.49704142011834, 37.130297011398575 70.29585798816568, 37.617156920927876 71.09467455621302, 38.395465033917354 71.89349112426036, 35.832350099903536 72.6923076923077, 37.03768424866918 73.49112426035504, 35.49525272547678 74.28994082840237, 33.75514868627243 75.0887573964497, 34.69725961333588 75.88757396449704, 37.112697015417 76.68639053254438, 37.38135228601815 77.48520710059172, 35.00273287038335 78.28402366863905, 40.3995648849929 79.0828402366864, 38.55932118629138 79.88165680473374, 34.30902900970847 80.68047337278107, 29.860624124899203 81.4792899408284, 25.464103730456078 82.27810650887574, 20.790131386792225 83.07692307692308, 17.20475483435882 83.87573964497041, 14.648518125244728 84.67455621301775, 13.415343438699983 85.4733727810651, 15.135801565168627 86.27218934911244, 17.055012538171233 87.07100591715975, 18.183119934806008 87.8698224852071, 16.727314263857856 88.66863905325444, 19.87127326761358 89.46745562130178, 20.538460943032042 90.26627218934911, 16.313488868993357 91.06508875739645, 11.195816877361182 91.8639053254438, 13.864723227907602 92.66272189349112, 15.138669794127125 93.46153846153845, 15.665623552045913 94.2603550295858, 15.0762257513607 95.05917159763314, 12.942294232079668 95.85798816568047, 11.988448250477916 96.65680473372781, 14.781185118232429 97.45562130177515, 14.21930452290747 98.2544378698225, 13.206057595887547 99.05325443786982, 13.662520944629192 99.85207100591715, 17.030895454739404 100.6508875739645, 15.826220605496172 101.44970414201183, 13.268667511024464 102.24852071005917, 13.269613778824372 103.04733727810651, 13.678200024923823 103.84615384615385, 13.773959605756719 104.64497041420118, 11.639561393741541 105.44378698224853, 6.657729665287156 106.24260355029585, 6.914793288480421 107.0414201183432, 7.608956431516748 107.84023668639053, 7.796521061661448 108.63905325443787, 11.329594419975452 109.43786982248521, 13.196851241225804 110.23668639053254, 9.19848682540282 111.03550295857988, 10.449408325696105 111.83431952662723, 9.811665153393703 112.63313609467457, 5.8411731578443105 113.43195266272188, 5.2832334642571075 114.23076923076923, 7.760296008477259 115.02958579881657, 5.4873985807857695 115.82840236686391, 4.825568396956659 116.62721893491124, 6.278956763091177 117.42603550295858, 8.384357331913822 118.22485207100593, 8.07314841036166 119.02366863905324, 8.781936019941227 119.82248520710058, 8.708428657911234 120.62130177514793, 6.912738772594093 121.42011834319527, 10.125642267978975 122.2189349112426, 9.230979083140678 123.01775147928994, 15.702910913432614 123.81656804733728, 12.144040612573964 124.61538461538463, 10.026443115738564 125.41420118343194, 9.271646495311375 126.21301775147928, 9.71865507002259 127.01183431952663, 4.99819748881095 127.81065088757396, 0.48455069072452617 128.60946745562129, 0.0 129.40828402366864, 1.5283693378524823 130.20710059171597, 3.0197397131393817 131.0059171597633, 1.6871212054685183 131.80473372781066, 0.005771680253981223 132.60355029585799, 1.1712819832293404 133.40236686390534, 2.245402267176398 134.20118343195267, 4.589701401639459" fill="none" stroke="#32ca5b" stroke-width="1.25"/>

</svg>