<?xml version="1.0" standalone="no"?>
<!DOCTYPE svg PUBLIC "-//W3C//DTD SVG 1.1//EN" "http://www.w3.org/Graphics/SVG/1.1/DTD/svg11.dtd">

<svg width="135" height="50" viewBox="0 0 135 50" preserveAspectRatio="none" 
  xmlns="http://www.w3.org/2000/svg"
  xmlns:xlink="http://www.w3.org/1999/xlink">


<polyline points="0.0, 4.691675584184363 0.7988165680473372, 4.41086370772222 1.5976331360946745, 4.443015872602125 2.396449704142012, 4.173016365756892 3.195266272189349, 6.090906983960496 3.994082840236686, 5.608750664843372 4.792899408284024, 7.750304450955528 5.591715976331361, 8.030241055907139 6.390532544378698, 6.964823411341821 7.189349112426036, 7.950240921450876 7.988165680473372, 6.9453845481003595 8.78698224852071, 3.736990936323523 9.585798816568047, 5.261775273960801 10.384615384615385, 0.0 11.183431952662723, 3.437529450258637 11.982248520710058, 6.750460944464548 12.781065088757396, 10.471243399679546 13.579881656804734, 10.703943447659125 14.378698224852071, 10.191820615910764 15.177514792899409, 4.897578320546561 15.976331360946745, 5.500843630270804 16.775147928994084, 6.071363686413872 17.57396449704142, 5.992682733911854 18.37278106508876, 4.608271588128866 19.171597633136095, 3.2047752673033525 19.970414201183434, 9.840324631929702 20.76923076923077, 11.976099590217812 21.56804733727811, 13.87942460766 22.366863905325445, 15.410253058062533 23.16568047337278, 17.19078089655646 23.964497041420117, 18.321834139590752 24.763313609467456, 18.746657008974697 25.562130177514792, 17.985499747012195 26.36094674556213, 20.87512130407218 27.159763313609467, 21.138156501231524 27.958579881656807, 24.113865316933175 28.757396449704142, 22.14883175648776 29.55621301775148, 22.109382643101885 30.355029585798817, 23.460074349022392 31.153846153846157, 24.383628309899436 31.95266272189349, 23.287029000046022 32.751479289940825, 23.33711963475638 33.55029585798817, 23.88072754865127 34.349112426035504, 23.474916191245445 35.14792899408284, 26.750808145190756 35.94674556213018, 24.980350816161238 36.74556213017752, 25.277168563470266 37.54437869822485, 25.253695453624065 38.34319526627219, 24.173064918732134 39.142011834319526, 23.40177957219356 39.94082840236687, 26.768673846665685 40.7396449704142, 22.121723275735746 41.53846153846154, 18.410895070631113 42.337278106508876, 18.228569988545484 43.13609467455622, 16.803779955104154 43.93491124260355, 15.738015624136159 44.73372781065089, 14.954776952072182 45.532544378698226, 15.055144709126637 46.33136094674556, 18.08792698648037 47.1301775147929, 16.58899158724945 47.928994082840234, 15.046055419490148 48.72781065088758, 17.941745031509914 49.52662721893491, 18.155819112774914 50.32544378698225, 18.540561288213596 51.124260355029584, 18.060261390453665 51.92307692307693, 18.676016409693418 52.72189349112426, 17.48564153295431 53.5207100591716, 20.361469816525723 54.319526627218934, 18.393599710420045 55.11834319526627, 20.044086014784625 55.91715976331361, 20.14777921685511 56.71597633136094, 14.821803097400114 57.514792899408285, 11.127904530907324 58.31360946745562, 9.946980685335294 59.11242603550296, 19.702073541337526 59.91124260355029, 19.867985419220165 60.710059171597635, 22.299237045682013 61.50887573964497, 23.806865015118102 62.307692307692314, 22.2018107417538 63.10650887573964, 23.631656525779825 63.90532544378698, 23.48817154881182 64.70414201183432, 19.908823129417932 65.50295857988165, 17.687110571732543 66.30177514792899, 19.47434912592789 67.10059171597634, 18.73118400331101 67.89940828402366, 19.791824001318304 68.69822485207101, 18.04499965232284 69.49704142011834, 21.017089488724135 70.29585798816568, 19.917158877731183 71.09467455621302, 23.433546322973513 71.89349112426036, 22.817334392573844 72.6923076923077, 22.568560011547216 73.49112426035504, 21.331355250755223 74.28994082840237, 21.32132388937532 75.0887573964497, 22.80125183671912 75.88757396449704, 24.68902552253764 76.68639053254438, 26.770216737554275 77.48520710059172, 25.484819198344137 78.28402366863905, 25.61468389011215 79.0828402366864, 25.280750486249246 79.88165680473374, 26.492497907303804 80.68047337278107, 29.392829015732747 81.4792899408284, 28.857211551475636 82.27810650887574, 29.44902493177068 83.07692307692308, 25.27478069583057 83.87573964497041, 24.289136599339553 84.67455621301775, 24.179562256889938 85.4733727810651, 26.171377185588835 86.27218934911244, 25.171007560322185 87.07100591715975, 25.754536291725945 87.8698224852071, 26.211916228636117 88.66863905325444, 28.6389913590233 89.46745562130178, 29.757198327924932 90.26627218934911, 26.84678611521914 91.06508875739645, 28.628813103662708 91.8639053254438, 27.96401620032277 92.66272189349112, 28.235080722424545 93.46153846153845, 28.33720859300371 94.2603550295858, 28.949604766365244 95.05917159763314, 30.50013962199903 95.85798816568047, 31.57802854928703 96.65680473372781, 28.714406609613462 97.45562130177515, 27.301040429716338 98.2544378698225, 28.104034023767806 99.05325443786982, 31.53875470717167 99.85207100591715, 32.25119730602188 100.6508875739645, 31.78926113900192 101.44970414201183, 33.69767135343796 102.24852071005917, 34.4357964963181 103.04733727810651, 33.43317718057937 103.84615384615385, 34.592544108251104 104.64497041420118, 34.52441051156346 105.44378698224853, 34.65744426068076 106.24260355029585, 36.14305089927785 107.0414201183432, 34.121772068019055 107.84023668639053, 34.90922773983768 108.63905325443787, 36.503580789393354 109.43786982248521, 36.07190795064847 110.23668639053254, 35.22702499387261 111.03550295857988, 37.44332469633901 111.83431952662723, 33.24155951519725 112.63313609467457, 33.342136240917434 113.43195266272188, 47.71630431840171 114.23076923076923, 50.0 115.02958579881657, 49.41494228003707 115.82840236686391, 49.9460524571371 116.62721893491124, 34.52927548762152 117.42603550295858, 34.84867188061258 118.22485207100593, 34.72388367730533 119.02366863905324, 35.454661474023155 119.82248520710058, 34.40967258359185 120.62130177514793, 33.34873044743746 121.42011834319527, 33.604369454991954 122.2189349112426, 40.773299553017374 123.01775147928994, 40.97512728753237 123.81656804733728, 40.36017911312534 124.61538461538463, 41.018758653980555 125.41420118343194, 41.21872404583715 126.21301775147928, 41.24558501450451 127.01183431952663, 40.055686266050664 127.81065088757396, 33.81563855026717 128.60946745562129, 32.16404919066819 129.40828402366864, 33.36848788839991 130.20710059171597, 33.232459508418046 131.0059171597633, 32.72059603448207 131.80473372781066, 32.2768151479182 132.60355029585799, 31.55329936153916 133.40236686390534, 32.44864395529978 134.20118343195267, 32.59047567410833" fill="none" stroke="#ff3a33" stroke-width="1.25"/>

</svg>