<?xml version="1.0" standalone="no"?>
<!DOCTYPE svg PUBLIC "-//W3C//DTD SVG 1.1//EN" "http://www.w3.org/Graphics/SVG/1.1/DTD/svg11.dtd">

<svg width="135" height="50" viewBox="0 0 135 50" preserveAspectRatio="none" 
  xmlns="http://www.w3.org/2000/svg"
  xmlns:xlink="http://www.w3.org/1999/xlink">


<polyline points="0.0, 46.908406158670324 0.7988165680473372, 47.696824498632665 1.5976331360946745, 50.0 2.396449704142012, 46.068698644882176 3.195266272189349, 47.331983935529024 3.994082840236686, 47.29094435918788 4.792899408284024, 45.63135824180319 5.591715976331361, 44.98432647648351 6.390532544378698, 45.13458389499347 7.189349112426036, 46.61016677427873 7.988165680473372, 47.20723394676185 8.78698224852071, 46.03138988300422 9.585798816568047, 45.12310741455467 10.384615384615385, 45.73275937172947 11.183431952662723, 41.57264508769035 11.982248520710058, 43.53865714234087 12.781065088757396, 47.79527128193312 13.579881656804734, 43.458850932225054 14.378698224852071, 43.81813926048076 15.177514792899409, 37.92948025176523 15.976331360946745, 37.0979580980021 16.775147928994084, 38.8707577515555 17.57396449704142, 38.377926883806666 18.37278106508876, 40.27012509940713 19.171597633136095, 40.25491906785689 19.970414201183434, 40.381413084254035 20.76923076923077, 40.1808489916087 21.56804733727811, 42.56509185486502 22.366863905325445, 42.58953831537921 23.16568047337278, 44.14392866550887 23.964497041420117, 44.43839649081643 24.763313609467456, 45.573990691910325 25.562130177514792, 47.78106697781497 26.36094674556213, 45.67596193342289 27.159763313609467, 48.86196123759349 27.958579881656807, 46.64334343745361 28.757396449704142, 47.05915206950554 29.55621301775148, 40.96491462397421 30.355029585798817, 44.053237393704066 31.153846153846157, 44.14117341762343 31.95266272189349, 42.17611919248017 32.751479289940825, 41.97297067171431 33.55029585798817, 45.109541022402745 34.349112426035504, 43.705108142891305 35.14792899408284, 44.05551965160657 35.94674556213018, 43.80643822475201 36.74556213017752, 41.263901837835235 37.54437869822485, 40.61358392604311 38.34319526627219, 38.80477003366775 39.142011834319526, 44.27853684635641 39.94082840236687, 45.27837968348761 40.7396449704142, 43.32604607055875 41.53846153846154, 40.31930364215222 42.337278106508876, 42.203423003708615 43.13609467455622, 40.473112839746165 43.93491124260355, 37.0961732451608 44.73372781065089, 37.548802029366364 45.532544378698226, 34.70630015848503 46.33136094674556, 34.11180478830715 47.1301775147929, 34.927362294189145 47.928994082840234, 34.56248653248119 48.72781065088758, 34.50581125846547 49.52662721893491, 36.99215960298071 50.32544378698225, 36.13282837063546 51.124260355029584, 35.51096718968612 51.92307692307693, 35.6750277551412 52.72189349112426, 35.41881143471529 53.5207100591716, 33.85934333157631 54.319526627218934, 34.77077399535822 55.11834319526627, 33.84049597567501 55.91715976331361, 34.598454600852016 56.71597633136094, 33.07917058824606 57.514792899408285, 37.609676937143135 58.31360946745562, 36.429958535722044 59.11242603550296, 37.84634948416901 59.91124260355029, 40.27368966979446 60.710059171597635, 40.82005307854607 61.50887573964497, 39.72247252634345 62.307692307692314, 40.11468205408102 63.10650887573964, 39.49277345877124 63.90532544378698, 40.71159005938018 64.70414201183432, 42.82276521735785 65.50295857988165, 41.95235044883112 66.30177514792899, 40.617696915260204 67.10059171597634, 40.610379093558294 67.89940828402366, 41.58193659016731 68.69822485207101, 41.2225065347339 69.49704142011834, 41.19638182437868 70.29585798816568, 42.998352411116265 71.09467455621302, 42.57281393609798 71.89349112426036, 40.42711663746846 72.6923076923077, 40.38312655162135 73.49112426035504, 40.169087066225686 74.28994082840237, 40.08161261148332 75.0887573964497, 40.31530673519506 75.88757396449704, 41.69449765583261 76.68639053254438, 42.21066208034518 77.48520710059172, 40.90325571331574 78.28402366863905, 44.44578682831951 79.0828402366864, 43.587670033722645 79.88165680473374, 42.71116619970402 80.68047337278107, 41.68350036495826 81.4792899408284, 41.05564792146678 82.27810650887574, 41.15573114589473 83.07692307692308, 39.73234323311519 83.87573964497041, 40.04157481749836 84.67455621301775, 39.19613402069228 85.4733727810651, 39.07286121787823 86.27218934911244, 38.82784862477181 87.07100591715975, 39.15471740312284 87.8698224852071, 38.31895114861866 88.66863905325444, 40.74039414384812 89.46745562130178, 39.90637406671371 90.26627218934911, 39.15701890114134 91.06508875739645, 36.905272977668574 91.8639053254438, 36.4743467652853 92.66272189349112, 35.640924218680794 93.46153846153845, 36.02540774942035 94.2603550295858, 34.986004332929 95.05917159763314, 34.6776158085565 95.85798816568047, 35.656772331075786 96.65680473372781, 35.07333037861247 97.45562130177515, 34.37587794848091 98.2544378698225, 34.48532358556112 99.05325443786982, 34.42057264316931 99.85207100591715, 34.515947188736654 100.6508875739645, 35.722725293359545 101.44970414201183, 33.98442499980812 102.24852071005917, 31.93127923931975 103.04733727810651, 32.59394925412321 103.84615384615385, 33.44721552861153 104.64497041420118, 33.29311047264709 105.44378698224853, 31.8905733382011 106.24260355029585, 31.508750006211024 107.0414201183432, 30.492210972559132 107.84023668639053, 30.013761600893808 108.63905325443787, 24.675177835700385 109.43786982248521, 24.304630645613134 110.23668639053254, 22.732192036812826 111.03550295857988, 23.76002386353558 111.83431952662723, 22.935338348739442 112.63313609467457, 25.210633814177584 113.43195266272188, 24.12092743462303 114.23076923076923, 21.120367200845035 115.02958579881657, 21.703240511038405 115.82840236686391, 19.27591163926198 116.62721893491124, 18.573439211431232 117.42603550295858, 19.22482456958793 118.22485207100593, 19.003675296957347 119.02366863905324, 19.693091370822067 119.82248520710058, 21.408310251067984 120.62130177514793, 21.78242299653819 121.42011834319527, 23.493495083560582 122.2189349112426, 24.335781143540068 123.01775147928994, 28.468821197088655 123.81656804733728, 27.244729490717756 124.61538461538463, 26.9458350635209 125.41420118343194, 22.963373655598883 126.21301775147928, 24.49914148904267 127.01183431952663, 22.357942811066163 127.81065088757396, 19.02903851800899 128.60946745562129, 16.21034184281383 129.40828402366864, 16.735766901082542 130.20710059171597, 19.57718183224836 131.0059171597633, 19.41576798263778 131.80473372781066, 10.64199300224613 132.60355029585799, 9.121332138840119 133.40236686390534, 6.13578336324057 134.20118343195267, 0.0" fill="none" stroke="#32ca5b" stroke-width="1.25"/>

</svg>