<?xml version="1.0" standalone="no"?>
<!DOCTYPE svg PUBLIC "-//W3C//DTD SVG 1.1//EN" "http://www.w3.org/Graphics/SVG/1.1/DTD/svg11.dtd">

<svg width="135" height="50" viewBox="0 0 135 50" preserveAspectRatio="none" 
  xmlns="http://www.w3.org/2000/svg"
  xmlns:xlink="http://www.w3.org/1999/xlink">


<polyline points="0.0, 43.74867873744777 0.7988165680473372, 45.121307545086516 1.5976331360946745, 47.179846716233385 2.396449704142012, 47.254598321676895 3.195266272189349, 49.1642775700277 3.994082840236686, 48.769922798257994 4.792899408284024, 47.66716319541055 5.591715976331361, 46.75781824051246 6.390532544378698, 47.15918163361153 7.189349112426036, 45.98193708151144 7.988165680473372, 46.32122001055674 8.78698224852071, 45.616194316831184 9.585798816568047, 45.48303096128832 10.384615384615385, 44.51752157125825 11.183431952662723, 47.532073473439404 11.982248520710058, 48.713002909098115 12.781065088757396, 49.409581776592454 13.579881656804734, 50.0 14.378698224852071, 47.86432946543982 15.177514792899409, 48.95637928536771 15.976331360946745, 49.129677793067046 16.775147928994084, 47.94978809690873 17.57396449704142, 43.55414890626707 18.37278106508876, 40.236188457415885 19.171597633136095, 39.41361959678228 19.970414201183434, 36.19482326489478 20.76923076923077, 39.75003343936906 21.56804733727811, 41.445006578566144 22.366863905325445, 41.577159432668495 23.16568047337278, 42.884628789634185 23.964497041420117, 44.083628004415154 24.763313609467456, 44.73493601837566 25.562130177514792, 45.1018218986169 26.36094674556213, 44.08587980555083 27.159763313609467, 45.223838345646534 27.958579881656807, 45.92454078073029 28.757396449704142, 47.50571498795156 29.55621301775148, 45.818865901916205 30.355029585798817, 46.95325138998566 31.153846153846157, 48.406914440467666 31.95266272189349, 47.41313401408203 32.751479289940825, 46.225704562056784 33.55029585798817, 46.22304152214484 34.349112426035504, 47.53252404612095 35.14792899408284, 46.55937321010459 35.94674556213018, 46.767550090704006 36.74556213017752, 37.67464772626167 37.54437869822485, 22.60646921412639 38.34319526627219, 22.436118761809208 39.142011834319526, 20.133817205235474 39.94082840236687, 22.852616998694273 40.7396449704142, 20.980148606065896 41.53846153846154, 18.272395754520712 42.337278106508876, 20.619738520425635 43.13609467455622, 18.04743905440869 43.93491124260355, 17.057491416169814 44.73372781065089, 17.113445983073973 45.532544378698226, 16.89324189558123 46.33136094674556, 17.44151990773693 47.1301775147929, 21.36253087610352 47.928994082840234, 20.42377266454796 48.72781065088758, 18.265565075158392 49.52662721893491, 19.77002878379401 50.32544378698225, 16.01320809810205 51.124260355029584, 13.916673184675766 51.92307692307693, 16.595990824127746 52.72189349112426, 17.31549226168896 53.5207100591716, 17.668699126455135 54.319526627218934, 18.433384397406897 55.11834319526627, 15.972660786882809 55.91715976331361, 18.48340307370003 56.71597633136094, 20.10746787647927 57.514792899408285, 21.16087897643947 58.31360946745562, 17.46171861135601 59.11242603550296, 19.489653288588826 59.91124260355029, 18.818225973085447 60.710059171597635, 19.99011050685791 61.50887573964497, 19.312109683504104 62.307692307692314, 17.04025518735357 63.10650887573964, 20.02600219957032 63.90532544378698, 20.416620619504595 64.70414201183432, 20.938768549125793 65.50295857988165, 16.615755630120578 66.30177514792899, 17.118810774294634 67.10059171597634, 14.313988680962803 67.89940828402366, 8.821390856481838 68.69822485207101, 0.7040168831318933 69.49704142011834, 0.0 70.29585798816568, 8.116279122849281 71.09467455621302, 6.6650420122331715 71.89349112426036, 2.043792275648399 72.6923076923077, 5.001736725167426 73.49112426035504, 7.00881445961665 74.28994082840237, 7.61440719949337 75.0887573964497, 9.107455369324779 75.88757396449704, 10.97524560340287 76.68639053254438, 10.86692027698559 77.48520710059172, 12.084162059468563 78.28402366863905, 19.62657807459418 79.0828402366864, 16.979592145341684 79.88165680473374, 17.452463497790433 80.68047337278107, 16.173057742812404 81.4792899408284, 17.233590677157938 82.27810650887574, 19.054460743727393 83.07692307692308, 18.9641344996618 83.87573964497041, 21.344654019725986 84.67455621301775, 20.658563044369647 85.4733727810651, 19.808091595641574 86.27218934911244, 18.75324008505764 87.07100591715975, 16.94859299092971 87.8698224852071, 13.544909885989345 88.66863905325444, 11.074491843080068 89.46745562130178, 14.1045631581092 90.26627218934911, 16.327531651606805 91.06508875739645, 14.23339732290884 91.8639053254438, 12.244402434177406 92.66272189349112, 11.0353171324957 93.46153846153845, 12.348875992082663 94.2603550295858, 13.371710884366358 95.05917159763314, 15.069516256418181 95.85798816568047, 13.730089820981961 96.65680473372781, 10.631653702014807 97.45562130177515, 5.123428835763392 98.2544378698225, 5.8812243946992595 99.05325443786982, 8.906131206890105 99.85207100591715, 4.985520298117032 100.6508875739645, 6.062949902399051 101.44970414201183, 8.051494981397605 102.24852071005917, 5.8940336667660596 103.04733727810651, 7.785624077779938 103.84615384615385, 7.730788037139671 104.64497041420118, 7.199773620966248 105.44378698224853, 8.990045980854637 106.24260355029585, 9.753793890930126 107.0414201183432, 11.83525679801971 107.84023668639053, 11.075878962339749 108.63905325443787, 11.225601741625788 109.43786982248521, 10.017027785695662 110.23668639053254, 8.39452717127248 111.03550295857988, 9.072678140599646 111.83431952662723, 7.898192670512004 112.63313609467457, 7.4029639767664674 113.43195266272188, 8.878156182508448 114.23076923076923, 11.987065478115941 115.02958579881657, 10.918827065276737 115.82840236686391, 10.252015276717405 116.62721893491124, 12.087368300760309 117.42603550295858, 12.000771245160703 118.22485207100593, 10.385417396783083 119.02366863905324, 10.97261911171827 119.82248520710058, 11.757315427916618 120.62130177514793, 11.974922446593213 121.42011834319527, 14.061742393029675 122.2189349112426, 13.079180160514614 123.01775147928994, 15.216624756237854 123.81656804733728, 14.991840772022178 124.61538461538463, 16.796100792147275 125.41420118343194, 16.72739985678383 126.21301775147928, 18.500076261206196 127.01183431952663, 16.571717343569368 127.81065088757396, 15.860243269932422 128.60946745562129, 12.939267935643112 129.40828402366864, 13.87801686843475 130.20710059171597, 14.249919260500143 131.0059171597633, 14.47839704828994 131.80473372781066, 13.686862852966563 132.60355029585799, 14.523251910659665 133.40236686390534, 14.905937744491549 134.20118343195267, 15.720133223318008" fill="none" stroke="#32ca5b" stroke-width="1.25"/>

</svg>