<?xml version="1.0" standalone="no"?>
<!DOCTYPE svg PUBLIC "-//W3C//DTD SVG 1.1//EN" "http://www.w3.org/Graphics/SVG/1.1/DTD/svg11.dtd">

<svg width="135" height="50" viewBox="0 0 135 50" preserveAspectRatio="none" 
  xmlns="http://www.w3.org/2000/svg"
  xmlns:xlink="http://www.w3.org/1999/xlink">


<polyline points="0.0, 24.433904339073518 0.7988165680473372, 23.3149690274508 1.5976331360946745, 22.25630049843286 2.396449704142012, 26.250194318761967 3.195266272189349, 25.66204107582786 3.994082840236686, 26.627948527761674 4.792899408284024, 29.406913338658036 5.591715976331361, 30.293813400977765 6.390532544378698, 29.344889769370074 7.189349112426036, 29.862215605846682 7.988165680473372, 30.016182623561065 8.78698224852071, 29.573636331997015 9.585798816568047, 33.65968932679141 10.384615384615385, 24.836467106117144 11.183431952662723, 28.304787736132152 11.982248520710058, 35.52464931339961 12.781065088757396, 35.976348342949024 13.579881656804734, 38.52532198685842 14.378698224852071, 38.304505701711136 15.177514792899409, 34.66977440663523 15.976331360946745, 33.99247883527168 16.775147928994084, 31.06140026276089 17.57396449704142, 32.23070922010176 18.37278106508876, 31.30736650127495 19.171597633136095, 30.936773430070584 19.970414201183434, 30.833175987321855 20.76923076923077, 31.284849470769778 21.56804733727811, 30.00743100984757 22.366863905325445, 28.47823153581735 23.16568047337278, 29.389274644693543 23.964497041420117, 33.23212720816189 24.763313609467456, 35.2024108481738 25.562130177514792, 34.14244406443219 26.36094674556213, 37.52302262631423 27.159763313609467, 38.60483772595475 27.958579881656807, 46.53676365263887 28.757396449704142, 44.91131504283336 29.55621301775148, 41.00615432269808 30.355029585798817, 50.0 31.153846153846157, 47.9059309562943 31.95266272189349, 45.31383911069102 32.751479289940825, 45.54271904168131 33.55029585798817, 46.18100823666127 34.349112426035504, 44.066500954888916 35.14792899408284, 43.06262216525658 35.94674556213018, 39.841306992760046 36.74556213017752, 42.573396518376164 37.54437869822485, 41.80198271549741 38.34319526627219, 41.58315910120924 39.142011834319526, 42.08240005629887 39.94082840236687, 41.88153746822857 40.7396449704142, 41.21433493293476 41.53846153846154, 41.95110359393065 42.337278106508876, 42.39004964719263 43.13609467455622, 38.26458207852265 43.93491124260355, 38.46947744051711 44.73372781065089, 33.363811473997664 45.532544378698226, 34.923516092604764 46.33136094674556, 33.742730204597734 47.1301775147929, 26.32258459433816 47.928994082840234, 25.425399587221005 48.72781065088758, 27.11395379453351 49.52662721893491, 25.563687601648848 50.32544378698225, 21.02778120156813 51.124260355029584, 18.17992624078971 51.92307692307693, 16.09460248122926 52.72189349112426, 17.017474412639586 53.5207100591716, 17.089853768066725 54.319526627218934, 16.01826246467325 55.11834319526627, 17.02079522955249 55.91715976331361, 17.60415044940782 56.71597633136094, 17.023355263924543 57.514792899408285, 19.492335281256064 58.31360946745562, 9.821137140391459 59.11242603550296, 15.354581878195617 59.91124260355029, 13.401937454551465 60.710059171597635, 9.797137849469227 61.50887573964497, 11.707196115064537 62.307692307692314, 9.561642980770447 63.10650887573964, 8.039494935759388 63.90532544378698, 0.7164075451500311 64.70414201183432, 21.172302725090937 65.50295857988165, 21.142546770484834 66.30177514792899, 16.73979189798394 67.10059171597634, 23.8548535985918 67.89940828402366, 22.648031742500088 68.69822485207101, 21.674762140503585 69.49704142011834, 19.67257306137336 70.29585798816568, 22.582448427553846 71.09467455621302, 22.770273399574297 71.89349112426036, 27.06433931508572 72.6923076923077, 25.395514379052443 73.49112426035504, 26.355233437785397 74.28994082840237, 26.97760002491025 75.0887573964497, 30.49544075103372 75.88757396449704, 29.751977469791647 76.68639053254438, 31.86620640738197 77.48520710059172, 31.901855955244677 78.28402366863905, 28.843331168009932 79.0828402366864, 28.93495295556383 79.88165680473374, 30.006720901810425 80.68047337278107, 23.69417985202088 81.4792899408284, 22.847854467902224 82.27810650887574, 21.179716657370207 83.07692307692308, 25.32922516347243 83.87573964497041, 26.326349507884682 84.67455621301775, 26.26517714601288 85.4733727810651, 25.46564609664052 86.27218934911244, 26.48659546623142 87.07100591715975, 24.257555432969628 87.8698224852071, 26.563786510155918 88.66863905325444, 29.514854381546012 89.46745562130178, 28.103827852309998 90.26627218934911, 28.199489611813068 91.06508875739645, 27.386677498113176 91.8639053254438, 25.9972775403518 92.66272189349112, 26.658698138047658 93.46153846153845, 27.205939687959596 94.2603550295858, 27.636141187598856 95.05917159763314, 25.51586555230445 95.85798816568047, 25.402793238293402 96.65680473372781, 20.847161886980885 97.45562130177515, 24.102681157858775 98.2544378698225, 22.417202680642184 99.05325443786982, 18.98443509591594 99.85207100591715, 18.226719638236194 100.6508875739645, 19.443091044060406 101.44970414201183, 19.69442695698044 102.24852071005917, 20.389535702419906 103.04733727810651, 18.480810537546468 103.84615384615385, 17.83929790956334 104.64497041420118, 23.23626711972918 105.44378698224853, 21.660406225361946 106.24260355029585, 23.15095921021044 107.0414201183432, 24.10988328966304 107.84023668639053, 23.242769480647254 108.63905325443787, 19.986497705547976 109.43786982248521, 19.184719139934113 110.23668639053254, 20.187893316684626 111.03550295857988, 16.41684255036743 111.83431952662723, 17.71630054260714 112.63313609467457, 16.802272815846557 113.43195266272188, 17.223335190664926 114.23076923076923, 18.154275194127028 115.02958579881657, 20.87653643031871 115.82840236686391, 19.839081825781673 116.62721893491124, 18.202869431855778 117.42603550295858, 17.68941124742139 118.22485207100593, 18.810219173319258 119.02366863905324, 16.003284481422092 119.82248520710058, 15.624170800133077 120.62130177514793, 20.40822875548294 121.42011834319527, 18.037988460436775 122.2189349112426, 20.543753875070625 123.01775147928994, 25.200164608559117 123.81656804733728, 21.168114813529172 124.61538461538463, 17.480644595027627 125.41420118343194, 19.02896758988828 126.21301775147928, 15.959474857818408 127.01183431952663, 11.193309951550887 127.81065088757396, 8.997043491503518 128.60946745562129, 10.236677241826296 129.40828402366864, 8.996709199125332 130.20710059171597, 8.828148746801425 131.0059171597633, 7.619927013241962 131.80473372781066, 6.794745845432325 132.60355029585799, 5.932853348938248 133.40236686390534, 1.893865943063984 134.20118343195267, 0.0" fill="none" stroke="#32ca5b" stroke-width="1.25"/>

</svg>