<?xml version="1.0" standalone="no"?>
<!DOCTYPE svg PUBLIC "-//W3C//DTD SVG 1.1//EN" "http://www.w3.org/Graphics/SVG/1.1/DTD/svg11.dtd">

<svg width="135" height="50" viewBox="0 0 135 50" preserveAspectRatio="none" 
  xmlns="http://www.w3.org/2000/svg"
  xmlns:xlink="http://www.w3.org/1999/xlink">


<polyline points="0.0, 37.25429658154855 0.7988165680473372, 40.08311438356952 1.5976331360946745, 31.996008018949397 2.396449704142012, 35.693615390572546 3.195266272189349, 44.21228159163557 3.994082840236686, 41.76984738377351 4.792899408284024, 41.402591402690426 5.591715976331361, 38.313641198307025 6.390532544378698, 39.52171006306701 7.189349112426036, 43.01816212724957 7.988165680473372, 45.26415798618325 8.78698224852071, 44.634754490693226 9.585798816568047, 43.96479294037164 10.384615384615385, 44.71727508634275 11.183431952662723, 46.62767252665523 11.982248520710058, 49.859169329859135 12.781065088757396, 50.0 13.579881656804734, 46.21647385346685 14.378698224852071, 43.76828136430197 15.177514792899409, 45.86976206600174 15.976331360946745, 45.058293978997916 16.775147928994084, 38.50125558161057 17.57396449704142, 32.93861723523813 18.37278106508876, 26.024229656039395 19.171597633136095, 24.18321344846586 19.970414201183434, 19.41266183635733 20.76923076923077, 25.8966079111066 21.56804733727811, 30.148004178940656 22.366863905325445, 27.541175514118056 23.16568047337278, 28.417414694920097 23.964497041420117, 31.820215890038284 24.763313609467456, 33.191133500707245 25.562130177514792, 32.70276717630348 26.36094674556213, 31.300882225333037 27.159763313609467, 36.55480717774834 27.958579881656807, 36.707790514348545 28.757396449704142, 37.143552108498156 29.55621301775148, 32.83173731625899 30.355029585798817, 38.05234627855785 31.153846153846157, 41.13447541570279 31.95266272189349, 38.907148800767025 32.751479289940825, 35.024432855293895 33.55029585798817, 37.826832191820245 34.349112426035504, 39.35255223251077 35.14792899408284, 37.5151900189069 35.94674556213018, 38.169275538773064 36.74556213017752, 21.57833426264949 37.54437869822485, 11.639472859629857 38.34319526627219, 8.751355160105035 39.142011834319526, 14.011505014316263 39.94082840236687, 27.091618921891687 40.7396449704142, 22.253193155505578 41.53846153846154, 21.27060091964265 42.337278106508876, 21.597710904316067 43.13609467455622, 14.288169229895859 43.93491124260355, 8.64938902022148 44.73372781065089, 10.30854733667846 45.532544378698226, 10.464408196539015 46.33136094674556, 11.606948800830605 47.1301775147929, 15.773403185816415 47.928994082840234, 14.081881870638288 48.72781065088758, 14.80725353724168 49.52662721893491, 14.214429332068132 50.32544378698225, 3.7123294640013813 51.124260355029584, 0.0 51.92307692307693, 9.65589936435602 52.72189349112426, 6.3363942025792594 53.5207100591716, 6.335701226941361 54.319526627218934, 11.111964471587209 55.11834319526627, 7.092242118877444 55.91715976331361, 12.47491960507751 56.71597633136094, 12.7779510231951 57.514792899408285, 15.988566363341802 58.31360946745562, 14.675259258416503 59.11242603550296, 17.33800813105742 59.91124260355029, 18.211486107274467 60.710059171597635, 15.456160274122416 61.50887573964497, 15.19269839575037 62.307692307692314, 17.599561604147297 63.10650887573964, 19.05771768902418 63.90532544378698, 19.15179577027264 64.70414201183432, 21.45326840762895 65.50295857988165, 15.478957790244701 66.30177514792899, 12.477668068313628 67.10059171597634, 9.750471385280438 67.89940828402366, 11.213193614491473 68.69822485207101, 4.750996595095912 69.49704142011834, 2.234876807418228 70.29585798816568, 12.760526502613079 71.09467455621302, 20.516235084703798 71.89349112426036, 20.39242064418617 72.6923076923077, 22.028502723743763 73.49112426035504, 21.244219140850088 74.28994082840237, 22.524686886933264 75.0887573964497, 25.07915597287058 75.88757396449704, 26.60096196066042 76.68639053254438, 24.06327497979517 77.48520710059172, 26.404312640955425 78.28402366863905, 31.895981238850347 79.0828402366864, 31.548410256978805 79.88165680473374, 28.649294017971588 80.68047337278107, 29.441409230473624 81.4792899408284, 29.288479100505114 82.27810650887574, 31.259305090460483 83.07692307692308, 34.05599550785745 83.87573964497041, 37.35005609448873 84.67455621301775, 33.34149658662073 85.4733727810651, 32.07569941397502 86.27218934911244, 28.342575985739565 87.07100591715975, 25.27299537026527 87.8698224852071, 22.51670610717368 88.66863905325444, 19.678217994869993 89.46745562130178, 20.96033095816246 90.26627218934911, 22.916218881534416 91.06508875739645, 22.928059861764936 91.8639053254438, 23.341073308330763 92.66272189349112, 22.917842656741673 93.46153846153845, 21.196695079294585 94.2603550295858, 22.35318295240327 95.05917159763314, 23.931085660978322 95.85798816568047, 21.115738779833887 96.65680473372781, 18.608042577751263 97.45562130177515, 13.194745361993215 98.2544378698225, 14.659950674347566 99.05325443786982, 18.43360418465331 99.85207100591715, 14.51945731728631 100.6508875739645, 14.75514685015374 101.44970414201183, 14.070302837108736 102.24852071005917, 12.28680248664915 103.04733727810651, 18.32903972360669 103.84615384615385, 17.16326205988432 104.64497041420118, 14.152782278244757 105.44378698224853, 15.860909142266397 106.24260355029585, 14.94528994125652 107.0414201183432, 15.1765535976982 107.84023668639053, 15.842979211406213 108.63905325443787, 18.503233195948706 109.43786982248521, 16.109764376427425 110.23668639053254, 12.213096324593577 111.03550295857988, 12.616241319360963 111.83431952662723, 14.041785491135993 112.63313609467457, 15.480790228242045 113.43195266272188, 13.167802802066566 114.23076923076923, 16.109686099807607 115.02958579881657, 16.564671105531357 115.82840236686391, 14.399637297657975 116.62721893491124, 16.496009624740076 117.42603550295858, 15.583544730437529 118.22485207100593, 15.100238158149404 119.02366863905324, 16.325544112828904 119.82248520710058, 18.915529163816686 120.62130177514793, 16.565881073640956 121.42011834319527, 20.201379342338573 122.2189349112426, 20.328493495745626 123.01775147928994, 23.995542798537002 123.81656804733728, 22.49905605463033 124.61538461538463, 15.985196128015083 125.41420118343194, 19.047182376152723 126.21301775147928, 22.769576970455553 127.01183431952663, 18.86965815044467 127.81065088757396, 14.648160772881058 128.60946745562129, 14.92409043036671 129.40828402366864, 15.13905944893742 130.20710059171597, 10.224843604157698 131.0059171597633, 13.249800954954303 131.80473372781066, 14.002410093170658 132.60355029585799, 11.60925932099433 133.40236686390534, 13.69027165896958 134.20118343195267, 14.795896355315822" fill="none" stroke="#32ca5b" stroke-width="1.25"/>

</svg>