<?xml version="1.0" standalone="no"?>
<!DOCTYPE svg PUBLIC "-//W3C//DTD SVG 1.1//EN" "http://www.w3.org/Graphics/SVG/1.1/DTD/svg11.dtd">

<svg width="135" height="50" viewBox="0 0 135 50" preserveAspectRatio="none" 
  xmlns="http://www.w3.org/2000/svg"
  xmlns:xlink="http://www.w3.org/1999/xlink">


<polyline points="0.0, 2.10398331840929 0.7988165680473372, 5.663323488529244 1.5976331360946745, 5.148655825869779 2.396449704142012, 4.871865930094219 3.195266272189349, 5.042327432551507 3.994082840236686, 8.473993122696525 4.792899408284024, 4.596803140267036 5.591715976331361, 5.073125201757437 6.390532544378698, 4.479434473241875 7.189349112426036, 5.955211603726229 7.988165680473372, 2.926248722013317 8.78698224852071, 1.1443241827011512 9.585798816568047, 2.73462234707669 10.384615384615385, 0.5509927854595099 11.183431952662723, 7.646010458566967 11.982248520710058, 11.917218092469193 12.781065088757396, 11.393972768121586 13.579881656804734, 13.651403443193505 14.378698224852071, 9.94963998539605 15.177514792899409, 7.817737188081159 15.976331360946745, 5.954187930310163 16.775147928994084, 4.4885208948855775 17.57396449704142, 1.427521408469798 18.37278106508876, 0.0 19.171597633136095, 2.2809548895002876 19.970414201183434, 4.966930335822441 20.76923076923077, 4.749451066738266 21.56804733727811, 6.14477278158391 22.366863905325445, 6.95535414415178 23.16568047337278, 6.706981987188371 23.964497041420117, 3.8493838441059127 24.763313609467456, 7.601299049080758 25.562130177514792, 7.398528057288184 26.36094674556213, 16.889550470933358 27.159763313609467, 19.73771964645479 27.958579881656807, 19.646657195877225 28.757396449704142, 17.806832497435636 29.55621301775148, 19.43678179226495 30.355029585798817, 25.503390795122566 31.153846153846157, 22.128482284066198 31.95266272189349, 20.029455160310537 32.751479289940825, 17.990329001309753 33.55029585798817, 26.557083822249293 34.349112426035504, 26.72585479912636 35.14792899408284, 26.461832940539807 35.94674556213018, 19.475097843577664 36.74556213017752, 18.180475731451594 37.54437869822485, 16.288593038602976 38.34319526627219, 19.444379374367855 39.142011834319526, 24.054036782490922 39.94082840236687, 24.092215080135045 40.7396449704142, 28.605720730360833 41.53846153846154, 30.11183365026519 42.337278106508876, 27.917692351160937 43.13609467455622, 22.141252988815104 43.93491124260355, 20.991299692966244 44.73372781065089, 15.810841551976548 45.532544378698226, 12.186064084516781 46.33136094674556, 13.570201874544917 47.1301775147929, 10.809217764173123 47.928994082840234, 13.324293260645959 48.72781065088758, 14.267832979934328 49.52662721893491, 15.409351154419944 50.32544378698225, 13.868541256343045 51.124260355029584, 17.57128068410829 51.92307692307693, 14.969879523066762 52.72189349112426, 11.824293027526515 53.5207100591716, 14.135044966042557 54.319526627218934, 15.216316372594779 55.11834319526627, 20.299576245729938 55.91715976331361, 26.462806331575784 56.71597633136094, 29.139589688180216 57.514792899408285, 29.189857429034156 58.31360946745562, 30.475402910524835 59.11242603550296, 32.76278778889677 59.91124260355029, 32.914757680729764 60.710059171597635, 33.533605619023646 61.50887573964497, 33.2615221391021 62.307692307692314, 30.415296151592752 63.10650887573964, 33.56552563673983 63.90532544378698, 34.54890218324961 64.70414201183432, 35.05514089019985 65.50295857988165, 36.92242951220214 66.30177514792899, 37.42926963327361 67.10059171597634, 39.95990558806846 67.89940828402366, 47.62013405877498 68.69822485207101, 42.599242633313736 69.49704142011834, 50.0 70.29585798816568, 47.132550265947074 71.09467455621302, 41.985892115595696 71.89349112426036, 40.26403072924766 72.6923076923077, 39.646278809768084 73.49112426035504, 39.69351085433257 74.28994082840237, 41.22371922744589 75.0887573964497, 43.968432440762264 75.88757396449704, 45.95930427797695 76.68639053254438, 41.553905701667155 77.48520710059172, 45.225311341675706 78.28402366863905, 44.563115543242894 79.0828402366864, 40.59474038250884 79.88165680473374, 37.48817584476274 80.68047337278107, 35.08058766527568 81.4792899408284, 35.88597628164714 82.27810650887574, 34.670432616197765 83.07692307692308, 34.423317747163345 83.87573964497041, 33.20220274985837 84.67455621301775, 33.964689423967705 85.4733727810651, 33.56136141612787 86.27218934911244, 34.4044569788646 87.07100591715975, 34.54629319397577 87.8698224852071, 35.084052864664336 88.66863905325444, 31.80956009131517 89.46745562130178, 30.898285049143475 90.26627218934911, 20.216900615207653 91.06508875739645, 25.118622787778698 91.8639053254438, 21.078386628635485 92.66272189349112, 21.775068501413937 93.46153846153845, 22.92473954053531 94.2603550295858, 21.57431515216705 95.05917159763314, 23.054780130924176 95.85798816568047, 25.961380006024854 96.65680473372781, 25.72919765075702 97.45562130177515, 27.794600992027046 98.2544378698225, 29.2700938037784 99.05325443786982, 29.25916434212601 99.85207100591715, 30.297749532788416 100.6508875739645, 30.21156518073885 101.44970414201183, 30.811094529040872 102.24852071005917, 33.30682722448752 103.04733727810651, 33.260856503351086 103.84615384615385, 34.02641716098201 104.64497041420118, 32.590014262817625 105.44378698224853, 32.61714673443214 106.24260355029585, 35.211955216697056 107.0414201183432, 36.53671761449553 107.84023668639053, 38.0019173656608 108.63905325443787, 40.36278974771504 109.43786982248521, 39.129979491093145 110.23668639053254, 40.247267755682095 111.03550295857988, 38.80206031915262 111.83431952662723, 37.357652540645 112.63313609467457, 37.81794626249725 113.43195266272188, 39.18892360655326 114.23076923076923, 38.81587979140542 115.02958579881657, 39.48906182932096 115.82840236686391, 40.51984999938156 116.62721893491124, 44.13815498734397 117.42603550295858, 43.056472253804515 118.22485207100593, 43.01868544062009 119.02366863905324, 42.578936364926975 119.82248520710058, 36.844813455070934 120.62130177514793, 38.69979733436033 121.42011834319527, 37.93619014264904 122.2189349112426, 41.978626695275096 123.01775147928994, 41.00027370238968 123.81656804733728, 45.362234247258726 124.61538461538463, 41.808069194082606 125.41420118343194, 41.75626706082557 126.21301775147928, 36.13212300421202 127.01183431952663, 30.50015027158455 127.81065088757396, 24.012993298308594 128.60946745562129, 17.182301941048074 129.40828402366864, 15.997946441054879 130.20710059171597, 18.05125690697641 131.0059171597633, 17.752898685877604 131.80473372781066, 18.58060692390968 132.60355029585799, 16.04659038475314 133.40236686390534, 14.483509575026824 134.20118343195267, 13.507536997648298" fill="none" stroke="#ff3a33" stroke-width="1.25"/>

</svg>