<?xml version="1.0" standalone="no"?>
<!DOCTYPE svg PUBLIC "-//W3C//DTD SVG 1.1//EN" "http://www.w3.org/Graphics/SVG/1.1/DTD/svg11.dtd">

<svg width="135" height="50" viewBox="0 0 135 50" preserveAspectRatio="none" 
  xmlns="http://www.w3.org/2000/svg"
  xmlns:xlink="http://www.w3.org/1999/xlink">


<polyline points="0.0, 32.25947000314599 0.7988165680473372, 34.73847382595539 1.5976331360946745, 38.32120453042657 2.396449704142012, 32.357389994161295 3.195266272189349, 42.19292573320937 3.994082840236686, 36.16903259828448 4.792899408284024, 36.89914548874182 5.591715976331361, 33.02730141072005 6.390532544378698, 39.612612635202574 7.189349112426036, 39.545331887002746 7.988165680473372, 43.56261880874831 8.78698224852071, 30.17674674204367 9.585798816568047, 32.67688462179205 10.384615384615385, 38.14587848966976 11.183431952662723, 26.733289969937076 11.982248520710058, 43.210624150988345 12.781065088757396, 48.12871295119017 13.579881656804734, 48.40835241782812 14.378698224852071, 48.75995636459856 15.177514792899409, 45.19305367242105 15.976331360946745, 35.13812098742815 16.775147928994084, 28.18158783713458 17.57396449704142, 19.26967933300469 18.37278106508876, 16.186394993167315 19.171597633136095, 22.83192168098562 19.970414201183434, 29.6647270579457 20.76923076923077, 30.52014309415516 21.56804733727811, 32.60338159525902 22.366863905325445, 30.55937050425418 23.16568047337278, 29.792480037951684 23.964497041420117, 33.84260367033392 24.763313609467456, 39.033545225263055 25.562130177514792, 40.738561850609194 26.36094674556213, 41.2147209760936 27.159763313609467, 45.63931908303434 27.958579881656807, 48.722626930906166 28.757396449704142, 50.0 29.55621301775148, 42.301371323524876 30.355029585798817, 43.62085807758389 31.153846153846157, 48.158406799639636 31.95266272189349, 41.86953337320268 32.751479289940825, 37.031896693984066 33.55029585798817, 46.360626728274504 34.349112426035504, 44.59477340566285 35.14792899408284, 36.8962252824281 35.94674556213018, 40.447646900752204 36.74556213017752, 27.153345671397577 37.54437869822485, 20.682153214818204 38.34319526627219, 13.193863860611184 39.142011834319526, 23.346776450345583 39.94082840236687, 37.797293583148104 40.7396449704142, 31.96949492311516 41.53846153846154, 25.220233303458865 42.337278106508876, 28.538975862190664 43.13609467455622, 22.061124082407677 43.93491124260355, 15.729891284073332 44.73372781065089, 8.215322872826096 45.532544378698226, 4.531700195666328 46.33136094674556, 7.38169557437542 47.1301775147929, 17.064646052971945 47.928994082840234, 19.884731708890378 48.72781065088758, 28.679306853194657 49.52662721893491, 42.60556949302506 50.32544378698225, 28.294682016188222 51.124260355029584, 30.73806024126996 51.92307692307693, 40.530904359803955 52.72189349112426, 33.174742557134394 53.5207100591716, 30.49444159762555 54.319526627218934, 36.69041027212484 55.11834319526627, 27.338165203554205 55.91715976331361, 38.017173877711066 56.71597633136094, 39.2666248958785 57.514792899408285, 43.44843005601767 58.31360946745562, 36.134420892478744 59.11242603550296, 38.08255426966545 59.91124260355029, 45.72400471355953 60.710059171597635, 44.97238874735253 61.50887573964497, 41.189696009013694 62.307692307692314, 39.84675900972336 63.10650887573964, 34.39671750909775 63.90532544378698, 42.80333466307768 64.70414201183432, 44.74051785169972 65.50295857988165, 35.02442036046812 66.30177514792899, 26.709843843640513 67.10059171597634, 13.004033880216785 67.89940828402366, 14.230358128079112 68.69822485207101, 30.615684039627876 69.49704142011834, 25.45837711535234 70.29585798816568, 34.99729742903504 71.09467455621302, 26.181148957312082 71.89349112426036, 20.814972551689582 72.6923076923077, 22.248029943697688 73.49112426035504, 15.005824381346317 74.28994082840237, 13.827905813355908 75.0887573964497, 18.044770476157375 75.88757396449704, 35.42959586757421 76.68639053254438, 30.327892818876066 77.48520710059172, 22.180982221110156 78.28402366863905, 38.214494952789394 79.0828402366864, 30.106306093484704 79.88165680473374, 20.760223887535375 80.68047337278107, 14.375904134915924 81.4792899408284, 15.226379099030193 82.27810650887574, 19.021351154956044 83.07692307692308, 13.162750759346714 83.87573964497041, 14.699870411266561 84.67455621301775, 14.643773713348038 85.4733727810651, 16.481985243633837 86.27218934911244, 16.030176047303847 87.07100591715975, 23.085317595221817 87.8698224852071, 22.877833714607103 88.66863905325444, 27.772587336752856 89.46745562130178, 31.118018724145664 90.26627218934911, 29.369517542516522 91.06508875739645, 14.807593317486598 91.8639053254438, 21.565197527860068 92.66272189349112, 19.266780376243883 93.46153846153845, 20.043286004308797 94.2603550295858, 20.44208595191856 95.05917159763314, 20.551098303276344 95.85798816568047, 22.22600472559169 96.65680473372781, 21.870318934993634 97.45562130177515, 19.442483747257018 98.2544378698225, 19.178689522638503 99.05325443786982, 21.87931381524745 99.85207100591715, 21.60139519046108 100.6508875739645, 19.281151633379718 101.44970414201183, 17.71872174437557 102.24852071005917, 22.26157952267358 103.04733727810651, 28.838686315359556 103.84615384615385, 27.29146139964679 104.64497041420118, 23.462622798915465 105.44378698224853, 19.949946748474918 106.24260355029585, 11.180113868425263 107.0414201183432, 20.501121146737376 107.84023668639053, 16.929200866627053 108.63905325443787, 27.154931800114714 109.43786982248521, 28.928179353388927 110.23668639053254, 28.60303725208759 111.03550295857988, 21.96829669164391 111.83431952662723, 18.10100476827704 112.63313609467457, 17.52160715465177 113.43195266272188, 21.351757594439004 114.23076923076923, 22.99567321287734 115.02958579881657, 21.906076836159617 115.82840236686391, 17.797359866028753 116.62721893491124, 24.53230125309381 117.42603550295858, 28.58007250193032 118.22485207100593, 25.716841620318647 119.02366863905324, 26.343715961208385 119.82248520710058, 24.729374657731885 120.62130177514793, 20.786441078586417 121.42011834319527, 36.76039371811474 122.2189349112426, 36.34595380034167 123.01775147928994, 46.48566108278084 123.81656804733728, 46.75569954844271 124.61538461538463, 44.06347709628092 125.41420118343194, 39.521257583517986 126.21301775147928, 39.073915511428346 127.01183431952663, 20.432901229267316 127.81065088757396, 5.301670006484119 128.60946745562129, 6.613846864980838 129.40828402366864, 1.6153360881424064 130.20710059171597, 8.139012563931876 131.0059171597633, 0.0 131.80473372781066, 6.2722163868231355 132.60355029585799, 7.871478473309697 133.40236686390534, 6.971085333210721 134.20118343195267, 9.666096771098948" fill="none" stroke="#32ca5b" stroke-width="1.25"/>

</svg>