<?xml version="1.0" standalone="no"?>
<!DOCTYPE svg PUBLIC "-//W3C//DTD SVG 1.1//EN" "http://www.w3.org/Graphics/SVG/1.1/DTD/svg11.dtd">

<svg width="135" height="50" viewBox="0 0 135 50" preserveAspectRatio="none" 
  xmlns="http://www.w3.org/2000/svg"
  xmlns:xlink="http://www.w3.org/1999/xlink">


<polyline points="0.0, 28.24282497239151 0.7988165680473372, 29.35639773909265 1.5976331360946745, 32.966428088157734 2.396449704142012, 33.29428981513928 3.195266272189349, 35.4799255931085 3.994082840236686, 33.67453615709155 4.792899408284024, 32.592905453527784 5.591715976331361, 31.584522878666682 6.390532544378698, 32.853677775359195 7.189349112426036, 33.45975251345999 7.988165680473372, 35.217960453965425 8.78698224852071, 31.919170344466625 9.585798816568047, 32.04626452333989 10.384615384615385, 34.27207165969852 11.183431952662723, 30.899028173773935 11.982248520710058, 36.00430989215278 12.781065088757396, 39.698720986914225 13.579881656804734, 43.46949566608226 14.378698224852071, 41.37886043407891 15.177514792899409, 39.99164151272611 15.976331360946745, 37.03085906467873 16.775147928994084, 36.21401416382021 17.57396449704142, 35.234082251050694 18.37278106508876, 34.66712758336686 19.171597633136095, 35.61897036916004 19.970414201183434, 36.34520187862522 20.76923076923077, 37.66809151605634 21.56804733727811, 38.3416596003462 22.366863905325445, 37.81425533249813 23.16568047337278, 38.49878030710091 23.964497041420117, 39.53412077882854 24.763313609467456, 39.578268963532 25.562130177514792, 42.643620568254086 26.36094674556213, 41.684301836216676 27.159763313609467, 44.67470547919899 27.958579881656807, 45.740625011899404 28.757396449704142, 46.56375943805212 29.55621301775148, 45.519581168134586 30.355029585798817, 47.044148310984845 31.153846153846157, 49.306928929690244 31.95266272189349, 47.800742695851426 32.751479289940825, 47.010610949093376 33.55029585798817, 49.44774271324375 34.349112426035504, 50.0 35.14792899408284, 48.256327406998714 35.94674556213018, 48.3038345572503 36.74556213017752, 44.15700559447307 37.54437869822485, 44.202178776247095 38.34319526627219, 42.87643159955962 39.142011834319526, 43.96596714372563 39.94082840236687, 45.92151189707995 40.7396449704142, 46.24524718542492 41.53846153846154, 46.015214633058214 42.337278106508876, 46.34245884029916 43.13609467455622, 44.739723701204404 43.93491124260355, 42.95388208385829 44.73372781065089, 40.73568066402133 45.532544378698226, 38.403156327276314 46.33136094674556, 35.717634722455934 47.1301775147929, 37.76780187156541 47.928994082840234, 37.58765785403128 48.72781065088758, 37.87470617685818 49.52662721893491, 40.33854155000983 50.32544378698225, 38.56287656735084 51.124260355029584, 38.85201776185889 51.92307692307693, 40.66658084280899 52.72189349112426, 33.996743019512586 53.5207100591716, 33.252793273748345 54.319526627218934, 35.69080499819087 55.11834319526627, 33.35750130613526 55.91715976331361, 35.57464889115686 56.71597633136094, 34.058413566118375 57.514792899408285, 37.227074055449705 58.31360946745562, 38.47333559798614 59.11242603550296, 39.49074773242721 59.91124260355029, 41.33267637787151 60.710059171597635, 42.378987024746856 61.50887573964497, 42.20882619577828 62.307692307692314, 43.57817248429564 63.10650887573964, 41.91931870101064 63.90532544378698, 46.157905019361486 64.70414201183432, 47.25660924521233 65.50295857988165, 45.20264911847564 66.30177514792899, 40.5713300769683 67.10059171597634, 41.85105918070315 67.89940828402366, 42.8490231815517 68.69822485207101, 39.13592486621678 69.49704142011834, 39.211300083738244 70.29585798816568, 41.585670651667236 71.09467455621302, 44.84769256125886 71.89349112426036, 45.11732947393735 72.6923076923077, 44.91022212582443 73.49112426035504, 44.31407109405605 74.28994082840237, 43.014541746943394 75.0887573964497, 45.85186424266259 75.88757396449704, 48.10892531086517 76.68639053254438, 46.36857651631375 77.48520710059172, 44.44501431934941 78.28402366863905, 49.53179706348541 79.0828402366864, 48.76721270474675 79.88165680473374, 45.02617627791227 80.68047337278107, 44.667618340420404 81.4792899408284, 43.938071353819026 82.27810650887574, 42.73928860269314 83.07692307692308, 40.906142401408104 83.87573964497041, 41.128841225764695 84.67455621301775, 36.918786838084884 85.4733727810651, 37.66457104608027 86.27218934911244, 37.215130128009065 87.07100591715975, 38.59955984843601 87.8698224852071, 36.9869256169605 88.66863905325444, 37.62080434592478 89.46745562130178, 39.551668117223464 90.26627218934911, 38.291584755457166 91.06508875739645, 33.93911983148706 91.8639053254438, 35.127011409237205 92.66272189349112, 36.29760483557157 93.46153846153845, 37.599035640662066 94.2603550295858, 37.14638360559127 95.05917159763314, 37.02389397660045 95.85798816568047, 38.07603112111793 96.65680473372781, 39.16081512025702 97.45562130177515, 38.13326382883381 98.2544378698225, 37.846639907393815 99.05325443786982, 35.25654260234129 99.85207100591715, 34.091775355495336 100.6508875739645, 35.03340298090005 101.44970414201183, 31.798464004363435 102.24852071005917, 32.06858005621589 103.04733727810651, 31.59990367623723 103.84615384615385, 31.779583646642628 104.64497041420118, 31.693225621913086 105.44378698224853, 33.884928878012374 106.24260355029585, 32.9143991864004 107.0414201183432, 32.94030935083864 107.84023668639053, 31.04120222709107 108.63905325443787, 34.24938333953163 109.43786982248521, 30.270077605654677 110.23668639053254, 27.157942817411207 111.03550295857988, 24.152514323322244 111.83431952662723, 13.919670137340493 112.63313609467457, 11.10810604745865 113.43195266272188, 11.203709478183788 114.23076923076923, 9.487729039221158 115.02958579881657, 9.836256742368718 115.82840236686391, 13.307743707536188 116.62721893491124, 13.245170534327288 117.42603550295858, 13.452473373181546 118.22485207100593, 15.625821713207339 119.02366863905324, 18.40685094563478 119.82248520710058, 20.912091418560962 120.62130177514793, 18.97959909476238 121.42011834319527, 20.55166027067053 122.2189349112426, 15.887404200862784 123.01775147928994, 23.806372034979223 123.81656804733728, 18.587917010602702 124.61538461538463, 19.15737089484728 125.41420118343194, 15.921607789355113 126.21301775147928, 13.318905054497998 127.01183431952663, 5.8178158291966975 127.81065088757396, 3.0597367199737175 128.60946745562129, 6.273891608908016 129.40828402366864, 7.872564630437763 130.20710059171597, 5.567492967785663 131.0059171597633, 3.367991131647711 131.80473372781066, 5.285351039603971 132.60355029585799, 0.0 133.40236686390534, 2.459131581882502 134.20118343195267, 2.676082862700914" fill="none" stroke="#32ca5b" stroke-width="1.25"/>

</svg>