<?xml version="1.0" standalone="no"?>
<!DOCTYPE svg PUBLIC "-//W3C//DTD SVG 1.1//EN" "http://www.w3.org/Graphics/SVG/1.1/DTD/svg11.dtd">

<svg width="135" height="50" viewBox="0 0 135 50" preserveAspectRatio="none" 
  xmlns="http://www.w3.org/2000/svg"
  xmlns:xlink="http://www.w3.org/1999/xlink">


<polyline points="0.0, 37.841288841421395 0.7988165680473372, 43.4236366204497 1.5976331360946745, 43.65762851806439 2.396449704142012, 43.579255222533575 3.195266272189349, 44.14458046605562 3.994082840236686, 43.60298395784434 4.792899408284024, 42.048580326172804 5.591715976331361, 40.78246824843138 6.390532544378698, 39.37103125418445 7.189349112426036, 40.13652626362445 7.988165680473372, 41.17390370802323 8.78698224852071, 33.97229547700739 9.585798816568047, 31.66128948925055 10.384615384615385, 34.58411796443234 11.183431952662723, 37.30392019910344 11.982248520710058, 43.364800267496726 12.781065088757396, 47.968851263694454 13.579881656804734, 42.45908012467953 14.378698224852071, 36.241848810621406 15.177514792899409, 32.368325537561695 15.976331360946745, 33.618322739795055 16.775147928994084, 32.23211042393323 17.57396449704142, 28.026684503366457 18.37278106508876, 28.115929882179273 19.171597633136095, 29.33213103116315 19.970414201183434, 33.00204105464577 20.76923076923077, 29.685558956399937 21.56804733727811, 30.11076819088784 22.366863905325445, 29.41317527268432 23.16568047337278, 28.15001250152231 23.964497041420117, 28.917180325712287 24.763313609467456, 31.419816906138344 25.562130177514792, 31.5883310890473 26.36094674556213, 31.907605432871073 27.159763313609467, 38.35922427816085 27.958579881656807, 38.549071379491366 28.757396449704142, 43.000156335393775 29.55621301775148, 41.71211948953139 30.355029585798817, 43.47869363615703 31.153846153846157, 48.5524132524061 31.95266272189349, 44.43587495975207 32.751479289940825, 44.55999862799229 33.55029585798817, 48.344373833789405 34.349112426035504, 50.0 35.14792899408284, 48.738482445419066 35.94674556213018, 48.58314206063764 36.74556213017752, 45.865841089764594 37.54437869822485, 46.370147669237866 38.34319526627219, 41.96558341661826 39.142011834319526, 46.13336381748082 39.94082840236687, 48.692205324845894 40.7396449704142, 47.03023287731733 41.53846153846154, 44.90624678884299 42.337278106508876, 44.916427045738274 43.13609467455622, 38.3897717702112 43.93491124260355, 37.03830975945162 44.73372781065089, 36.81833805760223 45.532544378698226, 25.747285234057603 46.33136094674556, 15.377075704775226 47.1301775147929, 17.3705142602038 47.928994082840234, 17.070631038425056 48.72781065088758, 19.770578957340764 49.52662721893491, 22.498319793916316 50.32544378698225, 22.057457166086035 51.124260355029584, 22.11974400751865 51.92307692307693, 23.278754163647953 52.72189349112426, 18.404689339757983 53.5207100591716, 17.594210944441222 54.319526627218934, 20.030355433346077 55.11834319526627, 19.29974699395032 55.91715976331361, 21.8356401277459 56.71597633136094, 22.972310021487306 57.514792899408285, 24.846525813202955 58.31360946745562, 24.943783522592753 59.11242603550296, 22.551346464229034 59.91124260355029, 26.470723067435497 60.710059171597635, 26.40894153989832 61.50887573964497, 27.798110750516148 62.307692307692314, 28.49772975284931 63.10650887573964, 23.69712863411248 63.90532544378698, 26.32914275394925 64.70414201183432, 28.23772022964464 65.50295857988165, 24.172470090704625 66.30177514792899, 20.866088040621843 67.10059171597634, 18.46755401189758 67.89940828402366, 17.085893505798218 68.69822485207101, 16.942769450001812 69.49704142011834, 24.18859059256679 70.29585798816568, 31.482211394609035 71.09467455621302, 28.501012847322727 71.89349112426036, 28.02474062019215 72.6923076923077, 28.273929935559146 73.49112426035504, 28.35748955449331 74.28994082840237, 28.150584633201774 75.0887573964497, 29.48899163306639 75.88757396449704, 32.53446764199294 76.68639053254438, 32.804167463838105 77.48520710059172, 32.21162973665529 78.28402366863905, 35.73857456077055 79.0828402366864, 33.87695387867751 79.88165680473374, 30.337032176474573 80.68047337278107, 29.050634317776158 81.4792899408284, 30.00629297674851 82.27810650887574, 32.54104833917355 83.07692307692308, 31.126507724576463 83.87573964497041, 34.16170870735871 84.67455621301775, 33.086231060780435 85.4733727810651, 33.20957658517328 86.27218934911244, 31.200711797604995 87.07100591715975, 31.500693534394298 87.8698224852071, 28.979378667582118 88.66863905325444, 29.943671254864174 89.46745562130178, 27.517744348904227 90.26627218934911, 26.215059462654512 91.06508875739645, 25.24919250263703 91.8639053254438, 28.157425858739476 92.66272189349112, 27.72367478598116 93.46153846153845, 26.177947555810672 94.2603550295858, 25.50479861897222 95.05917159763314, 28.116242593340463 95.85798816568047, 27.972976647378793 96.65680473372781, 26.27691222069647 97.45562130177515, 21.725376280088028 98.2544378698225, 25.71333476329938 99.05325443786982, 26.7162433410294 99.85207100591715, 26.474759957910955 100.6508875739645, 22.36234669738452 101.44970414201183, 21.376555418555032 102.24852071005917, 22.79121188103623 103.04733727810651, 23.978064110457932 103.84615384615385, 23.72360785696836 104.64497041420118, 24.940446999351185 105.44378698224853, 24.790894198859252 106.24260355029585, 22.300842967386032 107.0414201183432, 24.41609724817537 107.84023668639053, 27.139270846190477 108.63905325443787, 28.652218453250555 109.43786982248521, 29.117619166232195 110.23668639053254, 27.770648744517818 111.03550295857988, 27.966895706722195 111.83431952662723, 26.894876941592972 112.63313609467457, 27.27128982250342 113.43195266272188, 26.670234337335952 114.23076923076923, 28.4133363604008 115.02958579881657, 27.93134624282138 115.82840236686391, 27.759574131185865 116.62721893491124, 29.290040206574197 117.42603550295858, 30.036179136647068 118.22485207100593, 28.550454878877364 119.02366863905324, 24.192253005713205 119.82248520710058, 21.823457982077045 120.62130177514793, 17.27237068195801 121.42011834319527, 22.54632337852121 122.2189349112426, 21.616117556833107 123.01775147928994, 18.895394424546623 123.81656804733728, 13.124932930871136 124.61538461538463, 14.347704314347512 125.41420118343194, 12.286529222222468 126.21301775147928, 10.1744468795652 127.01183431952663, 11.39664769621443 127.81065088757396, 11.684583435278427 128.60946745562129, 8.61804644449235 129.40828402366864, 4.216978243886571 130.20710059171597, 3.2308900255712256 131.0059171597633, 3.696143506037086 131.80473372781066, 5.322824852185174 132.60355029585799, 4.944822290107761 133.40236686390534, 2.8665528264398894 134.20118343195267, 0.0" fill="none" stroke="#32ca5b" stroke-width="1.25"/>

</svg>