<?xml version="1.0" standalone="no"?>
<!DOCTYPE svg PUBLIC "-//W3C//DTD SVG 1.1//EN" "http://www.w3.org/Graphics/SVG/1.1/DTD/svg11.dtd">

<svg width="135" height="50" viewBox="0 0 135 50" preserveAspectRatio="none" 
  xmlns="http://www.w3.org/2000/svg"
  xmlns:xlink="http://www.w3.org/1999/xlink">


<polyline points="0.0, 13.891335353239906 0.7988165680473372, 14.912607028184095 1.5976331360946745, 13.04465858034877 2.396449704142012, 17.458443358798526 3.195266272189349, 15.390561345955051 3.994082840236686, 14.314717549464604 4.792899408284024, 15.010675366377694 5.591715976331361, 17.789529618945927 6.390532544378698, 19.48997457681674 7.189349112426036, 22.902760692088773 7.988165680473372, 18.27306955597813 8.78698224852071, 15.884741423376697 9.585798816568047, 18.636141442272283 10.384615384615385, 8.679761193735262 11.183431952662723, 19.626919966747245 11.982248520710058, 26.403424921791824 12.781065088757396, 30.359823961523386 13.579881656804734, 30.48292331082739 14.378698224852071, 27.8182128059982 15.177514792899409, 20.403242394928725 15.976331360946745, 20.718725134957122 16.775147928994084, 19.25606653821116 17.57396449704142, 17.353075672729197 18.37278106508876, 16.47986165722405 19.171597633136095, 19.593655323483656 19.970414201183434, 20.439262159085665 20.76923076923077, 18.338759631374746 21.56804733727811, 16.98070283345984 22.366863905325445, 20.21647541512325 23.16568047337278, 22.20712724125805 23.964497041420117, 25.788372194565625 24.763313609467456, 27.92358200173754 25.562130177514792, 27.135324763622638 26.36094674556213, 37.826884578431475 27.159763313609467, 36.36709496697308 27.958579881656807, 38.5175207249338 28.757396449704142, 35.98487431713255 29.55621301775148, 37.2899771879593 30.355029585798817, 43.99535310626528 31.153846153846157, 40.59809639937939 31.95266272189349, 37.74959266819031 32.751479289940825, 42.939959327346735 33.55029585798817, 45.971054277162494 34.349112426035504, 43.265548620533735 35.14792899408284, 44.086616983030865 35.94674556213018, 37.33883629175018 36.74556213017752, 35.86781454067037 37.54437869822485, 32.77594611956979 38.34319526627219, 37.65927632192319 39.142011834319526, 43.01197612170737 39.94082840236687, 41.54267389756174 40.7396449704142, 38.24854681916958 41.53846153846154, 38.879549451704406 42.337278106508876, 38.279740714563076 43.13609467455622, 34.3919092703723 43.93491124260355, 32.39398026617808 44.73372781065089, 29.88308614298363 45.532544378698226, 28.303907122264594 46.33136094674556, 32.25184437302564 47.1301775147929, 33.63649440492566 47.928994082840234, 34.48512286106406 48.72781065088758, 39.622250911735264 49.52662721893491, 36.49154425809242 50.32544378698225, 36.097372574295896 51.124260355029584, 38.25411727324794 51.92307692307693, 36.1220374709582 52.72189349112426, 33.373656659182615 53.5207100591716, 35.250430124652326 54.319526627218934, 30.867426933881355 55.11834319526627, 35.27898209014382 55.91715976331361, 34.994317163775214 56.71597633136094, 37.617795079330286 57.514792899408285, 37.036165884029124 58.31360946745562, 39.08818286268796 59.11242603550296, 42.020951835154825 59.91124260355029, 41.55765826277544 60.710059171597635, 40.28082902687704 61.50887573964497, 41.24257681715817 62.307692307692314, 39.369209366608246 63.10650887573964, 43.23226567749667 63.90532544378698, 44.626206194244084 64.70414201183432, 42.463621881481004 65.50295857988165, 40.57214340380831 66.30177514792899, 40.480671324155765 67.10059171597634, 41.99977929356049 67.89940828402366, 41.47353428720464 68.69822485207101, 40.638975991777556 69.49704142011834, 45.1730954655156 70.29585798816568, 44.189522837368756 71.09467455621302, 41.127799111917945 71.89349112426036, 41.71025027003563 72.6923076923077, 41.716900388793135 73.49112426035504, 39.07710662395932 74.28994082840237, 40.63670805992303 75.0887573964497, 44.726465704232425 75.88757396449704, 44.19130237479302 76.68639053254438, 44.28009459094567 77.48520710059172, 50.0 78.28402366863905, 46.99721027669028 79.0828402366864, 44.57773852086439 79.88165680473374, 42.088930189829924 80.68047337278107, 41.81876953390757 81.4792899408284, 42.97024070267858 82.27810650887574, 39.16214597272712 83.07692307692308, 39.59907951171836 83.87573964497041, 38.16887210708689 84.67455621301775, 36.828176030781975 85.4733727810651, 36.51527484674606 86.27218934911244, 37.81577929799218 87.07100591715975, 36.98746907112015 87.8698224852071, 38.555537513685806 88.66863905325444, 38.0145643542226 89.46745562130178, 35.91099622925068 90.26627218934911, 31.77388167833196 91.06508875739645, 34.3079314872065 91.8639053254438, 32.83349961622095 92.66272189349112, 33.608455179967926 93.46153846153845, 32.87486427471631 94.2603550295858, 32.855453168988255 95.05917159763314, 33.11851727494105 95.85798816568047, 34.873857139941116 96.65680473372781, 32.293153267687785 97.45562130177515, 30.789079167819445 98.2544378698225, 30.431363245817632 99.05325443786982, 31.757835071376306 99.85207100591715, 30.013582891503454 100.6508875739645, 28.904879578281044 101.44970414201183, 30.184960036394365 102.24852071005917, 32.194313923105135 103.04733727810651, 31.720648565692766 103.84615384615385, 32.683700843566754 104.64497041420118, 30.47017231722161 105.44378698224853, 28.52954044672873 106.24260355029585, 28.00349481322116 107.0414201183432, 16.434192111504125 107.84023668639053, 16.91866360731971 108.63905325443787, 19.827215109173462 109.43786982248521, 19.419352791800026 110.23668639053254, 19.20043478362939 111.03550295857988, 17.799685741724847 111.83431952662723, 15.574653941396244 112.63313609467457, 15.49071109062866 113.43195266272188, 14.780356328768793 114.23076923076923, 13.992496623503392 115.02958579881657, 12.093467971510503 115.82840236686391, 15.504199075518388 116.62721893491124, 17.613600222174 117.42603550295858, 15.561408880261185 118.22485207100593, 17.353794141558517 119.02366863905324, 15.478481549340284 119.82248520710058, 8.027407316909182 120.62130177514793, 12.155208612216702 121.42011834319527, 12.777629162462325 122.2189349112426, 21.63641477168502 123.01775147928994, 21.171922585603124 123.81656804733728, 22.082625678011745 124.61538461538463, 21.18519650746 125.41420118343194, 20.460632005714572 126.21301775147928, 14.973855074013287 127.01183431952663, 5.762491230889704 127.81065088757396, 5.812463973498824 128.60946745562129, 5.175268668370949 129.40828402366864, 8.86512173676501 130.20710059171597, 4.06084386022219 131.0059171597633, 2.9962990858766725 131.80473372781066, 1.0547803628843566 132.60355029585799, 1.403205940932026 133.40236686390534, 3.6268776046541165 134.20118343195267, 0.0" fill="none" stroke="#32ca5b" stroke-width="1.25"/>

</svg>