<?xml version="1.0" standalone="no"?>
<!DOCTYPE svg PUBLIC "-//W3C//DTD SVG 1.1//EN" "http://www.w3.org/Graphics/SVG/1.1/DTD/svg11.dtd">

<svg width="135" height="50" viewBox="0 0 135 50" preserveAspectRatio="none" 
  xmlns="http://www.w3.org/2000/svg"
  xmlns:xlink="http://www.w3.org/1999/xlink">


<polyline points="0.0, 34.88322099737016 0.8083832335329342, 36.78171233558303 1.6167664670658684, 37.748452708338235 2.4251497005988023, 38.05565809024565 3.2335329341317367, 38.384606444099006 4.041916167664671, 40.789683728181856 4.850299401197605, 40.385481707312216 5.658682634730539, 40.34711929383042 6.467065868263473, 40.835029022909296 7.275449101796408, 44.47909228327483 8.083832335329342, 43.967737480483976 8.892215568862277, 42.69113465386898 9.70059880239521, 40.548341899109445 10.508982035928144, 37.917361630474296 11.317365269461078, 39.22129050332131 12.125748502994012, 41.683985494776564 12.934131736526947, 42.10278599165754 13.74251497005988, 42.216077356223195 14.550898203592816, 42.19642524308636 15.359281437125748, 40.45913864969712 16.167664670658684, 39.294111988091835 16.976047904191617, 44.50874776754989 17.784431137724553, 43.65428855364002 18.592814371257486, 42.7019993165263 19.40119760479042, 39.20303638535492 20.20958083832335, 39.36381033495624 21.017964071856287, 39.5409366215696 21.82634730538922, 37.974327011962394 22.634730538922156, 44.36450358308357 23.443113772455092, 44.354362325596966 24.251497005988025, 47.18520675960647 25.059880239520957, 47.86508103027047 25.868263473053894, 48.11491323057503 26.676646706586826, 49.609499352796846 27.48502994011976, 49.656862350903495 28.29341317365269, 47.0812695537585 29.10179640718563, 47.05102531479749 29.910179640718564, 44.42093987662274 30.718562874251496, 46.006317103402736 31.526946107784433, 45.97647806758657 32.33532934131737, 45.627921384092 33.1437125748503, 44.74835005967616 33.952095808383234, 44.647784312797796 34.76047904191616, 44.9289811154742 35.568862275449106, 44.50397966392482 36.377245508982035, 44.39915397108231 37.18562874251497, 44.3703378587864 37.9940119760479, 44.93700217878179 38.80239520958084, 44.302578007981054 39.61077844311377, 44.130390904678194 40.4191616766467, 47.21945858025096 41.227544910179645, 43.56821571563279 42.035928143712574, 39.38463770215447 42.84431137724551, 39.4631895052065 43.65269461077844, 38.67173396136908 44.461077844311376, 36.47673838151978 45.26946107784431, 31.563748182938156 46.07784431137725, 31.490691555798232 46.886227544910184, 33.87351348935162 47.69461077844311, 32.947860561878485 48.50299401197605, 43.83857766512575 49.31137724550898, 35.334603594844374 50.119760479041915, 35.112516814720756 50.928143712574844, 33.76050803378226 51.73652694610779, 33.60252532851944 52.54491017964072, 34.036427619556854 53.35329341317365, 34.122318896876436 54.16167664670659, 33.169650079099114 54.97005988023952, 31.610073018654823 55.778443113772454, 0.0 56.58682634730538, 44.48183703326821 57.395209580838326, 44.48183703326821 58.20359281437126, 44.435271113953355 59.01197604790419, 44.250811003841704 59.82035928143713, 44.22935090136216 60.62874251497006, 44.23573404134636 61.43712574850299, 44.43588664427472 62.24550898203593, 46.28633635828802 63.053892215568865, 45.96343906825852 63.862275449101794, 46.41827304017773 64.67065868263474, 49.9681122263855 65.47904191616766, 50.0 66.2874251497006, 49.99418974101803 67.09580838323353, 49.99418974101803 67.90419161676647, 47.409080194245995 68.7125748502994, 48.78999466928213 69.52095808383233, 48.02777422759415 70.32934131736526, 49.588408835748645 71.13772455089821, 48.94976289494222 71.94610778443113, 48.63477922828207 72.75449101796407, 48.489940749535506 73.562874251497, 47.99131048487475 74.37125748502994, 47.996736932893874 75.17964071856287, 48.434242339143594 75.9880239520958, 46.0796403109642 76.79640718562875, 47.430033021428386 77.60479041916167, 47.330010171576475 78.41317365269461, 48.02368481559215 79.22155688622755, 49.069718552223854 80.02994011976048, 48.78658612791132 80.8383233532934, 47.933764193094994 81.64670658682634, 47.51196677783228 82.45508982035929, 45.12160957890964 83.26347305389221, 45.11719900098611 84.07185628742515, 44.44847514359777 84.88023952095809, 43.53224244158504 85.68862275449102, 45.345933355810935 86.49700598802396, 44.85269460272388 87.30538922155688, 44.892442776486675 88.11377245508983, 44.00508253431382 88.92215568862275, 44.155159074053344 89.73053892215569, 45.242839547365534 90.53892215568862, 44.9790857130554 91.34730538922156, 43.62120782985485 92.1556886227545, 44.07394569091851 92.96407185628742, 45.63221729724685 93.77245508982037, 45.63079104956668 94.58083832335329, 45.912531913908225 95.38922155688623, 49.12810573770954 96.19760479041915, 49.12746912996565 97.0059880239521, 47.94258526624137 97.81437125748504, 46.847515884463675 98.62275449101796, 38.76602750183112 99.43113772455091, 36.89491566997158 100.23952095808383, 37.927174699355845 101.04790419161677, 37.61378392829556 101.85628742514969, 36.83625730806238 102.66467065868264, 37.43947178923547 103.47305389221557, 37.67996903969756 104.2814371257485, 37.72392311810337 105.08982035928145, 46.756470002929454 105.89820359281437, 46.21416368752615 106.7065868263473, 46.28114541876926 107.51497005988023, 45.043352584640544 108.32335329341318, 44.84732296351286 109.13173652694611, 45.778822956090174 109.94011976047904, 45.104780604756165 110.74850299401199, 45.15605160028125 111.55688622754491, 45.131461215746945 112.36526946107784, 41.933353641425505 113.17365269461077, 41.9286197967414 113.98203592814372, 42.083709822980914 114.79041916167665, 41.82141465760121 115.59880239520957, 41.54263856286186 116.40718562874252, 42.24800393507822 117.21556886227545, 42.16779079898723 118.02395209580838, 43.16560722139896 118.83233532934132, 43.16560722139896 119.64071856287426, 43.25581654167519 120.44910179640719, 43.036173932360114 121.25748502994011, 43.2781046080963 122.06586826347306, 43.059315840293486 122.87425149700599, 45.51624244832824 123.68263473053892, 45.50966607532415 124.49101796407186, 45.53574810889126 125.2994011976048, 45.7149695720933 126.10778443113773, 45.7723756500124 126.91616766467065, 44.337538821119 127.72455089820359, 42.49242554591245 128.5329341317365, 40.803739698018035 129.34131736526948, 40.8397271232979 130.1497005988024, 40.8397271232979 130.95808383233532, 39.941230065715025 131.76646706586826, 39.14487964284143 132.5748502994012, 38.40759057954816 133.38323353293413, 38.503513803809085 134.19161676646706, 39.9304576812154" fill="none" stroke="#ff3a33" stroke-width="1.25"/>

</svg>