<?xml version="1.0" standalone="no"?>
<!DOCTYPE svg PUBLIC "-//W3C//DTD SVG 1.1//EN" "http://www.w3.org/Graphics/SVG/1.1/DTD/svg11.dtd">

<svg width="135" height="50" viewBox="0 0 135 50" preserveAspectRatio="none" 
  xmlns="http://www.w3.org/2000/svg"
  xmlns:xlink="http://www.w3.org/1999/xlink">


<polyline points="0.0, 35.550004690168315 0.7988165680473372, 34.35694249265392 1.5976331360946745, 34.33115774995814 2.396449704142012, 37.88637869790759 3.195266272189349, 37.900513205806455 3.994082840236686, 37.42742404552661 4.792899408284024, 36.791598470945445 5.591715976331361, 37.78631482658829 6.390532544378698, 41.08961286282746 7.189349112426036, 41.65200814999296 7.988165680473372, 41.0771739955068 8.78698224852071, 41.33916585447424 9.585798816568047, 41.82999667893269 10.384615384615385, 39.91510445181068 11.183431952662723, 43.551770921236866 11.982248520710058, 47.467793436853704 12.781065088757396, 47.71912262709278 13.579881656804734, 47.89218162717875 14.378698224852071, 47.191343266985704 15.177514792899409, 44.66155245442939 15.976331360946745, 43.97520135095988 16.775147928994084, 41.638147743080694 17.57396449704142, 39.779156439844435 18.37278106508876, 39.21689782393983 19.171597633136095, 40.07453993800631 19.970414201183434, 40.813719218387554 20.76923076923077, 41.463564712796774 21.56804733727811, 41.519930938171946 22.366863905325445, 41.82908889274636 23.16568047337278, 41.926343852329 23.964497041420117, 42.78363281964609 24.763313609467456, 43.473188798411044 25.562130177514792, 45.52623159911975 26.36094674556213, 46.936184514019494 27.159763313609467, 47.86126178374569 27.958579881656807, 48.76492879260898 28.757396449704142, 49.599884422568344 29.55621301775148, 48.21981158083018 30.355029585798817, 49.26409843564412 31.153846153846157, 49.04983591052978 31.95266272189349, 48.36724434131325 32.751479289940825, 48.88660044271603 33.55029585798817, 49.457655780121904 34.349112426035504, 50.0 35.14792899408284, 49.81328029512307 35.94674556213018, 46.884711431689816 36.74556213017752, 46.13685597833092 37.54437869822485, 45.14286806574232 38.34319526627219, 44.41365993362748 39.142011834319526, 45.49792269399649 39.94082840236687, 46.31853908617515 40.7396449704142, 45.80720351399872 41.53846153846154, 43.60648922242042 42.337278106508876, 43.15079239697992 43.13609467455622, 41.08502957503008 43.93491124260355, 39.85884574759623 44.73372781065089, 39.35920503377157 45.532544378698226, 38.83641928122128 46.33136094674556, 39.251419289949354 47.1301775147929, 38.72597361771008 47.928994082840234, 38.781058197090054 48.72781065088758, 39.21389379164923 49.52662721893491, 38.8477990013925 50.32544378698225, 38.67684083118102 51.124260355029584, 38.87338875079508 51.92307692307693, 37.60301088977204 52.72189349112426, 36.110308461594315 53.5207100591716, 28.89578975697914 54.319526627218934, 23.076827293382646 55.11834319526627, 24.18525154098506 55.91715976331361, 19.879021521076123 56.71597633136094, 19.980511987596326 57.514792899408285, 21.766390973569084 58.31360946745562, 21.69780038182096 59.11242603550296, 23.86670474586026 59.91124260355029, 24.787187551163935 60.710059171597635, 27.42814218851708 61.50887573964497, 27.253242986745512 62.307692307692314, 24.181660159044746 63.10650887573964, 24.730033012444242 63.90532544378698, 24.44051405068622 64.70414201183432, 24.0131269346088 65.50295857988165, 23.684600067199426 66.30177514792899, 23.684122880021786 67.10059171597634, 26.347114765217118 67.89940828402366, 26.374834672530877 68.69822485207101, 18.701272611871214 69.49704142011834, 10.85050977395401 70.29585798816568, 8.740261190707871 71.09467455621302, 0.0 71.89349112426036, 11.494488851790038 72.6923076923077, 11.700173821564402 73.49112426035504, 8.841764648535502 74.28994082840237, 7.700851505934993 75.0887573964497, 9.468923595750653 75.88757396449704, 7.816164152946721 76.68639053254438, 5.830765269721072 77.48520710059172, 7.139134650457306 78.28402366863905, 13.664827629202406 79.0828402366864, 13.817852577649772 79.88165680473374, 13.533182913761852 80.68047337278107, 14.108489066003735 81.4792899408284, 14.604557865485004 82.27810650887574, 14.250548044515678 83.07692307692308, 14.018520279013522 83.87573964497041, 12.018569970939227 84.67455621301775, 11.345242833576737 85.4733727810651, 9.92217235597928 86.27218934911244, 16.218379634268967 87.07100591715975, 17.186238399842175 87.8698224852071, 15.636656736354453 88.66863905325444, 14.461599837045872 89.46745562130178, 13.437065502372919 90.26627218934911, 13.306995255780988 91.06508875739645, 13.510833518576678 91.8639053254438, 11.414407606524739 92.66272189349112, 10.278326033582399 93.46153846153845, 11.558777597193854 94.2603550295858, 12.382539810262527 95.05917159763314, 13.312774887477282 95.85798816568047, 13.65860043196726 96.65680473372781, 13.725613706605532 97.45562130177515, 12.899096779181072 98.2544378698225, 13.392732896743475 99.05325443786982, 10.808258422117014 99.85207100591715, 9.007288356019815 100.6508875739645, 7.931227450592575 101.44970414201183, 7.682402982311159 102.24852071005917, 7.815899328785355 103.04733727810651, 7.886174276433177 103.84615384615385, 7.452316697386238 104.64497041420118, 6.8138480925783815 105.44378698224853, 5.640669607314721 106.24260355029585, 5.613805222613422 107.0414201183432, 8.05865084755445 107.84023668639053, 9.206998115239106 108.63905325443787, 15.736852020503306 109.43786982248521, 16.76052168055637 110.23668639053254, 17.278576620710957 111.03550295857988, 15.48400587050637 111.83431952662723, 13.13262704744528 112.63313609467457, 13.320830359117409 113.43195266272188, 12.959473685532833 114.23076923076923, 13.004765317099555 115.02958579881657, 13.303413063742795 115.82840236686391, 13.602671609561206 116.62721893491124, 13.30157545733987 117.42603550295858, 13.329289552326525 118.22485207100593, 13.903899343951103 119.02366863905324, 12.806596267842343 119.82248520710058, 12.737444147087901 120.62130177514793, 12.043037182911178 121.42011834319527, 10.962039347165044 122.2189349112426, 10.335679827361346 123.01775147928994, 10.567533617291206 123.81656804733728, 10.374219969817355 124.61538461538463, 10.363309686473801 125.41420118343194, 10.122180956952594 126.21301775147928, 6.125220770839604 127.01183431952663, 11.926878423878296 127.81065088757396, 8.846944410810094 128.60946745562129, 8.040194940245142 129.40828402366864, 6.563042841097951 130.20710059171597, 5.532577266366388 131.0059171597633, 5.1094717810747525 131.80473372781066, 2.8278120645295015 132.60355029585799, 0.32457971088660154 133.40236686390534, 1.7577605015021167 134.20118343195267, 2.599345623384744" fill="none" stroke="#32ca5b" stroke-width="1.25"/>

</svg>