<?xml version="1.0" standalone="no"?>
<!DOCTYPE svg PUBLIC "-//W3C//DTD SVG 1.1//EN" "http://www.w3.org/Graphics/SVG/1.1/DTD/svg11.dtd">

<svg width="135" height="50" viewBox="0 0 135 50" preserveAspectRatio="none" 
  xmlns="http://www.w3.org/2000/svg"
  xmlns:xlink="http://www.w3.org/1999/xlink">


<polyline points="0.0, 10.885273381375939 0.7988165680473372, 8.987535208270646 1.5976331360946745, 16.24105938212128 2.396449704142012, 17.460086015843252 3.195266272189349, 22.9854239812422 3.994082840236686, 21.871514022809176 4.792899408284024, 21.506372863294505 5.591715976331361, 17.79642072299559 6.390532544378698, 21.83863434107387 7.189349112426036, 22.16043357103646 7.988165680473372, 17.76129804042938 8.78698224852071, 12.549525960443406 9.585798816568047, 11.94438861174161 10.384615384615385, 15.613341325072872 11.183431952662723, 18.67345431842876 11.982248520710058, 26.721154839593037 12.781065088757396, 31.574657860768458 13.579881656804734, 33.54510973211261 14.378698224852071, 25.375958531286297 15.177514792899409, 28.82455879984201 15.976331360946745, 28.303402466867844 16.775147928994084, 26.894219434405777 17.57396449704142, 27.231563608272936 18.37278106508876, 25.49607527157438 19.171597633136095, 22.839220477349052 19.970414201183434, 21.439412789084777 20.76923076923077, 27.040628123119625 21.56804733727811, 30.197939171592264 22.366863905325445, 30.241155457627407 23.16568047337278, 33.50745578435902 23.964497041420117, 41.901225117122095 24.763313609467456, 41.25521806254032 25.562130177514792, 41.767608636896355 26.36094674556213, 43.11744402447618 27.159763313609467, 49.62679958405223 27.958579881656807, 45.39376376997476 28.757396449704142, 48.64530187186968 29.55621301775148, 44.66010634909716 30.355029585798817, 44.53194412382991 31.153846153846157, 44.76551877952444 31.95266272189349, 43.84819512540694 32.751479289940825, 42.82207500759373 33.55029585798817, 48.33416972004451 34.349112426035504, 50.0 35.14792899408284, 46.88933920451006 35.94674556213018, 47.043942339190885 36.74556213017752, 42.371414552304024 37.54437869822485, 36.06660431961225 38.34319526627219, 37.0222052709876 39.142011834319526, 35.91909818890136 39.94082840236687, 41.37142636310182 40.7396449704142, 35.8328061418346 41.53846153846154, 34.572633794138916 42.337278106508876, 38.73705312851833 43.13609467455622, 25.68891912865746 43.93491124260355, 22.508056766056196 44.73372781065089, 27.458384962182592 45.532544378698226, 29.73671667123411 46.33136094674556, 26.72110506734569 47.1301775147929, 32.87471885824633 47.928994082840234, 27.61034889865609 48.72781065088758, 26.87531478272841 49.52662721893491, 28.910781646301015 50.32544378698225, 29.45910824788313 51.124260355029584, 30.738945680930364 51.92307692307693, 34.672060679683064 52.72189349112426, 29.782653483917628 53.5207100591716, 29.747174398332728 54.319526627218934, 30.857633800732504 55.11834319526627, 24.551917930418266 55.91715976331361, 26.763018529827715 56.71597633136094, 29.211101967971466 57.514792899408285, 33.75081442577518 58.31360946745562, 29.385632586863498 59.11242603550296, 32.32533702940682 59.91124260355029, 33.92022080763309 60.710059171597635, 35.334611763714975 61.50887573964497, 35.02524019953923 62.307692307692314, 36.92505754967535 63.10650887573964, 33.0911103562566 63.90532544378698, 37.283496313509914 64.70414201183432, 42.7162685884792 65.50295857988165, 40.900943507866515 66.30177514792899, 38.25037463976187 67.10059171597634, 36.78239191329746 67.89940828402366, 39.83986032668044 68.69822485207101, 36.18721753018493 69.49704142011834, 32.07592265818657 70.29585798816568, 39.90103467077683 71.09467455621302, 41.73366274394864 71.89349112426036, 37.69633107801859 72.6923076923077, 38.067899468208594 73.49112426035504, 38.477016348166785 74.28994082840237, 37.32200283220055 75.0887573964497, 40.114147301369655 75.88757396449704, 40.91095509216364 76.68639053254438, 39.516379049758584 77.48520710059172, 40.0847960024311 78.28402366863905, 49.249186144239815 79.0828402366864, 42.458619161494944 79.88165680473374, 43.4336404441977 80.68047337278107, 40.11883709068843 81.4792899408284, 37.54913740216344 82.27810650887574, 39.23215227240843 83.07692307692308, 36.66490133700062 83.87573964497041, 35.7266882656979 84.67455621301775, 29.557787377565102 85.4733727810651, 25.246873308668043 86.27218934911244, 19.48933106481526 87.07100591715975, 23.587358969651092 87.8698224852071, 23.037720369806607 88.66863905325444, 26.028375236374814 89.46745562130178, 24.194892091580215 90.26627218934911, 12.243567686869545 91.06508875739645, 15.862382973857441 91.8639053254438, 16.74236594856054 92.66272189349112, 18.52817858230561 93.46153846153845, 19.700928843107867 94.2603550295858, 18.004067951195573 95.05917159763314, 19.299361070532974 95.85798816568047, 20.563557515482213 96.65680473372781, 24.676468587818327 97.45562130177515, 25.105653684055135 98.2544378698225, 32.371914734998256 99.05325443786982, 33.58384937551103 99.85207100591715, 32.427486197866145 100.6508875739645, 27.309412452478526 101.44970414201183, 27.81269432570705 102.24852071005917, 30.95639457958093 103.04733727810651, 30.66975323640496 103.84615384615385, 27.39506236045389 104.64497041420118, 28.156443087095116 105.44378698224853, 23.284105673701166 106.24260355029585, 18.390426915261497 107.0414201183432, 21.979606417424474 107.84023668639053, 22.190087131287605 108.63905325443787, 26.178188828963904 109.43786982248521, 27.199257994976765 110.23668639053254, 25.494617787472183 111.03550295857988, 25.492769771902967 111.83431952662723, 23.107846112262024 112.63313609467457, 21.759096900018623 113.43195266272188, 21.761600067872177 114.23076923076923, 24.668503654340416 115.02958579881657, 24.32380027455254 115.82840236686391, 23.380896034709764 116.62721893491124, 25.7264828952332 117.42603550295858, 18.446424204060424 118.22485207100593, 8.403870135989793 119.02366863905324, 4.749309213870387 119.82248520710058, 0.0 120.62130177514793, 3.921685287065845 121.42011834319527, 16.03815568935248 122.2189349112426, 16.546289061842224 123.01775147928994, 21.235013686647594 123.81656804733728, 16.96701325216947 124.61538461538463, 18.780061351397922 125.41420118343194, 13.350271345883266 126.21301775147928, 15.308270916587974 127.01183431952663, 14.834480606848185 127.81065088757396, 15.123501552511243 128.60946745562129, 8.492725872727734 129.40828402366864, 3.191341592457006 130.20710059171597, 6.832867100334802 131.0059171597633, 7.310349491568795 131.80473372781066, 3.7877627050351768 132.60355029585799, 4.389525496530254 133.40236686390534, 5.120825308355814 134.20118343195267, 1.5607502709401186" fill="none" stroke="#32ca5b" stroke-width="1.25"/>

</svg>