<?xml version="1.0" standalone="no"?>
<!DOCTYPE svg PUBLIC "-//W3C//DTD SVG 1.1//EN" "http://www.w3.org/Graphics/SVG/1.1/DTD/svg11.dtd">

<svg width="135" height="50" viewBox="0 0 135 50" preserveAspectRatio="none" 
  xmlns="http://www.w3.org/2000/svg"
  xmlns:xlink="http://www.w3.org/1999/xlink">


<polyline points="0.0, 12.892263537611198 0.8035714285714285, 16.645303779150854 1.607142857142857, 14.868327445521427 2.4107142857142856, 17.68145821251805 3.214285714285714, 14.68676900031591 4.017857142857142, 15.339451339322194 4.821428571428571, 14.618068612027594 5.625, 16.52502939189158 6.428571428571428, 19.735401592739834 7.232142857142857, 24.38177327267819 8.035714285714285, 19.352992481844304 8.839285714285715, 17.34976465212608 9.642857142857142, 15.873961281294863 10.446428571428571, 8.130375402133902 11.25, 25.83821192422028 12.053571428571429, 36.801857177162326 12.857142857142856, 41.475718556454844 13.660714285714286, 41.69131528512161 14.464285714285714, 40.235310867779106 15.267857142857142, 30.300508706263646 16.07142857142857, 31.775905495135515 16.875, 31.520912934985596 17.67857142857143, 29.113460366856614 18.482142857142858, 27.528294554688905 19.285714285714285, 28.85968801203761 20.089285714285715, 29.92485034192939 20.892857142857142, 30.900096637184145 21.696428571428573, 32.56541379108292 22.5, 34.76818282658104 23.303571428571427, 35.02561571484608 24.107142857142858, 30.408450199926474 24.91071428571429, 32.63883090881502 25.71428571428571, 30.908019585855897 26.517857142857142, 46.47141455810912 27.321428571428573, 41.840151566470354 28.125, 43.035241615099736 28.928571428571427, 37.72215634148864 29.732142857142858, 41.53132439811094 30.535714285714285, 46.98195738624556 31.339285714285715, 42.399308014251694 32.14285714285714, 39.46765204856612 32.94642857142857, 46.04332006531729 33.75, 50.0 34.55357142857142, 45.776776872400774 35.35714285714286, 45.682526738947736 36.160714285714285, 38.86651230510128 36.964285714285715, 36.70319948098702 37.767857142857146, 32.824302388025934 38.57142857142857, 36.00948725589405 39.375, 41.03821482432502 40.17857142857143, 38.324999917164995 40.982142857142854, 36.046266825901945 41.785714285714285, 38.515535836320005 42.589285714285715, 37.01277334399855 43.392857142857146, 32.37187179699215 44.19642857142857, 31.68961069400691 45.0, 27.665184656174212 45.80357142857143, 27.682564133176108 46.607142857142854, 31.337705748349453 47.410714285714285, 32.745488772853534 48.214285714285715, 34.598771975518375 49.01785714285714, 41.403451724684594 49.82142857142858, 37.35168496350344 50.625, 36.222061341613774 51.42857142857142, 38.961505430014995 52.23214285714286, 35.38014968693196 53.035714285714285, 33.38618104672109 53.839285714285715, 34.49112075431011 54.642857142857146, 29.53127997654285 55.44642857142857, 36.0535210603996 56.25, 37.37469968386461 57.05357142857143, 40.81598937698497 57.857142857142854, 35.624892801111145 58.660714285714285, 38.01133667467507 59.464285714285715, 40.15877239511539 60.267857142857146, 39.67770522434447 61.07142857142857, 38.039733045629944 61.875, 38.37874993445682 62.67857142857143, 35.6194297286908 63.482142857142854, 38.25446850566361 64.28571428571428, 40.02158790418678 65.08928571428572, 37.59486430814722 65.89285714285714, 33.353838542841615 66.69642857142857, 32.00295921972077 67.5, 33.002406733977594 68.30357142857143, 31.11097981137787 69.10714285714285, 30.14657837650957 69.91071428571429, 31.134240334712835 70.71428571428572, 32.52368121878259 71.51785714285714, 28.229654204844312 72.32142857142857, 27.74377448371857 73.125, 27.837944445555575 73.92857142857143, 25.922670218567895 74.73214285714286, 25.801390124666295 75.53571428571429, 30.238800213111112 76.33928571428571, 30.75704552604958 77.14285714285714, 24.981435091949777 77.94642857142857, 32.63472284668919 78.75, 27.51949183618883 79.55357142857143, 27.156486351783332 80.35714285714286, 24.440344698272636 81.16071428571428, 24.835173577320866 81.96428571428571, 26.05922442709494 82.76785714285715, 25.2758574834628 83.57142857142857, 26.679223989069722 84.375, 17.613759449377696 85.17857142857143, 16.269690692532958 85.98214285714285, 17.98676870176545 86.78571428571429, 22.026667602077357 87.58928571428572, 22.195214958037017 88.39285714285714, 24.36607721382351 89.19642857142857, 25.53618235998955 90.0, 24.538273818416386 90.80357142857143, 19.810910744544746 91.60714285714286, 22.55452351237294 92.41071428571429, 22.606549817355173 93.21428571428571, 22.90997981410419 94.01785714285714, 23.003399103027977 94.82142857142857, 22.953114772214384 95.625, 22.687864156789765 96.42857142857143, 21.896389611575238 97.23214285714286, 19.282144499546252 98.03571428571428, 20.366997226627152 98.83928571428571, 20.871959232791298 99.64285714285715, 22.02531982772402 100.44642857142857, 18.79888911890577 101.25, 18.692857944175643 102.05357142857143, 19.681307275158996 102.85714285714285, 24.337845782134927 103.66071428571429, 23.016076413449415 104.46428571428572, 23.308453120378825 105.26785714285714, 23.03169325312696 106.07142857142857, 23.06137514799096 106.875, 24.508268681636466 107.67857142857143, 19.716798689797812 108.48214285714286, 21.4446073748351 109.28571428571429, 24.326341042424296 110.08928571428571, 20.274736988637862 110.89285714285714, 21.2884263499431 111.69642857142857, 19.2557839155655 112.5, 19.30197689617553 113.30357142857143, 19.40616638777891 114.10714285714286, 21.311327834646526 114.91071428571428, 21.850364758940806 115.71428571428571, 22.494776902798094 116.51785714285715, 26.258777859998446 117.32142857142857, 27.46822467673706 118.125, 25.214502437823334 118.92857142857143, 24.798379918935968 119.73214285714285, 24.175868694283654 120.53571428571429, 22.27135070226846 121.33928571428572, 28.395684637034478 122.14285714285714, 27.464179577638763 122.94642857142857, 34.55137543547123 123.75, 32.240834889576554 124.55357142857143, 33.87917788690166 125.35714285714286, 31.366078205475706 126.16071428571429, 31.50216794444511 126.96428571428571, 26.65965747451782 127.76785714285714, 17.143458569599254 128.57142857142856, 12.433662937044886 129.375, 12.540242297897786 130.17857142857144, 15.1097043506074 130.98214285714286, 8.001592543368199 131.78571428571428, 5.86081654003047 132.5892857142857, 1.8005675745286518 133.39285714285714, 0.0 134.19642857142858, 2.4227086445810455" fill="none" stroke="#32ca5b" stroke-width="1.25"/>

</svg>