<?xml version="1.0" standalone="no"?>
<!DOCTYPE svg PUBLIC "-//W3C//DTD SVG 1.1//EN" "http://www.w3.org/Graphics/SVG/1.1/DTD/svg11.dtd">

<svg width="135" height="50" viewBox="0 0 135 50" preserveAspectRatio="none" 
  xmlns="http://www.w3.org/2000/svg"
  xmlns:xlink="http://www.w3.org/1999/xlink">


<polyline points="0.0, 34.05857839580877 0.7988165680473372, 27.89010975846999 1.5976331360946745, 33.50450508309718 2.396449704142012, 29.287985435561936 3.195266272189349, 39.591929636551804 3.994082840236686, 37.50323119534802 4.792899408284024, 34.186329331867036 5.591715976331361, 31.31006232218138 6.390532544378698, 28.3246627559928 7.189349112426036, 26.26870969814924 7.988165680473372, 32.29259278591565 8.78698224852071, 26.331413977414076 9.585798816568047, 20.848637502253318 10.384615384615385, 21.259929320136724 11.183431952662723, 26.5928224419884 11.982248520710058, 27.514795705838342 12.781065088757396, 35.62100536537135 13.579881656804734, 30.843093600380616 14.378698224852071, 37.64425563609814 15.177514792899409, 37.07698681147264 15.976331360946745, 31.77208869635525 16.775147928994084, 29.474360234830094 17.57396449704142, 30.198161255519818 18.37278106508876, 25.937074116083153 19.171597633136095, 25.08363669295625 19.970414201183434, 30.544604746648822 20.76923076923077, 32.67860538853821 21.56804733727811, 35.29980567778551 22.366863905325445, 32.34824484444071 23.16568047337278, 35.92140542699394 23.964497041420117, 36.564104238394336 24.763313609467456, 40.13221598369194 25.562130177514792, 42.90972531479301 26.36094674556213, 35.65570866063289 27.159763313609467, 42.24013970145087 27.958579881656807, 39.42869670694854 28.757396449704142, 37.438173364472455 29.55621301775148, 33.577540506993955 30.355029585798817, 42.17748435495457 31.153846153846157, 50.0 31.95266272189349, 48.093027046237644 32.751479289940825, 47.48870552585498 33.55029585798817, 49.656835964948634 34.349112426035504, 48.50292934831807 35.14792899408284, 44.5629969539271 35.94674556213018, 46.58602542740614 36.74556213017752, 42.30883141339443 37.54437869822485, 41.1350015052748 38.34319526627219, 40.132393750148985 39.142011834319526, 39.73938285444606 39.94082840236687, 43.63499336099515 40.7396449704142, 40.40807327126112 41.53846153846154, 36.01225504349151 42.337278106508876, 35.004910816223344 43.13609467455622, 36.262680433458 43.93491124260355, 33.54563584819787 44.73372781065089, 31.39003263409593 45.532544378698226, 31.564173844707216 46.33136094674556, 29.599192564159672 47.1301775147929, 32.67952562017887 47.928994082840234, 31.21505493900523 48.72781065088758, 32.471014072537066 49.52662721893491, 35.30148883253466 50.32544378698225, 25.654985722830997 51.124260355029584, 24.885541751328894 51.92307692307693, 12.372373692024025 52.72189349112426, 9.788069307413746 53.5207100591716, 5.183486392131317 54.319526627218934, 6.338421280871251 55.11834319526627, 3.6835976440843883 55.91715976331361, 8.789697664822729 56.71597633136094, 10.574424456292505 57.514792899408285, 14.088049431887798 58.31360946745562, 9.849932540861941 59.11242603550296, 11.54825381997507 59.91124260355029, 15.218628412367558 60.710059171597635, 9.28290113859273 61.50887573964497, 5.003051200199495 62.307692307692314, 5.997536352052695 63.10650887573964, 4.453956463430692 63.90532544378698, 11.51593097194419 64.70414201183432, 13.723225083429218 65.50295857988165, 10.614837258802208 66.30177514792899, 11.24815479904204 67.10059171597634, 12.54726415857271 67.89940828402366, 16.20868173532728 68.69822485207101, 6.723053136857844 69.49704142011834, 8.406832729622437 70.29585798816568, 18.206150672871605 71.09467455621302, 14.575623262869952 71.89349112426036, 12.630594026359812 72.6923076923077, 11.559047813593358 73.49112426035504, 11.86405907488464 74.28994082840237, 10.9504146331224 75.0887573964497, 12.027317470324027 75.88757396449704, 16.550739801320187 76.68639053254438, 16.312868967323674 77.48520710059172, 18.31723652534925 78.28402366863905, 25.223839256769203 79.0828402366864, 22.23055365270347 79.88165680473374, 19.71711779794737 80.68047337278107, 12.501513421624171 81.4792899408284, 11.771699903069104 82.27810650887574, 13.51998163954678 83.07692307692308, 13.489017927198779 83.87573964497041, 16.918836726560375 84.67455621301775, 16.678696008856676 85.4733727810651, 19.18465509244082 86.27218934911244, 18.09932888219854 87.07100591715975, 21.10989516503763 87.8698224852071, 19.709004695540976 88.66863905325444, 22.003603381485984 89.46745562130178, 23.474510331738195 90.26627218934911, 22.799140625113566 91.06508875739645, 21.385895441099574 91.8639053254438, 21.449115260318443 92.66272189349112, 20.291299591748402 93.46153846153845, 21.637616293411416 94.2603550295858, 20.212643251219507 95.05917159763314, 17.997044671792857 95.85798816568047, 14.460392178113466 96.65680473372781, 16.948390234212287 97.45562130177515, 7.574711467870822 98.2544378698225, 7.392240480891328 99.05325443786982, 10.674588651475077 99.85207100591715, 9.778270113714543 100.6508875739645, 9.940684648293585 101.44970414201183, 10.106729669512722 102.24852071005917, 7.952445835587284 103.04733727810651, 10.731353154888506 103.84615384615385, 7.779895253009742 104.64497041420118, 2.4982855663512753 105.44378698224853, 3.393045582648399 106.24260355029585, 7.079526750976939 107.0414201183432, 4.589231722248206 107.84023668639053, 0.0 108.63905325443787, 6.202039223016829 109.43786982248521, 11.779441760026826 110.23668639053254, 9.372858960291477 111.03550295857988, 10.678091261080764 111.83431952662723, 10.170818603844433 112.63313609467457, 11.208454230823484 113.43195266272188, 13.043164809075153 114.23076923076923, 12.530092870921768 115.02958579881657, 13.206478475892371 115.82840236686391, 8.526628852917105 116.62721893491124, 12.367166844670791 117.42603550295858, 14.090401299597694 118.22485207100593, 12.225547086676386 119.02366863905324, 13.835404133996903 119.82248520710058, 14.508339312421217 120.62130177514793, 13.186684694736012 121.42011834319527, 17.146317349350834 122.2189349112426, 18.035298226352626 123.01775147928994, 21.80539032918678 123.81656804733728, 20.429819457714203 124.61538461538463, 20.90768687526034 125.41420118343194, 20.82848721134977 126.21301775147928, 21.826767115272393 127.01183431952663, 18.625287534125864 127.81065088757396, 14.546315973406543 128.60946745562129, 15.289510396423452 129.40828402366864, 12.117894850468558 130.20710059171597, 17.904366530911282 131.0059171597633, 15.71315046821424 131.80473372781066, 16.813842528508037 132.60355029585799, 15.487803849727797 133.40236686390534, 15.65569545566391 134.20118343195267, 12.189889396287336" fill="none" stroke="#32ca5b" stroke-width="1.25"/>

</svg>