<?xml version="1.0" standalone="no"?>
<!DOCTYPE svg PUBLIC "-//W3C//DTD SVG 1.1//EN" "http://www.w3.org/Graphics/SVG/1.1/DTD/svg11.dtd">

<svg width="135" height="50" viewBox="0 0 135 50" preserveAspectRatio="none" 
  xmlns="http://www.w3.org/2000/svg"
  xmlns:xlink="http://www.w3.org/1999/xlink">


<polyline points="0.0, 43.23774409870661 0.7988165680473372, 41.89111566772861 1.5976331360946745, 36.997034252569705 2.396449704142012, 37.284814961600375 3.195266272189349, 37.438230778789354 3.994082840236686, 37.74559761819916 4.792899408284024, 37.516528243104 5.591715976331361, 36.32484285981427 6.390532544378698, 36.818577788344534 7.189349112426036, 36.22681812491539 7.988165680473372, 30.141960255360146 8.78698224852071, 25.427756428408287 9.585798816568047, 30.603957632815987 10.384615384615385, 23.582332786366237 11.183431952662723, 25.257758934932163 11.982248520710058, 26.236668607394805 12.781065088757396, 25.39391347458708 13.579881656804734, 25.335841562951273 14.378698224852071, 28.36788391906492 15.177514792899409, 29.707540860271386 15.976331360946745, 27.998209317340073 16.775147928994084, 35.781975373083874 17.57396449704142, 36.585759652044366 18.37278106508876, 37.20165031788758 19.171597633136095, 37.31328901208833 19.970414201183434, 37.28201727230598 20.76923076923077, 34.134245081843915 21.56804733727811, 32.918832951360955 22.366863905325445, 35.279427257279075 23.16568047337278, 29.068505920157666 23.964497041420117, 27.51286864535536 24.763313609467456, 28.47347847915152 25.562130177514792, 32.84745320452524 26.36094674556213, 39.88995063375944 27.159763313609467, 35.01555489907223 27.958579881656807, 36.68615296593981 28.757396449704142, 32.34376054394988 29.55621301775148, 32.91824219390964 30.355029585798817, 27.232862432111236 31.153846153846157, 26.720322859470215 31.95266272189349, 26.09823000610368 32.751479289940825, 26.678450786545426 33.55029585798817, 24.016466631159464 34.349112426035504, 23.247498771323308 35.14792899408284, 24.39973865626738 35.94674556213018, 21.82417107785691 36.74556213017752, 22.17660256545546 37.54437869822485, 23.034937858353484 38.34319526627219, 25.01169057877974 39.142011834319526, 23.31902632391671 39.94082840236687, 23.06334771303749 40.7396449704142, 23.07859296865394 41.53846153846154, 22.558148084361665 42.337278106508876, 37.329575579346105 43.13609467455622, 28.93002181653706 43.93491124260355, 21.796199947107304 44.73372781065089, 23.737795877283965 45.532544378698226, 26.15465505078515 46.33136094674556, 27.706375901383534 47.1301775147929, 25.665690567306466 47.928994082840234, 24.73251183653478 48.72781065088758, 25.797738709055697 49.52662721893491, 24.933279515459077 50.32544378698225, 25.500496193092886 51.124260355029584, 26.519985340656998 51.92307692307693, 38.33379630289745 52.72189349112426, 37.88083322018161 53.5207100591716, 37.277248254912664 54.319526627218934, 33.49319928429246 55.11834319526627, 33.91221163664379 55.91715976331361, 34.228441216583846 56.71597633136094, 35.64464509143504 57.514792899408285, 35.47518199245938 58.31360946745562, 37.82964886950495 59.11242603550296, 39.10866724050619 59.91124260355029, 37.86472973510685 60.710059171597635, 37.82010724250874 61.50887573964497, 40.56801304814091 62.307692307692314, 42.262862130766706 63.10650887573964, 50.0 63.90532544378698, 44.893376176333746 64.70414201183432, 35.05898090003761 65.50295857988165, 29.539814247112485 66.30177514792899, 29.15655111199915 67.10059171597634, 38.24375097133994 67.89940828402366, 43.67347528978022 68.69822485207101, 37.513271299446885 69.49704142011834, 33.40499327976196 70.29585798816568, 33.736563565349506 71.09467455621302, 35.75208639363328 71.89349112426036, 35.9976038639368 72.6923076923077, 37.064856961308365 73.49112426035504, 36.55475767118798 74.28994082840237, 36.9864789722764 75.0887573964497, 39.937344542137865 75.88757396449704, 40.10258909598744 76.68639053254438, 38.721303589245295 77.48520710059172, 41.95936586340418 78.28402366863905, 41.19227097471979 79.0828402366864, 43.18742333154593 79.88165680473374, 35.58307010627157 80.68047337278107, 32.81276180602716 81.4792899408284, 37.94398343730803 82.27810650887574, 31.66379200408856 83.07692307692308, 31.029433172477557 83.87573964497041, 29.50469008714859 84.67455621301775, 31.972851466376984 85.4733727810651, 34.45077649152774 86.27218934911244, 30.714205469155154 87.07100591715975, 27.17211350954505 87.8698224852071, 27.466905514225115 88.66863905325444, 27.126999744717594 89.46745562130178, 24.416099657169053 90.26627218934911, 21.685952340891745 91.06508875739645, 21.581993231668235 91.8639053254438, 21.05149575411766 92.66272189349112, 21.70018256180138 93.46153846153845, 21.222793783363418 94.2603550295858, 21.553240758508753 95.05917159763314, 22.39984279252161 95.85798816568047, 22.57197474600363 96.65680473372781, 20.877687244122868 97.45562130177515, 22.364496142241325 98.2544378698225, 31.373589006571407 99.05325443786982, 32.44183819590936 99.85207100591715, 33.876594797483335 100.6508875739645, 34.5873518912121 101.44970414201183, 31.88531111246781 102.24852071005917, 33.0313630538473 103.04733727810651, 31.036217431644136 103.84615384615385, 28.944142051307786 104.64497041420118, 24.813584814526514 105.44378698224853, 28.415364167995932 106.24260355029585, 22.753532487633827 107.0414201183432, 24.134436183199746 107.84023668639053, 26.926718966790226 108.63905325443787, 24.900272772663044 109.43786982248521, 26.575453913781068 110.23668639053254, 25.13237789791415 111.03550295857988, 20.164649783906118 111.83431952662723, 16.194475455486735 112.63313609467457, 17.72793521355144 113.43195266272188, 19.39939810366736 114.23076923076923, 21.33104816245575 115.02958579881657, 24.02226429155404 115.82840236686391, 22.376378743262308 116.62721893491124, 22.344623209001337 117.42603550295858, 22.850035370220166 118.22485207100593, 23.43648094966431 119.02366863905324, 21.87747932988792 119.82248520710058, 22.365417461867413 120.62130177514793, 21.834133284302553 121.42011834319527, 18.781195640697817 122.2189349112426, 20.079057774946257 123.01775147928994, 20.36494287194329 123.81656804733728, 24.716860941378492 124.61538461538463, 20.70515261963445 125.41420118343194, 17.23333011865609 126.21301775147928, 17.73512240609942 127.01183431952663, 19.32315774818202 127.81065088757396, 1.2207836727647126 128.60946745562129, 0.0 129.40828402366864, 0.3269941012190843 130.20710059171597, 8.454450549526133 131.0059171597633, 15.24075302764166 131.80473372781066, 16.57521688217387 132.60355029585799, 16.83312212777587 133.40236686390534, 13.42432045935936 134.20118343195267, 12.681976208532356" fill="none" stroke="#32ca5b" stroke-width="1.25"/>

</svg>