<?xml version="1.0" standalone="no"?>
<!DOCTYPE svg PUBLIC "-//W3C//DTD SVG 1.1//EN" "http://www.w3.org/Graphics/SVG/1.1/DTD/svg11.dtd">

<svg width="135" height="50" viewBox="0 0 135 50" preserveAspectRatio="none" 
  xmlns="http://www.w3.org/2000/svg"
  xmlns:xlink="http://www.w3.org/1999/xlink">


<polyline points="0.0, 25.10349606025825 0.7988165680473372, 30.56223590248243 1.5976331360946745, 34.19231022515818 2.396449704142012, 30.960909258095132 3.195266272189349, 32.508351555048634 3.994082840236686, 31.345329164623458 4.792899408284024, 31.25052543193548 5.591715976331361, 31.075425395913076 6.390532544378698, 30.230397771757815 7.189349112426036, 26.126700042451308 7.988165680473372, 30.797369648569138 8.78698224852071, 31.87831840892293 9.585798816568047, 30.001946308759344 10.384615384615385, 28.601687926663207 11.183431952662723, 26.60277844216114 11.982248520710058, 28.632862262429466 12.781065088757396, 35.10240855892406 13.579881656804734, 37.199837881929376 14.378698224852071, 36.56792118179757 15.177514792899409, 34.57943855556842 15.976331360946745, 33.882026130062656 16.775147928994084, 31.014075777046568 17.57396449704142, 32.0376097013428 18.37278106508876, 32.66092594688633 19.171597633136095, 32.60311555306698 19.970414201183434, 32.39244945610295 20.76923076923077, 32.404707630182365 21.56804733727811, 33.32149416942262 22.366863905325445, 30.694299480998843 23.16568047337278, 31.61785218277077 23.964497041420117, 34.655361909322664 24.763313609467456, 38.53983882534154 25.562130177514792, 38.06066471279559 26.36094674556213, 37.55241659580805 27.159763313609467, 43.94534227119251 27.958579881656807, 43.59350966188568 28.757396449704142, 45.623278652777806 29.55621301775148, 44.37846227959189 30.355029585798817, 44.319190529432134 31.153846153846157, 46.424907008625155 31.95266272189349, 45.333921658753624 32.751479289940825, 44.69442456507795 33.55029585798817, 49.06760357944917 34.349112426035504, 50.0 35.14792899408284, 48.67663799669883 35.94674556213018, 48.61244842819893 36.74556213017752, 45.60203363627212 37.54437869822485, 43.676394188836944 38.34319526627219, 41.69790644958064 39.142011834319526, 41.875998922321514 39.94082840236687, 44.78211711681034 40.7396449704142, 45.21940308008448 41.53846153846154, 42.63978006793908 42.337278106508876, 40.571325169296266 43.13609467455622, 38.88267504600812 43.93491124260355, 35.81450450584637 44.73372781065089, 35.387589345392236 45.532544378698226, 30.925617240688997 46.33136094674556, 27.517782559532865 47.1301775147929, 30.304199751859933 47.928994082840234, 29.800601088297686 48.72781065088758, 31.848193150854243 49.52662721893491, 33.258225579261456 50.32544378698225, 31.818258660297666 51.124260355029584, 29.090001233341194 51.92307692307693, 28.220020442085737 52.72189349112426, 27.00649590403267 53.5207100591716, 27.606093605686578 54.319526627218934, 29.14439613150213 55.11834319526627, 23.864300522942937 55.91715976331361, 21.837392840808125 56.71597633136094, 22.806255437621843 57.514792899408285, 22.945430104300833 58.31360946745562, 20.91972933701644 59.11242603550296, 20.933780513469156 59.91124260355029, 21.64744143690553 60.710059171597635, 27.010881469715127 61.50887573964497, 25.706908169161874 62.307692307692314, 26.673746030691902 63.10650887573964, 29.075627977170132 63.90532544378698, 31.562045142053485 64.70414201183432, 33.56048994028444 65.50295857988165, 30.560929822665955 66.30177514792899, 30.65116707390637 67.10059171597634, 29.18170140650298 67.89940828402366, 29.892642767164933 68.69822485207101, 28.2765897370909 69.49704142011834, 22.646621895307756 70.29585798816568, 23.77620159540381 71.09467455621302, 26.384711394402938 71.89349112426036, 20.911051967027124 72.6923076923077, 20.262979782323658 73.49112426035504, 18.951819390510025 74.28994082840237, 18.818720380807665 75.0887573964497, 22.415418191595382 75.88757396449704, 24.937616210435007 76.68639053254438, 26.689007439314604 77.48520710059172, 28.714409939079903 78.28402366863905, 32.964401547857165 79.0828402366864, 31.121466977684015 79.88165680473374, 27.010588322491262 80.68047337278107, 26.785397907139025 81.4792899408284, 27.21235071858019 82.27810650887574, 26.14524031409032 83.07692307692308, 26.332015305212963 83.87573964497041, 26.923782819889862 84.67455621301775, 27.188297683478922 85.4733727810651, 27.31929767452997 86.27218934911244, 25.593854796311817 87.07100591715975, 22.488229535218224 87.8698224852071, 23.13561823950136 88.66863905325444, 21.266294628422354 89.46745562130178, 19.32502938911721 90.26627218934911, 19.381438938701272 91.06508875739645, 20.44247205422241 91.8639053254438, 24.723799151904938 92.66272189349112, 26.101986681900165 93.46153846153845, 27.37213304302254 94.2603550295858, 28.164577932346685 95.05917159763314, 27.1955725205347 95.85798816568047, 27.92489215542159 96.65680473372781, 27.892263176683485 97.45562130177515, 23.778290133012543 98.2544378698225, 24.02490534171637 99.05325443786982, 26.735124641141972 99.85207100591715, 24.498168943920387 100.6508875739645, 22.879131044963984 101.44970414201183, 22.148841047481742 102.24852071005917, 22.09308916124901 103.04733727810651, 21.777962042396855 103.84615384615385, 22.27486130639182 104.64497041420118, 23.25647706106458 105.44378698224853, 23.205842512831214 106.24260355029585, 23.385894405371044 107.0414201183432, 25.569299445973254 107.84023668639053, 26.015398667407517 108.63905325443787, 25.698070457837673 109.43786982248521, 19.074719335798896 110.23668639053254, 16.879661460122044 111.03550295857988, 17.78181104068779 111.83431952662723, 15.670664097501582 112.63313609467457, 11.09582994232621 113.43195266272188, 12.133779481667778 114.23076923076923, 8.026328828164585 115.02958579881657, 6.752649271176181 115.82840236686391, 6.440305229886597 116.62721893491124, 1.8604708608332032 117.42603550295858, 3.5083171667033652 118.22485207100593, 0.0 119.02366863905324, 4.636498988855672 119.82248520710058, 6.980264286939146 120.62130177514793, 5.165458496639436 121.42011834319527, 11.68672803367084 122.2189349112426, 12.12880480995219 123.01775147928994, 14.776743920859104 123.81656804733728, 12.728072510472522 124.61538461538463, 13.192009397810711 125.41420118343194, 10.6475719237878 126.21301775147928, 9.91811835466501 127.01183431952663, 3.6025795024007476 127.81065088757396, 2.047302822742015 128.60946745562129, 3.461477307406197 129.40828402366864, 3.6740188372496982 130.20710059171597, 0.9376741911039691 131.0059171597633, 0.13046130733401798 131.80473372781066, 2.00678150746428 132.60355029585799, 1.5559324247757238 133.40236686390534, 0.6414360709242758 134.20118343195267, 0.014510503871708517" fill="none" stroke="#32ca5b" stroke-width="1.25"/>

</svg>