<?xml version="1.0" standalone="no"?>
<!DOCTYPE svg PUBLIC "-//W3C//DTD SVG 1.1//EN" "http://www.w3.org/Graphics/SVG/1.1/DTD/svg11.dtd">

<svg width="135" height="50" viewBox="0 0 135 50" preserveAspectRatio="none" 
  xmlns="http://www.w3.org/2000/svg"
  xmlns:xlink="http://www.w3.org/1999/xlink">


<polyline points="0.0, 37.201704168617376 0.7988165680473372, 37.31217433808769 1.5976331360946745, 38.48084646294299 2.396449704142012, 38.499826313798856 3.195266272189349, 39.902238037607496 3.994082840236686, 39.76357507123048 4.792899408284024, 38.94630363368017 5.591715976331361, 38.62582605912953 6.390532544378698, 39.26432260797786 7.189349112426036, 38.78951707340348 7.988165680473372, 39.113044775202965 8.78698224852071, 37.28636669854032 9.585798816568047, 36.050281894501275 10.384615384615385, 35.63372745619592 11.183431952662723, 34.16052127831746 11.982248520710058, 35.32255239706802 12.781065088757396, 35.42377817874874 13.579881656804734, 36.64717981600079 14.378698224852071, 37.750264677025505 15.177514792899409, 36.593776406565134 15.976331360946745, 35.212036941429176 16.775147928994084, 41.713055765826425 17.57396449704142, 41.90803542780991 18.37278106508876, 41.43806483798075 19.171597633136095, 41.152762388820804 19.970414201183434, 27.62538933361488 20.76923076923077, 34.95058837021611 21.56804733727811, 35.37907636678395 22.366863905325445, 36.871599961372056 23.16568047337278, 38.036152258340216 23.964497041420117, 38.419132285905114 24.763313609467456, 38.551975501218415 25.562130177514792, 38.72538644610002 26.36094674556213, 39.25767957352006 27.159763313609467, 39.61020796340505 27.958579881656807, 39.825130189920436 28.757396449704142, 40.01408413713709 29.55621301775148, 40.26288530675037 30.355029585798817, 40.035803842422915 31.153846153846157, 41.03457445444058 31.95266272189349, 41.09770630881703 32.751479289940825, 40.902372476932776 33.55029585798817, 39.87775049881444 34.349112426035504, 40.26354349471406 35.14792899408284, 40.372666214958485 35.94674556213018, 39.630825110081744 36.74556213017752, 39.91548375339485 37.54437869822485, 39.585663177681695 38.34319526627219, 39.049596033193964 39.142011834319526, 38.62625021642106 39.94082840236687, 38.875606485845225 40.7396449704142, 39.228184455605906 41.53846153846154, 39.005274747418405 42.337278106508876, 41.23790749094512 43.13609467455622, 40.36390943228035 43.93491124260355, 39.82460165744656 44.73372781065089, 41.09372758626445 45.532544378698226, 43.15994826742873 46.33136094674556, 42.97935707474384 47.1301775147929, 38.09405622046096 47.928994082840234, 35.83814171365067 48.72781065088758, 37.06544526713579 49.52662721893491, 37.055753696584325 50.32544378698225, 37.38882768684323 51.124260355029584, 38.25719714181844 51.92307692307693, 36.50407145979182 52.72189349112426, 36.360848857010666 53.5207100591716, 36.49995399403366 54.319526627218934, 39.340352317613956 55.11834319526627, 38.91784618762604 55.91715976331361, 34.78065883489883 56.71597633136094, 34.58630164221137 57.514792899408285, 0.06774545493642369 58.31360946745562, 0.0 59.11242603550296, 0.6027406108894134 59.91124260355029, 0.9921455463121863 60.710059171597635, 0.2820611565293357 61.50887573964497, 35.76485596594638 62.307692307692314, 37.003434218742214 63.10650887573964, 35.53552475213312 63.90532544378698, 36.27752425711089 64.70414201183432, 36.55126814445356 65.50295857988165, 36.31012083462357 66.30177514792899, 36.406119762295475 67.10059171597634, 37.642388030332604 67.89940828402366, 36.37643870098613 68.69822485207101, 34.75387890478397 69.49704142011834, 33.282710545232455 70.29585798816568, 35.93316640517091 71.09467455621302, 42.26391091719586 71.89349112426036, 42.009283731414094 72.6923076923077, 41.80987611692588 73.49112426035504, 42.79104846324969 74.28994082840237, 41.627880743057666 75.0887573964497, 43.23531699836733 75.88757396449704, 41.33889699032955 76.68639053254438, 39.419169433488705 77.48520710059172, 40.375454814569416 78.28402366863905, 40.7592967775516 79.0828402366864, 38.8654222645598 79.88165680473374, 40.8354806994833 80.68047337278107, 40.68973485950715 81.4792899408284, 39.86180188058325 82.27810650887574, 40.723634376891944 83.07692307692308, 40.69982767573489 83.87573964497041, 40.355098103480024 84.67455621301775, 40.42489512498088 85.4733727810651, 46.38681799368682 86.27218934911244, 44.18744755166311 87.07100591715975, 41.103316446192814 87.8698224852071, 41.15755690280887 88.66863905325444, 40.95945768186609 89.46745562130178, 40.936229420499245 90.26627218934911, 41.41195241140519 91.06508875739645, 40.31880553706597 91.8639053254438, 37.2866105320954 92.66272189349112, 37.605016962741644 93.46153846153845, 37.59011755444252 94.2603550295858, 38.37928738696009 95.05917159763314, 36.24836279258076 95.85798816568047, 36.13949575149221 96.65680473372781, 36.598883703032556 97.45562130177515, 37.30374288932709 98.2544378698225, 37.03050491256513 99.05325443786982, 36.29284267303022 99.85207100591715, 36.12116825803701 100.6508875739645, 36.82204773093603 101.44970414201183, 35.236981298878774 102.24852071005917, 35.75161844912313 103.04733727810651, 36.93149632037196 103.84615384615385, 36.785234045857365 104.64497041420118, 36.03162695685301 105.44378698224853, 35.88300852933983 106.24260355029585, 38.52284756533974 107.0414201183432, 37.74377387158784 107.84023668639053, 39.17700800921351 108.63905325443787, 39.13988875759482 109.43786982248521, 39.48812182396657 110.23668639053254, 39.185028536565305 111.03550295857988, 36.76306722424428 111.83431952662723, 36.34488082229705 112.63313609467457, 38.76440617282521 113.43195266272188, 50.0 114.23076923076923, 49.03615160580654 115.02958579881657, 46.1378248910113 115.82840236686391, 42.82833287215455 116.62721893491124, 45.997857733362544 117.42603550295858, 39.770610050028196 118.22485207100593, 40.30661768876634 119.02366863905324, 40.37174014711554 119.82248520710058, 39.89740417190824 120.62130177514793, 39.581282628187346 121.42011834319527, 40.32516194297516 122.2189349112426, 40.66925245563033 123.01775147928994, 45.678896014566625 123.81656804733728, 39.94456606853633 124.61538461538463, 45.63926743433446 125.41420118343194, 46.414324537543074 126.21301775147928, 46.14671048781598 127.01183431952663, 46.113381675322366 127.81065088757396, 39.95858002258933 128.60946745562129, 39.628772426032484 129.40828402366864, 39.400938016717966 130.20710059171597, 39.41625014777445 131.0059171597633, 38.540892612335966 131.80473372781066, 38.711010563593824 132.60355029585799, 37.99500195508501 133.40236686390534, 37.90129112189512 134.20118343195267, 42.720362007869845" fill="none" stroke="#ff3a33" stroke-width="1.25"/>

</svg>