<?xml version="1.0" standalone="no"?>
<!DOCTYPE svg PUBLIC "-//W3C//DTD SVG 1.1//EN" "http://www.w3.org/Graphics/SVG/1.1/DTD/svg11.dtd">

<svg width="135" height="50" viewBox="0 0 135 50" preserveAspectRatio="none" 
  xmlns="http://www.w3.org/2000/svg"
  xmlns:xlink="http://www.w3.org/1999/xlink">


<polyline points="0.0, 28.050720213084347 0.7988165680473372, 22.26182545057752 1.5976331360946745, 33.96559291854823 2.396449704142012, 13.884683724138625 3.195266272189349, 23.985994735009083 3.994082840236686, 19.777402708297444 4.792899408284024, 22.5772893354139 5.591715976331361, 22.70312841960457 6.390532544378698, 15.96493409757294 7.189349112426036, 33.85339445421927 7.988165680473372, 19.985273414218934 8.78698224852071, 27.529818675283785 9.585798816568047, 20.455566231554144 10.384615384615385, 26.44341579478613 11.183431952662723, 16.118088384280494 11.982248520710058, 3.9942921280858896 12.781065088757396, 19.85068509569575 13.579881656804734, 11.197317265856006 14.378698224852071, 12.83863191811537 15.177514792899409, 12.55204234468749 15.976331360946745, 14.774374736047136 16.775147928994084, 15.216865731703699 17.57396449704142, 36.77753067589914 18.37278106508876, 10.87930498559326 19.171597633136095, 19.596560167298186 19.970414201183434, 6.4602244577350625 20.76923076923077, 22.974637001101826 21.56804733727811, 13.907170781609574 22.366863905325445, 11.23354601350132 23.16568047337278, 15.345490115339238 23.964497041420117, 14.717590819451825 24.763313609467456, 13.022200524207209 25.562130177514792, 27.189236276271277 26.36094674556213, 25.94139373333505 27.159763313609467, 16.616600847500212 27.958579881656807, 26.14943245259278 28.757396449704142, 18.442432649171433 29.55621301775148, 21.130730306478306 30.355029585798817, 23.59479412831917 31.153846153846157, 50.0 31.95266272189349, 12.567735415147773 32.751479289940825, 19.73832646634435 33.55029585798817, 24.13473772287997 34.349112426035504, 30.418778684868858 35.14792899408284, 30.855049351343215 35.94674556213018, 31.990417410222307 36.74556213017752, 1.0043468911847917 37.54437869822485, 31.913289110376354 38.34319526627219, 21.795009613456717 39.142011834319526, 19.383684568580094 39.94082840236687, 35.11640025948867 40.7396449704142, 12.055892219331334 41.53846153846154, 8.148776126997506 42.337278106508876, 13.260896880811101 43.13609467455622, 20.19967678065942 43.93491124260355, 16.28554205019757 44.73372781065089, 22.42182431591747 45.532544378698226, 15.06286582980405 46.33136094674556, 19.24000029803213 47.1301775147929, 47.23837488904204 47.928994082840234, 16.9357272590842 48.72781065088758, 23.998934115285575 49.52662721893491, 14.873640272619596 50.32544378698225, 17.549190432381362 51.124260355029584, 28.085026509514595 51.92307692307693, 13.282739356367292 52.72189349112426, 14.444797664457953 53.5207100591716, 13.877680776477474 54.319526627218934, 25.095003277725713 55.11834319526627, 25.34591783650552 55.91715976331361, 19.763782562380243 56.71597633136094, 14.907125094738765 57.514792899408285, 9.189650508729352 58.31360946745562, 20.484450797706 59.11242603550296, 6.279943410765104 59.91124260355029, 19.61870956412377 60.710059171597635, 7.894349357625925 61.50887573964497, 21.48704701087884 62.307692307692314, 8.382342853271211 63.10650887573964, 28.44773775453879 63.90532544378698, 45.06963531371389 64.70414201183432, 20.679366201071876 65.50295857988165, 22.63577122970987 66.30177514792899, 20.098232199883 67.10059171597634, 13.226757482576005 67.89940828402366, 29.250449812231714 68.69822485207101, 24.675829564682136 69.49704142011834, 23.335689381333953 70.29585798816568, 19.762784823120192 71.09467455621302, 21.162937696815035 71.89349112426036, 21.663719316165018 72.6923076923077, 13.318841325914216 73.49112426035504, 16.811014257751605 74.28994082840237, 18.09383253702585 75.0887573964497, 9.4854397553519 75.88757396449704, 19.41063526468792 76.68639053254438, 16.69196597299429 77.48520710059172, 20.25317590357648 78.28402366863905, 17.513037438334344 79.0828402366864, 26.5892787292437 79.88165680473374, 26.858996707949736 80.68047337278107, 23.61473230838632 81.4792899408284, 20.03983072209965 82.27810650887574, 35.30457846402129 83.07692307692308, 23.84128297596339 83.87573964497041, 20.681613946197295 84.67455621301775, 22.603616759990366 85.4733727810651, 21.52392191696607 86.27218934911244, 25.222145783093875 87.07100591715975, 23.82617987508909 87.8698224852071, 32.43293815157304 88.66863905325444, 29.091728338380374 89.46745562130178, 31.22169922383085 90.26627218934911, 29.581073087923826 91.06508875739645, 31.757954821788886 91.8639053254438, 32.61599737768932 92.66272189349112, 36.90632961384743 93.46153846153845, 32.21170811486509 94.2603550295858, 20.103283089049125 95.05917159763314, 29.512947888811077 95.85798816568047, 38.00931363516764 96.65680473372781, 25.03260065444414 97.45562130177515, 26.314029309467614 98.2544378698225, 23.31504195292379 99.05325443786982, 27.88581661860281 99.85207100591715, 26.31626901051626 100.6508875739645, 32.244783657731006 101.44970414201183, 22.171630306671663 102.24852071005917, 34.439220701277065 103.04733727810651, 23.78515331575464 103.84615384615385, 26.78546688943196 104.64497041420118, 12.534655127436412 105.44378698224853, 31.104855958372234 106.24260355029585, 30.975043468447826 107.0414201183432, 30.486145898668422 107.84023668639053, 21.46716014802338 108.63905325443787, 23.391228433847502 109.43786982248521, 21.51176795212801 110.23668639053254, 24.071736789499717 111.03550295857988, 23.761743120922457 111.83431952662723, 25.603054590258733 112.63313609467457, 28.986288825561786 113.43195266272188, 19.886053509759375 114.23076923076923, 21.667893084352006 115.02958579881657, 18.42722838363994 115.82840236686391, 19.280640188311633 116.62721893491124, 17.485282865495645 117.42603550295858, 3.743202021309508 118.22485207100593, 31.416703958988418 119.02366863905324, 10.608250482112219 119.82248520710058, 21.986575687988726 120.62130177514793, 22.786573907565398 121.42011834319527, 19.779504547139346 122.2189349112426, 14.277291112847667 123.01775147928994, 13.892044896992678 123.81656804733728, 17.704244472932 124.61538461538463, 12.527736028762588 125.41420118343194, 18.104788072369555 126.21301775147928, 18.85968117696409 127.01183431952663, 27.714447170849095 127.81065088757396, 23.67354588327278 128.60946745562129, 29.47499234846447 129.40828402366864, 25.148191897238764 130.20710059171597, 49.52959178903501 131.0059171597633, 22.04970216938128 131.80473372781066, 0.0 132.60355029585799, 23.714465045714775 133.40236686390534, 12.264813812632152 134.20118343195267, 22.151540007221517" fill="none" stroke="#32ca5b" stroke-width="1.25"/>

</svg>