<?xml version="1.0" standalone="no"?>
<!DOCTYPE svg PUBLIC "-//W3C//DTD SVG 1.1//EN" "http://www.w3.org/Graphics/SVG/1.1/DTD/svg11.dtd">

<svg width="135" height="50" viewBox="0 0 135 50" preserveAspectRatio="none" 
  xmlns="http://www.w3.org/2000/svg"
  xmlns:xlink="http://www.w3.org/1999/xlink">


<polyline points="0.0, 41.26169768400203 0.7988165680473372, 42.429320338214595 1.5976331360946745, 44.59032200610086 2.396449704142012, 43.719498363130505 3.195266272189349, 46.95291398479783 3.994082840236686, 44.40077893927569 4.792899408284024, 44.46896198308593 5.591715976331361, 43.444689873561565 6.390532544378698, 45.119373316556235 7.189349112426036, 45.79039779866251 7.988165680473372, 48.32465646817238 8.78698224852071, 45.57185707040568 9.585798816568047, 42.514686886799865 10.384615384615385, 42.92769882530643 11.183431952662723, 32.76477992105817 11.982248520710058, 41.69465909082345 12.781065088757396, 44.7238336061966 13.579881656804734, 48.0523590195549 14.378698224852071, 45.8275693980047 15.177514792899409, 43.83001314295251 15.976331360946745, 34.84154964482487 16.775147928994084, 36.111352428795065 17.57396449704142, 33.550062958257975 18.37278106508876, 32.075042642311566 19.171597633136095, 29.5366864553927 19.970414201183434, 31.38605972309851 20.76923076923077, 32.51027075858429 21.56804733727811, 30.778524507070493 22.366863905325445, 30.943635648877184 23.16568047337278, 32.48825539581354 23.964497041420117, 35.22436825982362 24.763313609467456, 40.06133842403856 25.562130177514792, 42.53827452776616 26.36094674556213, 41.06397716201799 27.159763313609467, 49.38591317629962 27.958579881656807, 45.72591389788301 28.757396449704142, 48.84473767548104 29.55621301775148, 45.17995185881903 30.355029585798817, 47.318216993880135 31.153846153846157, 50.0 31.95266272189349, 46.943492961443944 32.751479289940825, 43.554212918714924 33.55029585798817, 47.64197689435702 34.349112426035504, 48.75398435703466 35.14792899408284, 46.50990243216944 35.94674556213018, 48.205875155969444 36.74556213017752, 44.167681956884906 37.54437869822485, 42.643834166533715 38.34319526627219, 35.75866493639472 39.142011834319526, 41.60607796320212 39.94082840236687, 46.40968620174894 40.7396449704142, 45.13466114789579 41.53846153846154, 42.70960569107511 42.337278106508876, 44.413925020452396 43.13609467455622, 43.210489589429095 43.93491124260355, 38.69319667807283 44.73372781065089, 34.17077445359651 45.532544378698226, 28.837674559881453 46.33136094674556, 27.873527323143282 47.1301775147929, 32.63287220926252 47.928994082840234, 33.584982061113585 48.72781065088758, 35.26117420276777 49.52662721893491, 41.00010392105204 50.32544378698225, 37.07886083787664 51.124260355029584, 34.41137180753281 51.92307692307693, 37.38174624977908 52.72189349112426, 34.08019372401496 53.5207100591716, 33.03585292010084 54.319526627218934, 34.185715136113096 55.11834319526627, 30.445424194513006 55.91715976331361, 35.10798603339504 56.71597633136094, 34.32321231995352 57.514792899408285, 36.24538063783755 58.31360946745562, 33.728170952863636 59.11242603550296, 35.68135962737687 59.91124260355029, 39.95656952031859 60.710059171597635, 39.74412353138764 61.50887573964497, 40.054752631439925 62.307692307692314, 39.688557436321645 63.10650887573964, 37.935894142974256 63.90532544378698, 44.14594666416374 64.70414201183432, 45.233022073595635 65.50295857988165, 42.52971450055523 66.30177514792899, 41.54421206613824 67.10059171597634, 41.34115962904734 67.89940828402366, 43.27615612304357 68.69822485207101, 41.81462125571744 69.49704142011834, 40.36536366307101 70.29585798816568, 45.40824230250982 71.09467455621302, 43.02010377641247 71.89349112426036, 40.98575156456924 72.6923076923077, 41.096941240706705 73.49112426035504, 41.106545676606025 74.28994082840237, 39.90516609384124 75.0887573964497, 41.20721173785657 75.88757396449704, 44.694117839191726 76.68639053254438, 44.138208481942 77.48520710059172, 42.97264972443685 78.28402366863905, 47.236786881319404 79.0828402366864, 45.18886782055854 79.88165680473374, 43.1526192066392 80.68047337278107, 40.65388065590735 81.4792899408284, 40.22739136550798 82.27810650887574, 40.82434507404715 83.07692307692308, 38.48161137237353 83.87573964497041, 40.33421350636759 84.67455621301775, 38.75081068632912 85.4733727810651, 38.91624569527299 86.27218934911244, 38.04590655179553 87.07100591715975, 38.97904154888035 87.8698224852071, 37.88479639089661 88.66863905325444, 39.18025966678691 89.46745562130178, 39.22854385759498 90.26627218934911, 37.94677461027703 91.06508875739645, 31.987125856407893 91.8639053254438, 34.387283450249186 92.66272189349112, 33.707036528601996 93.46153846153845, 34.08786586975937 94.2603550295858, 34.091609259889395 95.05917159763314, 33.99354158680509 95.85798816568047, 33.90523045587318 96.65680473372781, 33.780308991865134 97.45562130177515, 30.54594057167131 98.2544378698225, 27.424174954436047 99.05325443786982, 27.59155878702577 99.85207100591715, 28.682546207882304 100.6508875739645, 26.973017476498125 101.44970414201183, 25.872497811431533 102.24852071005917, 27.043653391178 103.04733727810651, 28.287147163665498 103.84615384615385, 28.759836597665917 104.64497041420118, 28.003901534781633 105.44378698224853, 25.679815988213694 106.24260355029585, 24.982815532297252 107.0414201183432, 25.07311741005568 107.84023668639053, 21.060194916575984 108.63905325443787, 24.527800797029236 109.43786982248521, 25.228122325877234 110.23668639053254, 22.043704060968867 111.03550295857988, 21.715959933172552 111.83431952662723, 18.72241313061597 112.63313609467457, 15.556328742975758 113.43195266272188, 14.23482196132159 114.23076923076923, 15.882781451092287 115.02958579881657, 13.562180837614754 115.82840236686391, 12.559893674392836 116.62721893491124, 14.984430274749352 117.42603550295858, 15.739178287619806 118.22485207100593, 14.999610167975073 119.02366863905324, 14.641859102392504 119.82248520710058, 14.296000454118682 120.62130177514793, 14.311987478905483 121.42011834319527, 17.55660094257206 122.2189349112426, 16.592634715623085 123.01775147928994, 24.990057860456616 123.81656804733728, 22.000678527684233 124.61538461538463, 22.605296510161715 125.41420118343194, 21.709916204936984 126.21301775147928, 22.18917841731883 127.01183431952663, 14.863787230337708 127.81065088757396, 10.216997110637214 128.60946745562129, 6.555320694777332 129.40828402366864, 6.6266886214966805 130.20710059171597, 7.864160050942673 131.0059171597633, 2.3214307850170464 131.80473372781066, 0.0 132.60355029585799, 1.1086092789310433 133.40236686390534, 0.7642085083196837 134.20118343195267, 1.9320573647915538" fill="none" stroke="#32ca5b" stroke-width="1.25"/>

</svg>