<?xml version="1.0" standalone="no"?>
<!DOCTYPE svg PUBLIC "-//W3C//DTD SVG 1.1//EN" "http://www.w3.org/Graphics/SVG/1.1/DTD/svg11.dtd">

<svg width="135" height="50" viewBox="0 0 135 50" preserveAspectRatio="none" 
  xmlns="http://www.w3.org/2000/svg"
  xmlns:xlink="http://www.w3.org/1999/xlink">


<polyline points="0.0, 46.1086360653012 0.7988165680473372, 46.94945531667937 1.5976331360946745, 43.039145554622884 2.396449704142012, 42.53654838313178 3.195266272189349, 49.572623278464135 3.994082840236686, 50.0 4.792899408284024, 45.03605641310567 5.591715976331361, 40.07920577932005 6.390532544378698, 39.9192754596624 7.189349112426036, 43.6773580320158 7.988165680473372, 47.455300385295786 8.78698224852071, 28.489311857686506 9.585798816568047, 33.043899746648286 10.384615384615385, 30.30544040091773 11.183431952662723, 34.312541015019555 11.982248520710058, 37.91478952096573 12.781065088757396, 36.06236394403381 13.579881656804734, 26.501806817693 14.378698224852071, 24.376900142783906 15.177514792899409, 22.858118802938908 15.976331360946745, 21.43570432740239 16.775147928994084, 18.816604825926774 17.57396449704142, 19.304410667727463 18.37278106508876, 16.62269428762291 19.171597633136095, 18.5582028068587 19.970414201183434, 16.670299905208616 20.76923076923077, 21.911252366776967 21.56804733727811, 21.19633435603093 22.366863905325445, 16.768986521011314 23.16568047337278, 16.914942826956235 23.964497041420117, 25.978566491479622 24.763313609467456, 25.592833091271366 25.562130177514792, 24.007974558468753 26.36094674556213, 20.72993356883995 27.159763313609467, 22.567410221291404 27.958579881656807, 20.658727815074915 28.757396449704142, 25.432505338771833 29.55621301775148, 18.380785499545844 30.355029585798817, 27.12474853918085 31.153846153846157, 34.0047296786626 31.95266272189349, 32.44176905464221 32.751479289940825, 28.892102013327143 33.55029585798817, 33.67130033942547 34.349112426035504, 34.19958671808876 35.14792899408284, 36.611994469579926 35.94674556213018, 36.83858743753459 36.74556213017752, 26.227295766782742 37.54437869822485, 21.20435426244029 38.34319526627219, 18.763828773577686 39.142011834319526, 20.42069344349502 39.94082840236687, 29.418029648774475 40.7396449704142, 27.337451092110587 41.53846153846154, 27.604438890736123 42.337278106508876, 25.186827086138365 43.13609467455622, 18.63535185793669 43.93491124260355, 4.689766374450796 44.73372781065089, 4.225600970885049 45.532544378698226, 3.422611403612927 46.33136094674556, 0.0 47.1301775147929, 8.98274481765056 47.928994082840234, 7.714172459570813 48.72781065088758, 9.634590421321917 49.52662721893491, 8.747476680698215 50.32544378698225, 12.218623314984416 51.124260355029584, 6.9996790962350115 51.92307692307693, 13.762835362504013 52.72189349112426, 7.4902985949607785 53.5207100591716, 6.171662008455341 54.319526627218934, 7.813257169526697 55.11834319526627, 12.419240488372589 55.91715976331361, 13.572950841563609 56.71597633136094, 11.886042834315678 57.514792899408285, 10.543636673530306 58.31360946745562, 9.717133655211182 59.11242603550296, 13.415721861078275 59.91124260355029, 10.08893934796675 60.710059171597635, 15.000215512755169 61.50887573964497, 12.558385461050639 62.307692307692314, 14.757769845321162 63.10650887573964, 13.062801567173699 63.90532544378698, 13.859358309072228 64.70414201183432, 13.44374509400574 65.50295857988165, 12.834505205097335 66.30177514792899, 8.004907646212184 67.10059171597634, 11.30831423609444 67.89940828402366, 13.824896965883921 68.69822485207101, 7.079790744014204 69.49704142011834, 12.338167877859338 70.29585798816568, 25.42424073987886 71.09467455621302, 28.608914076056408 71.89349112426036, 24.440510375008508 72.6923076923077, 26.268553891514706 73.49112426035504, 27.872147398673803 74.28994082840237, 27.948695534292373 75.0887573964497, 27.485697362979877 75.88757396449704, 27.956435415987702 76.68639053254438, 28.436928179176135 77.48520710059172, 29.669533490597278 78.28402366863905, 32.57947336288045 79.0828402366864, 30.13964318619657 79.88165680473374, 31.174538231816257 80.68047337278107, 30.13592690133421 81.4792899408284, 28.79571354595878 82.27810650887574, 29.066954765923903 83.07692307692308, 30.351580166896113 83.87573964497041, 34.460622773439695 84.67455621301775, 36.29151472308083 85.4733727810651, 35.427327866084006 86.27218934911244, 32.06762664813745 87.07100591715975, 32.87184465340945 87.8698224852071, 30.463940056379847 88.66863905325444, 30.809179881872545 89.46745562130178, 32.70855256322367 90.26627218934911, 31.986003098327632 91.06508875739645, 31.62419351602332 91.8639053254438, 34.03488936662748 92.66272189349112, 31.10051529409243 93.46153846153845, 31.178127100701268 94.2603550295858, 31.925401957385123 95.05917159763314, 31.899930393654746 95.85798816568047, 32.93015990758947 96.65680473372781, 30.866015641768108 97.45562130177515, 27.857482952767665 98.2544378698225, 31.26950762928281 99.05325443786982, 31.29236755588763 99.85207100591715, 27.84332402088162 100.6508875739645, 28.976832339235013 101.44970414201183, 27.818049911872972 102.24852071005917, 22.22176780360999 103.04733727810651, 26.64520446277352 103.84615384615385, 26.95273214557104 104.64497041420118, 28.646732357915734 105.44378698224853, 29.55840557293997 106.24260355029585, 32.17568335262251 107.0414201183432, 34.40837533706058 107.84023668639053, 34.93210145549826 108.63905325443787, 34.69393553225114 109.43786982248521, 35.37088824881799 110.23668639053254, 34.784218635031685 111.03550295857988, 35.345021641941095 111.83431952662723, 34.19706559167123 112.63313609467457, 35.12404509703282 113.43195266272188, 35.35755388610648 114.23076923076923, 35.087360147126375 115.02958579881657, 34.40321356542457 115.82840236686391, 32.22923811117527 116.62721893491124, 32.69976986535678 117.42603550295858, 33.67806126103711 118.22485207100593, 32.83134333910157 119.02366863905324, 34.10487236400283 119.82248520710058, 33.998522612181944 120.62130177514793, 33.49139105754045 121.42011834319527, 33.755539694983696 122.2189349112426, 34.061991372067 123.01775147928994, 33.65584372654139 123.81656804733728, 33.84786352066951 124.61538461538463, 33.94688417300309 125.41420118343194, 32.88482260193568 126.21301775147928, 37.102632584777325 127.01183431952663, 35.55207515065047 127.81065088757396, 28.96506380580438 128.60946745562129, 22.732499861107367 129.40828402366864, 22.38801203498407 130.20710059171597, 19.445698047090268 131.0059171597633, 21.52203291119008 131.80473372781066, 23.685462274444223 132.60355029585799, 23.77185055493545 133.40236686390534, 21.565552609601703 134.20118343195267, 22.25937743813513" fill="none" stroke="#32ca5b" stroke-width="1.25"/>

</svg>