<?xml version="1.0" standalone="no"?>
<!DOCTYPE svg PUBLIC "-//W3C//DTD SVG 1.1//EN" "http://www.w3.org/Graphics/SVG/1.1/DTD/svg11.dtd">

<svg width="135" height="50" viewBox="0 0 135 50" preserveAspectRatio="none" 
  xmlns="http://www.w3.org/2000/svg"
  xmlns:xlink="http://www.w3.org/1999/xlink">


<polyline points="0.0, 33.88038231645428 0.7988165680473372, 29.676134522850166 1.5976331360946745, 31.035232920350747 2.396449704142012, 37.22314470676381 3.195266272189349, 34.01182695425053 3.994082840236686, 35.25356223780621 4.792899408284024, 34.090959607265134 5.591715976331361, 33.60048532717329 6.390532544378698, 33.28952916879975 7.189349112426036, 32.85453439097347 7.988165680473372, 25.85522321248775 8.78698224852071, 32.50421943620371 9.585798816568047, 35.61998184194456 10.384615384615385, 39.65913250739216 11.183431952662723, 43.545308602182715 11.982248520710058, 42.760746227053616 12.781065088757396, 41.36103666267903 13.579881656804734, 40.68535037052637 14.378698224852071, 42.889234725218536 15.177514792899409, 41.02123878416528 15.976331360946745, 39.97253093679977 16.775147928994084, 30.22478784750299 17.57396449704142, 21.66664961357361 18.37278106508876, 27.083585758111226 19.171597633136095, 24.838375916769373 19.970414201183434, 22.808651409939294 20.76923076923077, 34.938722531006746 21.56804733727811, 32.019666283770434 22.366863905325445, 32.258706599977465 23.16568047337278, 35.86423205465504 23.964497041420117, 35.952754063093806 24.763313609467456, 37.42498272102191 25.562130177514792, 36.24529264001691 26.36094674556213, 42.92885893659955 27.159763313609467, 41.40106728248545 27.958579881656807, 45.94849121313779 28.757396449704142, 44.081134352048196 29.55621301775148, 46.615830310399915 30.355029585798817, 50.0 31.153846153846157, 45.58023559082195 31.95266272189349, 42.22437095449154 32.751479289940825, 45.29113211293579 33.55029585798817, 48.1286892637592 34.349112426035504, 46.03431940270675 35.14792899408284, 46.685506625404564 35.94674556213018, 33.33606584472061 36.74556213017752, 19.57182825345787 37.54437869822485, 18.55342618624077 38.34319526627219, 20.059898414091716 39.142011834319526, 30.800239521954754 39.94082840236687, 28.413830163649774 40.7396449704142, 21.842749149817244 41.53846153846154, 23.155278301218395 42.337278106508876, 17.364880873740113 43.13609467455622, 8.345963502184071 43.93491124260355, 10.921831213276013 44.73372781065089, 15.626234957183465 45.532544378698226, 14.998029021283363 46.33136094674556, 23.615689029564624 47.1301775147929, 22.178105710381995 47.928994082840234, 22.072280712910345 48.72781065088758, 22.41176090823277 49.52662721893491, 16.275853354703635 50.32544378698225, 9.949479268506947 51.124260355029584, 15.51665052112191 51.92307692307693, 11.988225599291017 52.72189349112426, 12.259581210950218 53.5207100591716, 17.7616421015306 54.319526627218934, 12.864486040788496 55.11834319526627, 12.721631840920928 55.91715976331361, 7.221919829154287 56.71597633136094, 2.9736998404167205 57.514792899408285, 3.3720587205697212 58.31360946745562, 12.535031943197888 59.11242603550296, 14.402788643358372 59.91124260355029, 15.891065923042829 60.710059171597635, 12.732528374411947 61.50887573964497, 18.64856368358862 62.307692307692314, 19.201063831270552 63.10650887573964, 19.89018026006789 63.90532544378698, 23.608231065034296 64.70414201183432, 23.173324064739727 65.50295857988165, 19.645093928359973 66.30177514792899, 15.898311636501747 67.10059171597634, 19.841993257978828 67.89940828402366, 0.0 68.69822485207101, 2.3246225181205697 69.49704142011834, 17.055567094274526 70.29585798816568, 21.158220894643005 71.09467455621302, 17.076998140623733 71.89349112426036, 20.337312417411503 72.6923076923077, 20.929568302539806 73.49112426035504, 22.39163699589825 74.28994082840237, 25.483751217080997 75.0887573964497, 30.795149714106014 75.88757396449704, 29.431749091973337 76.68639053254438, 31.015992680094207 77.48520710059172, 38.67225519893258 78.28402366863905, 37.68391334255637 79.0828402366864, 38.80599354711194 79.88165680473374, 37.477905414758155 80.68047337278107, 35.59088916395411 81.4792899408284, 38.32778972293938 82.27810650887574, 37.2674253940585 83.07692307692308, 40.813350914541324 83.87573964497041, 37.92087507281822 84.67455621301775, 39.477495822953664 85.4733727810651, 33.6997772457087 86.27218934911244, 35.503120952367716 87.07100591715975, 33.05054054442644 87.8698224852071, 31.936708396442015 88.66863905325444, 32.457353624224886 89.46745562130178, 29.906473948246198 90.26627218934911, 27.41357599844691 91.06508875739645, 28.213589723175097 91.8639053254438, 29.514696635246757 92.66272189349112, 30.742849956974606 93.46153846153845, 31.126687075144353 94.2603550295858, 33.39203344337959 95.05917159763314, 33.58403402526077 95.85798816568047, 30.662576385608297 96.65680473372781, 22.015505051209637 97.45562130177515, 25.18507600075482 98.2544378698225, 30.38466313945446 99.05325443786982, 24.165984163068615 99.85207100591715, 21.561600384542967 100.6508875739645, 23.067359108874953 101.44970414201183, 18.361191960548418 102.24852071005917, 22.437174698581895 103.04733727810651, 24.681837490727997 103.84615384615385, 21.5062924448728 104.64497041420118, 23.881423204066717 105.44378698224853, 26.51622656546368 106.24260355029585, 29.183590158704376 107.0414201183432, 28.881604465890394 107.84023668639053, 32.35787671803202 108.63905325443787, 31.946734254942555 109.43786982248521, 29.65254334964974 110.23668639053254, 29.28650428547407 111.03550295857988, 28.500048909308546 111.83431952662723, 30.08547035152438 112.63313609467457, 30.529158018129408 113.43195266272188, 33.08038478362047 114.23076923076923, 33.13121850792927 115.02958579881657, 28.891999891381726 115.82840236686391, 29.72198946890739 116.62721893491124, 30.89071393583072 117.42603550295858, 29.51895918327592 118.22485207100593, 30.647164467865647 119.02366863905324, 29.159664338523605 119.82248520710058, 28.58513797678843 120.62130177514793, 32.60155217904126 121.42011834319527, 30.16822566129047 122.2189349112426, 33.23205267531238 123.01775147928994, 35.69235881864986 123.81656804733728, 34.9911556837506 124.61538461538463, 34.0683836215627 125.41420118343194, 35.64927278029554 126.21301775147928, 33.907180740609405 127.01183431952663, 28.67528545278782 127.81065088757396, 26.633449692952173 128.60946745562129, 25.689489703461472 129.40828402366864, 26.040255676471407 130.20710059171597, 25.2312057206423 131.0059171597633, 26.994149225248655 131.80473372781066, 26.517354953338064 132.60355029585799, 25.98331007536715 133.40236686390534, 26.37460932800273 134.20118343195267, 26.651206355695088" fill="none" stroke="#32ca5b" stroke-width="1.25"/>

</svg>