<?xml version="1.0" standalone="no"?>
<!DOCTYPE svg PUBLIC "-//W3C//DTD SVG 1.1//EN" "http://www.w3.org/Graphics/SVG/1.1/DTD/svg11.dtd">

<svg width="135" height="50" viewBox="0 0 135 50" preserveAspectRatio="none" 
  xmlns="http://www.w3.org/2000/svg"
  xmlns:xlink="http://www.w3.org/1999/xlink">


<polyline points="0.0, 12.482934741225044 0.7988165680473372, 14.598110832187098 1.5976331360946745, 29.1584506689697 2.396449704142012, 11.46166382636198 3.195266272189349, 15.835982761000334 3.994082840236686, 27.897719142106876 4.792899408284024, 24.604979863125084 5.591715976331361, 26.871903588367918 6.390532544378698, 27.954221516246353 7.189349112426036, 31.680463434499206 7.988165680473372, 14.944893055324709 8.78698224852071, 11.443450092313427 9.585798816568047, 9.308393223577484 10.384615384615385, 12.076169315979536 11.183431952662723, 14.095614767795864 11.982248520710058, 33.45080820936248 12.781065088757396, 34.500377788924844 13.579881656804734, 35.973724870281075 14.378698224852071, 34.264484568879595 15.177514792899409, 32.41428886639668 15.976331360946745, 28.298012462692018 16.775147928994084, 27.610493316238138 17.57396449704142, 25.05349678444914 18.37278106508876, 12.597158136329176 19.171597633136095, 20.770192028808452 19.970414201183434, 16.113780729170703 20.76923076923077, 17.505683653052355 21.56804733727811, 33.17789321759733 22.366863905325445, 36.039309276454624 23.16568047337278, 36.53817797993552 23.964497041420117, 40.005969809860936 24.763313609467456, 40.07204418063014 25.562130177514792, 39.24379369447832 26.36094674556213, 45.5410009188945 27.159763313609467, 44.58553712352851 27.958579881656807, 47.418048048188695 28.757396449704142, 45.701427211384974 29.55621301775148, 30.307454983383437 30.355029585798817, 49.364443167158015 31.153846153846157, 47.30488881877459 31.95266272189349, 29.8655415342543 32.751479289940825, 31.44472104895037 33.55029585798817, 49.53486729606486 34.349112426035504, 48.20207179226385 35.14792899408284, 46.85528041876285 35.94674556213018, 43.48097531190675 36.74556213017752, 43.14653109578867 37.54437869822485, 40.48051137497936 38.34319526627219, 41.9817107876721 39.142011834319526, 50.0 39.94082840236687, 48.15759371292781 40.7396449704142, 48.61339541814443 41.53846153846154, 46.567461927647905 42.337278106508876, 21.84119640343275 43.13609467455622, 41.53976234312449 43.93491124260355, 40.095510640960306 44.73372781065089, 40.44876779209734 45.532544378698226, 38.78536909402208 46.33136094674556, 40.60137800712437 47.1301775147929, 38.772645081128815 47.928994082840234, 26.93557521716288 48.72781065088758, 44.5928404804536 49.52662721893491, 43.14414090391823 50.32544378698225, 42.23848914013678 51.124260355029584, 41.58086368333998 51.92307692307693, 40.71052850404037 52.72189349112426, 39.34404914104919 53.5207100591716, 39.826203127739376 54.319526627218934, 39.226768308020525 55.11834319526627, 39.405546883375365 55.91715976331361, 40.072870904957526 56.71597633136094, 41.17421785791986 57.514792899408285, 24.048740310179532 58.31360946745562, 27.122395204066883 59.11242603550296, 27.016416681125726 59.91124260355029, 26.25992791961228 60.710059171597635, 0.0 61.50887573964497, 18.38555567405436 62.307692307692314, 22.42086551181119 63.10650887573964, 25.745279497418473 63.90532544378698, 30.537166014656265 64.70414201183432, 26.057590370906976 65.50295857988165, 24.322209864542728 66.30177514792899, 24.029633591572843 67.10059171597634, 6.314728310771056 67.89940828402366, 24.572668593968807 68.69822485207101, 28.006802935903295 69.49704142011834, 27.283831821238525 70.29585798816568, 30.405372167488988 71.09467455621302, 25.21693366933451 71.89349112426036, 27.676825088427233 72.6923076923077, 25.491386598274936 73.49112426035504, 25.425796721754185 74.28994082840237, 25.430595351879504 75.0887573964497, 26.48938580983515 75.88757396449704, 27.785671347862106 76.68639053254438, 32.19441555944502 77.48520710059172, 21.011476068537462 78.28402366863905, 36.246929017632176 79.0828402366864, 35.65721417531028 79.88165680473374, 35.04389261412143 80.68047337278107, 35.01277158836012 81.4792899408284, 34.94493633912506 82.27810650887574, 34.26439730657398 83.07692307692308, 35.108190010093914 83.87573964497041, 35.011838870084986 84.67455621301775, 34.16292370121532 85.4733727810651, 33.75363387443433 86.27218934911244, 33.83597690897 87.07100591715975, 19.285389933252585 87.8698224852071, 33.00357359805095 88.66863905325444, 33.4201029085511 89.46745562130178, 32.19144362827029 90.26627218934911, 30.97686040906749 91.06508875739645, 31.666482125760233 91.8639053254438, 32.92244644725939 92.66272189349112, 32.20599099545024 93.46153846153845, 31.92174382334647 94.2603550295858, 18.407933230641717 95.05917159763314, 31.463930229249044 95.85798816568047, 12.879262242727355 96.65680473372781, 25.379476227363128 97.45562130177515, 26.222631699137118 98.2544378698225, 12.468669986830681 99.05325443786982, 27.12414791936461 99.85207100591715, 28.13079126984948 100.6508875739645, 17.90250621746088 101.44970414201183, 21.20010407060041 102.24852071005917, 21.282738467141083 103.04733727810651, 22.731974666261713 103.84615384615385, 36.72544285973121 104.64497041420118, 28.24842423381608 105.44378698224853, 20.88404308275727 106.24260355029585, 22.839051814367682 107.0414201183432, 22.422472586674246 107.84023668639053, 35.98111528546709 108.63905325443787, 22.15720234202679 109.43786982248521, 34.82284231202436 110.23668639053254, 32.9385932738039 111.03550295857988, 33.552667466774864 111.83431952662723, 25.92186084765902 112.63313609467457, 29.119429274822213 113.43195266272188, 30.28712475728596 114.23076923076923, 28.722482096448886 115.02958579881657, 17.275624076541856 115.82840236686391, 22.561448269070862 116.62721893491124, 31.69131704356391 117.42603550295858, 31.765385364336357 118.22485207100593, 31.819797247349303 119.02366863905324, 31.927469821092817 119.82248520710058, 32.41579429969338 120.62130177514793, 34.16257506251734 121.42011834319527, 34.34731208698318 122.2189349112426, 28.873428068710975 123.01775147928994, 40.37169625165907 123.81656804733728, 41.127964028666966 124.61538461538463, 40.25040587680369 125.41420118343194, 39.0924608678551 126.21301775147928, 37.19677038164503 127.01183431952663, 23.50350059143627 127.81065088757396, 29.039333143291614 128.60946745562129, 28.34370748503721 129.40828402366864, 18.322544462025476 130.20710059171597, 21.905943062381176 131.0059171597633, 25.38920823784031 131.80473372781066, 24.477238377314947 132.60355029585799, 21.340755601199046 133.40236686390534, 13.174282773240034 134.20118343195267, 22.7861272249978" fill="none" stroke="#ff3a33" stroke-width="1.25"/>

</svg>