<?xml version="1.0" standalone="no"?>
<!DOCTYPE svg PUBLIC "-//W3C//DTD SVG 1.1//EN" "http://www.w3.org/Graphics/SVG/1.1/DTD/svg11.dtd">

<svg width="135" height="50" viewBox="0 0 135 50" preserveAspectRatio="none" 
  xmlns="http://www.w3.org/2000/svg"
  xmlns:xlink="http://www.w3.org/1999/xlink">


<polyline points="0.0, 27.595613245173674 0.7988165680473372, 28.235734400025436 1.5976331360946745, 22.652706570770224 2.396449704142012, 28.33907092959405 3.195266272189349, 24.221515259648584 3.994082840236686, 21.913148507670176 4.792899408284024, 20.449920017234547 5.591715976331361, 20.386724041538468 6.390532544378698, 22.7806617109872 7.189349112426036, 26.641165241522113 7.988165680473372, 19.62166182970182 8.78698224852071, 15.66315014231937 9.585798816568047, 19.477777574949574 10.384615384615385, 10.80183562603801 11.183431952662723, 27.799230975456844 11.982248520710058, 36.65806535350371 12.781065088757396, 40.04532636916279 13.579881656804734, 36.33663493638451 14.378698224852071, 31.348895981352783 15.177514792899409, 23.956556742788052 15.976331360946745, 22.681564430582668 16.775147928994084, 20.744282908081058 17.57396449704142, 17.664783317033926 18.37278106508876, 17.29808725570068 19.171597633136095, 18.901816383541163 19.970414201183434, 18.20985030075705 20.76923076923077, 14.360829421534577 21.56804733727811, 12.3600588923775 22.366863905325445, 17.193947784568106 23.16568047337278, 20.623513532575384 23.964497041420117, 23.0484935433985 24.763313609467456, 23.30409074490303 25.562130177514792, 23.367024314499655 26.36094674556213, 36.3407369062605 27.159763313609467, 33.20900769546963 27.958579881656807, 40.01376845762134 28.757396449704142, 34.02610072529723 29.55621301775148, 35.774614316259935 30.355029585798817, 42.587063974867746 31.153846153846157, 38.7591859392122 31.95266272189349, 34.61060289803503 32.751479289940825, 39.204030901020445 33.55029585798817, 42.77520166159343 34.349112426035504, 39.51495791261942 35.14792899408284, 40.39093630070848 35.94674556213018, 31.922843110254977 36.74556213017752, 31.502029172044978 37.54437869822485, 28.916100480064287 38.34319526627219, 34.22415632665656 39.142011834319526, 45.16271754494214 39.94082840236687, 41.64688883402195 40.7396449704142, 39.45506038197236 41.53846153846154, 40.26501996486329 42.337278106508876, 37.66281058552295 43.13609467455622, 28.185668252150524 43.93491124260355, 28.964525404867313 44.73372781065089, 26.26686760721145 45.532544378698226, 26.308810457927162 46.33136094674556, 28.011941428334787 47.1301775147929, 28.368054875580405 47.928994082840234, 30.157335983399896 48.72781065088758, 35.96504816641723 49.52662721893491, 30.417113928687513 50.32544378698225, 27.916593132011418 51.124260355029584, 30.344261911262976 51.92307692307693, 27.67791956542086 52.72189349112426, 25.569334573354187 53.5207100591716, 30.059561741820378 54.319526627218934, 26.219702763668362 55.11834319526627, 31.48073109585951 55.91715976331361, 31.567966013931503 56.71597633136094, 35.54108655692789 57.514792899408285, 32.200214894503965 58.31360946745562, 34.04557945449077 59.11242603550296, 38.001385117305304 59.91124260355029, 40.747164835855074 60.710059171597635, 38.39681186034592 61.50887573964497, 39.886621053126284 62.307692307692314, 35.891960457067206 63.10650887573964, 40.563541835269454 63.90532544378698, 43.95191962088079 64.70414201183432, 41.85893266921988 65.50295857988165, 38.64328603839681 66.30177514792899, 36.31076552937009 67.10059171597634, 42.49018943318577 67.89940828402366, 38.3061985069934 68.69822485207101, 35.151667439320484 69.49704142011834, 43.86102153833891 70.29585798816568, 44.37146838651038 71.09467455621302, 40.00351493716835 71.89349112426036, 40.85975686456936 72.6923076923077, 39.00027484988765 73.49112426035504, 38.68307190271818 74.28994082840237, 40.85399372329068 75.0887573964497, 43.91079318085512 75.88757396449704, 43.565572429302094 76.68639053254438, 39.29360586400281 77.48520710059172, 50.0 78.28402366863905, 45.35391369814956 79.0828402366864, 41.07804102908747 79.88165680473374, 38.24760409291379 80.68047337278107, 35.11442902298765 81.4792899408284, 36.998921113730034 82.27810650887574, 32.95932653975586 83.07692307692308, 34.86345149006019 83.87573964497041, 30.783241233509607 84.67455621301775, 31.94540877432543 85.4733727810651, 29.625733919573317 86.27218934911244, 32.74230060070006 87.07100591715975, 31.409448452178303 87.8698224852071, 33.453844558800164 88.66863905325444, 34.01135862296437 89.46745562130178, 30.664001648365772 90.26627218934911, 28.131441300046617 91.06508875739645, 30.679431496189636 91.8639053254438, 29.24657668483317 92.66272189349112, 30.659650762585823 93.46153846153845, 29.894014851109507 94.2603550295858, 30.94455157646032 95.05917159763314, 31.281721679585996 95.85798816568047, 33.304354387976986 96.65680473372781, 31.50603531444776 97.45562130177515, 30.122085352526813 98.2544378698225, 31.487678070776 99.05325443786982, 33.31690753164887 99.85207100591715, 30.96999181607406 100.6508875739645, 31.621359532888942 101.44970414201183, 32.40389283397139 102.24852071005917, 33.32287514441169 103.04733727810651, 22.460789844124005 103.84615384615385, 23.664876417530937 104.64497041420118, 24.008760973115457 105.44378698224853, 16.5589397850274 106.24260355029585, 4.709153264854972 107.0414201183432, 0.0 107.84023668639053, 9.365208775527309 108.63905325443787, 12.656062123818362 109.43786982248521, 9.50718444742406 110.23668639053254, 11.261291801853355 111.03550295857988, 11.37977197781158 111.83431952662723, 11.544919703191063 112.63313609467457, 9.41771589487769 113.43195266272188, 9.614701789867858 114.23076923076923, 7.7848819875354485 115.02958579881657, 12.082490539894088 115.82840236686391, 16.383281859231797 116.62721893491124, 18.90450858008122 117.42603550295858, 16.95710044155619 118.22485207100593, 17.474349037435864 119.02366863905324, 16.391688884726317 119.82248520710058, 13.804415232126749 120.62130177514793, 20.207346815254127 121.42011834319527, 20.93142560804219 122.2189349112426, 30.573669264567744 123.01775147928994, 24.261339136227843 123.81656804733728, 24.98222949836632 124.61538461538463, 21.608753539148946 125.41420118343194, 22.657472072317532 126.21301775147928, 15.76112803265534 127.01183431952663, 11.01420360361709 127.81065088757396, 10.130541474743309 128.60946745562129, 9.026236614661299 129.40828402366864, 8.736682073637343 130.20710059171597, 6.5228308947227625 131.0059171597633, 6.005536320418612 131.80473372781066, 3.850582167875713 132.60355029585799, 5.90978304168214 133.40236686390534, 7.119731918003357 134.20118343195267, 6.439313187734704" fill="none" stroke="#32ca5b" stroke-width="1.25"/>

</svg>