<?xml version="1.0" standalone="no"?>
<!DOCTYPE svg PUBLIC "-//W3C//DTD SVG 1.1//EN" "http://www.w3.org/Graphics/SVG/1.1/DTD/svg11.dtd">

<svg width="135" height="50" viewBox="0 0 135 50" preserveAspectRatio="none" 
  xmlns="http://www.w3.org/2000/svg"
  xmlns:xlink="http://www.w3.org/1999/xlink">


<polyline points="0.0, 4.0219450081875765 0.7988165680473372, 9.656963507035515 1.5976331360946745, 12.086045636604796 2.396449704142012, 4.417143818906437 3.195266272189349, 5.156494450139205 3.994082840236686, 3.500888353806418 4.792899408284024, 0.4967915599256054 5.591715976331361, 0.3544948766777708 6.390532544378698, 4.337910304316151 7.189349112426036, 8.819252140989994 7.988165680473372, 13.136491107335255 8.78698224852071, 6.498377112654078 9.585798816568047, 0.0 10.384615384615385, 8.340469791649811 11.183431952662723, 2.1266165922911155 11.982248520710058, 16.545747692345902 12.781065088757396, 22.250625825284263 13.579881656804734, 27.033375588911092 14.378698224852071, 26.42726711696018 15.177514792899409, 25.685816900951824 15.976331360946745, 20.120203881486383 16.775147928994084, 12.14043075127585 17.57396449704142, 11.996542355784467 18.37278106508876, 10.930556873918059 19.171597633136095, 10.263331913843619 19.970414201183434, 15.044261693848599 20.76923076923077, 19.317042459262332 21.56804733727811, 19.681404715390556 22.366863905325445, 17.093361522169165 23.16568047337278, 19.10151096781342 23.964497041420117, 22.10232503984119 24.763313609467456, 25.86706159770163 25.562130177514792, 29.84855989494562 26.36094674556213, 25.47826290823336 27.159763313609467, 36.59965083915691 27.958579881656807, 33.30494169145305 28.757396449704142, 37.18216960667796 29.55621301775148, 29.49334276212842 30.355029585798817, 32.49571625316651 31.153846153846157, 40.4892171612872 31.95266272189349, 36.05792300067898 32.751479289940825, 34.621858026440506 33.55029585798817, 39.8451763963921 34.349112426035504, 44.380999121372696 35.14792899408284, 41.757695336676576 35.94674556213018, 41.35175147007071 36.74556213017752, 33.17833143976722 37.54437869822485, 32.678170445233526 38.34319526627219, 30.250172489282672 39.142011834319526, 33.57394203068988 39.94082840236687, 39.85422139106017 40.7396449704142, 39.031645508204576 41.53846153846154, 36.09664919744877 42.337278106508876, 36.209902943335294 43.13609467455622, 35.87284939395006 43.93491124260355, 28.68905609748362 44.73372781065089, 24.8990685860816 45.532544378698226, 22.138394918675843 46.33136094674556, 20.31902203607406 47.1301775147929, 26.20995884682747 47.928994082840234, 26.145103377444094 48.72781065088758, 27.285398368795022 49.52662721893491, 32.45560197726003 50.32544378698225, 27.47995461542674 51.124260355029584, 25.49240993299954 51.92307692307693, 26.895885900622414 52.72189349112426, 23.773038896136416 53.5207100591716, 23.274254321173654 54.319526627218934, 25.95740986757413 55.11834319526627, 21.94830044253159 55.91715976331361, 27.306226891858685 56.71597633136094, 27.50480039315021 57.514792899408285, 31.42308737836577 58.31360946745562, 26.6519882731512 59.11242603550296, 29.348789100909695 59.91124260355029, 33.249426048265526 60.710059171597635, 36.811872141434485 61.50887573964497, 35.24450376668922 62.307692307692314, 34.18553692130809 63.10650887573964, 31.72060478388179 63.90532544378698, 36.67398002073874 64.70414201183432, 39.958095729716426 65.50295857988165, 40.11970428831527 66.30177514792899, 38.127714301334166 67.10059171597634, 38.158809918781685 67.89940828402366, 41.22909220224697 68.69822485207101, 38.18726499533456 69.49704142011834, 34.26794159149387 70.29585798816568, 37.426341338190724 71.09467455621302, 40.64279269113725 71.89349112426036, 36.47610759237872 72.6923076923077, 39.297771921135286 73.49112426035504, 37.73966966744692 74.28994082840237, 34.9768878402651 75.0887573964497, 35.388574964192 75.88757396449704, 41.92958734007409 76.68639053254438, 41.84284233929723 77.48520710059172, 41.768127892965104 78.28402366863905, 50.0 79.0828402366864, 44.662748472825236 79.88165680473374, 40.4643386279747 80.68047337278107, 36.40540151786715 81.4792899408284, 33.657652339895975 82.27810650887574, 34.39024167233497 83.07692307692308, 30.00065783914374 83.87573964497041, 33.269243055915574 84.67455621301775, 30.431482578069875 85.4733727810651, 29.10214523448858 86.27218934911244, 28.893079640867654 87.07100591715975, 31.48085449687575 87.8698224852071, 30.549710134284165 88.66863905325444, 31.498763906833222 89.46745562130178, 32.101495172678554 90.26627218934911, 29.327662656834963 91.06508875739645, 25.490645201650214 91.8639053254438, 26.162055096131652 92.66272189349112, 25.38366794933858 93.46153846153845, 25.90824568636535 94.2603550295858, 25.22979222151447 95.05917159763314, 25.572152375436673 95.85798816568047, 25.037475225431887 96.65680473372781, 27.64037564350953 97.45562130177515, 27.711106434458433 98.2544378698225, 29.17324879667149 99.05325443786982, 30.52649469572115 99.85207100591715, 32.74408549676753 100.6508875739645, 31.873542750389877 101.44970414201183, 29.39245684173431 102.24852071005917, 29.900121923946216 103.04733727810651, 32.83000839921882 103.84615384615385, 32.525751214160564 104.64497041420118, 33.77887818705844 105.44378698224853, 31.734240095491284 106.24260355029585, 30.329150302172952 107.0414201183432, 32.6821643561462 107.84023668639053, 32.30381636240477 108.63905325443787, 35.40602523683889 109.43786982248521, 36.29741060656054 110.23668639053254, 34.036718026099614 111.03550295857988, 34.5932706961116 111.83431952662723, 33.03735367566802 112.63313609467457, 31.444339199792353 113.43195266272188, 30.94239897161679 114.23076923076923, 30.675861020773958 115.02958579881657, 29.711689698290794 115.82840236686391, 26.772496213616897 116.62721893491124, 30.178637019697902 117.42603550295858, 27.259716634849546 118.22485207100593, 23.385271706197575 119.02366863905324, 25.940008188244978 119.82248520710058, 21.937813583261757 120.62130177514793, 19.411334020738668 121.42011834319527, 23.619126955516066 122.2189349112426, 23.27068105272292 123.01775147928994, 33.995646975622016 123.81656804733728, 28.38323483746978 124.61538461538463, 26.6857588220601 125.41420118343194, 30.105170565566354 126.21301775147928, 29.808324210864097 127.01183431952663, 23.657652042094522 127.81065088757396, 18.104087813619874 128.60946745562129, 10.526159314240948 129.40828402366864, 7.216370063699053 130.20710059171597, 11.546519492740947 131.0059171597633, 7.123639648606918 131.80473372781066, 6.869006391182802 132.60355029585799, 7.298619478449857 133.40236686390534, 7.233149305067076 134.20118343195267, 3.945737435263471" fill="none" stroke="#32ca5b" stroke-width="1.25"/>

</svg>