<?xml version="1.0" standalone="no"?>
<!DOCTYPE svg PUBLIC "-//W3C//DTD SVG 1.1//EN" "http://www.w3.org/Graphics/SVG/1.1/DTD/svg11.dtd">

<svg width="135" height="50" viewBox="0 0 135 50" preserveAspectRatio="none" 
  xmlns="http://www.w3.org/2000/svg"
  xmlns:xlink="http://www.w3.org/1999/xlink">


<polyline points="0.0, 16.71940562395969 0.7988165680473372, 18.34863366812287 1.5976331360946745, 14.036793196615157 2.396449704142012, 19.60687531488063 3.195266272189349, 15.831449321517779 3.994082840236686, 14.826646672552938 4.792899408284024, 13.169043211652493 5.591715976331361, 14.822128342126833 6.390532544378698, 18.874464744907094 7.189349112426036, 22.094880219561176 7.988165680473372, 16.82522901812553 8.78698224852071, 14.162305905747003 9.585798816568047, 15.745633713271905 10.384615384615385, 9.493002831463834 11.183431952662723, 22.409597332958583 11.982248520710058, 33.171191782667975 12.781065088757396, 35.92431519419974 13.579881656804734, 33.98673164930667 14.378698224852071, 30.7093508613689 15.177514792899409, 24.460502369118466 15.976331360946745, 22.556556302492893 16.775147928994084, 22.594746166112746 17.57396449704142, 17.746844883147823 18.37278106508876, 18.78676148987164 19.171597633136095, 21.960243419237123 19.970414201183434, 24.15251757650236 20.76923076923077, 23.88138031411655 21.56804733727811, 21.971741159734297 22.366863905325445, 26.227338071700736 23.16568047337278, 27.407821898057342 23.964497041420117, 32.99695751734643 24.763313609467456, 36.270639332976444 25.562130177514792, 34.73224135753339 26.36094674556213, 46.68833017927907 27.159763313609467, 43.478642062811986 27.958579881656807, 48.96862994404101 28.757396449704142, 42.48241952134473 29.55621301775148, 44.97079422287305 30.355029585798817, 50.0 31.153846153846157, 46.97698569444129 31.95266272189349, 43.24289558894833 32.751479289940825, 47.873106758988385 33.55029585798817, 49.40592227973112 34.349112426035504, 46.28584012788697 35.14792899408284, 45.780087883972996 35.94674556213018, 40.08226743442151 36.74556213017752, 37.34972532444844 37.54437869822485, 34.186057708853475 38.34319526627219, 36.82897963850738 39.142011834319526, 43.55763702274133 39.94082840236687, 42.11656647975427 40.7396449704142, 39.76579352979402 41.53846153846154, 40.26231673382698 42.337278106508876, 38.868721981560775 43.13609467455622, 30.303248759148683 43.93491124260355, 28.606635079489724 44.73372781065089, 26.042229817851638 45.532544378698226, 25.799810082874643 46.33136094674556, 26.5520359341418 47.1301775147929, 24.87207727517996 47.928994082840234, 28.099810638829926 48.72781065088758, 33.51280250493199 49.52662721893491, 29.389363998062105 50.32544378698225, 25.460926291135554 51.124260355029584, 29.105267877836738 51.92307692307693, 27.408207963671 52.72189349112426, 24.343497310230255 53.5207100591716, 23.61316015019033 54.319526627218934, 18.48030589865801 55.11834319526627, 24.60721314676608 55.91715976331361, 23.99553488748907 56.71597633136094, 27.58506756209601 57.514792899408285, 24.63827259571975 58.31360946745562, 27.78521440312829 59.11242603550296, 32.39744536265075 59.91124260355029, 33.103551013092144 60.710059171597635, 31.886991630669847 61.50887573964497, 32.045921615373146 62.307692307692314, 28.183495704897478 63.10650887573964, 32.27667430682376 63.90532544378698, 37.012496289753784 64.70414201183432, 33.132588634917006 65.50295857988165, 30.764694801581292 66.30177514792899, 28.871420015301947 67.10059171597634, 32.73452428168795 67.89940828402366, 30.100330590616416 68.69822485207101, 30.086820134372203 69.49704142011834, 31.252289440720205 70.29585798816568, 32.70774630963501 71.09467455621302, 25.91359868615543 71.89349112426036, 23.147510875643647 72.6923076923077, 19.69301645576931 73.49112426035504, 20.682979437417725 74.28994082840237, 25.621717069702022 75.0887573964497, 31.35034680657769 75.88757396449704, 31.078167329870205 76.68639053254438, 26.24746311990679 77.48520710059172, 37.556044466711214 78.28402366863905, 31.257054080012566 79.0828402366864, 28.43761162728017 79.88165680473374, 25.80032922006257 80.68047337278107, 24.211182101553717 81.4792899408284, 24.71060621198784 82.27810650887574, 18.24844308241008 83.07692307692308, 24.79570804046405 83.87573964497041, 20.616936996820662 84.67455621301775, 18.06605341816652 85.4733727810651, 16.166060375508483 86.27218934911244, 21.081443637603332 87.07100591715975, 20.185790518549158 87.8698224852071, 22.78925229561917 88.66863905325444, 23.399554582101473 89.46745562130178, 20.60833376511788 90.26627218934911, 17.380993253170363 91.06508875739645, 18.791889232848643 91.8639053254438, 18.235615574741956 92.66272189349112, 18.640636466196405 93.46153846153845, 18.28724279991016 94.2603550295858, 18.586715157439553 95.05917159763314, 18.908513920766634 95.85798816568047, 20.74475093871785 96.65680473372781, 18.851182223261528 97.45562130177515, 20.464942727363024 98.2544378698225, 21.019312365099985 99.05325443786982, 22.56353972115405 99.85207100591715, 21.121411938844563 100.6508875739645, 20.502513718154567 101.44970414201183, 21.716462698762943 102.24852071005917, 23.571637445317908 103.04733727810651, 21.59344367024354 103.84615384615385, 22.180610352423436 104.64497041420118, 21.33046006216183 105.44378698224853, 20.88791719032557 106.24260355029585, 16.80187143395952 107.0414201183432, 11.297479633973351 107.84023668639053, 15.465239319739277 108.63905325443787, 18.96749793995714 109.43786982248521, 15.102553696285135 110.23668639053254, 16.4724162278101 111.03550295857988, 16.988872783272903 111.83431952662723, 16.968361814954697 112.63313609467457, 15.573345355852384 113.43195266272188, 15.801643505532684 114.23076923076923, 14.080979346720879 115.02958579881657, 12.363105817866971 115.82840236686391, 15.824060791324865 116.62721893491124, 18.118993872824674 117.42603550295858, 14.9763106779421 118.22485207100593, 8.844221322712578 119.02366863905324, 9.851687508451967 119.82248520710058, 10.490035678323526 120.62130177514793, 18.6534865015565 121.42011834319527, 19.77886855266175 122.2189349112426, 31.00582068002093 123.01775147928994, 26.550664619191767 123.81656804733728, 26.379119088942232 124.61538461538463, 23.57568477628707 125.41420118343194, 23.081868402225084 126.21301775147928, 16.32858543953449 127.01183431952663, 10.249057184268532 127.81065088757396, 5.675288336860619 128.60946745562129, 4.889245915170618 129.40828402366864, 7.2036241410123765 130.20710059171597, 5.538118309112375 131.0059171597633, 3.7279470909083012 131.80473372781066, 0.6662001943054582 132.60355029585799, 2.1761821990040566 133.40236686390534, 1.5080357172571297 134.20118343195267, 0.0" fill="none" stroke="#32ca5b" stroke-width="1.25"/>

</svg>