<?xml version="1.0" standalone="no"?>
<!DOCTYPE svg PUBLIC "-//W3C//DTD SVG 1.1//EN" "http://www.w3.org/Graphics/SVG/1.1/DTD/svg11.dtd">

<svg width="135" height="50" viewBox="0 0 135 50" preserveAspectRatio="none" 
  xmlns="http://www.w3.org/2000/svg"
  xmlns:xlink="http://www.w3.org/1999/xlink">


<polyline points="0.0, 44.853462989588344 0.7988165680473372, 43.71968637371138 1.5976331360946745, 43.92868555373045 2.396449704142012, 44.025977316917896 3.195266272189349, 44.36806649972784 3.994082840236686, 44.584324369515386 4.792899408284024, 45.0684289942711 5.591715976331361, 44.86031268120348 6.390532544378698, 46.142446824048214 7.189349112426036, 45.66235522888132 7.988165680473372, 46.52439441410884 8.78698224852071, 46.467897953056166 9.585798816568047, 47.39886425791839 10.384615384615385, 47.18694431739032 11.183431952662723, 46.105282877078864 11.982248520710058, 47.25434423097308 12.781065088757396, 47.79024460018436 13.579881656804734, 48.77450630102562 14.378698224852071, 47.95403236275436 15.177514792899409, 48.65888457404894 15.976331360946745, 45.771298518031486 16.775147928994084, 45.46590280702182 17.57396449704142, 46.38338722763521 18.37278106508876, 45.27182619088587 19.171597633136095, 45.50761477886197 19.970414201183434, 46.323527774284166 20.76923076923077, 46.85909789626633 21.56804733727811, 46.53307240483317 22.366863905325445, 47.97967294139049 23.16568047337278, 47.72503594378782 23.964497041420117, 47.943442740769605 24.763313609467456, 48.34081205217811 25.562130177514792, 48.748766771467174 26.36094674556213, 48.64256963375922 27.159763313609467, 49.35666421575954 27.958579881656807, 50.0 28.757396449704142, 49.20082447312834 29.55621301775148, 48.62243796087588 30.355029585798817, 48.836314801776716 31.153846153846157, 49.06942294321047 31.95266272189349, 49.08672021077493 32.751479289940825, 48.21023620396269 33.55029585798817, 48.63690147878253 34.349112426035504, 48.357078255315486 35.14792899408284, 48.166231724282824 35.94674556213018, 47.31680736713064 36.74556213017752, 46.90333986037337 37.54437869822485, 46.125660470162636 38.34319526627219, 44.77483928120344 39.142011834319526, 45.7340328088955 39.94082840236687, 46.028257534559245 40.7396449704142, 46.02475510203602 41.53846153846154, 45.62381109740724 42.337278106508876, 45.42885255223321 43.13609467455622, 44.95808227107092 43.93491124260355, 45.78774679429377 44.73372781065089, 45.12441922828187 45.532544378698226, 44.73688122509093 46.33136094674556, 44.38448228172807 47.1301775147929, 44.925947626472315 47.928994082840234, 44.969854109551754 48.72781065088758, 45.7596745438692 49.52662721893491, 45.98226844557572 50.32544378698225, 45.55830412472813 51.124260355029584, 44.9101812413191 51.92307692307693, 46.10658379903771 52.72189349112426, 45.278635721998135 53.5207100591716, 45.853857035257064 54.319526627218934, 46.17225416023316 55.11834319526627, 45.2215278452829 55.91715976331361, 44.792414801220495 56.71597633136094, 43.533650727040815 57.514792899408285, 41.88085229501359 58.31360946745562, 42.358565881392515 59.11242603550296, 42.18896116991885 59.91124260355029, 42.73073578650504 60.710059171597635, 43.74191469820722 61.50887573964497, 44.068884498604646 62.307692307692314, 44.49782732046196 63.10650887573964, 43.60358034612581 63.90532544378698, 45.200093976262146 64.70414201183432, 45.608491039207124 65.50295857988165, 45.87816380395545 66.30177514792899, 45.469041157197644 67.10059171597634, 45.40728460839901 67.89940828402366, 44.989800686031074 68.69822485207101, 44.58331000688779 69.49704142011834, 44.70109773557069 70.29585798816568, 44.394531109194524 71.09467455621302, 44.224127135364036 71.89349112426036, 44.127094700235084 72.6923076923077, 44.08743760509938 73.49112426035504, 43.889126825585365 74.28994082840237, 43.40965781058402 75.0887573964497, 43.46183216211051 75.88757396449704, 43.68027462057355 76.68639053254438, 43.75145800592477 77.48520710059172, 42.379223359760296 78.28402366863905, 42.824441819694556 79.0828402366864, 42.18518699237373 79.88165680473374, 43.060082009543784 80.68047337278107, 42.27552409753521 81.4792899408284, 42.23669027710631 82.27810650887574, 42.36261855031935 83.07692307692308, 42.45406711677913 83.87573964497041, 42.52016645664366 84.67455621301775, 42.2564964178463 85.4733727810651, 42.26032953062831 86.27218934911244, 41.96002223157465 87.07100591715975, 41.7732030080796 87.8698224852071, 42.081707546848165 88.66863905325444, 42.064410233726065 89.46745562130178, 42.602254900049 90.26627218934911, 41.742413624361 91.06508875739645, 41.973331404734964 91.8639053254438, 42.02416557436875 92.66272189349112, 41.8293256901166 93.46153846153845, 38.81727161170474 94.2603550295858, 35.244632271935814 95.05917159763314, 31.034126470541683 95.85798816568047, 29.662158661248743 96.65680473372781, 29.826532866502227 97.45562130177515, 28.339806928256746 98.2544378698225, 27.367262454279317 99.05325443786982, 28.06217479585486 99.85207100591715, 30.543852234677697 100.6508875739645, 30.119640140278797 101.44970414201183, 29.831551052293104 102.24852071005917, 30.443799207353955 103.04733727810651, 29.5601509476367 103.84615384615385, 28.227221011753095 104.64497041420118, 25.758097227015014 105.44378698224853, 25.859632961931588 106.24260355029585, 25.41360847068757 107.0414201183432, 27.329757451499177 107.84023668639053, 26.54977673413471 108.63905325443787, 25.105551935250254 109.43786982248521, 23.429584425816934 110.23668639053254, 23.065133497943 111.03550295857988, 19.059123040419017 111.83431952662723, 14.909521032601184 112.63313609467457, 15.49687053583958 113.43195266272188, 15.009625088180442 114.23076923076923, 14.32910084950807 115.02958579881657, 13.533541985441502 115.82840236686391, 13.456829257381948 116.62721893491124, 13.683337621474276 117.42603550295858, 19.245779095665906 118.22485207100593, 19.55772250539103 119.02366863905324, 20.58166838687287 119.82248520710058, 21.41735845703128 120.62130177514793, 21.476596009640147 121.42011834319527, 22.159122092630014 122.2189349112426, 22.71244598055566 123.01775147928994, 21.9260039305409 123.81656804733728, 21.322225663032935 124.61538461538463, 20.92580021791288 125.41420118343194, 19.09546916157226 126.21301775147928, 18.602483538503066 127.01183431952663, 18.004234685807432 127.81065088757396, 14.482064389856156 128.60946745562129, 9.777206478390314 129.40828402366864, 9.398075344847069 130.20710059171597, 8.149333566795756 131.0059171597633, 8.003251784567206 131.80473372781066, 9.726079556945022 132.60355029585799, 6.819916938990015 133.40236686390534, 4.8945278654565 134.20118343195267, 0.0" fill="none" stroke="#32ca5b" stroke-width="1.25"/>

</svg>