<?xml version="1.0" standalone="no"?>
<!DOCTYPE svg PUBLIC "-//W3C//DTD SVG 1.1//EN" "http://www.w3.org/Graphics/SVG/1.1/DTD/svg11.dtd">

<svg width="135" height="50" viewBox="0 0 135 50" preserveAspectRatio="none" 
  xmlns="http://www.w3.org/2000/svg"
  xmlns:xlink="http://www.w3.org/1999/xlink">


<polyline points="0.0, 42.27167751294031 0.7988165680473372, 43.10988507794093 1.5976331360946745, 43.5573859876375 2.396449704142012, 42.73565402987771 3.195266272189349, 43.700839855096504 3.994082840236686, 43.315815193405584 4.792899408284024, 42.81233959434702 5.591715976331361, 42.65808718073008 6.390532544378698, 42.62366867188587 7.189349112426036, 43.12965180983775 7.988165680473372, 43.842416257503544 8.78698224852071, 43.05960783724393 9.585798816568047, 42.689019133994464 10.384615384615385, 43.60546171013429 11.183431952662723, 43.04254003548525 11.982248520710058, 45.49431105587783 12.781065088757396, 48.072112254119965 13.579881656804734, 48.3809634404853 14.378698224852071, 48.15919433351482 15.177514792899409, 47.78907534572088 15.976331360946745, 46.75698258345105 16.775147928994084, 46.282444740244784 17.57396449704142, 46.11816139336569 18.37278106508876, 44.44686599627576 19.171597633136095, 44.43245488053757 19.970414201183434, 45.413320634918534 20.76923076923077, 45.66669505726749 21.56804733727811, 46.095807661746896 22.366863905325445, 45.8256087368279 23.16568047337278, 46.28640057295918 23.964497041420117, 46.49344816182667 24.763313609467456, 47.19332962922852 25.562130177514792, 47.60749628473729 26.36094674556213, 47.77870968138039 27.159763313609467, 49.54922298354737 27.958579881656807, 48.72281830539113 28.757396449704142, 48.408569708613044 29.55621301775148, 47.49335089719893 30.355029585798817, 47.7687059603966 31.153846153846157, 48.73883957086633 31.95266272189349, 48.48369512973036 32.751479289940825, 48.053134980383035 33.55029585798817, 49.47597435853943 34.349112426035504, 50.0 35.14792899408284, 49.08038580161721 35.94674556213018, 48.78657739694303 36.74556213017752, 46.3150390202589 37.54437869822485, 44.680931571208404 38.34319526627219, 44.723186032850485 39.142011834319526, 44.98962066078124 39.94082840236687, 45.38026158099589 40.7396449704142, 44.01707386505912 41.53846153846154, 42.09535349705093 42.337278106508876, 41.99910471988803 43.13609467455622, 40.96765370212934 43.93491124260355, 38.83486323265032 44.73372781065089, 38.28408676289295 45.532544378698226, 37.831206649471085 46.33136094674556, 35.76480483921818 47.1301775147929, 35.762740381385136 47.928994082840234, 36.16868253170226 48.72781065088758, 35.11499907234028 49.52662721893491, 37.60024057014228 50.32544378698225, 36.75582175199551 51.124260355029584, 34.69485788052857 51.92307692307693, 34.694314398189654 52.72189349112426, 33.80521195837147 53.5207100591716, 34.16832598590845 54.319526627218934, 36.236070510751446 55.11834319526627, 35.664194985538394 55.91715976331361, 36.33612733793573 56.71597633136094, 35.808273132737604 57.514792899408285, 37.398802545157665 58.31360946745562, 35.621654406293246 59.11242603550296, 37.12846588765355 59.91124260355029, 37.77166991785389 60.710059171597635, 38.00271900078436 61.50887573964497, 37.7879906166508 62.307692307692314, 37.332612992295196 63.10650887573964, 37.32508256456503 63.90532544378698, 37.74991662783593 64.70414201183432, 38.03847947525431 65.50295857988165, 37.96830460137836 66.30177514792899, 37.83215230270681 67.10059171597634, 37.281401108738514 67.89940828402366, 38.22529530647841 68.69822485207101, 38.01123396239741 69.49704142011834, 37.467207338909844 70.29585798816568, 39.488862066483755 71.09467455621302, 39.62473441717789 71.89349112426036, 38.33870091561152 72.6923076923077, 38.28855960549918 73.49112426035504, 38.30454061060706 74.28994082840237, 37.111912299442615 75.0887573964497, 37.71811277706368 75.88757396449704, 38.660033684552616 76.68639053254438, 38.24418860031626 77.48520710059172, 37.97757034464795 78.28402366863905, 39.11187643162498 79.0828402366864, 38.1181502917899 79.88165680473374, 37.64719943017213 80.68047337278107, 37.16395998768272 81.4792899408284, 37.433630265976106 82.27810650887574, 37.06174004786364 83.07692307692308, 35.695714473121335 83.87573964497041, 37.489455332814146 84.67455621301775, 36.02736491925948 85.4733727810651, 35.873099345430845 86.27218934911244, 35.65075322047666 87.07100591715975, 36.09621231605617 87.8698224852071, 36.151062073740725 88.66863905325444, 36.718022945307844 89.46745562130178, 37.08543698279905 90.26627218934911, 35.97303835383771 91.06508875739645, 35.51522331401976 91.8639053254438, 35.09293442257682 92.66272189349112, 34.78080917706276 93.46153846153845, 33.84028070069096 94.2603550295858, 33.96073526691649 95.05917159763314, 33.77877306711349 95.85798816568047, 33.80641736477181 96.65680473372781, 33.77732145071343 97.45562130177515, 32.305913811389246 98.2544378698225, 30.933904147805936 99.05325443786982, 29.879423253245267 99.85207100591715, 28.83898369171158 100.6508875739645, 24.80164709553906 101.44970414201183, 22.61196600746694 102.24852071005917, 27.209508170158216 103.04733727810651, 28.975539162145008 103.84615384615385, 28.537100095770036 104.64497041420118, 25.17781984036011 105.44378698224853, 19.796359154156846 106.24260355029585, 18.348573071544653 107.0414201183432, 15.965487035447385 107.84023668639053, 20.84012696354082 108.63905325443787, 21.708073116691846 109.43786982248521, 17.996765672036823 110.23668639053254, 14.48794753277368 111.03550295857988, 14.320041397214883 111.83431952662723, 4.501160731454782 112.63313609467457, 8.566237814353746 113.43195266272188, 9.729611632624167 114.23076923076923, 12.196941006340927 115.02958579881657, 9.543703707932782 115.82840236686391, 5.3909905172917245 116.62721893491124, 7.60076020262378 117.42603550295858, 3.753065683932881 118.22485207100593, 6.165611049112199 119.02366863905324, 4.407949198717879 119.82248520710058, 5.927261045133276 120.62130177514793, 7.689579348021846 121.42011834319527, 10.849302394100164 122.2189349112426, 6.0666744937904085 123.01775147928994, 5.9214683652031175 123.81656804733728, 0.0 124.61538461538463, 3.0472881885539302 125.41420118343194, 5.605241336645144 126.21301775147928, 8.583178816226907 127.01183431952663, 8.133600188121953 127.81065088757396, 7.115152842284074 128.60946745562129, 8.027383526372697 129.40828402366864, 9.74158707284547 130.20710059171597, 10.047181909182928 131.0059171597633, 9.387656377692407 131.80473372781066, 11.114763492963004 132.60355029585799, 10.56782560569557 133.40236686390534, 10.339156588981782 134.20118343195267, 9.41398225495554" fill="none" stroke="#32ca5b" stroke-width="1.25"/>

</svg>