<?xml version="1.0" standalone="no"?>
<!DOCTYPE svg PUBLIC "-//W3C//DTD SVG 1.1//EN" "http://www.w3.org/Graphics/SVG/1.1/DTD/svg11.dtd">

<svg width="135" height="50" viewBox="0 0 135 50" preserveAspectRatio="none" 
  xmlns="http://www.w3.org/2000/svg"
  xmlns:xlink="http://www.w3.org/1999/xlink">


<polyline points="0.0, 4.996556213960872 0.7988165680473372, 11.252984767567185 1.5976331360946745, 13.203184608366483 2.396449704142012, 6.507419965034873 3.195266272189349, 10.486938328512203 3.994082840236686, 3.723759597262695 4.792899408284024, 0.0 5.591715976331361, 2.5311851341684233 6.390532544378698, 7.24513209898159 7.189349112426036, 9.793695157465832 7.988165680473372, 13.900418763861728 8.78698224852071, 10.196708959850213 9.585798816568047, 5.054902823458131 10.384615384615385, 9.036025880624484 11.183431952662723, 3.601435250773254 11.982248520710058, 16.217117158803237 12.781065088757396, 25.545902025718252 13.579881656804734, 29.731072538861227 14.378698224852071, 26.91375414593309 15.177514792899409, 28.82490860779439 15.976331360946745, 23.883680616549192 16.775147928994084, 20.92222741074823 17.57396449704142, 15.314596632559343 18.37278106508876, 11.343105466634531 19.171597633136095, 11.958926251014686 19.970414201183434, 17.057987060546154 20.76923076923077, 21.358183564711677 21.56804733727811, 23.010662982463806 22.366863905325445, 21.81310919360039 23.16568047337278, 26.051596906209596 23.964497041420117, 28.6965012531629 24.763313609467456, 32.26514469285979 25.562130177514792, 34.40388965133464 26.36094674556213, 32.16717150275229 27.159763313609467, 43.61338317593559 27.958579881656807, 38.41371321950631 28.757396449704142, 42.03759235593179 29.55621301775148, 36.09602691224102 30.355029585798817, 39.33013605016897 31.153846153846157, 43.632684859668984 31.95266272189349, 42.262279059491675 32.751479289940825, 36.99296523797293 33.55029585798817, 41.124089248679205 34.349112426035504, 43.86105334697923 35.14792899408284, 41.310129907971756 35.94674556213018, 42.46417482307063 36.74556213017752, 35.75966468129486 37.54437869822485, 33.64868120021408 38.34319526627219, 31.48789120816279 39.142011834319526, 35.97573891198213 39.94082840236687, 43.357749289438516 40.7396449704142, 40.21869266358768 41.53846153846154, 38.02995898508029 42.337278106508876, 38.48155882886991 43.13609467455622, 33.89969523451447 43.93491124260355, 28.46868877849291 44.73372781065089, 26.14006035846917 45.532544378698226, 19.365217602538397 46.33136094674556, 16.928195653080095 47.1301775147929, 23.913357714570367 47.928994082840234, 21.93404927227258 48.72781065088758, 24.34177088373426 49.52662721893491, 30.341184061799538 50.32544378698225, 24.683367907237354 51.124260355029584, 22.367382153999273 51.92307692307693, 26.724981168700886 52.72189349112426, 24.173012676525 53.5207100591716, 22.012154626461818 54.319526627218934, 25.155903518771446 55.11834319526627, 21.25005974212585 55.91715976331361, 29.086408809744295 56.71597633136094, 28.658329511665098 57.514792899408285, 33.600090409420716 58.31360946745562, 31.720029585778448 59.11242603550296, 34.614435395812485 59.91124260355029, 37.02644231812043 60.710059171597635, 39.39377696549527 61.50887573964497, 37.890875572455066 62.307692307692314, 37.903133007430746 63.10650887573964, 35.42527235658846 63.90532544378698, 40.480835974164656 64.70414201183432, 42.78732722017069 65.50295857988165, 41.03575742830812 66.30177514792899, 39.348083359745246 67.10059171597634, 38.857603221809796 67.89940828402366, 41.33286022708446 68.69822485207101, 39.307674555075074 69.49704142011834, 39.95194174072747 70.29585798816568, 40.91898410661279 71.09467455621302, 44.450598783350344 71.89349112426036, 39.41647982624657 72.6923076923077, 40.56386104749443 73.49112426035504, 38.97448729253522 74.28994082840237, 37.32843634947627 75.0887573964497, 35.29408709306309 75.88757396449704, 40.3617130461537 76.68639053254438, 41.27000485489341 77.48520710059172, 40.639202828139545 78.28402366863905, 50.0 79.0828402366864, 44.69413348226052 79.88165680473374, 41.994724842869665 80.68047337278107, 37.76513132516345 81.4792899408284, 36.9961836191002 82.27810650887574, 37.7967444759506 83.07692307692308, 32.18072134178295 83.87573964497041, 33.10164515323126 84.67455621301775, 29.240046531797237 85.4733727810651, 26.37548320503884 86.27218934911244, 25.04055628066687 87.07100591715975, 25.007418202937103 87.8698224852071, 25.616018359019083 88.66863905325444, 27.65347253822262 89.46745562130178, 24.362188928300668 90.26627218934911, 22.015424679966042 91.06508875739645, 16.9345825448815 91.8639053254438, 18.41065502351559 92.66272189349112, 16.47554680411689 93.46153846153845, 15.814980656074415 94.2603550295858, 16.88640423046265 95.05917159763314, 18.177089006741166 95.85798816568047, 16.68961684649732 96.65680473372781, 16.141801761906322 97.45562130177515, 15.610655809257956 98.2544378698225, 18.68921381362855 99.05325443786982, 19.037968654445965 99.85207100591715, 20.762999648571725 100.6508875739645, 21.834273977097737 101.44970414201183, 19.59642751828692 102.24852071005917, 22.6015168896299 103.04733727810651, 24.44060011168147 103.84615384615385, 22.994508757708505 104.64497041420118, 22.74685616158348 105.44378698224853, 21.46942870043494 106.24260355029585, 19.369106556759494 107.0414201183432, 19.54041669960586 107.84023668639053, 16.3447473027897 108.63905325443787, 21.16834851596364 109.43786982248521, 22.25403447944097 110.23668639053254, 18.917899778163203 111.03550295857988, 19.27583416984565 111.83431952662723, 18.279056966868374 112.63313609467457, 16.91652756335296 113.43195266272188, 17.068357800821925 114.23076923076923, 16.985895773819575 115.02958579881657, 19.072165151634312 115.82840236686391, 19.066207359943366 116.62721893491124, 21.393964617093562 117.42603550295858, 21.067966851928226 118.22485207100593, 15.07385471948582 119.02366863905324, 16.219312166121476 119.82248520710058, 11.424511188112026 120.62130177514793, 7.746000654685167 121.42011834319527, 15.500689952618607 122.2189349112426, 17.00267382263415 123.01775147928994, 25.26489889104538 123.81656804733728, 21.658519796287315 124.61538461538463, 21.26161366596062 125.41420118343194, 19.403208016893238 126.21301775147928, 20.840655521343884 127.01183431952663, 13.938467617020017 127.81065088757396, 7.549668580782947 128.60946745562129, 2.627872618858679 129.40828402366864, 0.6699231415652527 130.20710059171597, 3.4378957152536596 131.0059171597633, 1.2575885908712678 131.80473372781066, 1.6865605946651308 132.60355029585799, 1.0429569655877196 133.40236686390534, 0.9946536170848079 134.20118343195267, 0.495955553085645" fill="none" stroke="#32ca5b" stroke-width="1.25"/>

</svg>