<?xml version="1.0" standalone="no"?>
<!DOCTYPE svg PUBLIC "-//W3C//DTD SVG 1.1//EN" "http://www.w3.org/Graphics/SVG/1.1/DTD/svg11.dtd">

<svg width="135" height="50" viewBox="0 0 135 50" preserveAspectRatio="none" 
  xmlns="http://www.w3.org/2000/svg"
  xmlns:xlink="http://www.w3.org/1999/xlink">


<polyline points="0.0, 21.219728542872538 0.7988165680473372, 21.709867614753726 1.5976331360946745, 20.096296834428482 2.396449704142012, 23.94727227107166 3.195266272189349, 21.55033208277175 3.994082840236686, 20.298409182365653 4.792899408284024, 21.02374243634362 5.591715976331361, 21.524185515525378 6.390532544378698, 22.642671565669026 7.189349112426036, 25.294758240504056 7.988165680473372, 20.298783868399767 8.78698224852071, 15.415069372194495 9.585798816568047, 20.252997389869858 10.384615384615385, 15.757924929860659 11.183431952662723, 24.53620121417964 11.982248520710058, 30.876116954495437 12.781065088757396, 34.7216043884409 13.579881656804734, 34.00081351201866 14.378698224852071, 33.219094232834074 15.177514792899409, 29.461065547747715 15.976331360946745, 29.860090424729524 16.775147928994084, 25.766280963157346 17.57396449704142, 24.794440411411006 18.37278106508876, 26.188196889142457 19.171597633136095, 29.186845168831894 19.970414201183434, 32.259023005184766 20.76923076923077, 34.155803786649784 21.56804733727811, 34.198520963773404 22.366863905325445, 35.30032571891313 23.16568047337278, 36.856953133717965 23.964497041420117, 40.08171886913575 24.763313609467456, 41.26145517059008 25.562130177514792, 40.4030157770676 26.36094674556213, 48.28021557577509 27.159763313609467, 45.03358339863631 27.958579881656807, 47.53039062269176 28.757396449704142, 44.67810432346291 29.55621301775148, 46.32498351446156 30.355029585798817, 48.844325756087954 31.153846153846157, 46.695065454673156 31.95266272189349, 44.89454544216192 32.751479289940825, 47.36857351544406 33.55029585798817, 48.03602551989927 34.349112426035504, 44.663811465502064 35.14792899408284, 44.61844681856528 35.94674556213018, 40.384818863757474 36.74556213017752, 39.9776706215031 37.54437869822485, 38.246895407191985 38.34319526627219, 41.53096403944873 39.142011834319526, 45.679935685725724 39.94082840236687, 44.66001032412643 40.7396449704142, 42.455939780912786 41.53846153846154, 42.30952846372908 42.337278106508876, 38.46039913455617 43.13609467455622, 33.08024174918161 43.93491124260355, 33.36173539149599 44.73372781065089, 32.47418593626051 45.532544378698226, 30.199941169963985 46.33136094674556, 34.37831489753672 47.1301775147929, 34.83974667251014 47.928994082840234, 36.047967796852745 48.72781065088758, 39.41402424972972 49.52662721893491, 35.70689691315578 50.32544378698225, 34.441319703261634 51.124260355029584, 37.24822825944822 51.92307692307693, 35.49702387668642 52.72189349112426, 33.48366165140702 53.5207100591716, 35.079960239484585 54.319526627218934, 32.10224067474153 55.11834319526627, 35.51528058600162 55.91715976331361, 34.93755165635336 56.71597633136094, 37.827656084324865 57.514792899408285, 36.77948798897574 58.31360946745562, 39.003005782404834 59.11242603550296, 41.869518412402336 59.91124260355029, 43.63592806550418 60.710059171597635, 41.86545168896383 61.50887573964497, 43.249600474991254 62.307692307692314, 39.96165733019409 63.10650887573964, 44.31848000869038 63.90532544378698, 47.09228471903222 64.70414201183432, 46.12833488413617 65.50295857988165, 44.63529830891019 66.30177514792899, 43.86023725895317 67.10059171597634, 45.92707855394926 67.89940828402366, 45.36140996275344 68.69822485207101, 40.01686768172836 69.49704142011834, 43.35526090722376 70.29585798816568, 43.355682316168846 71.09467455621302, 41.070825513572366 71.89349112426036, 41.929316274426306 72.6923076923077, 39.260319363105964 73.49112426035504, 38.90688043915736 74.28994082840237, 40.312355269513986 75.0887573964497, 44.23878941634848 75.88757396449704, 45.06223577010559 76.68639053254438, 43.89018813283387 77.48520710059172, 50.0 78.28402366863905, 48.02927646618227 79.0828402366864, 46.35954890277711 79.88165680473374, 43.51474238557449 80.68047337278107, 41.34044856881057 81.4792899408284, 42.86078074882321 82.27810650887574, 34.63316323920893 83.07692307692308, 34.99000065933472 83.87573964497041, 32.86563719593005 84.67455621301775, 31.167951294779687 85.4733727810651, 29.143144262012772 86.27218934911244, 31.19618672831698 87.07100591715975, 31.15316625895943 87.8698224852071, 33.310296303589 88.66863905325444, 34.36776268055709 89.46745562130178, 32.06178876026889 90.26627218934911, 28.907961198261233 91.06508875739645, 31.41166338943937 91.8639053254438, 29.45543006891187 92.66272189349112, 30.304972108152196 93.46153846153845, 28.098475171817196 94.2603550295858, 28.706765758500747 95.05917159763314, 25.544479619758093 95.85798816568047, 22.290178922233448 96.65680473372781, 19.47085279205787 97.45562130177515, 25.23808990886342 98.2544378698225, 26.358782553900667 99.05325443786982, 28.87851451881519 99.85207100591715, 28.93907827913108 100.6508875739645, 28.06764230820476 101.44970414201183, 25.9576612990755 102.24852071005917, 28.576276147320417 103.04733727810651, 27.48623268581601 103.84615384615385, 27.43155841255008 104.64497041420118, 23.129004600707685 105.44378698224853, 14.926043734674204 106.24260355029585, 2.816387398219114 107.0414201183432, 12.1121011027601 107.84023668639053, 12.266265895183977 108.63905325443787, 12.83630104734755 109.43786982248521, 9.816042145578969 110.23668639053254, 7.866835230078281 111.03550295857988, 4.988911511278861 111.83431952662723, 6.420959673403331 112.63313609467457, 8.136702229471693 113.43195266272188, 10.591195202984965 114.23076923076923, 7.643702937780226 115.02958579881657, 10.634562440091296 115.82840236686391, 12.416226309825847 116.62721893491124, 15.38797938186238 117.42603550295858, 16.108117768179234 118.22485207100593, 16.966572456554513 119.02366863905324, 16.724593096711352 119.82248520710058, 16.43152460306113 120.62130177514793, 19.156353231324655 121.42011834319527, 19.76623209894822 122.2189349112426, 23.900827390219977 123.01775147928994, 21.50088891597383 123.81656804733728, 21.189140912643246 124.61538461538463, 20.984702303838834 125.41420118343194, 19.79042630989471 126.21301775147928, 15.462755355104946 127.01183431952663, 11.901420931413355 127.81065088757396, 7.724649917512483 128.60946745562129, 8.360804947000318 129.40828402366864, 8.1083206538411 130.20710059171597, 5.856694619738775 131.0059171597633, 7.066244217920222 131.80473372781066, 2.891322008714255 132.60355029585799, 2.949088262496443 133.40236686390534, 0.0 134.20118343195267, 0.8036201387739382" fill="none" stroke="#32ca5b" stroke-width="1.25"/>

</svg>