<?xml version="1.0" standalone="no"?>
<!DOCTYPE svg PUBLIC "-//W3C//DTD SVG 1.1//EN" "http://www.w3.org/Graphics/SVG/1.1/DTD/svg11.dtd">

<svg width="135" height="50" viewBox="0 0 135 50" preserveAspectRatio="none" 
  xmlns="http://www.w3.org/2000/svg"
  xmlns:xlink="http://www.w3.org/1999/xlink">


<polyline points="0.0, 26.221017853937852 0.7988165680473372, 28.837965363317608 1.5976331360946745, 30.436173058946842 2.396449704142012, 28.389899921075262 3.195266272189349, 28.370199844048365 3.994082840236686, 30.946902283581075 4.792899408284024, 31.235707410609017 5.591715976331361, 31.12700080552202 6.390532544378698, 26.849742739711026 7.189349112426036, 28.103137476732027 7.988165680473372, 29.724727754530754 8.78698224852071, 25.43757010853319 9.585798816568047, 22.260708369683822 10.384615384615385, 24.777853486695523 11.183431952662723, 22.99030015614243 11.982248520710058, 29.163614346822314 12.781065088757396, 35.97201612169002 13.579881656804734, 37.85900506550448 14.378698224852071, 34.46942187062126 15.177514792899409, 34.75873871917595 15.976331360946745, 31.497422448781748 16.775147928994084, 29.121577474935222 17.57396449704142, 28.290373694195807 18.37278106508876, 28.653734293047545 19.171597633136095, 27.691843248209207 19.970414201183434, 29.465501812529748 20.76923076923077, 31.907592705272332 21.56804733727811, 32.03872039002234 22.366863905325445, 31.87388992535787 23.16568047337278, 33.19376155212371 23.964497041420117, 36.855300710246105 24.763313609467456, 38.96518675111881 25.562130177514792, 40.76841699102601 26.36094674556213, 39.51329951039952 27.159763313609467, 46.898825641654895 27.958579881656807, 44.749389677488864 28.757396449704142, 45.67933956469625 29.55621301775148, 44.05814760195302 30.355029585798817, 47.05683851183078 31.153846153846157, 48.42044217908088 31.95266272189349, 46.67714606195483 32.751479289940825, 44.21285388196844 33.55029585798817, 45.41535525007281 34.349112426035504, 46.828445166248024 35.14792899408284, 49.41749776367369 35.94674556213018, 50.0 36.74556213017752, 46.61275837279899 37.54437869822485, 43.481751792013014 38.34319526627219, 39.83699648222698 39.142011834319526, 40.90515895887809 39.94082840236687, 41.8661566194679 40.7396449704142, 42.53461098482562 41.53846153846154, 43.80131425078736 42.337278106508876, 44.556260160093856 43.13609467455622, 37.31960186254925 43.93491124260355, 32.91319417704129 44.73372781065089, 33.69034115353147 45.532544378698226, 30.558076112184278 46.33136094674556, 31.63888467136341 47.1301775147929, 33.77640011480938 47.928994082840234, 34.19687917112611 48.72781065088758, 33.88470187872614 49.52662721893491, 37.38831905656966 50.32544378698225, 33.174790188028524 51.124260355029584, 32.89926241085906 51.92307692307693, 35.669468717938926 52.72189349112426, 35.8200385496461 53.5207100591716, 35.59272775884738 54.319526627218934, 35.87722659077784 55.11834319526627, 35.371003785399665 55.91715976331361, 34.8592358890643 56.71597633136094, 34.76445830826199 57.514792899408285, 36.249852750661745 58.31360946745562, 33.195983250348284 59.11242603550296, 34.57017320179665 59.91124260355029, 38.42135287928824 60.710059171597635, 36.83724676740427 61.50887573964497, 35.36134373774089 62.307692307692314, 33.89472746852156 63.10650887573964, 31.581740994690517 63.90532544378698, 33.66038391739647 64.70414201183432, 35.044450142282265 65.50295857988165, 32.88965683348483 66.30177514792899, 31.344110434075827 67.10059171597634, 33.4083260638424 67.89940828402366, 35.91172871683466 68.69822485207101, 35.875695749609456 69.49704142011834, 22.692879591198697 70.29585798816568, 17.978367488840398 71.09467455621302, 24.610443993058915 71.89349112426036, 24.15803616638808 72.6923076923077, 23.446632766419054 73.49112426035504, 23.10073261632044 74.28994082840237, 18.135141758073875 75.0887573964497, 21.457390015751 75.88757396449704, 22.725890644783608 76.68639053254438, 17.704296622151194 77.48520710059172, 15.251707022743508 78.28402366863905, 21.685620246661188 79.0828402366864, 11.3819763053088 79.88165680473374, 10.513709290099365 80.68047337278107, 7.347476199545268 81.4792899408284, 7.300948521377625 82.27810650887574, 10.293587935882123 83.07692307692308, 0.9154123783749182 83.87573964497041, 3.237492764443524 84.67455621301775, 0.040193852886246606 85.4733727810651, 0.0 86.27218934911244, 6.964457382231906 87.07100591715975, 8.85525811010961 87.8698224852071, 6.843086028827705 88.66863905325444, 7.019504192406674 89.46745562130178, 10.0949438526644 90.26627218934911, 9.95196856682766 91.06508875739645, 10.341619784856233 91.8639053254438, 16.02387370754496 92.66272189349112, 14.86759332373358 93.46153846153845, 15.921062411174477 94.2603550295858, 10.440435846163775 95.05917159763314, 10.690950474279717 95.85798816568047, 10.379288970602037 96.65680473372781, 17.27293776401867 97.45562130177515, 13.436529909168959 98.2544378698225, 13.46030952180308 99.05325443786982, 13.204477951982662 99.85207100591715, 12.72690656079683 100.6508875739645, 17.140944191823177 101.44970414201183, 19.23390813955388 102.24852071005917, 16.609821432893916 103.04733727810651, 15.045888211261676 103.84615384615385, 15.20676015402456 104.64497041420118, 14.987986109565135 105.44378698224853, 15.245661924602455 106.24260355029585, 12.75758089237494 107.0414201183432, 13.118574794861427 107.84023668639053, 13.130191733925049 108.63905325443787, 13.219491364242064 109.43786982248521, 12.700458119208905 110.23668639053254, 13.026841860376775 111.03550295857988, 14.788906364101283 111.83431952662723, 11.902860237459597 112.63313609467457, 13.05403348787029 113.43195266272188, 12.874772174803226 114.23076923076923, 13.647693599398117 115.02958579881657, 14.935063365690663 115.82840236686391, 16.379769564122277 116.62721893491124, 14.454198192456683 117.42603550295858, 14.356817995220583 118.22485207100593, 15.455641731246498 119.02366863905324, 15.771914968560433 119.82248520710058, 18.511552377566623 120.62130177514793, 17.328398344969827 121.42011834319527, 19.184701959180465 122.2189349112426, 18.74367111640101 123.01775147928994, 21.008113633880836 123.81656804733728, 21.052720680624667 124.61538461538463, 21.098382940517805 125.41420118343194, 20.851854686177212 126.21301775147928, 21.20099651285504 127.01183431952663, 21.038749082146083 127.81065088757396, 20.24678423510417 128.60946745562129, 18.42047433376709 129.40828402366864, 11.164201620621617 130.20710059171597, 18.847026030769676 131.0059171597633, 18.663928706078007 131.80473372781066, 11.90270153121914 132.60355029585799, 9.792298924866314 133.40236686390534, 10.194180349550567 134.20118343195267, 9.953374766050393" fill="none" stroke="#32ca5b" stroke-width="1.25"/>

</svg>