<?xml version="1.0" standalone="no"?>
<!DOCTYPE svg PUBLIC "-//W3C//DTD SVG 1.1//EN" "http://www.w3.org/Graphics/SVG/1.1/DTD/svg11.dtd">

<svg width="135" height="50" viewBox="0 0 135 50" preserveAspectRatio="none" 
  xmlns="http://www.w3.org/2000/svg"
  xmlns:xlink="http://www.w3.org/1999/xlink">


<polyline points="0.0, 31.931025408737167 0.7988165680473372, 31.824046629925196 1.5976331360946745, 30.007764557719934 2.396449704142012, 32.51595100383723 3.195266272189349, 30.698113843537616 3.994082840236686, 28.02813932341638 4.792899408284024, 30.665345283164385 5.591715976331361, 32.532567872810816 6.390532544378698, 35.37495418695055 7.189349112426036, 36.464292770254424 7.988165680473372, 34.2362500150899 8.78698224852071, 33.27879560270316 9.585798816568047, 35.75808374899456 10.384615384615385, 33.918529291157796 11.183431952662723, 39.50232579138382 11.982248520710058, 41.802693335210364 12.781065088757396, 40.587978766954336 13.579881656804734, 40.724525612264614 14.378698224852071, 37.67474379547032 15.177514792899409, 38.54819487318835 15.976331360946745, 38.9071588127183 16.775147928994084, 39.17254034196093 17.57396449704142, 37.8323941499248 18.37278106508876, 38.77616090241403 19.171597633136095, 39.022822506103076 19.970414201183434, 40.19600330672802 20.76923076923077, 41.08612552700095 21.56804733727811, 39.8676986679542 22.366863905325445, 38.87966730677396 23.16568047337278, 41.837149981072905 23.964497041420117, 43.98172334363089 24.763313609467456, 45.21041391761965 25.562130177514792, 43.274647997947454 26.36094674556213, 47.201690254253634 27.159763313609467, 44.77307447779281 27.958579881656807, 46.034327162913065 28.757396449704142, 44.43890304675824 29.55621301775148, 46.42099733256694 30.355029585798817, 49.48210704628334 31.153846153846157, 47.91212134291076 31.95266272189349, 47.3307713897012 32.751479289940825, 49.0221748912163 33.55029585798817, 50.0 34.349112426035504, 48.120467417882715 35.14792899408284, 47.53474587848738 35.94674556213018, 44.93549103059887 36.74556213017752, 44.798380566648625 37.54437869822485, 43.91689493549374 38.34319526627219, 44.81227765786663 39.142011834319526, 46.71760455830606 39.94082840236687, 46.30322182928917 40.7396449704142, 45.61463755181619 41.53846153846154, 46.01990706818423 42.337278106508876, 44.17396880961357 43.13609467455622, 41.98095373855936 43.93491124260355, 42.01204573804461 44.73372781065089, 40.58774533314213 45.532544378698226, 39.9319921396602 46.33136094674556, 39.907076100875294 47.1301775147929, 38.98934472244555 47.928994082840234, 39.0969529058537 48.72781065088758, 40.305903364135524 49.52662721893491, 40.05399722986283 50.32544378698225, 39.78867156716218 51.124260355029584, 42.14016612061604 51.92307692307693, 37.55657877409524 52.72189349112426, 37.93642817415496 53.5207100591716, 38.84410359190964 54.319526627218934, 34.34219547500801 55.11834319526627, 36.23768119744544 55.91715976331361, 37.269042922935114 56.71597633136094, 38.21808279099467 57.514792899408285, 37.8943153077432 58.31360946745562, 38.76057759136317 59.11242603550296, 39.68192334331583 59.91124260355029, 40.11723302765166 60.710059171597635, 39.54496378633678 61.50887573964497, 38.69845300878965 62.307692307692314, 38.638088762643854 63.10650887573964, 39.76354422153582 63.90532544378698, 41.924952844557275 64.70414201183432, 41.24858227806441 65.50295857988165, 41.03237771754647 66.30177514792899, 40.87624666239052 67.10059171597634, 41.433335658724566 67.89940828402366, 38.559592675529245 68.69822485207101, 36.928128632663196 69.49704142011834, 39.59554077809376 70.29585798816568, 36.16004693894337 71.09467455621302, 34.56905202144342 71.89349112426036, 35.7716207223475 72.6923076923077, 36.05362251672258 73.49112426035504, 35.574338486764965 74.28994082840237, 36.563464179760466 75.0887573964497, 37.060508423491314 75.88757396449704, 36.92830204033307 76.68639053254438, 35.66179007026524 77.48520710059172, 39.80843537262558 78.28402366863905, 37.70775531370041 79.0828402366864, 36.15742166866418 79.88165680473374, 33.152002684743415 80.68047337278107, 33.114774438066284 81.4792899408284, 31.062134786430484 82.27810650887574, 31.58908727698192 83.07692307692308, 26.769738160725016 83.87573964497041, 26.888314106979927 84.67455621301775, 25.58119064287112 85.4733727810651, 26.185003143386897 86.27218934911244, 24.110796944968975 87.07100591715975, 21.38084144123059 87.8698224852071, 0.0 88.66863905325444, 14.425869328954615 89.46745562130178, 19.39857205098697 90.26627218934911, 19.179680580833914 91.06508875739645, 20.386637772259455 91.8639053254438, 23.370749022756872 92.66272189349112, 22.268961724307974 93.46153846153845, 20.920060452769654 94.2603550295858, 23.9406650815036 95.05917159763314, 24.507273426283565 95.85798816568047, 23.885649233960766 96.65680473372781, 21.976657035802134 97.45562130177515, 22.147168920538356 98.2544378698225, 23.217979489666103 99.05325443786982, 23.494631141965385 99.85207100591715, 23.67773477668615 100.6508875739645, 21.784677689831046 101.44970414201183, 19.425544393322944 102.24852071005917, 20.302620046988388 103.04733727810651, 21.93920242566222 103.84615384615385, 21.022011018080157 104.64497041420118, 21.52471727116382 105.44378698224853, 22.53744558072994 106.24260355029585, 23.01665519924966 107.0414201183432, 21.197045959323095 107.84023668639053, 22.980845146047816 108.63905325443787, 23.616697521207314 109.43786982248521, 23.986237270247422 110.23668639053254, 24.44983368910527 111.03550295857988, 24.95183129004486 111.83431952662723, 22.950076132574885 112.63313609467457, 23.938906130339475 113.43195266272188, 24.273401432392532 114.23076923076923, 23.051790123950067 115.02958579881657, 22.723546498612208 115.82840236686391, 23.75167736377773 116.62721893491124, 23.843357537904907 117.42603550295858, 22.522363945900707 118.22485207100593, 22.96553596685684 119.02366863905324, 22.65197742429077 119.82248520710058, 22.78713258143224 120.62130177514793, 27.065283421694204 121.42011834319527, 28.9771866949645 122.2189349112426, 29.756881174564448 123.01775147928994, 24.085882572423706 123.81656804733728, 18.925228050779875 124.61538461538463, 16.034231285282427 125.41420118343194, 18.273876903962066 126.21301775147928, 18.19964584900693 127.01183431952663, 19.57299890968708 127.81065088757396, 18.45201954316897 128.60946745562129, 19.566452171715436 129.40828402366864, 19.914764050768866 130.20710059171597, 19.073955103166274 131.0059171597633, 19.65345702544363 131.80473372781066, 18.50392009710636 132.60355029585799, 19.605476714783617 133.40236686390534, 18.483621808427632 134.20118343195267, 18.529621463378433" fill="none" stroke="#32ca5b" stroke-width="1.25"/>

</svg>