<?xml version="1.0" standalone="no"?>
<!DOCTYPE svg PUBLIC "-//W3C//DTD SVG 1.1//EN" "http://www.w3.org/Graphics/SVG/1.1/DTD/svg11.dtd">

<svg width="135" height="50" viewBox="0 0 135 50" preserveAspectRatio="none" 
  xmlns="http://www.w3.org/2000/svg"
  xmlns:xlink="http://www.w3.org/1999/xlink">


<polyline points="0.0, 25.961786598500275 0.7988165680473372, 27.04907825253749 1.5976331360946745, 21.74853503054529 2.396449704142012, 23.428213749473244 3.195266272189349, 19.6177411639143 3.994082840236686, 21.791207915164932 4.792899408284024, 18.95823949542701 5.591715976331361, 17.992924687735748 6.390532544378698, 23.984037291791914 7.189349112426036, 28.263250169415265 7.988165680473372, 22.280559657597383 8.78698224852071, 17.111104149210256 9.585798816568047, 19.880464331973368 10.384615384615385, 16.506161233306884 11.183431952662723, 26.794319925497884 11.982248520710058, 36.830939674301824 12.781065088757396, 40.66087399514984 13.579881656804734, 39.57187928863828 14.378698224852071, 36.25834940849168 15.177514792899409, 31.730695949073766 15.976331360946745, 30.725553115433147 16.775147928994084, 28.79008995476353 17.57396449704142, 26.31651854892173 18.37278106508876, 27.672977291319377 19.171597633136095, 24.303828932680176 19.970414201183434, 20.88596623537762 20.76923076923077, 20.90311993309867 21.56804733727811, 22.529101310378337 22.366863905325445, 25.15829917433439 23.16568047337278, 26.672836475612126 23.964497041420117, 29.651202628930704 24.763313609467456, 32.599843822580524 25.562130177514792, 28.220428863164194 26.36094674556213, 40.174965287045495 27.159763313609467, 38.8397966417178 27.958579881656807, 43.733969477706594 28.757396449704142, 38.810446726820444 29.55621301775148, 42.02594202046603 30.355029585798817, 47.17462282177467 31.153846153846157, 45.68297881666653 31.95266272189349, 44.483680539776294 32.751479289940825, 47.241462334219015 33.55029585798817, 50.0 34.349112426035504, 46.62671597500781 35.14792899408284, 47.19293844522906 35.94674556213018, 40.34661295743845 36.74556213017752, 36.53417191968195 37.54437869822485, 33.71910777731571 38.34319526627219, 38.04400212244289 39.142011834319526, 46.1946820340303 39.94082840236687, 44.78084813227158 40.7396449704142, 42.04641174898895 41.53846153846154, 39.68680658979552 42.337278106508876, 36.35736624412297 43.13609467455622, 34.54405290259389 43.93491124260355, 33.8606346190046 44.73372781065089, 31.835558981601313 45.532544378698226, 30.148725395411617 46.33136094674556, 33.15069462370516 47.1301775147929, 30.77596468752784 47.928994082840234, 32.617288649319796 48.72781065088758, 38.345438677553204 49.52662721893491, 32.38858717379776 50.32544378698225, 30.75276335829295 51.124260355029584, 33.40001959065227 51.92307692307693, 29.48344480629801 52.72189349112426, 29.266215890840076 53.5207100591716, 30.076313749992718 54.319526627218934, 27.106668835230597 55.11834319526627, 32.56067335729768 55.91715976331361, 33.04478742740457 56.71597633136094, 35.07003097769168 57.514792899408285, 30.407412512509406 58.31360946745562, 32.35142963229502 59.11242603550296, 36.16255493279129 59.91124260355029, 38.799626660253644 60.710059171597635, 36.87365082086368 61.50887573964497, 35.240059438903224 62.307692307692314, 34.032990564316194 63.10650887573964, 35.05367397691581 63.90532544378698, 40.080258844663454 64.70414201183432, 40.212510185089926 65.50295857988165, 36.22748058162282 66.30177514792899, 35.83607287661293 67.10059171597634, 38.6724362176102 67.89940828402366, 34.49791322548391 68.69822485207101, 26.0191875575407 69.49704142011834, 29.663290058684176 70.29585798816568, 32.69157760909988 71.09467455621302, 28.098437593936676 71.89349112426036, 26.431711145904906 72.6923076923077, 25.458043275014973 73.49112426035504, 24.414171015543975 74.28994082840237, 28.256034450799923 75.0887573964497, 32.021513863757924 75.88757396449704, 32.14648225697645 76.68639053254438, 27.691793500858335 77.48520710059172, 36.85097684781052 78.28402366863905, 30.57051650094667 79.0828402366864, 28.893610576241567 79.88165680473374, 27.33593363832709 80.68047337278107, 26.551673308004315 81.4792899408284, 25.049217030666508 82.27810650887574, 20.577923406520046 83.07692307692308, 21.874297460943133 83.87573964497041, 18.79924760626328 84.67455621301775, 18.78699020678666 85.4733727810651, 20.893602724056016 86.27218934911244, 22.945841372465132 87.07100591715975, 21.120914769691623 87.8698224852071, 19.482947780806498 88.66863905325444, 20.485984744004632 89.46745562130178, 18.983780088519595 90.26627218934911, 17.65905674743406 91.06508875739645, 19.21492991566787 91.8639053254438, 18.898723846579195 92.66272189349112, 20.355458535973654 93.46153846153845, 18.72529508351239 94.2603550295858, 20.582283459106485 95.05917159763314, 19.540294290530316 95.85798816568047, 21.586653015289887 96.65680473372781, 19.71503901714025 97.45562130177515, 18.402285433540698 98.2544378698225, 20.615279445548946 99.05325443786982, 21.110324964211525 99.85207100591715, 21.065222396346197 100.6508875739645, 8.761288671845938 101.44970414201183, 12.93372714775633 102.24852071005917, 12.634654394182249 103.04733727810651, 14.131827582342826 103.84615384615385, 11.327063256438743 104.64497041420118, 6.219850859970227 105.44378698224853, 5.953223816893571 106.24260355029585, 7.879128422582039 107.0414201183432, 7.738109946442603 107.84023668639053, 11.368778222239339 108.63905325443787, 13.347086644536981 109.43786982248521, 11.046158858633765 110.23668639053254, 7.425149279585823 111.03550295857988, 8.566901517823954 111.83431952662723, 9.226415754718433 112.63313609467457, 8.629394050976465 113.43195266272188, 7.673127267052318 114.23076923076923, 7.13205311831626 115.02958579881657, 9.600287711402698 115.82840236686391, 13.60632304294532 116.62721893491124, 15.84012175885316 117.42603550295858, 13.360814053766534 118.22485207100593, 13.638034869208433 119.02366863905324, 10.467242651784897 119.82248520710058, 10.626009990656234 120.62130177514793, 16.599388998452604 121.42011834319527, 16.840058913350145 122.2189349112426, 24.98304107383206 123.01775147928994, 21.032802253667263 123.81656804733728, 19.814192067154455 124.61538461538463, 17.18121592608784 125.41420118343194, 17.819334494444565 126.21301775147928, 12.115064918736447 127.01183431952663, 10.03168208154009 127.81065088757396, 7.752121353445974 128.60946745562129, 7.800936918284728 129.40828402366864, 9.576763988139508 130.20710059171597, 6.755895317633633 131.0059171597633, 3.3214851577946902 131.80473372781066, 2.3962444517453942 132.60355029585799, 0.0 133.40236686390534, 1.5971773215441538 134.20118343195267, 1.3443073964241377" fill="none" stroke="#32ca5b" stroke-width="1.25"/>

</svg>