<?xml version="1.0" standalone="no"?>
<!DOCTYPE svg PUBLIC "-//W3C//DTD SVG 1.1//EN" "http://www.w3.org/Graphics/SVG/1.1/DTD/svg11.dtd">

<svg width="135" height="50" viewBox="0 0 135 50" preserveAspectRatio="none" 
  xmlns="http://www.w3.org/2000/svg"
  xmlns:xlink="http://www.w3.org/1999/xlink">


<polyline points="0.0, 31.854219766574243 0.7988165680473372, 29.918708523070382 1.5976331360946745, 23.588990006823053 2.396449704142012, 28.251148947119326 3.195266272189349, 25.63413584612686 3.994082840236686, 19.67643366827515 4.792899408284024, 15.12334938397412 5.591715976331361, 14.43924674520671 6.390532544378698, 18.6361483998944 7.189349112426036, 25.153751863016936 7.988165680473372, 17.301002177161575 8.78698224852071, 10.345689276214781 9.585798816568047, 16.38616671767187 10.384615384615385, 7.7624589421360195 11.183431952662723, 20.530922161612615 11.982248520710058, 34.237701463004576 12.781065088757396, 42.174070403633856 13.579881656804734, 40.63829516744315 14.378698224852071, 41.745757805217934 15.177514792899409, 30.609571996416623 15.976331360946745, 24.960873169208693 16.775147928994084, 21.32913760815734 17.57396449704142, 19.005683625910645 18.37278106508876, 20.173019079054864 19.171597633136095, 24.375185707617106 19.970414201183434, 27.89243681247045 20.76923076923077, 25.52582416573848 21.56804733727811, 22.52368368639115 22.366863905325445, 24.56297032509543 23.16568047337278, 27.38394193539449 23.964497041420117, 31.821811783034143 24.763313609467456, 38.068709193522125 25.562130177514792, 36.09545735158534 26.36094674556213, 47.400356180786055 27.159763313609467, 46.53919580862872 27.958579881656807, 50.0 28.757396449704142, 40.819996011418084 29.55621301775148, 37.21581478363821 30.355029585798817, 46.62894279893817 31.153846153846157, 42.53410094875761 31.95266272189349, 40.62096896837241 32.751479289940825, 47.04224426293568 33.55029585798817, 48.5246396776663 34.349112426035504, 44.102299626121976 35.14792899408284, 46.45070540894121 35.94674556213018, 37.09991696658009 36.74556213017752, 34.2783652270116 37.54437869822485, 32.85256390231718 38.34319526627219, 37.20944989979721 39.142011834319526, 44.98802662591487 39.94082840236687, 41.76175521986554 40.7396449704142, 38.499414089093406 41.53846153846154, 37.270805127028595 42.337278106508876, 30.03392630968978 43.13609467455622, 16.790320187072265 43.93491124260355, 12.517956792678039 44.73372781065089, 10.230548803813285 45.532544378698226, 10.985096964195135 46.33136094674556, 12.827084523640991 47.1301775147929, 11.921777090015327 47.928994082840234, 10.339126416925499 48.72781065088758, 19.77689230033143 49.52662721893491, 11.249836420540856 50.32544378698225, 7.758681931749099 51.124260355029584, 15.564195947723828 51.92307692307693, 13.967088451161011 52.72189349112426, 12.2390853866882 53.5207100591716, 14.769120785546267 54.319526627218934, 10.022515747408347 55.11834319526627, 15.021652325686198 55.91715976331361, 16.63353368859174 56.71597633136094, 20.239546981661515 57.514792899408285, 19.800405921767183 58.31360946745562, 22.51768017991062 59.11242603550296, 25.809980905723258 59.91124260355029, 30.789740263901354 60.710059171597635, 27.695710296359877 61.50887573964497, 26.254687245692722 62.307692307692314, 22.07402428213954 63.10650887573964, 28.93893516252028 63.90532544378698, 31.05775492749629 64.70414201183432, 31.19348196240555 65.50295857988165, 28.576738289733573 66.30177514792899, 27.46545228977218 67.10059171597634, 31.520182052837274 67.89940828402366, 28.371361657567682 68.69822485207101, 25.685489955465574 69.49704142011834, 31.204057443730477 70.29585798816568, 32.755045748887504 71.09467455621302, 27.033817337267646 71.89349112426036, 26.46454622299822 72.6923076923077, 26.01461620442935 73.49112426035504, 23.682459010375418 74.28994082840237, 28.82664340626518 75.0887573964497, 31.29313650300338 75.88757396449704, 31.916197068141482 76.68639053254438, 37.62767293138339 77.48520710059172, 48.656224758899 78.28402366863905, 41.82431686171535 79.0828402366864, 37.96996585771398 79.88165680473374, 30.403832312166497 80.68047337278107, 29.40450748637522 81.4792899408284, 30.807413937290733 82.27810650887574, 28.004066124921845 83.07692307692308, 26.95813663176285 83.87573964497041, 21.322345276491976 84.67455621301775, 19.43719745494353 85.4733727810651, 19.08333258768383 86.27218934911244, 24.076639073746716 87.07100591715975, 18.199969567139703 87.8698224852071, 25.491080644763507 88.66863905325444, 23.34489967232637 89.46745562130178, 19.803863916892645 90.26627218934911, 15.434223741169687 91.06508875739645, 16.21129384077981 91.8639053254438, 15.05126151911608 92.66272189349112, 10.866417447183547 93.46153846153845, 10.769384382659393 94.2603550295858, 12.606840941448391 95.05917159763314, 11.829134035366737 95.85798816568047, 10.603068218589899 96.65680473372781, 9.610987983610256 97.45562130177515, 12.801017686802444 98.2544378698225, 13.266940652946765 99.05325443786982, 16.606194688916197 99.85207100591715, 14.549760839720033 100.6508875739645, 15.386576883291916 101.44970414201183, 19.22544553348283 102.24852071005917, 22.798867321712045 103.04733727810651, 20.529184527009445 103.84615384615385, 20.853428584408082 104.64497041420118, 17.66858666455488 105.44378698224853, 16.139100128651723 106.24260355029585, 17.556163043727572 107.0414201183432, 16.341792913466378 107.84023668639053, 19.959423463312998 108.63905325443787, 20.787882636373066 109.43786982248521, 18.179404204227644 110.23668639053254, 19.572252240201575 111.03550295857988, 17.883625204401998 111.83431952662723, 17.20631312173132 112.63313609467457, 15.99601718546175 113.43195266272188, 17.132476768277826 114.23076923076923, 16.324230069116556 115.02958579881657, 16.09892783099621 115.82840236686391, 19.99622723697535 116.62721893491124, 21.865915873852913 117.42603550295858, 19.147741792626576 118.22485207100593, 18.05610757368005 119.02366863905324, 16.784896249499614 119.82248520710058, 13.105897725722096 120.62130177514793, 19.279221655836373 121.42011834319527, 19.803888510965137 122.2189349112426, 31.09322035689707 123.01775147928994, 27.185734542859475 123.81656804733728, 26.554618171133775 124.61538461538463, 23.793377910552298 125.41420118343194, 24.183650417924703 126.21301775147928, 17.57558051898419 127.01183431952663, 10.05990782356439 127.81065088757396, 5.99830157799838 128.60946745562129, 5.115351471413308 129.40828402366864, 9.416470028520566 130.20710059171597, 4.345973157228714 131.0059171597633, 2.8668779955285535 131.80473372781066, 0.0 132.60355029585799, 0.634990893345333 133.40236686390534, 1.3988437883539877 134.20118343195267, 0.6243090790517065" fill="none" stroke="#32ca5b" stroke-width="1.25"/>

</svg>