<?xml version="1.0" standalone="no"?>
<!DOCTYPE svg PUBLIC "-//W3C//DTD SVG 1.1//EN" "http://www.w3.org/Graphics/SVG/1.1/DTD/svg11.dtd">

<svg width="135" height="50" viewBox="0 0 135 50" preserveAspectRatio="none" 
  xmlns="http://www.w3.org/2000/svg"
  xmlns:xlink="http://www.w3.org/1999/xlink">


<polyline points="0.0, 17.7702898278786 0.8035714285714285, 20.172590107666068 1.607142857142857, 18.59183275041663 2.4107142857142856, 22.100897059696646 3.214285714285714, 20.911030726474674 4.017857142857142, 18.876962110333213 4.821428571428571, 17.638229743199314 5.625, 19.83387291575005 6.428571428571428, 22.69413749867681 7.232142857142857, 25.85762028971443 8.035714285714285, 22.927173927718524 8.839285714285715, 21.74623485876765 9.642857142857142, 24.10124363134206 10.446428571428571, 20.313103509142984 11.25, 28.384590344932743 12.053571428571429, 32.33693121851904 12.857142857142856, 35.72076416673289 13.660714285714286, 34.37467169755311 14.464285714285714, 33.058229041833975 15.267857142857142, 29.9722497009134 16.07142857142857, 30.503483663843234 16.875, 29.845817176119795 17.67857142857143, 27.312853825226917 18.482142857142858, 27.8120700841978 19.285714285714285, 29.43058210166976 20.089285714285715, 32.19100187527361 20.892857142857142, 33.72396152231223 21.696428571428573, 33.87249414127781 22.5, 35.466658973693875 23.303571428571427, 37.00428818490192 24.107142857142858, 39.426773356510175 24.91071428571429, 39.785773620708326 25.71428571428571, 36.81936445328872 26.517857142857142, 43.62285518006002 27.321428571428573, 42.38589519719348 28.125, 44.917463912750534 28.928571428571427, 42.219640549169455 29.732142857142858, 43.371764008411375 30.535714285714285, 46.86458214737491 31.339285714285715, 44.25799177784095 32.14285714285714, 42.67163471443835 32.94642857142857, 45.573849772580274 33.75, 47.26260981730711 34.55357142857142, 45.298542259668615 35.35714285714286, 46.91794166374645 36.160714285714285, 43.159007310618726 36.964285714285715, 42.445720733537485 37.767857142857146, 40.96949789626944 38.57142857142857, 44.02157783338715 39.375, 48.35148795617237 40.17857142857143, 46.85165424565252 40.982142857142854, 45.422950218603866 41.785714285714285, 47.233295056463 42.589285714285715, 45.72271937540125 43.392857142857146, 43.625679298911905 44.19642857142857, 41.49016871397154 45.0, 40.08134680295486 45.80357142857143, 39.49073290607629 46.607142857142854, 42.644336460229596 47.410714285714285, 44.24819985788043 48.214285714285715, 45.37954467703133 49.01785714285714, 47.70392431011441 49.82142857142858, 45.13240209782178 50.625, 42.66038680097306 51.42857142857142, 45.459468319524916 52.23214285714286, 44.10441699946726 53.035714285714285, 43.22834861194419 53.839285714285715, 44.33159213116826 54.642857142857146, 41.5913070697829 55.44642857142857, 44.8400871285533 56.25, 44.55996081566461 57.05357142857143, 47.24528662983299 57.857142857142854, 45.48179935105525 58.660714285714285, 46.40635142252423 59.464285714285715, 48.40755754106058 60.267857142857146, 48.337630723324786 61.07142857142857, 47.83776557565286 61.875, 47.487056131936434 62.67857142857143, 46.32020522165728 63.482142857142854, 48.57790498620227 64.28571428571428, 50.0 65.08928571428572, 47.55445126386175 65.89285714285714, 45.41398615152989 66.69642857142857, 45.14549174837527 67.5, 47.12419069348521 68.30357142857143, 45.273118915548416 69.10714285714285, 45.147534787275504 69.91071428571429, 42.34201993438057 70.71428571428572, 44.431804183060834 71.51785714285714, 39.70047205157668 72.32142857142857, 39.6194117157793 73.125, 39.78562097527265 73.92857142857143, 39.36163066908382 74.73214285714286, 40.663561723989794 75.53571428571429, 42.29816639656817 76.33928571428571, 42.016326343443104 77.14285714285714, 40.76760786120271 77.94642857142857, 47.44837254472857 78.75, 43.19445085278432 79.55357142857143, 41.00028352983867 80.35714285714286, 39.213347183878284 81.16071428571428, 37.26557903747809 81.96428571428571, 37.026505211960135 82.76785714285715, 31.361355460418398 83.57142857142857, 26.732683703340047 84.375, 22.444353246006525 85.17857142857143, 25.2841971122624 85.98214285714285, 23.627239594786076 86.78571428571429, 26.49911604201535 87.58928571428572, 26.96714194185453 88.39285714285714, 31.35255486632164 89.19642857142857, 31.634275755637077 90.0, 29.886701135030357 90.80357142857143, 26.817774448859154 91.60714285714286, 29.215248041523108 92.41071428571429, 27.747155822428827 93.21428571428571, 26.633258624773383 94.01785714285714, 25.317365914253383 94.82142857142857, 26.92323620416946 95.625, 26.469781689815864 96.42857142857143, 26.522527912000793 97.23214285714286, 26.086644790793144 98.03571428571428, 28.78166967891102 98.83928571428571, 29.178406656482547 99.64285714285715, 29.93139211675092 100.44642857142857, 30.654397244561704 101.25, 29.60118452940192 102.05357142857143, 30.15302366748289 102.85714285714285, 31.30887991949274 103.66071428571429, 31.181975570076492 104.46428571428572, 31.310299767767003 105.26785714285714, 30.51643365195585 106.07142857142857, 29.466254294505305 106.875, 30.598627826753138 107.67857142857143, 29.197290294220725 108.48214285714286, 31.0142158492485 109.28571428571429, 31.140113128978825 110.08928571428571, 30.60779173796513 110.89285714285714, 30.731607259636984 111.69642857142857, 29.87145446350839 112.5, 27.433784672704153 113.30357142857143, 28.022684162319106 114.10714285714286, 28.320190095332237 114.91071428571428, 27.385895845797027 115.71428571428571, 26.994600213229177 116.51785714285715, 28.36545086706209 117.32142857142857, 30.218126396947365 118.125, 28.436404335515547 118.92857142857143, 27.853712641908203 119.73214285714285, 26.212328074154485 120.53571428571429, 24.761619476752593 121.33928571428572, 27.850078848436045 122.14285714285714, 25.737475161341695 122.94642857142857, 29.30722314135999 123.75, 25.62535943061234 124.55357142857143, 24.773499327315164 125.35714285714286, 19.855727040821485 126.16071428571429, 18.756914828678717 126.96428571428571, 14.057332693060385 127.76785714285714, 8.513124397710133 128.57142857142856, 4.221044707591582 129.375, 5.26434717578773 130.17857142857144, 7.789101995656751 130.98214285714286, 4.503584900616468 131.78571428571428, 2.3045959427457294 132.5892857142857, 3.3941172519754614 133.39285714285714, 2.993378012255842 134.19642857142858, 0.0" fill="none" stroke="#32ca5b" stroke-width="1.25"/>

</svg>