<?xml version="1.0" standalone="no"?>
<!DOCTYPE svg PUBLIC "-//W3C//DTD SVG 1.1//EN" "http://www.w3.org/Graphics/SVG/1.1/DTD/svg11.dtd">

<svg width="135" height="50" viewBox="0 0 135 50" preserveAspectRatio="none" 
  xmlns="http://www.w3.org/2000/svg"
  xmlns:xlink="http://www.w3.org/1999/xlink">


<polyline points="0.0, 27.060798508237067 0.7988165680473372, 23.572231860428765 1.5976331360946745, 16.894555711574455 2.396449704142012, 11.662960989374733 3.195266272189349, 6.803773457119751 3.994082840236686, 5.4542991597356325 4.792899408284024, 0.9838043065406255 5.591715976331361, 0.0 6.390532544378698, 2.4807643163013005 7.189349112426036, 10.681614295330096 7.988165680473372, 9.6870148404121 8.78698224852071, 10.486948979034958 9.585798816568047, 14.440906469572216 10.384615384615385, 16.64658022989056 11.183431952662723, 27.819744787184664 11.982248520710058, 34.02875406574187 12.781065088757396, 38.17120672255167 13.579881656804734, 37.45487029886817 14.378698224852071, 35.234109117501035 15.177514792899409, 31.581600514758247 15.976331360946745, 30.448594047862237 16.775147928994084, 28.588698840348965 17.57396449704142, 28.605738669475716 18.37278106508876, 28.174684518802064 19.171597633136095, 28.33632744047419 19.970414201183434, 29.998786515913515 20.76923076923077, 31.796712969062064 21.56804733727811, 27.600578288387318 22.366863905325445, 29.011305714470776 23.16568047337278, 32.21854808626302 23.964497041420117, 33.70761264904762 24.763313609467456, 38.08559723165425 25.562130177514792, 33.52984869419581 26.36094674556213, 40.04918076834513 27.159763313609467, 39.501951773865116 27.958579881656807, 42.24294145795667 28.757396449704142, 36.60627447216051 29.55621301775148, 35.80155995921403 30.355029585798817, 44.73139592194122 31.153846153846157, 42.32666019294675 31.95266272189349, 41.84714830547911 32.751479289940825, 46.18754911065851 33.55029585798817, 50.0 34.349112426035504, 47.11643793186168 35.14792899408284, 49.16714781306797 35.94674556213018, 44.2315410546717 36.74556213017752, 40.167209800787894 37.54437869822485, 36.505518050790315 38.34319526627219, 38.40028005268054 39.142011834319526, 45.33110641972575 39.94082840236687, 44.11753412526003 40.7396449704142, 39.973192393682815 41.53846153846154, 41.33780313096349 42.337278106508876, 40.30333703148756 43.13609467455622, 37.218784368992466 43.93491124260355, 37.36096002634854 44.73372781065089, 34.28421586205669 45.532544378698226, 33.32275249878179 46.33136094674556, 35.586880407294274 47.1301775147929, 32.087859214236545 47.928994082840234, 32.37190127259977 48.72781065088758, 35.98354255775529 49.52662721893491, 32.02771249516086 50.32544378698225, 28.08790588476159 51.124260355029584, 26.937799466580287 51.92307692307693, 26.747895948466155 52.72189349112426, 21.235060362325015 53.5207100591716, 22.120477669449844 54.319526627218934, 19.554776378947867 55.11834319526627, 20.969632609051008 55.91715976331361, 22.086612145517694 56.71597633136094, 27.238786383374258 57.514792899408285, 22.045403805002223 58.31360946745562, 22.97483631910365 59.11242603550296, 26.43350050670103 59.91124260355029, 33.99037064080147 60.710059171597635, 33.98543175199074 61.50887573964497, 34.61506196897403 62.307692307692314, 34.14751357635023 63.10650887573964, 38.83526082766724 63.90532544378698, 44.006385835744034 64.70414201183432, 43.16119542707894 65.50295857988165, 39.635284331362165 66.30177514792899, 38.440297393682194 67.10059171597634, 41.91036555273369 67.89940828402366, 40.07471252553746 68.69822485207101, 42.33961582511368 69.49704142011834, 42.963358090809564 70.29585798816568, 41.14081178695621 71.09467455621302, 38.179974704990265 71.89349112426036, 38.3694543992622 72.6923076923077, 40.351439390291524 73.49112426035504, 38.675593731983994 74.28994082840237, 39.44501273719815 75.0887573964497, 43.42770012135248 75.88757396449704, 42.31744736812294 76.68639053254438, 39.6782233404043 77.48520710059172, 46.73388951508518 78.28402366863905, 42.9368032679094 79.0828402366864, 42.09974039805035 79.88165680473374, 38.88587248725841 80.68047337278107, 35.82402073771819 81.4792899408284, 38.663865768879774 82.27810650887574, 38.006673808933975 83.07692307692308, 37.515064244972514 83.87573964497041, 34.52647661824681 84.67455621301775, 33.39259236167803 85.4733727810651, 33.05834685474245 86.27218934911244, 25.829873938016036 87.07100591715975, 22.526872186121643 87.8698224852071, 24.88871755900165 88.66863905325444, 23.142077964815947 89.46745562130178, 27.176378557030485 90.26627218934911, 23.981712918904705 91.06508875739645, 25.4309549498272 91.8639053254438, 19.70199152743417 92.66272189349112, 19.787907302394487 93.46153846153845, 21.390181497188756 94.2603550295858, 24.101882746086435 95.05917159763314, 21.66349355706976 95.85798816568047, 19.026421880074494 96.65680473372781, 19.859174487194885 97.45562130177515, 23.42778109852603 98.2544378698225, 24.275995533149047 99.05325443786982, 23.200805198325853 99.85207100591715, 23.909436768666552 100.6508875739645, 19.677488116113256 101.44970414201183, 23.65621122310216 102.24852071005917, 24.157503849066696 103.04733727810651, 26.84255555152722 103.84615384615385, 27.763888355564166 104.64497041420118, 25.763050386932168 105.44378698224853, 25.648612358050745 106.24260355029585, 28.226075894666913 107.0414201183432, 26.23802998623067 107.84023668639053, 29.63857956113895 108.63905325443787, 27.74259594495691 109.43786982248521, 24.1168763363435 110.23668639053254, 21.893827355149526 111.03550295857988, 21.27964513790496 111.83431952662723, 20.706283708912938 112.63313609467457, 21.62612066038373 113.43195266272188, 21.421170978960856 114.23076923076923, 20.692081340490432 115.02958579881657, 19.519643684501805 115.82840236686391, 25.0599574043229 116.62721893491124, 25.45146125008781 117.42603550295858, 22.320931538234817 118.22485207100593, 24.2791826994709 119.02366863905324, 25.499929088640588 119.82248520710058, 23.992868618102005 120.62130177514793, 28.304012971873465 121.42011834319527, 26.909005887146343 122.2189349112426, 32.482882040619735 123.01775147928994, 28.873978500443194 123.81656804733728, 31.20100931978965 124.61538461538463, 30.100279209717517 125.41420118343194, 30.797682133801075 126.21301775147928, 24.50453560670566 127.01183431952663, 22.806545164712954 127.81065088757396, 20.641574761761138 128.60946745562129, 16.408518552823097 129.40828402366864, 19.482846936828004 130.20710059171597, 17.824140399478143 131.0059171597633, 16.21764758274446 131.80473372781066, 13.405522874022175 132.60355029585799, 15.283151802732672 133.40236686390534, 17.187640062568892 134.20118343195267, 17.053771432330933" fill="none" stroke="#32ca5b" stroke-width="1.25"/>

</svg>