<?xml version="1.0" standalone="no"?>
<!DOCTYPE svg PUBLIC "-//W3C//DTD SVG 1.1//EN" "http://www.w3.org/Graphics/SVG/1.1/DTD/svg11.dtd">

<svg width="135" height="50" viewBox="0 0 135 50" preserveAspectRatio="none" 
  xmlns="http://www.w3.org/2000/svg"
  xmlns:xlink="http://www.w3.org/1999/xlink">


<polyline points="0.0, 42.37656868296564 0.7988165680473372, 45.42101951553373 1.5976331360946745, 44.20162253023983 2.396449704142012, 47.00139445121195 3.195266272189349, 44.955366583949456 3.994082840236686, 44.733204463544865 4.792899408284024, 43.58425281642835 5.591715976331361, 45.43213205137209 6.390532544378698, 46.46092976873497 7.189349112426036, 49.299733588919864 7.988165680473372, 45.95107795270625 8.78698224852071, 42.92772368071569 9.585798816568047, 42.90677175099731 10.384615384615385, 33.16745167475501 11.183431952662723, 41.264118722232304 11.982248520710058, 45.10465689272166 12.781065088757396, 48.38448243733452 13.579881656804734, 46.26271477987657 14.378698224852071, 44.12953104240213 15.177514792899409, 35.02061335734766 15.976331360946745, 34.62710627323066 16.775147928994084, 32.727787327354854 17.57396449704142, 30.957003700831997 18.37278106508876, 28.86280622894813 19.171597633136095, 30.313312599409464 19.970414201183434, 31.786459293486136 20.76923076923077, 29.942206761808325 21.56804733727811, 29.88288409973209 22.366863905325445, 31.585893296419897 23.16568047337278, 33.66389869459976 23.964497041420117, 39.52318735020303 24.763313609467456, 42.76640081443771 25.562130177514792, 40.27863682070477 26.36094674556213, 49.42931855005727 27.159763313609467, 46.243868450552476 27.958579881656807, 49.23207009839698 28.757396449704142, 44.83025122066958 29.55621301775148, 47.58855803917942 30.355029585798817, 50.0 31.153846153846157, 47.21657463709668 31.95266272189349, 44.96426261972955 32.751479289940825, 48.359566218647245 33.55029585798817, 48.96386517626161 34.349112426035504, 47.350199339643986 35.14792899408284, 49.26610760137383 35.94674556213018, 44.22723619459848 36.74556213017752, 43.208087120021666 37.54437869822485, 37.872806649120044 38.34319526627219, 41.55320979061282 39.142011834319526, 46.1068773619707 39.94082840236687, 45.01097600638358 40.7396449704142, 42.4239783838948 41.53846153846154, 44.62126179081755 42.337278106508876, 42.33921121601498 43.13609467455622, 39.51628408554837 43.93491124260355, 34.078975090756124 44.73372781065089, 28.918530774973167 45.532544378698226, 28.34478091304751 46.33136094674556, 31.934849822680377 47.1301775147929, 32.58740560298515 47.928994082840234, 34.81523649101405 48.72781065088758, 40.88219468225462 49.52662721893491, 37.29812407258847 50.32544378698225, 34.226902009580954 51.124260355029584, 37.234022134253955 51.92307692307693, 34.03439677644529 52.72189349112426, 31.865996207489715 53.5207100591716, 33.807140744589056 54.319526627218934, 29.830767392853076 55.11834319526627, 34.83777881545579 55.91715976331361, 32.985924911204656 56.71597633136094, 35.988372846792466 57.514792899408285, 32.70384831564909 58.31360946745562, 34.14733762425188 59.11242603550296, 38.179787847795595 59.91124260355029, 39.932461731298936 60.710059171597635, 39.43305458980986 61.50887573964497, 39.563249617045855 62.307692307692314, 37.55127776202689 63.10650887573964, 43.67604285962533 63.90532544378698, 45.44599489447978 64.70414201183432, 42.19946545232594 65.50295857988165, 41.28511781585905 66.30177514792899, 41.301914742212645 67.10059171597634, 43.537816161718595 67.89940828402366, 41.48570951460552 68.69822485207101, 41.18695386187113 69.49704142011834, 45.43717236188615 70.29585798816568, 43.863998797046534 71.09467455621302, 40.77310245791674 71.89349112426036, 41.56189607851874 72.6923076923077, 41.07830629986058 73.49112426035504, 39.80150601948122 74.28994082840237, 41.24389707963019 75.0887573964497, 45.14816832475459 75.88757396449704, 44.65658088758852 76.68639053254438, 43.14794247323218 77.48520710059172, 47.03449488872226 78.28402366863905, 45.199644398824624 79.0828402366864, 43.12883712909152 79.88165680473374, 40.82298888717031 80.68047337278107, 40.40268157799314 81.4792899408284, 40.74569462384034 82.27810650887574, 38.28192747888055 83.07692307692308, 40.27151819562753 83.87573964497041, 38.44054089782476 84.67455621301775, 38.410160690106636 85.4733727810651, 38.025360282280715 86.27218934911244, 38.6873319877355 87.07100591715975, 37.81042684281953 87.8698224852071, 39.11503176645633 88.66863905325444, 38.98280307531433 89.46745562130178, 37.84128081445201 90.26627218934911, 33.319214045422925 91.06508875739645, 33.70453576858415 91.8639053254438, 33.98177634144602 92.66272189349112, 33.80250414223777 93.46153846153845, 34.316723878479024 94.2603550295858, 33.94473820015763 95.05917159763314, 33.63175171354602 95.85798816568047, 33.2167221735917 96.65680473372781, 30.497109551859612 97.45562130177515, 26.93663805865601 98.2544378698225, 27.17390805923779 99.05325443786982, 28.58202502536344 99.85207100591715, 26.286228702805985 100.6508875739645, 25.577003516235468 101.44970414201183, 26.492505977677677 102.24852071005917, 28.77260387136718 103.04733727810651, 28.75520551096417 103.84615384615385, 27.515498684546593 104.64497041420118, 25.0770497134978 105.44378698224853, 24.92986707446259 106.24260355029585, 24.85220847395607 107.0414201183432, 20.47639370850092 107.84023668639053, 23.507367630092542 108.63905325443787, 25.378436522297527 109.43786982248521, 22.082944748227455 110.23668639053254, 21.25351965826922 111.03550295857988, 18.047974340208516 111.83431952662723, 15.075237051871612 112.63313609467457, 14.642240153383105 113.43195266272188, 14.359066301272172 114.23076923076923, 13.029054335631615 115.02958579881657, 11.695286844037357 115.82840236686391, 13.753434564390016 116.62721893491124, 15.21607190766409 117.42603550295858, 14.88319570267851 118.22485207100593, 14.259050071089224 119.02366863905324, 13.462876976994288 119.82248520710058, 13.608157469375964 120.62130177514793, 16.991792075699994 121.42011834319527, 15.255912213087875 122.2189349112426, 25.203158518170294 123.01775147928994, 21.10544699117815 123.81656804733728, 22.828995126466246 124.61538461538463, 21.74616783375231 125.41420118343194, 21.560821508570445 126.21301775147928, 14.871902761231748 127.01183431952663, 10.238840883750475 127.81065088757396, 4.635213139843879 128.60946745562129, 5.936530663833548 129.40828402366864, 7.102535146693622 130.20710059171597, 1.7983840086223737 131.0059171597633, 0.9872946955157074 131.80473372781066, 0.468639381736415 132.60355029585799, 0.0 133.40236686390534, 1.6034265241996946 134.20118343195267, 0.6757739544127416" fill="none" stroke="#32ca5b" stroke-width="1.25"/>

</svg>