<?xml version="1.0" standalone="no"?>
<!DOCTYPE svg PUBLIC "-//W3C//DTD SVG 1.1//EN" "http://www.w3.org/Graphics/SVG/1.1/DTD/svg11.dtd">

<svg width="135" height="50" viewBox="0 0 135 50" preserveAspectRatio="none" 
  xmlns="http://www.w3.org/2000/svg"
  xmlns:xlink="http://www.w3.org/1999/xlink">


<polyline points="0.0, 40.83260181115953 0.7988165680473372, 41.39828881448609 1.5976331360946745, 40.94975778694431 2.396449704142012, 39.22705675875829 3.195266272189349, 40.105101860708416 3.994082840236686, 38.87109733103199 4.792899408284024, 38.28016468057914 5.591715976331361, 38.356018689759715 6.390532544378698, 37.899348355377604 7.189349112426036, 38.976651443473216 7.988165680473372, 41.064877213721964 8.78698224852071, 39.04105254007037 9.585798816568047, 38.4993359514229 10.384615384615385, 40.40119843622641 11.183431952662723, 38.589364128207514 11.982248520710058, 42.38970314465265 12.781065088757396, 45.67397778190612 13.579881656804734, 48.32721926084294 14.378698224852071, 47.91504259422852 15.177514792899409, 46.80094011820163 15.976331360946745, 44.64107087335012 16.775147928994084, 44.30758780701216 17.57396449704142, 44.85060089790995 18.37278106508876, 43.190780637645474 19.171597633136095, 43.18184904080425 19.970414201183434, 43.93093827148212 20.76923076923077, 45.30035724694601 21.56804733727811, 45.725520169905096 22.366863905325445, 45.50380508213075 23.16568047337278, 46.610609543308335 23.964497041420117, 47.03933027520258 24.763313609467456, 48.18595809367955 25.562130177514792, 47.2276786496408 26.36094674556213, 45.17671247392237 27.159763313609467, 47.86625576128253 27.958579881656807, 47.39139961797526 28.757396449704142, 48.61657676200718 29.55621301775148, 45.716364038398204 30.355029585798817, 46.71663016117771 31.153846153846157, 48.56729510539945 31.95266272189349, 48.72647191705735 32.751479289940825, 46.5329658007357 33.55029585798817, 48.922937075043514 34.349112426035504, 50.0 35.14792899408284, 48.758192948720044 35.94674556213018, 48.55498166237661 36.74556213017752, 46.75547974402877 37.54437869822485, 45.77819451705468 38.34319526627219, 44.132414573448905 39.142011834319526, 41.41702324201187 39.94082840236687, 42.71578583790519 40.7396449704142, 43.61886967316577 41.53846153846154, 42.50195143423208 42.337278106508876, 41.23643753805772 43.13609467455622, 39.23252592334332 43.93491124260355, 39.151177888136864 44.73372781065089, 40.30259869332969 45.532544378698226, 39.46520870670553 46.33136094674556, 39.14464009096265 47.1301775147929, 40.00383402465505 47.928994082840234, 39.393671859745574 48.72781065088758, 38.56924246237712 49.52662721893491, 40.56696366432625 50.32544378698225, 38.05521637952612 51.124260355029584, 37.74431998653256 51.92307692307693, 38.67298882330672 52.72189349112426, 36.730151048025725 53.5207100591716, 33.263632971052374 54.319526627218934, 31.062946068307657 55.11834319526627, 30.030656097951997 55.91715976331361, 32.50776550374088 56.71597633136094, 32.35489935462544 57.514792899408285, 33.78096107257386 58.31360946745562, 31.29559742935621 59.11242603550296, 33.97712979353621 59.91124260355029, 35.539999465996715 60.710059171597635, 36.872583181314084 61.50887573964497, 36.28223383133778 62.307692307692314, 35.65425155372088 63.10650887573964, 31.849117087700773 63.90532544378698, 34.00721750588213 64.70414201183432, 35.47605629927199 65.50295857988165, 36.63274254947927 66.30177514792899, 35.351671752888755 67.10059171597634, 34.14061618750043 67.89940828402366, 34.3223713623292 68.69822485207101, 34.2977966480079 69.49704142011834, 20.145601537615875 70.29585798816568, 17.489747241718156 71.09467455621302, 19.882786205797967 71.89349112426036, 17.935222916684374 72.6923076923077, 16.564645017335565 73.49112426035504, 16.14511344856991 74.28994082840237, 16.606724997860944 75.0887573964497, 15.512082570324814 75.88757396449704, 17.546306983976528 76.68639053254438, 16.334822233309616 77.48520710059172, 15.160925775315324 78.28402366863905, 20.986834589099395 79.0828402366864, 16.62458533394444 79.88165680473374, 13.684615193382665 80.68047337278107, 10.984002760243177 81.4792899408284, 11.757632489786177 82.27810650887574, 13.73978764148935 83.07692307692308, 7.080156183505302 83.87573964497041, 0.0 84.67455621301775, 2.9262358049328756 85.4733727810651, 3.5537343538272226 86.27218934911244, 4.0582195470089175 87.07100591715975, 6.947802058922345 87.8698224852071, 8.013508841344425 88.66863905325444, 6.066601416904183 89.46745562130178, 12.366608704030034 90.26627218934911, 13.596023721902478 91.06508875739645, 10.881779228660099 91.8639053254438, 12.345530056285584 92.66272189349112, 11.290395053584163 93.46153846153845, 10.674052606268527 94.2603550295858, 10.857214821894235 95.05917159763314, 11.59759084169279 95.85798816568047, 11.284093540644992 96.65680473372781, 11.21613340820908 97.45562130177515, 11.867354400225091 98.2544378698225, 14.253392842798624 99.05325443786982, 16.30287042737403 99.85207100591715, 17.50695983464069 100.6508875739645, 16.346392317817738 101.44970414201183, 15.296884596049495 102.24852071005917, 15.662340421858733 103.04733727810651, 16.375754638845738 103.84615384615385, 16.375980119843746 104.64497041420118, 16.77785390580842 105.44378698224853, 13.669522668780695 106.24260355029585, 14.052717185495833 107.0414201183432, 14.672494319889825 107.84023668639053, 14.767499875910964 108.63905325443787, 16.252562684395603 109.43786982248521, 16.82015174742927 110.23668639053254, 15.287351788276837 111.03550295857988, 16.12533678658199 111.83431952662723, 15.940477014147858 112.63313609467457, 17.475054860712298 113.43195266272188, 17.86675478218008 114.23076923076923, 17.300349301123877 115.02958579881657, 17.40479602302743 115.82840236686391, 17.592534315902565 116.62721893491124, 20.38290295602801 117.42603550295858, 19.578817189278986 118.22485207100593, 16.796803005390025 119.02366863905324, 15.322256400067232 119.82248520710058, 15.425252059502634 120.62130177514793, 13.9629105964682 121.42011834319527, 16.733454162787627 122.2189349112426, 14.92963897510711 123.01775147928994, 19.67770915648081 123.81656804733728, 18.77908897765617 124.61538461538463, 17.778124443817394 125.41420118343194, 16.505051274476738 126.21301775147928, 13.66875191049587 127.01183431952663, 10.536800510670124 127.81065088757396, 11.123122837040604 128.60946745562129, 10.594402179167844 129.40828402366864, 10.295251095066975 130.20710059171597, 10.281323373550315 131.0059171597633, 9.616773178947431 131.80473372781066, 6.727142571113975 132.60355029585799, 7.714537455704819 133.40236686390534, 9.046680044882434 134.20118343195267, 7.5275613497983285" fill="none" stroke="#32ca5b" stroke-width="1.25"/>

</svg>