<?xml version="1.0" standalone="no"?>
<!DOCTYPE svg PUBLIC "-//W3C//DTD SVG 1.1//EN" "http://www.w3.org/Graphics/SVG/1.1/DTD/svg11.dtd">

<svg width="135" height="50" viewBox="0 0 135 50" preserveAspectRatio="none" 
  xmlns="http://www.w3.org/2000/svg"
  xmlns:xlink="http://www.w3.org/1999/xlink">


<polyline points="0.0, 41.96221175227008 0.7988165680473372, 43.83245949140764 1.5976331360946745, 43.64415399678627 2.396449704142012, 47.79537349589876 3.195266272189349, 46.78534659556172 3.994082840236686, 46.9612643616968 4.792899408284024, 46.016588446952255 5.591715976331361, 46.486515712078116 6.390532544378698, 46.26634495461642 7.189349112426036, 45.02620497126637 7.988165680473372, 43.8553029345858 8.78698224852071, 42.523698523711786 9.585798816568047, 43.310830427335034 10.384615384615385, 43.97500523823483 11.183431952662723, 47.65277140987192 11.982248520710058, 50.0 12.781065088757396, 45.93889857404479 13.579881656804734, 44.9017847853475 14.378698224852071, 47.23319284205006 15.177514792899409, 46.05011891867164 15.976331360946745, 45.33387776332006 16.775147928994084, 43.002204135738396 17.57396449704142, 37.16738056008867 18.37278106508876, 35.948692846374925 19.171597633136095, 32.533158696190675 19.970414201183434, 35.651067363401204 20.76923076923077, 39.29796375212872 21.56804733727811, 36.22764159144632 22.366863905325445, 39.179798307565136 23.16568047337278, 41.91886847501466 23.964497041420117, 42.21391584886589 24.763313609467456, 42.527483419943955 25.562130177514792, 40.85298337330661 26.36094674556213, 45.096618602791956 27.159763313609467, 44.0421614841028 27.958579881656807, 46.8928263824133 28.757396449704142, 43.83831479339417 29.55621301775148, 46.93753206562368 30.355029585798817, 48.02695298808383 31.153846153846157, 44.99684408465406 31.95266272189349, 42.90714349264644 32.751479289940825, 43.25315306104474 33.55029585798817, 45.399803330650705 34.349112426035504, 42.06495019501145 35.14792899408284, 42.97190188171252 35.94674556213018, 33.062931435178115 36.74556213017752, 26.091168449453896 37.54437869822485, 23.803791892071427 38.34319526627219, 23.641565350730325 39.142011834319526, 28.444926113031073 39.94082840236687, 26.852419152260904 40.7396449704142, 22.35412006537215 41.53846153846154, 22.066737900358977 42.337278106508876, 14.785915618755546 43.13609467455622, 10.497216573678337 43.93491124260355, 12.11783593671845 44.73372781065089, 12.484020249827237 45.532544378698226, 13.439264190668517 46.33136094674556, 16.22289250481743 47.1301775147929, 16.25701486274303 47.928994082840234, 16.8240804467409 48.72781065088758, 18.622632394425782 49.52662721893491, 12.93737464935481 50.32544378698225, 6.822205334704634 51.124260355029584, 9.658987594218772 51.92307692307693, 3.868235244692988 52.72189349112426, 2.444848941340603 53.5207100591716, 2.4209716517178363 54.319526627218934, 5.663264472485306 55.11834319526627, 5.4291132191134235 55.91715976331361, 6.727690948618957 56.71597633136094, 12.132006465632186 57.514792899408285, 12.693406803520341 58.31360946745562, 10.650178038924182 59.11242603550296, 10.450098047320399 59.91124260355029, 4.989861803991214 60.710059171597635, 7.824355195730762 61.50887573964497, 8.303444449380814 62.307692307692314, 0.5007817070257861 63.10650887573964, 7.299812809303817 63.90532544378698, 8.813304099791077 64.70414201183432, 5.534365520122036 65.50295857988165, 0.09443948420525489 66.30177514792899, 0.05754315425362278 67.10059171597634, 3.4990449661969634 67.89940828402366, 1.5038412737137299 68.69822485207101, 0.0 69.49704142011834, 13.051915956687314 70.29585798816568, 14.337877362104932 71.09467455621302, 7.620093935124331 71.89349112426036, 7.235115587265008 72.6923076923077, 8.535759505135509 73.49112426035504, 5.538180177158977 74.28994082840237, 10.293029437786602 75.0887573964497, 13.79011212544452 75.88757396449704, 13.423885631555976 76.68639053254438, 17.39320036448121 77.48520710059172, 21.70785763436377 78.28402366863905, 20.599182849389123 79.0828402366864, 20.64081491994756 79.88165680473374, 20.257046558311256 80.68047337278107, 19.021186444450585 81.4792899408284, 21.513965624792025 82.27810650887574, 22.217611544167358 83.07692307692308, 25.096659497700475 83.87573964497041, 22.189182363746554 84.67455621301775, 21.897867731516925 85.4733727810651, 20.352671779062064 86.27218934911244, 18.11738898183151 87.07100591715975, 17.666501124150447 87.8698224852071, 18.566516922212912 88.66863905325444, 15.697299357469166 89.46745562130178, 11.171439130439369 90.26627218934911, 9.762637964504307 91.06508875739645, 11.418972706544594 91.8639053254438, 14.091337370908025 92.66272189349112, 13.678003083141785 93.46153846153845, 14.956448233217154 94.2603550295858, 17.043227097330355 95.05917159763314, 17.134101173488396 95.85798816568047, 13.660839288888132 96.65680473372781, 10.258684978506842 97.45562130177515, 10.166385320051132 98.2544378698225, 9.828402240994068 99.05325443786982, 9.094514142634246 99.85207100591715, 6.428429938166386 100.6508875739645, 8.873216685493352 101.44970414201183, 6.369531963490993 102.24852071005917, 5.412787037687793 103.04733727810651, 8.87478683472986 103.84615384615385, 8.982809545741548 104.64497041420118, 11.208769460269977 105.44378698224853, 8.635132462213726 106.24260355029585, 11.268013437040771 107.0414201183432, 13.80400388898492 107.84023668639053, 16.568972684969186 108.63905325443787, 16.7113666486428 109.43786982248521, 15.658730019908248 110.23668639053254, 14.758145284312036 111.03550295857988, 15.005451649531928 111.83431952662723, 16.61836878584615 112.63313609467457, 17.17494081912148 113.43195266272188, 18.48790202189581 114.23076923076923, 17.44376881506877 115.02958579881657, 16.691304826275797 115.82840236686391, 16.206525918433286 116.62721893491124, 16.143091671258343 117.42603550295858, 15.826556179338919 118.22485207100593, 16.132520814186986 119.02366863905324, 18.340686970481258 119.82248520710058, 16.13711981723387 120.62130177514793, 18.136096570005538 121.42011834319527, 16.642388165987335 122.2189349112426, 19.448510527446146 123.01775147928994, 17.652074274364825 123.81656804733728, 20.263867563363487 124.61538461538463, 19.611656826467502 125.41420118343194, 19.270489166670558 126.21301775147928, 16.77374386983993 127.01183431952663, 10.158915227027103 127.81065088757396, 9.26179002614671 128.60946745562129, 13.586527236966994 129.40828402366864, 13.975910990887128 130.20710059171597, 12.365110226870897 131.0059171597633, 12.45197512180717 131.80473372781066, 9.418274823175267 132.60355029585799, 7.832873992662205 133.40236686390534, 7.526045809904085 134.20118343195267, 6.699742445419905" fill="none" stroke="#32ca5b" stroke-width="1.25"/>

</svg>