<?xml version="1.0" standalone="no"?>
<!DOCTYPE svg PUBLIC "-//W3C//DTD SVG 1.1//EN" "http://www.w3.org/Graphics/SVG/1.1/DTD/svg11.dtd">

<svg width="135" height="50" viewBox="0 0 135 50" preserveAspectRatio="none" 
  xmlns="http://www.w3.org/2000/svg"
  xmlns:xlink="http://www.w3.org/1999/xlink">


<polyline points="0.0, 49.248288220195576 0.7988165680473372, 49.227664414751935 1.5976331360946745, 49.19006169465121 2.396449704142012, 49.2086840014054 3.195266272189349, 49.22542515366542 3.994082840236686, 49.22003081859454 4.792899408284024, 49.43913010200342 5.591715976331361, 49.40240604646813 6.390532544378698, 49.37513691058937 7.189349112426036, 49.39725750219882 7.988165680473372, 49.3819924076637 8.78698224852071, 49.39363931857621 9.585798816568047, 49.38088554808985 10.384615384615385, 49.4065909906987 11.183431952662723, 49.44344184360777 11.982248520710058, 49.510564114011274 12.781065088757396, 49.48040918176035 13.579881656804734, 49.49901721160429 14.378698224852071, 49.47007265046863 15.177514792899409, 49.54383058363047 15.976331360946745, 49.454875058275285 16.775147928994084, 49.393891969714275 17.57396449704142, 49.248592764066956 18.37278106508876, 49.46292864718615 19.171597633136095, 49.58042945917094 19.970414201183434, 49.473302675534775 20.76923076923077, 49.350724580494365 21.56804733727811, 49.507988847308894 22.366863905325445, 49.52714413239276 23.16568047337278, 49.56285027038858 23.964497041420117, 49.522480207177395 24.763313609467456, 49.577202592419646 25.562130177514792, 49.72066865124117 26.36094674556213, 49.86440498898815 27.159763313609467, 49.767559011077815 27.958579881656807, 49.451741392307454 28.757396449704142, 49.45387474107121 29.55621301775148, 49.88972261401249 30.355029585798817, 49.9786300537564 31.153846153846157, 50.0 31.95266272189349, 49.8163489659819 32.751479289940825, 49.69685164265213 33.55029585798817, 49.72436186785952 34.349112426035504, 49.65736979206081 35.14792899408284, 49.65414915794295 35.94674556213018, 49.48848904054263 36.74556213017752, 49.40296123615063 37.54437869822485, 49.340974122066086 38.34319526627219, 49.363103304115455 39.142011834319526, 49.210585774017176 39.94082840236687, 49.35534525735665 40.7396449704142, 49.40427282393378 41.53846153846154, 49.2898248064869 42.337278106508876, 49.161533406846125 43.13609467455622, 49.00182401331967 43.93491124260355, 49.06209871983928 44.73372781065089, 49.02010264286227 45.532544378698226, 49.1137757682198 46.33136094674556, 49.14318616347877 47.1301775147929, 49.086306610624305 47.928994082840234, 49.25538773385219 48.72781065088758, 49.44735354756722 49.52662721893491, 49.335330172413286 50.32544378698225, 49.37557579690118 51.124260355029584, 48.63786413940984 51.92307692307693, 48.58827153789713 52.72189349112426, 48.5878186627143 53.5207100591716, 48.346034394889834 54.319526627218934, 48.75465093370935 55.11834319526627, 48.798337413044386 55.91715976331361, 48.87598280804587 56.71597633136094, 48.92886010112414 57.514792899408285, 45.48454430760695 58.31360946745562, 45.04028291595274 59.11242603550296, 45.711374755458294 59.91124260355029, 46.20029123293854 60.710059171597635, 46.27775615991989 61.50887573964497, 46.04951759611362 62.307692307692314, 45.75770455061724 63.10650887573964, 45.88605866882128 63.90532544378698, 46.202513185122086 64.70414201183432, 40.90327452868188 65.50295857988165, 41.04931624874074 66.30177514792899, 41.00341552275958 67.10059171597634, 41.292415392810604 67.89940828402366, 37.392587730369684 68.69822485207101, 36.2409569467891 69.49704142011834, 38.113343118947846 70.29585798816568, 37.76497785635672 71.09467455621302, 37.41355908404099 71.89349112426036, 40.80779474215235 72.6923076923077, 36.999987929255795 73.49112426035504, 40.90715883272182 74.28994082840237, 40.89104921325101 75.0887573964497, 36.7616682125326 75.88757396449704, 38.23272084733782 76.68639053254438, 35.452263015625284 77.48520710059172, 35.2300311935626 78.28402366863905, 34.70458543473607 79.0828402366864, 35.018884909483255 79.88165680473374, 32.69540965619812 80.68047337278107, 25.136840453132358 81.4792899408284, 33.465607126833945 82.27810650887574, 32.9120637016618 83.07692307692308, 33.823192358759755 83.87573964497041, 34.54617242616077 84.67455621301775, 34.76501522921279 85.4733727810651, 33.21403126725284 86.27218934911244, 34.101019398176504 87.07100591715975, 35.29513696178352 87.8698224852071, 35.43404837163649 88.66863905325444, 33.496992859759814 89.46745562130178, 34.87603882308489 90.26627218934911, 35.35765033933152 91.06508875739645, 35.65930947342881 91.8639053254438, 35.63068663235807 92.66272189349112, 35.39207141037373 93.46153846153845, 34.59415514009723 94.2603550295858, 30.870842886552257 95.05917159763314, 34.497131769067366 95.85798816568047, 20.376203171025047 96.65680473372781, 17.317487924221826 97.45562130177515, 20.659519362108377 98.2544378698225, 21.05406710159717 99.05325443786982, 20.22977838925014 99.85207100591715, 20.510964089929676 100.6508875739645, 16.64634146928777 101.44970414201183, 20.121059334899304 102.24852071005917, 22.288400545038325 103.04733727810651, 19.620674195935912 103.84615384615385, 19.38270288512549 104.64497041420118, 19.973515301860687 105.44378698224853, 19.868084698613647 106.24260355029585, 19.53341630492754 107.0414201183432, 19.189311165810043 107.84023668639053, 0.0 108.63905325443787, 17.134963032889278 109.43786982248521, 21.803601668696064 110.23668639053254, 20.29333199849311 111.03550295857988, 20.849105729508786 111.83431952662723, 20.129814918744888 112.63313609467457, 20.445653960393592 113.43195266272188, 17.304742165382255 114.23076923076923, 17.352672633959113 115.02958579881657, 15.16959247086076 115.82840236686391, 14.652926726449355 116.62721893491124, 13.717124173555534 117.42603550295858, 28.61426666492622 118.22485207100593, 22.476636600979294 119.02366863905324, 17.822572371066535 119.82248520710058, 18.338065675337585 120.62130177514793, 24.741814152622933 121.42011834319527, 27.72356219293835 122.2189349112426, 28.571574538374993 123.01775147928994, 29.63633199902032 123.81656804733728, 29.357985128013077 124.61538461538463, 29.32425240722147 125.41420118343194, 27.620479429792326 126.21301775147928, 27.34045845608278 127.01183431952663, 28.49472460129212 127.81065088757396, 29.20451115084539 128.60946745562129, 28.796904290948973 129.40828402366864, 28.97809802289204 130.20710059171597, 29.15721245865101 131.0059171597633, 29.13779639354824 131.80473372781066, 29.07684090400604 132.60355029585799, 28.797511904428546 133.40236686390534, 28.190554715830203 134.20118343195267, 28.18348646054682" fill="none" stroke="#32ca5b" stroke-width="1.25"/>

</svg>