<?xml version="1.0" standalone="no"?>
<!DOCTYPE svg PUBLIC "-//W3C//DTD SVG 1.1//EN" "http://www.w3.org/Graphics/SVG/1.1/DTD/svg11.dtd">

<svg width="135" height="50" viewBox="0 0 135 50" preserveAspectRatio="none" 
  xmlns="http://www.w3.org/2000/svg"
  xmlns:xlink="http://www.w3.org/1999/xlink">


<polyline points="0.0, 36.971787705407436 0.7988165680473372, 38.77708831179906 1.5976331360946745, 38.53882064339527 2.396449704142012, 40.52235134922957 3.195266272189349, 40.584419865951716 3.994082840236686, 37.662263110224956 4.792899408284024, 36.31267719395714 5.591715976331361, 36.96896902471959 6.390532544378698, 39.252178623938555 7.189349112426036, 42.11330320001647 7.988165680473372, 40.242883124993654 8.78698224852071, 39.27722582385131 9.585798816568047, 41.249861723288824 10.384615384615385, 38.913768446668875 11.183431952662723, 43.07125152873253 11.982248520710058, 47.68285829177794 12.781065088757396, 50.0 13.579881656804734, 43.765780674257286 14.378698224852071, 39.15763409909775 15.177514792899409, 34.425239849616155 15.976331360946745, 24.97958031778341 16.775147928994084, 28.787225526627047 17.57396449704142, 32.58874344921846 18.37278106508876, 28.451407032189586 19.171597633136095, 31.43024787882471 19.970414201183434, 26.720005917184857 20.76923076923077, 15.348792745053549 21.56804733727811, 16.621551326793586 22.366863905325445, 21.66950382261734 23.16568047337278, 18.937462809588933 23.964497041420117, 14.046978643263596 24.763313609467456, 15.162932921550468 25.562130177514792, 16.77970759305616 26.36094674556213, 18.56944262650824 27.159763313609467, 23.70615461406685 27.958579881656807, 32.97629317996421 28.757396449704142, 29.605182583852596 29.55621301775148, 31.180049240787334 30.355029585798817, 35.702064116189334 31.153846153846157, 37.30774665333555 31.95266272189349, 34.53787781708842 32.751479289940825, 39.049705350883656 33.55029585798817, 43.0102532606899 34.349112426035504, 40.76687399150068 35.14792899408284, 43.81245262536492 35.94674556213018, 41.4992653561199 36.74556213017752, 36.05243743045707 37.54437869822485, 33.438666626549704 38.34319526627219, 24.793718766821517 39.142011834319526, 20.843463256185075 39.94082840236687, 18.749577728507276 40.7396449704142, 17.058090405909084 41.53846153846154, 18.866701967883053 42.337278106508876, 16.218933209652704 43.13609467455622, 18.341045947693818 43.93491124260355, 15.374101762632575 44.73372781065089, 10.274364516931314 45.532544378698226, 17.221958979935096 46.33136094674556, 21.08126647347018 47.1301775147929, 21.585001917425632 47.928994082840234, 20.481484407510692 48.72781065088758, 24.587832675230786 49.52662721893491, 21.59004719441652 50.32544378698225, 20.844411034949534 51.124260355029584, 15.006885556426997 51.92307692307693, 14.132884944415332 52.72189349112426, 14.594779660695147 53.5207100591716, 15.741265741451047 54.319526627218934, 13.410930241575464 55.11834319526627, 16.058418257788254 55.91715976331361, 15.497138597162744 56.71597633136094, 20.603102557624204 57.514792899408285, 21.537278899550515 58.31360946745562, 22.285381541212377 59.11242603550296, 25.311059372262406 59.91124260355029, 28.219351377121747 60.710059171597635, 27.039108111375036 61.50887573964497, 25.66460001500585 62.307692307692314, 6.9683237135577984 63.10650887573964, 9.274318266647576 63.90532544378698, 19.023003283821733 64.70414201183432, 20.58904095452011 65.50295857988165, 13.007006940850724 66.30177514792899, 15.16712897989846 67.10059171597634, 18.798558596462374 67.89940828402366, 13.83067890825124 68.69822485207101, 19.357268129258134 69.49704142011834, 22.503080017829028 70.29585798816568, 21.634448690223326 71.09467455621302, 22.28881785206312 71.89349112426036, 21.399587572964382 72.6923076923077, 17.268867458115785 73.49112426035504, 16.765613246341758 74.28994082840237, 14.887385682940385 75.0887573964497, 17.06430952501403 75.88757396449704, 19.73053296900805 76.68639053254438, 13.535210278394405 77.48520710059172, 22.79789564794617 78.28402366863905, 15.997935000136204 79.0828402366864, 15.452350260113768 79.88165680473374, 13.662030143318663 80.68047337278107, 13.639407778090767 81.4792899408284, 10.847772180047995 82.27810650887574, 12.115394145344629 83.07692307692308, 14.76333275640388 83.87573964497041, 11.210805006230764 84.67455621301775, 14.983190734406945 85.4733727810651, 14.999391948397294 86.27218934911244, 9.640646409394114 87.07100591715975, 6.255491170651226 87.8698224852071, 4.093199558176566 88.66863905325444, 3.1480705246535234 89.46745562130178, 8.707921249741132 90.26627218934911, 6.610042812459646 91.06508875739645, 8.721695641606171 91.8639053254438, 9.102419128656097 92.66272189349112, 6.6617633219497066 93.46153846153845, 0.0 94.2603550295858, 0.18746587536214346 95.05917159763314, 2.865754805108616 95.85798816568047, 6.527605163907681 96.65680473372781, 7.717549898579766 97.45562130177515, 11.387055159819205 98.2544378698225, 11.471824271314587 99.05325443786982, 12.517318736513824 99.85207100591715, 13.820172277134867 100.6508875739645, 10.682427551948706 101.44970414201183, 11.922632896478106 102.24852071005917, 10.951500540998563 103.04733727810651, 11.979351449231155 103.84615384615385, 13.562009416907886 104.64497041420118, 12.34396458608175 105.44378698224853, 13.016736761572528 106.24260355029585, 15.343962519478072 107.0414201183432, 15.160452746598157 107.84023668639053, 14.771889681202452 108.63905325443787, 14.245651717637479 109.43786982248521, 13.798838228990576 110.23668639053254, 14.232088242543595 111.03550295857988, 15.390479412023064 111.83431952662723, 15.210420730525028 112.63313609467457, 16.532171512478744 113.43195266272188, 17.590146839171634 114.23076923076923, 17.66291483076518 115.02958579881657, 13.501054860188095 115.82840236686391, 10.831202051025329 116.62721893491124, 13.516676749085828 117.42603550295858, 15.517469485517646 118.22485207100593, 17.19253660466275 119.02366863905324, 18.414843212561873 119.82248520710058, 17.560634178943495 120.62130177514793, 23.36959652409551 121.42011834319527, 23.47754614463763 122.2189349112426, 25.101261612107983 123.01775147928994, 23.794026906337137 123.81656804733728, 24.09212353671589 124.61538461538463, 23.21460971983646 125.41420118343194, 22.159443754335868 126.21301775147928, 18.25850491277312 127.01183431952663, 16.39672329722775 127.81065088757396, 15.99069850014509 128.60946745562129, 17.96074389860461 129.40828402366864, 19.508305294921726 130.20710059171597, 18.268472220676067 131.0059171597633, 18.145663312417476 131.80473372781066, 16.538503289800893 132.60355029585799, 16.238802168075534 133.40236686390534, 15.856238425191918 134.20118343195267, 16.744959371685265" fill="none" stroke="#32ca5b" stroke-width="1.25"/>

</svg>