<?xml version="1.0" standalone="no"?>
<!DOCTYPE svg PUBLIC "-//W3C//DTD SVG 1.1//EN" "http://www.w3.org/Graphics/SVG/1.1/DTD/svg11.dtd">

<svg width="135" height="50" viewBox="0 0 135 50" preserveAspectRatio="none" 
  xmlns="http://www.w3.org/2000/svg"
  xmlns:xlink="http://www.w3.org/1999/xlink">


<polyline points="0.0, 25.037181683272113 0.7988165680473372, 26.884765408498097 1.5976331360946745, 26.880730112954087 2.396449704142012, 27.699594385638033 3.195266272189349, 25.20623419607165 3.994082840236686, 24.808904715158377 4.792899408284024, 33.6247430594339 5.591715976331361, 24.46404364363348 6.390532544378698, 24.364631145726516 7.189349112426036, 22.825142695036394 7.988165680473372, 21.92117136791711 8.78698224852071, 21.84171673265644 9.585798816568047, 28.817455866587256 10.384615384615385, 14.213657334588026 11.183431952662723, 30.775535460066056 11.982248520710058, 34.60049963053263 12.781065088757396, 46.659146499399135 13.579881656804734, 50.0 14.378698224852071, 42.35059066276906 15.177514792899409, 26.117716627061192 15.976331360946745, 25.86638000115818 16.775147928994084, 24.886668041037517 17.57396449704142, 22.541706193842018 18.37278106508876, 21.24456726046294 19.171597633136095, 23.841605622912034 19.970414201183434, 23.642260513058805 20.76923076923077, 22.010997654722637 21.56804733727811, 21.72663299018853 22.366863905325445, 26.7895127930821 23.16568047337278, 29.490344870910544 23.964497041420117, 33.46658708995604 24.763313609467456, 42.228344430892676 25.562130177514792, 20.196458438411646 26.36094674556213, 19.937767188439086 27.159763313609467, 17.794956008711413 27.958579881656807, 20.476752093222068 28.757396449704142, 25.779822121146246 29.55621301775148, 22.3214125925238 30.355029585798817, 23.363235345130054 31.153846153846157, 21.023070744470974 31.95266272189349, 16.05337800913498 32.751479289940825, 25.258690539516653 33.55029585798817, 26.792086411292164 34.349112426035504, 21.079841488916102 35.14792899408284, 18.67673983145194 35.94674556213018, 20.22919425166102 36.74556213017752, 20.344991318803224 37.54437869822485, 21.315869911531667 38.34319526627219, 21.793972747966368 39.142011834319526, 25.913613537105512 39.94082840236687, 21.370237609430788 40.7396449704142, 22.070677199725136 41.53846153846154, 23.219955535776926 42.337278106508876, 20.13931152809826 43.13609467455622, 19.260200064959303 43.93491124260355, 20.098766199088473 44.73372781065089, 17.505242054520057 45.532544378698226, 17.293508749372673 46.33136094674556, 20.09617803392628 47.1301775147929, 19.260022147979203 47.928994082840234, 20.70464696462079 48.72781065088758, 21.615389892473463 49.52662721893491, 20.825502799326816 50.32544378698225, 24.448048591023333 51.124260355029584, 24.297909454635846 51.92307692307693, 21.36243874701695 52.72189349112426, 21.26102397923048 53.5207100591716, 25.016528795329336 54.319526627218934, 20.083115760639576 55.11834319526627, 23.562308908102462 55.91715976331361, 24.040133397876804 56.71597633136094, 24.695808085563364 57.514792899408285, 23.53986800516756 58.31360946745562, 23.164378265713413 59.11242603550296, 28.180970995777933 59.91124260355029, 23.77430086645695 60.710059171597635, 19.878899261901495 61.50887573964497, 17.24484485366733 62.307692307692314, 21.91213965268707 63.10650887573964, 22.479617400597903 63.90532544378698, 21.956045576634864 64.70414201183432, 21.961910864835072 65.50295857988165, 21.945889155324558 66.30177514792899, 24.333913877164346 67.10059171597634, 23.37119467729936 67.89940828402366, 22.04623817562103 68.69822485207101, 20.644918278334544 69.49704142011834, 22.592114949665422 70.29585798816568, 20.226677861451876 71.09467455621302, 18.552701489740965 71.89349112426036, 18.46390366124484 72.6923076923077, 12.531730700924825 73.49112426035504, 12.034845644282273 74.28994082840237, 12.374068499774198 75.0887573964497, 16.40798969688429 75.88757396449704, 12.181852151320971 76.68639053254438, 11.461274420109985 77.48520710059172, 4.677004942934147 78.28402366863905, 3.484858332946112 79.0828402366864, 3.5080755865024975 79.88165680473374, 1.4915410298105038 80.68047337278107, 15.557287573375115 81.4792899408284, 15.484594193786455 82.27810650887574, 16.10656492703298 83.07692307692308, 18.941311362907665 83.87573964497041, 18.185897650932798 84.67455621301775, 29.29326496678763 85.4733727810651, 27.86295699210004 86.27218934911244, 27.963768399805787 87.07100591715975, 26.780044608137427 87.8698224852071, 29.868527666747095 88.66863905325444, 32.59273304370797 89.46745562130178, 16.673019439777974 90.26627218934911, 14.230753954156059 91.06508875739645, 21.717822643700796 91.8639053254438, 21.61735594227626 92.66272189349112, 19.887199385851172 93.46153846153845, 18.281430557957616 94.2603550295858, 16.01868737074973 95.05917159763314, 12.344919770797691 95.85798816568047, 12.535141820631642 96.65680473372781, 14.147242846850414 97.45562130177515, 21.225540453898372 98.2544378698225, 20.27513313276209 99.05325443786982, 16.963032062452537 99.85207100591715, 10.953155450420338 100.6508875739645, 14.627484704760619 101.44970414201183, 11.698643200337653 102.24852071005917, 21.693033658543527 103.04733727810651, 17.81514605432663 103.84615384615385, 15.722422016465403 104.64497041420118, 8.792288899029412 105.44378698224853, 11.881851243425674 106.24260355029585, 7.330440813241948 107.0414201183432, 18.85886325400736 107.84023668639053, 20.189630134973314 108.63905325443787, 14.207195799301864 109.43786982248521, 17.29361381136162 110.23668639053254, 18.61253343194974 111.03550295857988, 20.11865705340454 111.83431952662723, 17.13782700856867 112.63313609467457, 11.943515892603806 113.43195266272188, 16.98235296238419 114.23076923076923, 17.973252500911844 115.02958579881657, 19.77862441559014 115.82840236686391, 17.557902804863772 116.62721893491124, 19.704897027624117 117.42603550295858, 17.92820475249408 118.22485207100593, 18.191250349221313 119.02366863905324, 16.723329340896868 119.82248520710058, 17.924497045292384 120.62130177514793, 17.987688167586864 121.42011834319527, 19.679304582930953 122.2189349112426, 22.32173085625833 123.01775147928994, 17.951778928308702 123.81656804733728, 19.716296349003056 124.61538461538463, 26.513518807279397 125.41420118343194, 27.17512303250959 126.21301775147928, 21.095586702032627 127.01183431952663, 19.600760563437806 127.81065088757396, 21.846633866696955 128.60946745562129, 20.916330603416135 129.40828402366864, 15.291547070579501 130.20710059171597, 18.542230748163682 131.0059171597633, 16.04497072325301 131.80473372781066, 18.867427081535197 132.60355029585799, 16.858919801561875 133.40236686390534, 1.9710947747595975 134.20118343195267, 0.0" fill="none" stroke="#32ca5b" stroke-width="1.25"/>

</svg>