<?xml version="1.0" standalone="no"?>
<!DOCTYPE svg PUBLIC "-//W3C//DTD SVG 1.1//EN" "http://www.w3.org/Graphics/SVG/1.1/DTD/svg11.dtd">

<svg width="135" height="50" viewBox="0 0 135 50" preserveAspectRatio="none" 
  xmlns="http://www.w3.org/2000/svg"
  xmlns:xlink="http://www.w3.org/1999/xlink">


<polyline points="0.0, 8.903294497589796 0.7988165680473372, 10.811154206314164 1.5976331360946745, 1.0992401305314632 2.396449704142012, 5.5273483788618485 3.195266272189349, 5.99476187351176 3.994082840236686, 3.912208455365998 4.792899408284024, 3.5562414936328985 5.591715976331361, 2.9681481347347627 6.390532544378698, 7.172994399076371 7.189349112426036, 9.18550237382716 7.988165680473372, 3.5339020536127204 8.78698224852071, 2.516906900260384 9.585798816568047, 4.955514716198253 10.384615384615385, 0.0 11.183431952662723, 9.96880393606967 11.982248520710058, 27.933917872635107 12.781065088757396, 35.00347121381497 13.579881656804734, 32.216587004387556 14.378698224852071, 31.669081829357797 15.177514792899409, 25.602247036809228 15.976331360946745, 26.630371309177903 16.775147928994084, 26.41817848058306 17.57396449704142, 23.2579654264999 18.37278106508876, 22.38646792881561 19.171597633136095, 23.33625072575927 19.970414201183434, 25.28471819358391 20.76923076923077, 26.33554815100628 21.56804733727811, 26.119958982612484 22.366863905325445, 27.6287747984991 23.16568047337278, 29.372221867668536 23.964497041420117, 31.914014559272445 24.763313609467456, 33.23328142485948 25.562130177514792, 32.01799039338608 26.36094674556213, 43.202518512558136 27.159763313609467, 38.77387315610952 27.958579881656807, 42.62172166201653 28.757396449704142, 38.7818677353822 29.55621301775148, 39.38842910068259 30.355029585798817, 44.53436707357247 31.153846153846157, 42.573996424899526 31.95266272189349, 37.12874056872833 32.751479289940825, 36.43321588021543 33.55029585798817, 31.844751642826708 34.349112426035504, 36.1555007260672 35.14792899408284, 39.97767569494795 35.94674556213018, 33.16667169360242 36.74556213017752, 33.068980271850926 37.54437869822485, 31.60087884221162 38.34319526627219, 36.05594953487217 39.142011834319526, 40.38783902416046 39.94082840236687, 38.852343497975866 40.7396449704142, 36.7780597309143 41.53846153846154, 35.57361875068618 42.337278106508876, 33.55373326624529 43.13609467455622, 28.39937967501516 43.93491124260355, 29.766499130411628 44.73372781065089, 27.710342955843476 45.532544378698226, 27.93386318506509 46.33136094674556, 31.853067853688223 47.1301775147929, 31.254949085297046 47.928994082840234, 32.361988058962815 48.72781065088758, 37.251824819205034 49.52662721893491, 33.51496013439054 50.32544378698225, 31.550998256604224 51.124260355029584, 35.416009999757556 51.92307692307693, 34.535435487777654 52.72189349112426, 33.10357542155446 53.5207100591716, 35.22571223239003 54.319526627218934, 31.90387175360529 55.11834319526627, 35.974817394846006 55.91715976331361, 34.97606701793822 56.71597633136094, 38.06749179672392 57.514792899408285, 35.157777575417 58.31360946745562, 37.16718735778164 59.11242603550296, 40.67686400718741 59.91124260355029, 41.45142220260076 60.710059171597635, 40.11988625341382 61.50887573964497, 36.37391126312509 62.307692307692314, 35.3861454807488 63.10650887573964, 38.99043747476392 63.90532544378698, 41.450102844299884 64.70414201183432, 40.73866318878059 65.50295857988165, 38.691403350433994 66.30177514792899, 37.99402294265987 67.10059171597634, 39.740269999487346 67.89940828402366, 38.20349668567788 68.69822485207101, 33.91929064915375 69.49704142011834, 40.3139479884411 70.29585798816568, 44.490209164279975 71.09467455621302, 39.908733793972345 71.89349112426036, 40.81912680128003 72.6923076923077, 40.41145700385639 73.49112426035504, 37.90609624100208 74.28994082840237, 41.29879021112088 75.0887573964497, 43.24844152856001 75.88757396449704, 44.402709635257594 76.68639053254438, 41.97716694945396 77.48520710059172, 50.0 78.28402366863905, 45.30281978730457 79.0828402366864, 42.95250862426994 79.88165680473374, 40.781960541051944 80.68047337278107, 39.70540095349671 81.4792899408284, 41.39022650872325 82.27810650887574, 38.78706865316509 83.07692307692308, 38.959798304766835 83.87573964497041, 36.156020853040005 84.67455621301775, 35.155536044600986 85.4733727810651, 35.50733218057523 86.27218934911244, 37.105432105150356 87.07100591715975, 35.878305658304846 87.8698224852071, 37.5558925316946 88.66863905325444, 36.6003576783246 89.46745562130178, 33.45415195817172 90.26627218934911, 32.73493598801428 91.06508875739645, 33.42190398716677 91.8639053254438, 33.49464123986986 92.66272189349112, 34.044558544688726 93.46153846153845, 33.816613699196665 94.2603550295858, 35.43249116114752 95.05917159763314, 35.17177742974313 95.85798816568047, 36.12279371034677 96.65680473372781, 34.71392029090698 97.45562130177515, 35.4727628699541 98.2544378698225, 35.75484945306789 99.05325443786982, 37.30302328828744 99.85207100591715, 35.99011390334239 100.6508875739645, 35.21016302939701 101.44970414201183, 35.487715414680636 102.24852071005917, 37.793881825097934 103.04733727810651, 36.65718675890332 103.84615384615385, 37.77428549840113 104.64497041420118, 36.44299724567933 105.44378698224853, 35.84317556848625 106.24260355029585, 36.850210903478136 107.0414201183432, 35.65874115100035 107.84023668639053, 36.90254920304265 108.63905325443787, 14.312564791660364 109.43786982248521, 24.914345224106007 110.23668639053254, 22.08526838461804 111.03550295857988, 22.409174773560252 111.83431952662723, 24.63906599427884 112.63313609467457, 21.578798438291436 113.43195266272188, 19.071117961221663 114.23076923076923, 17.98457282401023 115.02958579881657, 19.012150283639308 115.82840236686391, 19.972119754258312 116.62721893491124, 22.232721611623358 117.42603550295858, 20.307080848487153 118.22485207100593, 21.565515950412973 119.02366863905324, 22.624996970577303 119.82248520710058, 24.10185668312592 120.62130177514793, 27.28630735013645 121.42011834319527, 26.393308083085643 122.2189349112426, 34.240927272471836 123.01775147928994, 32.34341509934741 123.81656804733728, 32.7822087378698 124.61538461538463, 30.452063906851496 125.41420118343194, 28.8933578741353 126.21301775147928, 25.77003638368376 127.01183431952663, 21.59339588873311 127.81065088757396, 19.86718244389104 128.60946745562129, 20.149918718128387 129.40828402366864, 21.487834608614122 130.20710059171597, 18.834768512303885 131.0059171597633, 20.401925839219455 131.80473372781066, 19.810447816407862 132.60355029585799, 20.455213417909768 133.40236686390534, 19.016687795938957 134.20118343195267, 18.48987731617628" fill="none" stroke="#ff3a33" stroke-width="1.25"/>

</svg>