<?xml version="1.0" standalone="no"?>
<!DOCTYPE svg PUBLIC "-//W3C//DTD SVG 1.1//EN" "http://www.w3.org/Graphics/SVG/1.1/DTD/svg11.dtd">

<svg width="135" height="50" viewBox="0 0 135 50" preserveAspectRatio="none" 
  xmlns="http://www.w3.org/2000/svg"
  xmlns:xlink="http://www.w3.org/1999/xlink">


<polyline points="0.0, 13.506356128579721 0.7988165680473372, 7.347695901660556 1.5976331360946745, 2.7873036345485285 2.396449704142012, 0.0 3.195266272189349, 1.756168204190596 3.994082840236686, 5.98774448715362 4.792899408284024, 8.101964446130843 5.591715976331361, 6.182863282023978 6.390532544378698, 18.208599445177068 7.189349112426036, 21.205085713102527 7.988165680473372, 22.66341032972073 8.78698224852071, 17.06890762940809 9.585798816568047, 19.081580691049176 10.384615384615385, 11.71570641260286 11.183431952662723, 18.922375146443294 11.982248520710058, 26.921552083310363 12.781065088757396, 31.63890225214807 13.579881656804734, 33.9878039875793 14.378698224852071, 29.616095550108483 15.177514792899409, 26.589970793798273 15.976331360946745, 21.741993142567644 16.775147928994084, 25.833035224608253 17.57396449704142, 21.339374223439673 18.37278106508876, 20.48769954345025 19.171597633136095, 17.189113246589944 19.970414201183434, 12.317360797011458 20.76923076923077, 13.234264505934581 21.56804733727811, 5.3925646453770755 22.366863905325445, 8.253402125536685 23.16568047337278, 10.577528227514854 23.964497041420117, 12.149620356636497 24.763313609467456, 15.330940749052399 25.562130177514792, 18.88756422563941 26.36094674556213, 22.107152500368336 27.159763313609467, 20.475618934909065 27.958579881656807, 25.08189642531636 28.757396449704142, 28.812911755150633 29.55621301775148, 31.937004148031754 30.355029585798817, 31.005208922746537 31.153846153846157, 30.36262861903401 31.95266272189349, 29.54803134215701 32.751479289940825, 29.968595195742655 33.55029585798817, 27.00338113990055 34.349112426035504, 23.91701584915122 35.14792899408284, 27.36162170272808 35.94674556213018, 26.642303805269812 36.74556213017752, 25.173453062139462 37.54437869822485, 23.83980546802485 38.34319526627219, 31.583197534045006 39.142011834319526, 34.77392371943578 39.94082840236687, 32.12093817040748 40.7396449704142, 27.857769927569358 41.53846153846154, 26.359308046055197 42.337278106508876, 24.960270612470048 43.13609467455622, 23.21194405060747 43.93491124260355, 22.507453733392097 44.73372781065089, 19.437588477273092 45.532544378698226, 22.891498219675803 46.33136094674556, 22.904702329137244 47.1301775147929, 22.185547998384624 47.928994082840234, 24.148715650271004 48.72781065088758, 28.42912376448565 49.52662721893491, 26.13323621184569 50.32544378698225, 23.51594661892814 51.124260355029584, 24.38659957171177 51.92307692307693, 23.139222962917636 52.72189349112426, 24.164306406208148 53.5207100591716, 25.720820772488885 54.319526627218934, 29.639095554988042 55.11834319526627, 34.28485971318357 55.91715976331361, 40.110314676733374 56.71597633136094, 37.437446967240525 57.514792899408285, 36.296602139744635 58.31360946745562, 37.55882898732339 59.11242603550296, 39.540210795753 59.91124260355029, 38.23625353489169 60.710059171597635, 38.19249839201546 61.50887573964497, 38.28743958759206 62.307692307692314, 39.69104905990564 63.10650887573964, 42.22089999724503 63.90532544378698, 46.19396032176937 64.70414201183432, 46.49437658428696 65.50295857988165, 46.106911338271644 66.30177514792899, 46.71249583882853 67.10059171597634, 47.717072637811015 67.89940828402366, 45.060930035870165 68.69822485207101, 43.55077441424054 69.49704142011834, 50.0 70.29585798816568, 48.28286075436759 71.09467455621302, 46.852463437127525 71.89349112426036, 46.14774953318696 72.6923076923077, 42.61030653398053 73.49112426035504, 41.98754154232615 74.28994082840237, 44.382829841506656 75.0887573964497, 44.049208053159504 75.88757396449704, 44.50214643462536 76.68639053254438, 41.228267798266835 77.48520710059172, 47.221354354210106 78.28402366863905, 44.768285746329504 79.0828402366864, 42.60446449338078 79.88165680473374, 44.49013259443995 80.68047337278107, 44.47808250488786 81.4792899408284, 47.11551386223427 82.27810650887574, 43.585456571116325 83.07692307692308, 44.1819265104629 83.87573964497041, 40.85423837137196 84.67455621301775, 42.163673982223635 85.4733727810651, 42.13634846474191 86.27218934911244, 42.612739717020546 87.07100591715975, 45.42645815191799 87.8698224852071, 48.20731530266579 88.66863905325444, 48.847958144626666 89.46745562130178, 47.56651082648755 90.26627218934911, 42.22478635828068 91.06508875739645, 45.03579461362981 91.8639053254438, 43.72027855346424 92.66272189349112, 42.808594422450426 93.46153846153845, 41.97889745344883 94.2603550295858, 39.762861520055495 95.05917159763314, 39.66011120982165 95.85798816568047, 39.467737435181355 96.65680473372781, 37.65433869031127 97.45562130177515, 38.77953575450065 98.2544378698225, 38.718746171423604 99.05325443786982, 38.24106501241978 99.85207100591715, 37.252416511318835 100.6508875739645, 36.362700393470504 101.44970414201183, 24.93205933208138 102.24852071005917, 27.162622735465934 103.04733727810651, 31.12439785811772 103.84615384615385, 32.41709743231773 104.64497041420118, 31.751086700754815 105.44378698224853, 29.866203815520787 106.24260355029585, 30.69380565118614 107.0414201183432, 27.76762710892257 107.84023668639053, 26.25724034158155 108.63905325443787, 28.669948970438664 109.43786982248521, 29.493684159606808 110.23668639053254, 31.07394789868873 111.03550295857988, 27.353294994380978 111.83431952662723, 27.8496840012769 112.63313609467457, 29.45038025986428 113.43195266272188, 28.866271195088288 114.23076923076923, 27.631572475678357 115.02958579881657, 27.283495546437088 115.82840236686391, 29.06395406307182 116.62721893491124, 29.073590104908643 117.42603550295858, 27.41667528224403 118.22485207100593, 27.355725906523777 119.02366863905324, 28.76186465282785 119.82248520710058, 31.370171555173876 120.62130177514793, 32.721090116062754 121.42011834319527, 34.53346079532839 122.2189349112426, 44.58269751955932 123.01775147928994, 40.76086758918235 123.81656804733728, 41.17747294640476 124.61538461538463, 39.657959908460725 125.41420118343194, 35.699595124872076 126.21301775147928, 33.27738163806499 127.01183431952663, 31.952502553983646 127.81065088757396, 29.133469017189256 128.60946745562129, 29.537077692726616 129.40828402366864, 32.207285808284865 130.20710059171597, 30.148331243606393 131.0059171597633, 28.104412802741074 131.80473372781066, 27.88227231202738 132.60355029585799, 28.687726372304684 133.40236686390534, 24.322792694761304 134.20118343195267, 21.35332103941836" fill="none" stroke="#ff3a33" stroke-width="1.25"/>

</svg>