<?xml version="1.0" standalone="no"?>
<!DOCTYPE svg PUBLIC "-//W3C//DTD SVG 1.1//EN" "http://www.w3.org/Graphics/SVG/1.1/DTD/svg11.dtd">

<svg width="135" height="50" viewBox="0 0 135 50" preserveAspectRatio="none" 
  xmlns="http://www.w3.org/2000/svg"
  xmlns:xlink="http://www.w3.org/1999/xlink">


<polyline points="0.0, 14.411378634970415 0.7941176470588235, 18.179324044898166 1.588235294117647, 18.347634472627046 2.3823529411764706, 14.874733027504341 3.176470588235294, 20.60000466236848 3.9705882352941178, 19.62328543885306 4.764705882352941, 18.1986257891701 5.5588235294117645, 18.690195963393624 6.352941176470588, 18.802649815405097 7.147058823529411, 21.972120882214384 7.9411764705882355, 23.679174760125896 8.73529411764706, 20.647061276703145 9.529411764705882, 15.383818142380612 10.323529411764707, 12.815112961325784 11.117647058823529, 0.0 11.911764705882353, 18.52667776112948 12.705882352941176, 25.648649370742344 13.5, 31.412094403343012 14.294117647058822, 26.66304194357792 15.088235294117649, 26.765023456882343 15.882352941176471, 21.585715824679593 16.676470588235293, 22.29890227778076 17.47058823529412, 23.273762046816636 18.26470588235294, 18.923705768485885 19.058823529411764, 19.83961485913746 19.85294117647059, 26.87913514370906 20.647058823529413, 28.202214960971656 21.441176470588236, 28.479743056955343 22.235294117647058, 27.40300813162653 23.029411764705884, 28.648345595116165 23.823529411764707, 30.210002276637383 24.61764705882353, 31.657529471584205 25.41176470588235, 32.41133941252519 26.205882352941178, 30.83077203390479 27.0, 38.253105422970464 27.794117647058822, 37.53613643651179 28.588235294117645, 40.90511158235497 29.38235294117647, 37.03908414510696 30.176470588235297, 38.6723321959242 30.970588235294116, 41.60368303623213 31.764705882352942, 39.88280761934329 32.55882352941177, 36.83381184003636 33.35294117647059, 41.22260428125197 34.14705882352941, 43.50162023322592 34.94117647058824, 40.21116051449981 35.73529411764706, 40.394481973563245 36.52941176470588, 35.449316317147726 37.32352941176471, 33.68760110939854 38.11764705882353, 33.16365919185982 38.91176470588235, 38.839421534354116 39.70588235294118, 44.89364790700687 40.5, 43.164742426488786 41.294117647058826, 41.87812267050013 42.088235294117645, 41.45916317470949 42.88235294117647, 39.61585345111047 43.6764705882353, 35.62549481425414 44.470588235294116, 34.07536147483008 45.264705882352935, 32.918611723532294 46.05882352941177, 31.23295785761916 46.85294117647059, 35.75222467913532 47.64705882352941, 36.27769566165333 48.44117647058824, 38.41979913119073 49.23529411764706, 41.37191181941551 50.029411764705884, 36.99360735561016 50.8235294117647, 35.964331476595305 51.61764705882353, 38.628512200108936 52.411764705882355, 34.67055914532918 53.205882352941174, 33.51563619212288 54.0, 34.39290326626682 54.794117647058826, 31.41253332709945 55.588235294117645, 34.90092232032229 56.38235294117647, 36.5193410646034 57.17647058823529, 39.62250742244791 57.970588235294116, 35.684472151253 58.76470588235294, 39.05001145583748 59.55882352941176, 41.60307905173745 60.352941176470594, 42.750229072322846 61.14705882352941, 41.397456136209556 61.94117647058823, 42.10068469542817 62.73529411764706, 39.66118552229367 63.529411764705884, 42.752707802542155 64.3235294117647, 44.00245512351363 65.11764705882354, 42.591625504983284 65.91176470588235, 42.98524243849933 66.70588235294117, 41.77746242954649 67.5, 44.10598247134759 68.29411764705883, 40.016126281792786 69.08823529411764, 39.61974976360895 69.88235294117648, 44.05273247607012 70.6764705882353, 43.857816635436585 71.47058823529412, 43.156364455785145 72.26470588235294, 42.802706728246044 73.05882352941175, 41.162844969027596 73.8529411764706, 40.33496782154984 74.64705882352942, 41.42813865921417 75.44117647058823, 44.06897182228553 76.23529411764706, 43.08437844291151 77.02941176470588, 44.02285507504781 77.8235294117647, 50.0 78.61764705882354, 46.241438768223695 79.41176470588236, 45.34103026267396 80.20588235294117, 43.840866786444124 81.0, 43.51735751610766 81.79411764705881, 44.769220773402516 82.58823529411765, 41.30633871682875 83.38235294117648, 43.221420646984484 84.17647058823529, 39.458044978908305 84.97058823529412, 36.05215957735457 85.76470588235294, 36.8223819422963 86.55882352941177, 38.8737179330896 87.3529411764706, 36.91512872468071 88.14705882352942, 39.06748157050144 88.94117647058823, 30.77673897090075 89.73529411764706, 31.21245525521835 90.52941176470587, 26.36634605553409 91.32352941176471, 28.801243552882237 92.11764705882354, 28.46024753672129 92.91176470588235, 27.077089280792453 93.70588235294117, 29.229732869605098 94.5, 30.258810875079867 95.29411764705883, 28.614423245644204 96.08823529411765, 31.840176157212767 96.88235294117648, 30.323799061153604 97.67647058823529, 33.40263194009926 98.47058823529412, 33.83660940042054 99.26470588235294, 35.276903927532715 100.05882352941177, 35.84134818145965 100.8529411764706, 35.230968442431916 101.6470588235294, 36.07119731614855 102.44117647058823, 37.977980727871596 103.23529411764706, 37.196449726119454 104.02941176470588, 36.632968607799484 104.82352941176471, 34.16370303064647 105.61764705882352, 33.17371520608445 106.41176470588235, 35.424874794101136 107.20588235294117, 32.96712831596601 108.0, 36.67415974745563 108.79411764705883, 37.09073586976234 109.58823529411765, 35.26168895956895 110.38235294117646, 36.07631910827218 111.17647058823529, 33.92026787371 111.97058823529413, 33.34199241591429 112.76470588235294, 34.08242808078237 113.55882352941177, 32.9521796177529 114.35294117647058, 34.17367531867822 115.1470588235294, 36.25197896163301 115.94117647058823, 36.80524576078098 116.73529411764706, 38.243776437246716 117.52941176470588, 37.01328296816726 118.32352941176471, 38.28559373119353 119.11764705882352, 36.75435013694532 119.91176470588235, 36.07986504739454 120.70588235294119, 39.111965663755875 121.5, 38.63041713019644 122.29411764705883, 45.22601430703263 123.08823529411764, 43.27198116985288 123.88235294117646, 43.45959934905934 124.6764705882353, 42.051346506428374 125.47058823529412, 42.3636760397212 126.26470588235294, 37.82645226301395 127.05882352941177, 32.61771535071932 127.85294117647058, 27.88523448115888 128.6470588235294, 27.107765669100715 129.44117647058823, 28.368890347851206 130.23529411764707, 27.614296533170897 131.02941176470588, 27.18283840338734 131.8235294117647, 23.3208155780206 132.61764705882354, 24.121434719058037 133.41176470588235, 24.108640132754424 134.2058823529412, 23.37107147067949" fill="none" stroke="#ff3a33" stroke-width="1.25"/>

</svg>