<?xml version="1.0" standalone="no"?>
<!DOCTYPE svg PUBLIC "-//W3C//DTD SVG 1.1//EN" "http://www.w3.org/Graphics/SVG/1.1/DTD/svg11.dtd">

<svg width="135" height="50" viewBox="0 0 135 50" preserveAspectRatio="none" 
  xmlns="http://www.w3.org/2000/svg"
  xmlns:xlink="http://www.w3.org/1999/xlink">


<polyline points="0.0, 33.35476385537159 0.7988165680473372, 33.56210333892239 1.5976331360946745, 29.150967596950732 2.396449704142012, 41.15078235505077 3.195266272189349, 33.5382907153182 3.994082840236686, 30.43352571287508 4.792899408284024, 29.122403177056476 5.591715976331361, 32.56255222507761 6.390532544378698, 31.368796374147912 7.189349112426036, 31.111553134674768 7.988165680473372, 24.01150872182605 8.78698224852071, 24.48193768848948 9.585798816568047, 19.66064014150347 10.384615384615385, 20.203301017374798 11.183431952662723, 26.202369031533852 11.982248520710058, 35.89824071801505 12.781065088757396, 38.977123645137056 13.579881656804734, 35.27988587443245 14.378698224852071, 35.25606259864893 15.177514792899409, 34.28113562443495 15.976331360946745, 34.12755050226223 16.775147928994084, 32.0796303246854 17.57396449704142, 25.68882020930918 18.37278106508876, 25.04519478697691 19.171597633136095, 25.49926213770638 19.970414201183434, 17.900892837778866 20.76923076923077, 16.534420525503656 21.56804733727811, 15.978531800247822 22.366863905325445, 16.956981807188505 23.16568047337278, 14.669550568539439 23.964497041420117, 14.90963291771391 24.763313609467456, 21.93869408446648 25.562130177514792, 21.42422029220682 26.36094674556213, 34.99080094428514 27.159763313609467, 31.117566690017533 27.958579881656807, 36.854758166187224 28.757396449704142, 33.20371524043969 29.55621301775148, 34.189926347456925 30.355029585798817, 32.56710257654547 31.153846153846157, 39.049645683459076 31.95266272189349, 36.62751443650624 32.751479289940825, 33.527861221517554 33.55029585798817, 36.2654975243982 34.349112426035504, 36.50524777678079 35.14792899408284, 36.716243041725946 35.94674556213018, 32.79034139491171 36.74556213017752, 29.126603137707146 37.54437869822485, 27.703311318576212 38.34319526627219, 21.918228645512738 39.142011834319526, 30.310980617214124 39.94082840236687, 27.24994153032097 40.7396449704142, 23.338824226611372 41.53846153846154, 15.891036289410007 42.337278106508876, 8.247167056192376 43.13609467455622, 10.57147322330093 43.93491124260355, 12.705469885641063 44.73372781065089, 16.692020416848692 45.532544378698226, 11.711865513731889 46.33136094674556, 16.788829118834993 47.1301775147929, 16.87094255993567 47.928994082840234, 18.162153780245692 48.72781065088758, 21.609085784042627 49.52662721893491, 17.28150109138443 50.32544378698225, 16.807136987640327 51.124260355029584, 9.299503499058293 51.92307692307693, 9.625777500143165 52.72189349112426, 8.993397814469388 53.5207100591716, 9.100042863718162 54.319526627218934, 10.980844459275154 55.11834319526627, 9.54252171381191 55.91715976331361, 9.525795979020785 56.71597633136094, 10.842191690005894 57.514792899408285, 7.0159422281193065 58.31360946745562, 6.763629413617281 59.11242603550296, 8.832468894711933 59.91124260355029, 14.205782122892549 60.710059171597635, 6.459422794314775 61.50887573964497, 4.2401944143695065 62.307692307692314, 4.4295827019115395 63.10650887573964, 10.391896509512595 63.90532544378698, 6.030700100813935 64.70414201183432, 7.037231125278579 65.50295857988165, 4.768797791740336 66.30177514792899, 1.7958506017707463 67.10059171597634, 0.0 67.89940828402366, 5.497362921391051 68.69822485207101, 8.148515987428418 69.49704142011834, 10.47692914832943 70.29585798816568, 7.20871803386856 71.09467455621302, 3.136362939205753 71.89349112426036, 0.3417025615692725 72.6923076923077, 1.6620013552567807 73.49112426035504, 1.7256764547098555 74.28994082840237, 1.0751922414777535 75.0887573964497, 0.8601440556435327 75.88757396449704, 3.4978847914445064 76.68639053254438, 4.066947579419646 77.48520710059172, 13.435925420282613 78.28402366863905, 21.157594755356723 79.0828402366864, 14.71920386415129 79.88165680473374, 10.573322859261916 80.68047337278107, 8.733854696503924 81.4792899408284, 10.794311320665397 82.27810650887574, 7.496378144080537 83.07692307692308, 14.073109655665373 83.87573964497041, 14.732402141526332 84.67455621301775, 10.135547633058565 85.4733727810651, 13.409869793451248 86.27218934911244, 16.705154382903938 87.07100591715975, 14.727178031615137 87.8698224852071, 12.74997634221714 88.66863905325444, 16.75667214217765 89.46745562130178, 17.372671008568226 90.26627218934911, 16.053459675178104 91.06508875739645, 8.17844221963204 91.8639053254438, 8.810136526109043 92.66272189349112, 14.08214474517277 93.46153846153845, 14.745069683887783 94.2603550295858, 10.782888461825243 95.05917159763314, 16.067916875869443 95.85798816568047, 15.410190427040662 96.65680473372781, 16.092092572504583 97.45562130177515, 16.097906215554588 98.2544378698225, 25.300264188443013 99.05325443786982, 24.640887615386454 99.85207100591715, 23.326938561010564 100.6508875739645, 25.955386873838638 101.44970414201183, 27.929791591245294 102.24852071005917, 27.93078102782738 103.04733727810651, 28.572525500558193 103.84615384615385, 26.099361318953544 104.64497041420118, 26.066092354348125 105.44378698224853, 24.09624555083324 106.24260355029585, 23.44483160586071 107.0414201183432, 25.430828362002227 107.84023668639053, 25.43150554870706 108.63905325443787, 24.09121124102719 109.43786982248521, 25.409084526883507 110.23668639053254, 24.664818545202344 111.03550295857988, 26.063676795478997 111.83431952662723, 20.664971868612668 112.63313609467457, 21.98795954242151 113.43195266272188, 24.105106599839374 114.23076923076923, 24.131146486142974 115.02958579881657, 24.34650019478493 115.82840236686391, 27.968297459902615 116.62721893491124, 25.22576040655407 117.42603550295858, 23.595550545222142 118.22485207100593, 24.343705365784228 119.02366863905324, 25.229470971917728 119.82248520710058, 24.39202013477015 120.62130177514793, 30.334952291124267 121.42011834319527, 37.36843664629133 122.2189349112426, 50.0 123.01775147928994, 45.13728567841039 123.81656804733728, 42.29467724675796 124.61538461538463, 38.54728609923113 125.41420118343194, 38.80195165120946 126.21301775147928, 36.894557828249475 127.01183431952663, 29.940485734085463 127.81065088757396, 28.821309831413526 128.60946745562129, 26.572108920202908 129.40828402366864, 26.349304643787097 130.20710059171597, 25.75373419387505 131.0059171597633, 23.064141321933786 131.80473372781066, 22.946941375256316 132.60355029585799, 23.485446633369175 133.40236686390534, 23.23878951532175 134.20118343195267, 28.15430654183236" fill="none" stroke="#32ca5b" stroke-width="1.25"/>

</svg>