<?xml version="1.0" standalone="no"?>
<!DOCTYPE svg PUBLIC "-//W3C//DTD SVG 1.1//EN" "http://www.w3.org/Graphics/SVG/1.1/DTD/svg11.dtd">

<svg width="135" height="50" viewBox="0 0 135 50" preserveAspectRatio="none" 
  xmlns="http://www.w3.org/2000/svg"
  xmlns:xlink="http://www.w3.org/1999/xlink">


<polyline points="0.0, 2.4075336495198045 0.7988165680473372, 5.227948738891178 1.5976331360946745, 3.2589896694274567 2.396449704142012, 10.145005299554585 3.195266272189349, 4.755628337772181 3.994082840236686, 4.053489010772923 4.792899408284024, 5.214828807892304 5.591715976331361, 7.478226844444912 6.390532544378698, 9.059878312321548 7.189349112426036, 9.600118780344715 7.988165680473372, 7.03226189684473 8.78698224852071, 6.19657302508716 9.585798816568047, 6.6884577367400455 10.384615384615385, 0.0 11.183431952662723, 9.784248229191975 11.982248520710058, 15.55863475620328 12.781065088757396, 21.47461683159185 13.579881656804734, 17.26241830831522 14.378698224852071, 16.31405861197946 15.177514792899409, 11.011170341664013 15.976331360946745, 10.965710570924168 16.775147928994084, 8.771716451521016 17.57396449704142, 7.903156352433522 18.37278106508876, 7.3229009641231455 19.171597633136095, 8.538046385219898 19.970414201183434, 9.438057323765857 20.76923076923077, 9.874037358708184 21.56804733727811, 9.491201447559048 22.366863905325445, 9.596675125664156 23.16568047337278, 12.234796322309597 23.964497041420117, 13.87006770845558 24.763313609467456, 18.55946334991343 25.562130177514792, 15.093983079749176 26.36094674556213, 24.410356656055775 27.159763313609467, 25.87455977272381 27.958579881656807, 27.752147442294284 28.757396449704142, 25.613553019093022 29.55621301775148, 30.80121992722234 30.355029585798817, 35.796786210304354 31.153846153846157, 36.65058738039526 31.95266272189349, 33.99593300133174 32.751479289940825, 39.39251840649244 33.55029585798817, 39.94725728999711 34.349112426035504, 37.748429579181945 35.14792899408284, 39.275785517347074 35.94674556213018, 34.16352554292788 36.74556213017752, 32.665818618470276 37.54437869822485, 28.276911258224285 38.34319526627219, 31.372081897143367 39.142011834319526, 35.11488858253916 39.94082840236687, 35.755788030154235 40.7396449704142, 34.496446012593886 41.53846153846154, 36.64355925892677 42.337278106508876, 35.9848113421092 43.13609467455622, 32.42286527533336 43.93491124260355, 30.33857855623248 44.73372781065089, 25.81432434864835 45.532544378698226, 24.074438128781924 46.33136094674556, 25.373722462723485 47.1301775147929, 27.144251372837296 47.928994082840234, 31.235257983194504 48.72781065088758, 33.17734060407558 49.52662721893491, 29.48312351852367 50.32544378698225, 28.798772550352442 51.124260355029584, 33.67270000781839 51.92307692307693, 30.66183748566918 52.72189349112426, 30.14875262819024 53.5207100591716, 32.983844058195935 54.319526627218934, 29.38163998598847 55.11834319526627, 33.26633886195485 55.91715976331361, 31.889443921684258 56.71597633136094, 33.99884272200126 57.514792899408285, 32.52978104379161 58.31360946745562, 35.4930621807677 59.11242603550296, 39.35910594736901 59.91124260355029, 39.83053881334499 60.710059171597635, 41.289426693438344 61.50887573964497, 40.52385955081359 62.307692307692314, 37.50883319279326 63.10650887573964, 42.05984789611717 63.90532544378698, 42.83560169000091 64.70414201183432, 40.50817252131598 65.50295857988165, 41.162479321695436 66.30177514792899, 41.503138264232206 67.10059171597634, 50.0 67.89940828402366, 47.33310916271343 68.69822485207101, 41.49014544615379 69.49704142011834, 44.10255007963414 70.29585798816568, 46.85772335102012 71.09467455621302, 41.735523868509276 71.89349112426036, 44.45463382858334 72.6923076923077, 44.61994153626761 73.49112426035504, 41.71279975012944 74.28994082840237, 43.637702712116365 75.0887573964497, 46.0969789535744 75.88757396449704, 45.432032998516426 76.68639053254438, 43.6197490448925 77.48520710059172, 45.689374426867516 78.28402366863905, 42.98471071110946 79.0828402366864, 40.78427309233659 79.88165680473374, 38.03068541606181 80.68047337278107, 38.21007185718378 81.4792899408284, 41.767599423058805 82.27810650887574, 38.16079589613432 83.07692307692308, 35.222773725590486 83.87573964497041, 29.339348826700544 84.67455621301775, 19.631946183044228 85.4733727810651, 24.65708028651613 86.27218934911244, 27.987692121189404 87.07100591715975, 27.375618757289725 87.8698224852071, 31.321256473585592 88.66863905325444, 33.974855188280344 89.46745562130178, 32.55974948098995 90.26627218934911, 30.144491230623476 91.06508875739645, 31.140330245100856 91.8639053254438, 34.020342052803265 92.66272189349112, 33.988854130697845 93.46153846153845, 34.75784923684457 94.2603550295858, 33.122361810027186 95.05917159763314, 31.293349227122103 95.85798816568047, 29.84529057261762 96.65680473372781, 30.899163837924863 97.45562130177515, 31.566529803240073 98.2544378698225, 32.64066150245069 99.05325443786982, 32.7661565319958 99.85207100591715, 32.267953607854885 100.6508875739645, 31.766292899522142 101.44970414201183, 33.066377855026275 102.24852071005917, 35.0261926076756 103.04733727810651, 34.66955895878244 103.84615384615385, 35.704353470010254 104.64497041420118, 34.03567826475973 105.44378698224853, 32.16114761512514 106.24260355029585, 31.921820981523652 107.0414201183432, 28.500471626601936 107.84023668639053, 31.253249425507214 108.63905325443787, 34.722564676884055 109.43786982248521, 32.05813627386985 110.23668639053254, 31.855452524496215 111.03550295857988, 31.025182879609147 111.83431952662723, 27.91049039711674 112.63313609467457, 28.586270311979106 113.43195266272188, 29.043069789118338 114.23076923076923, 27.924033004597305 115.02958579881657, 23.086465610551915 115.82840236686391, 25.749986180338784 116.62721893491124, 26.94805749916003 117.42603550295858, 25.478087546409515 118.22485207100593, 23.518388172074307 119.02366863905324, 22.435438807354235 119.82248520710058, 20.549800693599742 120.62130177514793, 23.38183100937798 121.42011834319527, 22.409601541630423 122.2189349112426, 29.97689956928208 123.01775147928994, 24.150802483370537 123.81656804733728, 25.141957588864294 124.61538461538463, 23.22692996549547 125.41420118343194, 24.920289624319793 126.21301775147928, 20.436097690782166 127.01183431952663, 18.935320785819247 127.81065088757396, 16.29496337492935 128.60946745562129, 17.53289339995395 129.40828402366864, 21.59187592919302 130.20710059171597, 18.14979078706478 131.0059171597633, 16.794594728893284 131.80473372781066, 17.538678693806638 132.60355029585799, 15.457140328007451 133.40236686390534, 14.404706384674745 134.20118343195267, 13.476711818029855" fill="none" stroke="#ff3a33" stroke-width="1.25"/>

</svg>