<?xml version="1.0" standalone="no"?>
<!DOCTYPE svg PUBLIC "-//W3C//DTD SVG 1.1//EN" "http://www.w3.org/Graphics/SVG/1.1/DTD/svg11.dtd">

<svg width="135" height="50" viewBox="0 0 135 50" preserveAspectRatio="none" 
  xmlns="http://www.w3.org/2000/svg"
  xmlns:xlink="http://www.w3.org/1999/xlink">


<polyline points="0.0, 44.36654936020868 0.7988165680473372, 44.445032769690826 1.5976331360946745, 44.623642228585126 2.396449704142012, 44.879135863075625 3.195266272189349, 45.38298119092797 3.994082840236686, 45.33598414354271 4.792899408284024, 44.46780837886437 5.591715976331361, 43.77685633519868 6.390532544378698, 43.97013809199753 7.189349112426036, 44.3838611293193 7.988165680473372, 45.015130436745736 8.78698224852071, 44.5712752634318 9.585798816568047, 43.993684019058044 10.384615384615385, 43.48299204852668 11.183431952662723, 43.05599480917682 11.982248520710058, 43.68667719999124 12.781065088757396, 45.84677156228834 13.579881656804734, 45.38726976311202 14.378698224852071, 46.146242753088956 15.177514792899409, 45.912372194853354 15.976331360946745, 45.33535029488042 16.775147928994084, 45.64285937295017 17.57396449704142, 45.93852913596573 18.37278106508876, 45.53166983371478 19.171597633136095, 45.10425443791649 19.970414201183434, 41.72200953143007 20.76923076923077, 41.85040101194745 21.56804733727811, 41.489203658269794 22.366863905325445, 42.9787654419559 23.16568047337278, 43.64400970242554 23.964497041420117, 44.01883514008419 24.763313609467456, 44.4546237895534 25.562130177514792, 44.54633183934512 26.36094674556213, 44.250872501779185 27.159763313609467, 45.57243657296987 27.958579881656807, 46.06718750064415 28.757396449704142, 46.962290604642725 29.55621301775148, 48.189777117402905 30.355029585798817, 48.737913855472755 31.153846153846157, 50.0 31.95266272189349, 48.46825912241105 32.751479289940825, 48.23823902863648 33.55029585798817, 49.156117712888275 34.349112426035504, 49.639821462706266 35.14792899408284, 49.28484783049162 35.94674556213018, 49.59151397457357 36.74556213017752, 49.2303325035553 37.54437869822485, 48.90052783655741 38.34319526627219, 48.267532992000895 39.142011834319526, 47.69549520424241 39.94082840236687, 48.13076313860838 40.7396449704142, 48.59434448111683 41.53846153846154, 48.36464071709431 42.337278106508876, 48.29557451227869 43.13609467455622, 47.33749285411573 43.93491124260355, 46.63857887153386 44.73372781065089, 46.65814843733231 45.532544378698226, 44.32562969593592 46.33136094674556, 43.5450865901364 47.1301775147929, 43.65832614535798 47.928994082840234, 44.16947574075284 48.72781065088758, 43.4985684860147 49.52662721893491, 44.99750385784067 50.32544378698225, 44.606723197235226 51.124260355029584, 43.91192636174036 51.92307692307693, 44.71921025117427 52.72189349112426, 44.169643381944724 53.5207100591716, 43.94274693537239 54.319526627218934, 43.88681097775733 55.11834319526627, 43.123014602655815 55.91715976331361, 43.76459868819438 56.71597633136094, 43.05387697729211 57.514792899408285, 43.48778262685754 58.31360946745562, 42.76384747463929 59.11242603550296, 42.24081333987822 59.91124260355029, 42.16790019456025 60.710059171597635, 42.00922983750072 61.50887573964497, 41.93373047987049 62.307692307692314, 41.48038757418869 63.10650887573964, 38.163088899897815 63.90532544378698, 31.707057183903093 64.70414201183432, 34.26474219987193 65.50295857988165, 33.64096522243233 66.30177514792899, 34.58576832222196 67.10059171597634, 32.31640021191897 67.89940828402366, 34.05010113379633 68.69822485207101, 34.95547927510675 69.49704142011834, 32.132427474741554 70.29585798816568, 34.68293609732627 71.09467455621302, 31.501348630269693 71.89349112426036, 30.712152809552762 72.6923076923077, 29.406149190165902 73.49112426035504, 29.27746677974562 74.28994082840237, 28.841718343226784 75.0887573964497, 25.889103650476574 75.88757396449704, 28.18698008858645 76.68639053254438, 29.22697799617898 77.48520710059172, 29.36209633090418 78.28402366863905, 32.00290906647798 79.0828402366864, 32.10786324357462 79.88165680473374, 29.95391207444792 80.68047337278107, 24.823461068380556 81.4792899408284, 27.472729032558046 82.27810650887574, 27.396226189962913 83.07692307692308, 28.777423702421572 83.87573964497041, 29.35792057736551 84.67455621301775, 28.992039724024142 85.4733727810651, 28.878050287274498 86.27218934911244, 29.27329671989259 87.07100591715975, 30.24573690077506 87.8698224852071, 29.0964492473623 88.66863905325444, 30.81150659644974 89.46745562130178, 30.760300298058862 90.26627218934911, 29.486886453499984 91.06508875739645, 30.726405897120053 91.8639053254438, 29.89363437558767 92.66272189349112, 30.222792476508292 93.46153846153845, 30.159723781520135 94.2603550295858, 29.625967539229503 95.05917159763314, 29.7392737347524 95.85798816568047, 28.2528855545721 96.65680473372781, 31.90715469719217 97.45562130177515, 31.38995695934808 98.2544378698225, 30.904623220327398 99.05325443786982, 30.50942791313463 99.85207100591715, 31.819394683922873 100.6508875739645, 31.386782460469693 101.44970414201183, 30.993559951780064 102.24852071005917, 31.6022052955252 103.04733727810651, 32.56170971677031 103.84615384615385, 32.99573407447054 104.64497041420118, 32.756275443110425 105.44378698224853, 32.58073249703347 106.24260355029585, 31.52540429311697 107.0414201183432, 32.452661943844745 107.84023668639053, 32.43548599002989 108.63905325443787, 32.109491533539156 109.43786982248521, 31.276482855009153 110.23668639053254, 27.09595984503669 111.03550295857988, 22.773585508066986 111.83431952662723, 19.643467006483466 112.63313609467457, 16.603620185213792 113.43195266272188, 18.06422229803314 114.23076923076923, 19.656571017109698 115.02958579881657, 14.377905304516725 115.82840236686391, 16.806029671116715 116.62721893491124, 12.797372068131121 117.42603550295858, 14.781005625415885 118.22485207100593, 13.20624166690745 119.02366863905324, 15.460260426876868 119.82248520710058, 16.807257550794414 120.62130177514793, 17.917806118176465 121.42011834319527, 16.97476757686233 122.2189349112426, 16.115946900274125 123.01775147928994, 17.413780011774993 123.81656804733728, 15.235184759135484 124.61538461538463, 14.593951769999228 125.41420118343194, 14.22836352422117 126.21301775147928, 12.4541351735755 127.01183431952663, 0.8068626216440228 127.81065088757396, 0.0 128.60946745562129, 3.5672593267451878 129.40828402366864, 5.249876241513766 130.20710059171597, 7.031727269965423 131.0059171597633, 6.403153535397984 131.80473372781066, 5.265705568410897 132.60355029585799, 2.332472591078362 133.40236686390534, 4.243804625488514 134.20118343195267, 2.1039948876551415" fill="none" stroke="#32ca5b" stroke-width="1.25"/>

</svg>