<?xml version="1.0" standalone="no"?>
<!DOCTYPE svg PUBLIC "-//W3C//DTD SVG 1.1//EN" "http://www.w3.org/Graphics/SVG/1.1/DTD/svg11.dtd">

<svg width="135" height="50" viewBox="0 0 135 50" preserveAspectRatio="none" 
  xmlns="http://www.w3.org/2000/svg"
  xmlns:xlink="http://www.w3.org/1999/xlink">


<polyline points="0.0, 13.456387196112377 0.7988165680473372, 19.536088844316872 1.5976331360946745, 21.34560730036055 2.396449704142012, 17.50137447372543 3.195266272189349, 21.87208669344561 3.994082840236686, 17.01103406995 4.792899408284024, 15.251551354664386 5.591715976331361, 15.695451519480555 6.390532544378698, 18.903832502042466 7.189349112426036, 20.94970141854718 7.988165680473372, 24.40622085245904 8.78698224852071, 18.52388583347423 9.585798816568047, 17.46238314494764 10.384615384615385, 19.901516483284688 11.183431952662723, 14.973744166645492 11.982248520710058, 23.324147981450945 12.781065088757396, 32.2914605607938 13.579881656804734, 35.437604458689734 14.378698224852071, 33.88468120021371 15.177514792899409, 30.014506630850267 15.976331360946745, 26.21434316198854 16.775147928994084, 25.361436509045337 17.57396449704142, 24.867949050537643 18.37278106508876, 20.51026547810145 19.171597633136095, 22.477532814779607 19.970414201183434, 24.740713728057116 20.76923076923077, 27.651214704870398 21.56804733727811, 29.794704517628674 22.366863905325445, 28.55341998676521 23.16568047337278, 30.840625885510125 23.964497041420117, 32.70495010833191 24.763313609467456, 36.083176101218314 25.562130177514792, 38.28703026215494 26.36094674556213, 35.62610675433838 27.159763313609467, 44.63629854391779 27.958579881656807, 42.366308261987335 28.757396449704142, 44.8723387580184 29.55621301775148, 41.00183602479174 30.355029585798817, 43.516182458628975 31.153846153846157, 48.945444247463904 31.95266272189349, 45.31654515483661 32.751479289940825, 43.41885498620478 33.55029585798817, 48.4503746691331 34.349112426035504, 50.0 35.14792899408284, 47.43112773104806 35.94674556213018, 48.85827000013969 36.74556213017752, 42.62350840210913 37.54437869822485, 41.865397777485 38.34319526627219, 39.502641821517116 39.142011834319526, 44.05225409121971 39.94082840236687, 48.927488108867465 40.7396449704142, 46.97859576405287 41.53846153846154, 45.00036317946177 42.337278106508876, 45.19387383823945 43.13609467455622, 44.20437299086964 43.93491124260355, 38.06810494921697 44.73372781065089, 37.20193790699719 45.532544378698226, 35.339099220173324 46.33136094674556, 33.98019941131534 47.1301775147929, 37.21179774402616 47.928994082840234, 37.056578966236714 48.72781065088758, 38.32925477608324 49.52662721893491, 42.45841614929248 50.32544378698225, 38.50210654565064 51.124260355029584, 36.6501396530499 51.92307692307693, 39.576608220296585 52.72189349112426, 34.898447131024085 53.5207100591716, 33.08334235221806 54.319526627218934, 33.412233899836174 55.11834319526627, 28.361560213205948 55.91715976331361, 32.15008021155156 56.71597633136094, 30.28993819180952 57.514792899408285, 34.08824370971253 58.31360946745562, 32.8462375402016 59.11242603550296, 34.81943755897289 59.91124260355029, 35.72710829346384 60.710059171597635, 36.87073765569463 61.50887573964497, 36.055689828980405 62.307692307692314, 36.928353927588795 63.10650887573964, 33.40655735706534 63.90532544378698, 39.28992062078917 64.70414201183432, 42.67297662351858 65.50295857988165, 40.48377526124368 66.30177514792899, 38.327226412249615 67.10059171597634, 36.43940731117652 67.89940828402366, 40.10356293123494 68.69822485207101, 37.39808114074933 69.49704142011834, 34.045163850167945 70.29585798816568, 33.492562447571416 71.09467455621302, 36.69222286073054 71.89349112426036, 29.969376094895004 72.6923076923077, 32.10151777048875 73.49112426035504, 29.922495683262923 74.28994082840237, 29.343594830628145 75.0887573964497, 31.852499970631122 75.88757396449704, 36.82130127577927 76.68639053254438, 36.83293591457038 77.48520710059172, 30.759068281023072 78.28402366863905, 40.15789368855133 79.0828402366864, 36.56514829790733 79.88165680473374, 36.19291164904874 80.68047337278107, 32.82904402451094 81.4792899408284, 33.196140099423324 82.27810650887574, 32.57601318911378 83.07692307692308, 28.873858366191275 83.87573964497041, 31.078964294149596 84.67455621301775, 25.73357287124331 85.4733727810651, 22.059907475194652 86.27218934911244, 18.19902933462839 87.07100591715975, 20.502303539014626 87.8698224852071, 17.17476389262188 88.66863905325444, 22.616015797221216 89.46745562130178, 22.510053651989807 90.26627218934911, 21.82279115790978 91.06508875739645, 16.909498092394614 91.8639053254438, 17.558236251190532 92.66272189349112, 16.947024231097338 93.46153846153845, 16.54319789822675 94.2603550295858, 18.13633501676632 95.05917159763314, 16.80564318275228 95.85798816568047, 18.15148510812811 96.65680473372781, 20.27621208755007 97.45562130177515, 18.364774365561782 98.2544378698225, 20.73132107891147 99.05325443786982, 20.584059676459052 99.85207100591715, 20.297681627859276 100.6508875739645, 20.703863454523777 101.44970414201183, 19.4373887647163 102.24852071005917, 20.407189688168685 103.04733727810651, 22.86147266610669 103.84615384615385, 22.543612320644932 104.64497041420118, 24.166439322860903 105.44378698224853, 22.681909604195678 106.24260355029585, 22.084431220561022 107.0414201183432, 24.13244175191069 107.84023668639053, 20.98453736474129 108.63905325443787, 22.098731239031277 109.43786982248521, 24.626363713471125 110.23668639053254, 22.00409749776717 111.03550295857988, 22.97991895180647 111.83431952662723, 21.870437694606252 112.63313609467457, 21.725159866546825 113.43195266272188, 20.90449551564906 114.23076923076923, 21.1676543161957 115.02958579881657, 19.545659688792142 115.82840236686391, 19.036274755395354 116.62721893491124, 19.932824846682816 117.42603550295858, 19.902836577570824 118.22485207100593, 18.892471835089424 119.02366863905324, 11.971261191626505 119.82248520710058, 5.6871205725154566 120.62130177514793, 0.0 121.42011834319527, 5.808147473957999 122.2189349112426, 5.425393646396679 123.01775147928994, 19.281326014666746 123.81656804733728, 15.174290022540585 124.61538461538463, 11.717357344859366 125.41420118343194, 7.253928139775881 126.21301775147928, 12.622813745559178 127.01183431952663, 8.572923352461476 127.81065088757396, 6.93480856186568 128.60946745562129, 3.9015720388892188 129.40828402366864, 1.974342215888668 130.20710059171597, 4.307402038630941 131.0059171597633, 2.9161541118534116 131.80473372781066, 3.8161576807895323 132.60355029585799, 0.6352209095763813 133.40236686390534, 1.1227996588869213 134.20118343195267, 1.0922361206141702" fill="none" stroke="#32ca5b" stroke-width="1.25"/>

</svg>