<?xml version="1.0" standalone="no"?>
<!DOCTYPE svg PUBLIC "-//W3C//DTD SVG 1.1//EN" "http://www.w3.org/Graphics/SVG/1.1/DTD/svg11.dtd">

<svg width="135" height="50" viewBox="0 0 135 50" preserveAspectRatio="none" 
  xmlns="http://www.w3.org/2000/svg"
  xmlns:xlink="http://www.w3.org/1999/xlink">


<polyline points="0.0, 20.262065074413602 0.7988165680473372, 19.83269996401348 1.5976331360946745, 18.293764452190743 2.396449704142012, 19.663160611898203 3.195266272189349, 17.16096133603703 3.994082840236686, 15.481593802824273 4.792899408284024, 15.723100004145996 5.591715976331361, 17.989959269651575 6.390532544378698, 21.609668850300995 7.189349112426036, 22.909056456127544 7.988165680473372, 16.701819759964085 8.78698224852071, 13.798664200776578 9.585798816568047, 12.940134961079702 10.384615384615385, 11.57792276880718 11.183431952662723, 26.699985736533915 11.982248520710058, 35.154378078274775 12.781065088757396, 38.45744742678752 13.579881656804734, 37.54842605437601 14.378698224852071, 31.864922150192644 15.177514792899409, 27.94623326073018 15.976331360946745, 27.435507163186294 16.775147928994084, 25.38900083343326 17.57396449704142, 20.914398395399445 18.37278106508876, 21.009694246067635 19.171597633136095, 24.812249842085105 19.970414201183434, 18.61938043341062 20.76923076923077, 18.940877374356226 21.56804733727811, 21.133325175188595 22.366863905325445, 23.2452766140111 23.16568047337278, 23.859487796836216 23.964497041420117, 27.312982041561245 24.763313609467456, 28.910274409378424 25.562130177514792, 30.296284424756465 26.36094674556213, 44.37845765113207 27.159763313609467, 40.68900919176626 27.958579881656807, 42.38425906019682 28.757396449704142, 37.9145076567018 29.55621301775148, 38.36384176028132 30.355029585798817, 47.040339854373634 31.153846153846157, 42.995560300168215 31.95266272189349, 41.79524902067197 32.751479289940825, 45.360689701671205 33.55029585798817, 50.0 34.349112426035504, 45.9918868125698 35.14792899408284, 47.389094072982665 35.94674556213018, 40.12047196840373 36.74556213017752, 38.496601305184775 37.54437869822485, 30.89942471008767 38.34319526627219, 38.19301351221972 39.142011834319526, 44.605880643652455 39.94082840236687, 38.83176742688754 40.7396449704142, 36.62502879535667 41.53846153846154, 36.657879331485724 42.337278106508876, 33.28142852395863 43.13609467455622, 28.454974358097733 43.93491124260355, 24.288801627682925 44.73372781065089, 22.244199392565285 45.532544378698226, 22.41575511712415 46.33136094674556, 25.855088458145225 47.1301775147929, 27.401962331187345 47.928994082840234, 26.37025598412454 48.72781065088758, 31.481444944738918 49.52662721893491, 26.710032999927225 50.32544378698225, 23.837796343468337 51.124260355029584, 28.539972419910963 51.92307692307693, 24.44665668124604 52.72189349112426, 23.238046485948644 53.5207100591716, 23.018536910748352 54.319526627218934, 21.859029522888527 55.11834319526627, 25.84835311614988 55.91715976331361, 24.65339086446489 56.71597633136094, 28.97075124498949 57.514792899408285, 19.005326517518384 58.31360946745562, 10.753416177743745 59.11242603550296, 15.287075106760359 59.91124260355029, 13.688101829630375 60.710059171597635, 7.703219325633433 61.50887573964497, 4.809332454753594 62.307692307692314, 5.563533207352259 63.10650887573964, 11.29114145528721 63.90532544378698, 8.235068528495471 64.70414201183432, 4.582493543031059 65.50295857988165, 3.785280496666532 66.30177514792899, 2.250611158655814 67.10059171597634, 5.225263149633726 67.89940828402366, 2.6548786482223923 68.69822485207101, 2.863748316566856 69.49704142011834, 13.377098461200667 70.29585798816568, 14.751525406451469 71.09467455621302, 11.400550690316976 71.89349112426036, 14.083620551647485 72.6923076923077, 17.55884396773011 73.49112426035504, 14.616523083178429 74.28994082840237, 13.459257201015143 75.0887573964497, 17.747139132257857 75.88757396449704, 16.33982646500623 76.68639053254438, 17.852026760978294 77.48520710059172, 28.924107517324238 78.28402366863905, 22.175222333485365 79.0828402366864, 19.58152094947777 79.88165680473374, 16.19190883089382 80.68047337278107, 15.049328746540688 81.4792899408284, 18.090738784274407 82.27810650887574, 14.099961204500513 83.07692307692308, 15.03425389219177 83.87573964497041, 13.583304780200573 84.67455621301775, 9.025361340459957 85.4733727810651, 9.420977620596718 86.27218934911244, 11.783255984918965 87.07100591715975, 11.020740120000658 87.8698224852071, 14.458836953114378 88.66863905325444, 12.845686921836496 89.46745562130178, 11.828326342121724 90.26627218934911, 9.877338331189401 91.06508875739645, 12.83673452692329 91.8639053254438, 11.576269825528694 92.66272189349112, 13.67124800446296 93.46153846153845, 14.096430958784618 94.2603550295858, 15.676382769887176 95.05917159763314, 15.427452888292581 95.85798816568047, 13.262890697351763 96.65680473372781, 8.298211801486566 97.45562130177515, 11.776280839739607 98.2544378698225, 14.50710531413498 99.05325443786982, 18.37560080068978 99.85207100591715, 19.448255794241938 100.6508875739645, 18.908542241040372 101.44970414201183, 20.740417716631303 102.24852071005917, 24.190042699295308 103.04733727810651, 22.604906531788846 103.84615384615385, 20.94519848780069 104.64497041420118, 18.123656334812775 105.44378698224853, 15.35599261037914 106.24260355029585, 15.330569495579525 107.0414201183432, 16.22012971717931 107.84023668639053, 19.084682230178355 108.63905325443787, 19.120726516382344 109.43786982248521, 18.68599206178433 110.23668639053254, 20.906979951975764 111.03550295857988, 18.947532994724188 111.83431952662723, 17.033564636778216 112.63313609467457, 17.53829836736538 113.43195266272188, 16.392867669477358 114.23076923076923, 17.66246178087558 115.02958579881657, 17.987730147274057 115.82840236686391, 22.51032885622387 116.62721893491124, 22.504219570516682 117.42603550295858, 18.977951066251215 118.22485207100593, 16.69643885067919 119.02366863905324, 12.803407365760307 119.82248520710058, 9.633592150362649 120.62130177514793, 15.554392471945336 121.42011834319527, 16.36357331547471 122.2189349112426, 26.55229244251789 123.01775147928994, 20.853992351942622 123.81656804733728, 20.52611081740562 124.61538461538463, 15.224116284211862 125.41420118343194, 17.13525907371931 126.21301775147928, 9.501570617203333 127.01183431952663, 9.507591065114216 127.81065088757396, 2.8951002943053883 128.60946745562129, 2.8178327747192533 129.40828402366864, 6.745630599647468 130.20710059171597, 3.641029385081312 131.0059171597633, 0.6919146905044435 131.80473372781066, 0.0 132.60355029585799, 3.3104456583662594 133.40236686390534, 4.343436301854866 134.20118343195267, 3.9224304102957666" fill="none" stroke="#32ca5b" stroke-width="1.25"/>

</svg>