<?xml version="1.0" standalone="no"?>
<!DOCTYPE svg PUBLIC "-//W3C//DTD SVG 1.1//EN" "http://www.w3.org/Graphics/SVG/1.1/DTD/svg11.dtd">

<svg width="135" height="50" viewBox="0 0 135 50" preserveAspectRatio="none" 
  xmlns="http://www.w3.org/2000/svg"
  xmlns:xlink="http://www.w3.org/1999/xlink">


<polyline points="0.0, 0.0 0.7988165680473372, 6.896539571243249 1.5976331360946745, 8.53736722426144 2.396449704142012, 3.9325451897284953 3.195266272189349, 7.392766139601504 3.994082840236686, 6.6846015095828 4.792899408284024, 6.506263926070067 5.591715976331361, 4.275187087838825 6.390532544378698, 4.656073734988018 7.189349112426036, 6.47152226274353 7.988165680473372, 10.819647129898302 8.78698224852071, 3.0730702382288237 9.585798816568047, 2.453716910941061 10.384615384615385, 6.225684503261844 11.183431952662723, 0.17449807935277742 11.982248520710058, 9.549065672661714 12.781065088757396, 21.462247922629572 13.579881656804734, 26.19550582746111 14.378698224852071, 24.361060955336573 15.177514792899409, 21.190667510578905 15.976331360946745, 13.549474285742189 16.775147928994084, 6.642255555560331 17.57396449704142, 7.916526829621574 18.37278106508876, 5.384506960494993 19.171597633136095, 4.698642916101157 19.970414201183434, 11.103851866302437 20.76923076923077, 13.660421792698488 21.56804733727811, 17.91672820531795 22.366863905325445, 20.87811241159131 23.16568047337278, 22.66009167630944 23.964497041420117, 23.098306657743688 24.763313609467456, 26.44779552381675 25.562130177514792, 27.92000397632286 26.36094674556213, 27.45389417749428 27.159763313609467, 37.51742316856938 27.958579881656807, 34.57806056477728 28.757396449704142, 38.32453868117471 29.55621301775148, 35.92108893378173 30.355029585798817, 36.78816458875714 31.153846153846157, 41.84382824246014 31.95266272189349, 38.26871607985866 32.751479289940825, 34.41340226799785 33.55029585798817, 39.89563788082647 34.349112426035504, 44.210635250344886 35.14792899408284, 39.186211255967265 35.94674556213018, 40.280864094650646 36.74556213017752, 34.19863447944277 37.54437869822485, 32.65012653127518 38.34319526627219, 30.57288551197977 39.142011834319526, 36.31287608069127 39.94082840236687, 42.41904503118785 40.7396449704142, 40.64483067929126 41.53846153846154, 38.78773053774333 42.337278106508876, 38.45075747231632 43.13609467455622, 36.60614095995533 43.93491124260355, 31.61438883502297 44.73372781065089, 28.60279997614524 45.532544378698226, 26.959413176291065 46.33136094674556, 30.054821237109113 47.1301775147929, 33.11248476228261 47.928994082840234, 33.516429937414486 48.72781065088758, 34.05132690974853 49.52662721893491, 39.32644299670272 50.32544378698225, 36.04942925019678 51.124260355029584, 35.24529874896378 51.92307692307693, 37.59777608240285 52.72189349112426, 33.813258316641054 53.5207100591716, 31.824634147816788 54.319526627218934, 32.38446883695252 55.11834319526627, 28.859139377055122 55.91715976331361, 34.53361942006189 56.71597633136094, 33.309783789254645 57.514792899408285, 35.76090938209751 58.31360946745562, 34.65659812097942 59.11242603550296, 36.22873887435682 59.91124260355029, 39.04033602849022 60.710059171597635, 40.44504481868751 61.50887573964497, 38.33897674218554 62.307692307692314, 38.49814876957073 63.10650887573964, 36.06021628586504 63.90532544378698, 41.24469117430498 64.70414201183432, 45.04908259367934 65.50295857988165, 43.11036508040226 66.30177514792899, 40.00963036383487 67.10059171597634, 39.72130580923299 67.89940828402366, 43.383386467135246 68.69822485207101, 41.68860128451764 69.49704142011834, 41.96196526840273 70.29585798816568, 41.844542482876044 71.09467455621302, 44.50714363299546 71.89349112426036, 41.95717020921849 72.6923076923077, 42.04136594453604 73.49112426035504, 41.344116979745536 74.28994082840237, 38.35205598755878 75.0887573964497, 40.343525859872976 75.88757396449704, 43.47979476861966 76.68639053254438, 43.2133764940116 77.48520710059172, 41.3474195169231 78.28402366863905, 50.0 79.0828402366864, 45.527032827697006 79.88165680473374, 43.67917483608901 80.68047337278107, 41.014937112725455 81.4792899408284, 39.821061236670765 82.27810650887574, 41.23595803077733 83.07692307692308, 37.97767875762634 83.87573964497041, 39.39923445142926 84.67455621301775, 35.00365562594631 85.4733727810651, 33.84074384013835 86.27218934911244, 33.86824756031609 87.07100591715975, 36.85831131270919 87.8698224852071, 35.1205816422233 88.66863905325444, 38.229924617423094 89.46745562130178, 35.93018519526757 90.26627218934911, 32.60439037348682 91.06508875739645, 31.380163198595994 91.8639053254438, 33.68464437858661 92.66272189349112, 32.128262960472625 93.46153846153845, 33.31247911542174 94.2603550295858, 31.620046088072197 95.05917159763314, 32.86131082901297 95.85798816568047, 32.85565983197884 96.65680473372781, 35.314755151191754 97.45562130177515, 34.414986624727916 98.2544378698225, 34.04306458917862 99.05325443786982, 35.148478282159815 99.85207100591715, 36.26620934450512 100.6508875739645, 36.64034119688219 101.44970414201183, 35.02325910624033 102.24852071005917, 35.125777239127665 103.04733727810651, 36.550695495514965 103.84615384615385, 35.998400203546055 104.64497041420118, 37.272257823474334 105.44378698224853, 36.46051280132743 106.24260355029585, 34.18268995197293 107.0414201183432, 35.88724375296853 107.84023668639053, 33.79061829059945 108.63905325443787, 36.236761837528555 109.43786982248521, 35.64453365120185 110.23668639053254, 33.52450110866592 111.03550295857988, 34.54978996465737 111.83431952662723, 32.674533475443404 112.63313609467457, 33.57626766131549 113.43195266272188, 33.04162392669784 114.23076923076923, 32.45669358441333 115.02958579881657, 31.64692720359113 115.82840236686391, 31.25114074815451 116.62721893491124, 34.71572387539007 117.42603550295858, 35.32731290797628 118.22485207100593, 33.68357851308405 119.02366863905324, 30.983729192370767 119.82248520710058, 23.112540793251757 120.62130177514793, 17.344552437224227 121.42011834319527, 24.012972520998925 122.2189349112426, 25.058715751439962 123.01775147928994, 35.73687679161188 123.81656804733728, 31.11038820008182 124.61538461538463, 34.1760713107819 125.41420118343194, 33.504678474864704 126.21301775147928, 33.57683602017325 127.01183431952663, 26.27636273252023 127.81065088757396, 22.295261206138115 128.60946745562129, 20.384037227936037 129.40828402366864, 18.91899866432817 130.20710059171597, 17.476569622802604 131.0059171597633, 15.49281489605483 131.80473372781066, 14.27447478046468 132.60355029585799, 14.437488210957323 133.40236686390534, 15.328343746851042 134.20118343195267, 14.03381553114597" fill="none" stroke="#ff3a33" stroke-width="1.25"/>

</svg>