<?xml version="1.0" standalone="no"?>
<!DOCTYPE svg PUBLIC "-//W3C//DTD SVG 1.1//EN" "http://www.w3.org/Graphics/SVG/1.1/DTD/svg11.dtd">

<svg width="135" height="50" viewBox="0 0 135 50" preserveAspectRatio="none" 
  xmlns="http://www.w3.org/2000/svg"
  xmlns:xlink="http://www.w3.org/1999/xlink">


<polyline points="0.0, 36.19507023719514 0.7988165680473372, 36.83706311007547 1.5976331360946745, 37.219487986128584 2.396449704142012, 36.86704165936321 3.195266272189349, 38.87953433841748 3.994082840236686, 37.326778610856636 4.792899408284024, 36.887221213420574 5.591715976331361, 36.45278414569245 6.390532544378698, 36.77523180547549 7.189349112426036, 38.26651967170037 7.988165680473372, 39.99622297782992 8.78698224852071, 37.61610188132265 9.585798816568047, 36.95918750558412 10.384615384615385, 38.45655958920172 11.183431952662723, 36.633146613062436 11.982248520710058, 41.093188025530516 12.781065088757396, 43.72927735765458 13.579881656804734, 44.81357168186256 14.378698224852071, 44.31793288000844 15.177514792899409, 43.53767916566766 15.976331360946745, 41.87951417910009 16.775147928994084, 41.18495928403142 17.57396449704142, 40.39605624587488 18.37278106508876, 40.15931721535614 19.171597633136095, 40.57719153622891 19.970414201183434, 40.41840324345658 20.76923076923077, 41.41765545843926 21.56804733727811, 41.93538085318414 22.366863905325445, 40.93429310786897 23.16568047337278, 41.89121199448546 23.964497041420117, 42.729613646784934 24.763313609467456, 43.273897727722385 25.562130177514792, 44.88850941253909 26.36094674556213, 44.6208905609185 27.159763313609467, 47.70802356789307 27.958579881656807, 46.68548067310867 28.757396449704142, 47.537224645223226 29.55621301775148, 46.719943098732045 30.355029585798817, 47.58565412673981 31.153846153846157, 49.47801710233603 31.95266272189349, 48.98891652556204 32.751479289940825, 48.02770794957254 33.55029585798817, 49.18317209480588 34.349112426035504, 50.0 35.14792899408284, 49.01352037365235 35.94674556213018, 49.30797270462202 36.74556213017752, 47.16050505649337 37.54437869822485, 46.19819235492971 38.34319526627219, 45.78739940137396 39.142011834319526, 46.76641437924311 39.94082840236687, 48.03131061635904 40.7396449704142, 47.222926476823716 41.53846153846154, 46.257135474056476 42.337278106508876, 46.67490091378114 43.13609467455622, 45.938439183290924 43.93491124260355, 44.76471162131812 44.73372781065089, 44.06440153402324 45.532544378698226, 43.05437261174766 46.33136094674556, 42.204593662838754 47.1301775147929, 42.89162222188586 47.928994082840234, 41.46827368038998 48.72781065088758, 41.19842735060439 49.52662721893491, 42.09752985267482 50.32544378698225, 40.56654337087677 51.124260355029584, 40.54511203551797 51.92307692307693, 41.5941427475255 52.72189349112426, 40.784545521784814 53.5207100591716, 39.843359981213545 54.319526627218934, 40.19755402575676 55.11834319526627, 38.70874897545 55.91715976331361, 39.9679339894737 56.71597633136094, 39.88407505467196 57.514792899408285, 41.09552540170981 58.31360946745562, 39.888390689395415 59.11242603550296, 40.190956808139525 59.91124260355029, 41.99282828824117 60.710059171597635, 42.12979517060866 61.50887573964497, 42.12172748774628 62.307692307692314, 42.56476360897645 63.10650887573964, 41.39155783125914 63.90532544378698, 42.93836676426926 64.70414201183432, 44.476871299944385 65.50295857988165, 43.37322398460763 66.30177514792899, 42.31757188394502 67.10059171597634, 42.20549458717532 67.89940828402366, 42.88736990172675 68.69822485207101, 42.02839620860665 69.49704142011834, 31.9012614917612 70.29585798816568, 18.32229874723481 71.09467455621302, 25.678565004453468 71.89349112426036, 26.873776807585813 72.6923076923077, 28.7787656366704 73.49112426035504, 27.35754472956364 74.28994082840237, 25.96540870312926 75.0887573964497, 25.97865962827104 75.88757396449704, 27.857399084755478 76.68639053254438, 25.933706752006465 77.48520710059172, 22.24788079418498 78.28402366863905, 26.872907431727533 79.0828402366864, 24.45587410303012 79.88165680473374, 19.9436764547543 80.68047337278107, 18.79937546161392 81.4792899408284, 18.628300771697493 82.27810650887574, 21.526909841174998 83.07692307692308, 16.366074747453055 83.87573964497041, 14.152661783847833 84.67455621301775, 9.847894769597765 85.4733727810651, 11.68675446633512 86.27218934911244, 12.790992706293332 87.07100591715975, 19.241385071451397 87.8698224852071, 18.483314693010307 88.66863905325444, 22.609693067149202 89.46745562130178, 23.323710393495162 90.26627218934911, 22.197172007251847 91.06508875739645, 20.649193498201058 91.8639053254438, 21.109585333951973 92.66272189349112, 20.91112463528632 93.46153846153845, 20.97403972735268 94.2603550295858, 21.399513999476387 95.05917159763314, 22.265984138905832 95.85798816568047, 21.7800282106797 96.65680473372781, 21.82207600417488 97.45562130177515, 19.56315646196195 98.2544378698225, 21.911427037417972 99.05325443786982, 21.9803961405122 99.85207100591715, 23.252802871315804 100.6508875739645, 23.177403693268822 101.44970414201183, 23.040527786589866 102.24852071005917, 19.744016006916944 103.04733727810651, 19.183231792098468 103.84615384615385, 18.965397987016217 104.64497041420118, 17.91528063058836 105.44378698224853, 16.547928020995776 106.24260355029585, 17.882602026393783 107.0414201183432, 21.636173933742107 107.84023668639053, 20.506919100901985 108.63905325443787, 20.869736527723635 109.43786982248521, 20.940881070452917 110.23668639053254, 19.683105433145606 111.03550295857988, 18.604481956035755 111.83431952662723, 18.414521354646805 112.63313609467457, 19.765791107201974 113.43195266272188, 20.2651701239411 114.23076923076923, 19.635809181781458 115.02958579881657, 18.334637872422785 115.82840236686391, 16.614262704092162 116.62721893491124, 10.844399485190195 117.42603550295858, 9.460445091073808 118.22485207100593, 7.205465816900225 119.02366863905324, 6.934512497782983 119.82248520710058, 4.933806463050878 120.62130177514793, 6.158351997929605 121.42011834319527, 9.231907239451846 122.2189349112426, 6.67624059386967 123.01775147928994, 7.7377414100364055 123.81656804733728, 4.586158453811365 124.61538461538463, 3.946564901657291 125.41420118343194, 0.903033268642902 126.21301775147928, 0.0 127.01183431952663, 1.3835640290448323 127.81065088757396, 4.793770831255969 128.60946745562129, 2.906317524606844 129.40828402366864, 4.44799798804867 130.20710059171597, 5.494052739745775 131.0059171597633, 4.2804405784412545 131.80473372781066, 2.445802599843162 132.60355029585799, 0.7340678402194472 133.40236686390534, 2.41865475606165 134.20118343195267, 4.504566377330821" fill="none" stroke="#32ca5b" stroke-width="1.25"/>

</svg>