<?xml version="1.0" standalone="no"?>
<!DOCTYPE svg PUBLIC "-//W3C//DTD SVG 1.1//EN" "http://www.w3.org/Graphics/SVG/1.1/DTD/svg11.dtd">

<svg width="135" height="50" viewBox="0 0 135 50" preserveAspectRatio="none" 
  xmlns="http://www.w3.org/2000/svg"
  xmlns:xlink="http://www.w3.org/1999/xlink">


<polyline points="0.0, 23.081269536033137 0.7988165680473372, 21.139644582315665 1.5976331360946745, 19.85219358480891 2.396449704142012, 21.752837064146927 3.195266272189349, 21.039491421229766 3.994082840236686, 21.821248028830478 4.792899408284024, 21.341225744971766 5.591715976331361, 21.310334377743846 6.390532544378698, 22.428047233539477 7.189349112426036, 24.081032367580466 7.988165680473372, 25.561124537621506 8.78698224852071, 26.642711084783482 9.585798816568047, 28.508851763787302 10.384615384615385, 23.526393473967318 11.183431952662723, 28.095281758885882 11.982248520710058, 28.462428713765025 12.781065088757396, 32.44230072260813 13.579881656804734, 32.76047670766532 14.378698224852071, 33.042462948623616 15.177514792899409, 32.588356764774396 15.976331360946745, 32.498671250023094 16.775147928994084, 33.63833380301337 17.57396449704142, 31.37029354149697 18.37278106508876, 33.26126789034359 19.171597633136095, 34.102878156158674 19.970414201183434, 30.900478454849917 20.76923076923077, 31.512636398661364 21.56804733727811, 31.000786582889262 22.366863905325445, 31.095039864293618 23.16568047337278, 31.11189246391406 23.964497041420117, 30.62974367772454 24.763313609467456, 33.63465696718501 25.562130177514792, 33.637326301848915 26.36094674556213, 36.6138522575292 27.159763313609467, 33.910033519202706 27.958579881656807, 37.138834140090395 28.757396449704142, 34.224068358691504 29.55621301775148, 35.220793296934325 30.355029585798817, 36.83280432932771 31.153846153846157, 37.28610714532785 31.95266272189349, 31.25099340813147 32.751479289940825, 36.22774859818018 33.55029585798817, 40.378879437141556 34.349112426035504, 40.551614921548726 35.14792899408284, 43.31393290296415 35.94674556213018, 41.461812138715196 36.74556213017752, 40.75949860848474 37.54437869822485, 37.133570582256645 38.34319526627219, 39.524437285362936 39.142011834319526, 37.38335409531787 39.94082840236687, 38.592627752187006 40.7396449704142, 39.60788290215938 41.53846153846154, 39.57123582894232 42.337278106508876, 38.90368423096077 43.13609467455622, 36.13552666555816 43.93491124260355, 38.87602358993208 44.73372781065089, 38.21921993256974 45.532544378698226, 33.684197207153034 46.33136094674556, 36.03823840662832 47.1301775147929, 40.53058808875946 47.928994082840234, 41.67873587523069 48.72781065088758, 41.904707390452074 49.52662721893491, 35.96322070619735 50.32544378698225, 37.125396173075195 51.124260355029584, 44.167638200374306 51.92307692307693, 41.50165972970416 52.72189349112426, 43.92218887160479 53.5207100591716, 48.01365850312635 54.319526627218934, 41.76495944474951 55.11834319526627, 44.44055512707861 55.91715976331361, 48.03767743556154 56.71597633136094, 47.863688775763094 57.514792899408285, 45.810804352551315 58.31360946745562, 46.880131913363066 59.11242603550296, 48.75073013638736 59.91124260355029, 48.45410689242594 60.710059171597635, 48.396693942824356 61.50887573964497, 49.4804971001223 62.307692307692314, 47.93346829594178 63.10650887573964, 50.0 63.90532544378698, 49.24284862003078 64.70414201183432, 33.60290559000681 65.50295857988165, 31.77677981712046 66.30177514792899, 32.284795592355934 67.10059171597634, 32.56500287475361 67.89940828402366, 32.09321800042592 68.69822485207101, 31.46374008452349 69.49704142011834, 34.143082184319546 70.29585798816568, 33.821572036825096 71.09467455621302, 31.55227493860691 71.89349112426036, 32.933307059699416 72.6923076923077, 34.35771191704036 73.49112426035504, 34.4741563622293 74.28994082840237, 39.97442771787982 75.0887573964497, 27.68187297092524 75.88757396449704, 42.78310252571437 76.68639053254438, 40.12625830567649 77.48520710059172, 41.9984963617135 78.28402366863905, 40.00517049100742 79.0828402366864, 40.13524677708552 79.88165680473374, 40.886222869353624 80.68047337278107, 38.68546781521372 81.4792899408284, 39.4332628932752 82.27810650887574, 38.97148942134245 83.07692307692308, 40.616950047047204 83.87573964497041, 43.10505933010301 84.67455621301775, 41.129407554453586 85.4733727810651, 38.29845828504088 86.27218934911244, 40.15415626315034 87.07100591715975, 41.932785126034666 87.8698224852071, 41.22680301539396 88.66863905325444, 39.37825916922383 89.46745562130178, 39.876974504915786 90.26627218934911, 36.88316264813498 91.06508875739645, 37.05730973325239 91.8639053254438, 36.94562010983782 92.66272189349112, 36.13571161999472 93.46153846153845, 35.70209327933795 94.2603550295858, 36.38118456755093 95.05917159763314, 39.056854102999075 95.85798816568047, 37.74176182941679 96.65680473372781, 35.92830642116607 97.45562130177515, 37.316568979108105 98.2544378698225, 35.71832216720225 99.05325443786982, 35.37812162386786 99.85207100591715, 37.740013751378534 100.6508875739645, 38.110416553449426 101.44970414201183, 37.47274951667095 102.24852071005917, 39.10088362630834 103.04733727810651, 40.480441634243206 103.84615384615385, 38.623836361208554 104.64497041420118, 37.78405192105856 105.44378698224853, 37.06243604394579 106.24260355029585, 40.31473994378437 107.0414201183432, 38.02799604622656 107.84023668639053, 39.99240717458736 108.63905325443787, 40.44629338949313 109.43786982248521, 39.723512725578125 110.23668639053254, 42.13351264861138 111.03550295857988, 28.836339887911844 111.83431952662723, 26.910212524717732 112.63313609467457, 27.928512015864136 113.43195266272188, 32.35867600947863 114.23076923076923, 27.803473822092272 115.02958579881657, 28.386629891516428 115.82840236686391, 28.352097947504106 116.62721893491124, 29.022072381290947 117.42603550295858, 27.434917114476633 118.22485207100593, 27.577397740075117 119.02366863905324, 29.793977843499526 119.82248520710058, 30.231724808193494 120.62130177514793, 32.06419955074798 121.42011834319527, 22.628210239926492 122.2189349112426, 26.6071489755984 123.01775147928994, 22.227012854733193 123.81656804733728, 24.28681926778931 124.61538461538463, 25.956721985964016 125.41420118343194, 26.155414798317008 126.21301775147928, 22.98213729540669 127.01183431952663, 17.953393335825204 127.81065088757396, 3.4142536274699506 128.60946745562129, 4.523304068303871 129.40828402366864, 4.160261640365487 130.20710059171597, 0.0 131.0059171597633, 2.458011872116802 131.80473372781066, 0.6966500350220399 132.60355029585799, 1.4422820292101897 133.40236686390534, 8.226404332830429 134.20118343195267, 7.7323937408875425" fill="none" stroke="#32ca5b" stroke-width="1.25"/>

</svg>