<?xml version="1.0" standalone="no"?>
<!DOCTYPE svg PUBLIC "-//W3C//DTD SVG 1.1//EN" "http://www.w3.org/Graphics/SVG/1.1/DTD/svg11.dtd">

<svg width="135" height="50" viewBox="0 0 135 50" preserveAspectRatio="none" 
  xmlns="http://www.w3.org/2000/svg"
  xmlns:xlink="http://www.w3.org/1999/xlink">


<polyline points="0.0, 16.133444652395447 0.7988165680473372, 19.90334533837536 1.5976331360946745, 20.85806368465523 2.396449704142012, 22.734624436672842 3.195266272189349, 23.62461068693108 3.994082840236686, 23.764713835392744 4.792899408284024, 23.950986545598322 5.591715976331361, 25.64443566244045 6.390532544378698, 26.93919706259285 7.189349112426036, 30.23551801811408 7.988165680473372, 30.193453876984293 8.78698224852071, 20.340183382354702 9.585798816568047, 22.527708379500503 10.384615384615385, 15.700342222660549 11.183431952662723, 18.56880883717184 11.982248520710058, 21.906795420702654 12.781065088757396, 32.560670668956014 13.579881656804734, 28.511846662878572 14.378698224852071, 27.911406370033482 15.177514792899409, 14.355963009743466 15.976331360946745, 13.615725898930675 16.775147928994084, 11.284045307392878 17.57396449704142, 6.892491424048589 18.37278106508876, 6.3188559044301345 19.171597633136095, 7.8390680113746765 19.970414201183434, 9.409546532338071 20.76923076923077, 8.448802578391485 21.56804733727811, 4.639370042885834 22.366863905325445, 0.0 23.16568047337278, 1.6329076135175318 23.964497041420117, 5.173019481867485 24.763313609467456, 8.630323392547462 25.562130177514792, 9.407771870891159 26.36094674556213, 15.001433626239278 27.159763313609467, 2.9624062953113692 27.958579881656807, 11.93210989042354 28.757396449704142, 12.697568421568588 29.55621301775148, 14.674507082035007 30.355029585798817, 15.237849335053037 31.153846153846157, 14.301006421009227 31.95266272189349, 11.780960558772843 32.751479289940825, 13.558781237822807 33.55029585798817, 14.583382700169443 34.349112426035504, 14.682471230779035 35.14792899408284, 18.24660322839648 35.94674556213018, 15.19409287921221 36.74556213017752, 15.883556945851138 37.54437869822485, 9.965511182827866 38.34319526627219, 13.581088342325145 39.142011834319526, 17.64644403857157 39.94082840236687, 22.826850311086854 40.7396449704142, 23.505280554802255 41.53846153846154, 24.09644573443268 42.337278106508876, 23.214532368842576 43.13609467455622, 24.17275539651204 43.93491124260355, 20.668417115171806 44.73372781065089, 15.553469520997565 45.532544378698226, 13.259428854908542 46.33136094674556, 18.679680398162763 47.1301775147929, 21.295886749873137 47.928994082840234, 23.175264748385544 48.72781065088758, 27.65537452340969 49.52662721893491, 26.98372142783083 50.32544378698225, 26.86563086216293 51.124260355029584, 28.65729041628388 51.92307692307693, 31.84442569533774 52.72189349112426, 27.989906800112475 53.5207100591716, 23.107057233478827 54.319526627218934, 20.21845745192328 55.11834319526627, 22.815219402124086 55.91715976331361, 23.551864630109396 56.71597633136094, 25.8527769994457 57.514792899408285, 26.39903065149369 58.31360946745562, 26.400906900100512 59.11242603550296, 27.062565130178108 59.91124260355029, 28.402723358319363 60.710059171597635, 28.231455658681387 61.50887573964497, 28.83102286609491 62.307692307692314, 29.960981565379104 63.10650887573964, 32.66629136377058 63.90532544378698, 34.81149410683564 64.70414201183432, 34.06410804357603 65.50295857988165, 30.70732395850968 66.30177514792899, 29.430397605840003 67.10059171597634, 31.544779864286138 67.89940828402366, 30.775010666354703 68.69822485207101, 29.33419713732976 69.49704142011834, 31.658531166933486 70.29585798816568, 31.44585629735181 71.09467455621302, 29.434737566417912 71.89349112426036, 29.654826281343798 72.6923076923077, 29.294216174268723 73.49112426035504, 28.480391173750597 74.28994082840237, 28.910586407746546 75.0887573964497, 30.62962823247024 75.88757396449704, 31.74941039442722 76.68639053254438, 30.32312286498534 77.48520710059172, 31.382242339282946 78.28402366863905, 30.99887630415063 79.0828402366864, 30.449901761945814 79.88165680473374, 28.003856154321916 80.68047337278107, 26.96925915664518 81.4792899408284, 32.87859895896839 82.27810650887574, 32.58201080765774 83.07692307692308, 32.94243788039979 83.87573964497041, 32.479313836938566 84.67455621301775, 33.61840211852662 85.4733727810651, 34.75883206704076 86.27218934911244, 34.655119047226414 87.07100591715975, 34.18120088825692 87.8698224852071, 34.610415949537185 88.66863905325444, 34.388055727940454 89.46745562130178, 34.36915712722908 90.26627218934911, 32.39489307498756 91.06508875739645, 31.0476848633808 91.8639053254438, 31.10902962890507 92.66272189349112, 25.73896050665595 93.46153846153845, 32.04180317644338 94.2603550295858, 32.98527867328321 95.05917159763314, 33.666940832280794 95.85798816568047, 33.329358632140824 96.65680473372781, 30.21425327348865 97.45562130177515, 34.723014200507215 98.2544378698225, 41.29011993598074 99.05325443786982, 44.190232136143784 99.85207100591715, 44.34621973647152 100.6508875739645, 43.0292016553637 101.44970414201183, 46.27524298339426 102.24852071005917, 46.602115382890844 103.04733727810651, 47.73961464782053 103.84615384615385, 50.0 104.64497041420118, 49.329364221285694 105.44378698224853, 49.13756630630351 106.24260355029585, 48.772511411824475 107.0414201183432, 46.34642822975002 107.84023668639053, 40.37219081469684 108.63905325443787, 41.05110590080642 109.43786982248521, 40.369674036801996 110.23668639053254, 39.70741695310826 111.03550295857988, 37.64136928261676 111.83431952662723, 35.55035267798757 112.63313609467457, 35.630506378194525 113.43195266272188, 31.37683526230482 114.23076923076923, 29.67125883535661 115.02958579881657, 27.56943305291713 115.82840236686391, 27.067065943533407 116.62721893491124, 27.710761586804527 117.42603550295858, 27.326476244583397 118.22485207100593, 34.10374654179647 119.02366863905324, 35.52651027459118 119.82248520710058, 34.687380503433864 120.62130177514793, 35.18824878907347 121.42011834319527, 34.26595342694469 122.2189349112426, 40.026738174012415 123.01775147928994, 42.243393798283094 123.81656804733728, 41.97118693217152 124.61538461538463, 43.65832652580941 125.41420118343194, 42.62834459393224 126.21301775147928, 39.60792244465158 127.01183431952663, 39.78869063667624 127.81065088757396, 35.43355052597589 128.60946745562129, 35.7714329531901 129.40828402366864, 40.850193494099244 130.20710059171597, 38.88876892240515 131.0059171597633, 36.15660564597534 131.80473372781066, 36.0704534812388 132.60355029585799, 36.21081995723053 133.40236686390534, 45.95477178264723 134.20118343195267, 45.78824926719211" fill="none" stroke="#ff3a33" stroke-width="1.25"/>

</svg>