<?xml version="1.0" standalone="no"?>
<!DOCTYPE svg PUBLIC "-//W3C//DTD SVG 1.1//EN" "http://www.w3.org/Graphics/SVG/1.1/DTD/svg11.dtd">

<svg width="135" height="50" viewBox="0 0 135 50" preserveAspectRatio="none" 
  xmlns="http://www.w3.org/2000/svg"
  xmlns:xlink="http://www.w3.org/1999/xlink">


<polyline points="0.0, 12.004703535802454 0.7988165680473372, 9.156727755749579 1.5976331360946745, 11.01592668846566 2.396449704142012, 13.513479206407238 3.195266272189349, 13.05727028841236 3.994082840236686, 5.212101231281697 4.792899408284024, 13.07356494432165 5.591715976331361, 12.315110674947102 6.390532544378698, 2.124663776321929 7.189349112426036, 0.0 7.988165680473372, 14.264340769277384 8.78698224852071, 2.2559512714626027 9.585798816568047, 4.470998904622757 10.384615384615385, 8.566149058115709 11.183431952662723, 8.330355300770638 11.982248520710058, 17.563937274836153 12.781065088757396, 20.802082073801735 13.579881656804734, 19.439097099734592 14.378698224852071, 24.629020805734196 15.177514792899409, 26.980696369438522 15.976331360946745, 26.80979308067694 16.775147928994084, 22.53245846246083 17.57396449704142, 22.634429117403087 18.37278106508876, 25.600433434367687 19.171597633136095, 23.838669263432024 19.970414201183434, 27.589485488581346 20.76923076923077, 29.937366932250775 21.56804733727811, 27.33965330954958 22.366863905325445, 32.91540805031295 23.16568047337278, 32.69547566310923 23.964497041420117, 33.519178149777495 24.763313609467456, 34.90320521566446 25.562130177514792, 35.4445605663078 26.36094674556213, 40.85757921879908 27.159763313609467, 28.83867891422832 27.958579881656807, 33.94037521920824 28.757396449704142, 28.368642940777207 29.55621301775148, 31.18375437719995 30.355029585798817, 34.600854589631204 31.153846153846157, 34.37941922134541 31.95266272189349, 32.678734903623045 32.751479289940825, 39.84841556023042 33.55029585798817, 40.720878626153 34.349112426035504, 40.103966931610316 35.14792899408284, 34.93811378595085 35.94674556213018, 30.363770065987282 36.74556213017752, 26.93691244542879 37.54437869822485, 25.599763653333685 38.34319526627219, 27.753272231589733 39.142011834319526, 28.060332041990915 39.94082840236687, 27.210671578079516 40.7396449704142, 28.29307654042712 41.53846153846154, 29.860252866844156 42.337278106508876, 30.039032729615258 43.13609467455622, 26.04787984051334 43.93491124260355, 26.129746544374065 44.73372781065089, 25.774624205548612 45.532544378698226, 25.6744362579393 46.33136094674556, 27.20393782058152 47.1301775147929, 32.29315099777716 47.928994082840234, 29.34357810033169 48.72781065088758, 30.06183366866652 49.52662721893491, 28.60153833898101 50.32544378698225, 33.17501266498155 51.124260355029584, 34.53066852807062 51.92307692307693, 32.395837313471446 52.72189349112426, 32.256163687604285 53.5207100591716, 33.96954302373409 54.319526627218934, 29.19571074050283 55.11834319526627, 27.47547269174529 55.91715976331361, 29.82122743037317 56.71597633136094, 26.871427222570922 57.514792899408285, 22.850103933234763 58.31360946745562, 27.698437589962126 59.11242603550296, 33.86858727332837 59.91124260355029, 25.9720205305826 60.710059171597635, 31.338059346905002 61.50887573964497, 39.163098787150155 62.307692307692314, 38.825319942493735 63.10650887573964, 39.472067243293914 63.90532544378698, 41.80694231071832 64.70414201183432, 43.10069007589603 65.50295857988165, 37.86451436213769 66.30177514792899, 39.608287234211446 67.10059171597634, 38.71785056983112 67.89940828402366, 36.29765145393655 68.69822485207101, 36.42737955726554 69.49704142011834, 36.92538387760767 70.29585798816568, 36.84925047794494 71.09467455621302, 39.77163813740424 71.89349112426036, 37.61325099130013 72.6923076923077, 39.36817408405211 73.49112426035504, 40.27900462774901 74.28994082840237, 39.364052186863574 75.0887573964497, 38.491824408996735 75.88757396449704, 34.56361141974315 76.68639053254438, 36.99964256066222 77.48520710059172, 37.68635498480032 78.28402366863905, 38.21472651207617 79.0828402366864, 37.87581762496285 79.88165680473374, 38.45229382681143 80.68047337278107, 38.221298122586894 81.4792899408284, 34.02888443072156 82.27810650887574, 33.192659417966944 83.07692307692308, 35.89818604251862 83.87573964497041, 33.601063439594576 84.67455621301775, 29.119267185937524 85.4733727810651, 27.106551025604258 86.27218934911244, 34.08530774427642 87.07100591715975, 31.017226676880448 87.8698224852071, 36.268113307725955 88.66863905325444, 35.82608519278773 89.46745562130178, 35.22954297206577 90.26627218934911, 27.952769449184988 91.06508875739645, 28.120232268305855 91.8639053254438, 26.28611995801848 92.66272189349112, 26.50478854681318 93.46153846153845, 28.707959382686266 94.2603550295858, 28.697323750712776 95.05917159763314, 27.09237641468118 95.85798816568047, 26.142992852939418 96.65680473372781, 29.307003631489692 97.45562130177515, 33.29051101021651 98.2544378698225, 32.48746265380339 99.05325443786982, 33.621144119738055 99.85207100591715, 30.49471744177108 100.6508875739645, 31.705528612234325 101.44970414201183, 36.33341433498672 102.24852071005917, 38.642700331528914 103.04733727810651, 37.859086075319944 103.84615384615385, 38.02200669872685 104.64497041420118, 41.52011420956586 105.44378698224853, 41.27705549524158 106.24260355029585, 41.982417287727785 107.0414201183432, 38.5468897605793 107.84023668639053, 40.3165471759875 108.63905325443787, 41.54497245950644 109.43786982248521, 41.80660772078715 110.23668639053254, 44.725688807414095 111.03550295857988, 43.72175300537394 111.83431952662723, 42.73396589812481 112.63313609467457, 39.4920825998243 113.43195266272188, 41.09544406181564 114.23076923076923, 42.531850049103106 115.02958579881657, 41.53676213985371 115.82840236686391, 40.98529535169125 116.62721893491124, 39.73427127303444 117.42603550295858, 41.35575140105678 118.22485207100593, 42.12355806713858 119.02366863905324, 47.54297173016104 119.82248520710058, 46.31559614647641 120.62130177514793, 48.80302514860945 121.42011834319527, 45.37459508176649 122.2189349112426, 50.0 123.01775147928994, 48.78808269705393 123.81656804733728, 48.22979796219626 124.61538461538463, 49.63429566449752 125.41420118343194, 48.332519523607886 126.21301775147928, 36.567558201579 127.01183431952663, 34.20232327796672 127.81065088757396, 35.19264889598911 128.60946745562129, 43.977179041428286 129.40828402366864, 41.54385094041754 130.20710059171597, 45.56690052250431 131.0059171597633, 42.398727028981284 131.80473372781066, 34.59952579974758 132.60355029585799, 39.38239369142313 133.40236686390534, 36.30758280768011 134.20118343195267, 36.87148837755161" fill="none" stroke="#ff3a33" stroke-width="1.25"/>

</svg>