<?xml version="1.0" standalone="no"?>
<!DOCTYPE svg PUBLIC "-//W3C//DTD SVG 1.1//EN" "http://www.w3.org/Graphics/SVG/1.1/DTD/svg11.dtd">

<svg width="135" height="50" viewBox="0 0 135 50" preserveAspectRatio="none" 
  xmlns="http://www.w3.org/2000/svg"
  xmlns:xlink="http://www.w3.org/1999/xlink">


<polyline points="0.0, 33.672077019155985 0.7988165680473372, 33.20592829146487 1.5976331360946745, 32.44733388156803 2.396449704142012, 22.721459197397063 3.195266272189349, 22.870690955739168 3.994082840236686, 21.329027093757734 4.792899408284024, 28.837502779747105 5.591715976331361, 28.904942524274922 6.390532544378698, 27.99993513557085 7.189349112426036, 22.891749250351317 7.988165680473372, 23.21557159986451 8.78698224852071, 23.061213382930397 9.585798816568047, 23.732133700110314 10.384615384615385, 20.53163229233538 11.183431952662723, 13.263618680664566 11.982248520710058, 27.52524298164922 12.781065088757396, 29.33575686121373 13.579881656804734, 28.192326331246818 14.378698224852071, 29.172054573223456 15.177514792899409, 29.659756926857977 15.976331360946745, 28.93476143613956 16.775147928994084, 28.9562611692756 17.57396449704142, 20.194724831470126 18.37278106508876, 20.632650324331948 19.171597633136095, 20.973948112807342 19.970414201183434, 29.156152330532116 20.76923076923077, 28.507659796857066 21.56804733727811, 28.538419349372013 22.366863905325445, 22.190221445734792 23.16568047337278, 28.62814134740606 23.964497041420117, 28.868312802785262 24.763313609467456, 28.939181893639663 25.562130177514792, 28.925520860884074 26.36094674556213, 29.130711533476905 27.159763313609467, 29.75505096965686 27.958579881656807, 23.025182141870154 28.757396449704142, 31.144462376959414 29.55621301775148, 30.992069237494114 30.355029585798817, 31.88869472323375 31.153846153846157, 31.377092405610345 31.95266272189349, 27.84293276376974 32.751479289940825, 31.601091438676974 33.55029585798817, 44.69865076887717 34.349112426035504, 44.22505468475476 35.14792899408284, 44.97232900235612 35.94674556213018, 39.21214761588827 36.74556213017752, 38.86874973624459 37.54437869822485, 38.31322293672467 38.34319526627219, 33.786819551688005 39.142011834319526, 33.59541670700248 39.94082840236687, 30.172167249886755 40.7396449704142, 32.16269222503749 41.53846153846154, 19.693982945484834 42.337278106508876, 31.839305154744373 43.13609467455622, 25.35130643132073 43.93491124260355, 25.714711058542967 44.73372781065089, 36.994035955782 45.532544378698226, 23.7098620120146 46.33136094674556, 45.67912096365743 47.1301775147929, 42.42680433391077 47.928994082840234, 39.382905674080035 48.72781065088758, 24.276954008363507 49.52662721893491, 26.63704430910831 50.32544378698225, 39.15219144217654 51.124260355029584, 39.60563962617193 51.92307692307693, 27.713891463460794 52.72189349112426, 38.867690096621175 53.5207100591716, 39.432572357692685 54.319526627218934, 38.763028267328686 55.11834319526627, 38.37294178202535 55.91715976331361, 37.498928479834575 56.71597633136094, 37.68754058421266 57.514792899408285, 34.09951588456169 58.31360946745562, 30.152791225126634 59.11242603550296, 36.03733098396138 59.91124260355029, 46.276740530105066 60.710059171597635, 35.56084814847495 61.50887573964497, 30.074630628731626 62.307692307692314, 28.310560109800797 63.10650887573964, 37.089165795806586 63.90532544378698, 31.512295317588297 64.70414201183432, 31.09896637299503 65.50295857988165, 32.92976383593131 66.30177514792899, 33.039234988210964 67.10059171597634, 39.40930371161214 67.89940828402366, 31.033180617544463 68.69822485207101, 28.867189630098377 69.49704142011834, 40.56907733050259 70.29585798816568, 50.0 71.09467455621302, 49.38063328004378 71.89349112426036, 29.30336769603082 72.6923076923077, 29.00299029369911 73.49112426035504, 29.223165688127256 74.28994082840237, 29.502339629151685 75.0887573964497, 29.569136394090282 75.88757396449704, 30.027710818695958 76.68639053254438, 31.589687165929863 77.48520710059172, 39.68464729270926 78.28402366863905, 32.957503394156205 79.0828402366864, 40.39065052609988 79.88165680473374, 40.845489302023715 80.68047337278107, 37.8714054222447 81.4792899408284, 37.42985786900776 82.27810650887574, 37.41762364106857 83.07692307692308, 29.20271775489453 83.87573964497041, 35.38880106842651 84.67455621301775, 29.555746398555744 85.4733727810651, 35.39123093548744 86.27218934911244, 29.454169842785642 87.07100591715975, 35.11077321278211 87.8698224852071, 36.57321874334193 88.66863905325444, 27.452876535125586 89.46745562130178, 27.392041028247842 90.26627218934911, 28.707538572011742 91.06508875739645, 11.8907963015902 91.8639053254438, 33.67698901221297 92.66272189349112, 22.72550659812866 93.46153846153845, 27.349771395222376 94.2603550295858, 11.449070919061054 95.05917159763314, 16.80239053418521 95.85798816568047, 12.675420063137526 96.65680473372781, 43.28105973499151 97.45562130177515, 31.708226102680705 98.2544378698225, 33.274180647736976 99.05325443786982, 32.16798060798357 99.85207100591715, 32.70258316576353 100.6508875739645, 23.66474710112123 101.44970414201183, 33.24020415599158 102.24852071005917, 30.509482036390047 103.04733727810651, 38.965324000860356 103.84615384615385, 19.375309083786323 104.64497041420118, 36.80169040663526 105.44378698224853, 34.16678520198705 106.24260355029585, 25.63725929798199 107.0414201183432, 24.610039549914504 107.84023668639053, 35.17303321524678 108.63905325443787, 29.596701783109886 109.43786982248521, 34.5370586688458 110.23668639053254, 34.46308305976299 111.03550295857988, 34.60542059361898 111.83431952662723, 33.215073279176075 112.63313609467457, 32.009290626038855 113.43195266272188, 31.166894361120516 114.23076923076923, 30.25163448149127 115.02958579881657, 33.94798425474369 115.82840236686391, 33.81949817743748 116.62721893491124, 20.075553977742995 117.42603550295858, 27.01377525270384 118.22485207100593, 30.84518067053682 119.02366863905324, 27.00121424644008 119.82248520710058, 30.455009888809904 120.62130177514793, 30.700835354932288 121.42011834319527, 30.611543740071852 122.2189349112426, 23.253437890013256 123.01775147928994, 31.391658561098147 123.81656804733728, 30.876665516980236 124.61538461538463, 30.70448515206995 125.41420118343194, 32.84564872527376 126.21301775147928, 25.004883744735018 127.01183431952663, 24.501815004657733 127.81065088757396, 25.53633792639165 128.60946745562129, 13.194590387586558 129.40828402366864, 13.528454402327403 130.20710059171597, 13.83241415418032 131.0059171597633, 0.3029334471113832 131.80473372781066, 0.12256296670847472 132.60355029585799, 0.0 133.40236686390534, 18.843730728471133 134.20118343195267, 19.301417738723163" fill="none" stroke="#32ca5b" stroke-width="1.25"/>

</svg>