<?xml version="1.0" standalone="no"?>
<!DOCTYPE svg PUBLIC "-//W3C//DTD SVG 1.1//EN" "http://www.w3.org/Graphics/SVG/1.1/DTD/svg11.dtd">

<svg width="135" height="50" viewBox="0 0 135 50" preserveAspectRatio="none" 
  xmlns="http://www.w3.org/2000/svg"
  xmlns:xlink="http://www.w3.org/1999/xlink">


<polyline points="0.0, 4.286430783200713 0.7988165680473372, 6.995861640908544 1.5976331360946745, 5.756476525299576 2.396449704142012, 8.588638886592829 3.195266272189349, 8.879757011975945 3.994082840236686, 7.628456814016841 4.792899408284024, 6.40683427592564 5.591715976331361, 7.727633268104508 6.390532544378698, 9.976191164008984 7.189349112426036, 13.263692894166667 7.988165680473372, 11.208584246894763 8.78698224852071, 8.933599490488128 9.585798816568047, 11.161001041606642 10.384615384615385, 0.0 11.183431952662723, 9.071664474773875 11.982248520710058, 16.776700404399854 12.781065088757396, 21.79304401543937 13.579881656804734, 23.07311211150971 14.378698224852071, 20.733324356380503 15.177514792899409, 15.449160118582677 15.976331360946745, 15.32283651794502 16.775147928994084, 14.501567602021224 17.57396449704142, 12.656223344411078 18.37278106508876, 7.6654390379627095 19.171597633136095, 10.700403706033157 19.970414201183434, 12.676127490340683 20.76923076923077, 15.642377012930694 21.56804733727811, 17.531091852497298 22.366863905325445, 22.066014572772637 23.16568047337278, 22.07506838907001 23.964497041420117, 25.203749589946593 24.763313609467456, 27.10656177803134 25.562130177514792, 26.400115067363256 26.36094674556213, 35.23507932390993 27.159763313609467, 33.481397074025374 27.958579881656807, 36.42898410745666 28.757396449704142, 32.22996517838611 29.55621301775148, 35.826136926334115 30.355029585798817, 36.69298663041165 31.153846153846157, 36.02260385369181 31.95266272189349, 35.2319506961539 32.751479289940825, 38.73073511106377 33.55029585798817, 40.220443344786375 34.349112426035504, 38.10097054502894 35.14792899408284, 39.036344119056565 35.94674556213018, 35.35504151234693 36.74556213017752, 33.94934896251775 37.54437869822485, 29.92952220299688 38.34319526627219, 35.69590443217289 39.142011834319526, 41.82909577153439 39.94082840236687, 41.9596089487802 40.7396449704142, 39.90471001890496 41.53846153846154, 40.33489358815544 42.337278106508876, 39.15821351550029 43.13609467455622, 35.379448051200654 43.93491124260355, 32.43226427954768 44.73372781065089, 29.503571862068895 45.532544378698226, 28.246814002580884 46.33136094674556, 33.739257073363895 47.1301775147929, 34.1739001533295 47.928994082840234, 35.08737262690911 48.72781065088758, 39.026307811916936 49.52662721893491, 35.73787907790495 50.32544378698225, 34.71311296740436 51.124260355029584, 36.426746279774385 51.92307692307693, 35.095919474024726 52.72189349112426, 34.693533307911906 53.5207100591716, 36.38045621906667 54.319526627218934, 33.598143895707885 55.11834319526627, 38.85659739282241 55.91715976331361, 39.307196363779575 56.71597633136094, 41.46180827725689 57.514792899408285, 39.886778162116634 58.31360946745562, 43.65315682112282 59.11242603550296, 48.148770459575104 59.91124260355029, 48.83630489063847 60.710059171597635, 48.18476947574348 61.50887573964497, 47.23956660825931 62.307692307692314, 45.46282755675588 63.10650887573964, 48.81802428392456 63.90532544378698, 49.98726871764641 64.70414201183432, 47.63005646557364 65.50295857988165, 46.92335427288298 66.30177514792899, 46.970484846585784 67.10059171597634, 47.93342330079342 67.89940828402366, 45.812934779165545 68.69822485207101, 46.497044796248026 69.49704142011834, 49.307031033424515 70.29585798816568, 48.30529896956464 71.09467455621302, 45.61721544391141 71.89349112426036, 45.55959272755115 72.6923076923077, 45.252700603790935 73.49112426035504, 43.122710195662634 74.28994082840237, 42.5608912660988 75.0887573964497, 45.7786434371854 75.88757396449704, 43.563976511152084 76.68639053254438, 45.29865362537823 77.48520710059172, 50.0 78.28402366863905, 47.03394148499906 79.0828402366864, 43.9527191904522 79.88165680473374, 42.02333681749681 80.68047337278107, 41.89022376770856 81.4792899408284, 42.58312604445167 82.27810650887574, 40.18428050781077 83.07692307692308, 40.69851521399699 83.87573964497041, 39.27461313799191 84.67455621301775, 38.786280366528715 85.4733727810651, 36.79697976682956 86.27218934911244, 37.87689376912169 87.07100591715975, 37.659680873492846 87.8698224852071, 39.548936360777816 88.66863905325444, 39.59145508865312 89.46745562130178, 37.43082682807181 90.26627218934911, 34.93450367019428 91.06508875739645, 36.770581026829674 91.8639053254438, 35.90017964134034 92.66272189349112, 36.00748849891522 93.46153846153845, 35.88495178230518 94.2603550295858, 36.43044267000372 95.05917159763314, 36.17416186123889 95.85798816568047, 37.089860067052086 96.65680473372781, 34.342932346802804 97.45562130177515, 32.979636924767895 98.2544378698225, 31.150689699769263 99.05325443786982, 33.836191941745305 99.85207100591715, 32.347394481915224 100.6508875739645, 31.214619361593165 101.44970414201183, 32.368418845422084 102.24852071005917, 33.45062516332437 103.04733727810651, 35.28268945241328 103.84615384615385, 35.2520081457383 104.64497041420118, 31.52044995208153 105.44378698224853, 32.09068021650981 106.24260355029585, 33.21522271252529 107.0414201183432, 29.67531592235129 107.84023668639053, 32.021455629389685 108.63905325443787, 33.589536255370845 109.43786982248521, 31.693474818791206 110.23668639053254, 31.410203045890967 111.03550295857988, 29.74479045307077 111.83431952662723, 29.49036271853529 112.63313609467457, 29.450899344806654 113.43195266272188, 28.825066651648545 114.23076923076923, 26.6181387968262 115.02958579881657, 24.899382169161456 115.82840236686391, 28.326049632677435 116.62721893491124, 29.434500171720142 117.42603550295858, 28.079591889355264 118.22485207100593, 29.30711950541498 119.02366863905324, 30.076914814290394 119.82248520710058, 31.288139594365127 120.62130177514793, 35.15749808409546 121.42011834319527, 35.042452893027864 122.2189349112426, 41.07559910138971 123.01775147928994, 39.89147905265591 123.81656804733728, 40.01551819132189 124.61538461538463, 38.605538674316364 125.41420118343194, 38.4574477267708 126.21301775147928, 33.7974790096102 127.01183431952663, 30.299045134981146 127.81065088757396, 27.435607851863026 128.60946745562129, 26.142083240007846 129.40828402366864, 27.87947349120993 130.20710059171597, 25.730688600868618 131.0059171597633, 20.216854734618984 131.80473372781066, 17.854259344481108 132.60355029585799, 18.42237528309105 133.40236686390534, 21.61037038956922 134.20118343195267, 21.002979725933756" fill="none" stroke="#ff3a33" stroke-width="1.25"/>

</svg>