<?xml version="1.0" standalone="no"?>
<!DOCTYPE svg PUBLIC "-//W3C//DTD SVG 1.1//EN" "http://www.w3.org/Graphics/SVG/1.1/DTD/svg11.dtd">

<svg width="135" height="50" viewBox="0 0 135 50" preserveAspectRatio="none" 
  xmlns="http://www.w3.org/2000/svg"
  xmlns:xlink="http://www.w3.org/1999/xlink">


<polyline points="0.0, 5.3772170415072225 0.7988165680473372, 10.19490192766958 1.5976331360946745, 7.872081234194638 2.396449704142012, 4.461065206972928 3.195266272189349, 7.053522241616801 3.994082840236686, 7.170179370801873 4.792899408284024, 8.584733038599074 5.591715976331361, 5.496854945480269 6.390532544378698, 7.367652419746305 7.189349112426036, 11.052618153643433 7.988165680473372, 13.07321007473527 8.78698224852071, 4.143102184162357 9.585798816568047, 5.627799517266997 10.384615384615385, 9.456131004339062 11.183431952662723, 0.0 11.982248520710058, 12.292342422276656 12.781065088757396, 21.586785907218907 13.579881656804734, 26.197409008601763 14.378698224852071, 26.996771154585215 15.177514792899409, 26.653326950826013 15.976331360946745, 16.31989086568727 16.775147928994084, 18.366555802640935 17.57396449704142, 7.61781526387656 18.37278106508876, 8.870109749857479 19.171597633136095, 12.446882704286741 19.970414201183434, 17.837643966432033 20.76923076923077, 21.87144912408683 21.56804733727811, 22.148631626965685 22.366863905325445, 20.08625800742403 23.16568047337278, 25.272610112161658 23.964497041420117, 26.86373347077086 24.763313609467456, 30.568915360889097 25.562130177514792, 33.69506192170421 26.36094674556213, 30.656294133164725 27.159763313609467, 40.90919094017481 27.958579881656807, 36.429201344151494 28.757396449704142, 40.068305258732586 29.55621301775148, 35.21219754864457 30.355029585798817, 36.07122318338607 31.153846153846157, 39.715727270306765 31.95266272189349, 37.728538374409496 32.751479289940825, 37.084349162226054 33.55029585798817, 41.89292961320052 34.349112426035504, 45.64300120098098 35.14792899408284, 42.33774219514392 35.94674556213018, 41.75998231098141 36.74556213017752, 35.41392084689801 37.54437869822485, 32.91618596053792 38.34319526627219, 29.848768864789427 39.142011834319526, 34.36680388741724 39.94082840236687, 41.71836637402836 40.7396449704142, 42.15021255041261 41.53846153846154, 38.82135055248919 42.337278106508876, 41.34935055739977 43.13609467455622, 38.64087263360803 43.93491124260355, 28.875802995170393 44.73372781065089, 27.366328221284004 45.532544378698226, 23.594696377114943 46.33136094674556, 24.232180637114386 47.1301775147929, 29.221748313308748 47.928994082840234, 29.927147611279786 48.72781065088758, 32.06786231678527 49.52662721893491, 37.899347593433035 50.32544378698225, 32.61640506703694 51.124260355029584, 32.520585637998934 51.92307692307693, 37.11637960036918 52.72189349112426, 32.93941502151736 53.5207100591716, 30.54967045958044 54.319526627218934, 33.34665051308712 55.11834319526627, 27.76423268709228 55.91715976331361, 35.24288401792901 56.71597633136094, 35.646912686280196 57.514792899408285, 38.936222804074774 58.31360946745562, 35.4986781301609 59.11242603550296, 36.76935034584797 59.91124260355029, 40.070268733082536 60.710059171597635, 40.31852131669393 61.50887573964497, 38.06539931229123 62.307692307692314, 38.55664956029897 63.10650887573964, 36.114128139896685 63.90532544378698, 41.52696251936167 64.70414201183432, 44.88011154256797 65.50295857988165, 43.04710204419485 66.30177514792899, 41.09340274629377 67.10059171597634, 41.558680859174174 67.89940828402366, 44.42044788151667 68.69822485207101, 42.37194734080203 69.49704142011834, 38.4656247691207 70.29585798816568, 43.33338577693708 71.09467455621302, 45.18420763217831 71.89349112426036, 40.71117168501364 72.6923076923077, 39.94040959769317 73.49112426035504, 37.8741873975052 74.28994082840237, 34.49486381765978 75.0887573964497, 37.04678807308002 75.88757396449704, 42.14500243117679 76.68639053254438, 42.50501313332417 77.48520710059172, 41.543298904167855 78.28402366863905, 50.0 79.0828402366864, 48.79875501019523 79.88165680473374, 47.89415260748958 80.68047337278107, 43.957492960241765 81.4792899408284, 43.57688420845363 82.27810650887574, 44.20337541263485 83.07692307692308, 40.23643554474718 83.87573964497041, 41.72020716178965 84.67455621301775, 39.66925717252063 85.4733727810651, 38.10816373764711 86.27218934911244, 38.10629674517352 87.07100591715975, 38.855888033418715 87.8698224852071, 36.06629575706552 88.66863905325444, 37.49253114557182 89.46745562130178, 37.54849519117252 90.26627218934911, 37.956192976306895 91.06508875739645, 33.02669249800253 91.8639053254438, 34.704051306736055 92.66272189349112, 34.327957834987984 93.46153846153845, 34.877592203523214 94.2603550295858, 33.19859310739623 95.05917159763314, 32.383019343965145 95.85798816568047, 31.852537254664103 96.65680473372781, 32.1796973598359 97.45562130177515, 31.20942707006853 98.2544378698225, 32.244219250278334 99.05325443786982, 32.725647963977295 99.85207100591715, 32.25177648158943 100.6508875739645, 33.40000301817347 101.44970414201183, 31.97425982066104 102.24852071005917, 33.59390604406911 103.04733727810651, 36.729649803144994 103.84615384615385, 36.34787368058919 104.64497041420118, 37.65430785480392 105.44378698224853, 36.957699841086544 106.24260355029585, 37.69538449767406 107.0414201183432, 37.300581184049065 107.84023668639053, 37.76103304347262 108.63905325443787, 41.29857239252806 109.43786982248521, 42.956968674448866 110.23668639053254, 39.560053077639395 111.03550295857988, 40.856877212608275 111.83431952662723, 38.121734460373226 112.63313609467457, 37.58949665869333 113.43195266272188, 38.38325317790372 114.23076923076923, 36.02114498320579 115.02958579881657, 35.59765880730658 115.82840236686391, 36.38348985508768 116.62721893491124, 40.43404954047727 117.42603550295858, 42.736002165396066 118.22485207100593, 40.46703727608751 119.02366863905324, 40.61714575298544 119.82248520710058, 39.45335253274998 120.62130177514793, 36.22353961203283 121.42011834319527, 40.891274703394195 122.2189349112426, 41.58195756372741 123.01775147928994, 48.435034681660404 123.81656804733728, 45.226789170751886 124.61538461538463, 45.36401259924332 125.41420118343194, 42.35715644417468 126.21301775147928, 41.57406349562718 127.01183431952663, 35.65884757623422 127.81065088757396, 23.867360346328333 128.60946745562129, 22.71918500144756 129.40828402366864, 22.435260965267123 130.20710059171597, 21.536051651973377 131.0059171597633, 15.944760151496434 131.80473372781066, 13.359325817983873 132.60355029585799, 14.585624529550229 133.40236686390534, 15.87463829363518 134.20118343195267, 12.45090551951476" fill="none" stroke="#ff3a33" stroke-width="1.25"/>

</svg>