<?xml version="1.0" standalone="no"?>
<!DOCTYPE svg PUBLIC "-//W3C//DTD SVG 1.1//EN" "http://www.w3.org/Graphics/SVG/1.1/DTD/svg11.dtd">

<svg width="135" height="50" viewBox="0 0 135 50" preserveAspectRatio="none" 
  xmlns="http://www.w3.org/2000/svg"
  xmlns:xlink="http://www.w3.org/1999/xlink">


<polyline points="0.0, 11.850574231501597 0.7988165680473372, 12.739455934980986 1.5976331360946745, 11.731425992956206 2.396449704142012, 15.014558890905485 3.195266272189349, 15.261969001015249 3.994082840236686, 14.60147207685477 4.792899408284024, 15.467240171644239 5.591715976331361, 15.258582521436418 6.390532544378698, 14.985488264313762 7.189349112426036, 18.00833210534677 7.988165680473372, 17.05203910423072 8.78698224852071, 15.110553291178134 9.585798816568047, 19.328266705599283 10.384615384615385, 18.012508949967007 11.183431952662723, 20.711516942839523 11.982248520710058, 27.433727680786628 12.781065088757396, 29.287806705594257 13.579881656804734, 27.10823828754929 14.378698224852071, 29.66948881748196 15.177514792899409, 28.33541747773024 15.976331360946745, 27.822144409088956 16.775147928994084, 29.02232473224143 17.57396449704142, 28.550315399986214 18.37278106508876, 28.671948720574296 19.171597633136095, 22.391884958774224 19.970414201183434, 23.85202731809838 20.76923076923077, 24.397183894419715 21.56804733727811, 24.94674720376726 22.366863905325445, 27.73501845380019 23.16568047337278, 29.643395047495176 23.964497041420117, 29.40771587175572 24.763313609467456, 30.401702510015955 25.562130177514792, 28.952150849013748 26.36094674556213, 32.91441500852922 27.159763313609467, 32.34372970879358 27.958579881656807, 34.16229172333464 28.757396449704142, 35.986639644881365 29.55621301775148, 36.6608844273512 30.355029585798817, 42.999103414639286 31.153846153846157, 41.59396345507465 31.95266272189349, 42.48318527037558 32.751479289940825, 41.36589042444628 33.55029585798817, 42.54772732552631 34.349112426035504, 42.88589251582748 35.14792899408284, 42.442495767657626 35.94674556213018, 37.73918444381771 36.74556213017752, 33.95032274968676 37.54437869822485, 36.45741305897629 38.34319526627219, 35.83990317429358 39.142011834319526, 40.8397419407472 39.94082840236687, 38.24626552291234 40.7396449704142, 37.64034396456062 41.53846153846154, 40.494647626383 42.337278106508876, 42.049981787814374 43.13609467455622, 40.12852755888358 43.93491124260355, 36.82054449375333 44.73372781065089, 38.23284582458378 45.532544378698226, 39.04540647411334 46.33136094674556, 37.12302732180463 47.1301775147929, 39.43511825602632 47.928994082840234, 38.21109167582374 48.72781065088758, 41.090229394919874 49.52662721893491, 39.14330361180828 50.32544378698225, 38.82793733751728 51.124260355029584, 38.347964949271926 51.92307692307693, 38.9590210881272 52.72189349112426, 36.88403936963828 53.5207100591716, 38.17125528792206 54.319526627218934, 37.43125190288347 55.11834319526627, 39.636668556353875 55.91715976331361, 39.77575920825182 56.71597633136094, 38.302181290069484 57.514792899408285, 41.07938957148126 58.31360946745562, 42.92862183791764 59.11242603550296, 46.3457768350516 59.91124260355029, 46.005678235343545 60.710059171597635, 45.308318464824005 61.50887573964497, 45.835994184560995 62.307692307692314, 46.158752839603906 63.10650887573964, 47.15038357421225 63.90532544378698, 47.597807548081214 64.70414201183432, 48.97573535945738 65.50295857988165, 47.59598620551285 66.30177514792899, 49.44464879933798 67.10059171597634, 49.02655605036059 67.89940828402366, 47.352367085341 68.69822485207101, 45.94357726750395 69.49704142011834, 49.06551078712744 70.29585798816568, 50.0 71.09467455621302, 42.59629444965381 71.89349112426036, 42.39723062954827 72.6923076923077, 42.03011316295958 73.49112426035504, 40.48780552276947 74.28994082840237, 41.67041159906588 75.0887573964497, 42.05980140533935 75.88757396449704, 44.52166317476367 76.68639053254438, 42.72032739515292 77.48520710059172, 42.51451883290916 78.28402366863905, 41.911491657610185 79.0828402366864, 43.275892754195546 79.88165680473374, 41.27387556257464 80.68047337278107, 39.17025094733545 81.4792899408284, 38.907517053601495 82.27810650887574, 36.890408827975754 83.07692307692308, 40.16251170960018 83.87573964497041, 41.23948468058104 84.67455621301775, 41.81079239600589 85.4733727810651, 37.63708113757648 86.27218934911244, 34.295457928744405 87.07100591715975, 32.98435159652395 87.8698224852071, 26.989387536080223 88.66863905325444, 21.85630458496212 89.46745562130178, 28.742729841953267 90.26627218934911, 28.617922901349928 91.06508875739645, 30.08325416318564 91.8639053254438, 30.90359878917994 92.66272189349112, 28.400962834458532 93.46153846153845, 30.04924812793504 94.2603550295858, 29.95190969916115 95.05917159763314, 32.929933019712074 95.85798816568047, 28.661843103616985 96.65680473372781, 26.376435370972583 97.45562130177515, 28.233919558298158 98.2544378698225, 26.243486767300595 99.05325443786982, 31.869688220864695 99.85207100591715, 32.203824932853294 100.6508875739645, 29.351717239508957 101.44970414201183, 31.7401021142971 102.24852071005917, 32.7507200100673 103.04733727810651, 31.305181251224795 103.84615384615385, 30.344307441326592 104.64497041420118, 30.378605819954547 105.44378698224853, 30.59814887822273 106.24260355029585, 31.861791952666202 107.0414201183432, 34.97914888036994 107.84023668639053, 33.76498474638327 108.63905325443787, 38.313793241476105 109.43786982248521, 34.82757253349036 110.23668639053254, 31.840248352303806 111.03550295857988, 30.473827635317285 111.83431952662723, 29.696780071033896 112.63313609467457, 25.42593663248887 113.43195266272188, 25.46833758472375 114.23076923076923, 26.079759005727293 115.02958579881657, 24.312824536085795 115.82840236686391, 26.59762521737582 116.62721893491124, 27.06998248353501 117.42603550295858, 28.729467754721554 118.22485207100593, 26.153632047555224 119.02366863905324, 24.72223165038007 119.82248520710058, 27.344641480531596 120.62130177514793, 27.795553128590626 121.42011834319527, 31.465617276555925 122.2189349112426, 30.59771035839368 123.01775147928994, 24.708770747260033 123.81656804733728, 25.218776741630872 124.61538461538463, 29.56930530870587 125.41420118343194, 30.915083843324297 126.21301775147928, 29.062694432674373 127.01183431952663, 26.605152023364703 127.81065088757396, 21.44210454329725 128.60946745562129, 21.01092767870469 129.40828402366864, 22.64011785254382 130.20710059171597, 13.623113186375447 131.0059171597633, 16.85685147660844 131.80473372781066, 7.427043586735054 132.60355029585799, 1.7301271934823133 133.40236686390534, 0.0 134.20118343195267, 1.1166821085052774" fill="none" stroke="#32ca5b" stroke-width="1.25"/>

</svg>