<?xml version="1.0" standalone="no"?>
<!DOCTYPE svg PUBLIC "-//W3C//DTD SVG 1.1//EN" "http://www.w3.org/Graphics/SVG/1.1/DTD/svg11.dtd">

<svg width="135" height="50" viewBox="0 0 135 50" preserveAspectRatio="none" 
  xmlns="http://www.w3.org/2000/svg"
  xmlns:xlink="http://www.w3.org/1999/xlink">


<polyline points="0.0, 13.403296250113176 0.7988165680473372, 17.27996680463815 1.5976331360946745, 18.45132288544676 2.396449704142012, 17.35917291843017 3.195266272189349, 19.527397025949508 3.994082840236686, 18.30228188115163 4.792899408284024, 16.923710101374486 5.591715976331361, 15.07983073292606 6.390532544378698, 17.87325883393056 7.189349112426036, 20.005541225365675 7.988165680473372, 20.936174792457326 8.78698224852071, 19.148921284018037 9.585798816568047, 17.354094593821053 10.384615384615385, 19.598280171847268 11.183431952662723, 19.52197532395357 11.982248520710058, 25.742046909231714 12.781065088757396, 31.11734064887616 13.579881656804734, 33.420414170473165 14.378698224852071, 31.664654097707608 15.177514792899409, 32.53382313177914 15.976331360946745, 28.717366604873305 16.775147928994084, 27.83927817365373 17.57396449704142, 26.08505324215582 18.37278106508876, 24.347558267073033 19.171597633136095, 22.83306807532111 19.970414201183434, 22.8948969745672 20.76923076923077, 23.868232332344768 21.56804733727811, 23.104031547554722 22.366863905325445, 23.32238213956366 23.16568047337278, 23.669431586330795 23.964497041420117, 24.237451386906148 24.763313609467456, 27.148243921615695 25.562130177514792, 29.38492702856071 26.36094674556213, 26.982596485575073 27.159763313609467, 34.56326937705971 27.958579881656807, 34.078243026046984 28.757396449704142, 36.62370639708467 29.55621301775148, 33.89710639233609 30.355029585798817, 47.24135407521054 31.153846153846157, 49.08556549407378 31.95266272189349, 47.28190366423494 32.751479289940825, 44.67713095191454 33.55029585798817, 46.715781296720614 34.349112426035504, 50.0 35.14792899408284, 48.456017735892154 35.94674556213018, 49.807739911464374 36.74556213017752, 46.11953759684646 37.54437869822485, 44.581246651244214 38.34319526627219, 42.685085893256236 39.142011834319526, 43.03301122775397 39.94082840236687, 47.572676452891116 40.7396449704142, 47.22519342631559 41.53846153846154, 46.53203733987238 42.337278106508876, 46.99898967872476 43.13609467455622, 46.01920911526246 43.93491124260355, 45.6573589921007 44.73372781065089, 43.60629362306965 45.532544378698226, 38.97667451755758 46.33136094674556, 37.89900350783647 47.1301775147929, 39.28371281141068 47.928994082840234, 40.95771362797389 48.72781065088758, 42.8355671866421 49.52662721893491, 47.57197968943557 50.32544378698225, 45.02957849798031 51.124260355029584, 43.295007834073004 51.92307692307693, 43.71914393302928 52.72189349112426, 41.53807928502557 53.5207100591716, 40.8636719824334 54.319526627218934, 41.59451213050301 55.11834319526627, 39.30576118438338 55.91715976331361, 40.64230822245606 56.71597633136094, 42.27489475770907 57.514792899408285, 42.74813236014235 58.31360946745562, 41.32783140055955 59.11242603550296, 42.443196228764464 59.91124260355029, 43.24119190663524 60.710059171597635, 44.02840622048215 61.50887573964497, 44.253787019285134 62.307692307692314, 44.56805045376569 63.10650887573964, 43.30698271512847 63.90532544378698, 45.95495858969397 64.70414201183432, 47.26072830781564 65.50295857988165, 46.137541380566304 66.30177514792899, 43.366015797412636 67.10059171597634, 42.90798855784247 67.89940828402366, 43.98292420496514 68.69822485207101, 42.09079373426011 69.49704142011834, 40.38099186952244 70.29585798816568, 44.40859339963937 71.09467455621302, 47.73157956208413 71.89349112426036, 47.837460810042835 72.6923076923077, 46.78171800275519 73.49112426035504, 45.01982706860021 74.28994082840237, 42.91389320811014 75.0887573964497, 43.09894828534093 75.88757396449704, 45.33109660782682 76.68639053254438, 46.096898986815404 77.48520710059172, 45.51233988791547 78.28402366863905, 49.59993191156074 79.0828402366864, 47.19277859311369 79.88165680473374, 45.43847228985147 80.68047337278107, 43.246861884256205 81.4792899408284, 42.47296065367606 82.27810650887574, 43.68564158631586 83.07692307692308, 40.519894786503585 83.87573964497041, 38.05395830109688 84.67455621301775, 37.12930372696247 85.4733727810651, 38.08669258491002 86.27218934911244, 38.30810510737074 87.07100591715975, 40.0055381032546 87.8698224852071, 38.65728657371106 88.66863905325444, 39.580868802326265 89.46745562130178, 41.16088891754759 90.26627218934911, 38.422308275492014 91.06508875739645, 36.54040801202468 91.8639053254438, 37.548288444031215 92.66272189349112, 37.42323450390897 93.46153846153845, 37.470526043633235 94.2603550295858, 37.16229779243726 95.05917159763314, 31.820740449184783 95.85798816568047, 31.688254941359034 96.65680473372781, 29.28149907381198 97.45562130177515, 28.198929704995702 98.2544378698225, 27.498965219636702 99.05325443786982, 25.747074448403097 99.85207100591715, 25.13566416816584 100.6508875739645, 24.15290601993313 101.44970414201183, 22.200629402974954 102.24852071005917, 22.789694137777303 103.04733727810651, 24.806671689265595 103.84615384615385, 24.079270688766098 104.64497041420118, 23.367769100344965 105.44378698224853, 20.98833008432555 106.24260355029585, 19.795181961908792 107.0414201183432, 19.946933578531944 107.84023668639053, 19.82751267565693 108.63905325443787, 21.040374554760493 109.43786982248521, 20.91834805764911 110.23668639053254, 16.690948948490338 111.03550295857988, 15.104041297451287 111.83431952662723, 14.99318777672867 112.63313609467457, 12.558831313470382 113.43195266272188, 10.915974853125077 114.23076923076923, 12.375798444337537 115.02958579881657, 10.254182890253087 115.82840236686391, 10.854203281573332 116.62721893491124, 14.350409025922135 117.42603550295858, 12.22244755633108 118.22485207100593, 8.234523520883437 119.02366863905324, 8.773536121036557 119.82248520710058, 8.998298743360712 120.62130177514793, 9.894655172475368 121.42011834319527, 13.48574505661911 122.2189349112426, 13.400855963975108 123.01775147928994, 21.052077439775008 123.81656804733728, 18.517169628363696 124.61538461538463, 19.28877712740374 125.41420118343194, 16.439023336086983 126.21301775147928, 15.613255574228061 127.01183431952663, 7.731826934949799 127.81065088757396, 2.217390553183582 128.60946745562129, 0.42259851619125927 129.40828402366864, 1.394347650792018 130.20710059171597, 4.07025751591086 131.0059171597633, 1.2686077993225628 131.80473372781066, 3.279502316728107 132.60355029585799, 0.0 133.40236686390534, 0.11713938282874202 134.20118343195267, 3.0104395127419328" fill="none" stroke="#32ca5b" stroke-width="1.25"/>

</svg>