<?xml version="1.0" standalone="no"?>
<!DOCTYPE svg PUBLIC "-//W3C//DTD SVG 1.1//EN" "http://www.w3.org/Graphics/SVG/1.1/DTD/svg11.dtd">

<svg width="135" height="50" viewBox="0 0 135 50" preserveAspectRatio="none" 
  xmlns="http://www.w3.org/2000/svg"
  xmlns:xlink="http://www.w3.org/1999/xlink">


<polyline points="0.0, 0.20446171005408875 0.7988165680473372, 1.2397739847209668 1.5976331360946745, 0.3898002644559466 2.396449704142012, 39.3400169995576 3.195266272189349, 1.955006587797017 3.994082840236686, 0.0 4.792899408284024, 34.46629539241325 5.591715976331361, 35.05176534241666 6.390532544378698, 5.306871815552835 7.189349112426036, 5.136687209108507 7.988165680473372, 7.295393055825204 8.78698224852071, 7.707929615094231 9.585798816568047, 8.43451539452224 10.384615384615385, 12.925805139437688 11.183431952662723, 11.46928013395577 11.982248520710058, 11.197239316546867 12.781065088757396, 11.100543054392666 13.579881656804734, 10.253411744669263 14.378698224852071, 9.675799205985044 15.177514792899409, 10.97474709970197 15.976331360946745, 11.74985969475808 16.775147928994084, 11.215795393439583 17.57396449704142, 13.00428064099052 18.37278106508876, 12.945723920533364 19.171597633136095, 15.407038967827294 19.970414201183434, 14.750857709774682 20.76923076923077, 15.680884549163082 21.56804733727811, 16.510528743652443 22.366863905325445, 16.756207531986064 23.16568047337278, 15.670951985071913 23.964497041420117, 15.56068210885223 24.763313609467456, 15.684276853283563 25.562130177514792, 15.954322498600751 26.36094674556213, 17.10649509903997 27.159763313609467, 14.610462476410795 27.958579881656807, 14.794501461612558 28.757396449704142, 10.04606287064673 29.55621301775148, 6.736375358552108 30.355029585798817, 6.7570713623067435 31.153846153846157, 7.69182247553764 31.95266272189349, 6.330780632145669 32.751479289940825, 7.348521829358605 33.55029585798817, 7.467918082042566 34.349112426035504, 11.02504647050605 35.14792899408284, 7.298069445763926 35.94674556213018, 8.720695464760123 36.74556213017752, 13.520595509335687 37.54437869822485, 14.471246750964076 38.34319526627219, 15.765210307475986 39.142011834319526, 12.90403151286158 39.94082840236687, 8.445358418138408 40.7396449704142, 10.177253678031771 41.53846153846154, 11.326763504561645 42.337278106508876, 12.421217087110934 43.13609467455622, 11.343399828491869 43.93491124260355, 11.77183034265394 44.73372781065089, 9.40797826413196 45.532544378698226, 10.97154706578445 46.33136094674556, 11.716344341552986 47.1301775147929, 10.609548650765666 47.928994082840234, 8.590979565797543 48.72781065088758, 10.48850644908307 49.52662721893491, 10.199395733819411 50.32544378698225, 9.151467760181495 51.124260355029584, 11.066713104007786 51.92307692307693, 12.240479457069803 52.72189349112426, 12.02365631359448 53.5207100591716, 11.950444990235559 54.319526627218934, 12.830150903025867 55.11834319526627, 12.028800843388305 55.91715976331361, 11.761918475909525 56.71597633136094, 12.350544925098326 57.514792899408285, 10.73322233270643 58.31360946745562, 7.433594663894988 59.11242603550296, 6.434733900667153 59.91124260355029, 6.56214540708462 60.710059171597635, 5.778449870372989 61.50887573964497, 5.9093310873825455 62.307692307692314, 8.067242849178529 63.10650887573964, 6.68437689604679 63.90532544378698, 6.0133126452907 64.70414201183432, 5.334294640523274 65.50295857988165, 6.7356251594932735 66.30177514792899, 6.065589617822145 67.10059171597634, 7.00746394467452 67.89940828402366, 7.149371051489377 68.69822485207101, 11.745084440883275 69.49704142011834, 11.78524103297572 70.29585798816568, 10.904802665435556 71.09467455621302, 11.86663264467759 71.89349112426036, 11.28346466030507 72.6923076923077, 11.602333085405139 73.49112426035504, 10.44507973240647 74.28994082840237, 8.679634406137659 75.0887573964497, 9.10335875559818 75.88757396449704, 7.989153407146484 76.68639053254438, 8.40485531455211 77.48520710059172, 7.905477333358915 78.28402366863905, 7.547577060447414 79.0828402366864, 7.713242167058669 79.88165680473374, 8.417747819246996 80.68047337278107, 9.086578893616748 81.4792899408284, 8.124596511032445 82.27810650887574, 9.034900216660684 83.07692307692308, 9.842869107129351 83.87573964497041, 10.623925813661485 84.67455621301775, 10.84807802276551 85.4733727810651, 10.852638257179681 86.27218934911244, 10.994289805201078 87.07100591715975, 35.12317942648214 87.8698224852071, 17.811160944373064 88.66863905325444, 16.887907529696214 89.46745562130178, 33.29471192492587 90.26627218934911, 34.41910903678513 91.06508875739645, 34.297487964017556 91.8639053254438, 33.158840435178845 92.66272189349112, 32.66586432898556 93.46153846153845, 31.76412936502307 94.2603550295858, 32.05003630674182 95.05917159763314, 33.845692006093095 95.85798816568047, 32.35373738742613 96.65680473372781, 31.386272504648094 97.45562130177515, 30.925048595820968 98.2544378698225, 30.18872685685534 99.05325443786982, 30.564319532255414 99.85207100591715, 31.134685002729455 100.6508875739645, 27.742314038657796 101.44970414201183, 27.892726554867636 102.24852071005917, 26.372487860445304 103.04733727810651, 20.7776627182491 103.84615384615385, 20.948427192482093 104.64497041420118, 20.592922223530387 105.44378698224853, 19.41065700965343 106.24260355029585, 20.343728891460376 107.0414201183432, 20.757918532095378 107.84023668639053, 20.5021460275858 108.63905325443787, 23.588285576666042 109.43786982248521, 23.03531799513234 110.23668639053254, 22.198933386972445 111.03550295857988, 22.4353908316285 111.83431952662723, 22.356405878885326 112.63313609467457, 22.37816154836479 113.43195266272188, 22.7885200724966 114.23076923076923, 22.34968443388999 115.02958579881657, 22.572375138106494 115.82840236686391, 22.441720664453307 116.62721893491124, 22.177170897603332 117.42603550295858, 22.339720337599417 118.22485207100593, 22.095840170210675 119.02366863905324, 21.85603658986192 119.82248520710058, 26.70916392125641 120.62130177514793, 28.364843460044852 121.42011834319527, 28.051414932767454 122.2189349112426, 26.388211691712126 123.01775147928994, 27.652954294940795 123.81656804733728, 28.79392442415853 124.61538461538463, 38.46418043275019 125.41420118343194, 34.29895963461662 126.21301775147928, 40.663914808990256 127.01183431952663, 44.207327732941856 127.81065088757396, 44.010164886539506 128.60946745562129, 46.547512116200565 129.40828402366864, 47.92179502925257 130.20710059171597, 46.22789684203257 131.0059171597633, 47.668901695540846 131.80473372781066, 47.51069376370955 132.60355029585799, 49.284028051599904 133.40236686390534, 50.0 134.20118343195267, 45.34742682204636" fill="none" stroke="#ff3a33" stroke-width="1.25"/>

</svg>