<?xml version="1.0" standalone="no"?>
<!DOCTYPE svg PUBLIC "-//W3C//DTD SVG 1.1//EN" "http://www.w3.org/Graphics/SVG/1.1/DTD/svg11.dtd">

<svg width="135" height="50" viewBox="0 0 135 50" preserveAspectRatio="none" 
  xmlns="http://www.w3.org/2000/svg"
  xmlns:xlink="http://www.w3.org/1999/xlink">


<polyline points="0.0, 0.850752082708651 0.7988165680473372, 1.753374088875625 1.5976331360946745, 3.740200118634858 2.396449704142012, 2.06571737092515 3.195266272189349, 3.1092540793362664 3.994082840236686, 0.0 4.792899408284024, 8.450570647652018 5.591715976331361, 7.1625224420779245 6.390532544378698, 6.676103219733405 7.189349112426036, 6.747356588141486 7.988165680473372, 6.765405667136039 8.78698224852071, 4.754389725442981 9.585798816568047, 6.480020872695709 10.384615384615385, 8.224781070620823 11.183431952662723, 5.889836569393632 11.982248520710058, 12.515805560122589 12.781065088757396, 48.86233342859809 13.579881656804734, 47.02281552013054 14.378698224852071, 50.0 15.177514792899409, 46.200829573006246 15.976331360946745, 43.57336357611996 16.775147928994084, 37.86382119233606 17.57396449704142, 35.353975787915346 18.37278106508876, 34.50137446485124 19.171597633136095, 28.700577973218667 19.970414201183434, 25.8961756962455 20.76923076923077, 26.980257288294734 21.56804733727811, 18.520804438594237 22.366863905325445, 18.806505474518474 23.16568047337278, 22.741646777393193 23.964497041420117, 23.73798730457833 24.763313609467456, 25.634148986666837 25.562130177514792, 27.49333684634081 26.36094674556213, 28.50725192647979 27.159763313609467, 28.842099570187823 27.958579881656807, 32.6373032749233 28.757396449704142, 36.87762010684523 29.55621301775148, 34.848118379548424 30.355029585798817, 43.76307973631997 31.153846153846157, 44.125489357720525 31.95266272189349, 41.86134492894188 32.751479289940825, 43.58111090545666 33.55029585798817, 41.39463807361383 34.349112426035504, 41.480007219250176 35.14792899408284, 40.604961790761216 35.94674556213018, 38.10469857140752 36.74556213017752, 36.415610795926085 37.54437869822485, 36.6622620799289 38.34319526627219, 32.76088843379952 39.142011834319526, 33.67696701626329 39.94082840236687, 41.31237969052244 40.7396449704142, 38.50157457905854 41.53846153846154, 39.31217112698213 42.337278106508876, 39.087326555780685 43.13609467455622, 40.25472235029917 43.93491124260355, 39.60140723952594 44.73372781065089, 41.47917675407826 45.532544378698226, 41.682400658783024 46.33136094674556, 40.28303194798611 47.1301775147929, 38.03327492246011 47.928994082840234, 38.712141370024696 48.72781065088758, 38.66042350277411 49.52662721893491, 39.205090974696375 50.32544378698225, 39.66570836111045 51.124260355029584, 39.77939387321962 51.92307692307693, 3.634807252464585 52.72189349112426, 3.460045883993198 53.5207100591716, 4.39159405533699 54.319526627218934, 6.434278376019027 55.11834319526627, 9.349835924815904 55.91715976331361, 18.913259674314162 56.71597633136094, 20.252390787549608 57.514792899408285, 29.63407579548764 58.31360946745562, 28.137399987368333 59.11242603550296, 26.333725721706365 59.91124260355029, 33.22456373812822 60.710059171597635, 31.012273224087146 61.50887573964497, 31.970690234477782 62.307692307692314, 32.19819431751051 63.10650887573964, 28.947363236753603 63.90532544378698, 26.76811400342571 64.70414201183432, 25.540432422948605 65.50295857988165, 24.092287335046315 66.30177514792899, 19.81371473114427 67.10059171597634, 19.521399704368193 67.89940828402366, 20.897012474754998 68.69822485207101, 21.24514214105499 69.49704142011834, 20.908171084751153 70.29585798816568, 21.456440448592147 71.09467455621302, 29.97057424794595 71.89349112426036, 26.102149964118375 72.6923076923077, 37.41964530211177 73.49112426035504, 36.69111411693122 74.28994082840237, 34.06845144700758 75.0887573964497, 27.902114083638573 75.88757396449704, 27.861381964031786 76.68639053254438, 34.90888718172494 77.48520710059172, 36.17908361514189 78.28402366863905, 36.05429352855445 79.0828402366864, 23.71130947089019 79.88165680473374, 22.174715764183972 80.68047337278107, 17.921444484648646 81.4792899408284, 29.877875118212405 82.27810650887574, 31.518339520801565 83.07692307692308, 31.015509900462668 83.87573964497041, 28.245473002796835 84.67455621301775, 27.56504274087142 85.4733727810651, 27.17216478173774 86.27218934911244, 26.381611887981656 87.07100591715975, 23.52397090989298 87.8698224852071, 23.739453594543647 88.66863905325444, 23.865392472199463 89.46745562130178, 21.208806903223053 90.26627218934911, 22.03522938873306 91.06508875739645, 20.07090839395825 91.8639053254438, 22.573163251418723 92.66272189349112, 22.21392430447155 93.46153846153845, 19.582541963433847 94.2603550295858, 16.67343163060154 95.05917159763314, 13.176394339451825 95.85798816568047, 17.554502230516636 96.65680473372781, 19.769279852435986 97.45562130177515, 24.454274975615792 98.2544378698225, 21.13749822927161 99.05325443786982, 18.14898068167878 99.85207100591715, 16.140064352556596 100.6508875739645, 19.6668066866307 101.44970414201183, 16.63338946803258 102.24852071005917, 14.850983836059422 103.04733727810651, 12.894848135542208 103.84615384615385, 15.246480896529203 104.64497041420118, 19.167751939038826 105.44378698224853, 18.332675160602648 106.24260355029585, 18.88127035514874 107.0414201183432, 14.664601647911674 107.84023668639053, 14.411785266330163 108.63905325443787, 12.413595971924835 109.43786982248521, 13.111341136136733 110.23668639053254, 14.78696800137998 111.03550295857988, 13.623496160791127 111.83431952662723, 22.485118756893357 112.63313609467457, 31.50610380375884 113.43195266272188, 30.938056418303304 114.23076923076923, 31.50757857192625 115.02958579881657, 26.84164783270253 115.82840236686391, 23.285388913074616 116.62721893491124, 24.165609586286312 117.42603550295858, 20.25297833441129 118.22485207100593, 22.31097395554089 119.02366863905324, 25.863154446213393 119.82248520710058, 27.705292281069728 120.62130177514793, 28.481030122086754 121.42011834319527, 31.88276571235205 122.2189349112426, 35.81879185276403 123.01775147928994, 37.79717917989537 123.81656804733728, 39.94954232824276 124.61538461538463, 33.62395005338887 125.41420118343194, 36.086518999854455 126.21301775147928, 39.34688708830741 127.01183431952663, 36.43742980358392 127.81065088757396, 30.764803216858084 128.60946745562129, 27.114709339603337 129.40828402366864, 27.156206631021853 130.20710059171597, 24.607784464468672 131.0059171597633, 19.523381520699534 131.80473372781066, 22.706985418284468 132.60355029585799, 24.62870176526115 133.40236686390534, 24.94778253900146 134.20118343195267, 22.38500585826001" fill="none" stroke="#ff3a33" stroke-width="1.25"/>

</svg>