<?xml version="1.0" standalone="no"?>
<!DOCTYPE svg PUBLIC "-//W3C//DTD SVG 1.1//EN" "http://www.w3.org/Graphics/SVG/1.1/DTD/svg11.dtd">

<svg width="135" height="50" viewBox="0 0 135 50" preserveAspectRatio="none" 
  xmlns="http://www.w3.org/2000/svg"
  xmlns:xlink="http://www.w3.org/1999/xlink">


<polyline points="0.0, 17.384672380649754 0.7988165680473372, 30.833972965044193 1.5976331360946745, 23.45097889598302 2.396449704142012, 22.43459850441837 3.195266272189349, 26.52287452166233 3.994082840236686, 31.38597636361241 4.792899408284024, 25.317688769150525 5.591715976331361, 24.75490444514096 6.390532544378698, 25.77712966989147 7.189349112426036, 23.75446494811886 7.988165680473372, 23.60636127003807 8.78698224852071, 19.673026373164806 9.585798816568047, 22.37655735037834 10.384615384615385, 11.550473376632594 11.183431952662723, 23.265521329988534 11.982248520710058, 28.699212986119576 12.781065088757396, 29.56534007216184 13.579881656804734, 38.761485905238054 14.378698224852071, 37.947046774044644 15.177514792899409, 32.81887907486553 15.976331360946745, 33.035596891960225 16.775147928994084, 29.244474536641608 17.57396449704142, 25.956476563344584 18.37278106508876, 23.469810162568333 19.171597633136095, 23.657529471173717 19.970414201183434, 29.7259776362149 20.76923076923077, 21.555448043209555 21.56804733727811, 8.23971988692974 22.366863905325445, 3.6017127518481087 23.16568047337278, 0.0 23.964497041420117, 2.7263770895012933 24.763313609467456, 9.84797703691289 25.562130177514792, 3.134709378243594 26.36094674556213, 11.132597458698566 27.159763313609467, 17.710668460742475 27.958579881656807, 21.650430984605624 28.757396449704142, 16.094669446719777 29.55621301775148, 15.934217938684553 30.355029585798817, 17.228936680681027 31.153846153846157, 15.677637860596013 31.95266272189349, 7.68463581837614 32.751479289940825, 13.04368773651998 33.55029585798817, 13.742064639420635 34.349112426035504, 14.921602208575848 35.14792899408284, 17.351111918859864 35.94674556213018, 17.290883896833012 36.74556213017752, 14.957257495629579 37.54437869822485, 9.495401922063273 38.34319526627219, 6.057718165470283 39.142011834319526, 18.082870382701756 39.94082840236687, 22.760921086508613 40.7396449704142, 16.571439295679006 41.53846153846154, 24.306164271281506 42.337278106508876, 21.39239814568395 43.13609467455622, 18.63080751776139 43.93491124260355, 13.848570792185583 44.73372781065089, 9.630765855471463 45.532544378698226, 12.851897935113865 46.33136094674556, 9.895354195157836 47.1301775147929, 12.280630213615657 47.928994082840234, 15.30930293270298 48.72781065088758, 18.69958660046336 49.52662721893491, 18.73860125086994 50.32544378698225, 15.284160322575339 51.124260355029584, 17.592617655258756 51.92307692307693, 15.789206481671533 52.72189349112426, 17.602600707211963 53.5207100591716, 16.117062319290284 54.319526627218934, 14.866197434645612 55.11834319526627, 16.917742621997572 55.91715976331361, 13.567506425138781 56.71597633136094, 15.729249414739327 57.514792899408285, 15.95755076081856 58.31360946745562, 15.269059936905904 59.11242603550296, 20.728043719705873 59.91124260355029, 21.850247638783866 60.710059171597635, 20.79585600610664 61.50887573964497, 19.630725596987173 62.307692307692314, 22.804957308296697 63.10650887573964, 25.830513890845502 63.90532544378698, 27.715982784450972 64.70414201183432, 32.39277769777972 65.50295857988165, 29.54986233719635 66.30177514792899, 28.998878689700074 67.10059171597634, 26.79924823596381 67.89940828402366, 35.06519878845282 68.69822485207101, 39.12095813810038 69.49704142011834, 39.90514728244377 70.29585798816568, 42.19284039345701 71.09467455621302, 41.571721248993114 71.89349112426036, 33.16851241902993 72.6923076923077, 30.431048026589774 73.49112426035504, 33.08032633552287 74.28994082840237, 31.77857947356178 75.0887573964497, 39.33381331616879 75.88757396449704, 46.027543308833344 76.68639053254438, 44.26876958949695 77.48520710059172, 50.0 78.28402366863905, 49.448457807306006 79.0828402366864, 44.15132633525386 79.88165680473374, 41.2756059773612 80.68047337278107, 37.22940289361411 81.4792899408284, 34.89357614775403 82.27810650887574, 42.06161224787859 83.07692307692308, 41.39153189340113 83.87573964497041, 39.33306673786455 84.67455621301775, 40.51830821044152 85.4733727810651, 37.98634871843438 86.27218934911244, 38.992267629139725 87.07100591715975, 35.16088853336882 87.8698224852071, 39.84021861359571 88.66863905325444, 33.61358462132894 89.46745562130178, 35.86212659339932 90.26627218934911, 35.1701737505894 91.06508875739645, 29.43249985233396 91.8639053254438, 26.204722914350686 92.66272189349112, 25.506672504077223 93.46153846153845, 25.735990003053704 94.2603550295858, 26.84017292316835 95.05917159763314, 27.618079691031166 95.85798816568047, 32.00250051520497 96.65680473372781, 29.99867594748391 97.45562130177515, 30.319029736301328 98.2544378698225, 26.901239958033855 99.05325443786982, 28.773486041381453 99.85207100591715, 30.217607709714343 100.6508875739645, 28.362159883430877 101.44970414201183, 31.804675392753435 102.24852071005917, 29.987793128240703 103.04733727810651, 28.661705223721807 103.84615384615385, 29.861093683328527 104.64497041420118, 28.263130295410583 105.44378698224853, 28.748092335196624 106.24260355029585, 28.299573661199602 107.0414201183432, 26.476003611499337 107.84023668639053, 28.73929687161574 108.63905325443787, 27.900278381806004 109.43786982248521, 28.52780401185049 110.23668639053254, 24.54479097529445 111.03550295857988, 25.446819618802046 111.83431952662723, 25.36119568684711 112.63313609467457, 26.554703010479724 113.43195266272188, 29.7425595393945 114.23076923076923, 26.516814447288624 115.02958579881657, 22.256212231397317 115.82840236686391, 28.010165736605142 116.62721893491124, 30.790903531264586 117.42603550295858, 31.186725008560867 118.22485207100593, 29.14980825349026 119.02366863905324, 28.23113658882612 119.82248520710058, 32.39768320752671 120.62130177514793, 27.576734369395567 121.42011834319527, 28.855109987410565 122.2189349112426, 33.84187943763601 123.01775147928994, 37.546702890563765 123.81656804733728, 37.08625421540345 124.61538461538463, 38.15574088986171 125.41420118343194, 37.887398840503515 126.21301775147928, 36.67116491381276 127.01183431952663, 24.45316692474842 127.81065088757396, 22.16059477213307 128.60946745562129, 12.63233225293707 129.40828402366864, 19.787625972965362 130.20710059171597, 11.852593213720493 131.0059171597633, 12.97878266565726 131.80473372781066, 13.772763714939359 132.60355029585799, 7.277200202005569 133.40236686390534, 6.628879683088579 134.20118343195267, 12.354283278011767" fill="none" stroke="#32ca5b" stroke-width="1.25"/>

</svg>