<?xml version="1.0" standalone="no"?>
<!DOCTYPE svg PUBLIC "-//W3C//DTD SVG 1.1//EN" "http://www.w3.org/Graphics/SVG/1.1/DTD/svg11.dtd">

<svg width="135" height="50" viewBox="0 0 135 50" preserveAspectRatio="none" 
  xmlns="http://www.w3.org/2000/svg"
  xmlns:xlink="http://www.w3.org/1999/xlink">


<polyline points="0.0, 25.60636021736527 0.7988165680473372, 27.976629097028354 1.5976331360946745, 28.878679605830413 2.396449704142012, 25.60829297388569 3.195266272189349, 30.924784840021267 3.994082840236686, 28.603711186555426 4.792899408284024, 27.146276801775 5.591715976331361, 21.198217276190245 6.390532544378698, 19.806347944570994 7.189349112426036, 20.079426197852847 7.988165680473372, 26.472416691582445 8.78698224852071, 22.488238980356044 9.585798816568047, 20.010384043080034 10.384615384615385, 19.146584967704243 11.183431952662723, 18.590222935421114 11.982248520710058, 28.251837822140963 12.781065088757396, 37.57090211131182 13.579881656804734, 38.384750912606435 14.378698224852071, 38.55096229529805 15.177514792899409, 38.552351185314855 15.976331360946745, 34.21832583178666 16.775147928994084, 32.411164549544104 17.57396449704142, 33.100314192752116 18.37278106508876, 31.39915093549185 19.171597633136095, 29.673527415699102 19.970414201183434, 30.034873385138912 20.76923076923077, 31.673914309254574 21.56804733727811, 32.11546574212832 22.366863905325445, 29.595597858018234 23.16568047337278, 29.18120255154545 23.964497041420117, 30.607320841882935 24.763313609467456, 36.60202168200838 25.562130177514792, 39.49726096171647 26.36094674556213, 38.98738223988636 27.159763313609467, 46.4013850164272 27.958579881656807, 42.2581544269796 28.757396449704142, 45.23378599242312 29.55621301775148, 39.32235361273132 30.355029585798817, 40.38607426152933 31.153846153846157, 45.49768503350558 31.95266272189349, 43.75823291386444 32.751479289940825, 41.11461499332316 33.55029585798817, 46.61895645113947 34.349112426035504, 50.0 35.14792899408284, 47.02315538514949 35.94674556213018, 46.004676858557026 36.74556213017752, 41.65055306662049 37.54437869822485, 35.5001772953087 38.34319526627219, 35.181892154875634 39.142011834319526, 38.082618726606476 39.94082840236687, 42.829353989383144 40.7396449704142, 41.6983810662846 41.53846153846154, 40.19715705810753 42.337278106508876, 39.65291575956728 43.13609467455622, 36.94104049904926 43.93491124260355, 30.805718704985964 44.73372781065089, 23.099136123921703 45.532544378698226, 17.669596695058072 46.33136094674556, 16.71643694479789 47.1301775147929, 20.26445000419531 47.928994082840234, 21.912606874430764 48.72781065088758, 22.419337233357144 49.52662721893491, 28.238623303404285 50.32544378698225, 24.76266073279737 51.124260355029584, 25.383340866726556 51.92307692307693, 26.966541373118847 52.72189349112426, 27.596472136218214 53.5207100591716, 25.89732420382418 54.319526627218934, 28.115105532113915 55.11834319526627, 25.269911212179203 55.91715976331361, 29.685683968590098 56.71597633136094, 29.235403850141108 57.514792899408285, 33.09702167046341 58.31360946745562, 31.4857586058795 59.11242603550296, 34.59903755379506 59.91124260355029, 36.891631297727386 60.710059171597635, 39.80383520060328 61.50887573964497, 39.101956819923764 62.307692307692314, 38.5765984504384 63.10650887573964, 33.1164872469866 63.90532544378698, 37.114006013656414 64.70414201183432, 39.949909956244504 65.50295857988165, 40.40919643306858 66.30177514792899, 39.23013034546475 67.10059171597634, 37.41307053558503 67.89940828402366, 39.344184799341456 68.69822485207101, 37.853352665666435 69.49704142011834, 34.24285904936114 70.29585798816568, 36.34091234976131 71.09467455621302, 36.2421819037266 71.89349112426036, 33.084802876262856 72.6923076923077, 33.85116322432473 73.49112426035504, 33.527858294594566 74.28994082840237, 31.47759415257218 75.0887573964497, 30.907440511312455 75.88757396449704, 34.68013872177099 76.68639053254438, 34.04995457973047 77.48520710059172, 31.437744922935707 78.28402366863905, 40.180168964717545 79.0828402366864, 33.85720215663589 79.88165680473374, 32.12246622930577 80.68047337278107, 30.363963126072495 81.4792899408284, 28.476138638879018 82.27810650887574, 29.733646956814276 83.07692307692308, 25.91449115997951 83.87573964497041, 26.60074096352651 84.67455621301775, 23.154359977071284 85.4733727810651, 22.391007642146956 86.27218934911244, 20.734281332621535 87.07100591715975, 17.900564247632317 87.8698224852071, 19.080501731629923 88.66863905325444, 20.650682438261576 89.46745562130178, 22.083541726451266 90.26627218934911, 22.813318715684304 91.06508875739645, 20.03689449825708 91.8639053254438, 21.88900772756879 92.66272189349112, 21.390265113752495 93.46153846153845, 21.560802953199847 94.2603550295858, 19.433907035289792 95.05917159763314, 21.823574822146643 95.85798816568047, 20.982351587357353 96.65680473372781, 20.466558668463595 97.45562130177515, 20.44013768612504 98.2544378698225, 24.55430643872514 99.05325443786982, 25.706441109139643 99.85207100591715, 26.83864798074739 100.6508875739645, 27.82733298526232 101.44970414201183, 25.783545252220573 102.24852071005917, 28.18270194392837 103.04733727810651, 30.483064849528002 103.84615384615385, 28.542756762211063 104.64497041420118, 27.647571004551803 105.44378698224853, 24.934769416620288 106.24260355029585, 23.508793831932643 107.0414201183432, 26.172284192130164 107.84023668639053, 24.80458555288689 108.63905325443787, 27.79752487216146 109.43786982248521, 28.07656222990301 110.23668639053254, 26.530911125389917 111.03550295857988, 25.894954147047784 111.83431952662723, 26.062020739316445 112.63313609467457, 22.22702642850129 113.43195266272188, 19.741898535789797 114.23076923076923, 19.42329317828823 115.02958579881657, 14.351174911705499 115.82840236686391, 12.911727512971988 116.62721893491124, 13.798654705403854 117.42603550295858, 14.342948771302499 118.22485207100593, 15.169592827808529 119.02366863905324, 17.737636933666636 119.82248520710058, 15.584578564080573 120.62130177514793, 12.074456460258075 121.42011834319527, 17.07206093316953 122.2189349112426, 18.450155964610303 123.01775147928994, 25.618830848193202 123.81656804733728, 23.286692361235254 124.61538461538463, 21.66186026290402 125.41420118343194, 19.711357657315418 126.21301775147928, 21.66270543952983 127.01183431952663, 16.04287273256808 127.81065088757396, 9.785897539801654 128.60946745562129, 10.088720426944118 129.40828402366864, 4.6184212199324985 130.20710059171597, 5.725570588198989 131.0059171597633, 3.0529911981988422 131.80473372781066, 6.178130170735143 132.60355029585799, 6.147868670271858 133.40236686390534, 5.437337992783321 134.20118343195267, 0.0" fill="none" stroke="#32ca5b" stroke-width="1.25"/>

</svg>