<?xml version="1.0" standalone="no"?>
<!DOCTYPE svg PUBLIC "-//W3C//DTD SVG 1.1//EN" "http://www.w3.org/Graphics/SVG/1.1/DTD/svg11.dtd">

<svg width="135" height="50" viewBox="0 0 135 50" preserveAspectRatio="none" 
  xmlns="http://www.w3.org/2000/svg"
  xmlns:xlink="http://www.w3.org/1999/xlink">


<polyline points="0.0, 3.5970255904606168 0.7988165680473372, 3.2800904204920602 1.5976331360946745, 4.172104452310239 2.396449704142012, 3.7419952144320106 3.195266272189349, 2.637840677130825 3.994082840236686, 3.355616747143708 4.792899408284024, 3.0064141608972332 5.591715976331361, 3.3571978885640665 6.390532544378698, 5.635982162026472 7.189349112426036, 4.4051257902747745 7.988165680473372, 2.251727849804753 8.78698224852071, 1.7896534616819522 9.585798816568047, 1.667835963017192 10.384615384615385, 0.0 11.183431952662723, 0.4417601442277862 11.982248520710058, 4.98476492118136 12.781065088757396, 6.074163223423504 13.579881656804734, 5.658116140951732 14.378698224852071, 4.709254546020576 15.177514792899409, 4.423788135386056 15.976331360946745, 6.648098960885224 16.775147928994084, 6.161045953979821 17.57396449704142, 6.917921715322052 18.37278106508876, 6.697814163661551 19.171597633136095, 4.828577163268996 19.970414201183434, 4.026765869240057 20.76923076923077, 4.052677667878505 21.56804733727811, 4.286062388756607 22.366863905325445, 3.7614945503776016 23.16568047337278, 5.073233675331159 23.964497041420117, 4.6728642122445745 24.763313609467456, 8.520352885149657 25.562130177514792, 6.641169932668241 26.36094674556213, 9.863228490339042 27.159763313609467, 3.608515821815319 27.958579881656807, 13.538842318735353 28.757396449704142, 11.403133649951062 29.55621301775148, 8.14972249994535 30.355029585798817, 14.049314379521608 31.153846153846157, 11.531013248722125 31.95266272189349, 9.542660491680117 32.751479289940825, 13.827275167710853 33.55029585798817, 3.787860681820542 34.349112426035504, 4.994868033129634 35.14792899408284, 5.026027341620549 35.94674556213018, 6.213852565966758 36.74556213017752, 7.13012881194037 37.54437869822485, 4.276235534133826 38.34319526627219, 5.991602389806651 39.142011834319526, 11.222935272699193 39.94082840236687, 11.91812719538658 40.7396449704142, 10.783362389361272 41.53846153846154, 21.272136128035125 42.337278106508876, 27.317401589000944 43.13609467455622, 27.06103990933576 43.93491124260355, 25.85235305286223 44.73372781065089, 28.465594059640242 45.532544378698226, 29.64267870793371 46.33136094674556, 27.723103042918464 47.1301775147929, 28.811684436407237 47.928994082840234, 23.81059944153906 48.72781065088758, 27.310781395789974 49.52662721893491, 27.871263918505484 50.32544378698225, 27.26970934891661 51.124260355029584, 29.380556298402595 51.92307692307693, 28.94826932034431 52.72189349112426, 29.144107404934473 53.5207100591716, 29.618955479919727 54.319526627218934, 30.060249379783404 55.11834319526627, 30.821223349932026 55.91715976331361, 30.0112288997288 56.71597633136094, 31.40054113332286 57.514792899408285, 31.237756733105073 58.31360946745562, 32.011307522623405 59.11242603550296, 32.90734966944482 59.91124260355029, 32.156564214603925 60.710059171597635, 31.798191909234998 61.50887573964497, 32.32867371314412 62.307692307692314, 33.969319594330585 63.10650887573964, 34.46299501092702 63.90532544378698, 36.11889443163093 64.70414201183432, 35.82061884377509 65.50295857988165, 36.00448371707113 66.30177514792899, 37.57093776106339 67.10059171597634, 36.995055788717615 67.89940828402366, 36.20096847583596 68.69822485207101, 35.931459064114684 69.49704142011834, 36.26883622457849 70.29585798816568, 37.57115586056312 71.09467455621302, 38.162968954943786 71.89349112426036, 38.120699831444114 72.6923076923077, 38.69290267606738 73.49112426035504, 37.17792784822634 74.28994082840237, 37.32715108761212 75.0887573964497, 39.68883065445976 75.88757396449704, 38.93191801847831 76.68639053254438, 38.3701514010891 77.48520710059172, 36.60146035791128 78.28402366863905, 36.827931610063985 79.0828402366864, 38.39223823243713 79.88165680473374, 37.67795977650821 80.68047337278107, 39.307881208814386 81.4792899408284, 37.49750332570882 82.27810650887574, 36.50434301949361 83.07692307692308, 36.92881017250503 83.87573964497041, 38.1745597526593 84.67455621301775, 39.08332941218125 85.4733727810651, 36.09169621820183 86.27218934911244, 37.84217203182988 87.07100591715975, 36.846197637212406 87.8698224852071, 38.362743718459 88.66863905325444, 37.677836782876135 89.46745562130178, 34.708157132572765 90.26627218934911, 36.05946821502301 91.06508875739645, 35.50093350030216 91.8639053254438, 35.280319915381334 92.66272189349112, 35.89220416403714 93.46153846153845, 35.978789525786965 94.2603550295858, 34.58785765941874 95.05917159763314, 35.705737259049826 95.85798816568047, 35.937914764415204 96.65680473372781, 36.11723966707464 97.45562130177515, 35.89449871690223 98.2544378698225, 35.2133890796981 99.05325443786982, 37.070147596780004 99.85207100591715, 37.19097601078115 100.6508875739645, 36.60287178427866 101.44970414201183, 38.186794575156625 102.24852071005917, 40.11882684334398 103.04733727810651, 40.05522510960468 103.84615384615385, 40.34172042339609 104.64497041420118, 39.89745594798075 105.44378698224853, 43.38835544031576 106.24260355029585, 41.933399495754905 107.0414201183432, 42.73685850307729 107.84023668639053, 42.081999097525205 108.63905325443787, 42.32700906858758 109.43786982248521, 41.54799498954146 110.23668639053254, 42.38212687412036 111.03550295857988, 42.529495149287094 111.83431952662723, 43.6075016830365 112.63313609467457, 43.49785717338218 113.43195266272188, 43.191948416597384 114.23076923076923, 42.29505881066719 115.02958579881657, 41.202718644635674 115.82840236686391, 40.38497245814342 116.62721893491124, 40.83706751090293 117.42603550295858, 40.99778183451529 118.22485207100593, 41.17654964632887 119.02366863905324, 40.64435378968898 119.82248520710058, 41.99710790491701 120.62130177514793, 43.48321946206964 121.42011834319527, 42.304915158204395 122.2189349112426, 46.1555949631607 123.01775147928994, 44.58709944333504 123.81656804733728, 45.683350638438355 124.61538461538463, 48.866406228781095 125.41420118343194, 50.0 126.21301775147928, 49.374371319867386 127.01183431952663, 48.26564634068151 127.81065088757396, 46.064305333095405 128.60946745562129, 45.26264273806759 129.40828402366864, 45.008794262744495 130.20710059171597, 44.4715489779401 131.0059171597633, 44.3238380913744 131.80473372781066, 44.56319628297068 132.60355029585799, 44.26256029833113 133.40236686390534, 44.57261717763926 134.20118343195267, 44.86353990326168" fill="none" stroke="#ff3a33" stroke-width="1.25"/>

</svg>