<?xml version="1.0" standalone="no"?>
<!DOCTYPE svg PUBLIC "-//W3C//DTD SVG 1.1//EN" "http://www.w3.org/Graphics/SVG/1.1/DTD/svg11.dtd">

<svg width="135" height="50" viewBox="0 0 135 50" preserveAspectRatio="none" 
  xmlns="http://www.w3.org/2000/svg"
  xmlns:xlink="http://www.w3.org/1999/xlink">


<polyline points="0.0, 21.408690763051556 0.7988165680473372, 26.29881192417556 1.5976331360946745, 26.916978131547996 2.396449704142012, 26.15783700064555 3.195266272189349, 29.36269140606602 3.994082840236686, 24.09579884261389 4.792899408284024, 25.76287158515863 5.591715976331361, 23.298268460792762 6.390532544378698, 24.172675864882667 7.189349112426036, 27.95704653565061 7.988165680473372, 31.181535888566785 8.78698224852071, 23.34653730739324 9.585798816568047, 24.18188245128326 10.384615384615385, 27.094804867513023 11.183431952662723, 23.13372664862358 11.982248520710058, 37.361232832059706 12.781065088757396, 45.86197488723564 13.579881656804734, 47.055395540606966 14.378698224852071, 42.004531058274324 15.177514792899409, 39.05673106946744 15.976331360946745, 38.03612718906972 16.775147928994084, 36.28040395013602 17.57396449704142, 36.84422205939047 18.37278106508876, 34.86714792072644 19.171597633136095, 34.078211210114446 19.970414201183434, 35.5923892308103 20.76923076923077, 30.760738739555414 21.56804733727811, 28.06635746440002 22.366863905325445, 22.974436835855887 23.16568047337278, 24.05703917457453 23.964497041420117, 25.797287788595487 24.763313609467456, 27.798808807947534 25.562130177514792, 26.303505231367186 26.36094674556213, 23.2739219249857 27.159763313609467, 30.37747361818007 27.958579881656807, 29.820038370700487 28.757396449704142, 39.36433000462473 29.55621301775148, 36.89891700823554 30.355029585798817, 38.871392108303375 31.153846153846157, 47.52359879941719 31.95266272189349, 44.5796315999848 32.751479289940825, 42.75104229678616 33.55029585798817, 50.0 34.349112426035504, 49.57282894945336 35.14792899408284, 43.76145837498098 35.94674556213018, 44.80295292455525 36.74556213017752, 37.57819640965591 37.54437869822485, 33.569857909168455 38.34319526627219, 31.087540794899027 39.142011834319526, 36.646399097637506 39.94082840236687, 46.56944423404501 40.7396449704142, 45.06048943395532 41.53846153846154, 42.94792722666958 42.337278106508876, 42.49656309352613 43.13609467455622, 39.89730580415951 43.93491124260355, 33.46639109721275 44.73372781065089, 31.66612675082853 45.532544378698226, 30.21618426502967 46.33136094674556, 24.885776200462075 47.1301775147929, 29.233993156482956 47.928994082840234, 30.53158402562401 48.72781065088758, 33.86799816696084 49.52662721893491, 40.34250843050897 50.32544378698225, 32.40213090183314 51.124260355029584, 28.71197761493241 51.92307692307693, 32.0839195903941 52.72189349112426, 29.897432888928638 53.5207100591716, 27.954855934724726 54.319526627218934, 31.06546354669258 55.11834319526627, 26.622153672538584 55.91715976331361, 31.685970335116192 56.71597633136094, 29.91276530264623 57.514792899408285, 32.239045209048165 58.31360946745562, 30.593413199170254 59.11242603550296, 33.179343075928735 59.91124260355029, 37.63204649723008 60.710059171597635, 39.655197773388046 61.50887573964497, 39.62254227627998 62.307692307692314, 37.422631261806984 63.10650887573964, 32.366519936948265 63.90532544378698, 40.22750918359844 64.70414201183432, 44.348351696218344 65.50295857988165, 41.77084224674613 66.30177514792899, 38.30573935196475 67.10059171597634, 37.85996949371865 67.89940828402366, 39.44701077198619 68.69822485207101, 40.01605674778494 69.49704142011834, 34.64249091206038 70.29585798816568, 31.924701434180864 71.09467455621302, 36.927784651815955 71.89349112426036, 27.723527242644465 72.6923076923077, 28.709119510849916 73.49112426035504, 26.14809502583228 74.28994082840237, 26.672152603777295 75.0887573964497, 26.288948125848112 75.88757396449704, 31.39035055979723 76.68639053254438, 31.12735227028504 77.48520710059172, 24.983159893417785 78.28402366863905, 26.207214759178754 79.0828402366864, 24.46342187009563 79.88165680473374, 22.07843192926024 80.68047337278107, 20.624914075751896 81.4792899408284, 15.686693975350668 82.27810650887574, 17.240796401184337 83.07692307692308, 10.877879452642379 83.87573964497041, 5.869037747526739 84.67455621301775, 1.8707267414589268 85.4733727810651, 0.0 86.27218934911244, 5.992355150788219 87.07100591715975, 6.583223948784306 87.8698224852071, 10.81352594211729 88.66863905325444, 13.458221284166042 89.46745562130178, 16.730023086571983 90.26627218934911, 14.335049021429352 91.06508875739645, 12.557893842499162 91.8639053254438, 13.098420764519926 92.66272189349112, 11.045674261969296 93.46153846153845, 6.3197690261338995 94.2603550295858, 3.8372742965304885 95.05917159763314, 8.419955986955213 95.85798816568047, 8.032091185961471 96.65680473372781, 11.810897109411043 97.45562130177515, 12.687500545893075 98.2544378698225, 11.808802408407393 99.05325443786982, 12.513947522041594 99.85207100591715, 13.994517354963973 100.6508875739645, 10.53691713246291 101.44970414201183, 16.789875721177353 102.24852071005917, 18.420306096485213 103.04733727810651, 21.903878869298943 103.84615384615385, 19.424580211740818 104.64497041420118, 19.87218460857481 105.44378698224853, 18.120004186728778 106.24260355029585, 15.58791444526611 107.0414201183432, 10.225300794406026 107.84023668639053, 12.434487558713874 108.63905325443787, 15.32208731004079 109.43786982248521, 17.502148997205104 110.23668639053254, 16.314500225059184 111.03550295857988, 16.833810320223776 111.83431952662723, 17.112779769331127 112.63313609467457, 17.41820818051325 113.43195266272188, 16.510667794896044 114.23076923076923, 12.554651893113014 115.02958579881657, 12.016218741292356 115.82840236686391, 10.322398438078109 116.62721893491124, 9.669742367851631 117.42603550295858, 11.58025821941695 118.22485207100593, 9.89421717700642 119.02366863905324, 17.14730442721437 119.82248520710058, 15.052221215534589 120.62130177514793, 11.269569428990389 121.42011834319527, 20.339728923465433 122.2189349112426, 18.7699879979227 123.01775147928994, 34.693853283567556 123.81656804733728, 31.021369343738627 124.61538461538463, 30.595330469921993 125.41420118343194, 27.57008017133198 126.21301775147928, 28.55742668595751 127.01183431952663, 23.29556404166234 127.81065088757396, 15.399706683345213 128.60946745562129, 11.225814067282451 129.40828402366864, 9.575236105291147 130.20710059171597, 13.743392904888097 131.0059171597633, 11.403013098362969 131.80473372781066, 10.326783378638396 132.60355029585799, 6.626387054473959 133.40236686390534, 8.959032537252167 134.20118343195267, 5.411521380295883" fill="none" stroke="#32ca5b" stroke-width="1.25"/>

</svg>