<?xml version="1.0" standalone="no"?>
<!DOCTYPE svg PUBLIC "-//W3C//DTD SVG 1.1//EN" "http://www.w3.org/Graphics/SVG/1.1/DTD/svg11.dtd">

<svg width="135" height="50" viewBox="0 0 135 50" preserveAspectRatio="none" 
  xmlns="http://www.w3.org/2000/svg"
  xmlns:xlink="http://www.w3.org/1999/xlink">


<polyline points="0.0, 14.480912138809106 0.7988165680473372, 16.39759084112887 1.5976331360946745, 19.271140389370142 2.396449704142012, 16.443876842602794 3.195266272189349, 21.568172472359397 3.994082840236686, 18.478145389393976 4.792899408284024, 18.010603338615148 5.591715976331361, 17.590644915932085 6.390532544378698, 18.67047811749144 7.189349112426036, 21.90385993365968 7.988165680473372, 25.980308522311756 8.78698224852071, 19.073534506755824 9.585798816568047, 14.848583950961045 10.384615384615385, 20.632860113227984 11.183431952662723, 12.005095164527582 11.982248520710058, 23.512283944778495 12.781065088757396, 33.32432449872962 13.579881656804734, 36.36098947592285 14.378698224852071, 32.988266095350056 15.177514792899409, 30.270929392566803 15.976331360946745, 24.875491450474893 16.775147928994084, 24.865081066135126 17.57396449704142, 25.698595546264464 18.37278106508876, 22.425306969538486 19.171597633136095, 22.243754368676587 19.970414201183434, 22.721711513127797 20.76923076923077, 26.366312283234084 21.56804733727811, 27.524793134422808 22.366863905325445, 26.206733582628335 23.16568047337278, 28.811680441535565 23.964497041420117, 31.35193498656108 24.763313609467456, 35.86069985926468 25.562130177514792, 38.16031985772759 26.36094674556213, 37.09830735065411 27.159763313609467, 46.99220324820625 27.958579881656807, 41.91913334369061 28.757396449704142, 46.63528406926624 29.55621301775148, 42.135509828763674 30.355029585798817, 42.88746022473585 31.153846153846157, 47.00853715255542 31.95266272189349, 45.06705687047045 32.751479289940825, 42.31682039374086 33.55029585798817, 48.896626121522836 34.349112426035504, 50.0 35.14792899408284, 45.728937940864945 35.94674556213018, 48.46718799426032 36.74556213017752, 41.06490109081507 37.54437869822485, 40.47535480817628 38.34319526627219, 36.64300050659823 39.142011834319526, 39.39374926890428 39.94082840236687, 45.65019752219736 40.7396449704142, 43.62872968639446 41.53846153846154, 42.420179511727454 42.337278106508876, 43.27312528110841 43.13609467455622, 40.47098890268012 43.93491124260355, 34.70366447584796 44.73372781065089, 32.492050961152025 45.532544378698226, 28.838249968937653 46.33136094674556, 27.897701923338445 47.1301775147929, 33.17048889485029 47.928994082840234, 31.680071216892642 48.72781065088758, 31.39056577097763 49.52662721893491, 37.32262419195863 50.32544378698225, 32.20223250614313 51.124260355029584, 30.19423185082961 51.92307692307693, 33.848769122015284 52.72189349112426, 30.681940218287913 53.5207100591716, 29.643117207718067 54.319526627218934, 30.824358569376532 55.11834319526627, 26.46208286579949 55.91715976331361, 31.63142090294777 56.71597633136094, 32.68779792997011 57.514792899408285, 36.77140960399305 58.31360946745562, 34.96754719521263 59.11242603550296, 36.727187366230176 59.91124260355029, 39.86576851450694 60.710059171597635, 40.90849704611588 61.50887573964497, 39.16293957729213 62.307692307692314, 38.95170005864824 63.10650887573964, 35.953329314830576 63.90532544378698, 41.280992123895516 64.70414201183432, 44.2296336854755 65.50295857988165, 43.62474157866016 66.30177514792899, 36.67680150276864 67.10059171597634, 37.734899134001935 67.89940828402366, 38.44852760317401 68.69822485207101, 36.26609182540173 69.49704142011834, 35.627248980519106 70.29585798816568, 39.43748762059523 71.09467455621302, 39.553252400419936 71.89349112426036, 34.45972974201062 72.6923076923077, 36.014252516953896 73.49112426035504, 37.2344658339949 74.28994082840237, 34.64402117540887 75.0887573964497, 36.36898556254566 75.88757396449704, 40.58701592146874 76.68639053254438, 39.721295284939515 77.48520710059172, 39.69400051268616 78.28402366863905, 49.95086886930807 79.0828402366864, 46.98367455227559 79.88165680473374, 44.404436905927064 80.68047337278107, 40.98751436617407 81.4792899408284, 39.842039328038695 82.27810650887574, 40.74812276142637 83.07692307692308, 38.414729698313636 83.87573964497041, 39.06246875811489 84.67455621301775, 37.29423899245806 85.4733727810651, 34.84694732700505 86.27218934911244, 32.65460018388035 87.07100591715975, 32.94849068993075 87.8698224852071, 32.959461441027074 88.66863905325444, 34.30871745912237 89.46745562130178, 35.04007672766306 90.26627218934911, 33.635165652796175 91.06508875739645, 31.249991426309364 91.8639053254438, 32.27290878888802 92.66272189349112, 30.976563139455187 93.46153846153845, 31.217807544604465 94.2603550295858, 31.6308264226841 95.05917159763314, 31.432321108124196 95.85798816568047, 31.006558726600204 96.65680473372781, 32.34003282076443 97.45562130177515, 30.39217091326247 98.2544378698225, 31.688672573219318 99.05325443786982, 31.831247514960452 99.85207100591715, 33.057317699004095 100.6508875739645, 32.66331342587184 101.44970414201183, 30.9611189915386 102.24852071005917, 32.328526932279985 103.04733727810651, 32.284264468979856 103.84615384615385, 31.58036126691195 104.64497041420118, 33.675879840619224 105.44378698224853, 31.36638632708333 106.24260355029585, 31.189978552443947 107.0414201183432, 31.643545952708287 107.84023668639053, 30.411034435795507 108.63905325443787, 32.397671259602305 109.43786982248521, 31.425237545287345 110.23668639053254, 30.68218622800689 111.03550295857988, 28.453952108225387 111.83431952662723, 27.45246379009425 112.63313609467457, 27.1208848559564 113.43195266272188, 26.625805372135346 114.23076923076923, 29.260748320245828 115.02958579881657, 29.105375091884316 115.82840236686391, 26.345487233204256 116.62721893491124, 30.75028444246551 117.42603550295858, 32.048971235432916 118.22485207100593, 30.295955445475762 119.02366863905324, 31.302193097139053 119.82248520710058, 31.657002868438088 120.62130177514793, 29.0637590197255 121.42011834319527, 32.02068395741561 122.2189349112426, 30.71810551282542 123.01775147928994, 41.12612890313602 123.81656804733728, 37.82624390759751 124.61538461538463, 39.548953466044395 125.41420118343194, 36.7857570147328 126.21301775147928, 36.63506219518185 127.01183431952663, 31.03442676958658 127.81065088757396, 24.06530318406092 128.60946745562129, 20.924709212987743 129.40828402366864, 23.310845733491828 130.20710059171597, 24.06041034259937 131.0059171597633, 7.025643141707552 131.80473372781066, 10.313176028415008 132.60355029585799, 4.1134067252552375 133.40236686390534, 0.0 134.20118343195267, 0.24585841929202118" fill="none" stroke="#32ca5b" stroke-width="1.25"/>

</svg>