<?xml version="1.0" standalone="no"?>
<!DOCTYPE svg PUBLIC "-//W3C//DTD SVG 1.1//EN" "http://www.w3.org/Graphics/SVG/1.1/DTD/svg11.dtd">

<svg width="135" height="50" viewBox="0 0 135 50" preserveAspectRatio="none" 
  xmlns="http://www.w3.org/2000/svg"
  xmlns:xlink="http://www.w3.org/1999/xlink">


<polyline points="0.0, 0.0 0.7988165680473372, 5.414861273011107 1.5976331360946745, 7.144280552735495 2.396449704142012, 6.63460327974853 3.195266272189349, 15.004650023008272 3.994082840236686, 10.769614502494273 4.792899408284024, 9.916024878066121 5.591715976331361, 10.86738892501153 6.390532544378698, 10.19226903039437 7.189349112426036, 13.332192803024116 7.988165680473372, 16.497675302756257 8.78698224852071, 12.822953732725376 9.585798816568047, 10.28376463363605 10.384615384615385, 14.882335906961519 11.183431952662723, 9.770913715242248 11.982248520710058, 18.226957040204162 12.781065088757396, 23.671174569597824 13.579881656804734, 26.000770899309494 14.378698224852071, 24.854642570934814 15.177514792899409, 23.438737980334142 15.976331360946745, 19.954041506826083 16.775147928994084, 19.462107388421774 17.57396449704142, 18.64342172085303 18.37278106508876, 17.072672173762967 19.171597633136095, 16.402620547917238 19.970414201183434, 19.35700643297271 20.76923076923077, 20.602882168363596 21.56804733727811, 21.29510890454449 22.366863905325445, 20.09124114593211 23.16568047337278, 21.77344093670933 23.964497041420117, 24.29495781028292 24.763313609467456, 26.669154088025092 25.562130177514792, 28.236567739150164 26.36094674556213, 26.619657636645755 27.159763313609467, 32.57726470219173 27.958579881656807, 30.548383739455932 28.757396449704142, 32.94605630055504 29.55621301775148, 29.580836689917117 30.355029585798817, 32.589097912103824 31.153846153846157, 35.40617720851053 31.95266272189349, 35.71871261956209 32.751479289940825, 32.22761788951879 33.55029585798817, 34.85217216057894 34.349112426035504, 36.41602131605977 35.14792899408284, 33.76950807710783 35.94674556213018, 34.49356921911787 36.74556213017752, 30.52624869711605 37.54437869822485, 29.585390607645856 38.34319526627219, 27.571607398439525 39.142011834319526, 30.14429105044133 39.94082840236687, 34.94763860805666 40.7396449704142, 33.53868513811925 41.53846153846154, 31.61573197926362 42.337278106508876, 32.18463678223101 43.13609467455622, 30.629650945022156 43.93491124260355, 26.531574256799743 44.73372781065089, 27.432388770061372 45.532544378698226, 26.741470242501407 46.33136094674556, 27.139396810685955 47.1301775147929, 29.448252978588833 47.928994082840234, 30.510517868878345 48.72781065088758, 31.466625650932574 49.52662721893491, 34.850516737827256 50.32544378698225, 33.27762165932798 51.124260355029584, 31.896379051398572 51.92307692307693, 33.921316081045184 52.72189349112426, 31.584853686944896 53.5207100591716, 31.081354400601274 54.319526627218934, 33.40482690237512 55.11834319526627, 30.198232253112504 55.91715976331361, 34.784983679006366 56.71597633136094, 34.16097100081399 57.514792899408285, 36.12558036583049 58.31360946745562, 33.707921296570234 59.11242603550296, 35.75256506760312 59.91124260355029, 40.5067078326873 60.710059171597635, 41.20361148144437 61.50887573964497, 39.62699897831428 62.307692307692314, 40.68746947095755 63.10650887573964, 38.97841962762176 63.90532544378698, 42.580382218432824 64.70414201183432, 43.41315943740636 65.50295857988165, 41.80303330001547 66.30177514792899, 39.836978519129886 67.10059171597634, 39.330195533649544 67.89940828402366, 41.01819873438156 68.69822485207101, 39.29210372691311 69.49704142011834, 38.269971971965596 70.29585798816568, 43.664513949647095 71.09467455621302, 45.65924361367462 71.89349112426036, 43.230822769874095 72.6923076923077, 42.73508399248988 73.49112426035504, 41.72034960909415 74.28994082840237, 40.58336159657425 75.0887573964497, 41.64877262484817 75.88757396449704, 44.40612043306108 76.68639053254438, 43.99462879449852 77.48520710059172, 44.326320089452764 78.28402366863905, 50.0 79.0828402366864, 46.54318813606692 79.88165680473374, 44.592072080251604 80.68047337278107, 43.06834250465951 81.4792899408284, 41.76973968620742 82.27810650887574, 43.921019152719936 83.07692307692308, 43.152307343742194 83.87573964497041, 45.06296306139525 84.67455621301775, 43.120231231415815 85.4733727810651, 43.50422802548489 86.27218934911244, 42.51809198076519 87.07100591715975, 43.46765911964131 87.8698224852071, 42.66176601159883 88.66863905325444, 44.72117366491206 89.46745562130178, 42.617929031777905 90.26627218934911, 40.298854185763425 91.06508875739645, 39.13778167354221 91.8639053254438, 39.22291716401234 92.66272189349112, 39.056677175125046 93.46153846153845, 39.41986202473607 94.2603550295858, 39.181200560437105 95.05917159763314, 39.873251458350694 95.85798816568047, 40.91247081892137 96.65680473372781, 42.1741531765677 97.45562130177515, 39.74950832098501 98.2544378698225, 40.899691067232766 99.05325443786982, 41.185904615133865 99.85207100591715, 41.7212425629544 100.6508875739645, 41.181732715890575 101.44970414201183, 40.598123020699134 102.24852071005917, 41.07456285916153 103.04733727810651, 43.33892950147379 103.84615384615385, 42.79279279868983 104.64497041420118, 42.67310404318875 105.44378698224853, 41.868629956172335 106.24260355029585, 42.26020148444928 107.0414201183432, 43.96574028117264 107.84023668639053, 41.18666428886921 108.63905325443787, 43.35223704262774 109.43786982248521, 43.649628358698905 110.23668639053254, 42.307065592322665 111.03550295857988, 42.172862693768394 111.83431952662723, 41.326806699374075 112.63313609467457, 40.780230240307795 113.43195266272188, 42.01415501274893 114.23076923076923, 41.524633687286446 115.02958579881657, 41.995793646733304 115.82840236686391, 40.63683850985143 116.62721893491124, 42.34934145954438 117.42603550295858, 44.9158256332539 118.22485207100593, 43.278754143232085 119.02366863905324, 43.41187098237225 119.82248520710058, 42.04223392336633 120.62130177514793, 40.11755312975428 121.42011834319527, 41.93750306499233 122.2189349112426, 43.002146931425436 123.01775147928994, 48.55070805082538 123.81656804733728, 46.05995344989221 124.61538461538463, 46.09307213889622 125.41420118343194, 46.1142619944734 126.21301775147928, 46.29233672045753 127.01183431952663, 42.30888922182529 127.81065088757396, 35.72208305166475 128.60946745562129, 33.261130414068305 129.40828402366864, 34.18916841303613 130.20710059171597, 36.45833638297361 131.0059171597633, 32.721586750273616 131.80473372781066, 33.37407031472369 132.60355029585799, 32.50804225258309 133.40236686390534, 32.052774235422234 134.20118343195267, 32.368714498842884" fill="none" stroke="#ff3a33" stroke-width="1.25"/>

</svg>