<?xml version="1.0" standalone="no"?>
<!DOCTYPE svg PUBLIC "-//W3C//DTD SVG 1.1//EN" "http://www.w3.org/Graphics/SVG/1.1/DTD/svg11.dtd">

<svg width="135" height="50" viewBox="0 0 135 50" preserveAspectRatio="none" 
  xmlns="http://www.w3.org/2000/svg"
  xmlns:xlink="http://www.w3.org/1999/xlink">


<polyline points="0.0, 12.611376087286825 0.7988165680473372, 14.963576668671577 1.5976331360946745, 16.9427480053476 2.396449704142012, 31.644628431633276 3.195266272189349, 33.01910949677252 3.994082840236686, 31.754569955391993 4.792899408284024, 29.44720738473926 5.591715976331361, 31.564142321470946 6.390532544378698, 32.64268288682581 7.189349112426036, 18.463570839570995 7.988165680473372, 35.03890757908611 8.78698224852071, 26.26283520181303 9.585798816568047, 10.732482806631442 10.384615384615385, 23.216068083745885 11.183431952662723, 8.439144829863235 11.982248520710058, 29.339689001261753 12.781065088757396, 36.86374434002511 13.579881656804734, 40.58456331010446 14.378698224852071, 37.50442581520146 15.177514792899409, 21.956055484571728 15.976331360946745, 39.38461514991155 16.775147928994084, 40.08532734126564 17.57396449704142, 16.29460949306972 18.37278106508876, 30.787424819590292 19.171597633136095, 31.162205710221812 19.970414201183434, 31.0768335148706 20.76923076923077, 30.3556518343285 21.56804733727811, 27.240713321935527 22.366863905325445, 26.691105982652864 23.16568047337278, 10.948210653764495 23.964497041420117, 13.48057330925618 24.763313609467456, 25.42411961123544 25.562130177514792, 31.6408119571207 26.36094674556213, 32.2242713000362 27.159763313609467, 35.87756527285743 27.958579881656807, 39.75382909164307 28.757396449704142, 39.90599167858797 29.55621301775148, 41.08078493959735 30.355029585798817, 41.686033332670064 31.153846153846157, 29.995490976070766 31.95266272189349, 47.89349996695103 32.751479289940825, 46.23878521054301 33.55029585798817, 49.626028136845704 34.349112426035504, 34.884147421559724 35.14792899408284, 29.077626942925995 35.94674556213018, 50.0 36.74556213017752, 23.851842645324247 37.54437869822485, 42.61168915478169 38.34319526627219, 38.127985948224264 39.142011834319526, 38.73064768730012 39.94082840236687, 41.862442572684266 40.7396449704142, 43.720112170115435 41.53846153846154, 32.65599622734616 42.337278106508876, 37.46436978926194 43.13609467455622, 12.627491716548509 43.93491124260355, 36.80003587998479 44.73372781065089, 33.406180173232094 45.532544378698226, 14.217006226773673 46.33136094674556, 33.15477303702482 47.1301775147929, 14.445483170069082 47.928994082840234, 32.248592570817195 48.72781065088758, 15.470903644523414 49.52662721893491, 40.559590887845836 50.32544378698225, 37.97981980536716 51.124260355029584, 36.64655500418246 51.92307692307693, 37.188972054523745 52.72189349112426, 37.35214043827772 53.5207100591716, 37.244329329040035 54.319526627218934, 36.41359765604716 55.11834319526627, 35.36430410501529 55.91715976331361, 35.20009419196959 56.71597633136094, 34.73920916484628 57.514792899408285, 34.68852379852183 58.31360946745562, 6.9880642821653405 59.11242603550296, 25.406447993646346 59.91124260355029, 7.858394555710207 60.710059171597635, 27.42671348209848 61.50887573964497, 0.6732096922946884 62.307692307692314, 24.25414783482459 63.10650887573964, 24.150357883007832 63.90532544378698, 8.28596790016697 64.70414201183432, 5.733771135579119 65.50295857988165, 6.809047983795565 66.30177514792899, 27.413788825892933 67.10059171597634, 26.361612470267875 67.89940828402366, 25.13288983718177 68.69822485207101, 3.6898670767632105 69.49704142011834, 23.357418013248484 70.29585798816568, 26.117590242498984 71.09467455621302, 16.58452641039033 71.89349112426036, 27.378227340075068 72.6923076923077, 26.97531543414281 73.49112426035504, 26.236302635963156 74.28994082840237, 2.011119840672822 75.0887573964497, 26.51851199611677 75.88757396449704, 26.86737768965023 76.68639053254438, 23.84165583990001 77.48520710059172, 0.0 78.28402366863905, 10.2914851620992 79.0828402366864, 7.2396268304444735 79.88165680473374, 29.811055758252042 80.68047337278107, 6.67166083271303 81.4792899408284, 4.279099694481178 82.27810650887574, 4.0650275171208365 83.07692307692308, 6.63503230690459 83.87573964497041, 29.75759588578399 84.67455621301775, 30.440696592031458 85.4733727810651, 30.397325759890897 86.27218934911244, 30.77370296545604 87.07100591715975, 32.259045109106744 87.8698224852071, 30.391306327929573 88.66863905325444, 10.471234845426784 89.46745562130178, 30.269417462306443 90.26627218934911, 10.190742651808522 91.06508875739645, 8.231082053965066 91.8639053254438, 7.540375182106144 92.66272189349112, 7.553631457926814 93.46153846153845, 8.337560839846129 94.2603550295858, 27.918118281355547 95.05917159763314, 6.570994283098648 95.85798816568047, 25.524338128060954 96.65680473372781, 25.702631647430106 97.45562130177515, 11.095753536692568 98.2544378698225, 11.134462201129624 99.05325443786982, 12.474019135655508 99.85207100591715, 12.495160229305725 100.6508875739645, 29.235902674880087 101.44970414201183, 13.011849782877787 102.24852071005917, 29.179621067554883 103.04733727810651, 15.392772126595894 103.84615384615385, 14.946859186700534 104.64497041420118, 15.177312916073788 105.44378698224853, 13.543331651409469 106.24260355029585, 29.130011121110904 107.0414201183432, 29.05900074576563 107.84023668639053, 29.248522542605837 108.63905325443787, 15.43209496795614 109.43786982248521, 15.903896984494123 110.23668639053254, 29.262109824061422 111.03550295857988, 16.023846745397414 111.83431952662723, 29.544283859732307 112.63313609467457, 28.37190071733963 113.43195266272188, 28.728047324065287 114.23076923076923, 13.046151045451722 115.02958579881657, 28.75154004939631 115.82840236686391, 16.566220230405705 116.62721893491124, 18.10270700702962 117.42603550295858, 32.06141789469486 118.22485207100593, 31.812875364256506 119.02366863905324, 18.83543414372582 119.82248520710058, 32.36238833694181 120.62130177514793, 33.0527229794647 121.42011834319527, 36.62452161784928 122.2189349112426, 36.92412071658745 123.01775147928994, 29.473090596086376 123.81656804733728, 40.29377462627783 124.61538461538463, 25.315345115926263 125.41420118343194, 40.66299258390782 126.21301775147928, 41.60060484012697 127.01183431952663, 23.1783233279318 127.81065088757396, 19.313294798531206 128.60946745562129, 16.894979144263203 129.40828402366864, 15.852180742922311 130.20710059171597, 15.785547134865533 131.0059171597633, 28.654226601408904 131.80473372781066, 14.303540773340787 132.60355029585799, 26.864134724794937 133.40236686390534, 10.879600965683121 134.20118343195267, 13.205618036453071" fill="none" stroke="#ff3a33" stroke-width="1.25"/>

</svg>