<?xml version="1.0" standalone="no"?>
<!DOCTYPE svg PUBLIC "-//W3C//DTD SVG 1.1//EN" "http://www.w3.org/Graphics/SVG/1.1/DTD/svg11.dtd">

<svg width="135" height="50" viewBox="0 0 135 50" preserveAspectRatio="none" 
  xmlns="http://www.w3.org/2000/svg"
  xmlns:xlink="http://www.w3.org/1999/xlink">


<polyline points="0.0, 23.52099053838559 0.7988165680473372, 26.186035223473052 1.5976331360946745, 26.599231261619423 2.396449704142012, 23.06674993035214 3.195266272189349, 26.20642141229592 3.994082840236686, 21.945688311100717 4.792899408284024, 19.3507897353533 5.591715976331361, 16.023904677271737 6.390532544378698, 15.452103603184142 7.189349112426036, 15.68638693557644 7.988165680473372, 14.95980704980499 8.78698224852071, 6.455543611943075 9.585798816568047, 0.7575921233064115 10.384615384615385, 0.00887775360708446 11.183431952662723, 3.3337284019603572 11.982248520710058, 6.873640555965703 12.781065088757396, 10.619942857845865 13.579881656804734, 10.374336246744203 14.378698224852071, 11.375695006480088 15.177514792899409, 13.675451353096799 15.976331360946745, 7.250799629069638 16.775147928994084, 6.0245647849199555 17.57396449704142, 5.927291973897407 18.37278106508876, 1.2077424788383375 19.171597633136095, 0.0 19.970414201183434, 9.224602581181934 20.76923076923077, 12.125959467494468 21.56804733727811, 11.029962631956046 22.366863905325445, 12.463943935239083 23.16568047337278, 15.872503185802236 23.964497041420117, 16.948842097927887 24.763313609467456, 20.055005785397466 25.562130177514792, 20.846672213405363 26.36094674556213, 16.530094423706316 27.159763313609467, 23.962405119726693 27.958579881656807, 19.724097290498275 28.757396449704142, 24.109710082098637 29.55621301775148, 18.613619611188646 30.355029585798817, 21.599280916434083 31.153846153846157, 25.328307629462515 31.95266272189349, 25.15215726789166 32.751479289940825, 25.200089930729213 33.55029585798817, 29.78128828828251 34.349112426035504, 30.75434309868908 35.14792899408284, 30.650640862488498 35.94674556213018, 28.501284503593872 36.74556213017752, 18.776088697455194 37.54437869822485, 20.030544861213002 38.34319526627219, 16.87599178060386 39.142011834319526, 10.667034430774889 39.94082840236687, 11.718171139667184 40.7396449704142, 13.320671924712135 41.53846153846154, 10.181552683228475 42.337278106508876, 12.867753387899624 43.13609467455622, 13.701307380855358 43.93491124260355, 7.39481929417918 44.73372781065089, 4.7506795630130005 45.532544378698226, 3.194973631003881 46.33136094674556, 9.209550155283196 47.1301775147929, 14.25256526796869 47.928994082840234, 12.862281263452443 48.72781065088758, 15.73152797787492 49.52662721893491, 19.34997140042237 50.32544378698225, 18.32538254636467 51.124260355029584, 15.861365270085567 51.92307692307693, 20.16184264045525 52.72189349112426, 18.07913032278281 53.5207100591716, 17.83981394566013 54.319526627218934, 19.79071180225501 55.11834319526627, 19.834957485132485 55.91715976331361, 23.59067462237036 56.71597633136094, 24.220070583386065 57.514792899408285, 26.13340472357608 58.31360946745562, 23.284373214203484 59.11242603550296, 26.105286802863585 59.91124260355029, 29.48430807213874 60.710059171597635, 29.97500758034019 61.50887573964497, 29.670639926369617 62.307692307692314, 30.55511489834307 63.10650887573964, 28.804036825017448 63.90532544378698, 31.70397369661843 64.70414201183432, 34.52621887903724 65.50295857988165, 33.7690932735559 66.30177514792899, 34.08961670953889 67.10059171597634, 33.78599335811095 67.89940828402366, 35.6696272552208 68.69822485207101, 34.54779038446634 69.49704142011834, 34.05871039619514 70.29585798816568, 35.52856103399982 71.09467455621302, 35.84774543622646 71.89349112426036, 35.43347691122548 72.6923076923077, 39.27275307497627 73.49112426035504, 39.75869382908843 74.28994082840237, 38.92651428014563 75.0887573964497, 40.880690506659995 75.88757396449704, 44.35929649403843 76.68639053254438, 43.24597074372991 77.48520710059172, 43.00923450148518 78.28402366863905, 50.0 79.0828402366864, 48.355768807586266 79.88165680473374, 47.542201089951085 80.68047337278107, 44.4958162240219 81.4792899408284, 42.10278629909608 82.27810650887574, 41.46992440598975 83.07692307692308, 39.588718093836334 83.87573964497041, 40.908628338800476 84.67455621301775, 41.55023905930647 85.4733727810651, 40.63299987047075 86.27218934911244, 38.76980543573103 87.07100591715975, 38.56819897601786 87.8698224852071, 36.519101861317985 88.66863905325444, 36.85694865236026 89.46745562130178, 33.34507520480841 90.26627218934911, 33.18570737522541 91.06508875739645, 35.68173181305564 91.8639053254438, 40.46992067670439 92.66272189349112, 40.22757504991846 93.46153846153845, 38.18829186916665 94.2603550295858, 39.17998100579711 95.05917159763314, 40.49848929945194 95.85798816568047, 40.9672698114656 96.65680473372781, 42.999752654697396 97.45562130177515, 39.92621950603059 98.2544378698225, 41.91074762945557 99.05325443786982, 43.34405636723248 99.85207100591715, 44.910524843262834 100.6508875739645, 43.59765448030152 101.44970414201183, 42.03423929362439 102.24852071005917, 40.395657081437676 103.04733727810651, 41.228583470663125 103.84615384615385, 39.63106383189279 104.64497041420118, 39.47677489366946 105.44378698224853, 40.80547999550362 106.24260355029585, 38.81631438903976 107.0414201183432, 40.00439194410521 107.84023668639053, 34.212604858355434 108.63905325443787, 36.81496360735994 109.43786982248521, 36.32617523166524 110.23668639053254, 33.21146115515953 111.03550295857988, 34.02680734203067 111.83431952662723, 33.771592820089296 112.63313609467457, 32.02884951670985 113.43195266272188, 30.33928027533998 114.23076923076923, 29.964776916601117 115.02958579881657, 30.045791761669406 115.82840236686391, 26.262810947983546 116.62721893491124, 24.64012695831049 117.42603550295858, 21.248663150090604 118.22485207100593, 17.466352205853806 119.02366863905324, 23.728680996002797 119.82248520710058, 23.77135878594133 120.62130177514793, 23.266533425292675 121.42011834319527, 28.54101613065711 122.2189349112426, 27.25993641817653 123.01775147928994, 32.490113536538715 123.81656804733728, 31.494112914844997 124.61538461538463, 33.44373736607319 125.41420118343194, 34.30283765549646 126.21301775147928, 35.71725739458198 127.01183431952663, 30.314973725643107 127.81065088757396, 26.299366599248543 128.60946745562129, 22.37107933675532 129.40828402366864, 23.850904196309212 130.20710059171597, 24.440270568532853 131.0059171597633, 21.621732993046034 131.80473372781066, 20.624251551843077 132.60355029585799, 18.748333995800408 133.40236686390534, 21.20596325711003 134.20118343195267, 17.918685182978273" fill="none" stroke="#32ca5b" stroke-width="1.25"/>

</svg>