<?xml version="1.0" standalone="no"?>
<!DOCTYPE svg PUBLIC "-//W3C//DTD SVG 1.1//EN" "http://www.w3.org/Graphics/SVG/1.1/DTD/svg11.dtd">

<svg width="135" height="50" viewBox="0 0 135 50" preserveAspectRatio="none" 
  xmlns="http://www.w3.org/2000/svg"
  xmlns:xlink="http://www.w3.org/1999/xlink">


<polyline points="0.0, 12.870606867843964 0.7988165680473372, 15.834575713950686 1.5976331360946745, 17.609487217040748 2.396449704142012, 14.32176386570784 3.195266272189349, 11.068967364207356 3.994082840236686, 5.651025373707 4.792899408284024, 3.1099742244737194 5.591715976331361, 3.461899937613567 6.390532544378698, 5.820568927728311 7.189349112426036, 8.520764602060423 7.988165680473372, 12.856332019190441 8.78698224852071, 5.536606608531412 9.585798816568047, 4.424975200140511 10.384615384615385, 6.041040396366132 11.183431952662723, 0.0 11.982248520710058, 13.701124363843627 12.781065088757396, 27.169405785539126 13.579881656804734, 32.875674965078346 14.378698224852071, 30.75035138489584 15.177514792899409, 29.651069598364888 15.976331360946745, 24.104641756407823 16.775147928994084, 20.00374068414645 17.57396449704142, 20.417858498570133 18.37278106508876, 14.111068360903664 19.171597633136095, 16.96131129531333 19.970414201183434, 19.077397642293338 20.76923076923077, 20.955522228362437 21.56804733727811, 23.26880173496144 22.366863905325445, 21.922297861993393 23.16568047337278, 24.840452059535114 23.964497041420117, 26.45564122392134 24.763313609467456, 28.966856439084626 25.562130177514792, 32.17167652405028 26.36094674556213, 31.14320342196313 27.159763313609467, 41.14121984366391 27.958579881656807, 38.54690224856908 28.757396449704142, 42.45782602011737 29.55621301775148, 38.96650407348747 30.355029585798817, 40.113001426540826 31.153846153846157, 45.74327246445943 31.95266272189349, 42.64400505007343 32.751479289940825, 39.69262727252718 33.55029585798817, 45.847262845641744 34.349112426035504, 50.0 35.14792899408284, 46.60880444346296 35.94674556213018, 45.28306197396701 36.74556213017752, 37.98547059507263 37.54437869822485, 36.774600825105885 38.34319526627219, 33.86202189468799 39.142011834319526, 32.86041025383387 39.94082840236687, 38.544069680664755 40.7396449704142, 38.73754480226717 41.53846153846154, 34.439619569946316 42.337278106508876, 36.425280022747266 43.13609467455622, 33.02721809646214 43.93491124260355, 26.107484595393554 44.73372781065089, 26.163713049603377 45.532544378698226, 19.728274462066835 46.33136094674556, 19.11053890677979 47.1301775147929, 23.529959192266674 47.928994082840234, 23.667382713121754 48.72781065088758, 24.299288649433123 49.52662721893491, 29.165335875559634 50.32544378698225, 24.60301645863006 51.124260355029584, 24.97825244352343 51.92307692307693, 29.04634029599402 52.72189349112426, 28.2258355546783 53.5207100591716, 23.174479063733592 54.319526627218934, 26.41669046764445 55.11834319526627, 20.878093956558725 55.91715976331361, 26.516053863034887 56.71597633136094, 26.99829186862036 57.514792899408285, 29.21292386974839 58.31360946745562, 26.930572718563827 59.11242603550296, 30.009777227787467 59.91124260355029, 32.10855466730484 60.710059171597635, 33.56808979524886 61.50887573964497, 32.76084501253318 62.307692307692314, 30.847015284256795 63.10650887573964, 27.56715536925946 63.90532544378698, 32.16949242540152 64.70414201183432, 35.01532102209164 65.50295857988165, 34.88261742770933 66.30177514792899, 33.55423416514015 67.10059171597634, 31.166083074435054 67.89940828402366, 34.647002060537666 68.69822485207101, 31.804487671591687 69.49704142011834, 25.561119774124347 70.29585798816568, 32.53751709482467 71.09467455621302, 32.42805148515611 71.89349112426036, 31.076566037464374 72.6923076923077, 31.696720780851294 73.49112426035504, 28.454398517017935 74.28994082840237, 27.186970756538148 75.0887573964497, 29.17768618139402 75.88757396449704, 33.14795730546731 76.68639053254438, 32.433003212452704 77.48520710059172, 29.352640101522994 78.28402366863905, 36.72549979374318 79.0828402366864, 32.07063951609034 79.88165680473374, 30.413301946396036 80.68047337278107, 25.256394246305458 81.4792899408284, 23.860999452743975 82.27810650887574, 26.20099491188349 83.07692307692308, 23.83545817530516 83.87573964497041, 24.360643610849507 84.67455621301775, 22.630419530444662 85.4733727810651, 21.021962464058333 86.27218934911244, 20.084801692393516 87.07100591715975, 23.067397143973828 87.8698224852071, 21.606770371206363 88.66863905325444, 24.45694966360176 89.46745562130178, 25.72396292166042 90.26627218934911, 23.104908993497617 91.06508875739645, 19.18254056758328 91.8639053254438, 23.509293121361182 92.66272189349112, 21.410467760641865 93.46153846153845, 21.62158783996329 94.2603550295858, 22.18429435836272 95.05917159763314, 23.41527434291235 95.85798816568047, 23.65106414144605 96.65680473372781, 25.06281064307213 97.45562130177515, 23.023979848556504 98.2544378698225, 25.048939825263183 99.05325443786982, 25.380530399615044 99.85207100591715, 26.04139717034221 100.6508875739645, 26.72811292644961 101.44970414201183, 24.777321445924418 102.24852071005917, 26.523339425196436 103.04733727810651, 27.674466851287544 103.84615384615385, 26.395725757756196 104.64497041420118, 26.888782951529095 105.44378698224853, 23.377066166632005 106.24260355029585, 22.98435801925861 107.0414201183432, 24.54024989682679 107.84023668639053, 22.462603521814117 108.63905325443787, 27.651125344831257 109.43786982248521, 27.861870358934897 110.23668639053254, 27.079134246467696 111.03550295857988, 26.912311040803978 111.83431952662723, 25.41263291018393 112.63313609467457, 25.88221810119751 113.43195266272188, 25.43199491619786 114.23076923076923, 24.462252878479827 115.02958579881657, 23.679762052946746 115.82840236686391, 25.083762535148583 116.62721893491124, 28.07098482709017 117.42603550295858, 28.634512354067432 118.22485207100593, 27.859167190238978 119.02366863905324, 26.84356177703919 119.82248520710058, 26.151248615303142 120.62130177514793, 24.997618841726023 121.42011834319527, 28.898996935664883 122.2189349112426, 27.83587340204213 123.01775147928994, 34.99789271868187 123.81656804733728, 33.07656704084803 124.61538461538463, 34.490200811230785 125.41420118343194, 32.577907847300914 126.21301775147928, 31.302921000824963 127.01183431952663, 28.148280640914436 127.81065088757396, 23.304494948550477 128.60946745562129, 20.788583266048782 129.40828402366864, 19.15372292589432 130.20710059171597, 20.189353962067315 131.0059171597633, 19.75292309675652 131.80473372781066, 16.617445196837632 132.60355029585799, 16.266732798833196 133.40236686390534, 15.937268418740711 134.20118343195267, 14.716715916775112" fill="none" stroke="#ff3a33" stroke-width="1.25"/>

</svg>