<?xml version="1.0" standalone="no"?>
<!DOCTYPE svg PUBLIC "-//W3C//DTD SVG 1.1//EN" "http://www.w3.org/Graphics/SVG/1.1/DTD/svg11.dtd">

<svg width="135" height="50" viewBox="0 0 135 50" preserveAspectRatio="none" 
  xmlns="http://www.w3.org/2000/svg"
  xmlns:xlink="http://www.w3.org/1999/xlink">


<polyline points="0.0, 23.72262512079107 0.7988165680473372, 16.593143045091217 1.5976331360946745, 31.983305364057195 2.396449704142012, 13.637559757449619 3.195266272189349, 32.720298535576404 3.994082840236686, 19.62030235266372 4.792899408284024, 24.54647097478233 5.591715976331361, 18.327950214267847 6.390532544378698, 14.840531076084224 7.189349112426036, 27.866235653370452 7.988165680473372, 20.00672778103565 8.78698224852071, 27.788823677246377 9.585798816568047, 22.586941886016334 10.384615384615385, 26.206871265619426 11.183431952662723, 20.581174100075316 11.982248520710058, 13.777721651387564 12.781065088757396, 29.643767739241017 13.579881656804734, 16.210670015896227 14.378698224852071, 22.40855402886675 15.177514792899409, 14.884178283061104 15.976331360946745, 25.856035305219354 16.775147928994084, 14.7275153417471 17.57396449704142, 30.921587213359864 18.37278106508876, 0.0 19.171597633136095, 28.61026669412251 19.970414201183434, 11.296686548715394 20.76923076923077, 19.774591119560363 21.56804733727811, 12.370586597794015 22.366863905325445, 14.442843991776815 23.16568047337278, 27.664826363432354 23.964497041420117, 17.743986397522733 24.763313609467456, 28.102648247900092 25.562130177514792, 31.098782628733336 26.36094674556213, 22.865690158596124 27.159763313609467, 20.695064375596726 27.958579881656807, 24.77845234236973 28.757396449704142, 18.44887825743069 29.55621301775148, 13.580401507027783 30.355029585798817, 10.049775164935195 31.153846153846157, 50.0 31.95266272189349, 45.872771038174655 32.751479289940825, 27.331295539610768 33.55029585798817, 16.77699043213658 34.349112426035504, 10.168028060856654 35.14792899408284, 29.734984173493263 35.94674556213018, 17.01601401460231 36.74556213017752, 18.453798305410153 37.54437869822485, 20.81089990365239 38.34319526627219, 23.309845163578338 39.142011834319526, 21.65741858942295 39.94082840236687, 30.443532533254164 40.7396449704142, 21.317545122357085 41.53846153846154, 14.306541554867962 42.337278106508876, 27.2852290950988 43.13609467455622, 32.98257052080415 43.93491124260355, 29.59414016029795 44.73372781065089, 30.02092044028222 45.532544378698226, 31.82851357508633 46.33136094674556, 41.65434576742443 47.1301775147929, 25.62110219113499 47.928994082840234, 18.209945148142108 48.72781065088758, 18.212232238860572 49.52662721893491, 16.371218478306865 50.32544378698225, 30.895819194620195 51.124260355029584, 26.482068003012493 51.92307692307693, 35.8706143659089 52.72189349112426, 19.318240286608933 53.5207100591716, 33.63654183276711 54.319526627218934, 25.106290569685363 55.11834319526627, 20.959042477160008 55.91715976331361, 28.501138406819077 56.71597633136094, 19.013128629631545 57.514792899408285, 18.91024018539418 58.31360946745562, 32.03597745039367 59.11242603550296, 16.938197897668026 59.91124260355029, 21.82153452425902 60.710059171597635, 17.396501876476297 61.50887573964497, 21.766371447282665 62.307692307692314, 17.357408861266755 63.10650887573964, 35.78503171277857 63.90532544378698, 46.99893004845853 64.70414201183432, 22.632538171763212 65.50295857988165, 24.993199516864113 66.30177514792899, 23.198098295079255 67.10059171597634, 19.407922442439205 67.89940828402366, 25.526468817364155 68.69822485207101, 22.82855078578616 69.49704142011834, 24.058979789953142 70.29585798816568, 23.017930220523404 71.09467455621302, 30.085536589868234 71.89349112426036, 11.808445264336935 72.6923076923077, 21.737030784266747 73.49112426035504, 24.6256728029988 74.28994082840237, 18.340862210727586 75.0887573964497, 23.730481832094107 75.88757396449704, 15.043827854812186 76.68639053254438, 20.184532072512333 77.48520710059172, 14.316582283270277 78.28402366863905, 16.988276266791193 79.0828402366864, 18.39158102420616 79.88165680473374, 25.488042953112565 80.68047337278107, 30.361501646862894 81.4792899408284, 22.627401405898574 82.27810650887574, 23.83170776317339 83.07692307692308, 11.400600577104786 83.87573964497041, 13.16621093459782 84.67455621301775, 24.79734600966261 85.4733727810651, 22.503000361109375 86.27218934911244, 22.001386316824565 87.07100591715975, 27.603236709840285 87.8698224852071, 26.9286919960601 88.66863905325444, 20.85979581541632 89.46745562130178, 20.393535707453275 90.26627218934911, 21.997489039117852 91.06508875739645, 21.077222457627474 91.8639053254438, 22.425192983758397 92.66272189349112, 22.129604580949337 93.46153846153845, 27.939063112945938 94.2603550295858, 24.977092211831867 95.05917159763314, 21.156960139995142 95.85798816568047, 32.65140636623718 96.65680473372781, 32.62706449229192 97.45562130177515, 23.005991601675248 98.2544378698225, 29.223408550374675 99.05325443786982, 17.19506541557342 99.85207100591715, 22.025599084947473 100.6508875739645, 23.544115945540998 101.44970414201183, 14.942606090927802 102.24852071005917, 19.001743307839725 103.04733727810651, 21.728337483594053 103.84615384615385, 12.057421836224538 104.64497041420118, 21.938983046698013 105.44378698224853, 12.021465721652957 106.24260355029585, 22.45866776610026 107.0414201183432, 21.71798836598015 107.84023668639053, 15.03261373969156 108.63905325443787, 23.72032965198782 109.43786982248521, 22.760719958308325 110.23668639053254, 15.908388695018742 111.03550295857988, 14.276765107932176 111.83431952662723, 22.3345226259694 112.63313609467457, 20.205532346075376 113.43195266272188, 18.279500501497797 114.23076923076923, 14.808210286402247 115.02958579881657, 15.760952093599908 115.82840236686391, 26.4226943663381 116.62721893491124, 13.580598962627679 117.42603550295858, 9.980869226285183 118.22485207100593, 22.415772090961962 119.02366863905324, 15.98811542489709 119.82248520710058, 37.98604723051395 120.62130177514793, 19.710541850304224 121.42011834319527, 31.13976678731527 122.2189349112426, 26.030612350728216 123.01775147928994, 16.38710179492904 123.81656804733728, 20.02460285887684 124.61538461538463, 13.819558449839873 125.41420118343194, 18.797298599614148 126.21301775147928, 22.570121907463566 127.01183431952663, 31.52191552699489 127.81065088757396, 32.53549283436438 128.60946745562129, 21.527335982672483 129.40828402366864, 16.337830066299418 130.20710059171597, 32.401896965011105 131.0059171597633, 17.303244430063717 131.80473372781066, 16.342661329533357 132.60355029585799, 16.591749734407884 133.40236686390534, 12.844273222175184 134.20118343195267, 4.057763502707074" fill="none" stroke="#32ca5b" stroke-width="1.25"/>

</svg>