<?xml version="1.0" standalone="no"?>
<!DOCTYPE svg PUBLIC "-//W3C//DTD SVG 1.1//EN" "http://www.w3.org/Graphics/SVG/1.1/DTD/svg11.dtd">

<svg width="135" height="50" viewBox="0 0 135 50" preserveAspectRatio="none" 
  xmlns="http://www.w3.org/2000/svg"
  xmlns:xlink="http://www.w3.org/1999/xlink">


<polyline points="0.0, 18.417024483622257 0.7988165680473372, 20.069506147014767 1.5976331360946745, 18.670610134556863 2.396449704142012, 25.155890765581486 3.195266272189349, 23.150070127483318 3.994082840236686, 22.918379414683162 4.792899408284024, 23.21769843329218 5.591715976331361, 23.970372029161403 6.390532544378698, 25.36176692687236 7.189349112426036, 27.7617811289404 7.988165680473372, 26.257070537738453 8.78698224852071, 22.857045754597536 9.585798816568047, 23.055403604960606 10.384615384615385, 0.0 11.183431952662723, 8.705735105803154 11.982248520710058, 13.421958586036881 12.781065088757396, 9.463392268104041 13.579881656804734, 16.56853751577755 14.378698224852071, 12.48660154438001 15.177514792899409, 3.6249878909519686 15.976331360946745, 4.438783465914783 16.775147928994084, 5.186400089896321 17.57396449704142, 6.984157418626377 18.37278106508876, 6.009933125491073 19.171597633136095, 13.06839777303807 19.970414201183434, 13.899661611439745 20.76923076923077, 16.928675018477602 21.56804733727811, 16.4585080879046 22.366863905325445, 21.238215768773035 23.16568047337278, 23.264082372629932 23.964497041420117, 25.330608558086954 24.763313609467456, 27.1869706097853 25.562130177514792, 25.06319062920411 26.36094674556213, 30.564194859130744 27.159763313609467, 29.720996617883827 27.958579881656807, 33.509075237398136 28.757396449704142, 31.449865908193043 29.55621301775148, 33.72774232433823 30.355029585798817, 36.259583331653204 31.153846153846157, 35.2461478013818 31.95266272189349, 32.64837978618335 32.751479289940825, 36.74610006695107 33.55029585798817, 38.19851777797885 34.349112426035504, 35.61135557581504 35.14792899408284, 37.43117440328908 35.94674556213018, 32.81111117425674 36.74556213017752, 30.437269163276394 37.54437869822485, 26.277212942154282 38.34319526627219, 31.29098904946949 39.142011834319526, 35.21581201734648 39.94082840236687, 35.608022211648304 40.7396449704142, 31.76268801775286 41.53846153846154, 31.09853199471121 42.337278106508876, 30.93017296700575 43.13609467455622, 27.482772697775008 43.93491124260355, 23.706882848624307 44.73372781065089, 21.92500577326745 45.532544378698226, 21.975811015375157 46.33136094674556, 24.912218995267317 47.1301775147929, 26.620156880546503 47.928994082840234, 27.855088483080237 48.72781065088758, 32.611161598459425 49.52662721893491, 31.257086595549175 50.32544378698225, 31.737404547653842 51.124260355029584, 35.918606327365254 51.92307692307693, 33.866505615185396 52.72189349112426, 31.91150232208379 53.5207100591716, 34.33485845341445 54.319526627218934, 30.62976569686478 55.11834319526627, 35.10795710608547 55.91715976331361, 34.05305787933355 56.71597633136094, 35.22222660778184 57.514792899408285, 32.78666438894284 58.31360946745562, 33.27764266379014 59.11242603550296, 36.052852005490216 59.91124260355029, 37.82431736380574 60.710059171597635, 35.00702007500919 61.50887573964497, 36.68656578365563 62.307692307692314, 35.42575126831141 63.10650887573964, 37.39884053289494 63.90532544378698, 37.76700181284494 64.70414201183432, 34.89593078044966 65.50295857988165, 33.433950706971906 66.30177514792899, 33.34931939874663 67.10059171597634, 34.16707610735777 67.89940828402366, 34.962054322838604 68.69822485207101, 36.597316989134235 69.49704142011834, 39.16871078529866 70.29585798816568, 40.924741493435285 71.09467455621302, 37.119942376625644 71.89349112426036, 40.19111352674333 72.6923076923077, 40.94059433165486 73.49112426035504, 39.12530518643923 74.28994082840237, 41.23695445110948 75.0887573964497, 44.311493574432056 75.88757396449704, 44.77738834032265 76.68639053254438, 45.287629980040016 77.48520710059172, 50.0 78.28402366863905, 46.97544458907478 79.0828402366864, 45.63871375970692 79.88165680473374, 44.05938776068088 80.68047337278107, 42.851593373994874 81.4792899408284, 42.35731745171585 82.27810650887574, 40.42328956805547 83.07692307692308, 41.613988272825594 83.87573964497041, 39.61086233750294 84.67455621301775, 38.85847178348965 85.4733727810651, 38.0392019534947 86.27218934911244, 39.361661748169645 87.07100591715975, 38.30304612486754 87.8698224852071, 40.13260662672056 88.66863905325444, 38.787150430877034 89.46745562130178, 35.805243008502174 90.26627218934911, 33.20240870250683 91.06508875739645, 31.641299396211732 91.8639053254438, 31.851030992611772 92.66272189349112, 30.928039792773422 93.46153846153845, 31.524924179716113 94.2603550295858, 33.255060020812316 95.05917159763314, 33.7604042805533 95.85798816568047, 35.04490675536604 96.65680473372781, 34.900841648973355 97.45562130177515, 32.69006896058428 98.2544378698225, 32.286137117941365 99.05325443786982, 34.01470882545994 99.85207100591715, 32.36241128308228 100.6508875739645, 30.468628245789 101.44970414201183, 30.394705798550426 102.24852071005917, 30.81325261337003 103.04733727810651, 33.30307531963866 103.84615384615385, 33.466780812465466 104.64497041420118, 30.554898904004403 105.44378698224853, 29.66642849686861 106.24260355029585, 31.28555027878466 107.0414201183432, 27.964754229951954 107.84023668639053, 30.52348185063002 108.63905325443787, 29.01874866336012 109.43786982248521, 25.143997729517544 110.23668639053254, 23.97023431763311 111.03550295857988, 22.71945021962298 111.83431952662723, 22.361237673402908 112.63313609467457, 23.356205540502977 113.43195266272188, 22.86985026757177 114.23076923076923, 19.425947363789625 115.02958579881657, 20.594318949970894 115.82840236686391, 22.975784914949582 116.62721893491124, 24.28500247230895 117.42603550295858, 23.65821473071185 118.22485207100593, 25.220214696790936 119.02366863905324, 22.126646768165788 119.82248520710058, 22.683157208179995 120.62130177514793, 26.5599670087117 121.42011834319527, 26.416229967965272 122.2189349112426, 32.83500013490023 123.01775147928994, 30.554490295804143 123.81656804733728, 33.32750584069149 124.61538461538463, 32.98880719400101 125.41420118343194, 33.297005049040415 126.21301775147928, 27.967492531887554 127.01183431952663, 22.543323014467894 127.81065088757396, 24.809556660058547 128.60946745562129, 23.408307250482945 129.40828402366864, 26.025870473914924 130.20710059171597, 23.961549885641126 131.0059171597633, 21.93630144997867 131.80473372781066, 22.627635739463475 132.60355029585799, 22.447533677381585 133.40236686390534, 22.215045901016484 134.20118343195267, 22.4136047787192" fill="none" stroke="#ff3a33" stroke-width="1.25"/>

</svg>