<?xml version="1.0" standalone="no"?>
<!DOCTYPE svg PUBLIC "-//W3C//DTD SVG 1.1//EN" "http://www.w3.org/Graphics/SVG/1.1/DTD/svg11.dtd">

<svg width="135" height="50" viewBox="0 0 135 50" preserveAspectRatio="none" 
  xmlns="http://www.w3.org/2000/svg"
  xmlns:xlink="http://www.w3.org/1999/xlink">


<polyline points="0.0, 10.333061685124182 0.7988165680473372, 11.8891293671535 1.5976331360946745, 8.80330872929962 2.396449704142012, 4.634557240831192 3.195266272189349, 1.6772233047657519 3.994082840236686, 3.624350661505351 4.792899408284024, 2.5231414003037274 5.591715976331361, 7.289112554855354 6.390532544378698, 6.263575951577451 7.189349112426036, 4.3946678483692985 7.988165680473372, 12.150884042784133 8.78698224852071, 9.66647123978926 9.585798816568047, 9.939536815806406 10.384615384615385, 5.778611853404297 11.183431952662723, 5.610417908922292 11.982248520710058, 8.550092035583992 12.781065088757396, 16.955274684297592 13.579881656804734, 12.4281620658332 14.378698224852071, 10.170179786829026 15.177514792899409, 15.100066175008864 15.976331360946745, 8.510133736870722 16.775147928994084, 18.564674137408247 17.57396449704142, 29.48392512817584 18.37278106508876, 35.141219136123965 19.171597633136095, 33.15658568106895 19.970414201183434, 31.743454550959903 20.76923076923077, 27.079750721690072 21.56804733727811, 25.914804049392963 22.366863905325445, 25.277962829193058 23.16568047337278, 21.087094182189485 23.964497041420117, 21.70825892472011 24.763313609467456, 21.96995264780813 25.562130177514792, 26.00985587982489 26.36094674556213, 30.331183127131368 27.159763313609467, 29.86852452743925 27.958579881656807, 31.886912066948668 28.757396449704142, 33.535655804999685 29.55621301775148, 36.201500609116984 30.355029585798817, 38.74631520513376 31.153846153846157, 36.982339770420175 31.95266272189349, 44.88042122101456 32.751479289940825, 41.46595206532928 33.55029585798817, 44.24166771282967 34.349112426035504, 38.12493346399174 35.14792899408284, 40.0464354039278 35.94674556213018, 45.05260717172211 36.74556213017752, 44.23276194721005 37.54437869822485, 41.92081888979834 38.34319526627219, 45.57720642483691 39.142011834319526, 49.443295282868796 39.94082840236687, 47.1292419944563 40.7396449704142, 48.522084558744076 41.53846153846154, 42.8370095826915 42.337278106508876, 40.37165821362829 43.13609467455622, 38.65923562106362 43.93491124260355, 43.63361248018972 44.73372781065089, 50.0 45.532544378698226, 48.30551872967695 46.33136094674556, 46.03268337668273 47.1301775147929, 47.49415642583121 47.928994082840234, 45.32974412433804 48.72781065088758, 39.655340292585976 49.52662721893491, 36.797302094073046 50.32544378698225, 32.67988780667865 51.124260355029584, 31.617356954605686 51.92307692307693, 34.69891949732406 52.72189349112426, 34.52352137689149 53.5207100591716, 34.98458824096842 54.319526627218934, 40.66194201916478 55.11834319526627, 36.163665776662654 55.91715976331361, 33.063996581629304 56.71597633136094, 37.805692264611956 57.514792899408285, 32.66259878504535 58.31360946745562, 31.384835276614837 59.11242603550296, 33.37640423091083 59.91124260355029, 29.10561134224147 60.710059171597635, 35.60471091393688 61.50887573964497, 35.31414575261011 62.307692307692314, 38.65015789274608 63.10650887573964, 35.330505611682526 63.90532544378698, 38.919843948597894 64.70414201183432, 42.20826606024784 65.50295857988165, 42.844473208439034 66.30177514792899, 41.22844020013161 67.10059171597634, 40.94311623167788 67.89940828402366, 37.529462456468025 68.69822485207101, 43.50886264078184 69.49704142011834, 45.84395262538737 70.29585798816568, 43.25300197720525 71.09467455621302, 41.43034565344508 71.89349112426036, 41.4715167263625 72.6923076923077, 43.98434589580615 73.49112426035504, 41.97587166753753 74.28994082840237, 43.23216705706054 75.0887573964497, 45.502982964249824 75.88757396449704, 45.31430836486535 76.68639053254438, 40.46885382468426 77.48520710059172, 42.364114632809994 78.28402366863905, 41.47821431597467 79.0828402366864, 39.6401614064107 79.88165680473374, 40.12543461193306 80.68047337278107, 45.1635043054591 81.4792899408284, 43.85922857068672 82.27810650887574, 37.28439851796808 83.07692307692308, 46.672692952288465 83.87573964497041, 41.36262888946304 84.67455621301775, 37.81684550938277 85.4733727810651, 35.63737576238945 86.27218934911244, 34.071932129922786 87.07100591715975, 34.847117828310566 87.8698224852071, 31.948699927584713 88.66863905325444, 33.912108865294556 89.46745562130178, 32.462117424524415 90.26627218934911, 31.699317137334397 91.06508875739645, 31.17562807751221 91.8639053254438, 32.44222790200397 92.66272189349112, 31.53738298515411 93.46153846153845, 33.42259386020682 94.2603550295858, 32.9925042304002 95.05917159763314, 30.19896619608369 95.85798816568047, 28.172364079822902 96.65680473372781, 30.808356733565233 97.45562130177515, 29.694860732740068 98.2544378698225, 29.187940954781666 99.05325443786982, 29.249679507690708 99.85207100591715, 30.069795407601386 100.6508875739645, 29.051228686733154 101.44970414201183, 30.97793916314928 102.24852071005917, 29.658470491032702 103.04733727810651, 29.74574662316749 103.84615384615385, 30.852906608867 104.64497041420118, 32.18636303060824 105.44378698224853, 31.493418382895005 106.24260355029585, 29.741354469082033 107.0414201183432, 29.28268519889493 107.84023668639053, 32.98553560554345 108.63905325443787, 33.734788224946385 109.43786982248521, 34.76271716441431 110.23668639053254, 26.824683458188808 111.03550295857988, 23.864546175630473 111.83431952662723, 26.622628961838444 112.63313609467457, 23.747068086434993 113.43195266272188, 24.16418872212719 114.23076923076923, 21.74759950041092 115.02958579881657, 20.68871179852747 115.82840236686391, 21.28759425774176 116.62721893491124, 20.34935613684137 117.42603550295858, 21.586104721285825 118.22485207100593, 22.461073350400103 119.02366863905324, 23.185981268371975 119.82248520710058, 21.862224820255705 120.62130177514793, 22.095135350851514 121.42011834319527, 22.294947579756336 122.2189349112426, 24.887709419853778 123.01775147928994, 23.209046741083114 123.81656804733728, 25.137477805559616 124.61538461538463, 21.847349612703937 125.41420118343194, 20.010294800297004 126.21301775147928, 23.2864019552938 127.01183431952663, 22.86814464748396 127.81065088757396, 33.2160810429514 128.60946745562129, 30.485956481327804 129.40828402366864, 30.880297549090706 130.20710059171597, 28.61641414203044 131.0059171597633, 27.82972039345456 131.80473372781066, 9.984256520537054 132.60355029585799, 5.686393539048532 133.40236686390534, 6.768744188164375 134.20118343195267, 0.0" fill="none" stroke="#32ca5b" stroke-width="1.25"/>

</svg>