<?xml version="1.0" standalone="no"?>
<!DOCTYPE svg PUBLIC "-//W3C//DTD SVG 1.1//EN" "http://www.w3.org/Graphics/SVG/1.1/DTD/svg11.dtd">

<svg width="135" height="50" viewBox="0 0 135 50" preserveAspectRatio="none" 
  xmlns="http://www.w3.org/2000/svg"
  xmlns:xlink="http://www.w3.org/1999/xlink">


<polyline points="0.0, 37.649600572771504 0.7988165680473372, 38.18647813738688 1.5976331360946745, 37.761318891108665 2.396449704142012, 39.4832886299839 3.195266272189349, 38.53331859797663 3.994082840236686, 38.36932072638213 4.792899408284024, 37.935015217719275 5.591715976331361, 38.59672198168598 6.390532544378698, 40.22305731950267 7.189349112426036, 41.74377338141041 7.988165680473372, 39.89851266722925 8.78698224852071, 38.925688306868004 9.585798816568047, 39.73239187863268 10.384615384615385, 36.419033849157294 11.183431952662723, 40.99670448397475 11.982248520710058, 43.13856583144569 12.781065088757396, 45.89451696069122 13.579881656804734, 44.51905581715581 14.378698224852071, 42.499743132665365 15.177514792899409, 39.889547152506374 15.976331360946745, 39.462561639960484 16.775147928994084, 39.694291891564696 17.57396449704142, 37.02812537397551 18.37278106508876, 36.33542331161358 19.171597633136095, 38.13158521426203 19.970414201183434, 37.435532182024524 20.76923076923077, 37.319394285087 21.56804733727811, 35.69798830137039 22.366863905325445, 36.2940046428774 23.16568047337278, 38.33045253957309 23.964497041420117, 39.948034977202575 24.763313609467456, 39.52356769825308 25.562130177514792, 38.498949993265406 26.36094674556213, 43.47606008827482 27.159763313609467, 42.5396183066283 27.958579881656807, 44.963921154311876 28.757396449704142, 43.15225270220641 29.55621301775148, 43.56310742019053 30.355029585798817, 46.09161069769443 31.153846153846157, 45.259313883130154 31.95266272189349, 45.36999854664362 32.751479289940825, 47.12930904475593 33.55029585798817, 48.6277633835714 34.349112426035504, 48.09781105017134 35.14792899408284, 48.17890608206513 35.94674556213018, 46.093620597003685 36.74556213017752, 45.28548601156606 37.54437869822485, 43.663592809450854 38.34319526627219, 44.85470893191294 39.142011834319526, 47.42565149801251 39.94082840236687, 47.35503124994434 40.7396449704142, 46.272957969574904 41.53846153846154, 46.52311091184648 42.337278106508876, 46.01836412338795 43.13609467455622, 44.54769838731307 43.93491124260355, 43.60097430532637 44.73372781065089, 41.220628988952086 45.532544378698226, 40.697316487397885 46.33136094674556, 42.950069386951384 47.1301775147929, 42.72180464389465 47.928994082840234, 42.934715694192164 48.72781065088758, 45.48574340944897 49.52662721893491, 43.812598718536556 50.32544378698225, 43.81670725440965 51.124260355029584, 45.78697906445991 51.92307692307693, 44.526950134524576 52.72189349112426, 44.22882178284824 53.5207100591716, 45.582752616619295 54.319526627218934, 44.740907313278996 55.11834319526627, 46.038847375129386 55.91715976331361, 46.3046297017012 56.71597633136094, 47.10019138070554 57.514792899408285, 46.41928485085866 58.31360946745562, 47.19747250555201 59.11242603550296, 49.00413010273371 59.91124260355029, 48.57675156623053 60.710059171597635, 48.01705115597067 61.50887573964497, 47.874452089271564 62.307692307692314, 46.99664580428398 63.10650887573964, 49.38510210045018 63.90532544378698, 50.0 64.70414201183432, 49.077222740157495 65.50295857988165, 48.94561616292619 66.30177514792899, 48.595454943680686 67.10059171597634, 49.7204093601661 67.89940828402366, 47.975632924861614 68.69822485207101, 32.900908915187 69.49704142011834, 32.345460144443884 70.29585798816568, 35.32037328339829 71.09467455621302, 30.791363007208012 71.89349112426036, 30.309188545507215 72.6923076923077, 28.9019116924763 73.49112426035504, 27.10385871884781 74.28994082840237, 29.90325230104085 75.0887573964497, 33.658202303826954 75.88757396449704, 31.943690473290907 76.68639053254438, 27.251145199730477 77.48520710059172, 34.39645432827084 78.28402366863905, 28.8287993600938 79.0828402366864, 24.37452987947007 79.88165680473374, 24.224954919770955 80.68047337278107, 19.99883112608016 81.4792899408284, 21.24387606941466 82.27810650887574, 9.641836801773744 83.07692307692308, 11.295437355775158 83.87573964497041, 0.0 84.67455621301775, 0.6903751942266829 85.4733727810651, 4.5488147352939805 86.27218934911244, 9.81851773359369 87.07100591715975, 8.861275525683942 87.8698224852071, 14.655703377363743 88.66863905325444, 16.33515380516718 89.46745562130178, 16.09844745417756 90.26627218934911, 15.224658453104635 91.06508875739645, 16.082862962196753 91.8639053254438, 15.341010638765637 92.66272189349112, 15.6047553476688 93.46153846153845, 17.085023118433888 94.2603550295858, 18.244174107932054 95.05917159763314, 18.45057108342693 95.85798816568047, 16.95362825714365 96.65680473372781, 17.80303145887516 97.45562130177515, 21.42448696192071 98.2544378698225, 23.77879263904082 99.05325443786982, 24.540033095727726 99.85207100591715, 23.48055331389102 100.6508875739645, 23.89740010712875 101.44970414201183, 24.425176573999536 102.24852071005917, 23.02162272749903 103.04733727810651, 22.03631970338462 103.84615384615385, 21.756495804962146 104.64497041420118, 22.015822725728963 105.44378698224853, 20.36253036786884 106.24260355029585, 22.655621134803617 107.0414201183432, 22.14634767727396 107.84023668639053, 23.47161132917202 108.63905325443787, 23.30849962518257 109.43786982248521, 22.659124814258575 110.23668639053254, 21.69917824090516 111.03550295857988, 21.7339780982647 111.83431952662723, 22.294601694682118 112.63313609467457, 23.083922813880232 113.43195266272188, 23.16478654460544 114.23076923076923, 22.588304394137673 115.02958579881657, 22.91721625055862 115.82840236686391, 24.501020003131522 116.62721893491124, 22.756285293531498 117.42603550295858, 21.83078374753782 118.22485207100593, 22.855079244494505 119.02366863905324, 22.506106092313576 119.82248520710058, 23.046853732988758 120.62130177514793, 25.069463756821346 121.42011834319527, 24.60026515280725 122.2189349112426, 27.264269043276528 123.01775147928994, 24.58598966931414 123.81656804733728, 22.67341738925218 124.61538461538463, 22.416694140984276 125.41420118343194, 25.449067322203373 126.21301775147928, 23.882508296537058 127.01183431952663, 22.15987706987883 127.81065088757396, 21.001626144245108 128.60946745562129, 20.76751331598805 129.40828402366864, 22.36078074449575 130.20710059171597, 21.698079429923734 131.0059171597633, 23.70382485852234 131.80473372781066, 22.47026069777357 132.60355029585799, 23.731477521967097 133.40236686390534, 22.71867413260048 134.20118343195267, 22.965303717930105" fill="none" stroke="#32ca5b" stroke-width="1.25"/>

</svg>