<?xml version="1.0" standalone="no"?>
<!DOCTYPE svg PUBLIC "-//W3C//DTD SVG 1.1//EN" "http://www.w3.org/Graphics/SVG/1.1/DTD/svg11.dtd">

<svg width="135" height="50" viewBox="0 0 135 50" preserveAspectRatio="none" 
  xmlns="http://www.w3.org/2000/svg"
  xmlns:xlink="http://www.w3.org/1999/xlink">


<polyline points="0.0, 7.93081902647339 0.7988165680473372, 9.777677323503928 1.5976331360946745, 12.131774196993913 2.396449704142012, 6.111392875735349 3.195266272189349, 13.135782565913006 3.994082840236686, 11.629885443381403 4.792899408284024, 10.418073777951427 5.591715976331361, 9.577714624468149 6.390532544378698, 11.220508093619435 7.189349112426036, 14.319698276603887 7.988165680473372, 17.878576081550403 8.78698224852071, 13.674714598042412 9.585798816568047, 10.518714585778723 10.384615384615385, 14.456442520982351 11.183431952662723, 10.39347860795251 11.982248520710058, 18.76514065391144 12.781065088757396, 31.661516645765474 13.579881656804734, 39.50698992825979 14.378698224852071, 35.64190177065327 15.177514792899409, 35.53278103403072 15.976331360946745, 31.202660155526207 16.775147928994084, 28.897502434864837 17.57396449704142, 27.954060899999224 18.37278106508876, 25.525928857615753 19.171597633136095, 25.348557154571118 19.970414201183434, 27.49826692243602 20.76923076923077, 30.708501306361647 21.56804733727811, 31.243029430744805 22.366863905325445, 30.538280508826755 23.16568047337278, 31.264462311857383 23.964497041420117, 34.51390287867645 24.763313609467456, 36.10640370681069 25.562130177514792, 39.84072971764909 26.36094674556213, 36.46688702681253 27.159763313609467, 46.606949486328354 27.958579881656807, 43.69948611545505 28.757396449704142, 45.96416649535893 29.55621301775148, 40.10694205819998 30.355029585798817, 43.047821720342796 31.153846153846157, 50.0 31.95266272189349, 44.48776152319003 32.751479289940825, 39.59107720059679 33.55029585798817, 33.66066373976761 34.349112426035504, 23.212027600585166 35.14792899408284, 30.151779448326643 35.94674556213018, 32.80766562706351 36.74556213017752, 30.104293875065398 37.54437869822485, 33.066580561121796 38.34319526627219, 31.75842391880644 39.142011834319526, 36.537388577965565 39.94082840236687, 40.59673650366135 40.7396449704142, 39.542712900830736 41.53846153846154, 35.47881772178821 42.337278106508876, 36.12466364951172 43.13609467455622, 33.89935101693469 43.93491124260355, 27.004295771458697 44.73372781065089, 25.307260238881646 45.532544378698226, 27.148935034974997 46.33136094674556, 25.30058315328142 47.1301775147929, 31.290452444436408 47.928994082840234, 30.805217336274687 48.72781065088758, 30.773643834260096 49.52662721893491, 37.02779514496097 50.32544378698225, 32.26229338314528 51.124260355029584, 28.624302825468284 51.92307692307693, 32.41972827723174 52.72189349112426, 29.834268354761928 53.5207100591716, 28.306033707706007 54.319526627218934, 27.311382229955356 55.11834319526627, 26.186739494881472 55.91715976331361, 31.56705820164506 56.71597633136094, 30.822705873264482 57.514792899408285, 34.17715003090696 58.31360946745562, 29.666153394535506 59.11242603550296, 32.42507177951125 59.91124260355029, 36.94471884711309 60.710059171597635, 38.94502415781214 61.50887573964497, 37.35139391481686 62.307692307692314, 30.775958009949516 63.10650887573964, 30.851199449136768 63.90532544378698, 32.41335689548773 64.70414201183432, 36.01101019318488 65.50295857988165, 35.30052736722386 66.30177514792899, 28.906919866861113 67.10059171597634, 28.904365741447545 67.89940828402366, 25.77380254243355 68.69822485207101, 26.656686913803224 69.49704142011834, 30.66200932297054 70.29585798816568, 35.86001745033842 71.09467455621302, 40.17465899716956 71.89349112426036, 34.7251141471691 72.6923076923077, 36.10004955503006 73.49112426035504, 33.77485978537663 74.28994082840237, 32.4442291626443 75.0887573964497, 34.015870275590096 75.88757396449704, 34.92514067853243 76.68639053254438, 37.25882381516214 77.48520710059172, 34.93681966402311 78.28402366863905, 44.28111553634552 79.0828402366864, 40.47455913343229 79.88165680473374, 36.264493285888875 80.68047337278107, 31.960232168049078 81.4792899408284, 30.264442729683346 82.27810650887574, 33.660024005960196 83.07692307692308, 28.32854199679829 83.87573964497041, 29.043561958454738 84.67455621301775, 24.802969963744463 85.4733727810651, 25.06938834792368 86.27218934911244, 25.763659615187056 87.07100591715975, 28.14080061701129 87.8698224852071, 25.723698545495218 88.66863905325444, 27.472793546006958 89.46745562130178, 27.693307680130868 90.26627218934911, 24.02320880469397 91.06508875739645, 20.871391128793974 91.8639053254438, 23.75574823726721 92.66272189349112, 23.347504584569805 93.46153846153845, 24.096950727736136 94.2603550295858, 25.387097668005048 95.05917159763314, 26.491893793781625 95.85798816568047, 27.71866662374457 96.65680473372781, 28.527601407508357 97.45562130177515, 26.719108280322722 98.2544378698225, 26.671838576607943 99.05325443786982, 28.18653974638402 99.85207100591715, 30.72174555352442 100.6508875739645, 29.72073319506667 101.44970414201183, 26.215295729262195 102.24852071005917, 27.92795478400408 103.04733727810651, 29.17835928774734 103.84615384615385, 29.715024140928893 104.64497041420118, 32.055472003186004 105.44378698224853, 31.3717253051292 106.24260355029585, 28.01803107621582 107.0414201183432, 32.22762060281661 107.84023668639053, 29.654429232954254 108.63905325443787, 32.02585497914689 109.43786982248521, 0.0 110.23668639053254, 8.057862124839492 111.03550295857988, 3.9317419492752483 111.83431952662723, 7.136876335907945 112.63313609467457, 5.420918510989528 113.43195266272188, 8.79704965167709 114.23076923076923, 0.9674416009885871 115.02958579881657, 0.06409118885587899 115.82840236686391, 7.0450604804736985 116.62721893491124, 7.942495844074919 117.42603550295858, 11.52352277585557 118.22485207100593, 10.183265341372218 119.02366863905324, 9.024068250930558 119.82248520710058, 14.467968425153249 120.62130177514793, 15.544431752397275 121.42011834319527, 18.186273589718905 122.2189349112426, 18.309412762812684 123.01775147928994, 22.771514099941715 123.81656804733728, 21.10663252828558 124.61538461538463, 22.94224157712485 125.41420118343194, 23.870583223417764 126.21301775147928, 21.71461420470534 127.01183431952663, 14.561910335066067 127.81065088757396, 11.921195930565121 128.60946745562129, 9.422275579530828 129.40828402366864, 8.52387973837305 130.20710059171597, 11.205076961703178 131.0059171597633, 9.564951138879625 131.80473372781066, 10.15049219949692 132.60355029585799, 8.09141302320613 133.40236686390534, 5.880689321736582 134.20118343195267, 6.631625720258325" fill="none" stroke="#32ca5b" stroke-width="1.25"/>

</svg>