<?xml version="1.0" standalone="no"?>
<!DOCTYPE svg PUBLIC "-//W3C//DTD SVG 1.1//EN" "http://www.w3.org/Graphics/SVG/1.1/DTD/svg11.dtd">

<svg width="135" height="50" viewBox="0 0 135 50" preserveAspectRatio="none" 
  xmlns="http://www.w3.org/2000/svg"
  xmlns:xlink="http://www.w3.org/1999/xlink">


<polyline points="0.0, 18.83279630261032 0.7988165680473372, 19.158548915897583 1.5976331360946745, 17.679469408635796 2.396449704142012, 19.52884030600723 3.195266272189349, 16.81179000412293 3.994082840236686, 15.607288428113028 4.792899408284024, 14.431151770348055 5.591715976331361, 15.314513492314033 6.390532544378698, 18.942635714961167 7.189349112426036, 24.339098564903427 7.988165680473372, 18.675579630924044 8.78698224852071, 16.305147940436168 9.585798816568047, 17.710101112815167 10.384615384615385, 13.867253003728559 11.183431952662723, 25.108417818372747 11.982248520710058, 34.60710204500771 12.781065088757396, 38.671473649417536 13.579881656804734, 35.35462895587179 14.378698224852071, 33.77144153561576 15.177514792899409, 28.33826829615941 15.976331360946745, 27.156108233686876 16.775147928994084, 26.225972874300552 17.57396449704142, 21.97179888087965 18.37278106508876, 21.510360950149693 19.171597633136095, 25.782123201379136 19.970414201183434, 28.23043251717237 20.76923076923077, 28.506003841784395 21.56804733727811, 28.342997020045512 22.366863905325445, 29.983884342341295 23.16568047337278, 31.442854491187443 23.964497041420117, 34.52392932531126 24.763313609467456, 37.43346511325791 25.562130177514792, 34.680248654334996 26.36094674556213, 44.803438102143296 27.159763313609467, 41.230731178381276 27.958579881656807, 43.8858473423739 28.757396449704142, 38.42797410728052 29.55621301775148, 41.58696547759916 30.355029585798817, 48.733631473829256 31.153846153846157, 45.303229936389485 31.95266272189349, 42.327431924234475 32.751479289940825, 48.00488845774182 33.55029585798817, 50.0 34.349112426035504, 46.765655787785676 35.14792899408284, 48.13406745571404 35.94674556213018, 42.230041751702686 36.74556213017752, 39.28752867805821 37.54437869822485, 37.12234022918264 38.34319526627219, 41.49880280354432 39.142011834319526, 46.909887354630555 39.94082840236687, 44.985891027150174 40.7396449704142, 42.81147089798736 41.53846153846154, 43.6425400136845 42.337278106508876, 41.12667610949073 43.13609467455622, 36.5012861137115 43.93491124260355, 34.26546986099794 44.73372781065089, 32.1980480648964 45.532544378698226, 31.303210091560167 46.33136094674556, 33.26080924458606 47.1301775147929, 33.28182820129248 47.928994082840234, 35.95359567541052 48.72781065088758, 40.28645550399177 49.52662721893491, 36.618840091671174 50.32544378698225, 35.13003903148801 51.124260355029584, 38.44152731052341 51.92307692307693, 35.11371299221566 52.72189349112426, 33.63374197059984 53.5207100591716, 35.66941055688024 54.319526627218934, 31.59032558387116 55.11834319526627, 36.24528238731661 55.91715976331361, 35.260500825679195 56.71597633136094, 39.10982221495525 57.514792899408285, 35.75686502529109 58.31360946745562, 38.698214565531 59.11242603550296, 41.91896305653095 59.91124260355029, 43.04521781842042 60.710059171597635, 41.4227738682028 61.50887573964497, 41.43088073360492 62.307692307692314, 39.49234225645444 63.10650887573964, 43.79856863222279 63.90532544378698, 45.619539252829966 64.70414201183432, 43.37512308993226 65.50295857988165, 41.726952226571484 66.30177514792899, 40.37168384404937 67.10059171597634, 43.73561176066066 67.89940828402366, 41.79022764469838 68.69822485207101, 39.953998866356464 69.49704142011834, 43.554077929114925 70.29585798816568, 42.58660763187835 71.09467455621302, 38.595917994191794 71.89349112426036, 39.811236289041716 72.6923076923077, 38.51991531397707 73.49112426035504, 36.124440167629665 74.28994082840237, 38.71546747971392 75.0887573964497, 41.69690792432895 75.88757396449704, 42.08450054811371 76.68639053254438, 39.762740671999666 77.48520710059172, 47.11633797631558 78.28402366863905, 42.44836058999216 79.0828402366864, 41.33070386276726 79.88165680473374, 38.971672327763876 80.68047337278107, 38.709746444708685 81.4792899408284, 40.11289448411933 82.27810650887574, 38.263968239411305 83.07692307692308, 39.706044667453064 83.87573964497041, 37.31683431959681 84.67455621301775, 36.44305730482356 85.4733727810651, 34.46754270098355 86.27218934911244, 36.68785866556071 87.07100591715975, 35.758540713185496 87.8698224852071, 38.68689198520327 88.66863905325444, 38.47920370172121 89.46745562130178, 36.774350064931795 90.26627218934911, 34.6359461493201 91.06508875739645, 34.49653533066899 91.8639053254438, 33.685807663780636 92.66272189349112, 34.109317663077526 93.46153846153845, 33.772135699055475 94.2603550295858, 33.407343610359064 95.05917159763314, 32.902455112359576 95.85798816568047, 32.598147581852075 96.65680473372781, 32.088743737451516 97.45562130177515, 33.9838401924398 98.2544378698225, 36.56067725226532 99.05325443786982, 36.07993766858055 99.85207100591715, 35.78624862899329 100.6508875739645, 33.94232487050828 101.44970414201183, 34.68200498746523 102.24852071005917, 36.4496056512653 103.04733727810651, 35.68242534055522 103.84615384615385, 35.634988900198465 104.64497041420118, 31.805725461023016 105.44378698224853, 31.689504350052516 106.24260355029585, 29.581266223446757 107.0414201183432, 28.558785257978364 107.84023668639053, 32.07888416206387 108.63905325443787, 32.74224962136286 109.43786982248521, 29.089584894369878 110.23668639053254, 29.73555806006589 111.03550295857988, 27.57162082936622 111.83431952662723, 27.82732928194955 112.63313609467457, 27.41428919297264 113.43195266272188, 26.73507803312438 114.23076923076923, 27.545395486469936 115.02958579881657, 28.250890423741097 115.82840236686391, 31.23740038371727 116.62721893491124, 33.908316937028914 117.42603550295858, 31.34969432400638 118.22485207100593, 31.86472699881051 119.02366863905324, 29.84993875118322 119.82248520710058, 28.332206698916362 120.62130177514793, 34.279681777052446 121.42011834319527, 33.179993463359295 122.2189349112426, 39.35393504004131 123.01775147928994, 36.650110062081666 123.81656804733728, 37.901389194281116 124.61538461538463, 35.916564632694474 125.41420118343194, 34.72417368389567 126.21301775147928, 30.478121077830938 127.01183431952663, 23.780247893649676 127.81065088757396, 17.940489010484235 128.60946745562129, 16.73482290902858 129.40828402366864, 18.133873115273605 130.20710059171597, 14.157858389285163 131.0059171597633, 14.851850729649465 131.80473372781066, 13.741024083953224 132.60355029585799, 12.794069769639837 133.40236686390534, 8.506679366988134 134.20118343195267, 0.0" fill="none" stroke="#32ca5b" stroke-width="1.25"/>

</svg>