<?xml version="1.0" standalone="no"?>
<!DOCTYPE svg PUBLIC "-//W3C//DTD SVG 1.1//EN" "http://www.w3.org/Graphics/SVG/1.1/DTD/svg11.dtd">

<svg width="135" height="50" viewBox="0 0 135 50" preserveAspectRatio="none" 
  xmlns="http://www.w3.org/2000/svg"
  xmlns:xlink="http://www.w3.org/1999/xlink">


<polyline points="0.0, 3.605034866463077 0.7988165680473372, 4.398887196817464 1.5976331360946745, 1.3833212356332012 2.396449704142012, 3.0481442249240582 3.195266272189349, 3.3341373510661994 3.994082840236686, 4.06342945017997 4.792899408284024, 4.111529755320046 5.591715976331361, 1.9466875824684375 6.390532544378698, 3.5840336226280014 7.189349112426036, 6.252674153143177 7.988165680473372, 5.036616490457623 8.78698224852071, 3.312635706039175 9.585798816568047, 3.4360158166167465 10.384615384615385, 1.7268122433122257 11.183431952662723, 9.322224600853742 11.982248520710058, 11.579307407735458 12.781065088757396, 14.61701755647441 13.579881656804734, 12.561087211174051 14.378698224852071, 11.663342593702144 15.177514792899409, 8.258528584590099 15.976331360946745, 10.466018636113553 16.775147928994084, 6.175899377040593 17.57396449704142, 5.466774391835152 18.37278106508876, 3.558648703798321 19.171597633136095, 3.4981590262726945 19.970414201183434, 0.8240246732136646 20.76923076923077, 7.858347780300029 21.56804733727811, 4.585971005556774 22.366863905325445, 0.0 23.16568047337278, 0.8047163384211775 23.964497041420117, 2.288120379956587 24.763313609467456, 10.6867576518409 25.562130177514792, 7.500600980529111 26.36094674556213, 8.825972104006713 27.159763313609467, 10.660670904864894 27.958579881656807, 8.430319697000282 28.757396449704142, 10.630400930024498 29.55621301775148, 8.898356134998279 30.355029585798817, 9.321312472514636 31.153846153846157, 8.403665526906794 31.95266272189349, 9.014311164659153 32.751479289940825, 8.5851031356793 33.55029585798817, 7.803185743689438 34.349112426035504, 8.338892562361826 35.14792899408284, 6.001220592924137 35.94674556213018, 8.324562595532136 36.74556213017752, 8.139244251270528 37.54437869822485, 7.44487119647545 38.34319526627219, 11.995631498708043 39.142011834319526, 14.756785190525354 39.94082840236687, 12.037693288993802 40.7396449704142, 12.239598961190419 41.53846153846154, 12.254008327531718 42.337278106508876, 12.092775592193691 43.13609467455622, 11.68853007116458 43.93491124260355, 10.8342960057958 44.73372781065089, 9.976838312762016 45.532544378698226, 9.67677177619028 46.33136094674556, 10.594736045964376 47.1301775147929, 9.869467894016852 47.928994082840234, 8.719145537431576 48.72781065088758, 9.417681562581311 49.52662721893491, 8.982063292287902 50.32544378698225, 8.586331948629228 51.124260355029584, 8.812891130301335 51.92307692307693, 8.365440398412789 52.72189349112426, 8.420483202084714 53.5207100591716, 45.131830235310055 54.319526627218934, 44.479672914284976 55.11834319526627, 45.02289550349752 55.91715976331361, 45.589720613766296 56.71597633136094, 46.33135216915153 57.514792899408285, 45.80257438784848 58.31360946745562, 43.67679556721339 59.11242603550296, 42.25501973366102 59.91124260355029, 42.4782725098913 60.710059171597635, 42.86707028363579 61.50887573964497, 41.9959629957905 62.307692307692314, 41.944760622386156 63.10650887573964, 42.99138063287117 63.90532544378698, 42.490009973847684 64.70414201183432, 42.76523422606757 65.50295857988165, 42.62575964089519 66.30177514792899, 42.68278424717063 67.10059171597634, 43.15583151647678 67.89940828402366, 42.93252040079464 68.69822485207101, 42.830603782448776 69.49704142011834, 12.98598968355271 70.29585798816568, 11.901911561132309 71.09467455621302, 11.635273119232808 71.89349112426036, 11.460657586505935 72.6923076923077, 11.070832950220703 73.49112426035504, 11.196371869557428 74.28994082840237, 11.191217045034989 75.0887573964497, 15.005124121993827 75.88757396449704, 14.289857026861071 76.68639053254438, 12.16527702131598 77.48520710059172, 12.684793065758521 78.28402366863905, 12.386081610517335 79.0828402366864, 12.191946551310886 79.88165680473374, 12.072244233598742 80.68047337278107, 11.859642764167527 81.4792899408284, 11.664893897042449 82.27810650887574, 11.575660001403572 83.07692307692308, 11.66522370475651 83.87573964497041, 9.324516532555775 84.67455621301775, 9.484785374217855 85.4733727810651, 41.46227115033611 86.27218934911244, 39.65900015927001 87.07100591715975, 38.54041590023109 87.8698224852071, 39.21289094523538 88.66863905325444, 47.28512503482401 89.46745562130178, 46.92264332009885 90.26627218934911, 48.107823909459235 91.06508875739645, 48.552515456381315 91.8639053254438, 48.25568692308479 92.66272189349112, 48.193672209276535 93.46153846153845, 48.143860900256385 94.2603550295858, 47.80525262790229 95.05917159763314, 47.14983478636561 95.85798816568047, 47.002386887754085 96.65680473372781, 46.96416890146002 97.45562130177515, 47.099645534929024 98.2544378698225, 46.96450902148806 99.05325443786982, 47.08563968479081 99.85207100591715, 46.987756619903465 100.6508875739645, 46.8572519041546 101.44970414201183, 45.784700004838804 102.24852071005917, 45.735810007380515 103.04733727810651, 45.84415087477138 103.84615384615385, 45.87710811501044 104.64497041420118, 45.154673752130314 105.44378698224853, 45.75961913494434 106.24260355029585, 46.045338539703394 107.0414201183432, 45.541480780678256 107.84023668639053, 45.59102818584486 108.63905325443787, 45.742921148432416 109.43786982248521, 45.681043837334926 110.23668639053254, 45.598728306203704 111.03550295857988, 47.25857305309839 111.83431952662723, 47.33115054371552 112.63313609467457, 47.369291156414135 113.43195266272188, 47.975926649862686 114.23076923076923, 47.90224020984951 115.02958579881657, 47.85372680264041 115.82840236686391, 48.19492416101458 116.62721893491124, 9.412020683570542 117.42603550295858, 9.266493607082776 118.22485207100593, 9.378261627006523 119.02366863905324, 9.3347975056163 119.82248520710058, 9.42442354124101 120.62130177514793, 9.844476260525578 121.42011834319527, 9.869881841319394 122.2189349112426, 10.47099460642995 123.01775147928994, 17.043579192424403 123.81656804733728, 16.571071160275995 124.61538461538463, 15.349141583409157 125.41420118343194, 15.5064159684053 126.21301775147928, 14.370860390493181 127.01183431952663, 13.733104442374769 127.81065088757396, 13.15483663043005 128.60946745562129, 12.929974019783835 129.40828402366864, 50.0 130.20710059171597, 47.06157807222069 131.0059171597633, 12.241384958026574 131.80473372781066, 46.72651336668675 132.60355029585799, 12.126876004804869 133.40236686390534, 13.074836052756305 134.20118343195267, 13.047324376638542" fill="none" stroke="#ff3a33" stroke-width="1.25"/>

</svg>