<?xml version="1.0" standalone="no"?>
<!DOCTYPE svg PUBLIC "-//W3C//DTD SVG 1.1//EN" "http://www.w3.org/Graphics/SVG/1.1/DTD/svg11.dtd">

<svg width="135" height="50" viewBox="0 0 135 50" preserveAspectRatio="none" 
  xmlns="http://www.w3.org/2000/svg"
  xmlns:xlink="http://www.w3.org/1999/xlink">


<polyline points="0.0, 20.95417985415826 0.7988165680473372, 17.741157950129086 1.5976331360946745, 21.46096940472156 2.396449704142012, 12.649823084061099 3.195266272189349, 10.040334959802117 3.994082840236686, 9.332839917351782 4.792899408284024, 13.459148299953078 5.591715976331361, 13.983154189651136 6.390532544378698, 8.759341676831207 7.189349112426036, 10.18138057200261 7.988165680473372, 19.180543338958277 8.78698224852071, 13.032872593366578 9.585798816568047, 11.812115264131826 10.384615384615385, 12.426820640556748 11.183431952662723, 10.874154623367351 11.982248520710058, 9.117760994047401 12.781065088757396, 18.708293480051267 13.579881656804734, 19.047057012293124 14.378698224852071, 28.066186943986132 15.177514792899409, 27.985548881626638 15.976331360946745, 24.710040782850275 16.775147928994084, 19.790711132085733 17.57396449704142, 14.989877638157237 18.37278106508876, 16.659309703132614 19.171597633136095, 18.087817262718158 19.970414201183434, 19.494441686447495 20.76923076923077, 20.061880561870815 21.56804733727811, 22.247131471880948 22.366863905325445, 22.531555964620424 23.16568047337278, 20.45766431339216 23.964497041420117, 24.3578667491275 24.763313609467456, 20.40715341965062 25.562130177514792, 11.597124783915731 26.36094674556213, 0.0 27.159763313609467, 7.449453321192346 27.958579881656807, 15.843860408736044 28.757396449704142, 18.595711838888622 29.55621301775148, 19.738421935787283 30.355029585798817, 21.569723671656096 31.153846153846157, 29.181203042508347 31.95266272189349, 28.996540971099893 32.751479289940825, 24.88090860611484 33.55029585798817, 27.04574331456517 34.349112426035504, 26.523461823676907 35.14792899408284, 26.236131069377315 35.94674556213018, 31.187935894301898 36.74556213017752, 30.46771308416532 37.54437869822485, 33.48555855579131 38.34319526627219, 31.027925888472442 39.142011834319526, 29.124256382612085 39.94082840236687, 30.680704649399047 40.7396449704142, 31.979173891621315 41.53846153846154, 31.10174020282702 42.337278106508876, 32.46204892131582 43.13609467455622, 33.30249083269054 43.93491124260355, 32.607175252346906 44.73372781065089, 32.08295643304595 45.532544378698226, 26.934557393487967 46.33136094674556, 26.834803407778494 47.1301775147929, 24.038441456784362 47.928994082840234, 25.58825994716906 48.72781065088758, 25.151075911789494 49.52662721893491, 28.028407005992463 50.32544378698225, 24.894977093381502 51.124260355029584, 24.709338456932315 51.92307692307693, 22.234160957152664 52.72189349112426, 22.923089219615285 53.5207100591716, 26.29319030026946 54.319526627218934, 26.02887883563444 55.11834319526627, 25.75859617662724 55.91715976331361, 28.171522500188967 56.71597633136094, 30.13138355802831 57.514792899408285, 29.26241669089688 58.31360946745562, 24.064900607865685 59.11242603550296, 24.384667569448066 59.91124260355029, 28.021883994248988 60.710059171597635, 27.63108334281531 61.50887573964497, 30.68129862701406 62.307692307692314, 31.668795799611686 63.10650887573964, 29.766871664485993 63.90532544378698, 31.135596950707363 64.70414201183432, 32.699895669791076 65.50295857988165, 26.968909101350256 66.30177514792899, 29.469531774849 67.10059171597634, 28.578151063025242 67.89940828402366, 32.4299750115605 68.69822485207101, 31.92387241604146 69.49704142011834, 33.07103584051805 70.29585798816568, 34.37484842186155 71.09467455621302, 35.77140194237965 71.89349112426036, 34.41095956032488 72.6923076923077, 37.182860782413314 73.49112426035504, 39.423818280767456 74.28994082840237, 41.17457240896037 75.0887573964497, 41.558202026321624 75.88757396449704, 43.92293096105702 76.68639053254438, 45.272984470819 77.48520710059172, 47.892797695524244 78.28402366863905, 49.478071856561264 79.0828402366864, 49.99602776687634 79.88165680473374, 49.29063423727512 80.68047337278107, 50.0 81.4792899408284, 49.63636661499148 82.27810650887574, 47.681015974367455 83.07692307692308, 48.03474914070705 83.87573964497041, 49.5529400374089 84.67455621301775, 47.095317349946534 85.4733727810651, 44.9520333256363 86.27218934911244, 45.7023651761323 87.07100591715975, 47.31171787746317 87.8698224852071, 46.97438532132671 88.66863905325444, 48.433934505868095 89.46745562130178, 46.44563760723612 90.26627218934911, 47.45912464828129 91.06508875739645, 44.59037241372919 91.8639053254438, 41.0047712652765 92.66272189349112, 40.22550312545329 93.46153846153845, 43.224032330267406 94.2603550295858, 43.52726779696538 95.05917159763314, 39.42344158364307 95.85798816568047, 40.47799301361856 96.65680473372781, 39.83663807757309 97.45562130177515, 38.961167184561525 98.2544378698225, 40.04387829807799 99.05325443786982, 38.97401818911622 99.85207100591715, 39.723545652689246 100.6508875739645, 39.80069676834346 101.44970414201183, 38.196809244272416 102.24852071005917, 37.25463742680047 103.04733727810651, 39.04806185503577 103.84615384615385, 39.710129342512126 104.64497041420118, 39.52097423385877 105.44378698224853, 40.922677708909255 106.24260355029585, 39.6672389156066 107.0414201183432, 39.75199484759299 107.84023668639053, 37.71120771095242 108.63905325443787, 28.239612036715506 109.43786982248521, 22.64825302015342 110.23668639053254, 15.542508497726873 111.03550295857988, 17.389526178623687 111.83431952662723, 19.518689868448842 112.63313609467457, 20.598560904128345 113.43195266272188, 18.856715796280795 114.23076923076923, 18.086838203466506 115.02958579881657, 16.393393300666578 115.82840236686391, 17.045705376861413 116.62721893491124, 21.978460911807336 117.42603550295858, 22.89900638914099 118.22485207100593, 22.906910679134064 119.02366863905324, 23.4009849815013 119.82248520710058, 22.981556549430955 120.62130177514793, 25.27611353304373 121.42011834319527, 32.03121845758557 122.2189349112426, 31.77449817436114 123.01775147928994, 35.20713655567604 123.81656804733728, 35.15516288512164 124.61538461538463, 34.39370775616843 125.41420118343194, 35.03053732942355 126.21301775147928, 36.47129191938172 127.01183431952663, 33.88999465361358 127.81065088757396, 31.929786624607438 128.60946745562129, 25.027953938963698 129.40828402366864, 25.87911416432793 130.20710059171597, 31.465779839973283 131.0059171597633, 31.988902627381265 131.80473372781066, 33.080443006742044 132.60355029585799, 31.92071227337822 133.40236686390534, 30.42403743031511 134.20118343195267, 35.50637995629298" fill="none" stroke="#ff3a33" stroke-width="1.25"/>

</svg>