<?xml version="1.0" standalone="no"?>
<!DOCTYPE svg PUBLIC "-//W3C//DTD SVG 1.1//EN" "http://www.w3.org/Graphics/SVG/1.1/DTD/svg11.dtd">

<svg width="135" height="50" viewBox="0 0 135 50" preserveAspectRatio="none" 
  xmlns="http://www.w3.org/2000/svg"
  xmlns:xlink="http://www.w3.org/1999/xlink">


<polyline points="0.0, 15.647401810440634 0.7988165680473372, 16.4000999905674 1.5976331360946745, 17.094684566143435 2.396449704142012, 17.07541217627338 3.195266272189349, 17.99259668202367 3.994082840236686, 17.92763276269692 4.792899408284024, 15.505482999718625 5.591715976331361, 15.940142543784457 6.390532544378698, 16.989029380200783 7.189349112426036, 17.579584763635676 7.988165680473372, 17.6085870411648 8.78698224852071, 16.39534883710551 9.585798816568047, 14.646304084438885 10.384615384615385, 15.777996367110218 11.183431952662723, 14.40630588505035 11.982248520710058, 18.314044820965027 12.781065088757396, 23.609537299526195 13.579881656804734, 23.873868878442075 14.378698224852071, 27.978932435585275 15.177514792899409, 27.34657798260831 15.976331360946745, 21.146320758397145 16.775147928994084, 18.03676236654069 17.57396449704142, 16.43937855058666 18.37278106508876, 16.722590526755834 19.171597633136095, 15.295129364517814 19.970414201183434, 19.252978272650044 20.76923076923077, 17.13119793268221 21.56804733727811, 16.955983776138726 22.366863905325445, 16.7571322176739 23.16568047337278, 17.392269409630533 23.964497041420117, 20.253818901647705 24.763313609467456, 22.304129573443387 25.562130177514792, 23.92792541788061 26.36094674556213, 22.373189528449426 27.159763313609467, 25.619076715759686 27.958579881656807, 24.92969129973685 28.757396449704142, 25.855908762574426 29.55621301775148, 27.200600322830947 30.355029585798817, 28.20257115184096 31.153846153846157, 31.729825074543168 31.95266272189349, 29.580915471326204 32.751479289940825, 25.48110823611488 33.55029585798817, 28.187817089821305 34.349112426035504, 28.070275321304276 35.14792899408284, 26.243460544726936 35.94674556213018, 25.559824987130092 36.74556213017752, 24.051926966857714 37.54437869822485, 24.518511974822964 38.34319526627219, 22.225979631426977 39.142011834319526, 22.726578400077184 39.94082840236687, 43.82349743383595 40.7396449704142, 44.31522877225088 41.53846153846154, 26.492306892875256 42.337278106508876, 25.806985577978438 43.13609467455622, 25.262243956762788 43.93491124260355, 23.35173279592848 44.73372781065089, 22.419436423857043 45.532544378698226, 17.824965087484497 46.33136094674556, 17.907153400569044 47.1301775147929, 17.538611470642486 47.928994082840234, 18.708165133862106 48.72781065088758, 19.38367853687871 49.52662721893491, 20.933022413889535 50.32544378698225, 21.559300611789613 51.124260355029584, 19.8737952179846 51.92307692307693, 19.39380710525306 52.72189349112426, 18.880655827700778 53.5207100591716, 19.39454235240602 54.319526627218934, 15.144164886919828 55.11834319526627, 16.148551500706393 55.91715976331361, 45.26121391522363 56.71597633136094, 50.0 57.514792899408285, 49.857544945473954 58.31360946745562, 18.03094418334215 59.11242603550296, 20.329094797733827 59.91124260355029, 21.16387212201821 60.710059171597635, 24.834017289686372 61.50887573964497, 25.976658168356064 62.307692307692314, 24.63023613566824 63.10650887573964, 21.80282628844529 63.90532544378698, 23.865792710689917 64.70414201183432, 26.18940953234774 65.50295857988165, 24.745426213662157 66.30177514792899, 23.675951866405885 67.10059171597634, 24.352587546310854 67.89940828402366, 23.847459778874125 68.69822485207101, 25.387661500866944 69.49704142011834, 23.983461431143542 70.29585798816568, 27.4200765980342 71.09467455621302, 25.261808454271637 71.89349112426036, 23.366934933670137 72.6923076923077, 23.169183681044405 73.49112426035504, 21.455766556229257 74.28994082840237, 18.88957619035714 75.0887573964497, 20.24659714634469 75.88757396449704, 23.94459079236189 76.68639053254438, 24.169978687658666 77.48520710059172, 23.47589421920074 78.28402366863905, 22.514562610147824 79.0828402366864, 21.442705571626508 79.88165680473374, 20.996291904605062 80.68047337278107, 20.05398945215646 81.4792899408284, 20.619679443701738 82.27810650887574, 20.158155205268972 83.07692307692308, 16.079378245522605 83.87573964497041, 14.575706058092381 84.67455621301775, 15.487483681460917 85.4733727810651, 15.776435222053257 86.27218934911244, 15.609516635744589 87.07100591715975, 18.273641956851712 87.8698224852071, 18.221407740210125 88.66863905325444, 19.000769276227945 89.46745562130178, 16.134591877095357 90.26627218934911, 16.68545105056741 91.06508875739645, 14.735802705450526 91.8639053254438, 14.785100509721861 92.66272189349112, 13.6575321543564 93.46153846153845, 13.801801111685213 94.2603550295858, 13.863637836838777 95.05917159763314, 13.586196379798926 95.85798816568047, 14.74439720093007 96.65680473372781, 13.915778873278411 97.45562130177515, 12.89654928210905 98.2544378698225, 12.998612144171293 99.05325443786982, 14.15797927018819 99.85207100591715, 16.10520126432037 100.6508875739645, 17.57530240899772 101.44970414201183, 15.871656765420678 102.24852071005917, 15.167715287570067 103.04733727810651, 15.67924346293281 103.84615384615385, 17.258072874381263 104.64497041420118, 18.40352069468573 105.44378698224853, 17.086744851481324 106.24260355029585, 15.569005172995812 107.0414201183432, 14.231703342074464 107.84023668639053, 13.186950959328836 108.63905325443787, 17.189318184830615 109.43786982248521, 16.22843644695612 110.23668639053254, 12.18914729933405 111.03550295857988, 12.897667626918096 111.83431952662723, 14.061887803121701 112.63313609467457, 11.767413544664244 113.43195266272188, 13.07747717103048 114.23076923076923, 13.86067862007739 115.02958579881657, 13.612909661275602 115.82840236686391, 11.760981707660468 116.62721893491124, 13.257935906769767 117.42603550295858, 12.91131236978616 118.22485207100593, 9.180681869591806 119.02366863905324, 13.432454741064204 119.82248520710058, 13.100816809398236 120.62130177514793, 12.947658633980089 121.42011834319527, 15.978565239654468 122.2189349112426, 15.386975387795538 123.01775147928994, 18.75261493995148 123.81656804733728, 16.426042249209864 124.61538461538463, 17.89931822970554 125.41420118343194, 18.099953931674055 126.21301775147928, 17.122220425114715 127.01183431952663, 13.958804326864783 127.81065088757396, 10.303923121069115 128.60946745562129, 5.6519758457655875 129.40828402366864, 7.593352203536597 130.20710059171597, 8.877026663780581 131.0059171597633, 0.9940065320641192 131.80473372781066, 0.0 132.60355029585799, 3.2105100018267683 133.40236686390534, 2.694498109289795 134.20118343195267, 1.519348505840098" fill="none" stroke="#32ca5b" stroke-width="1.25"/>

</svg>