<?xml version="1.0" standalone="no"?>
<!DOCTYPE svg PUBLIC "-//W3C//DTD SVG 1.1//EN" "http://www.w3.org/Graphics/SVG/1.1/DTD/svg11.dtd">

<svg width="135" height="50" viewBox="0 0 135 50" preserveAspectRatio="none" 
  xmlns="http://www.w3.org/2000/svg"
  xmlns:xlink="http://www.w3.org/1999/xlink">


<polyline points="0.0, 0.06812156599903448 0.7988165680473372, 7.730563776836384 1.5976331360946745, 6.143951669573518 2.396449704142012, 9.859511315255547 3.195266272189349, 8.720023465053275 3.994082840236686, 9.021460076536487 4.792899408284024, 6.402543948074037 5.591715976331361, 7.595014027526273 6.390532544378698, 7.789329776544288 7.189349112426036, 9.885825946955604 7.988165680473372, 5.48464046294982 8.78698224852071, 2.230552860184349 9.585798816568047, 5.233346992880199 10.384615384615385, 0.0 11.183431952662723, 18.767032559306987 11.982248520710058, 29.019635474009192 12.781065088757396, 29.761574368189603 13.579881656804734, 32.293889320603974 14.378698224852071, 27.477599966448224 15.177514792899409, 22.339690523667738 15.976331360946745, 20.610537095269336 16.775147928994084, 21.24695773060272 17.57396449704142, 19.66534057279235 18.37278106508876, 21.230917436241427 19.171597633136095, 23.95498764102409 19.970414201183434, 25.1280278581642 20.76923076923077, 24.24412140342919 21.56804733727811, 21.67967694274234 22.366863905325445, 22.8251485084026 23.16568047337278, 25.340953044559466 23.964497041420117, 29.105784003408402 24.763313609467456, 30.424006162018873 25.562130177514792, 27.355759125104523 26.36094674556213, 37.908726969751115 27.159763313609467, 34.74852264295824 27.958579881656807, 38.295475708029365 28.757396449704142, 36.55923753225562 29.55621301775148, 36.68614633143441 30.355029585798817, 40.58275933382362 31.153846153846157, 43.04072362081845 31.95266272189349, 46.044578064342524 32.751479289940825, 47.531431899492596 33.55029585798817, 50.0 34.349112426035504, 46.070390793254795 35.14792899408284, 48.905345429628895 35.94674556213018, 40.650370385563804 36.74556213017752, 37.80060420050908 37.54437869822485, 34.11536173074069 38.34319526627219, 36.077938433172754 39.142011834319526, 28.703895557610938 39.94082840236687, 20.508203073208758 40.7396449704142, 29.40628736240382 41.53846153846154, 29.817298833427706 42.337278106508876, 29.727652543172827 43.13609467455622, 25.809568643460924 43.93491124260355, 29.5259693523999 44.73372781065089, 31.854009444142328 45.532544378698226, 24.327182629161072 46.33136094674556, 25.333503693273045 47.1301775147929, 25.840889207410555 47.928994082840234, 28.408721438926403 48.72781065088758, 32.55223782238236 49.52662721893491, 27.543294098456112 50.32544378698225, 28.960154715690006 51.124260355029584, 30.376218814937822 51.92307692307693, 29.902868018154273 52.72189349112426, 27.973090348306183 53.5207100591716, 29.021667907429265 54.319526627218934, 29.056690371471934 55.11834319526627, 30.290786803912496 55.91715976331361, 30.262301454721758 56.71597633136094, 30.55866884918605 57.514792899408285, 28.818533760936322 58.31360946745562, 30.483471973381633 59.11242603550296, 31.359502897197185 59.91124260355029, 35.27259723036698 60.710059171597635, 35.84071015154836 61.50887573964497, 34.79030636638153 62.307692307692314, 35.51446492904917 63.10650887573964, 40.343572504114455 63.90532544378698, 41.88131863939021 64.70414201183432, 41.329220681152584 65.50295857988165, 38.52349499283897 66.30177514792899, 39.08785991423671 67.10059171597634, 39.61024911671445 67.89940828402366, 38.08658962476432 68.69822485207101, 36.89717395390183 69.49704142011834, 44.19679645807807 70.29585798816568, 42.54368674482168 71.09467455621302, 38.90206348751666 71.89349112426036, 38.88604143635676 72.6923076923077, 36.82375917707786 73.49112426035504, 35.68949359350198 74.28994082840237, 35.73033009912624 75.0887573964497, 37.58502039555574 75.88757396449704, 40.235650568784884 76.68639053254438, 37.04360346850982 77.48520710059172, 37.733286377540615 78.28402366863905, 36.73752232722731 79.0828402366864, 28.52745844064953 79.88165680473374, 26.1920084906824 80.68047337278107, 25.574749958405718 81.4792899408284, 33.33404996460892 82.27810650887574, 32.17077854927473 83.07692307692308, 32.44130357949101 83.87573964497041, 28.644573163220265 84.67455621301775, 30.584271964120774 85.4733727810651, 30.555846726689722 86.27218934911244, 32.262185591603846 87.07100591715975, 31.445385280532307 87.8698224852071, 32.20540938002176 88.66863905325444, 33.52956563911589 89.46745562130178, 31.976440549745462 90.26627218934911, 30.23751232123228 91.06508875739645, 30.38861076187492 91.8639053254438, 30.93875378785923 92.66272189349112, 30.567074211001856 93.46153846153845, 30.65597175487344 94.2603550295858, 30.64577726266322 95.05917159763314, 29.955515472659005 95.85798816568047, 29.646963002430155 96.65680473372781, 28.270253047631876 97.45562130177515, 26.735471760458275 98.2544378698225, 31.76234103195204 99.05325443786982, 31.870164762722975 99.85207100591715, 32.51375374854118 100.6508875739645, 32.10045330698816 101.44970414201183, 31.782128849297298 102.24852071005917, 33.20140252732367 103.04733727810651, 32.591019162706445 103.84615384615385, 30.847548418110748 104.64497041420118, 29.807553271802185 105.44378698224853, 27.07042869037297 106.24260355029585, 30.935693842732903 107.0414201183432, 30.77253629106166 107.84023668639053, 33.314325123971464 108.63905325443787, 33.23100170032544 109.43786982248521, 31.918334786186332 110.23668639053254, 30.490853635087685 111.03550295857988, 29.969102529903086 111.83431952662723, 28.88732126141588 112.63313609467457, 29.172392655407855 113.43195266272188, 31.608644776158524 114.23076923076923, 32.169745633084815 115.02958579881657, 31.665322717553668 115.82840236686391, 31.394135075580376 116.62721893491124, 31.75822054205057 117.42603550295858, 22.36352202910301 118.22485207100593, 22.134047390529496 119.02366863905324, 24.997078375858262 119.82248520710058, 27.632372537677547 120.62130177514793, 28.46869187312171 121.42011834319527, 27.867471886327777 122.2189349112426, 30.20079225363891 123.01775147928994, 28.199142006370153 123.81656804733728, 28.71354909146826 124.61538461538463, 28.628592148509664 125.41420118343194, 29.346026880877407 126.21301775147928, 25.556002070407242 127.01183431952663, 19.719096397168688 127.81065088757396, 16.439630536229302 128.60946745562129, 15.421263586859983 129.40828402366864, 18.379342457750788 130.20710059171597, 15.879275287603049 131.0059171597633, 15.815032402467205 131.80473372781066, 15.004781297328776 132.60355029585799, 11.685462833379132 133.40236686390534, 10.013335165502072 134.20118343195267, 6.849667243217729" fill="none" stroke="#ff3a33" stroke-width="1.25"/>

</svg>