<?xml version="1.0" standalone="no"?>
<!DOCTYPE svg PUBLIC "-//W3C//DTD SVG 1.1//EN" "http://www.w3.org/Graphics/SVG/1.1/DTD/svg11.dtd">

<svg width="135" height="50" viewBox="0 0 135 50" preserveAspectRatio="none" 
  xmlns="http://www.w3.org/2000/svg"
  xmlns:xlink="http://www.w3.org/1999/xlink">


<polyline points="0.0, 35.4234352419726 0.8035714285714285, 38.39673716766082 1.607142857142857, 35.81756068312718 2.4107142857142856, 37.78101573761451 3.214285714285714, 35.87863319695002 4.017857142857142, 34.41738909545702 4.821428571428571, 34.034417614072474 5.625, 34.17864232118443 6.428571428571428, 35.92376392913266 7.232142857142857, 37.23142004770709 8.035714285714285, 35.44650224116373 8.839285714285715, 33.97215552081953 9.642857142857142, 35.316496870061655 10.446428571428571, 32.22260394750093 11.25, 38.558194037469804 12.053571428571429, 43.90338515183636 12.857142857142856, 46.66491180673967 13.660714285714286, 45.290553689540985 14.464285714285714, 42.061616764509026 15.267857142857142, 37.78326477176833 16.07142857142857, 35.283764349370294 16.875, 33.574032906764806 17.67857142857143, 33.31219801749054 18.482142857142858, 34.414187793417504 19.285714285714285, 37.899245036258165 20.089285714285715, 38.02730367889769 20.892857142857142, 37.40593793362128 21.696428571428573, 38.083549126830555 22.5, 40.6814576234313 23.303571428571427, 42.63677437420692 24.107142857142858, 44.113691115741474 24.91071428571429, 44.31326300816929 25.71428571428571, 42.41319480401988 26.517857142857142, 46.54035551540045 27.321428571428573, 45.224709722071275 28.125, 47.234965828008846 28.928571428571427, 44.40756452195874 29.732142857142858, 46.64131391477963 30.535714285714285, 50.0 31.339285714285715, 46.82250244502657 32.14285714285714, 44.99533972162339 32.94642857142857, 46.55306259699886 33.75, 48.166220283255115 34.55357142857142, 47.33159283363317 35.35714285714286, 46.54905399939147 36.160714285714285, 43.58176363353377 36.964285714285715, 42.859131839438255 37.767857142857146, 39.63791998881781 38.57142857142857, 44.27511987233561 39.375, 48.30074319406363 40.17857142857143, 46.45828291296769 40.982142857142854, 42.009195803263815 41.785714285714285, 43.75203022688549 42.589285714285715, 42.52757557963558 43.392857142857146, 38.78039579356713 44.19642857142857, 36.80671019004456 45.0, 33.25523958431728 45.80357142857143, 30.53319832612838 46.607142857142854, 24.774141516437197 47.410714285714285, 26.623316362372396 48.214285714285715, 30.198463157028932 49.01785714285714, 34.136960716922324 49.82142857142858, 32.752310013657315 50.625, 32.81795845440653 51.42857142857142, 34.3774940995068 52.23214285714286, 32.523837157393984 53.035714285714285, 28.68004722187269 53.839285714285715, 29.931235896912646 54.642857142857146, 28.309843584127066 55.44642857142857, 30.831032280557974 56.25, 28.895433992715475 57.05357142857143, 30.310182763029538 57.857142857142854, 32.12891915456216 58.660714285714285, 32.63822094411773 59.464285714285715, 34.88203611209325 60.267857142857146, 35.53149698955703 61.07142857142857, 31.30712812488498 61.875, 27.91962340865209 62.67857142857143, 27.01430693625247 63.482142857142854, 29.775686831201032 64.28571428571428, 33.524570234717174 65.08928571428572, 28.411664467848972 65.89285714285714, 29.073304874006674 66.69642857142857, 28.58392475466153 67.5, 30.380447748698007 68.30357142857143, 31.902093705938476 69.10714285714285, 34.35132779548884 69.91071428571429, 36.52207644353294 70.71428571428572, 36.74559257980667 71.51785714285714, 34.37973550626766 72.32142857142857, 35.01388931008428 73.125, 35.241405205871125 73.92857142857143, 34.110113910906676 74.73214285714286, 35.016088413013605 75.53571428571429, 38.337343469615504 76.33928571428571, 38.74749142064979 77.14285714285714, 40.09484411474421 77.94642857142857, 44.317661540800245 78.75, 42.655392959637965 79.55357142857143, 41.51818149889352 80.35714285714286, 40.38252511966788 81.16071428571428, 39.63627372826306 81.96428571428571, 41.74776606122082 82.76785714285715, 39.68848589055332 83.57142857142857, 40.48416376742311 84.375, 39.100816493762935 85.17857142857143, 38.758717599081955 85.98214285714285, 38.22850617505944 86.78571428571429, 38.950932720355006 87.58928571428572, 38.08499859039258 88.39285714285714, 39.20865963964466 89.19642857142857, 39.88770055483163 90.0, 38.14388888347329 90.80357142857143, 34.44225207736061 91.60714285714286, 35.95276635490035 92.41071428571429, 35.26320776118073 93.21428571428571, 34.47653404972526 94.01785714285714, 32.35152834643629 94.82142857142857, 33.78366598909503 95.625, 34.131133234993726 96.42857142857143, 34.842395939175155 97.23214285714286, 33.6394744977824 98.03571428571428, 30.908502347651854 98.83928571428571, 29.503174765290517 99.64285714285715, 27.804665438238622 100.44642857142857, 29.714493670210736 101.25, 30.614734979909606 102.05357142857143, 32.12314693546225 102.85714285714285, 33.30996256960315 103.66071428571429, 31.50566825262107 104.46428571428572, 32.36532925354268 105.26785714285714, 32.60654730445705 106.07142857142857, 31.936565674893586 106.875, 31.873906599818273 107.67857142857143, 34.27293586251839 108.48214285714286, 34.75417039391424 109.28571428571429, 33.8804058586167 110.08928571428571, 32.596305824968866 110.89285714285714, 31.441898570721964 111.69642857142857, 30.145178080591617 112.5, 31.003370634814836 113.30357142857143, 31.140655884291835 114.10714285714286, 31.732206700524067 114.91071428571428, 31.39286395037647 115.71428571428571, 25.620841497717283 116.51785714285715, 23.926984649069265 117.32142857142857, 20.89983459425155 118.125, 22.568312656201968 118.92857142857143, 16.428969535942638 119.73214285714285, 13.986054870984402 120.53571428571429, 16.566103527892157 121.33928571428572, 19.58373567479745 122.14285714285714, 18.976631396104278 122.94642857142857, 23.387435600298694 123.75, 18.850318674542336 124.55357142857143, 12.06575694660937 125.35714285714286, 10.88737347109786 126.16071428571429, 3.8350428832921857 126.96428571428571, 6.852177465360372 127.76785714285714, 10.513334812103537 128.57142857142856, 9.336773301777177 129.375, 6.837782916923982 130.17857142857144, 5.284486127840187 130.98214285714286, 6.296677149242778 131.78571428571428, 5.302051788904549 132.5892857142857, 3.826381879463851 133.39285714285714, 0.0 134.19642857142858, 0.6824920041678977" fill="none" stroke="#32ca5b" stroke-width="1.25"/>

</svg>