<?xml version="1.0" standalone="no"?>
<!DOCTYPE svg PUBLIC "-//W3C//DTD SVG 1.1//EN" "http://www.w3.org/Graphics/SVG/1.1/DTD/svg11.dtd">

<svg width="135" height="50" viewBox="0 0 135 50" preserveAspectRatio="none" 
  xmlns="http://www.w3.org/2000/svg"
  xmlns:xlink="http://www.w3.org/1999/xlink">


<polyline points="0.0, 50.0 0.7988165680473372, 49.11164682662471 1.5976331360946745, 47.60401604389927 2.396449704142012, 43.7245010203967 3.195266272189349, 44.11321677547221 3.994082840236686, 44.184811803472584 4.792899408284024, 43.45682469037172 5.591715976331361, 42.441788335863166 6.390532544378698, 39.211782211145305 7.189349112426036, 26.55853197266127 7.988165680473372, 29.371390745169133 8.78698224852071, 31.176543152822372 9.585798816568047, 30.20617959288281 10.384615384615385, 26.680563169120525 11.183431952662723, 28.587412999782057 11.982248520710058, 32.562401424642 12.781065088757396, 19.132148723189136 13.579881656804734, 23.547790686603644 14.378698224852071, 14.981723699716284 15.177514792899409, 8.520338402578679 15.976331360946745, 11.186927683833048 16.775147928994084, 9.569741872208635 17.57396449704142, 10.59727742961989 18.37278106508876, 13.409382698837655 19.171597633136095, 12.681548418945368 19.970414201183434, 11.774577352371026 20.76923076923077, 10.07278410101056 21.56804733727811, 9.589433281336401 22.366863905325445, 9.643190269353614 23.16568047337278, 10.411654695002902 23.964497041420117, 10.71432516545806 24.763313609467456, 11.284031263951798 25.562130177514792, 21.591013093008826 26.36094674556213, 24.518455096132826 27.159763313609467, 26.26467102278746 27.958579881656807, 25.74138695281566 28.757396449704142, 26.189111864245906 29.55621301775148, 27.34594412824795 30.355029585798817, 29.1776963274767 31.153846153846157, 30.96929323855883 31.95266272189349, 33.976805855390666 32.751479289940825, 33.90178358350782 33.55029585798817, 28.227065976810277 34.349112426035504, 28.604891769941222 35.14792899408284, 30.437782675136916 35.94674556213018, 29.86531891025471 36.74556213017752, 28.399333274976907 37.54437869822485, 24.951173042832526 38.34319526627219, 28.07970678503398 39.142011834319526, 28.46464310593561 39.94082840236687, 31.761019989081806 40.7396449704142, 30.32261955660296 41.53846153846154, 32.02174193458753 42.337278106508876, 31.90129983814022 43.13609467455622, 28.007069915836592 43.93491124260355, 27.85309077309208 44.73372781065089, 27.055437904269898 45.532544378698226, 26.56323600897792 46.33136094674556, 25.212866888453622 47.1301775147929, 25.153896902641392 47.928994082840234, 21.64118539669805 48.72781065088758, 16.137112691384147 49.52662721893491, 18.87047908524087 50.32544378698225, 19.508467196582952 51.124260355029584, 17.614953568080086 51.92307692307693, 19.022845741425947 52.72189349112426, 17.306033416169946 53.5207100591716, 18.200458593948817 54.319526627218934, 11.17422371999077 55.11834319526627, 8.791648200834633 55.91715976331361, 11.507346949378276 56.71597633136094, 15.59070888861743 57.514792899408285, 17.538725118820896 58.31360946745562, 17.463861892930648 59.11242603550296, 18.457165592631146 59.91124260355029, 26.32822370766205 60.710059171597635, 27.173943967037356 61.50887573964497, 27.7114289644177 62.307692307692314, 27.548712361165155 63.10650887573964, 29.18026613505199 63.90532544378698, 31.32782249223338 64.70414201183432, 35.023534283104766 65.50295857988165, 30.63504554759902 66.30177514792899, 31.038088834809063 67.10059171597634, 31.128255067534845 67.89940828402366, 30.956132514005198 68.69822485207101, 31.231042430894117 69.49704142011834, 30.715718191076384 70.29585798816568, 32.07093886199701 71.09467455621302, 35.17771144908149 71.89349112426036, 35.888405792546145 72.6923076923077, 34.452399027744896 73.49112426035504, 32.802241133981994 74.28994082840237, 34.33173947203314 75.0887573964497, 33.18816617965592 75.88757396449704, 36.211938069003835 76.68639053254438, 35.10707504335531 77.48520710059172, 34.224522257168935 78.28402366863905, 35.257581404114696 79.0828402366864, 35.8111640890324 79.88165680473374, 35.78546216340167 80.68047337278107, 31.40307225530281 81.4792899408284, 32.25219452657232 82.27810650887574, 33.47847896273456 83.07692307692308, 26.620941950464193 83.87573964497041, 26.33376811701758 84.67455621301775, 28.918982496748185 85.4733727810651, 28.48702530028943 86.27218934911244, 25.13967578940554 87.07100591715975, 14.165571458397332 87.8698224852071, 9.850714446671184 88.66863905325444, 15.513929530006923 89.46745562130178, 16.51794698836296 90.26627218934911, 16.271919198102022 91.06508875739645, 13.122909737054014 91.8639053254438, 10.783869201462156 92.66272189349112, 15.293026556399603 93.46153846153845, 14.584397119561803 94.2603550295858, 11.0013363590941 95.05917159763314, 11.072655803236694 95.85798816568047, 8.717910816019083 96.65680473372781, 13.543712637096661 97.45562130177515, 13.824690079160568 98.2544378698225, 13.912455421282546 99.05325443786982, 13.699202800620553 99.85207100591715, 9.848937068886979 100.6508875739645, 9.334174642670583 101.44970414201183, 9.563312770767936 102.24852071005917, 6.691620575098146 103.04733727810651, 5.47987336274311 103.84615384615385, 5.650063452598133 104.64497041420118, 0.0 105.44378698224853, 1.3126514661904616 106.24260355029585, 7.880695743965389 107.0414201183432, 8.777293761580115 107.84023668639053, 1.390118690635481 108.63905325443787, 2.286500435009338 109.43786982248521, 7.703135324409352 110.23668639053254, 13.601780547203568 111.03550295857988, 7.376136605946498 111.83431952662723, 12.17070290374543 112.63313609467457, 13.076501137508378 113.43195266272188, 14.186238160988928 114.23076923076923, 14.60589076032707 115.02958579881657, 16.715883999629394 115.82840236686391, 16.636354625055137 116.62721893491124, 16.056291735923946 117.42603550295858, 17.587508006360043 118.22485207100593, 18.221411625319163 119.02366863905324, 19.357116913633707 119.82248520710058, 15.008067340156908 120.62130177514793, 21.23733286865821 121.42011834319527, 22.944850340738277 122.2189349112426, 27.159997215407778 123.01775147928994, 27.45125429993353 123.81656804733728, 28.828017066469286 124.61538461538463, 26.36555289056505 125.41420118343194, 27.87402501627823 126.21301775147928, 25.89682469684465 127.01183431952663, 26.490239114693797 127.81065088757396, 23.993749863298248 128.60946745562129, 25.005292827551994 129.40828402366864, 26.764919752744866 130.20710059171597, 23.844976797270004 131.0059171597633, 22.769975041040592 131.80473372781066, 18.87231312255637 132.60355029585799, 18.53718399199263 133.40236686390534, 19.151597253567225 134.20118343195267, 19.632021220004127" fill="none" stroke="#32ca5b" stroke-width="1.25"/>

</svg>