<?xml version="1.0" standalone="no"?>
<!DOCTYPE svg PUBLIC "-//W3C//DTD SVG 1.1//EN" "http://www.w3.org/Graphics/SVG/1.1/DTD/svg11.dtd">

<svg width="135" height="50" viewBox="0 0 135 50" preserveAspectRatio="none" 
  xmlns="http://www.w3.org/2000/svg"
  xmlns:xlink="http://www.w3.org/1999/xlink">


<polyline points="0.0, 48.49463139212856 0.7988165680473372, 48.76937988590673 1.5976331360946745, 49.234479959406876 2.396449704142012, 49.280528677966885 3.195266272189349, 50.0 3.994082840236686, 49.640716708653336 4.792899408284024, 49.37158404764496 5.591715976331361, 48.9400246685136 6.390532544378698, 49.064386225692616 7.189349112426036, 47.6963098603873 7.988165680473372, 46.52790594012754 8.78698224852071, 45.67380359475053 9.585798816568047, 42.36246865406679 10.384615384615385, 42.985985611173575 11.183431952662723, 43.18303639420034 11.982248520710058, 35.67326512482496 12.781065088757396, 39.923995527876215 13.579881656804734, 48.45059258662794 14.378698224852071, 42.8345993309556 15.177514792899409, 43.6187294360211 15.976331360946745, 41.84061354726852 16.775147928994084, 42.26476284957967 17.57396449704142, 42.24318191344255 18.37278106508876, 42.7213910452967 19.171597633136095, 41.948122086385055 19.970414201183434, 42.49194710342421 20.76923076923077, 41.54054416615694 21.56804733727811, 41.01967825687592 22.366863905325445, 39.922439505548965 23.16568047337278, 39.78967808711455 23.964497041420117, 36.302929349805645 24.763313609467456, 36.7317290821733 25.562130177514792, 38.66124192073096 26.36094674556213, 37.48494597961041 27.159763313609467, 41.21689855484051 27.958579881656807, 44.93627909210055 28.757396449704142, 44.38709257130024 29.55621301775148, 45.9268101758963 30.355029585798817, 46.972002968879515 31.153846153846157, 46.89559373568688 31.95266272189349, 46.66979119280814 32.751479289940825, 45.415828302118925 33.55029585798817, 47.71768779356375 34.349112426035504, 47.368138214701325 35.14792899408284, 45.08244092749224 35.94674556213018, 45.896245586711906 36.74556213017752, 46.86451635788823 37.54437869822485, 46.572717557505115 38.34319526627219, 43.932659001359845 39.142011834319526, 49.052333539919516 39.94082840236687, 46.89034429856257 40.7396449704142, 48.828666181215155 41.53846153846154, 42.81845013800428 42.337278106508876, 40.664183482583034 43.13609467455622, 31.07102343950352 43.93491124260355, 33.791089154081256 44.73372781065089, 36.374749786567264 45.532544378698226, 22.741490652413702 46.33136094674556, 18.988578618625805 47.1301775147929, 19.367488436462878 47.928994082840234, 18.512835103601134 48.72781065088758, 29.534325197923827 49.52662721893491, 16.468647754093638 50.32544378698225, 14.837399911180787 51.124260355029584, 14.801492327810328 51.92307692307693, 4.201148406972827 52.72189349112426, 14.778364877381128 53.5207100591716, 19.996860243114725 54.319526627218934, 20.427481505098033 55.11834319526627, 19.220761858550915 55.91715976331361, 19.699988180406486 56.71597633136094, 20.988219323157754 57.514792899408285, 16.695976920696946 58.31360946745562, 18.009434760094265 59.11242603550296, 16.738615141137867 59.91124260355029, 30.925065688022453 60.710059171597635, 26.897132657289657 61.50887573964497, 18.753841682273066 62.307692307692314, 20.03753976144278 63.10650887573964, 1.4276487369472608 63.90532544378698, 6.990291762305782 64.70414201183432, 11.05567677248673 65.50295857988165, 7.7931936908926716 66.30177514792899, 9.012315142163835 67.10059171597634, 9.19151972097273 67.89940828402366, 15.990315546688336 68.69822485207101, 11.90553503367163 69.49704142011834, 12.232337220371212 70.29585798816568, 14.56578656904207 71.09467455621302, 12.209412281422697 71.89349112426036, 12.239156472533542 72.6923076923077, 9.938029270707121 73.49112426035504, 10.020358143773947 74.28994082840237, 9.261380252793218 75.0887573964497, 9.352326990431358 75.88757396449704, 13.99321650191501 76.68639053254438, 7.611706780205021 77.48520710059172, 7.3839425588962175 78.28402366863905, 11.473025998271803 79.0828402366864, 9.996621122007118 79.88165680473374, 9.38526198928712 80.68047337278107, 11.210614881334081 81.4792899408284, 7.715212460966146 82.27810650887574, 7.777680597666784 83.07692307692308, 5.13347909871018 83.87573964497041, 5.450900006080421 84.67455621301775, 1.7654597301428019 85.4733727810651, 0.6399720096313104 86.27218934911244, 2.2115667099378498 87.07100591715975, 4.316976158177395 87.8698224852071, 2.5148843104086267 88.66863905325444, 2.697092929792987 89.46745562130178, 5.784670445517542 90.26627218934911, 3.643901827701865 91.06508875739645, 4.179163537505835 91.8639053254438, 13.9937439651758 92.66272189349112, 4.431739668083367 93.46153846153845, 4.684655387856694 94.2603550295858, 5.068899467426628 95.05917159763314, 4.158269953924839 95.85798816568047, 3.241098625752582 96.65680473372781, 2.9181397660517647 97.45562130177515, 2.3158902239242996 98.2544378698225, 0.0 99.05325443786982, 3.631177595694849 99.85207100591715, 0.026165885631430165 100.6508875739645, 1.0268570962492087 101.44970414201183, 2.2644887110178926 102.24852071005917, 4.397765932611088 103.04733727810651, 7.126047630575366 103.84615384615385, 15.955023187677916 104.64497041420118, 17.87768952465963 105.44378698224853, 39.73474044105887 106.24260355029585, 39.95430956425262 107.0414201183432, 38.959100333047026 107.84023668639053, 39.02280625224717 108.63905325443787, 38.251541721027564 109.43786982248521, 37.73762489303168 110.23668639053254, 34.710861020109924 111.03550295857988, 35.65418719891604 111.83431952662723, 35.34933266035341 112.63313609467457, 5.838066222685899 113.43195266272188, 4.154029368285618 114.23076923076923, 4.065684558817484 115.02958579881657, 1.0203938845651326 115.82840236686391, 33.81793003714042 116.62721893491124, 35.093986930606455 117.42603550295858, 33.134445963282246 118.22485207100593, 32.88448432612619 119.02366863905324, 32.66892773220421 119.82248520710058, 32.498055470005696 120.62130177514793, 32.560647420969566 121.42011834319527, 32.29317105966623 122.2189349112426, 32.19009440581734 123.01775147928994, 31.931337793031357 123.81656804733728, 40.21606967900471 124.61538461538463, 41.30220550012974 125.41420118343194, 41.258171723910074 126.21301775147928, 41.276126174242144 127.01183431952663, 41.23054332920162 127.81065088757396, 41.058139223767284 128.60946745562129, 40.805760670645995 129.40828402366864, 40.791725133071616 130.20710059171597, 41.01830393617361 131.0059171597633, 40.66011221755733 131.80473372781066, 40.91777689280881 132.60355029585799, 40.78769327815163 133.40236686390534, 40.86601271654608 134.20118343195267, 40.49945689384998" fill="none" stroke="#32ca5b" stroke-width="1.25"/>

</svg>