<?xml version="1.0" standalone="no"?>
<!DOCTYPE svg PUBLIC "-//W3C//DTD SVG 1.1//EN" "http://www.w3.org/Graphics/SVG/1.1/DTD/svg11.dtd">

<svg width="135" height="50" viewBox="0 0 135 50" preserveAspectRatio="none" 
  xmlns="http://www.w3.org/2000/svg"
  xmlns:xlink="http://www.w3.org/1999/xlink">


<polyline points="0.0, 29.020552015073147 0.7988165680473372, 26.341189441983925 1.5976331360946745, 26.09397630904335 2.396449704142012, 25.253996120543405 3.195266272189349, 29.892218787444918 3.994082840236686, 32.11797912420348 4.792899408284024, 32.01340331986239 5.591715976331361, 32.314306173030566 6.390532544378698, 33.01243958060869 7.189349112426036, 32.92024748270306 7.988165680473372, 33.982238214671014 8.78698224852071, 32.977899840924394 9.585798816568047, 31.881985823849586 10.384615384615385, 33.67651227557491 11.183431952662723, 33.358381405353654 11.982248520710058, 37.83968354333079 12.781065088757396, 42.89054559470743 13.579881656804734, 45.058717777569925 14.378698224852071, 43.599231805897645 15.177514792899409, 43.6655230513041 15.976331360946745, 42.177944626621375 16.775147928994084, 41.8345082391735 17.57396449704142, 41.688995864704175 18.37278106508876, 40.52669629014608 19.171597633136095, 39.8436659899009 19.970414201183434, 39.19653530093179 20.76923076923077, 39.283202379862416 21.56804733727811, 40.574367746677 22.366863905325445, 41.00330493338474 23.16568047337278, 41.357539576518455 23.964497041420117, 42.19357656398028 24.763313609467456, 44.036813960904645 25.562130177514792, 45.062165603493334 26.36094674556213, 45.289892401405986 27.159763313609467, 48.37104221492772 27.958579881656807, 47.24297607512683 28.757396449704142, 48.21336955154176 29.55621301775148, 46.605132737780835 30.355029585798817, 47.942546528754974 31.153846153846157, 50.0 31.95266272189349, 48.84334092457211 32.751479289940825, 48.101704519715426 33.55029585798817, 40.99166965028708 34.349112426035504, 38.53503622170967 35.14792899408284, 39.726708462339424 35.94674556213018, 42.67092103209852 36.74556213017752, 41.79555892635797 37.54437869822485, 40.82485198849317 38.34319526627219, 40.67321557908482 39.142011834319526, 42.711758045016154 39.94082840236687, 44.401971192932685 40.7396449704142, 44.1226143792524 41.53846153846154, 42.93177484859185 42.337278106508876, 44.097174869173074 43.13609467455622, 44.87452922812105 43.93491124260355, 42.370373501011265 44.73372781065089, 42.77811359487417 45.532544378698226, 42.768646533932014 46.33136094674556, 41.67436897628177 47.1301775147929, 43.342700437330045 47.928994082840234, 43.69257068072401 48.72781065088758, 43.94519419322567 49.52662721893491, 45.796418562787 50.32544378698225, 44.98050492667843 51.124260355029584, 43.80894148960139 51.92307692307693, 44.65793900027071 52.72189349112426, 43.01154680524861 53.5207100591716, 41.842119294167254 54.319526627218934, 42.53028042833637 55.11834319526627, 41.43531763997343 55.91715976331361, 43.23114833474682 56.71597633136094, 43.04884700133208 57.514792899408285, 44.39097974120663 58.31360946745562, 44.05548201346707 59.11242603550296, 44.576550095127985 59.91124260355029, 46.0511338235543 60.710059171597635, 46.1025684073581 61.50887573964497, 45.7301583391526 62.307692307692314, 40.008241406583736 63.10650887573964, 39.43957828776614 63.90532544378698, 40.259018726470636 64.70414201183432, 42.06849223401854 65.50295857988165, 41.48752423222582 66.30177514792899, 37.025588577824905 67.10059171597634, 38.13719379505924 67.89940828402366, 40.04513460475994 68.69822485207101, 40.633615531774 69.49704142011834, 42.54164254968145 70.29585798816568, 43.9476611713518 71.09467455621302, 42.52364773932568 71.89349112426036, 41.83499765305006 72.6923076923077, 42.0433394669556 73.49112426035504, 41.6533581969938 74.28994082840237, 40.91469677517518 75.0887573964497, 42.142888309669985 75.88757396449704, 39.615417448774956 76.68639053254438, 39.79712850046889 77.48520710059172, 38.9443953581787 78.28402366863905, 42.28042888624208 79.0828402366864, 38.604553816443754 79.88165680473374, 37.72480636742154 80.68047337278107, 37.5126860333593 81.4792899408284, 36.28096367268753 82.27810650887574, 37.058658621924714 83.07692307692308, 36.24997547294291 83.87573964497041, 37.48884575114654 84.67455621301775, 37.41834447682925 85.4733727810651, 37.46232150526416 86.27218934911244, 36.637458772745056 87.07100591715975, 37.39903009745774 87.8698224852071, 35.906051715087806 88.66863905325444, 36.04814844375507 89.46745562130178, 34.82137214490047 90.26627218934911, 32.59898135414681 91.06508875739645, 32.43106179518938 91.8639053254438, 32.935650345357836 92.66272189349112, 31.87784199209131 93.46153846153845, 32.2428103846149 94.2603550295858, 32.324310885126074 95.05917159763314, 33.58338111659205 95.85798816568047, 33.93123975153013 96.65680473372781, 33.87144928641335 97.45562130177515, 30.37054981011448 98.2544378698225, 31.91738543973832 99.05325443786982, 31.306911106026487 99.85207100591715, 32.26616177768097 100.6508875739645, 32.31667040948372 101.44970414201183, 31.51482556914573 102.24852071005917, 32.4234372127295 103.04733727810651, 34.52947251289136 103.84615384615385, 33.563713152206844 104.64497041420118, 34.82802054518168 105.44378698224853, 33.38592072456982 106.24260355029585, 32.75725026954526 107.0414201183432, 33.601610620657105 107.84023668639053, 34.10844790650503 108.63905325443787, 34.496857939943396 109.43786982248521, 5.278062896170132 110.23668639053254, 13.611785278065344 111.03550295857988, 10.679244684519142 111.83431952662723, 10.714691261573082 112.63313609467457, 10.293175705446554 113.43195266272188, 9.636200121970075 114.23076923076923, 0.0 115.02958579881657, 5.930399807860591 115.82840236686391, 8.200397109357624 116.62721893491124, 6.951111831837207 117.42603550295858, 10.972687877757505 118.22485207100593, 9.441017510270983 119.02366863905324, 8.686242976445117 119.82248520710058, 14.008004251432268 120.62130177514793, 15.574934784492095 121.42011834319527, 17.0082347931885 122.2189349112426, 17.579803124080446 123.01775147928994, 12.927166284887187 123.81656804733728, 15.92258137933964 124.61538461538463, 18.907127877814524 125.41420118343194, 14.39617035713541 126.21301775147928, 14.053686987653712 127.01183431952663, 16.26717613712342 127.81065088757396, 15.714105424551237 128.60946745562129, 14.295847463061678 129.40828402366864, 13.71685843276865 130.20710059171597, 15.564563680511412 131.0059171597633, 14.124021502919486 131.80473372781066, 15.075868057526753 132.60355029585799, 16.922077843869708 133.40236686390534, 17.55298134998483 134.20118343195267, 17.14293701622482" fill="none" stroke="#32ca5b" stroke-width="1.25"/>

</svg>