<?xml version="1.0" standalone="no"?>
<!DOCTYPE svg PUBLIC "-//W3C//DTD SVG 1.1//EN" "http://www.w3.org/Graphics/SVG/1.1/DTD/svg11.dtd">

<svg width="135" height="50" viewBox="0 0 135 50" preserveAspectRatio="none" 
  xmlns="http://www.w3.org/2000/svg"
  xmlns:xlink="http://www.w3.org/1999/xlink">


<polyline points="0.0, 38.737876168740186 0.7988165680473372, 38.639297934486464 1.5976331360946745, 38.32964781045748 2.396449704142012, 36.65637610800745 3.195266272189349, 36.17129670648257 3.994082840236686, 38.158500242849904 4.792899408284024, 32.69526679506927 5.591715976331361, 32.70752980671301 6.390532544378698, 29.173173983756733 7.189349112426036, 15.953055797618584 7.988165680473372, 7.096714013056915 8.78698224852071, 5.016037196901389 9.585798816568047, 7.375871079634424 10.384615384615385, 4.2389057826528305 11.183431952662723, 17.2967734745432 11.982248520710058, 24.790129692289774 12.781065088757396, 24.50173474996462 13.579881656804734, 24.212522069617258 14.378698224852071, 22.25670353604201 15.177514792899409, 18.585480334766224 15.976331360946745, 17.21969679895864 16.775147928994084, 12.061973136114174 17.57396449704142, 8.148530090023936 18.37278106508876, 6.327207476388183 19.171597633136095, 0.0 19.970414201183434, 8.116112895488538 20.76923076923077, 3.8454424236449993 21.56804733727811, 8.840401525669638 22.366863905325445, 12.222593874311197 23.16568047337278, 13.495093373834049 23.964497041420117, 19.540673055716002 24.763313609467456, 30.551698406540122 25.562130177514792, 26.494398154295634 26.36094674556213, 36.64692649398308 27.159763313609467, 35.449379743905745 27.958579881656807, 41.591324761091236 28.757396449704142, 36.560477775399974 29.55621301775148, 40.543136430864756 30.355029585798817, 44.63949542953717 31.153846153846157, 43.84978399596658 31.95266272189349, 40.56296854117764 32.751479289940825, 42.85126399980961 33.55029585798817, 46.06028669869414 34.349112426035504, 43.95316316493057 35.14792899408284, 43.931142460278764 35.94674556213018, 37.321422554199565 36.74556213017752, 36.049416827854735 37.54437869822485, 33.729350188810145 38.34319526627219, 34.84520269628881 39.142011834319526, 48.103226460858814 39.94082840236687, 48.5850308213089 40.7396449704142, 47.17572331553101 41.53846153846154, 47.76960897691552 42.337278106508876, 47.08440061287011 43.13609467455622, 42.198141141410574 43.93491124260355, 38.099494457185365 44.73372781065089, 37.8493119747179 45.532544378698226, 36.89998217037741 46.33136094674556, 39.254353572823305 47.1301775147929, 39.05326968905077 47.928994082840234, 39.05679112947599 48.72781065088758, 42.0508148975275 49.52662721893491, 36.820869575704506 50.32544378698225, 35.97767030065102 51.124260355029584, 37.47503212335326 51.92307692307693, 36.07570418240846 52.72189349112426, 36.24129701136119 53.5207100591716, 36.93392907077765 54.319526627218934, 34.34749534762068 55.11834319526627, 34.899330072775726 55.91715976331361, 34.64323841832467 56.71597633136094, 35.36895333292524 57.514792899408285, 33.530156224733354 58.31360946745562, 34.50701688724391 59.11242603550296, 37.80230419652658 59.91124260355029, 37.11850720672632 60.710059171597635, 35.64845390057009 61.50887573964497, 33.8654664711907 62.307692307692314, 32.61078651595778 63.10650887573964, 39.93276235517783 63.90532544378698, 38.94536408878201 64.70414201183432, 33.67570541993643 65.50295857988165, 32.39477969714705 66.30177514792899, 30.721226515715827 67.10059171597634, 38.81394408302584 67.89940828402366, 38.65901286090215 68.69822485207101, 37.91480392619266 69.49704142011834, 43.13752130828684 70.29585798816568, 42.040702173523705 71.09467455621302, 40.955512104617604 71.89349112426036, 41.87614392414882 72.6923076923077, 41.3293202190645 73.49112426035504, 40.91341638701007 74.28994082840237, 42.11973224855474 75.0887573964497, 41.608290665750275 75.88757396449704, 43.38234544059566 76.68639053254438, 43.94600298708353 77.48520710059172, 49.470160415001914 78.28402366863905, 48.12019610903043 79.0828402366864, 48.06654070116318 79.88165680473374, 46.53129185688973 80.68047337278107, 47.891491155639024 81.4792899408284, 49.41214999358615 82.27810650887574, 48.76979837756312 83.07692307692308, 49.74958249600805 83.87573964497041, 48.23943956211582 84.67455621301775, 47.652802905933164 85.4733727810651, 46.10901030900615 86.27218934911244, 48.198872473170965 87.07100591715975, 48.88735623049314 87.8698224852071, 49.82932983226361 88.66863905325444, 50.0 89.46745562130178, 48.81688851257714 90.26627218934911, 44.900596632388755 91.06508875739645, 47.17260173050703 91.8639053254438, 46.060557821820005 92.66272189349112, 46.67986812548687 93.46153846153845, 46.89750331222359 94.2603550295858, 46.028773402447364 95.05917159763314, 46.12178347043085 95.85798816568047, 45.74091706530362 96.65680473372781, 43.990978304303496 97.45562130177515, 44.63815714682278 98.2544378698225, 42.1640907156996 99.05325443786982, 42.56998273974141 99.85207100591715, 42.77477995848999 100.6508875739645, 39.945973966759894 101.44970414201183, 40.75127017202869 102.24852071005917, 40.785822243545496 103.04733727810651, 40.595382657611154 103.84615384615385, 39.77668866343647 104.64497041420118, 38.7511206740579 105.44378698224853, 38.82365485865288 106.24260355029585, 37.63092607316974 107.0414201183432, 36.4090515876372 107.84023668639053, 37.95040819353655 108.63905325443787, 37.42418023806579 109.43786982248521, 36.33752041150674 110.23668639053254, 36.350373299455306 111.03550295857988, 35.0733736653336 111.83431952662723, 32.797527233647116 112.63313609467457, 32.12687395140823 113.43195266272188, 32.57178262888391 114.23076923076923, 32.13280385056015 115.02958579881657, 31.00406300493107 115.82840236686391, 33.133062473145955 116.62721893491124, 30.541106268815412 117.42603550295858, 29.181708319446642 118.22485207100593, 29.42643715033541 119.02366863905324, 31.211487467479405 119.82248520710058, 29.09943856340391 120.62130177514793, 29.69630739153154 121.42011834319527, 28.99333288481143 122.2189349112426, 39.30128153279764 123.01775147928994, 34.3197848973188 123.81656804733728, 31.8078083651577 124.61538461538463, 30.411610999735217 125.41420118343194, 30.837749150970588 126.21301775147928, 28.14532192828357 127.01183431952663, 20.831528607365385 127.81065088757396, 19.600189047262802 128.60946745562129, 18.685577879724697 129.40828402366864, 18.65762422143278 130.20710059171597, 15.177388838729769 131.0059171597633, 15.37389536257123 131.80473372781066, 13.952006939346603 132.60355029585799, 15.30552674897513 133.40236686390534, 14.407090939361414 134.20118343195267, 14.37782428312024" fill="none" stroke="#32ca5b" stroke-width="1.25"/>

</svg>