<?xml version="1.0" standalone="no"?>
<!DOCTYPE svg PUBLIC "-//W3C//DTD SVG 1.1//EN" "http://www.w3.org/Graphics/SVG/1.1/DTD/svg11.dtd">

<svg width="135" height="50" viewBox="0 0 135 50" preserveAspectRatio="none" 
  xmlns="http://www.w3.org/2000/svg"
  xmlns:xlink="http://www.w3.org/1999/xlink">


<polyline points="0.0, 16.51788743066864 0.7988165680473372, 20.8248030737971 1.5976331360946745, 21.75418379715858 2.396449704142012, 18.982141938167036 3.195266272189349, 23.474980860318556 3.994082840236686, 20.1347796091648 4.792899408284024, 16.082541850578416 5.591715976331361, 18.29792818882104 6.390532544378698, 18.847283536187735 7.189349112426036, 19.43981868117099 7.988165680473372, 22.979125845867628 8.78698224852071, 17.242738751422028 9.585798816568047, 17.65378320903022 10.384615384615385, 20.398612589327843 11.183431952662723, 14.32352064142752 11.982248520710058, 26.850509755945307 12.781065088757396, 35.42672842307485 13.579881656804734, 41.56609673714266 14.378698224852071, 41.455524551239264 15.177514792899409, 38.04200297296232 15.976331360946745, 34.123585670746195 16.775147928994084, 31.41583092418609 17.57396449704142, 29.194682226907425 18.37278106508876, 25.666655017704155 19.171597633136095, 28.035667261442104 19.970414201183434, 30.393460380285497 20.76923076923077, 29.521162387800036 21.56804733727811, 31.25118258099264 22.366863905325445, 31.401084486078535 23.16568047337278, 32.991460502873856 23.964497041420117, 37.1399813884736 24.763313609467456, 38.89693245423453 25.562130177514792, 40.79866948294232 26.36094674556213, 38.17908040233514 27.159763313609467, 47.5407453597781 27.958579881656807, 45.57328470257364 28.757396449704142, 47.08680389238092 29.55621301775148, 41.531474443281326 30.355029585798817, 43.70311014930204 31.153846153846157, 50.0 31.95266272189349, 46.52282789685271 32.751479289940825, 42.855461963944144 33.55029585798817, 47.55363316216623 34.349112426035504, 49.105873680594314 35.14792899408284, 45.68854598782851 35.94674556213018, 46.054480771249615 36.74556213017752, 41.02396460624228 37.54437869822485, 39.25261978372515 38.34319526627219, 36.976013637810745 39.142011834319526, 36.25888620065257 39.94082840236687, 40.46961141782983 40.7396449704142, 38.11331015858757 41.53846153846154, 32.065998881685886 42.337278106508876, 36.01006205706837 43.13609467455622, 37.634844179477156 43.93491124260355, 32.94824228579558 44.73372781065089, 31.988672395909074 45.532544378698226, 30.76378176697795 46.33136094674556, 29.68272809351562 47.1301775147929, 32.30066914761347 47.928994082840234, 32.100609130721374 48.72781065088758, 31.662467319308174 49.52662721893491, 36.37954149734311 50.32544378698225, 31.234024365263068 51.124260355029584, 29.651134367056247 51.92307692307693, 30.508626641894026 52.72189349112426, 29.351983804249087 53.5207100591716, 27.451537353106232 54.319526627218934, 27.929516116820945 55.11834319526627, 24.086448943541498 55.91715976331361, 27.417558519835428 56.71597633136094, 28.040508857841807 57.514792899408285, 32.680703606150516 58.31360946745562, 30.724105337663595 59.11242603550296, 33.16986644660771 59.91124260355029, 37.411324706768426 60.710059171597635, 37.60901193788041 61.50887573964497, 37.89455820507681 62.307692307692314, 39.08692287546989 63.10650887573964, 35.96006970293147 63.90532544378698, 38.1820687181119 64.70414201183432, 40.22384930625992 65.50295857988165, 39.017462498517425 66.30177514792899, 36.745900824030606 67.10059171597634, 36.13665351917323 67.89940828402366, 39.184262835068736 68.69822485207101, 36.560318736723865 69.49704142011834, 40.66609759684932 70.29585798816568, 45.45515869133508 71.09467455621302, 40.95353750227934 71.89349112426036, 38.1505118890693 72.6923076923077, 39.879351146016816 73.49112426035504, 40.26546747076092 74.28994082840237, 40.629163384425645 75.0887573964497, 41.84715387374366 75.88757396449704, 45.214308627246 76.68639053254438, 43.99498978696526 77.48520710059172, 41.54365066539041 78.28402366863905, 48.32182691918601 79.0828402366864, 45.699491756034696 79.88165680473374, 43.086817922152385 80.68047337278107, 41.90543869354183 81.4792899408284, 41.8622028668234 82.27810650887574, 43.38423137147983 83.07692307692308, 41.27077511724605 83.87573964497041, 41.36614953424194 84.67455621301775, 38.10820673404008 85.4733727810651, 35.43209023095843 86.27218934911244, 33.764848106246504 87.07100591715975, 36.06023987480332 87.8698224852071, 35.55756471341851 88.66863905325444, 39.030153763607885 89.46745562130178, 38.689453881135165 90.26627218934911, 36.859202847318315 91.06508875739645, 34.32096577149489 91.8639053254438, 34.85878875149127 92.66272189349112, 33.81444985122954 93.46153846153845, 33.40517998810016 94.2603550295858, 32.45529624564273 95.05917159763314, 33.23961353914501 95.85798816568047, 32.75297618954326 96.65680473372781, 34.503536857908394 97.45562130177515, 33.92909235658523 98.2544378698225, 33.982301096599926 99.05325443786982, 34.145567785443156 99.85207100591715, 37.44152399795818 100.6508875739645, 35.853147948210854 101.44970414201183, 36.579348405663424 102.24852071005917, 38.023096913571635 103.04733727810651, 39.26686381578567 103.84615384615385, 37.39531081197069 104.64497041420118, 38.1092449232535 105.44378698224853, 36.00309941677621 106.24260355029585, 34.968474831592815 107.0414201183432, 38.22233371438383 107.84023668639053, 35.02580708554668 108.63905325443787, 36.68352916320481 109.43786982248521, 36.164192879136834 110.23668639053254, 35.43429950333151 111.03550295857988, 36.867938313398845 111.83431952662723, 34.40072324575821 112.63313609467457, 33.47751097471652 113.43195266272188, 33.22260038778813 114.23076923076923, 32.845991348998204 115.02958579881657, 32.82100216775735 115.82840236686391, 35.17010938875348 116.62721893491124, 37.73752779128507 117.42603550295858, 39.53356700797657 118.22485207100593, 37.183497762791134 119.02366863905324, 36.97624407278005 119.82248520710058, 37.26494187019085 120.62130177514793, 35.4947046571896 121.42011834319527, 38.65394060231909 122.2189349112426, 39.39594683779996 123.01775147928994, 46.09209129392065 123.81656804733728, 46.09424126202521 124.61538461538463, 45.39523874616581 125.41420118343194, 43.34835779372615 126.21301775147928, 44.76045645252004 127.01183431952663, 38.57364909815594 127.81065088757396, 30.9761969072576 128.60946745562129, 16.518020324758037 129.40828402366864, 15.71074188986599 130.20710059171597, 16.430937321438826 131.0059171597633, 9.205428849430731 131.80473372781066, 11.812420248925475 132.60355029585799, 8.712509132228377 133.40236686390534, 10.907698398115278 134.20118343195267, 0.0" fill="none" stroke="#32ca5b" stroke-width="1.25"/>

</svg>