<?xml version="1.0" standalone="no"?>
<!DOCTYPE svg PUBLIC "-//W3C//DTD SVG 1.1//EN" "http://www.w3.org/Graphics/SVG/1.1/DTD/svg11.dtd">

<svg width="135" height="50" viewBox="0 0 135 50" preserveAspectRatio="none" 
  xmlns="http://www.w3.org/2000/svg"
  xmlns:xlink="http://www.w3.org/1999/xlink">


<polyline points="0.0, 45.91499258024678 0.7988165680473372, 46.248983756109254 1.5976331360946745, 46.98587169043168 2.396449704142012, 46.47247772150938 3.195266272189349, 47.07665324875058 3.994082840236686, 46.94018506696427 4.792899408284024, 48.253974325460554 5.591715976331361, 46.66493411843868 6.390532544378698, 46.84409352654468 7.189349112426036, 47.0757214298794 7.988165680473372, 49.20233101471333 8.78698224852071, 47.064858377572946 9.585798816568047, 46.19996779857466 10.384615384615385, 45.88038389770555 11.183431952662723, 43.95999439669199 11.982248520710058, 46.95968361787718 12.781065088757396, 49.70172227655032 13.579881656804734, 49.56642510565689 14.378698224852071, 50.0 15.177514792899409, 48.27222521821984 15.976331360946745, 46.73437756542676 16.775147928994084, 47.546666983663584 17.57396449704142, 45.73460096513881 18.37278106508876, 45.516591241119215 19.171597633136095, 46.669162401308725 19.970414201183434, 47.61682595124719 20.76923076923077, 47.41729238330034 21.56804733727811, 47.07733982443354 22.366863905325445, 46.657992000118995 23.16568047337278, 46.10249978232243 23.964497041420117, 45.38167284985659 24.763313609467456, 45.978599890691044 25.562130177514792, 46.59956899890326 26.36094674556213, 47.09699265590976 27.159763313609467, 49.52312525443111 27.958579881656807, 48.89522733314366 28.757396449704142, 49.7231347034947 29.55621301775148, 49.79259915409253 30.355029585798817, 46.92717975035007 31.153846153846157, 46.827349968982176 31.95266272189349, 45.146349664686944 32.751479289940825, 44.460788450255464 33.55029585798817, 44.70934389599777 34.349112426035504, 42.573931528365485 35.14792899408284, 43.37617310620853 35.94674556213018, 42.002140888318614 36.74556213017752, 36.589594109774076 37.54437869822485, 35.554920115130585 38.34319526627219, 32.574523208335634 39.142011834319526, 35.000830454487115 39.94082840236687, 35.08394175573426 40.7396449704142, 33.520248888651984 41.53846153846154, 33.285557471822145 42.337278106508876, 31.469919652815427 43.13609467455622, 31.40922584183154 43.93491124260355, 29.157723602360235 44.73372781065089, 24.281024044821788 45.532544378698226, 14.517010737595545 46.33136094674556, 11.067985700650235 47.1301775147929, 10.556468703186598 47.928994082840234, 11.281515731856855 48.72781065088758, 13.139333016081236 49.52662721893491, 22.70848194064128 50.32544378698225, 25.761991368929827 51.124260355029584, 24.21625109849922 51.92307692307693, 27.08747744334469 52.72189349112426, 23.79244537700998 53.5207100591716, 24.853194667137274 54.319526627218934, 25.848631769071527 55.11834319526627, 24.87923335182864 55.91715976331361, 26.469974666767254 56.71597633136094, 27.220705142741224 57.514792899408285, 27.460746069167087 58.31360946745562, 26.84493799049012 59.11242603550296, 27.239725454230207 59.91124260355029, 28.023607978333093 60.710059171597635, 26.983284974400362 61.50887573964497, 27.01589867027478 62.307692307692314, 27.988204130184464 63.10650887573964, 28.208407899531718 63.90532544378698, 28.64269650733607 64.70414201183432, 28.375287176607976 65.50295857988165, 27.75104128844542 66.30177514792899, 27.493830019683337 67.10059171597634, 29.13262747055649 67.89940828402366, 30.440255364182136 68.69822485207101, 30.42183761037856 69.49704142011834, 30.446001391682476 70.29585798816568, 31.40147785952755 71.09467455621302, 33.47978620314851 71.89349112426036, 32.83117322660998 72.6923076923077, 33.16096589297389 73.49112426035504, 33.16946882305143 74.28994082840237, 33.256816449658 75.0887573964497, 33.70024789709029 75.88757396449704, 34.120240143434025 76.68639053254438, 34.702556612882226 77.48520710059172, 34.138361079318415 78.28402366863905, 33.05147137859278 79.0828402366864, 34.327591514601075 79.88165680473374, 33.60283901376279 80.68047337278107, 33.746728579608664 81.4792899408284, 33.08421259853958 82.27810650887574, 32.4989036224845 83.07692307692308, 33.39795891784339 83.87573964497041, 32.851234255930386 84.67455621301775, 32.90670055624461 85.4733727810651, 33.25633794045019 86.27218934911244, 32.52712139280728 87.07100591715975, 33.63770000587591 87.8698224852071, 32.05102547442599 88.66863905325444, 33.16698716521116 89.46745562130178, 33.15619399482038 90.26627218934911, 32.686885111716876 91.06508875739645, 30.90693168294968 91.8639053254438, 30.0896898817196 92.66272189349112, 30.39499201992341 93.46153846153845, 30.07162213348996 94.2603550295858, 31.18190584319404 95.05917159763314, 30.798259923878202 95.85798816568047, 31.06073562437067 96.65680473372781, 28.736556975786126 97.45562130177515, 27.225065468310966 98.2544378698225, 26.2461074280585 99.05325443786982, 25.822290105388063 99.85207100591715, 25.38492821184515 100.6508875739645, 25.10953852932389 101.44970414201183, 24.609582113807964 102.24852071005917, 22.901617785515963 103.04733727810651, 22.01531962665342 103.84615384615385, 20.785357960315505 104.64497041420118, 20.44516569796573 105.44378698224853, 14.07798808476526 106.24260355029585, 13.593339810276749 107.0414201183432, 12.92587729659824 107.84023668639053, 9.923884138891225 108.63905325443787, 8.560737101056642 109.43786982248521, 10.297867785145582 110.23668639053254, 10.590821653619939 111.03550295857988, 9.845349789947171 111.83431952662723, 7.2254555863910035 112.63313609467457, 5.237853313425169 113.43195266272188, 4.787543880910934 114.23076923076923, 5.791527642303937 115.02958579881657, 4.756106680972462 115.82840236686391, 4.531311818133656 116.62721893491124, 5.413348377939459 117.42603550295858, 6.4849652631075285 118.22485207100593, 6.060422652534859 119.02366863905324, 5.890514252092296 119.82248520710058, 5.108650255303006 120.62130177514793, 5.655855243452248 121.42011834319527, 6.51123637504198 122.2189349112426, 8.375561656483264 123.01775147928994, 10.41366967674316 123.81656804733728, 9.5942789338351 124.61538461538463, 11.177683848887247 125.41420118343194, 12.042150101217256 126.21301775147928, 11.314472096023529 127.01183431952663, 11.484606195101374 127.81065088757396, 8.385833649741087 128.60946745562129, 5.251831947122795 129.40828402366864, 5.677587894064359 130.20710059171597, 5.435128764856735 131.0059171597633, 2.853859673150986 131.80473372781066, 0.1535292116311783 132.60355029585799, 1.3250868029720715 133.40236686390534, 0.0 134.20118343195267, 0.597130214131071" fill="none" stroke="#32ca5b" stroke-width="1.25"/>

</svg>