<?xml version="1.0" standalone="no"?>
<!DOCTYPE svg PUBLIC "-//W3C//DTD SVG 1.1//EN" "http://www.w3.org/Graphics/SVG/1.1/DTD/svg11.dtd">

<svg width="135" height="50" viewBox="0 0 135 50" preserveAspectRatio="none" 
  xmlns="http://www.w3.org/2000/svg"
  xmlns:xlink="http://www.w3.org/1999/xlink">


<polyline points="0.0, 28.709880300510367 0.7988165680473372, 30.300331543739954 1.5976331360946745, 32.24710135688872 2.396449704142012, 30.425158744271258 3.195266272189349, 34.69330288568347 3.994082840236686, 31.295791350292706 4.792899408284024, 27.63283905184668 5.591715976331361, 28.054361736329646 6.390532544378698, 29.24043552262941 7.189349112426036, 31.34875585162615 7.988165680473372, 34.33261001412566 8.78698224852071, 27.47337668854553 9.585798816568047, 26.758244007654703 10.384615384615385, 28.978751153965597 11.183431952662723, 26.21748927033486 11.982248520710058, 35.96836118332666 12.781065088757396, 40.77012413584281 13.579881656804734, 43.72044201542124 14.378698224852071, 41.61073417754683 15.177514792899409, 39.617682403938424 15.976331360946745, 37.44319831795402 16.775147928994084, 34.402838205806916 17.57396449704142, 33.50764957119448 18.37278106508876, 31.005408487775128 19.171597633136095, 32.72002628501749 19.970414201183434, 30.154519710238652 20.76923076923077, 27.7456502033443 21.56804733727811, 29.089611681526257 22.366863905325445, 30.11286993245525 23.16568047337278, 29.544998782304297 23.964497041420117, 32.28645853671658 24.763313609467456, 34.20574936379465 25.562130177514792, 38.053090660823905 26.36094674556213, 36.2159655386793 27.159763313609467, 45.43980085845713 27.958579881656807, 41.37818930751135 28.757396449704142, 44.70446900268685 29.55621301775148, 43.04193128535236 30.355029585798817, 45.39597398960097 31.153846153846157, 50.0 31.95266272189349, 46.90299152145907 32.751479289940825, 44.20534686704819 33.55029585798817, 48.987708675906106 34.349112426035504, 49.998442846030116 35.14792899408284, 47.89909648670774 35.94674556213018, 48.77244225356256 36.74556213017752, 44.23217785525975 37.54437869822485, 41.22395254601134 38.34319526627219, 40.222843156782105 39.142011834319526, 41.35131517025272 39.94082840236687, 47.58160590679285 40.7396449704142, 45.83715114642447 41.53846153846154, 43.9554626605015 42.337278106508876, 43.30415343388484 43.13609467455622, 36.49852074298274 43.93491124260355, 33.78130013194245 44.73372781065089, 33.46792113591617 45.532544378698226, 30.476981337333036 46.33136094674556, 29.1081069105008 47.1301775147929, 29.041731366599933 47.928994082840234, 27.76732884586512 48.72781065088758, 27.659625416356803 49.52662721893491, 32.96468815602903 50.32544378698225, 29.618217983126456 51.124260355029584, 26.38452488957035 51.92307692307693, 27.15337876644958 52.72189349112426, 27.075336419835512 53.5207100591716, 28.178248804037846 54.319526627218934, 29.62161098216882 55.11834319526627, 27.270547127512163 55.91715976331361, 29.346114903466713 56.71597633136094, 28.55330903029366 57.514792899408285, 31.222061696167692 58.31360946745562, 28.378258055508333 59.11242603550296, 29.927578844180186 59.91124260355029, 35.06776899558013 60.710059171597635, 37.333928471725116 61.50887573964497, 34.78148925758328 62.307692307692314, 35.03094335697064 63.10650887573964, 31.802745943354537 63.90532544378698, 35.9753289200629 64.70414201183432, 36.67556765059621 65.50295857988165, 33.68347758385495 66.30177514792899, 31.400295826717244 67.10059171597634, 29.322463667097015 67.89940828402366, 32.014844181450094 68.69822485207101, 28.866868671960265 69.49704142011834, 28.598102352881092 70.29585798816568, 33.57182728673268 71.09467455621302, 30.361763892655798 71.89349112426036, 28.010018265663707 72.6923076923077, 28.259323170754424 73.49112426035504, 26.376538467279488 74.28994082840237, 26.48812136822844 75.0887573964497, 27.34355784293081 75.88757396449704, 31.635823540142205 76.68639053254438, 28.510004751231815 77.48520710059172, 27.04574994334697 78.28402366863905, 34.92156607838148 79.0828402366864, 30.462616396373775 79.88165680473374, 29.950647978253574 80.68047337278107, 28.036201462717848 81.4792899408284, 28.703527704927318 82.27810650887574, 26.050676306381003 83.07692307692308, 23.952524440908693 83.87573964497041, 20.027358107506867 84.67455621301775, 19.684915758154578 85.4733727810651, 21.594877430734314 86.27218934911244, 22.284260787449476 87.07100591715975, 25.27565775195052 87.8698224852071, 21.819207040353184 88.66863905325444, 24.447211368633486 89.46745562130178, 23.82806316223428 90.26627218934911, 22.26551377643214 91.06508875739645, 15.063280935587454 91.8639053254438, 14.19972869406603 92.66272189349112, 14.099458555095474 93.46153846153845, 13.104533629843667 94.2603550295858, 12.721582795046091 95.05917159763314, 14.52919668107205 95.85798816568047, 14.477816143659641 96.65680473372781, 15.822134612430574 97.45562130177515, 15.141770748067238 98.2544378698225, 17.141423314939452 99.05325443786982, 16.780248963892443 99.85207100591715, 18.4805781284073 100.6508875739645, 16.373958378780525 101.44970414201183, 14.896615361071103 102.24852071005917, 16.749217507995446 103.04733727810651, 17.20779742757742 103.84615384615385, 16.019974654468506 104.64497041420118, 17.70622769769647 105.44378698224853, 16.35358924832097 106.24260355029585, 15.013739127327819 107.0414201183432, 15.34471493485721 107.84023668639053, 14.180327301190376 108.63905325443787, 16.684874352550445 109.43786982248521, 14.570290476325104 110.23668639053254, 12.578875004666704 111.03550295857988, 10.715085124870816 111.83431952662723, 10.359935408393993 112.63313609467457, 8.900502244202302 113.43195266272188, 10.298090138219477 114.23076923076923, 7.4943390516503605 115.02958579881657, 9.208456143215676 115.82840236686391, 10.044956197404483 116.62721893491124, 14.292656531615744 117.42603550295858, 14.49435714690703 118.22485207100593, 12.257868534833271 119.02366863905324, 12.170193504286438 119.82248520710058, 10.568435836648208 120.62130177514793, 7.401187368417691 121.42011834319527, 12.334818661555467 122.2189349112426, 13.718218759427502 123.01775147928994, 19.79096584247395 123.81656804733728, 16.065420753707787 124.61538461538463, 14.02703105137385 125.41420118343194, 12.485249655815215 126.21301775147928, 14.823687062604506 127.01183431952663, 10.422912261233277 127.81065088757396, 5.1341796935491395 128.60946745562129, 4.140286409359688 129.40828402366864, 1.4499191287191235 130.20710059171597, 6.015796881784966 131.0059171597633, 2.2010374269238615 131.80473372781066, 2.1495621622203926 132.60355029585799, 0.4866045280028376 133.40236686390534, 0.33188763949087513 134.20118343195267, 0.0" fill="none" stroke="#32ca5b" stroke-width="1.25"/>

</svg>