<?xml version="1.0" standalone="no"?>
<!DOCTYPE svg PUBLIC "-//W3C//DTD SVG 1.1//EN" "http://www.w3.org/Graphics/SVG/1.1/DTD/svg11.dtd">

<svg width="135" height="50" viewBox="0 0 135 50" preserveAspectRatio="none" 
  xmlns="http://www.w3.org/2000/svg"
  xmlns:xlink="http://www.w3.org/1999/xlink">


<polyline points="0.0, 40.47782250646803 0.7988165680473372, 41.59802760572119 1.5976331360946745, 39.264794591516115 2.396449704142012, 41.764608630996634 3.195266272189349, 39.113599595439624 3.994082840236686, 36.6413951488717 4.792899408284024, 36.71041629420781 5.591715976331361, 38.6595888506123 6.390532544378698, 40.476657005861874 7.189349112426036, 41.66416119526974 7.988165680473372, 40.1487255227363 8.78698224852071, 38.941206108276894 9.585798816568047, 41.375242204157345 10.384615384615385, 37.40883623547761 11.183431952662723, 43.98653973599828 11.982248520710058, 47.61917985098863 12.781065088757396, 48.678964512949726 13.579881656804734, 47.814035687548554 14.378698224852071, 47.972238948212876 15.177514792899409, 45.29422631078867 15.976331360946745, 43.743540135221345 16.775147928994084, 43.76680016844964 17.57396449704142, 40.44234476655605 18.37278106508876, 39.53335121455219 19.171597633136095, 39.974482106923645 19.970414201183434, 40.97251057872416 20.76923076923077, 42.278797097647356 21.56804733727811, 41.1811307789094 22.366863905325445, 42.61399195531355 23.16568047337278, 36.16052246373464 23.964497041420117, 38.20726122326042 24.763313609467456, 39.643965629693774 25.562130177514792, 38.9335851548178 26.36094674556213, 46.31759585527129 27.159763313609467, 44.456399277797814 27.958579881656807, 46.238486855592896 28.757396449704142, 43.42688765016543 29.55621301775148, 44.85666842483693 30.355029585798817, 49.300105833561695 31.153846153846157, 47.17834538252224 31.95266272189349, 45.012274401804454 32.751479289940825, 47.69178101350872 33.55029585798817, 49.936785290763304 34.349112426035504, 48.50945736290495 35.14792899408284, 49.72961166819102 35.94674556213018, 46.94420615895486 36.74556213017752, 46.01288756828613 37.54437869822485, 44.021685861687715 38.34319526627219, 44.79955645088584 39.142011834319526, 49.41038532523079 39.94082840236687, 50.0 40.7396449704142, 48.06333655517403 41.53846153846154, 49.576472756053505 42.337278106508876, 48.361558135055134 43.13609467455622, 43.262434135793235 43.93491124260355, 42.26788131473528 44.73372781065089, 39.56907158092029 45.532544378698226, 38.397846149183614 46.33136094674556, 40.686930733278395 47.1301775147929, 40.00329985446201 47.928994082840234, 40.40673788559721 48.72781065088758, 39.066418339404365 49.52662721893491, 33.834551157447166 50.32544378698225, 31.76341797828654 51.124260355029584, 33.216608750721484 51.92307692307693, 33.04130739068229 52.72189349112426, 31.951387142860526 53.5207100591716, 31.96352066091891 54.319526627218934, 30.499429323432555 55.11834319526627, 33.37954554443202 55.91715976331361, 33.183686399131 56.71597633136094, 34.85724085854538 57.514792899408285, 34.4602373083665 58.31360946745562, 33.88207917868249 59.11242603550296, 37.47250160720175 59.91124260355029, 38.23833534124591 60.710059171597635, 36.31200178529853 61.50887573964497, 35.194788380620615 62.307692307692314, 33.22937840729386 63.10650887573964, 35.07101937953438 63.90532544378698, 37.16910439802089 64.70414201183432, 36.890501877704416 65.50295857988165, 37.30961409307473 66.30177514792899, 36.634812388907115 67.10059171597634, 38.076676886847544 67.89940828402366, 36.23375429298058 68.69822485207101, 36.13993603393173 69.49704142011834, 38.332106430151946 70.29585798816568, 39.29396324886288 71.09467455621302, 35.27494881926902 71.89349112426036, 34.488587420959036 72.6923076923077, 32.95133738379426 73.49112426035504, 27.797209591408546 74.28994082840237, 28.485340099233632 75.0887573964497, 31.49062323551069 75.88757396449704, 31.230448083430506 76.68639053254438, 29.481531940623807 77.48520710059172, 36.36372087624225 78.28402366863905, 32.8003747268091 79.0828402366864, 28.128385769070448 79.88165680473374, 25.633401819791306 80.68047337278107, 25.38462237610221 81.4792899408284, 26.778609585275227 82.27810650887574, 25.11537097696168 83.07692307692308, 25.87280290485225 83.87573964497041, 26.02981810677423 84.67455621301775, 23.443745278603167 85.4733727810651, 23.583333006933024 86.27218934911244, 25.03102122913638 87.07100591715975, 24.167211992796325 87.8698224852071, 26.52829930701037 88.66863905325444, 25.403208299793707 89.46745562130178, 26.188763500009525 90.26627218934911, 25.33603196044468 91.06508875739645, 26.395602734429946 91.8639053254438, 27.26316186239343 92.66272189349112, 26.430122127140702 93.46153846153845, 26.901423845865235 94.2603550295858, 27.62659055323692 95.05917159763314, 27.179599525551406 95.85798816568047, 28.556711413510715 96.65680473372781, 27.474557376858417 97.45562130177515, 28.16734118843829 98.2544378698225, 28.58346474371928 99.05325443786982, 29.48166191065176 99.85207100591715, 28.85405529510838 100.6508875739645, 28.477727653327612 101.44970414201183, 27.78612874385774 102.24852071005917, 27.631768067946215 103.04733727810651, 27.549553518770004 103.84615384615385, 28.517255222433374 104.64497041420118, 26.503098506818677 105.44378698224853, 25.535120009044434 106.24260355029585, 26.224371304668875 107.0414201183432, 24.680746024001305 107.84023668639053, 24.657744909382316 108.63905325443787, 25.275240896236227 109.43786982248521, 23.86209009999721 110.23668639053254, 25.72695772267089 111.03550295857988, 25.364320201543755 111.83431952662723, 24.425793795600594 112.63313609467457, 25.85988667390019 113.43195266272188, 24.040051384493292 114.23076923076923, 23.515353395439785 115.02958579881657, 22.351198021811097 115.82840236686391, 24.971881443018468 116.62721893491124, 25.304424628378975 117.42603550295858, 23.50738486229141 118.22485207100593, 18.55284040580272 119.02366863905324, 4.630974047900729 119.82248520710058, 0.0 120.62130177514793, 1.7479568240992966 121.42011834319527, 2.073358045946814 122.2189349112426, 9.160604262731468 123.01775147928994, 5.317164514646562 123.81656804733728, 8.439097634865787 124.61538461538463, 8.566950270642959 125.41420118343194, 9.463864258277303 126.21301775147928, 7.444426447107953 127.01183431952663, 5.250654382697625 127.81065088757396, 5.225663058708581 128.60946745562129, 5.774957768609465 129.40828402366864, 8.710205887503482 130.20710059171597, 5.851344819673181 131.0059171597633, 3.5568620785324447 131.80473372781066, 3.287445711010078 132.60355029585799, 2.81479049911583 133.40236686390534, 2.8523569502805404 134.20118343195267, 2.0017485537724555" fill="none" stroke="#32ca5b" stroke-width="1.25"/>

</svg>