<?xml version="1.0" standalone="no"?>
<!DOCTYPE svg PUBLIC "-//W3C//DTD SVG 1.1//EN" "http://www.w3.org/Graphics/SVG/1.1/DTD/svg11.dtd">

<svg width="135" height="50" viewBox="0 0 135 50" preserveAspectRatio="none" 
  xmlns="http://www.w3.org/2000/svg"
  xmlns:xlink="http://www.w3.org/1999/xlink">


<polyline points="0.0, 0.0 0.7988165680473372, 1.7712985798639267 1.5976331360946745, 4.4015494776495245 2.396449704142012, 1.0178512110143314 3.195266272189349, 4.4556097312575655 3.994082840236686, 3.0845596581855284 4.792899408284024, 3.4632541759767093 5.591715976331361, 1.5588801430059467 6.390532544378698, 5.48652135027864 7.189349112426036, 7.674980742610288 7.988165680473372, 10.999349531618229 8.78698224852071, 7.050834946979966 9.585798816568047, 5.0581197264959865 10.384615384615385, 8.34439458518977 11.183431952662723, 5.521371451518963 11.982248520710058, 14.41487482684393 12.781065088757396, 20.579846794267954 13.579881656804734, 25.124661391408132 14.378698224852071, 25.01536171035203 15.177514792899409, 23.197205041653994 15.976331360946745, 16.379271806008468 16.775147928994084, 14.519101619044076 17.57396449704142, 11.211281360596509 18.37278106508876, 11.23455217091734 19.171597633136095, 12.955929426703024 19.970414201183434, 16.694615976338646 20.76923076923077, 18.72000493245622 21.56804733727811, 20.91849776351785 22.366863905325445, 20.633770367402374 23.16568047337278, 22.346479426745557 23.964497041420117, 22.25221182456029 24.763313609467456, 24.952837774665664 25.562130177514792, 26.93016136643742 26.36094674556213, 25.59496370141423 27.159763313609467, 34.08859925039147 27.958579881656807, 34.0935427714826 28.757396449704142, 37.41207523150706 29.55621301775148, 34.46471728131947 30.355029585798817, 34.009652449573984 31.153846153846157, 38.21198566434856 31.95266272189349, 35.51263690376486 32.751479289940825, 34.15040751675812 33.55029585798817, 39.83333171831767 34.349112426035504, 41.30673816283504 35.14792899408284, 38.498742045253316 35.94674556213018, 39.691176510272044 36.74556213017752, 35.316371930497326 37.54437869822485, 33.57599540494607 38.34319526627219, 30.98581956163552 39.142011834319526, 34.14222532134125 39.94082840236687, 40.96158409447125 40.7396449704142, 38.17932717223414 41.53846153846154, 36.32580736566222 42.337278106508876, 37.25034836658369 43.13609467455622, 34.26151866955594 43.93491124260355, 30.450835794018555 44.73372781065089, 26.608507451445305 45.532544378698226, 22.180177930782516 46.33136094674556, 20.991751078557503 47.1301775147929, 27.086752333769258 47.928994082840234, 28.67071741354249 48.72781065088758, 30.990691988592005 49.52662721893491, 38.15559041563025 50.32544378698225, 32.710738980798396 51.124260355029584, 32.81150687480632 51.92307692307693, 37.52701237749856 52.72189349112426, 34.08854684142609 53.5207100591716, 33.11297353618404 54.319526627218934, 34.9896289053018 55.11834319526627, 31.15515103426288 55.91715976331361, 37.76915340670375 56.71597633136094, 37.790193575245006 57.514792899408285, 41.58719875049016 58.31360946745562, 39.06857462169592 59.11242603550296, 41.59951982240519 59.91124260355029, 44.71643155897135 60.710059171597635, 47.71936923773461 61.50887573964497, 45.18267716867432 62.307692307692314, 44.27518294178005 63.10650887573964, 43.3942808468914 63.90532544378698, 47.075122098566936 64.70414201183432, 49.35268905362552 65.50295857988165, 47.1917746949328 66.30177514792899, 46.42258583619247 67.10059171597634, 46.77680420654866 67.89940828402366, 47.474583334213186 68.69822485207101, 47.22074932209388 69.49704142011834, 47.872917249327124 70.29585798816568, 46.99223162436108 71.09467455621302, 46.452554572500866 71.89349112426036, 44.74269067366661 72.6923076923077, 43.627574833268454 73.49112426035504, 42.448639694934236 74.28994082840237, 39.50549273334152 75.0887573964497, 42.64564516134227 75.88757396449704, 47.4871957382016 76.68639053254438, 46.858680851833874 77.48520710059172, 43.26596858449751 78.28402366863905, 50.0 79.0828402366864, 45.72100904943666 79.88165680473374, 41.38935100976861 80.68047337278107, 38.71233249565169 81.4792899408284, 36.52870805379764 82.27810650887574, 38.43204624980721 83.07692307692308, 34.469631530132105 83.87573964497041, 35.135760688213544 84.67455621301775, 34.709268945123924 85.4733727810651, 35.271099809222 86.27218934911244, 35.219628116601825 87.07100591715975, 37.179896796961756 87.8698224852071, 36.53704343881118 88.66863905325444, 38.403947277830945 89.46745562130178, 39.37326957951876 90.26627218934911, 38.040660140068766 91.06508875739645, 32.92760844134539 91.8639053254438, 34.33173614436898 92.66272189349112, 33.75423845397198 93.46153846153845, 33.824134672065995 94.2603550295858, 32.661524471682014 95.05917159763314, 32.98933759512826 95.85798816568047, 32.553815363659744 96.65680473372781, 30.871067223075894 97.45562130177515, 30.991718139451564 98.2544378698225, 31.37636689336029 99.05325443786982, 32.10552916229146 99.85207100591715, 32.77693716773625 100.6508875739645, 31.612308261550492 101.44970414201183, 29.823480018469528 102.24852071005917, 31.229811568970927 103.04733727810651, 34.282604534514185 103.84615384615385, 33.46755937981068 104.64497041420118, 33.096419025751786 105.44378698224853, 31.385178676810945 106.24260355029585, 26.94935444525168 107.0414201183432, 27.819294779789672 107.84023668639053, 26.587537408309675 108.63905325443787, 29.30428262848959 109.43786982248521, 30.33728211315745 110.23668639053254, 31.03766982407007 111.03550295857988, 30.037344296619175 111.83431952662723, 26.88900566238962 112.63313609467457, 27.293822243572325 113.43195266272188, 28.347902256851004 114.23076923076923, 27.980590379066445 115.02958579881657, 27.761785560646796 115.82840236686391, 25.054321377000495 116.62721893491124, 28.583654304617482 117.42603550295858, 30.340958715324533 118.22485207100593, 28.733500277926815 119.02366863905324, 30.69240456381425 119.82248520710058, 30.71847714998323 120.62130177514793, 29.65284786119525 121.42011834319527, 33.58750744954923 122.2189349112426, 33.57186062934103 123.01775147928994, 40.61847242443734 123.81656804733728, 38.96698453311564 124.61538461538463, 39.755320522001256 125.41420118343194, 37.77210963744974 126.21301775147928, 34.62395371848712 127.01183431952663, 29.067305452608554 127.81065088757396, 23.65799587907752 128.60946745562129, 20.781041078422714 129.40828402366864, 18.475770778970798 130.20710059171597, 19.268415049448787 131.0059171597633, 16.983540580338403 131.80473372781066, 13.472182919635923 132.60355029585799, 19.37447144980626 133.40236686390534, 16.82808767106854 134.20118343195267, 17.418107051757673" fill="none" stroke="#ff3a33" stroke-width="1.25"/>

</svg>