<?xml version="1.0" standalone="no"?>
<!DOCTYPE svg PUBLIC "-//W3C//DTD SVG 1.1//EN" "http://www.w3.org/Graphics/SVG/1.1/DTD/svg11.dtd">

<svg width="135" height="50" viewBox="0 0 135 50" preserveAspectRatio="none" 
  xmlns="http://www.w3.org/2000/svg"
  xmlns:xlink="http://www.w3.org/1999/xlink">


<polyline points="0.0, 24.73394760969747 0.7988165680473372, 21.846550104869905 1.5976331360946745, 20.862743734609086 2.396449704142012, 22.379250943010064 3.195266272189349, 22.597383175692837 3.994082840236686, 22.43168342864911 4.792899408284024, 23.125116390065564 5.591715976331361, 23.08744302023598 6.390532544378698, 22.393683862845112 7.189349112426036, 23.706807689428558 7.988165680473372, 23.18808877164804 8.78698224852071, 22.031240913612198 9.585798816568047, 23.45889404086651 10.384615384615385, 22.015204268509265 11.183431952662723, 23.902335076689 11.982248520710058, 25.65644958339791 12.781065088757396, 27.52317862239998 13.579881656804734, 27.676138718145438 14.378698224852071, 29.167254962348654 15.177514792899409, 31.633732963157062 15.976331360946745, 32.21862855030328 16.775147928994084, 31.179245646692422 17.57396449704142, 30.842633771830357 18.37278106508876, 28.579190292823746 19.171597633136095, 28.188253160075906 19.970414201183434, 27.313851171535596 20.76923076923077, 27.441204307836493 21.56804733727811, 27.66242281494309 22.366863905325445, 26.884986065497944 23.16568047337278, 31.122409672017476 23.964497041420117, 31.355990181522518 24.763313609467456, 32.899274739623756 25.562130177514792, 32.070856768331964 26.36094674556213, 34.274533481131655 27.159763313609467, 35.524864262944355 27.958579881656807, 35.88551185313242 28.757396449704142, 36.59713603086158 29.55621301775148, 37.36533407110573 30.355029585798817, 39.90372519532546 31.153846153846157, 47.825343935054 31.95266272189349, 45.953272539273925 32.751479289940825, 46.81888234447871 33.55029585798817, 47.09243395680079 34.349112426035504, 45.31769410298757 35.14792899408284, 46.63476239493586 35.94674556213018, 45.274189532705364 36.74556213017752, 44.696514126857856 37.54437869822485, 43.91775299117736 38.34319526627219, 43.57053503946793 39.142011834319526, 44.88180806670046 39.94082840236687, 45.730686954779486 40.7396449704142, 46.656450570193186 41.53846153846154, 45.83516773285694 42.337278106508876, 45.84957378416798 43.13609467455622, 41.75368651207559 43.93491124260355, 40.58082750725042 44.73372781065089, 38.335432346207575 45.532544378698226, 39.13745583976905 46.33136094674556, 38.80964788675457 47.1301775147929, 37.3802285672644 47.928994082840234, 38.77786202618274 48.72781065088758, 40.261791475733126 49.52662721893491, 40.36780085715226 50.32544378698225, 41.26682362143052 51.124260355029584, 41.956462797972144 51.92307692307693, 42.85807251406663 52.72189349112426, 43.86492728332906 53.5207100591716, 37.42063888085133 54.319526627218934, 37.46470170021221 55.11834319526627, 37.91828965531138 55.91715976331361, 38.73604211749509 56.71597633136094, 38.384734907379304 57.514792899408285, 38.12632100066378 58.31360946745562, 39.86423376005279 59.11242603550296, 41.2130419235918 59.91124260355029, 43.04828902585545 60.710059171597635, 46.442775933653145 61.50887573964497, 49.22102396812577 62.307692307692314, 46.12190414466013 63.10650887573964, 50.0 63.90532544378698, 42.532793817999554 64.70414201183432, 35.24185985151657 65.50295857988165, 33.41313354682966 66.30177514792899, 32.60433425057807 67.10059171597634, 33.305148351648626 67.89940828402366, 32.74647753280478 68.69822485207101, 31.627413464232806 69.49704142011834, 30.12375103850216 70.29585798816568, 30.604500875587565 71.09467455621302, 30.316031419147997 71.89349112426036, 30.897244504065764 72.6923076923077, 31.11391280327405 73.49112426035504, 29.778861114897985 74.28994082840237, 30.309518123651653 75.0887573964497, 30.87970141419467 75.88757396449704, 31.433909461429526 76.68639053254438, 31.28554328145815 77.48520710059172, 31.47871708573412 78.28402366863905, 31.432424693325856 79.0828402366864, 32.032088198615924 79.88165680473374, 30.52375092943119 80.68047337278107, 30.26482721298902 81.4792899408284, 31.291045882783013 82.27810650887574, 30.822764409025044 83.07692307692308, 32.285659819004394 83.87573964497041, 31.508980868873167 84.67455621301775, 31.906151002577275 85.4733727810651, 31.825488168816353 86.27218934911244, 31.389562150631946 87.07100591715975, 30.24286874990815 87.8698224852071, 30.740656217178724 88.66863905325444, 30.184066606473753 89.46745562130178, 31.218126452927393 90.26627218934911, 31.436100480811945 91.06508875739645, 30.984128350416913 91.8639053254438, 31.086703478267225 92.66272189349112, 30.702650544160274 93.46153846153845, 30.618372642069314 94.2603550295858, 30.646276492850394 95.05917159763314, 30.54339756837196 95.85798816568047, 29.9373816321441 96.65680473372781, 29.50519423652029 97.45562130177515, 30.38990683672821 98.2544378698225, 30.553343070469346 99.05325443786982, 30.744216182039896 99.85207100591715, 30.86705104607601 100.6508875739645, 31.971493942777656 101.44970414201183, 32.2836250811873 102.24852071005917, 31.93845411990481 103.04733727810651, 31.501259670487624 103.84615384615385, 30.742453188440706 104.64497041420118, 29.21366355734387 105.44378698224853, 27.691327074957496 106.24260355029585, 26.734245612998198 107.0414201183432, 24.658294171159156 107.84023668639053, 23.344719652949532 108.63905325443787, 22.876031498443517 109.43786982248521, 21.642408731061956 110.23668639053254, 20.22616141958379 111.03550295857988, 18.60384117870093 111.83431952662723, 20.187388394963772 112.63313609467457, 18.866646598218818 113.43195266272188, 18.096146161055188 114.23076923076923, 17.862432264582463 115.02958579881657, 17.86226955933535 115.82840236686391, 17.908884731836913 116.62721893491124, 19.468243228276645 117.42603550295858, 19.29762041134442 118.22485207100593, 20.503030520891286 119.02366863905324, 18.335840056146317 119.82248520710058, 15.03799085359209 120.62130177514793, 11.970883627558576 121.42011834319527, 11.64311166555723 122.2189349112426, 16.05140975396175 123.01775147928994, 14.925284677500539 123.81656804733728, 10.060991292681253 124.61538461538463, 8.150354300461835 125.41420118343194, 2.0634138093042202 126.21301775147928, 1.4980155785243061 127.01183431952663, 0.63024389820872 127.81065088757396, 0.8076617941018249 128.60946745562129, 1.279526541714075 129.40828402366864, 1.9813851143653682 130.20710059171597, 0.0 131.0059171597633, 3.979922546607683 131.80473372781066, 4.495774360405069 132.60355029585799, 5.050755214365621 133.40236686390534, 4.3817371887393906 134.20118343195267, 4.890216800292451" fill="none" stroke="#32ca5b" stroke-width="1.25"/>

</svg>