<?xml version="1.0" standalone="no"?>
<!DOCTYPE svg PUBLIC "-//W3C//DTD SVG 1.1//EN" "http://www.w3.org/Graphics/SVG/1.1/DTD/svg11.dtd">

<svg width="135" height="50" viewBox="0 0 135 50" preserveAspectRatio="none" 
  xmlns="http://www.w3.org/2000/svg"
  xmlns:xlink="http://www.w3.org/1999/xlink">


<polyline points="0.0, 16.14103210075785 0.7988165680473372, 19.935074137583705 1.5976331360946745, 20.11932068951008 2.396449704142012, 19.71747026424963 3.195266272189349, 21.209602619875835 3.994082840236686, 20.22192591618472 4.792899408284024, 19.63556359030548 5.591715976331361, 19.742678778801558 6.390532544378698, 19.668740574702 7.189349112426036, 20.182129612587136 7.988165680473372, 20.19771042298144 8.78698224852071, 19.02549634892596 9.585798816568047, 19.707776608952596 10.384615384615385, 19.805052371146644 11.183431952662723, 16.824818575637504 11.982248520710058, 18.894751969088905 12.781065088757396, 19.84155896487154 13.579881656804734, 20.1682976668295 14.378698224852071, 22.061755001810155 15.177514792899409, 20.955181321701318 15.976331360946745, 21.08323025760932 16.775147928994084, 19.17597555827989 17.57396449704142, 19.205940909517775 18.37278106508876, 17.95390061011406 19.171597633136095, 18.378399204410865 19.970414201183434, 19.427311299083023 20.76923076923077, 18.88302081882308 21.56804733727811, 18.9187928370704 22.366863905325445, 19.25547121220671 23.16568047337278, 19.550350134943344 23.964497041420117, 22.418358506332815 24.763313609467456, 22.935012745352473 25.562130177514792, 22.225826713902887 26.36094674556213, 22.71589823342604 27.159763313609467, 27.86319929168457 27.958579881656807, 26.580057075780054 28.757396449704142, 28.77237125686577 29.55621301775148, 28.100350899437537 30.355029585798817, 28.497161001347397 31.153846153846157, 30.231951607789952 31.95266272189349, 28.4859977073666 32.751479289940825, 26.88155987278243 33.55029585798817, 28.943369647183413 34.349112426035504, 29.043424047094206 35.14792899408284, 48.295807968390115 35.94674556213018, 45.82014487967329 36.74556213017752, 44.72906916361149 37.54437869822485, 46.677452551623404 38.34319526627219, 25.68759746774152 39.142011834319526, 46.09357217752485 39.94082840236687, 47.34652431449786 40.7396449704142, 47.55962703159831 41.53846153846154, 48.22937301759788 42.337278106508876, 48.61881844922728 43.13609467455622, 49.884647037860965 43.93491124260355, 28.62824148590817 44.73372781065089, 27.168781530886736 45.532544378698226, 25.675721528992145 46.33136094674556, 25.37596360677566 47.1301775147929, 26.33799126766771 47.928994082840234, 27.047059422441315 48.72781065088758, 27.124406372944144 49.52662721893491, 28.46417800778524 50.32544378698225, 26.998113950574982 51.124260355029584, 26.80924557576646 51.92307692307693, 27.232282962527098 52.72189349112426, 27.042565492025638 53.5207100591716, 28.832159831987752 54.319526627218934, 27.500304685665782 55.11834319526627, 27.008800115245485 55.91715976331361, 26.86272899432622 56.71597633136094, 27.329568738081132 57.514792899408285, 27.535195598791944 58.31360946745562, 27.6733715405299 59.11242603550296, 28.082568943591816 59.91124260355029, 28.939506744159875 60.710059171597635, 30.7960252422949 61.50887573964497, 30.55278191458264 62.307692307692314, 30.958101132793658 63.10650887573964, 29.68823309554176 63.90532544378698, 30.532732473653667 64.70414201183432, 32.440855024187734 65.50295857988165, 32.35808480589325 66.30177514792899, 31.39313218532748 67.10059171597634, 32.08598145272525 67.89940828402366, 31.710545476824482 68.69822485207101, 32.17183022320657 69.49704142011834, 31.81027533671638 70.29585798816568, 31.01159533722782 71.09467455621302, 31.60531483906051 71.89349112426036, 30.99564087825664 72.6923076923077, 30.98773251122408 73.49112426035504, 30.890517836532887 74.28994082840237, 30.31609414089788 75.0887573964497, 30.16734088602725 75.88757396449704, 31.40168900723342 76.68639053254438, 32.065599254844294 77.48520710059172, 31.202762433151175 78.28402366863905, 33.59637906744985 79.0828402366864, 35.59609355289127 79.88165680473374, 33.93943468457299 80.68047337278107, 33.06147269344195 81.4792899408284, 31.482867701057177 82.27810650887574, 32.855752152997546 83.07692307692308, 31.471743429684274 83.87573964497041, 31.335645767279015 84.67455621301775, 30.11714152785822 85.4733727810651, 30.566099386680456 86.27218934911244, 30.4463161056422 87.07100591715975, 31.83324673089258 87.8698224852071, 31.84546288967114 88.66863905325444, 32.1367724434512 89.46745562130178, 50.0 90.26627218934911, 30.72006426677889 91.06508875739645, 29.104055001777095 91.8639053254438, 28.820466809743106 92.66272189349112, 28.713264577737746 93.46153846153845, 28.80781504064483 94.2603550295858, 28.159927352442377 95.05917159763314, 28.50642250664726 95.85798816568047, 28.610974715926464 96.65680473372781, 30.340257644595898 97.45562130177515, 29.781285313359902 98.2544378698225, 29.64588561094449 99.05325443786982, 28.85783743763504 99.85207100591715, 30.224339207020645 100.6508875739645, 30.0350988766184 101.44970414201183, 45.300488994924955 102.24852071005917, 30.712642471904104 103.04733727810651, 30.222198138589878 103.84615384615385, 30.39002264499545 104.64497041420118, 31.701015542702464 105.44378698224853, 31.20346935324203 106.24260355029585, 30.771716312404717 107.0414201183432, 31.29006068797774 107.84023668639053, 27.377942379520654 108.63905325443787, 27.802254667001602 109.43786982248521, 27.664374725531783 110.23668639053254, 28.27413883183862 111.03550295857988, 27.797288059860676 111.83431952662723, 26.54166218638781 112.63313609467457, 25.179282887277243 113.43195266272188, 24.878077901598317 114.23076923076923, 24.079704589162027 115.02958579881657, 25.452895343766784 115.82840236686391, 25.44351233287211 116.62721893491124, 26.848519525447646 117.42603550295858, 27.188520624808454 118.22485207100593, 28.437860316518197 119.02366863905324, 28.091679076374216 119.82248520710058, 27.76593060777922 120.62130177514793, 27.41905824411796 121.42011834319527, 27.404354868755053 122.2189349112426, 28.72713766783772 123.01775147928994, 32.56399659216085 123.81656804733728, 32.256733713961644 124.61538461538463, 31.436524626844587 125.41420118343194, 30.921136494512965 126.21301775147928, 30.528228345430332 127.01183431952663, 28.992053331739648 127.81065088757396, 24.51983464958465 128.60946745562129, 19.584251464306952 129.40828402366864, 19.077031001644166 130.20710059171597, 19.59703393124937 131.0059171597633, 15.890115142057923 131.80473372781066, 16.074697849654676 132.60355029585799, 11.078287930803379 133.40236686390534, 8.32213050466213 134.20118343195267, 0.0" fill="none" stroke="#32ca5b" stroke-width="1.25"/>

</svg>