<?xml version="1.0" standalone="no"?>
<!DOCTYPE svg PUBLIC "-//W3C//DTD SVG 1.1//EN" "http://www.w3.org/Graphics/SVG/1.1/DTD/svg11.dtd">

<svg width="135" height="50" viewBox="0 0 135 50" preserveAspectRatio="none" 
  xmlns="http://www.w3.org/2000/svg"
  xmlns:xlink="http://www.w3.org/1999/xlink">


<polyline points="0.0, 39.617712344907865 0.7988165680473372, 40.11067121406946 1.5976331360946745, 37.912943909275256 2.396449704142012, 39.93017335645056 3.195266272189349, 38.13164888092359 3.994082840236686, 38.81187333256865 4.792899408284024, 39.6076478870516 5.591715976331361, 38.49537586081383 6.390532544378698, 39.46165090178014 7.189349112426036, 38.66390328810011 7.988165680473372, 35.9372782716078 8.78698224852071, 37.07550649802044 9.585798816568047, 39.33076595834955 10.384615384615385, 40.77505855419299 11.183431952662723, 44.20206232431115 11.982248520710058, 46.54534820219626 12.781065088757396, 48.220404475507586 13.579881656804734, 45.96897117179979 14.378698224852071, 46.95479669511356 15.177514792899409, 45.9177531223435 15.976331360946745, 45.033641438641716 16.775147928994084, 43.51686547504476 17.57396449704142, 39.60299860534073 18.37278106508876, 38.683237365512646 19.171597633136095, 42.384334301923246 19.970414201183434, 43.38573420510334 20.76923076923077, 43.54343082775669 21.56804733727811, 41.953527470663886 22.366863905325445, 44.16961159265536 23.16568047337278, 45.649296410831205 23.964497041420117, 47.20323065988844 24.763313609467456, 46.387638681939016 25.562130177514792, 45.20066109983523 26.36094674556213, 48.336517056148516 27.159763313609467, 47.43727455912311 27.958579881656807, 49.63821696809638 28.757396449704142, 47.74014283663718 29.55621301775148, 45.36171586755523 30.355029585798817, 50.0 31.153846153846157, 45.9020712849816 31.95266272189349, 40.880603150839676 32.751479289940825, 47.250365020986926 33.55029585798817, 49.69856690641035 34.349112426035504, 47.92233885275285 35.14792899408284, 48.94852971750982 35.94674556213018, 39.93503472802772 36.74556213017752, 31.822708980136877 37.54437869822485, 17.739689164051526 38.34319526627219, 22.550192559058775 39.142011834319526, 27.501673314336855 39.94082840236687, 25.94708740834918 40.7396449704142, 23.46074452070398 41.53846153846154, 24.88442759666351 42.337278106508876, 22.194636390588425 43.13609467455622, 17.9212599813702 43.93491124260355, 16.14724270901299 44.73372781065089, 18.514066616804005 45.532544378698226, 19.627461216682907 46.33136094674556, 20.866316071347264 47.1301775147929, 16.464974268694622 47.928994082840234, 17.669816531443637 48.72781065088758, 18.64491729479048 49.52662721893491, 10.374962450039021 50.32544378698225, 11.439526673940469 51.124260355029584, 13.491627072163844 51.92307692307693, 16.527248919078357 52.72189349112426, 16.111639207588055 53.5207100591716, 19.408774082438203 54.319526627218934, 18.024932281446326 55.11834319526627, 21.35903645900118 55.91715976331361, 22.73493647670537 56.71597633136094, 24.728168692563806 57.514792899408285, 22.85239924312328 58.31360946745562, 22.387213346765115 59.11242603550296, 23.594088716750495 59.91124260355029, 22.85801918448581 60.710059171597635, 23.972432413488786 61.50887573964497, 22.61946520722874 62.307692307692314, 23.741024797819527 63.10650887573964, 24.810663442898466 63.90532544378698, 24.85066470483851 64.70414201183432, 24.64133353464025 65.50295857988165, 22.728083687795944 66.30177514792899, 24.058745921522096 67.10059171597634, 23.458723942471877 67.89940828402366, 11.517326878554348 68.69822485207101, 15.930979540401873 69.49704142011834, 23.34893893829325 70.29585798816568, 22.189084681318825 71.09467455621302, 23.126098879500688 71.89349112426036, 23.785582887031097 72.6923076923077, 23.119144284592124 73.49112426035504, 23.479032071185532 74.28994082840237, 25.050139091120165 75.0887573964497, 26.857664750596527 75.88757396449704, 28.050836092580433 76.68639053254438, 30.998084274869186 77.48520710059172, 35.81011385812854 78.28402366863905, 33.72934723867104 79.0828402366864, 32.889790844435666 79.88165680473374, 31.77530509972067 80.68047337278107, 30.565013091610453 81.4792899408284, 32.16418849401321 82.27810650887574, 32.865985384825855 83.07692307692308, 34.879784784340416 83.87573964497041, 33.50745732821975 84.67455621301775, 31.025419028973193 85.4733727810651, 23.205347761690348 86.27218934911244, 25.121923563878312 87.07100591715975, 24.46161894337259 87.8698224852071, 24.341347830938194 88.66863905325444, 27.01110051934881 89.46745562130178, 25.514789198802738 90.26627218934911, 23.651019267912154 91.06508875739645, 25.372248990066726 91.8639053254438, 24.802408244032556 92.66272189349112, 23.877968106800548 93.46153846153845, 24.181547971962818 94.2603550295858, 25.499096533437495 95.05917159763314, 24.482431229638163 95.85798816568047, 20.635737260214746 96.65680473372781, 17.52893520680048 97.45562130177515, 16.8187178942831 98.2544378698225, 11.279839279010384 99.05325443786982, 14.663020965618639 99.85207100591715, 13.148925523775837 100.6508875739645, 11.851988235162016 101.44970414201183, 7.236830937785832 102.24852071005917, 4.2593976179245585 103.04733727810651, 10.782525659202955 103.84615384615385, 6.490554556433621 104.64497041420118, 8.78336443208095 105.44378698224853, 12.805183510054475 106.24260355029585, 15.22754630627402 107.0414201183432, 14.596778247565508 107.84023668639053, 12.912127817936717 108.63905325443787, 12.303430052881058 109.43786982248521, 10.659331700408131 110.23668639053254, 10.434468319246022 111.03550295857988, 7.638916607889762 111.83431952662723, 8.658797841332609 112.63313609467457, 11.193606379668394 113.43195266272188, 13.708118158325815 114.23076923076923, 12.631764000937059 115.02958579881657, 0.0 115.82840236686391, 9.216088639752074 116.62721893491124, 7.077841156559579 117.42603550295858, 5.5849608031753295 118.22485207100593, 10.990213097375804 119.02366863905324, 11.387136197541686 119.82248520710058, 10.351693759097097 120.62130177514793, 11.842148781291804 121.42011834319527, 11.553344937422857 122.2189349112426, 14.678163868067973 123.01775147928994, 9.030738380652895 123.81656804733728, 11.008666919874079 124.61538461538463, 11.806516651670737 125.41420118343194, 12.924955438864455 126.21301775147928, 11.558638114632652 127.01183431952663, 10.198714822695486 127.81065088757396, 9.367381787019424 128.60946745562129, 11.116984550327803 129.40828402366864, 13.15978480507573 130.20710059171597, 10.635990092927111 131.0059171597633, 10.917527804038432 131.80473372781066, 11.11433125019483 132.60355029585799, 10.234372996941717 133.40236686390534, 9.7867883840033 134.20118343195267, 11.656969715611964" fill="none" stroke="#32ca5b" stroke-width="1.25"/>

</svg>