<?xml version="1.0" standalone="no"?>
<!DOCTYPE svg PUBLIC "-//W3C//DTD SVG 1.1//EN" "http://www.w3.org/Graphics/SVG/1.1/DTD/svg11.dtd">

<svg width="135" height="50" viewBox="0 0 135 50" preserveAspectRatio="none" 
  xmlns="http://www.w3.org/2000/svg"
  xmlns:xlink="http://www.w3.org/1999/xlink">


<polyline points="0.0, 1.5606576668435612 0.7988165680473372, 5.221104754347343 1.5976331360946745, 7.634156138394951 2.396449704142012, 4.328173336656823 3.195266272189349, 7.362989644230633 3.994082840236686, 3.737558385797891 4.792899408284024, 1.8921849796694923 5.591715976331361, 1.91805923311963 6.390532544378698, 4.3726382737418374 7.189349112426036, 6.319634791383827 7.988165680473372, 12.834447158536754 8.78698224852071, 7.646504176130545 9.585798816568047, 4.322899131984012 10.384615384615385, 7.87687134042813 11.183431952662723, 0.0 11.982248520710058, 14.562959868043778 12.781065088757396, 22.026186197927665 13.579881656804734, 25.665230491023134 14.378698224852071, 24.36399073520875 15.177514792899409, 21.123622433893605 15.976331360946745, 14.804258239108126 16.775147928994084, 16.12222854060445 17.57396449704142, 16.020507198252908 18.37278106508876, 12.28885632512528 19.171597633136095, 12.580317127748087 19.970414201183434, 15.058443057806597 20.76923076923077, 16.407055942814342 21.56804733727811, 17.948305487925957 22.366863905325445, 19.254399093050388 23.16568047337278, 20.149123630221673 23.964497041420117, 22.481374726253655 24.763313609467456, 24.921485725701405 25.562130177514792, 26.373957156496036 26.36094674556213, 25.078355701808867 27.159763313609467, 34.80353151386656 27.958579881656807, 30.846821458030337 28.757396449704142, 33.40733733082672 29.55621301775148, 28.655397995735694 30.355029585798817, 30.00491114264266 31.153846153846157, 35.042816208154605 31.95266272189349, 34.28171220636382 32.751479289940825, 32.50415896533501 33.55029585798817, 37.449764626199205 34.349112426035504, 39.92954654287087 35.14792899408284, 33.88630833387196 35.94674556213018, 33.678826843892814 36.74556213017752, 27.57673124628105 37.54437869822485, 26.01331566554887 38.34319526627219, 22.387668100944605 39.142011834319526, 24.529044783189992 39.94082840236687, 33.281974983275504 40.7396449704142, 31.16772685338362 41.53846153846154, 30.476451656561277 42.337278106508876, 32.83557210326064 43.13609467455622, 30.243274483849415 43.93491124260355, 26.12155143385502 44.73372781065089, 22.919213993190684 45.532544378698226, 18.481633440903394 46.33136094674556, 16.916630260218657 47.1301775147929, 22.982616834633532 47.928994082840234, 24.335844789420428 48.72781065088758, 27.456112661586502 49.52662721893491, 33.179881026604704 50.32544378698225, 27.122794261869785 51.124260355029584, 25.112837690485247 51.92307692307693, 29.824264125272006 52.72189349112426, 26.765889669591854 53.5207100591716, 24.994947148663652 54.319526627218934, 27.097618847456147 55.11834319526627, 23.060801912045726 55.91715976331361, 29.360888157715625 56.71597633136094, 29.288058783951925 57.514792899408285, 32.19408221015792 58.31360946745562, 31.690357987698505 59.11242603550296, 34.043814596614055 59.91124260355029, 37.7725963059093 60.710059171597635, 36.85491704101503 61.50887573964497, 35.46984134560163 62.307692307692314, 35.79617490435285 63.10650887573964, 33.691634376068016 63.90532544378698, 37.09775000249324 64.70414201183432, 38.90948281430634 65.50295857988165, 36.10985545254868 66.30177514792899, 32.28035182561142 67.10059171597634, 32.883613752760446 67.89940828402366, 37.964116875648116 68.69822485207101, 36.126302766059325 69.49704142011834, 39.43294029611374 70.29585798816568, 44.17052344460885 71.09467455621302, 42.11064876231661 71.89349112426036, 37.76064673109035 72.6923076923077, 37.99240493874528 73.49112426035504, 38.10699448313094 74.28994082840237, 36.083083938269866 75.0887573964497, 38.72537906393956 75.88757396449704, 43.07169095455139 76.68639053254438, 42.82268784245366 77.48520710059172, 41.65925916508027 78.28402366863905, 50.0 79.0828402366864, 46.30500454985775 79.88165680473374, 43.650375350028185 80.68047337278107, 40.4052282727161 81.4792899408284, 39.353295153311294 82.27810650887574, 40.868482753827124 83.07692307692308, 37.91743540182912 83.87573964497041, 39.96135891340255 84.67455621301775, 36.83973056077443 85.4733727810651, 36.218423848954544 86.27218934911244, 33.96221874656603 87.07100591715975, 33.998858514115184 87.8698224852071, 35.34110980009997 88.66863905325444, 38.083450203306015 89.46745562130178, 37.89842088107857 90.26627218934911, 35.80937425091955 91.06508875739645, 32.32772026749762 91.8639053254438, 32.58345605557979 92.66272189349112, 33.0112569664387 93.46153846153845, 33.91742785120225 94.2603550295858, 34.13168314735568 95.05917159763314, 33.41489975178286 95.85798816568047, 32.81790762107914 96.65680473372781, 32.68059054606594 97.45562130177515, 32.67850387688171 98.2544378698225, 32.301457989912706 99.05325443786982, 32.659781839503495 99.85207100591715, 34.55791512269018 100.6508875739645, 34.09087258586262 101.44970414201183, 29.099942242755688 102.24852071005917, 31.359007354496427 103.04733727810651, 33.586545223129086 103.84615384615385, 33.43999405747304 104.64497041420118, 34.549690336944735 105.44378698224853, 33.51024321928333 106.24260355029585, 30.873342170783523 107.0414201183432, 32.38910831715669 107.84023668639053, 28.261308874958196 108.63905325443787, 31.868347645485546 109.43786982248521, 33.154266733417444 110.23668639053254, 31.67507717177045 111.03550295857988, 32.385503073772185 111.83431952662723, 29.709180562794185 112.63313609467457, 29.14417477649366 113.43195266272188, 29.735932907362162 114.23076923076923, 26.00509704399351 115.02958579881657, 25.1452376835092 115.82840236686391, 25.587148870035698 116.62721893491124, 26.28056401416036 117.42603550295858, 28.360877544772496 118.22485207100593, 30.298237842700676 119.02366863905324, 29.29980962094929 119.82248520710058, 28.10111113162751 120.62130177514793, 27.079513315604096 121.42011834319527, 32.084215631062605 122.2189349112426, 31.342384220837506 123.01775147928994, 37.340390038207545 123.81656804733728, 32.96898714503319 124.61538461538463, 34.56991949965083 125.41420118343194, 33.33307198660281 126.21301775147928, 30.783251056707766 127.01183431952663, 22.48108292868204 127.81065088757396, 15.412991618470404 128.60946745562129, 7.350720698582837 129.40828402366864, 7.012023157990079 130.20710059171597, 8.695229769937221 131.0059171597633, 7.388351404761819 131.80473372781066, 7.87060998577693 132.60355029585799, 5.647346131169462 133.40236686390534, 4.510972904791998 134.20118343195267, 2.0435522640396853" fill="none" stroke="#ff3a33" stroke-width="1.25"/>

</svg>