<?xml version="1.0" standalone="no"?>
<!DOCTYPE svg PUBLIC "-//W3C//DTD SVG 1.1//EN" "http://www.w3.org/Graphics/SVG/1.1/DTD/svg11.dtd">

<svg width="135" height="50" viewBox="0 0 135 50" preserveAspectRatio="none" 
  xmlns="http://www.w3.org/2000/svg"
  xmlns:xlink="http://www.w3.org/1999/xlink">


<polyline points="0.0, 50.0 0.7988165680473372, 49.742211631149864 1.5976331360946745, 48.0621806969378 2.396449704142012, 42.978010380591854 3.195266272189349, 37.49873625858036 3.994082840236686, 34.48928647373995 4.792899408284024, 35.857096721990224 5.591715976331361, 35.29043709123248 6.390532544378698, 35.887932218369016 7.189349112426036, 36.01703171905843 7.988165680473372, 36.477995674843115 8.78698224852071, 34.25450257951642 9.585798816568047, 33.67821369975778 10.384615384615385, 33.809938997571486 11.183431952662723, 33.646522029570995 11.982248520710058, 36.6741464581728 12.781065088757396, 34.31015596152114 13.579881656804734, 36.758247158859916 14.378698224852071, 34.03567417694836 15.177514792899409, 33.98735289493767 15.976331360946745, 26.363403072480317 16.775147928994084, 30.229270609836377 17.57396449704142, 26.57306093719407 18.37278106508876, 24.601628331367 19.171597633136095, 25.09402774555293 19.970414201183434, 25.223436794270786 20.76923076923077, 23.277294789583348 21.56804733727811, 20.93989668311893 22.366863905325445, 22.448115119940976 23.16568047337278, 25.641540473105255 23.964497041420117, 24.18112552897743 24.763313609467456, 24.926260123073245 25.562130177514792, 31.504547654298364 26.36094674556213, 32.791158601151196 27.159763313609467, 36.81431507991954 27.958579881656807, 37.00527101109914 28.757396449704142, 40.310279552997706 29.55621301775148, 39.52504257660706 30.355029585798817, 37.40496772439717 31.153846153846157, 36.38379761623513 31.95266272189349, 34.637843807530736 32.751479289940825, 34.12911452692136 33.55029585798817, 37.550366136477734 34.349112426035504, 36.35131951761682 35.14792899408284, 35.42747964114506 35.94674556213018, 35.37510472158813 36.74556213017752, 32.07597346873596 37.54437869822485, 31.547682748904226 38.34319526627219, 28.032279439640718 39.142011834319526, 29.483554376181587 39.94082840236687, 26.693038980537022 40.7396449704142, 24.285409141677306 41.53846153846154, 23.855680303553886 42.337278106508876, 22.962320420375836 43.13609467455622, 24.1057878583542 43.93491124260355, 21.677525163174906 44.73372781065089, 24.798736999161413 45.532544378698226, 24.14013760567297 46.33136094674556, 24.28212545748375 47.1301775147929, 23.99264644104564 47.928994082840234, 27.13505004263292 48.72781065088758, 26.94453488419239 49.52662721893491, 26.629603746038878 50.32544378698225, 28.362167004756245 51.124260355029584, 25.744315752780807 51.92307692307693, 27.705523187556857 52.72189349112426, 26.52847998374147 53.5207100591716, 25.578567098690907 54.319526627218934, 26.87537406433916 55.11834319526627, 25.087766028351776 55.91715976331361, 27.463741498717116 56.71597633136094, 26.346980484993942 57.514792899408285, 26.578040543670745 58.31360946745562, 27.50765912834122 59.11242603550296, 28.362395559415894 59.91124260355029, 29.283783190598182 60.710059171597635, 29.64296884143527 61.50887573964497, 28.91109289735961 62.307692307692314, 29.454731915250765 63.10650887573964, 28.634323625197506 63.90532544378698, 28.031332687308748 64.70414201183432, 31.857519671099766 65.50295857988165, 30.11598442064386 66.30177514792899, 28.750286568257643 67.10059171597634, 28.326208630352717 67.89940828402366, 29.194681714611043 68.69822485207101, 27.543516766651422 69.49704142011834, 30.628047580108277 70.29585798816568, 27.916640068109434 71.09467455621302, 33.9939618871717 71.89349112426036, 27.05274411244824 72.6923076923077, 32.12134702604372 73.49112426035504, 31.804323901290726 74.28994082840237, 31.43003760547251 75.0887573964497, 27.41613383941541 75.88757396449704, 34.19395012114118 76.68639053254438, 24.626150451366986 77.48520710059172, 26.40761308129119 78.28402366863905, 27.367335264147556 79.0828402366864, 26.32332945181472 79.88165680473374, 24.430164424611526 80.68047337278107, 24.835972032754118 81.4792899408284, 22.453910943335963 82.27810650887574, 22.96585890987968 83.07692307692308, 21.910728157901552 83.87573964497041, 23.047049728703207 84.67455621301775, 22.544802023808995 85.4733727810651, 22.32663865237405 86.27218934911244, 21.84055100272027 87.07100591715975, 21.18639041193305 87.8698224852071, 20.69726579787958 88.66863905325444, 20.555734480352143 89.46745562130178, 21.06916588087812 90.26627218934911, 21.815264846860348 91.06508875739645, 20.639474072172227 91.8639053254438, 22.091045199334086 92.66272189349112, 19.80857687101201 93.46153846153845, 23.90559064476428 94.2603550295858, 24.84588767674594 95.05917159763314, 26.77445015518998 95.85798816568047, 24.546263962792363 96.65680473372781, 23.629623957058975 97.45562130177515, 24.150356743093745 98.2544378698225, 25.000752758775096 99.05325443786982, 25.992321763937614 99.85207100591715, 25.509241315446634 100.6508875739645, 22.48748466070879 101.44970414201183, 22.12485889023463 102.24852071005917, 22.1510148301414 103.04733727810651, 22.90540260046724 103.84615384615385, 22.525004205213293 104.64497041420118, 23.560032791726858 105.44378698224853, 22.75732395581133 106.24260355029585, 21.899931747563894 107.0414201183432, 21.93797005600122 107.84023668639053, 21.978832843246852 108.63905325443787, 22.13675654512384 109.43786982248521, 22.011485704218288 110.23668639053254, 20.196646765009024 111.03550295857988, 19.91689025188373 111.83431952662723, 16.933324970681564 112.63313609467457, 15.752790403994013 113.43195266272188, 20.892321850935318 114.23076923076923, 12.828014359853828 115.02958579881657, 10.914507564994585 115.82840236686391, 10.223720738854535 116.62721893491124, 11.644480375231199 117.42603550295858, 11.86387886773385 118.22485207100593, 11.555627604741092 119.02366863905324, 11.36911679038323 119.82248520710058, 11.03175451872113 120.62130177514793, 11.606048136297384 121.42011834319527, 11.799754301099336 122.2189349112426, 12.144052979562078 123.01775147928994, 13.9292081821153 123.81656804733728, 12.596679790848484 124.61538461538463, 13.02419819999366 125.41420118343194, 12.673675035978945 126.21301775147928, 12.488571022748216 127.01183431952663, 9.733337479101339 127.81065088757396, 5.138450570957603 128.60946745562129, 6.619417874249832 129.40828402366864, 4.302358981578579 130.20710059171597, 6.368887547323303 131.0059171597633, 7.322384716088995 131.80473372781066, 8.032301678452733 132.60355029585799, 3.9012951382801058 133.40236686390534, 2.940161339855423 134.20118343195267, 0.0" fill="none" stroke="#32ca5b" stroke-width="1.25"/>

</svg>