<?xml version="1.0" standalone="no"?>
<!DOCTYPE svg PUBLIC "-//W3C//DTD SVG 1.1//EN" "http://www.w3.org/Graphics/SVG/1.1/DTD/svg11.dtd">

<svg width="135" height="50" viewBox="0 0 135 50" preserveAspectRatio="none" 
  xmlns="http://www.w3.org/2000/svg"
  xmlns:xlink="http://www.w3.org/1999/xlink">


<polyline points="0.0, 15.29915666840246 0.7988165680473372, 12.491822826781029 1.5976331360946745, 12.353943972317511 2.396449704142012, 17.450104917905954 3.195266272189349, 11.966772163481911 3.994082840236686, 11.049258830532484 4.792899408284024, 8.838430788716462 5.591715976331361, 13.88513663988705 6.390532544378698, 12.841012658205916 7.189349112426036, 7.772427139418977 7.988165680473372, 8.740897796609335 8.78698224852071, 12.102808893888735 9.585798816568047, 7.230664401525257 10.384615384615385, 0.0 11.183431952662723, 2.3842203976356444 11.982248520710058, 3.935756687013977 12.781065088757396, 10.039761473250145 13.579881656804734, 7.02405932839804 14.378698224852071, 9.010860256658743 15.177514792899409, 18.532004036499707 15.976331360946745, 9.515529208082741 16.775147928994084, 20.389607903015357 17.57396449704142, 30.1342367371714 18.37278106508876, 33.20023738478454 19.171597633136095, 28.61926800618912 19.970414201183434, 25.252777899829226 20.76923076923077, 20.49654057587563 21.56804733727811, 17.709058281383353 22.366863905325445, 13.561764741167442 23.16568047337278, 14.722233455157419 23.964497041420117, 14.631150415179095 24.763313609467456, 18.36124235847305 25.562130177514792, 21.41892368384801 26.36094674556213, 18.52580856505407 27.159763313609467, 18.622030944450692 27.958579881656807, 19.12958911093509 28.757396449704142, 21.316659511209867 29.55621301775148, 24.52405705585178 30.355029585798817, 24.964692483390703 31.153846153846157, 20.74559391565195 31.95266272189349, 26.77777185084548 32.751479289940825, 23.409408703448083 33.55029585798817, 28.108076749986395 34.349112426035504, 24.977005953208682 35.14792899408284, 32.479975675513955 35.94674556213018, 33.05199906207876 36.74556213017752, 28.030381075373572 37.54437869822485, 26.33808620510821 38.34319526627219, 26.399591394444162 39.142011834319526, 37.88725607757327 39.94082840236687, 37.41728836877476 40.7396449704142, 35.73177641231861 41.53846153846154, 28.97092218158078 42.337278106508876, 29.27762459504139 43.13609467455622, 27.53026009189503 43.93491124260355, 28.00123559574316 44.73372781065089, 34.57942094711031 45.532544378698226, 33.420978781799604 46.33136094674556, 34.43370947968774 47.1301775147929, 36.96161673718108 47.928994082840234, 37.62761927804514 48.72781065088758, 31.74754424648735 49.52662721893491, 29.434638396445912 50.32544378698225, 24.98080594978228 51.124260355029584, 24.38585495426466 51.92307692307693, 29.29505686003935 52.72189349112426, 30.459699521228305 53.5207100591716, 32.6228652847265 54.319526627218934, 35.922481526033316 55.11834319526627, 31.37566987412655 55.91715976331361, 27.110614894174446 56.71597633136094, 31.786022013856236 57.514792899408285, 29.843196808363587 58.31360946745562, 28.480007588678202 59.11242603550296, 31.211017732622082 59.91124260355029, 28.862778155284307 60.710059171597635, 32.96440581518625 61.50887573964497, 31.793267794613534 62.307692307692314, 35.1938424944721 63.10650887573964, 36.35591810553012 63.90532544378698, 37.21006587881014 64.70414201183432, 39.84534108732194 65.50295857988165, 38.614461334535065 66.30177514792899, 36.11056822241056 67.10059171597634, 35.057746378827396 67.89940828402366, 31.14577516154151 68.69822485207101, 35.975679818783206 69.49704142011834, 40.68539994258536 70.29585798816568, 37.01941674572941 71.09467455621302, 37.37135552161989 71.89349112426036, 35.19841559830241 72.6923076923077, 37.15871449007393 73.49112426035504, 36.22691329392649 74.28994082840237, 30.85130162526251 75.0887573964497, 39.953946987661695 75.88757396449704, 45.00803604803417 76.68639053254438, 42.640921747667086 77.48520710059172, 42.496000717131324 78.28402366863905, 42.121011848549564 79.0828402366864, 42.312125385821695 79.88165680473374, 44.56170137792218 80.68047337278107, 46.941931294743874 81.4792899408284, 46.459745585496634 82.27810650887574, 45.75502899405875 83.07692307692308, 50.0 83.87573964497041, 47.930622047774925 84.67455621301775, 45.78412359168891 85.4733727810651, 45.22141020596489 86.27218934911244, 44.240589954405316 87.07100591715975, 44.10465804743699 87.8698224852071, 41.28520831871154 88.66863905325444, 42.68934623408217 89.46745562130178, 39.89390953807223 90.26627218934911, 38.40824182514355 91.06508875739645, 38.6248368267306 91.8639053254438, 38.30626564906014 92.66272189349112, 38.13623058781156 93.46153846153845, 41.180950409865076 94.2603550295858, 43.846851462004906 95.05917159763314, 40.721941674857845 95.85798816568047, 38.333048881415884 96.65680473372781, 37.5820345486053 97.45562130177515, 34.40563100582442 98.2544378698225, 34.884090575347514 99.05325443786982, 32.287632354262186 99.85207100591715, 32.07525262826939 100.6508875739645, 32.8009992541667 101.44970414201183, 31.294095352733482 102.24852071005917, 31.150549737026743 103.04733727810651, 30.429419411215765 103.84615384615385, 26.984561153187713 104.64497041420118, 29.70827514154727 105.44378698224853, 27.796014638886863 106.24260355029585, 24.836275393942238 107.0414201183432, 26.271338567483664 107.84023668639053, 28.466167756553784 108.63905325443787, 28.01343463725816 109.43786982248521, 29.49702229242728 110.23668639053254, 28.485528209706313 111.03550295857988, 24.679270794110856 111.83431952662723, 27.93938404970117 112.63313609467457, 26.097691894243553 113.43195266272188, 29.10007948447697 114.23076923076923, 32.53082979329933 115.02958579881657, 31.60436358746479 115.82840236686391, 31.944350967719366 116.62721893491124, 29.415840517850743 117.42603550295858, 28.343097619376795 118.22485207100593, 30.259128611113034 119.02366863905324, 32.06344736055491 119.82248520710058, 30.609371052518735 120.62130177514793, 30.934917761367743 121.42011834319527, 33.946219520592415 122.2189349112426, 36.989346566475994 123.01775147928994, 36.1914225832013 123.81656804733728, 38.40297026449271 124.61538461538463, 37.751983305289656 125.41420118343194, 38.503943000303956 126.21301775147928, 41.7243678864381 127.01183431952663, 40.485634902035464 127.81065088757396, 47.94879140302656 128.60946745562129, 44.91730469770225 129.40828402366864, 46.50944112498216 130.20710059171597, 47.65238523325116 131.0059171597633, 44.98806239228432 131.80473372781066, 38.70308680957255 132.60355029585799, 35.798625326651525 133.40236686390534, 29.863665025165965 134.20118343195267, 29.78474174275043" fill="none" stroke="#ff3a33" stroke-width="1.25"/>

</svg>