<?xml version="1.0" standalone="no"?>
<!DOCTYPE svg PUBLIC "-//W3C//DTD SVG 1.1//EN" "http://www.w3.org/Graphics/SVG/1.1/DTD/svg11.dtd">

<svg width="135" height="50" viewBox="0 0 135 50" preserveAspectRatio="none" 
  xmlns="http://www.w3.org/2000/svg"
  xmlns:xlink="http://www.w3.org/1999/xlink">


<polyline points="0.0, 19.58663896037137 0.7988165680473372, 10.147251092970567 1.5976331360946745, 4.525432821393099 2.396449704142012, 5.506494450236483 3.195266272189349, 2.150788524203155 3.994082840236686, 0.0 4.792899408284024, 0.2336069610306934 5.591715976331361, 2.794918660293721 6.390532544378698, 7.129802496676556 7.189349112426036, 3.924865963898741 7.988165680473372, 12.220471616164376 8.78698224852071, 9.259129439541896 9.585798816568047, 9.679677007729662 10.384615384615385, 9.726061065096287 11.183431952662723, 11.944964831136579 11.982248520710058, 17.312029003723033 12.781065088757396, 21.57301612080301 13.579881656804734, 17.546564326430847 14.378698224852071, 15.834887039629375 15.177514792899409, 20.571018987603185 15.976331360946745, 14.093405228872749 16.775147928994084, 20.86410745663045 17.57396449704142, 27.966521606539068 18.37278106508876, 29.88285002310472 19.171597633136095, 28.50496574772432 19.970414201183434, 22.820769642184473 20.76923076923077, 21.079227742308866 21.56804733727811, 18.260685805265705 22.366863905325445, 16.463952638531353 23.16568047337278, 15.866680556820754 23.964497041420117, 17.577965397790866 24.763313609467456, 20.53566391431212 25.562130177514792, 21.804958313302517 26.36094674556213, 23.22494827565664 27.159763313609467, 19.9320905211941 27.958579881656807, 21.885951351304172 28.757396449704142, 24.22975520591355 29.55621301775148, 27.06290817493543 30.355029585798817, 28.11923033910401 31.153846153846157, 27.487184735918603 31.95266272189349, 38.600858993061706 32.751479289940825, 36.23695718058834 33.55029585798817, 41.046527687406204 34.349112426035504, 37.01171219720725 35.14792899408284, 39.63300863819863 35.94674556213018, 43.519515781590144 36.74556213017752, 40.522846937792245 37.54437869822485, 38.65609451804228 38.34319526627219, 43.19565315630469 39.142011834319526, 44.98347444071298 39.94082840236687, 41.98273899421135 40.7396449704142, 41.582514374293936 41.53846153846154, 36.06635446393315 42.337278106508876, 34.07642889526864 43.13609467455622, 31.130249239285273 43.93491124260355, 35.94080521336852 44.73372781065089, 42.323031773929756 45.532544378698226, 42.73519811188076 46.33136094674556, 37.53014742247506 47.1301775147929, 38.5305932775859 47.928994082840234, 33.92438376067378 48.72781065088758, 22.413728164824892 49.52662721893491, 22.275860172265062 50.32544378698225, 19.43323012457899 51.124260355029584, 15.64641617376214 51.92307692307693, 20.95209626591056 52.72189349112426, 22.706573223287833 53.5207100591716, 25.009147770330298 54.319526627218934, 30.879566427328225 55.11834319526627, 25.420208199523337 55.91715976331361, 22.12516155877737 56.71597633136094, 24.988008601975775 57.514792899408285, 22.945766961860567 58.31360946745562, 21.517000228982127 59.11242603550296, 23.805000104270043 59.91124260355029, 18.54968930450928 60.710059171597635, 23.01636239758696 61.50887573964497, 23.86694153477472 62.307692307692314, 30.172201482749422 63.10650887573964, 27.051380355382566 63.90532544378698, 30.784704030437204 64.70414201183432, 31.950208722574985 65.50295857988165, 34.022012820134634 66.30177514792899, 33.361827410042174 67.10059171597634, 32.48037307750859 67.89940828402366, 29.82462677730246 68.69822485207101, 33.99610246976098 69.49704142011834, 37.844328618686724 70.29585798816568, 38.03320599137712 71.09467455621302, 36.5214005466353 71.89349112426036, 36.930472456032135 72.6923076923077, 39.91562171286534 73.49112426035504, 37.77815862187407 74.28994082840237, 34.76720889540955 75.0887573964497, 38.33207604881835 75.88757396449704, 41.25850818577594 76.68639053254438, 39.15619435090862 77.48520710059172, 38.07585917048794 78.28402366863905, 36.43906096735569 79.0828402366864, 34.55975034445572 79.88165680473374, 37.29014090220845 80.68047337278107, 42.34553590198545 81.4792899408284, 42.26853079090838 82.27810650887574, 41.50005660946595 83.07692307692308, 50.0 83.87573964497041, 45.1231090053866 84.67455621301775, 45.10529086027805 85.4733727810651, 41.85455969868538 86.27218934911244, 39.95093937219372 87.07100591715975, 39.83568379222113 87.8698224852071, 36.16046414497021 88.66863905325444, 36.35772348528657 89.46745562130178, 34.49384393080342 90.26627218934911, 31.550762490288243 91.06508875739645, 28.810843224681292 91.8639053254438, 29.07584197443014 92.66272189349112, 28.248143907515516 93.46153846153845, 30.9323933916178 94.2603550295858, 31.303572646917686 95.05917159763314, 29.7981322381034 95.85798816568047, 25.798297012496896 96.65680473372781, 27.110950589761966 97.45562130177515, 24.146555223704546 98.2544378698225, 25.16643396053625 99.05325443786982, 23.84719919983537 99.85207100591715, 25.307284151215182 100.6508875739645, 26.990144198201456 101.44970414201183, 28.49477794254333 102.24852071005917, 26.70142511339892 103.04733727810651, 28.897494686800147 103.84615384615385, 29.911816686537257 104.64497041420118, 30.621258552708774 105.44378698224853, 28.600477914299425 106.24260355029585, 26.276016664721443 107.0414201183432, 28.886405395959784 107.84023668639053, 30.31331778135672 108.63905325443787, 28.247412385027033 109.43786982248521, 30.274836256040093 110.23668639053254, 30.847601462941682 111.03550295857988, 31.049718875405997 111.83431952662723, 32.22044711082433 112.63313609467457, 29.57001673614879 113.43195266272188, 29.814056101567093 114.23076923076923, 34.675083267787976 115.02958579881657, 30.540097030978913 115.82840236686391, 33.8544947810546 116.62721893491124, 31.87208823070745 117.42603550295858, 32.09699988834885 118.22485207100593, 32.91674963310023 119.02366863905324, 30.752786451195185 119.82248520710058, 31.033398424450443 120.62130177514793, 30.574164257874692 121.42011834319527, 31.29839543812792 122.2189349112426, 35.10355572587216 123.01775147928994, 32.05191971079483 123.81656804733728, 32.78134768434344 124.61538461538463, 32.53399593986319 125.41420118343194, 29.242381704631004 126.21301775147928, 34.26376787908478 127.01183431952663, 36.40333293984521 127.81065088757396, 41.010192081101074 128.60946745562129, 39.15729206001969 129.40828402366864, 40.50639217464306 130.20710059171597, 38.82408170093466 131.0059171597633, 40.79091677134274 131.80473372781066, 37.29488437602504 132.60355029585799, 31.345676479743368 133.40236686390534, 23.850258870354825 134.20118343195267, 19.286574835097102" fill="none" stroke="#32ca5b" stroke-width="1.25"/>

</svg>