<?xml version="1.0" standalone="no"?>
<!DOCTYPE svg PUBLIC "-//W3C//DTD SVG 1.1//EN" "http://www.w3.org/Graphics/SVG/1.1/DTD/svg11.dtd">

<svg width="135" height="50" viewBox="0 0 135 50" preserveAspectRatio="none" 
  xmlns="http://www.w3.org/2000/svg"
  xmlns:xlink="http://www.w3.org/1999/xlink">


<polyline points="0.0, 19.892983245902922 0.7988165680473372, 24.620013313724172 1.5976331360946745, 26.431583730587416 2.396449704142012, 27.241080286780917 3.195266272189349, 25.815370683806556 3.994082840236686, 23.25018200946088 4.792899408284024, 22.588509879707942 5.591715976331361, 22.304662615589173 6.390532544378698, 28.62591569781165 7.189349112426036, 25.720052585545737 7.988165680473372, 25.75107518689432 8.78698224852071, 22.836001338474794 9.585798816568047, 15.663340750915141 10.384615384615385, 8.527858663160943 11.183431952662723, 10.026434705418422 11.982248520710058, 7.682513568462344 12.781065088757396, 8.74218691068697 13.579881656804734, 14.533390899446463 14.378698224852071, 14.828876111902737 15.177514792899409, 13.786553369982846 15.976331360946745, 10.0670919988824 16.775147928994084, 5.648876781112168 17.57396449704142, 6.306971120996886 18.37278106508876, 1.1122983086443636 19.171597633136095, 0.0 19.970414201183434, 0.21205351225730787 20.76923076923077, 0.44083529274556826 21.56804733727811, 0.48275628937777737 22.366863905325445, 3.023975708854303 23.16568047337278, 3.84474638594404 23.964497041420117, 11.041530873962776 24.763313609467456, 13.86141433679597 25.562130177514792, 14.39433112076889 26.36094674556213, 18.666492045307194 27.159763313609467, 21.03551558485704 27.958579881656807, 22.34815794343808 28.757396449704142, 21.64821153058917 29.55621301775148, 22.28981094883922 30.355029585798817, 27.745881938766072 31.153846153846157, 29.785786150303338 31.95266272189349, 28.026909281723118 32.751479289940825, 28.966044317129548 33.55029585798817, 30.529071585609564 34.349112426035504, 28.290214703178563 35.14792899408284, 32.871520435113155 35.94674556213018, 30.087945488789824 36.74556213017752, 24.344694620984065 37.54437869822485, 22.31659062658076 38.34319526627219, 23.252973230592563 39.142011834319526, 25.661098107849114 39.94082840236687, 30.285517014620357 40.7396449704142, 27.981196407056675 41.53846153846154, 29.228234063564766 42.337278106508876, 30.374652283112923 43.13609467455622, 27.37535952748809 43.93491124260355, 25.58038249109475 44.73372781065089, 24.057383710489063 45.532544378698226, 20.048094219251826 46.33136094674556, 20.225033923075188 47.1301775147929, 21.834544011331296 47.928994082840234, 21.95175851029162 48.72781065088758, 28.55785586079247 49.52662721893491, 29.511264100540448 50.32544378698225, 25.616841011184555 51.124260355029584, 24.440088216202177 51.92307692307693, 25.23785882392638 52.72189349112426, 25.657379967223427 53.5207100591716, 26.139803235222686 54.319526627218934, 24.974163595818393 55.11834319526627, 27.49336250059621 55.91715976331361, 23.849461033604687 56.71597633136094, 24.442521960730552 57.514792899408285, 24.57493812108903 58.31360946745562, 20.73574057662677 59.11242603550296, 24.143113814585966 59.91124260355029, 27.117792020201144 60.710059171597635, 26.878845009723033 61.50887573964497, 26.260174765174877 62.307692307692314, 27.264428294309727 63.10650887573964, 28.3817114627566 63.90532544378698, 27.123646896724235 64.70414201183432, 30.776916362585716 65.50295857988165, 29.862557022538617 66.30177514792899, 32.001027703559544 67.10059171597634, 32.640584122639744 67.89940828402366, 36.06353461124356 68.69822485207101, 36.50900334896382 69.49704142011834, 40.618234072083574 70.29585798816568, 42.53611736129616 71.09467455621302, 37.30508310197164 71.89349112426036, 39.29606492007579 72.6923076923077, 39.17319900324503 73.49112426035504, 44.44250245695146 74.28994082840237, 46.89042399458228 75.0887573964497, 47.76960599318327 75.88757396449704, 48.44677026490533 76.68639053254438, 43.455014501184394 77.48520710059172, 47.75320289842137 78.28402366863905, 46.16210768464288 79.0828402366864, 50.0 79.88165680473374, 48.9114965237052 80.68047337278107, 46.15265868353547 81.4792899408284, 46.12960082075738 82.27810650887574, 46.54194133528889 83.07692307692308, 46.78067368025863 83.87573964497041, 45.86986814745154 84.67455621301775, 45.99887924349402 85.4733727810651, 42.96339513499718 86.27218934911244, 41.31139009489613 87.07100591715975, 42.9353797376617 87.8698224852071, 43.57241264141285 88.66863905325444, 48.131519931303174 89.46745562130178, 49.049855379520395 90.26627218934911, 43.36791555193786 91.06508875739645, 37.570827100228534 91.8639053254438, 37.429605282233794 92.66272189349112, 41.892432501172586 93.46153846153845, 40.394237511333 94.2603550295858, 40.39223792107966 95.05917159763314, 39.40284036597224 95.85798816568047, 38.37179623193024 96.65680473372781, 36.19726946579372 97.45562130177515, 38.02039268489582 98.2544378698225, 35.15456437746897 99.05325443786982, 34.5710685012517 99.85207100591715, 35.30567953744569 100.6508875739645, 35.526580053850296 101.44970414201183, 37.22759687128387 102.24852071005917, 36.45685138128113 103.04733727810651, 36.7873439947532 103.84615384615385, 37.62822579661921 104.64497041420118, 35.79707251379199 105.44378698224853, 34.43113214777671 106.24260355029585, 37.031703943368555 107.0414201183432, 37.072722372108075 107.84023668639053, 38.70308224975968 108.63905325443787, 39.2299494135416 109.43786982248521, 38.847392504830395 110.23668639053254, 39.69248589914478 111.03550295857988, 39.93320001416801 111.83431952662723, 38.10649249682718 112.63313609467457, 36.44478838618025 113.43195266272188, 40.82211272513213 114.23076923076923, 37.50688911528943 115.02958579881657, 36.55592778056068 115.82840236686391, 37.68144620982612 116.62721893491124, 37.653900609237944 117.42603550295858, 36.43552999154712 118.22485207100593, 38.14932055397156 119.02366863905324, 38.882872779151626 119.82248520710058, 38.21996551075502 120.62130177514793, 40.87382410873002 121.42011834319527, 40.73937082182638 122.2189349112426, 44.21131096914059 123.01775147928994, 46.381750590576765 123.81656804733728, 47.3867611564287 124.61538461538463, 46.36743645130187 125.41420118343194, 44.248170800873034 126.21301775147928, 42.4820479679425 127.01183431952663, 41.31956339991832 127.81065088757396, 37.03209944930408 128.60946745562129, 33.226504478795526 129.40828402366864, 32.0267803914368 130.20710059171597, 33.32908652311829 131.0059171597633, 28.42379946177596 131.80473372781066, 27.798763503497213 132.60355029585799, 25.79963514023966 133.40236686390534, 22.097683566529614 134.20118343195267, 22.16256163941001" fill="none" stroke="#ff3a33" stroke-width="1.25"/>

</svg>