<?xml version="1.0" standalone="no"?>
<!DOCTYPE svg PUBLIC "-//W3C//DTD SVG 1.1//EN" "http://www.w3.org/Graphics/SVG/1.1/DTD/svg11.dtd">

<svg width="135" height="50" viewBox="0 0 135 50" preserveAspectRatio="none" 
  xmlns="http://www.w3.org/2000/svg"
  xmlns:xlink="http://www.w3.org/1999/xlink">


<polyline points="0.0, 29.077139965847543 0.7988165680473372, 32.632238727487525 1.5976331360946745, 35.77506926058815 2.396449704142012, 30.58305691794501 3.195266272189349, 32.89833834598976 3.994082840236686, 21.263461891380032 4.792899408284024, 28.723662514082392 5.591715976331361, 22.7163533459699 6.390532544378698, 23.83953349941729 7.189349112426036, 29.643210012914885 7.988165680473372, 31.56324323695983 8.78698224852071, 19.514381758901884 9.585798816568047, 19.680587067235585 10.384615384615385, 20.16862009726033 11.183431952662723, 16.370889309687154 11.982248520710058, 30.36594127905707 12.781065088757396, 33.644267974068576 13.579881656804734, 36.866216012929684 14.378698224852071, 32.4391030606256 15.177514792899409, 25.587956879470998 15.976331360946745, 23.71077653208249 16.775147928994084, 16.9620033588918 17.57396449704142, 14.403061570455513 18.37278106508876, 17.508946350513106 19.171597633136095, 15.328808231339206 19.970414201183434, 14.543797397504877 20.76923076923077, 15.416931146973925 21.56804733727811, 14.831417786853388 22.366863905325445, 16.495194924369194 23.16568047337278, 21.816684795612538 23.964497041420117, 25.192852141167954 24.763313609467456, 30.89742582834835 25.562130177514792, 34.42070235356038 26.36094674556213, 32.83602798363038 27.159763313609467, 41.52928401112292 27.958579881656807, 39.4456044453501 28.757396449704142, 43.27772949005974 29.55621301775148, 39.26079487411215 30.355029585798817, 39.92412549757014 31.153846153846157, 44.80421672749933 31.95266272189349, 43.52083736735238 32.751479289940825, 42.11423490545073 33.55029585798817, 47.382439162868394 34.349112426035504, 50.0 35.14792899408284, 48.65286836295982 35.94674556213018, 48.48587792267221 36.74556213017752, 39.976247919955085 37.54437869822485, 40.015573950194465 38.34319526627219, 36.65730817919612 39.142011834319526, 34.39490948992605 39.94082840236687, 37.3997291523741 40.7396449704142, 35.388264652419174 41.53846153846154, 37.12779804529542 42.337278106508876, 40.641928307069335 43.13609467455622, 40.93345636006533 43.93491124260355, 35.4554570294077 44.73372781065089, 31.189634433461897 45.532544378698226, 29.097098615032014 46.33136094674556, 27.844173434303514 47.1301775147929, 30.181026090160966 47.928994082840234, 30.247754170866912 48.72781065088758, 33.38356321971659 49.52662721893491, 36.98635497005021 50.32544378698225, 33.49867679710245 51.124260355029584, 32.26444844881923 51.92307692307693, 31.13296187825345 52.72189349112426, 29.404488802769784 53.5207100591716, 29.4050976651956 54.319526627218934, 31.823097181587983 55.11834319526627, 28.445121753401626 55.91715976331361, 32.14787056066184 56.71597633136094, 31.252061579393235 57.514792899408285, 33.53481352318068 58.31360946745562, 32.531196338262575 59.11242603550296, 34.55816037940318 59.91124260355029, 38.39316224859468 60.710059171597635, 40.7691595084345 61.50887573964497, 41.5158588196462 62.307692307692314, 41.82687071309739 63.10650887573964, 38.2571669591735 63.90532544378698, 40.8193082502193 64.70414201183432, 43.407614921851014 65.50295857988165, 42.049099610259084 66.30177514792899, 39.782894940857446 67.10059171597634, 38.55032697811968 67.89940828402366, 42.160986385798154 68.69822485207101, 41.33845057890949 69.49704142011834, 38.91687945879459 70.29585798816568, 42.436078345787834 71.09467455621302, 44.84503887421124 71.89349112426036, 39.97856466544072 72.6923076923077, 39.636479902172475 73.49112426035504, 37.15792807695022 74.28994082840237, 36.03877053912005 75.0887573964497, 38.975616137775276 75.88757396449704, 41.79852741408489 76.68639053254438, 40.6251886384908 77.48520710059172, 41.777016638325854 78.28402366863905, 48.29352535521297 79.0828402366864, 45.00516576771255 79.88165680473374, 41.09375380500494 80.68047337278107, 39.07867455597444 81.4792899408284, 34.29733423782728 82.27810650887574, 23.639316860646208 83.07692307692308, 21.766432525616448 83.87573964497041, 19.519506651543352 84.67455621301775, 12.299745730291928 85.4733727810651, 14.283323638110366 86.27218934911244, 19.80604367912888 87.07100591715975, 23.715888173113463 87.8698224852071, 19.2156495758559 88.66863905325444, 26.958284473890547 89.46745562130178, 27.173503753008422 90.26627218934911, 27.564933229449455 91.06508875739645, 24.109454987657724 91.8639053254438, 23.94459464279553 92.66272189349112, 23.001389063077863 93.46153846153845, 22.913224907103046 94.2603550295858, 22.278211123733087 95.05917159763314, 26.39028252624598 95.85798816568047, 26.843297337297066 96.65680473372781, 24.473538676026003 97.45562130177515, 19.473171794988364 98.2544378698225, 13.556187293381914 99.05325443786982, 15.286751154645078 99.85207100591715, 11.323770844787909 100.6508875739645, 8.881336454164908 101.44970414201183, 4.168034312161413 102.24852071005917, 7.526252843088748 103.04733727810651, 3.7497975447323495 103.84615384615385, 0.654991451423718 104.64497041420118, 3.686698866299667 105.44378698224853, 5.906678262034416 106.24260355029585, 8.23863423421546 107.0414201183432, 13.865733200664856 107.84023668639053, 14.54713753903652 108.63905325443787, 17.0975759079697 109.43786982248521, 16.686675152321044 110.23668639053254, 12.592589022538986 111.03550295857988, 13.295873704870855 111.83431952662723, 13.797245492837554 112.63313609467457, 15.252246750588307 113.43195266272188, 10.778670463609416 114.23076923076923, 9.74043046031704 115.02958579881657, 9.720657017635501 115.82840236686391, 2.737114657517856 116.62721893491124, 6.344290204434183 117.42603550295858, 5.305547637481903 118.22485207100593, 2.362173988729902 119.02366863905324, 2.9692914956367207 119.82248520710058, 5.835888556248041 120.62130177514793, 2.866534652160527 121.42011834319527, 10.634150915671512 122.2189349112426, 12.200942198006873 123.01775147928994, 22.132991422406764 123.81656804733728, 15.088026104845307 124.61538461538463, 10.817377016128768 125.41420118343194, 12.472560286147907 126.21301775147928, 16.973003167900767 127.01183431952663, 13.773838850079573 127.81065088757396, 6.748453005934447 128.60946745562129, 2.3773706966546477 129.40828402366864, 0.2548942836943935 130.20710059171597, 0.8518810614022343 131.0059171597633, 0.7187343104668562 131.80473372781066, 2.323889486510256 132.60355029585799, 0.0 133.40236686390534, 1.030859051714376 134.20118343195267, 3.3601303631829795" fill="none" stroke="#32ca5b" stroke-width="1.25"/>

</svg>