<?xml version="1.0" standalone="no"?>
<!DOCTYPE svg PUBLIC "-//W3C//DTD SVG 1.1//EN" "http://www.w3.org/Graphics/SVG/1.1/DTD/svg11.dtd">

<svg width="135" height="50" viewBox="0 0 135 50" preserveAspectRatio="none" 
  xmlns="http://www.w3.org/2000/svg"
  xmlns:xlink="http://www.w3.org/1999/xlink">


<polyline points="0.0, 36.331401114721096 0.7988165680473372, 41.70238079293545 1.5976331360946745, 42.81485327810674 2.396449704142012, 38.722402291516 3.195266272189349, 40.16106250342308 3.994082840236686, 40.73575854558101 4.792899408284024, 39.68036951752222 5.591715976331361, 39.347037526845966 6.390532544378698, 39.119781741736695 7.189349112426036, 40.39668047179073 7.988165680473372, 43.944320542968065 8.78698224852071, 34.380734489667155 9.585798816568047, 31.157395450863067 10.384615384615385, 32.394216242969264 11.183431952662723, 29.52366628581402 11.982248520710058, 37.4705587002295 12.781065088757396, 42.804496870489466 13.579881656804734, 47.93527977313679 14.378698224852071, 46.377309350740504 15.177514792899409, 42.108698071694306 15.976331360946745, 36.3185246610672 16.775147928994084, 35.09719500371524 17.57396449704142, 30.726795111003057 18.37278106508876, 29.127052938097236 19.171597633136095, 19.076236097248607 19.970414201183434, 27.345383004835284 20.76923076923077, 26.544528316229936 21.56804733727811, 24.005664871179082 22.366863905325445, 23.80617839879955 23.16568047337278, 23.82358636515938 23.964497041420117, 29.61378369882428 24.763313609467456, 35.15178517512289 25.562130177514792, 35.44478728976346 26.36094674556213, 35.81318204521095 27.159763313609467, 45.62524648806207 27.958579881656807, 38.49368393097867 28.757396449704142, 43.754346474825354 29.55621301775148, 38.96571794890967 30.355029585798817, 40.61142594349628 31.153846153846157, 45.7822300981444 31.95266272189349, 43.15051572342868 32.751479289940825, 40.80871739082571 33.55029585798817, 46.851989991855156 34.349112426035504, 50.0 35.14792899408284, 44.69527295403456 35.94674556213018, 45.936820722953705 36.74556213017752, 40.08682867045168 37.54437869822485, 38.89797193220762 38.34319526627219, 34.152623127319934 39.142011834319526, 41.289838125362635 39.94082840236687, 46.55440022158886 40.7396449704142, 44.613972004831716 41.53846153846154, 41.4094345823745 42.337278106508876, 42.74306978254839 43.13609467455622, 38.162975792059875 43.93491124260355, 36.36304247877443 44.73372781065089, 34.132102549855716 45.532544378698226, 31.614980077600563 46.33136094674556, 31.017856947699517 47.1301775147929, 34.06389825922227 47.928994082840234, 34.6811556965698 48.72781065088758, 36.13649871863321 49.52662721893491, 42.20883807732691 50.32544378698225, 37.64545507110286 51.124260355029584, 36.1764531872562 51.92307692307693, 39.621657937208624 52.72189349112426, 36.64722087652221 53.5207100591716, 35.81346935214627 54.319526627218934, 39.30608136514072 55.11834319526627, 33.832589774222264 55.91715976331361, 37.33873641050416 56.71597633136094, 34.963667943295434 57.514792899408285, 37.71894479197031 58.31360946745562, 35.83524049435269 59.11242603550296, 32.43794594322479 59.91124260355029, 35.76580255957682 60.710059171597635, 40.8964784630745 61.50887573964497, 37.437124387696215 62.307692307692314, 37.558589032903875 63.10650887573964, 33.5617915436505 63.90532544378698, 40.383181751145194 64.70414201183432, 42.844475885185545 65.50295857988165, 40.630398145102 66.30177514792899, 37.21290132621308 67.10059171597634, 37.44308667723695 67.89940828402366, 39.97493739136832 68.69822485207101, 37.55676007034781 69.49704142011834, 31.302905838087565 70.29585798816568, 32.900913208156545 71.09467455621302, 33.80927885762842 71.89349112426036, 28.740449557547088 72.6923076923077, 29.35277749778391 73.49112426035504, 26.66330742146357 74.28994082840237, 24.747992493695858 75.0887573964497, 26.793752127747457 75.88757396449704, 25.827145877555687 76.68639053254438, 30.1097044569554 77.48520710059172, 29.341064177998984 78.28402366863905, 40.500862467044115 79.0828402366864, 37.31511577932128 79.88165680473374, 35.20570697149999 80.68047337278107, 31.752555124270167 81.4792899408284, 32.76042364900583 82.27810650887574, 33.03829110424136 83.07692307692308, 30.018062417278617 83.87573964497041, 32.133452615050004 84.67455621301775, 26.87868813261687 85.4733727810651, 25.781408377735932 86.27218934911244, 29.081917957378025 87.07100591715975, 31.913135800020203 87.8698224852071, 28.964182135987986 88.66863905325444, 31.010055714690687 89.46745562130178, 31.07706072906355 90.26627218934911, 28.914870537999178 91.06508875739645, 26.755631711820214 91.8639053254438, 28.454499517263955 92.66272189349112, 27.253739508191188 93.46153846153845, 28.018050613595 94.2603550295858, 28.22688770380489 95.05917159763314, 29.13313009181657 95.85798816568047, 29.0159534764165 96.65680473372781, 32.43018042197423 97.45562130177515, 32.28251420745119 98.2544378698225, 32.43743613049724 99.05325443786982, 33.304407723602736 99.85207100591715, 34.34231147874751 100.6508875739645, 34.56032199224114 101.44970414201183, 33.653368916884844 102.24852071005917, 35.21260610618371 103.04733727810651, 37.44285172722607 103.84615384615385, 35.44228336111379 104.64497041420118, 34.48627577817478 105.44378698224853, 34.14735947429327 106.24260355029585, 32.07696358738105 107.0414201183432, 33.856657669157094 107.84023668639053, 29.637900400401378 108.63905325443787, 35.73752902366542 109.43786982248521, 35.7454719057954 110.23668639053254, 32.3047406437979 111.03550295857988, 31.768173517195052 111.83431952662723, 30.938527050055185 112.63313609467457, 31.546869758591384 113.43195266272188, 30.6100131306773 114.23076923076923, 30.944005570352978 115.02958579881657, 31.18336323399778 115.82840236686391, 28.448895239884862 116.62721893491124, 31.884047295385187 117.42603550295858, 34.82286324468261 118.22485207100593, 33.89578658101602 119.02366863905324, 32.727250997554336 119.82248520710058, 25.40218133980548 120.62130177514793, 23.20190910990327 121.42011834319527, 29.125657702224277 122.2189349112426, 29.077722427449466 123.01775147928994, 36.49217315457906 123.81656804733728, 30.960853251603936 124.61538461538463, 31.674312181733022 125.41420118343194, 30.33978838212433 126.21301775147928, 28.26256952732549 127.01183431952663, 18.192342938982982 127.81065088757396, 0.0 128.60946745562129, 13.16195527826033 129.40828402366864, 11.458270115114356 130.20710059171597, 9.459712126724865 131.0059171597633, 5.5722230533163986 131.80473372781066, 5.493817883642857 132.60355029585799, 2.2785104619359364 133.40236686390534, 3.165113972244594 134.20118343195267, 5.974871129670554" fill="none" stroke="#32ca5b" stroke-width="1.25"/>

</svg>