<?xml version="1.0" standalone="no"?>
<!DOCTYPE svg PUBLIC "-//W3C//DTD SVG 1.1//EN" "http://www.w3.org/Graphics/SVG/1.1/DTD/svg11.dtd">

<svg width="135" height="50" viewBox="0 0 135 50" preserveAspectRatio="none" 
  xmlns="http://www.w3.org/2000/svg"
  xmlns:xlink="http://www.w3.org/1999/xlink">


<polyline points="0.0, 4.699630161117585 0.7988165680473372, 6.577490949099456 1.5976331360946745, 11.562923260627972 2.396449704142012, 10.931652253597246 3.195266272189349, 6.431113900971859 3.994082840236686, 10.460984869800273 4.792899408284024, 11.696325849206453 5.591715976331361, 13.244568237099033 6.390532544378698, 14.895391949597956 7.189349112426036, 12.918382129714809 7.988165680473372, 12.479392213575885 8.78698224852071, 15.919490890862292 9.585798816568047, 28.976502469550823 10.384615384615385, 25.078067650147894 11.183431952662723, 17.14985462022224 11.982248520710058, 25.35564740048607 12.781065088757396, 27.34935210456591 13.579881656804734, 28.229724232650895 14.378698224852071, 27.12320214406677 15.177514792899409, 23.98553588973113 15.976331360946745, 23.983465298215105 16.775147928994084, 23.593388956590005 17.57396449704142, 25.49265627274238 18.37278106508876, 31.45252445887082 19.171597633136095, 31.58060736403579 19.970414201183434, 28.78532068933943 20.76923076923077, 27.062392051095525 21.56804733727811, 25.33324369079783 22.366863905325445, 27.098873217824593 23.16568047337278, 29.655268209543053 23.964497041420117, 39.19430575749903 24.763313609467456, 44.315946313500106 25.562130177514792, 39.34951774937754 26.36094674556213, 41.55328223508861 27.159763313609467, 42.36362403657035 27.958579881656807, 44.641618903702934 28.757396449704142, 41.64321902645452 29.55621301775148, 43.70509495304801 30.355029585798817, 42.95591665922736 31.153846153846157, 45.853841156832125 31.95266272189349, 42.17330287858261 32.751479289940825, 45.39520081143662 33.55029585798817, 50.0 34.349112426035504, 47.18297178021649 35.14792899408284, 48.855607075364475 35.94674556213018, 47.9160571116703 36.74556213017752, 46.62518986601919 37.54437869822485, 42.009521546585006 38.34319526627219, 39.75029863810808 39.142011834319526, 36.546699427356785 39.94082840236687, 35.02676412430869 40.7396449704142, 25.003983846165678 41.53846153846154, 16.89500846100918 42.337278106508876, 18.708283476531463 43.13609467455622, 13.68202269626957 43.93491124260355, 15.487442654184289 44.73372781065089, 13.253607583902728 45.532544378698226, 10.501640064974943 46.33136094674556, 9.618507299231089 47.1301775147929, 0.0 47.928994082840234, 2.2345369089983 48.72781065088758, 16.241907971627523 49.52662721893491, 16.977095214122176 50.32544378698225, 15.351717381345638 51.124260355029584, 14.529808625815358 51.92307692307693, 12.863445710163951 52.72189349112426, 14.356509065448709 53.5207100591716, 16.703211452272555 54.319526627218934, 16.46003617950436 55.11834319526627, 17.00509743922111 55.91715976331361, 16.631187686728506 56.71597633136094, 11.642547083385617 57.514792899408285, 7.060783928692251 58.31360946745562, 9.761184056568165 59.11242603550296, 15.777434070510107 59.91124260355029, 16.04426149315196 60.710059171597635, 15.700672026546519 61.50887573964497, 8.502120657913059 62.307692307692314, 9.590735879500066 63.10650887573964, 13.679280398517369 63.90532544378698, 14.684487875995087 64.70414201183432, 12.958360045274627 65.50295857988165, 12.39298789251251 66.30177514792899, 13.945724298543832 67.10059171597634, 15.789228090541899 67.89940828402366, 18.511513654441007 68.69822485207101, 16.468588360491864 69.49704142011834, 18.058189325683134 70.29585798816568, 19.998829003757912 71.09467455621302, 22.928077351721836 71.89349112426036, 23.04938869012287 72.6923076923077, 22.60689958694402 73.49112426035504, 17.70282879828475 74.28994082840237, 18.199764269350922 75.0887573964497, 17.27209482640635 75.88757396449704, 18.6333830743981 76.68639053254438, 16.86295695634408 77.48520710059172, 19.05963010044638 78.28402366863905, 17.568254788091263 79.0828402366864, 18.317743661987993 79.88165680473374, 18.19446360694208 80.68047337278107, 18.928196141245245 81.4792899408284, 18.112813659866024 82.27810650887574, 17.940467859640012 83.07692307692308, 18.19940940075129 83.87573964497041, 17.347905061975815 84.67455621301775, 18.203988318657906 85.4733727810651, 17.72448434949384 86.27218934911244, 15.590896562546119 87.07100591715975, 15.66003909858521 87.8698224852071, 16.00861905311678 88.66863905325444, 13.566417750410832 89.46745562130178, 13.56054077535163 90.26627218934911, 13.31522142624017 91.06508875739645, 12.857041470225708 91.8639053254438, 13.055966039860564 92.66272189349112, 13.183520265018988 93.46153846153845, 14.341583350686044 94.2603550295858, 15.746626051839915 95.05917159763314, 20.073800872122206 95.85798816568047, 18.150410906965377 96.65680473372781, 16.925071035151014 97.45562130177515, 17.209114665908977 98.2544378698225, 16.41652554398835 99.05325443786982, 16.176310645295953 99.85207100591715, 17.716337646713505 100.6508875739645, 19.311613549819935 101.44970414201183, 20.56227953954662 102.24852071005917, 19.3748958736941 103.04733727810651, 20.44020462388438 103.84615384615385, 20.563861172994105 104.64497041420118, 20.440177936940824 105.44378698224853, 18.080218661587814 106.24260355029585, 17.823627770972085 107.0414201183432, 18.068022395263554 107.84023668639053, 18.39358717110901 108.63905325443787, 19.176019227501858 109.43786982248521, 19.05579097506903 110.23668639053254, 18.093280896631285 111.03550295857988, 16.758972854363044 111.83431952662723, 15.943091253796874 112.63313609467457, 15.66197176833852 113.43195266272188, 17.31013422011816 114.23076923076923, 15.764253148122023 115.02958579881657, 17.982794480081516 115.82840236686391, 18.931669600767933 116.62721893491124, 19.529093187610346 117.42603550295858, 18.339691281021164 118.22485207100593, 18.92584155805862 119.02366863905324, 17.950943349035697 119.82248520710058, 16.61759484492404 120.62130177514793, 19.223794845557173 121.42011834319527, 21.04856119414772 122.2189349112426, 25.270079394826556 123.01775147928994, 21.41949316673474 123.81656804733728, 20.87059849483971 124.61538461538463, 20.20818998584138 125.41420118343194, 20.037673899705723 126.21301775147928, 20.26086307854998 127.01183431952663, 17.75200510297502 127.81065088757396, 18.06117481772163 128.60946745562129, 16.66127661628174 129.40828402366864, 17.91965883289767 130.20710059171597, 16.10294236795948 131.0059171597633, 18.013590529450237 131.80473372781066, 17.4704190078133 132.60355029585799, 15.271598209499048 133.40236686390534, 9.360863982997655 134.20118343195267, 1.2287461740248962" fill="none" stroke="#32ca5b" stroke-width="1.25"/>

</svg>