<?xml version="1.0" standalone="no"?>
<!DOCTYPE svg PUBLIC "-//W3C//DTD SVG 1.1//EN" "http://www.w3.org/Graphics/SVG/1.1/DTD/svg11.dtd">

<svg width="135" height="50" viewBox="0 0 135 50" preserveAspectRatio="none" 
  xmlns="http://www.w3.org/2000/svg"
  xmlns:xlink="http://www.w3.org/1999/xlink">


<polyline points="0.0, 35.455187212562755 0.7988165680473372, 36.81257186064211 1.5976331360946745, 35.60939967120484 2.396449704142012, 34.61499950073576 3.195266272189349, 34.64279451985608 3.994082840236686, 38.36988265022926 4.792899408284024, 40.22220631320749 5.591715976331361, 40.85138183206435 6.390532544378698, 38.79358435194421 7.189349112426036, 40.012796826157135 7.988165680473372, 33.988837740897495 8.78698224852071, 29.386035687249677 9.585798816568047, 17.065352893215564 10.384615384615385, 21.230133530629764 11.183431952662723, 23.428679419676527 11.982248520710058, 26.85528702581846 12.781065088757396, 24.75642449372584 13.579881656804734, 23.263577415708355 14.378698224852071, 25.393535284407903 15.177514792899409, 24.04146719303007 15.976331360946745, 31.584880764301797 16.775147928994084, 36.092226919431184 17.57396449704142, 36.03330215829241 18.37278106508876, 33.52027120914002 19.171597633136095, 25.64246016495513 19.970414201183434, 26.19435703368433 20.76923076923077, 27.637425462999754 21.56804733727811, 27.676393633196874 22.366863905325445, 24.20105041191637 23.16568047337278, 22.22670207221628 23.964497041420117, 24.96599127684192 24.763313609467456, 27.598892184561546 25.562130177514792, 29.762240599312356 26.36094674556213, 29.77662053102289 27.159763313609467, 32.75063993270402 27.958579881656807, 33.21225913996069 28.757396449704142, 34.47286393709873 29.55621301775148, 36.90891375542248 30.355029585798817, 35.304458664672104 31.153846153846157, 41.741360724519254 31.95266272189349, 40.7719035006472 32.751479289940825, 43.516288916785854 33.55029585798817, 41.44299637250626 34.349112426035504, 42.37253249179393 35.14792899408284, 44.8412800442601 35.94674556213018, 44.9512671806856 36.74556213017752, 43.164027492387675 37.54437869822485, 46.22613524680419 38.34319526627219, 48.16146839215051 39.142011834319526, 45.26676309789251 39.94082840236687, 45.96283145126729 40.7396449704142, 42.173127934130775 41.53846153846154, 41.47788464768834 42.337278106508876, 39.453272751195136 43.13609467455622, 40.56121458448904 43.93491124260355, 45.324181973324116 44.73372781065089, 46.36625079521177 45.532544378698226, 46.175762712851636 46.33136094674556, 44.983785548636675 47.1301775147929, 44.208085592666805 47.928994082840234, 39.999312910109175 48.72781065088758, 38.41855301604157 49.52662721893491, 35.730744348605526 50.32544378698225, 36.42174316438321 51.124260355029584, 40.15011698871185 51.92307692307693, 39.23763483579569 52.72189349112426, 40.62899449388232 53.5207100591716, 44.53050554845776 54.319526627218934, 41.39244152056309 55.11834319526627, 40.93338004436636 55.91715976331361, 42.94755022329017 56.71597633136094, 41.33229268345141 57.514792899408285, 38.21773190813758 58.31360946745562, 38.94556362648907 59.11242603550296, 36.94722948140285 59.91124260355029, 40.77005336779294 60.710059171597635, 40.44310604561492 61.50887573964497, 42.53484196284237 62.307692307692314, 41.83872100062864 63.10650887573964, 42.94021262152376 63.90532544378698, 45.29038187918829 64.70414201183432, 47.30882762031946 65.50295857988165, 45.774329274636955 66.30177514792899, 46.444315132393726 67.10059171597634, 45.03903824569423 67.89940828402366, 47.87836106442771 68.69822485207101, 50.0 69.49704142011834, 48.728478453910974 70.29585798816568, 46.48942954537805 71.09467455621302, 46.02322131581297 71.89349112426036, 46.907997005282475 72.6923076923077, 45.48403769406941 73.49112426035504, 44.26552861375598 74.28994082840237, 46.05967888519487 75.0887573964497, 46.37945396419322 75.88757396449704, 45.03622276903727 76.68639053254438, 45.423211577420105 77.48520710059172, 44.7700261641573 78.28402366863905, 44.86789670220114 79.0828402366864, 46.6238465043315 79.88165680473374, 48.139871730512404 80.68047337278107, 46.70714679952781 81.4792899408284, 44.99480867535203 82.27810650887574, 49.64011961230212 83.07692307692308, 43.807816656854854 83.87573964497041, 38.34083105057985 84.67455621301775, 37.26688637702542 85.4733727810651, 37.16546879769644 86.27218934911244, 38.244431736799726 87.07100591715975, 39.115214120661946 87.8698224852071, 38.92056931013777 88.66863905325444, 36.8075874995483 89.46745562130178, 37.34190254966785 90.26627218934911, 36.37738179523774 91.06508875739645, 37.4365963273641 91.8639053254438, 35.07524692758899 92.66272189349112, 35.91160145226796 93.46153846153845, 36.62689061346547 94.2603550295858, 33.90273797744728 95.05917159763314, 33.67169535534816 95.85798816568047, 33.259299036283814 96.65680473372781, 33.7520371644321 97.45562130177515, 34.28454615280842 98.2544378698225, 33.40909817463799 99.05325443786982, 34.22826752145622 99.85207100591715, 33.283807769070236 100.6508875739645, 33.962626770274326 101.44970414201183, 30.552641397815776 102.24852071005917, 30.103750104117616 103.04733727810651, 30.76939419967839 103.84615384615385, 31.851668779733256 104.64497041420118, 32.1544718036217 105.44378698224853, 30.686151724709532 106.24260355029585, 30.865854536749126 107.0414201183432, 32.00088175984899 107.84023668639053, 32.59316026245259 108.63905325443787, 32.12666700107534 109.43786982248521, 30.944681985977102 110.23668639053254, 23.89390081999098 111.03550295857988, 25.76928879476379 111.83431952662723, 25.673598581758423 112.63313609467457, 27.724264852728925 113.43195266272188, 26.318705441348683 114.23076923076923, 24.439573636159288 115.02958579881657, 24.671428224816726 115.82840236686391, 24.217933651206298 116.62721893491124, 24.997393518246035 117.42603550295858, 25.005527692580564 118.22485207100593, 25.77681532227399 119.02366863905324, 23.13991402534536 119.82248520710058, 22.981660733804272 120.62130177514793, 25.395880847020287 121.42011834319527, 23.571874408292793 122.2189349112426, 24.30221817954497 123.01775147928994, 26.586541277331737 123.81656804733728, 18.348283399033676 124.61538461538463, 9.932059606738648 125.41420118343194, 7.464204413447134 126.21301775147928, 6.799496583870565 127.01183431952663, 15.085138043650653 127.81065088757396, 9.217145720983822 128.60946745562129, 6.95867549283377 129.40828402366864, 8.634416773105233 130.20710059171597, 10.29563460827 131.0059171597633, 1.0827193561608828 131.80473372781066, 2.2992489235174403 132.60355029585799, 0.8894107511630938 133.40236686390534, 0.0 134.20118343195267, 3.7841843553387067" fill="none" stroke="#32ca5b" stroke-width="1.25"/>

</svg>