<?xml version="1.0" standalone="no"?>
<!DOCTYPE svg PUBLIC "-//W3C//DTD SVG 1.1//EN" "http://www.w3.org/Graphics/SVG/1.1/DTD/svg11.dtd">

<svg width="135" height="50" viewBox="0 0 135 50" preserveAspectRatio="none" 
  xmlns="http://www.w3.org/2000/svg"
  xmlns:xlink="http://www.w3.org/1999/xlink">


<polyline points="0.0, 41.84960077298921 0.7988165680473372, 43.437046451807916 1.5976331360946745, 37.93855880280671 2.396449704142012, 36.9093089998197 3.195266272189349, 36.477983480065355 3.994082840236686, 35.26103524966253 4.792899408284024, 34.912378230628285 5.591715976331361, 35.57562219301985 6.390532544378698, 36.30922944528244 7.189349112426036, 36.653747781962096 7.988165680473372, 35.656012762969276 8.78698224852071, 35.181740983934674 9.585798816568047, 35.672079463478084 10.384615384615385, 35.32412509353093 11.183431952662723, 37.63095414609139 11.982248520710058, 39.15873135495998 12.781065088757396, 39.24329137413387 13.579881656804734, 40.29495932962743 14.378698224852071, 39.75786993808724 15.177514792899409, 38.56799463036757 15.976331360946745, 38.40860563170272 16.775147928994084, 37.98798815071052 17.57396449704142, 36.929520728435 18.37278106508876, 36.924566821980164 19.171597633136095, 37.908138256877535 19.970414201183434, 38.07032117664622 20.76923076923077, 38.678981137364985 21.56804733727811, 38.38189211799579 22.366863905325445, 38.99982736587364 23.16568047337278, 39.63209038839386 23.964497041420117, 42.99613099328028 24.763313609467456, 41.32685155033314 25.562130177514792, 40.89957044267207 26.36094674556213, 42.315771162654734 27.159763313609467, 42.352988693062336 27.958579881656807, 42.44610339715548 28.757396449704142, 42.55541856064846 29.55621301775148, 42.72050997272987 30.355029585798817, 44.7763252204027 31.153846153846157, 44.494044119658255 31.95266272189349, 43.291721646679214 32.751479289940825, 44.64642172616268 33.55029585798817, 50.0 34.349112426035504, 48.076675059720856 35.14792899408284, 45.42900008265233 35.94674556213018, 41.9009640133928 36.74556213017752, 41.62862749453019 37.54437869822485, 41.03381780297596 38.34319526627219, 42.75619646905773 39.142011834319526, 44.429748737384685 39.94082840236687, 42.03234347696838 40.7396449704142, 41.4104485905808 41.53846153846154, 41.19417197026486 42.337278106508876, 41.189516206175355 43.13609467455622, 32.440871856192025 43.93491124260355, 32.53621583047966 44.73372781065089, 31.84904937083455 45.532544378698226, 30.557282165072834 46.33136094674556, 32.06822983170699 47.1301775147929, 32.82101977318826 47.928994082840234, 30.54938864432122 48.72781065088758, 32.373682728057574 49.52662721893491, 29.566727562724626 50.32544378698225, 31.714070923367803 51.124260355029584, 34.24305686911112 51.92307692307693, 39.034841978967485 52.72189349112426, 39.168589598113506 53.5207100591716, 40.55815339340144 54.319526627218934, 36.74017743181287 55.11834319526627, 35.084980828918404 55.91715976331361, 37.32797423390726 56.71597633136094, 36.37202901364401 57.514792899408285, 36.148817018839914 58.31360946745562, 35.57487692613883 59.11242603550296, 36.653089735318495 59.91124260355029, 35.29239526176827 60.710059171597635, 35.85273886291983 61.50887573964497, 33.308248771213464 62.307692307692314, 31.446891555253252 63.10650887573964, 31.653683660716403 63.90532544378698, 32.31116406822 64.70414201183432, 32.31610607317768 65.50295857988165, 32.27390918787998 66.30177514792899, 32.341356141749635 67.10059171597634, 33.24991688746087 67.89940828402366, 33.237139068940714 68.69822485207101, 26.34459677294491 69.49704142011834, 29.772269945671066 70.29585798816568, 29.756609505024027 71.09467455621302, 30.020439687234944 71.89349112426036, 29.587663224169823 72.6923076923077, 28.189250554692187 73.49112426035504, 26.205078685322615 74.28994082840237, 25.120222179369616 75.0887573964497, 30.0435371197615 75.88757396449704, 30.61312129346998 76.68639053254438, 28.493728781908946 77.48520710059172, 29.30221800304278 78.28402366863905, 29.04970816391955 79.0828402366864, 29.468897599653943 79.88165680473374, 29.872441331965582 80.68047337278107, 29.45630397140326 81.4792899408284, 29.380733041218836 82.27810650887574, 28.983486142651365 83.07692307692308, 29.061992608489785 83.87573964497041, 28.747649621048076 84.67455621301775, 28.85591218218816 85.4733727810651, 29.389277462846756 86.27218934911244, 27.94582823119432 87.07100591715975, 26.35702902120547 87.8698224852071, 27.286082609382994 88.66863905325444, 27.605810489892452 89.46745562130178, 23.91410798706446 90.26627218934911, 24.385062309597664 91.06508875739645, 24.35445012374973 91.8639053254438, 25.390514092805983 92.66272189349112, 23.449101794547133 93.46153846153845, 23.86915837859433 94.2603550295858, 23.54954327520019 95.05917159763314, 23.01190159729502 95.85798816568047, 23.282165773257503 96.65680473372781, 22.928514667373786 97.45562130177515, 21.320545170536498 98.2544378698225, 22.499007900939752 99.05325443786982, 22.271475462916037 99.85207100591715, 22.364684752810547 100.6508875739645, 22.731600500978796 101.44970414201183, 22.66974442691969 102.24852071005917, 23.213916690184313 103.04733727810651, 22.920603159341184 103.84615384615385, 22.580776501363278 104.64497041420118, 20.68986033655685 105.44378698224853, 16.116711628490638 106.24260355029585, 12.275072890127625 107.0414201183432, 8.933987725339827 107.84023668639053, 7.588538285999125 108.63905325443787, 5.793591350760773 109.43786982248521, 3.723798193368301 110.23668639053254, 2.300421587207519 111.03550295857988, 7.160425197221879 111.83431952662723, 6.603615584503453 112.63313609467457, 4.776754253808762 113.43195266272188, 2.285837717362477 114.23076923076923, 2.163803940767692 115.02958579881657, 1.5758648651513356 115.82840236686391, 0.0 116.62721893491124, 3.817034251385036 117.42603550295858, 6.016946651140808 118.22485207100593, 4.640110360144087 119.02366863905324, 4.7757461988398955 119.82248520710058, 5.3993910322722085 120.62130177514793, 5.871308047217627 121.42011834319527, 3.8417999320394793 122.2189349112426, 5.263009764326786 123.01775147928994, 3.492688947775392 123.81656804733728, 4.563908564518396 124.61538461538463, 5.1173169433771575 125.41420118343194, 7.346430108570784 126.21301775147928, 7.212282538957074 127.01183431952663, 6.704399499434116 127.81065088757396, 8.742929260972792 128.60946745562129, 7.522747660499066 129.40828402366864, 7.780869447723983 130.20710059171597, 3.581585825688331 131.0059171597633, 8.369700447713086 131.80473372781066, 7.345252370838019 132.60355029585799, 7.189043322169889 133.40236686390534, 4.98968754021177 134.20118343195267, 4.63656734051752" fill="none" stroke="#32ca5b" stroke-width="1.25"/>

</svg>