<?xml version="1.0" standalone="no"?>
<!DOCTYPE svg PUBLIC "-//W3C//DTD SVG 1.1//EN" "http://www.w3.org/Graphics/SVG/1.1/DTD/svg11.dtd">

<svg width="135" height="50" viewBox="0 0 135 50" preserveAspectRatio="none" 
  xmlns="http://www.w3.org/2000/svg"
  xmlns:xlink="http://www.w3.org/1999/xlink">


<polyline points="0.0, 35.95731555463556 0.7988165680473372, 37.18363196570039 1.5976331360946745, 36.276923154725196 2.396449704142012, 39.57366176294994 3.195266272189349, 37.883298276594665 3.994082840236686, 38.317635605016555 4.792899408284024, 38.01814949677669 5.591715976331361, 38.510004529295045 6.390532544378698, 39.11883982176336 7.189349112426036, 41.49206196826432 7.988165680473372, 39.334825407291305 8.78698224852071, 37.36772603550024 9.585798816568047, 37.91198246821498 10.384615384615385, 33.362951885578205 11.183431952662723, 39.30961422073696 11.982248520710058, 43.39485703972088 12.781065088757396, 45.3417672672133 13.579881656804734, 44.61771816918996 14.378698224852071, 43.169600696417355 15.177514792899409, 40.04184537495554 15.976331360946745, 39.85482818768791 16.775147928994084, 37.95118620072644 17.57396449704142, 37.66226191118099 18.37278106508876, 36.345598194254585 19.171597633136095, 37.146141360473926 19.970414201183434, 38.894562163927226 20.76923076923077, 37.38964852011714 21.56804733727811, 34.61093875259234 22.366863905325445, 35.84070762089641 23.16568047337278, 37.23417004520093 23.964497041420117, 39.253279375780295 24.763313609467456, 41.0987187328953 25.562130177514792, 41.672471024804935 26.36094674556213, 48.74222697333556 27.159763313609467, 44.79172720207051 27.958579881656807, 44.87993910754209 28.757396449704142, 43.673969821955 29.55621301775148, 46.20728140453162 30.355029585798817, 49.16511137947482 31.153846153846157, 47.933165782969596 31.95266272189349, 45.24601617961399 32.751479289940825, 48.647366818040894 33.55029585798817, 50.0 34.349112426035504, 47.82265404864102 35.14792899408284, 47.43820786722257 35.94674556213018, 42.86079903252754 36.74556213017752, 42.3026913138512 37.54437869822485, 41.04887624246857 38.34319526627219, 42.886392789325434 39.142011834319526, 46.58221549562169 39.94082840236687, 45.470724931856864 40.7396449704142, 43.69839201122854 41.53846153846154, 44.29783209238243 42.337278106508876, 42.62867927565818 43.13609467455622, 39.3284994668209 43.93491124260355, 37.81016124568763 44.73372781065089, 34.2955015250373 45.532544378698226, 34.12137008647793 46.33136094674556, 35.51721204373378 47.1301775147929, 36.39272203298226 47.928994082840234, 36.75130078705353 48.72781065088758, 39.863342764857606 49.52662721893491, 36.80632497093376 50.32544378698225, 34.724351991268534 51.124260355029584, 36.68720799893172 51.92307692307693, 33.99115045747058 52.72189349112426, 33.85389281841521 53.5207100591716, 34.85053854451208 54.319526627218934, 31.94220297506111 55.11834319526627, 34.382594212788234 55.91715976331361, 33.58810151073538 56.71597633136094, 36.076234661575285 57.514792899408285, 34.057478634721264 58.31360946745562, 35.75831952021029 59.11242603550296, 37.94325071730838 59.91124260355029, 38.2373995839005 60.710059171597635, 37.92386694459797 61.50887573964497, 37.49212322756053 62.307692307692314, 34.7379048874107 63.10650887573964, 38.3210527934198 63.90532544378698, 40.67326698177147 64.70414201183432, 39.30587167464812 65.50295857988165, 37.20854044599869 66.30177514792899, 37.351871577794974 67.10059171597634, 38.35352946175547 67.89940828402366, 35.86078734496783 68.69822485207101, 29.571557214469607 69.49704142011834, 28.37533002180398 70.29585798816568, 31.049640728725592 71.09467455621302, 29.106260201568023 71.89349112426036, 29.22814422780929 72.6923076923077, 29.971982560214855 73.49112426035504, 26.337874616622358 74.28994082840237, 26.403876761022744 75.0887573964497, 29.086115152171253 75.88757396449704, 30.400838391299335 76.68639053254438, 28.71911559064789 77.48520710059172, 34.174681415067695 78.28402366863905, 29.36593741661006 79.0828402366864, 27.369050466031076 79.88165680473374, 25.37749541569085 80.68047337278107, 22.90281949567942 81.4792899408284, 25.21541468052365 82.27810650887574, 21.319907485795355 83.07692307692308, 20.621582366727782 83.87573964497041, 18.764079328798193 84.67455621301775, 14.368704921472633 85.4733727810651, 10.500861672519225 86.27218934911244, 3.0183147230597687 87.07100591715975, 0.0 87.8698224852071, 9.252654701161271 88.66863905325444, 11.758593303641861 89.46745562130178, 12.794545080465133 90.26627218934911, 11.111326966326631 91.06508875739645, 11.664532528360274 91.8639053254438, 11.945708093597963 92.66272189349112, 10.680610363210416 93.46153846153845, 10.489197698750461 94.2603550295858, 12.116495135041395 95.05917159763314, 11.501790445449423 95.85798816568047, 10.927699030642842 96.65680473372781, 8.571414106552613 97.45562130177515, 8.533541017700513 98.2544378698225, 8.369017397879746 99.05325443786982, 10.59161726581242 99.85207100591715, 10.483559392850514 100.6508875739645, 9.734696448900023 101.44970414201183, 10.099559700606639 102.24852071005917, 9.938752070787784 103.04733727810651, 8.214072041871907 103.84615384615385, 10.624613373377766 104.64497041420118, 8.308799791831548 105.44378698224853, 8.52015319756451 106.24260355029585, 7.055311083045407 107.0414201183432, 3.5156222668870183 107.84023668639053, 5.635836167247925 108.63905325443787, 6.8659922711475625 109.43786982248521, 9.810262599501836 110.23668639053254, 9.31940025268453 111.03550295857988, 9.049243507638247 111.83431952662723, 7.55506253605512 112.63313609467457, 7.161844740457181 113.43195266272188, 7.471960614097252 114.23076923076923, 6.331637874205723 115.02958579881657, 3.4571554164147242 115.82840236686391, 5.182878707380902 116.62721893491124, 6.375509983930488 117.42603550295858, 5.097568008934976 118.22485207100593, 4.770750572007676 119.02366863905324, 4.445029520740325 119.82248520710058, 3.046100299969543 120.62130177514793, 5.060735510441933 121.42011834319527, 5.114561155228375 122.2189349112426, 12.217463203601397 123.01775147928994, 9.576512194497939 123.81656804733728, 8.003591492768052 124.61538461538463, 7.425249497439015 125.41420118343194, 8.582829394432107 126.21301775147928, 5.035449149307815 127.01183431952663, 3.286873739914635 127.81065088757396, 2.3132265019444533 128.60946745562129, 3.2119239371530472 129.40828402366864, 4.512820527077184 130.20710059171597, 0.9855847576121478 131.0059171597633, 1.60436042587049 131.80473372781066, 0.8651869513548114 132.60355029585799, 0.5672031073975738 133.40236686390534, 0.5928958803001126 134.20118343195267, 1.0114738774095478" fill="none" stroke="#32ca5b" stroke-width="1.25"/>

</svg>