<?xml version="1.0" standalone="no"?>
<!DOCTYPE svg PUBLIC "-//W3C//DTD SVG 1.1//EN" "http://www.w3.org/Graphics/SVG/1.1/DTD/svg11.dtd">

<svg width="135" height="50" viewBox="0 0 135 50" preserveAspectRatio="none" 
  xmlns="http://www.w3.org/2000/svg"
  xmlns:xlink="http://www.w3.org/1999/xlink">


<polyline points="0.0, 39.51532832488706 0.7988165680473372, 41.26198188611654 1.5976331360946745, 42.78521141003869 2.396449704142012, 42.53902978519281 3.195266272189349, 42.59981902969647 3.994082840236686, 41.76144344236462 4.792899408284024, 41.134418911153574 5.591715976331361, 41.69346628564406 6.390532544378698, 41.82792203888487 7.189349112426036, 42.96205714259729 7.988165680473372, 44.14108348244026 8.78698224852071, 42.49341080840131 9.585798816568047, 42.35549693056972 10.384615384615385, 42.852961480190274 11.183431952662723, 42.17097900092742 11.982248520710058, 44.80673757376855 12.781065088757396, 47.04189540195651 13.579881656804734, 47.86719937609662 14.378698224852071, 47.231107912910204 15.177514792899409, 47.0441942803336 15.976331360946745, 45.14912475883716 16.775147928994084, 45.053042046284155 17.57396449704142, 44.87478987787905 18.37278106508876, 44.26078617938251 19.171597633136095, 44.597626323005365 19.970414201183434, 44.89542889259208 20.76923076923077, 44.58236640409599 21.56804733727811, 44.47590000024758 22.366863905325445, 44.6743813806418 23.16568047337278, 45.07277867633649 23.964497041420117, 44.59934928739942 24.763313609467456, 46.000610908692195 25.562130177514792, 46.62560886816009 26.36094674556213, 46.2334015077553 27.159763313609467, 49.1807230493393 27.958579881656807, 48.571275380171656 28.757396449704142, 48.63080152323745 29.55621301775148, 47.741803139862455 30.355029585798817, 48.36835980695258 31.153846153846157, 49.10352538449694 31.95266272189349, 48.74105356718757 32.751479289940825, 48.14473592577247 33.55029585798817, 49.10545336484714 34.349112426035504, 50.0 35.14792899408284, 49.25295790889673 35.94674556213018, 49.3350576850706 36.74556213017752, 48.08175525724918 37.54437869822485, 47.44445066473634 38.34319526627219, 46.65267860879441 39.142011834319526, 46.952613743654474 39.94082840236687, 48.278609297757754 40.7396449704142, 47.66568127272284 41.53846153846154, 46.95336747176407 42.337278106508876, 47.0241147039669 43.13609467455622, 45.79765471436084 43.93491124260355, 44.72626173701864 44.73372781065089, 44.39836071417831 45.532544378698226, 43.110506142097385 46.33136094674556, 43.19489524310845 47.1301775147929, 43.26652562958108 47.928994082840234, 42.40023881176824 48.72781065088758, 42.61875966050185 49.52662721893491, 44.17467375007435 50.32544378698225, 42.64892721937958 51.124260355029584, 42.75393197833727 51.92307692307693, 43.4588243989383 52.72189349112426, 42.66408023602435 53.5207100591716, 41.959750050849294 54.319526627218934, 42.63000574145542 55.11834319526627, 41.704586400750856 55.91715976331361, 43.02884993303133 56.71597633136094, 42.492072781941474 57.514792899408285, 43.282999987201386 58.31360946745562, 42.81745285838643 59.11242603550296, 42.99768959620188 59.91124260355029, 43.23258714102124 60.710059171597635, 43.045302629293374 61.50887573964497, 42.515828983730636 62.307692307692314, 41.984823302950616 63.10650887573964, 41.082494277103535 63.90532544378698, 42.7804802861509 64.70414201183432, 44.19934831476969 65.50295857988165, 44.71280521366647 66.30177514792899, 43.81838688634125 67.10059171597634, 44.38881533962409 67.89940828402366, 45.78049911051528 68.69822485207101, 44.81380971186643 69.49704142011834, 44.47053576726835 70.29585798816568, 45.63934296396483 71.09467455621302, 45.59598489131386 71.89349112426036, 44.40176732874148 72.6923076923077, 44.66589274755163 73.49112426035504, 44.39163431331161 74.28994082840237, 42.972168931028435 75.0887573964497, 43.72724584387651 75.88757396449704, 44.9403440095167 76.68639053254438, 45.037754187082804 77.48520710059172, 44.06859931830283 78.28402366863905, 46.23519070155894 79.0828402366864, 45.03823789950677 79.88165680473374, 44.14652346721826 80.68047337278107, 43.466878831986946 81.4792899408284, 42.69478330941934 82.27810650887574, 43.082153195489376 83.07692307692308, 42.4644862853971 83.87573964497041, 41.59946510548973 84.67455621301775, 40.728571889765234 85.4733727810651, 33.08348029922804 86.27218934911244, 30.678285687422168 87.07100591715975, 31.628300863569557 87.8698224852071, 28.93779406031812 88.66863905325444, 30.57614195065707 89.46745562130178, 36.82868824906817 90.26627218934911, 36.53654316478053 91.06508875739645, 36.12633298789583 91.8639053254438, 35.684321631577 92.66272189349112, 36.03849688298265 93.46153846153845, 35.909277840226096 94.2603550295858, 35.747294774563095 95.05917159763314, 35.43643137405121 95.85798816568047, 35.35549962758328 96.65680473372781, 36.625187971216164 97.45562130177515, 35.80581800069195 98.2544378698225, 35.81347782932313 99.05325443786982, 37.53003443304481 99.85207100591715, 38.11727609501197 100.6508875739645, 38.06367225176277 101.44970414201183, 38.12655244304135 102.24852071005917, 38.36415308449778 103.04733727810651, 39.05450295051998 103.84615384615385, 38.18916842990537 104.64497041420118, 37.713600945449606 105.44378698224853, 37.1748838286459 106.24260355029585, 35.8847096667915 107.0414201183432, 36.552841980520725 107.84023668639053, 35.30941609393054 108.63905325443787, 34.367176001932066 109.43786982248521, 33.201470435306376 110.23668639053254, 32.08299506086891 111.03550295857988, 30.872075534280324 111.83431952662723, 31.305287704241525 112.63313609467457, 30.94827215932195 113.43195266272188, 30.449444524300613 114.23076923076923, 31.265443375143466 115.02958579881657, 29.857718013561108 115.82840236686391, 26.518623250731604 116.62721893491124, 23.94677754864266 117.42603550295858, 23.023878165516614 118.22485207100593, 23.14891537124971 119.02366863905324, 24.69320291510985 119.82248520710058, 26.77042057209912 120.62130177514793, 25.946219322434732 121.42011834319527, 28.52315667264904 122.2189349112426, 27.548792719385435 123.01775147928994, 31.608069940176104 123.81656804733728, 29.089854715099356 124.61538461538463, 28.54558932140097 125.41420118343194, 27.0664737627969 126.21301775147928, 27.375031199696494 127.01183431952663, 24.25051296885455 127.81065088757396, 4.838127039206543 128.60946745562129, 12.999686724046237 129.40828402366864, 12.039674029210639 130.20710059171597, 10.353791172552073 131.0059171597633, 7.7706342279060205 131.80473372781066, 7.845720677508565 132.60355029585799, 7.925148959849107 133.40236686390534, 9.213716175741999 134.20118343195267, 0.0" fill="none" stroke="#32ca5b" stroke-width="1.25"/>

</svg>