<?xml version="1.0" standalone="no"?>
<!DOCTYPE svg PUBLIC "-//W3C//DTD SVG 1.1//EN" "http://www.w3.org/Graphics/SVG/1.1/DTD/svg11.dtd">

<svg width="135" height="50" viewBox="0 0 135 50" preserveAspectRatio="none" 
  xmlns="http://www.w3.org/2000/svg"
  xmlns:xlink="http://www.w3.org/1999/xlink">


<polyline points="0.0, 34.26440552004331 0.7988165680473372, 35.26131264471495 1.5976331360946745, 36.67587322423099 2.396449704142012, 34.96179678592797 3.195266272189349, 35.55704005402739 3.994082840236686, 34.76138308616601 4.792899408284024, 33.26470288132881 5.591715976331361, 23.7584805528101 6.390532544378698, 16.11637150674209 7.189349112426036, 18.400082840487286 7.988165680473372, 26.624684101448935 8.78698224852071, 7.9095190450902715 9.585798816568047, 0.0 10.384615384615385, 12.772300127321099 11.183431952662723, 3.8456482323917283 11.982248520710058, 12.64771495887135 12.781065088757396, 27.636297384320763 13.579881656804734, 38.25916478952167 14.378698224852071, 35.09710050967106 15.177514792899409, 38.52051172141323 15.976331360946745, 31.462973660980797 16.775147928994084, 28.447139216558483 17.57396449704142, 25.693726776372955 18.37278106508876, 25.748138590130274 19.171597633136095, 17.19745664273 19.970414201183434, 27.96663607876098 20.76923076923077, 28.045706695409585 21.56804733727811, 28.354236880187678 22.366863905325445, 28.578503102783593 23.16568047337278, 28.87354780393349 23.964497041420117, 33.12824734536265 24.763313609467456, 34.11170379684021 25.562130177514792, 34.351524064040674 26.36094674556213, 33.36045605013814 27.159763313609467, 40.083808825512776 27.958579881656807, 38.15302231619351 28.757396449704142, 41.76036886104266 29.55621301775148, 37.65145361336205 30.355029585798817, 39.002034099511526 31.153846153846157, 42.85934919689954 31.95266272189349, 40.68868778877406 32.751479289940825, 38.78718833611199 33.55029585798817, 43.140618011155055 34.349112426035504, 45.24642915310732 35.14792899408284, 44.01970412488602 35.94674556213018, 42.58513083312517 36.74556213017752, 39.650441619104036 37.54437869822485, 37.73781063336088 38.34319526627219, 34.58891381714573 39.142011834319526, 36.00984265287891 39.94082840236687, 43.43556004783699 40.7396449704142, 42.29710546232572 41.53846153846154, 40.03215862913091 42.337278106508876, 40.574423084417326 43.13609467455622, 38.16912237910463 43.93491124260355, 34.487672761656285 44.73372781065089, 33.616677409936635 45.532544378698226, 32.80282168220371 46.33136094674556, 30.898215521550586 47.1301775147929, 31.548401820419432 47.928994082840234, 32.903165162871005 48.72781065088758, 34.317296684620395 49.52662721893491, 38.46972213659829 50.32544378698225, 33.832480107702416 51.124260355029584, 32.28866406821329 51.92307692307693, 35.197456488323624 52.72189349112426, 33.700992231965245 53.5207100591716, 32.328888272539054 54.319526627218934, 33.77554004527357 55.11834319526627, 31.59308404475693 55.91715976331361, 34.00341685174862 56.71597633136094, 33.878591475001244 57.514792899408285, 35.92270481829259 58.31360946745562, 35.305415672916254 59.11242603550296, 36.54823945503751 59.91124260355029, 40.63348560601191 60.710059171597635, 40.78047371770606 61.50887573964497, 40.33902067227849 62.307692307692314, 40.79952740082592 63.10650887573964, 39.271007615944264 63.90532544378698, 41.39866912165917 64.70414201183432, 43.861478563215556 65.50295857988165, 41.60237975140907 66.30177514792899, 39.73043080583285 67.10059171597634, 40.319811943571 67.89940828402366, 41.765819182435365 68.69822485207101, 40.09135498498211 69.49704142011834, 40.17483646452782 70.29585798816568, 43.946553828372856 71.09467455621302, 43.943376421426926 71.89349112426036, 41.67678493264739 72.6923076923077, 41.06844252317512 73.49112426035504, 40.4920547803807 74.28994082840237, 39.82910913046442 75.0887573964497, 40.37435948761862 75.88757396449704, 43.066542216959576 76.68639053254438, 42.8706372419505 77.48520710059172, 40.738418919195425 78.28402366863905, 48.44075634014313 79.0828402366864, 45.6934628405436 79.88165680473374, 44.108302416535025 80.68047337278107, 42.78900863759853 81.4792899408284, 42.773072044334604 82.27810650887574, 43.46005247236352 83.07692307692308, 41.29789833160453 83.87573964497041, 42.138076875919026 84.67455621301775, 39.528520889260385 85.4733727810651, 39.937170100125485 86.27218934911244, 39.58797684848369 87.07100591715975, 40.61598890071943 87.8698224852071, 39.78653441085637 88.66863905325444, 40.58006687230674 89.46745562130178, 40.271484471742106 90.26627218934911, 39.32990850986173 91.06508875739645, 37.46982187073316 91.8639053254438, 37.645773901653875 92.66272189349112, 36.93670969234867 93.46153846153845, 37.75803607284946 94.2603550295858, 37.571362349095786 95.05917159763314, 38.73281065142884 95.85798816568047, 38.31525890485771 96.65680473372781, 38.88354971801372 97.45562130177515, 37.91177695820309 98.2544378698225, 36.93630591048513 99.05325443786982, 36.06141413797552 99.85207100591715, 37.393614103817825 100.6508875739645, 37.45291640148112 101.44970414201183, 36.177046396303844 102.24852071005917, 39.28139381897411 103.04733727810651, 40.3468918273368 103.84615384615385, 39.57170472410472 104.64497041420118, 40.01145174100316 105.44378698224853, 39.12387677507251 106.24260355029585, 38.1672218261578 107.0414201183432, 39.38836307358681 107.84023668639053, 38.78616424677052 108.63905325443787, 39.90629526375689 109.43786982248521, 39.3551299144303 110.23668639053254, 38.611771040231304 111.03550295857988, 39.25656290250711 111.83431952662723, 38.05973142081231 112.63313609467457, 38.085456537884475 113.43195266272188, 38.459541348934934 114.23076923076923, 38.21917883493024 115.02958579881657, 37.90002360736703 115.82840236686391, 38.079299986870176 116.62721893491124, 40.21812399397433 117.42603550295858, 40.57743958749538 118.22485207100593, 40.25126256207905 119.02366863905324, 39.933484177694474 119.82248520710058, 39.14236538672024 120.62130177514793, 40.06640413282377 121.42011834319527, 43.60060549169095 122.2189349112426, 43.43076637885005 123.01775147928994, 50.0 123.81656804733728, 49.22648722571326 124.61538461538463, 49.83270495804303 125.41420118343194, 48.89133020500636 126.21301775147928, 47.87256177259449 127.01183431952663, 43.9698592046939 127.81065088757396, 39.80775453639643 128.60946745562129, 38.19635384461232 129.40828402366864, 37.09518279581722 130.20710059171597, 40.577444870213974 131.0059171597633, 36.509031936451464 131.80473372781066, 37.614742723533965 132.60355029585799, 36.47463005534979 133.40236686390534, 36.555496019322206 134.20118343195267, 36.01794865890746" fill="none" stroke="#ff3a33" stroke-width="1.25"/>

</svg>