<?xml version="1.0" standalone="no"?>
<!DOCTYPE svg PUBLIC "-//W3C//DTD SVG 1.1//EN" "http://www.w3.org/Graphics/SVG/1.1/DTD/svg11.dtd">

<svg width="135" height="50" viewBox="0 0 135 50" preserveAspectRatio="none" 
  xmlns="http://www.w3.org/2000/svg"
  xmlns:xlink="http://www.w3.org/1999/xlink">


<polyline points="0.0, 0.0 0.7988165680473372, 5.261581713844727 1.5976331360946745, 7.736277787718356 2.396449704142012, 6.2392433372487766 3.195266272189349, 10.248781628347597 3.994082840236686, 8.742425076308272 4.792899408284024, 8.589399254707644 5.591715976331361, 8.566187759436756 6.390532544378698, 10.536208490463695 7.189349112426036, 13.773012885566008 7.988165680473372, 17.23063455651156 8.78698224852071, 14.710266195016466 9.585798816568047, 12.010172141505453 10.384615384615385, 14.289663403998013 11.183431952662723, 7.939117418482498 11.982248520710058, 15.229307105107276 12.781065088757396, 21.19546061626976 13.579881656804734, 25.985593514445743 14.378698224852071, 24.94178126043433 15.177514792899409, 23.91679255817531 15.976331360946745, 20.039384881576407 16.775147928994084, 19.146600263987377 17.57396449704142, 18.242416766515714 18.37278106508876, 16.676570900615875 19.171597633136095, 15.715218967485592 19.970414201183434, 18.155831627514406 20.76923076923077, 20.880799904830237 21.56804733727811, 22.030497594159375 22.366863905325445, 22.557156212362543 23.16568047337278, 24.303184544268067 23.964497041420117, 21.07814961774654 24.763313609467456, 22.19850663507286 25.562130177514792, 27.375840420134672 26.36094674556213, 27.814814486751967 27.159763313609467, 35.67119480853918 27.958579881656807, 33.17088779178692 28.757396449704142, 36.11699993125851 29.55621301775148, 33.06609275233332 30.355029585798817, 34.55320336248369 31.153846153846157, 37.21411674135627 31.95266272189349, 35.04977857663562 32.751479289940825, 33.336355904298514 33.55029585798817, 36.49384276027738 34.349112426035504, 38.57843666888534 35.14792899408284, 36.336812084836104 35.94674556213018, 37.12621317008051 36.74556213017752, 33.02783261451782 37.54437869822485, 31.309492886778646 38.34319526627219, 27.260900686372942 39.142011834319526, 31.060160916553524 39.94082840236687, 36.326415044259605 40.7396449704142, 35.65985966561316 41.53846153846154, 32.846168065172016 42.337278106508876, 33.888684280068425 43.13609467455622, 32.0298890552802 43.93491124260355, 28.699728553616815 44.73372781065089, 26.304027635758565 45.532544378698226, 22.975868291623595 46.33136094674556, 21.85781216780404 47.1301775147929, 25.778523474084718 47.928994082840234, 25.441794389837046 48.72781065088758, 27.985805672434495 49.52662721893491, 32.32275747017778 50.32544378698225, 30.268458704581114 51.124260355029584, 30.15907513456971 51.92307692307693, 30.200967822629703 52.72189349112426, 27.39418258563356 53.5207100591716, 26.408818269280587 54.319526627218934, 27.71356784247367 55.11834319526627, 25.05689416357332 55.91715976331361, 28.577403644205358 56.71597633136094, 28.78333350913494 57.514792899408285, 31.362538933290217 58.31360946745562, 29.66433207220621 59.11242603550296, 31.776337875638283 59.91124260355029, 34.585535831945066 60.710059171597635, 37.208845982384005 61.50887573964497, 36.544709061622456 62.307692307692314, 36.46308766908224 63.10650887573964, 33.939613774965125 63.90532544378698, 38.85816771668164 64.70414201183432, 41.32215570032209 65.50295857988165, 40.131542098363816 66.30177514792899, 38.66600503444818 67.10059171597634, 38.206429831450535 67.89940828402366, 40.16500928828833 68.69822485207101, 37.903684157797095 69.49704142011834, 36.38944195791874 70.29585798816568, 44.740004372050166 71.09467455621302, 42.76166880791229 71.89349112426036, 41.51575410886043 72.6923076923077, 42.40614362528999 73.49112426035504, 41.9893094518558 74.28994082840237, 41.32106991373774 75.0887573964497, 43.5000143983832 75.88757396449704, 46.226600334219015 76.68639053254438, 45.42249953056754 77.48520710059172, 44.659433683005076 78.28402366863905, 50.0 79.0828402366864, 47.5739640869733 79.88165680473374, 46.56793898431548 80.68047337278107, 45.16282234618754 81.4792899408284, 44.08063758365963 82.27810650887574, 44.45375324703561 83.07692307692308, 42.96976756392011 83.87573964497041, 43.7966351463471 84.67455621301775, 40.82464465166329 85.4733727810651, 37.56190113385488 86.27218934911244, 37.33177542919709 87.07100591715975, 37.70118298073585 87.8698224852071, 37.27485055241564 88.66863905325444, 39.64869788945617 89.46745562130178, 39.75092687319111 90.26627218934911, 37.45466473485909 91.06508875739645, 34.33536241402512 91.8639053254438, 34.77932284106092 92.66272189349112, 35.65309621943689 93.46153846153845, 36.028357072590964 94.2603550295858, 36.03717596784347 95.05917159763314, 36.608285669677606 95.85798816568047, 36.64260030563574 96.65680473372781, 38.560063860386435 97.45562130177515, 36.05406959496413 98.2544378698225, 35.61901322599093 99.05325443786982, 37.23169382133579 99.85207100591715, 37.81048845415595 100.6508875739645, 37.22284261264969 101.44970414201183, 36.564044499741605 102.24852071005917, 37.75824409231509 103.04733727810651, 39.50004520700942 103.84615384615385, 39.82897042459639 104.64497041420118, 39.152882914734 105.44378698224853, 37.88510874019449 106.24260355029585, 37.11380930506953 107.0414201183432, 38.22064506185741 107.84023668639053, 34.65475463645484 108.63905325443787, 38.53486942180237 109.43786982248521, 39.93298723168405 110.23668639053254, 37.53448914480872 111.03550295857988, 38.30910297597586 111.83431952662723, 37.77268992235096 112.63313609467457, 37.08404001563993 113.43195266272188, 36.91841525208859 114.23076923076923, 37.20534637524718 115.02958579881657, 36.60345331090215 115.82840236686391, 35.45255822253704 116.62721893491124, 35.57962031112769 117.42603550295858, 36.55690542467188 118.22485207100593, 34.59998345277459 119.02366863905324, 36.08398569041111 119.82248520710058, 23.971916931843946 120.62130177514793, 24.232823514110645 121.42011834319527, 28.406711916829703 122.2189349112426, 28.085790572371494 123.01775147928994, 36.46155584305125 123.81656804733728, 34.09015901344555 124.61538461538463, 35.619694036717384 125.41420118343194, 34.93381966332738 126.21301775147928, 34.44620345921798 127.01183431952663, 31.493384666616404 127.81065088757396, 29.75763873635061 128.60946745562129, 29.124177060852467 129.40828402366864, 28.837813623054465 130.20710059171597, 31.45262848070961 131.0059171597633, 28.9488090408355 131.80473372781066, 28.9224178908957 132.60355029585799, 29.44691797729937 133.40236686390534, 30.707101859189724 134.20118343195267, 30.46486676929254" fill="none" stroke="#ff3a33" stroke-width="1.25"/>

</svg>