<?xml version="1.0" standalone="no"?>
<!DOCTYPE svg PUBLIC "-//W3C//DTD SVG 1.1//EN" "http://www.w3.org/Graphics/SVG/1.1/DTD/svg11.dtd">

<svg width="135" height="50" viewBox="0 0 135 50" preserveAspectRatio="none" 
  xmlns="http://www.w3.org/2000/svg"
  xmlns:xlink="http://www.w3.org/1999/xlink">


<polyline points="0.0, 46.622355054685485 0.7941176470588235, 46.0618555326138 1.588235294117647, 48.294207242011645 2.3823529411764706, 48.41929175992281 3.176470588235294, 50.0 3.9705882352941178, 49.49013722257114 4.764705882352941, 48.957203483904685 5.5588235294117645, 48.22588622181426 6.352941176470588, 48.41957508210231 7.147058823529411, 48.86744833922487 7.9411764705882355, 49.59976560818275 8.73529411764706, 49.340458854387045 9.529411764705882, 42.99799588918216 10.323529411764707, 43.77691773601094 11.117647058823529, 39.134411901479254 11.911764705882353, 43.829598133409256 12.705882352941176, 43.22238854873587 13.5, 43.15911285105444 14.294117647058822, 43.99516186661598 15.088235294117649, 45.05041726918687 15.882352941176471, 43.31809819071318 16.676470588235293, 39.646767928255294 17.47058823529412, 38.432958371221474 18.26470588235294, 37.64166413346165 19.058823529411764, 37.65026853320318 19.85294117647059, 37.88002211097717 20.647058823529413, 39.44564969671598 21.441176470588236, 37.04371631543672 22.235294117647058, 38.657248597101805 23.029411764705884, 40.079690501663876 23.823529411764707, 40.140928004796976 24.61764705882353, 42.649181297837224 25.41176470588235, 43.220773778883085 26.205882352941178, 42.39383548619134 27.0, 47.64312088386605 27.794117647058822, 47.109039876865275 28.588235294117645, 45.681835000278035 29.38235294117647, 45.48347671816242 30.176470588235297, 45.029976403625014 30.970588235294116, 45.55005529700763 31.764705882352942, 43.533651606441374 32.55882352941177, 42.176206249046864 33.35294117647059, 41.732143407308314 34.14705882352941, 43.251748365250634 34.94117647058824, 43.02507005053108 35.73529411764706, 43.83902378413326 36.52941176470588, 42.65812454297215 37.32352941176471, 42.045153345265376 38.11764705882353, 41.360022016798176 38.91176470588235, 42.132265479449174 39.70588235294118, 43.11638948462998 40.5, 44.31762458694431 41.294117647058826, 43.70437735718757 42.088235294117645, 43.399105495836956 42.88235294117647, 43.79520717238966 43.6764705882353, 41.33784274653158 44.470588235294116, 39.16096376567288 45.264705882352935, 35.407431134356244 46.05882352941177, 35.072940076951554 46.85294117647059, 36.11506515488266 47.64705882352941, 36.02051785425634 48.44117647058824, 37.56887277641582 49.23529411764706, 38.96334052279965 50.029411764705884, 36.62440602760012 50.8235294117647, 36.37835682467186 51.61764705882353, 37.76245605459575 52.411764705882355, 36.352589036132635 53.205882352941174, 35.712410592829 54.0, 36.14489716473333 54.794117647058826, 34.08433922476979 55.588235294117645, 37.28730169657679 56.38235294117647, 37.118341588074784 57.17647058823529, 37.90715699195326 57.970588235294116, 38.237531630782904 58.76470588235294, 39.35771109997209 59.55882352941176, 40.856495813364894 60.352941176470594, 40.58916975857873 61.14705882352941, 40.00043106223859 61.94117647058823, 40.235198184875976 62.73529411764706, 39.64240877919517 63.529411764705884, 41.64791962668708 64.3235294117647, 42.18953894638246 65.11764705882354, 41.27373535421554 65.91176470588235, 40.51690143062776 66.70588235294117, 40.257668819614885 67.5, 40.99370037860676 68.29411764705883, 41.817277488168926 69.08823529411764, 41.21429326582921 69.88235294117648, 40.451947867513574 70.6764705882353, 41.5237853117768 71.47058823529412, 39.64982358074568 72.26470588235294, 40.37792214951345 73.05882352941175, 40.282153491608206 73.8529411764706, 40.7776930565429 74.64705882352942, 41.1611566040767 75.44117647058823, 41.69778005531168 76.23529411764706, 40.69243021572685 77.02941176470588, 38.73218170432107 77.8235294117647, 41.22412370011403 78.61764705882354, 39.42814117563772 79.41176470588236, 39.561992361778 80.20588235294117, 38.11733492848164 81.0, 37.57921646889146 81.79411764705881, 37.941112858527234 82.58823529411765, 36.97678983384432 83.38235294117648, 36.04481653076585 84.17647058823529, 34.579197975441176 84.97058823529412, 32.380887115988735 85.76470588235294, 32.34115490805391 86.55882352941177, 31.4588860534397 87.3529411764706, 29.599068210079594 88.14705882352942, 30.322632295036833 88.94117647058823, 27.76723473100489 89.73529411764706, 27.58297693559563 90.52941176470587, 28.92803303540092 91.32352941176471, 28.42090830615102 92.11764705882354, 28.441791352846973 92.91176470588235, 28.634061686125083 93.70588235294117, 27.85787135921649 94.5, 25.012678083319678 95.29411764705883, 23.54102028332297 96.08823529411765, 23.766324703558265 96.88235294117648, 20.937292583407235 97.67647058823529, 21.771172361537317 98.47058823529412, 19.346381700126326 99.26470588235294, 18.10547730426463 100.05882352941177, 17.860597623346106 100.8529411764706, 16.339638898719134 101.6470588235294, 17.37204744561217 102.44117647058823, 16.814665600837813 103.23529411764706, 16.706941824743595 104.02941176470588, 16.41745649393693 104.82352941176471, 16.36882837809564 105.61764705882352, 15.055879836696452 106.41176470588235, 14.734985217491708 107.20588235294117, 9.42252355621969 108.0, 5.157449572326596 108.79411764705883, 6.628125470700047 109.58823529411765, 6.269328941795573 110.38235294117646, 2.372660526360223 111.17647058823529, 4.158771362357467 111.97058823529413, 4.305734412290931 112.76470588235294, 5.718334832666511 113.55882352941177, 6.661835372383106 114.35294117647058, 6.900100803063491 115.1470588235294, 5.401141965893919 115.94117647058823, 7.092143632583693 116.73529411764706, 7.936409028590787 117.52941176470588, 7.834085229921908 118.32352941176471, 8.525491462003107 119.11764705882352, 9.96541375446359 119.91176470588235, 10.378032393765514 120.70588235294119, 12.216131360671763 121.5, 11.45691214019013 122.29411764705883, 16.610479164462337 123.08823529411764, 15.419393254140656 123.88235294117646, 16.365241672452317 124.6764705882353, 16.410677813140257 125.47058823529412, 17.004291673780994 126.26470588235294, 13.408452212609811 127.05882352941177, 10.125825165985578 127.85294117647058, 6.213767024114356 128.6470588235294, 5.159935203738151 129.44117647058823, 5.199079442802011 130.23529411764707, 3.4515531374388098 131.02941176470588, 3.490255834392882 131.8235294117647, 0.0 132.61764705882354, 0.8016641240102849 133.41176470588235, 1.1417659981497577 134.2058823529412, 1.3051341804763859" fill="none" stroke="#32ca5b" stroke-width="1.25"/>

</svg>