<?xml version="1.0" standalone="no"?>
<!DOCTYPE svg PUBLIC "-//W3C//DTD SVG 1.1//EN" "http://www.w3.org/Graphics/SVG/1.1/DTD/svg11.dtd">

<svg width="135" height="50" viewBox="0 0 135 50" preserveAspectRatio="none" 
  xmlns="http://www.w3.org/2000/svg"
  xmlns:xlink="http://www.w3.org/1999/xlink">


<polyline points="0.0, 0.5648466466601686 0.7941176470588235, 8.001033592490835 1.588235294117647, 9.377494758243717 2.3823529411764706, 8.471113669038813 3.176470588235294, 12.083612576542873 3.9705882352941178, 7.6038820984193585 4.764705882352941, 6.889185497907037 5.5588235294117645, 3.2126345238760234 6.352941176470588, 6.567820422795828 7.147058823529411, 9.25160314333036 7.9411764705882355, 15.239604272923666 8.73529411764706, 8.083121066810762 9.529411764705882, 4.526969630527483 10.323529411764707, 7.742208521006773 11.117647058823529, 2.079644266529343 11.911764705882353, 15.39579719871381 12.705882352941176, 32.02970749764181 13.5, 35.15801584230344 14.294117647058822, 32.909521274883716 15.088235294117649, 28.017359235755553 15.882352941176471, 23.53018112187234 16.676470588235293, 19.674793327933013 17.47058823529412, 16.17996531704843 18.26470588235294, 12.731082950198127 19.058823529411764, 12.346422421548462 19.85294117647059, 13.377161151361417 20.647058823529413, 13.14687157663314 21.441176470588236, 12.842486446792819 22.235294117647058, 11.689443600172059 23.029411764705884, 16.615912599911365 23.823529411764707, 20.34887527671462 24.61764705882353, 26.325628501026628 25.41176470588235, 29.967329028803984 26.205882352941178, 27.715043960063014 27.0, 39.78984842274454 27.794117647058822, 37.38349399885834 28.588235294117645, 39.797216886242396 29.38235294117647, 36.6523241064444 30.176470588235297, 39.49994577415814 30.970588235294116, 48.01410683080769 31.764705882352942, 42.80532261841646 32.55882352941177, 39.258280025579005 33.35294117647059, 45.57914603890084 34.14705882352941, 50.0 34.94117647058824, 45.94290922501361 35.73529411764706, 45.1875214888044 36.52941176470588, 40.09686551127134 37.32352941176471, 37.95732412154137 38.11764705882353, 33.88830531503515 38.91176470588235, 35.48320830500346 39.70588235294118, 44.77229575591108 40.5, 43.30829761528144 41.294117647058826, 38.135569901505704 42.088235294117645, 38.24069274893754 42.88235294117647, 34.768714314086026 43.6764705882353, 27.024825030661653 44.470588235294116, 25.612026475546955 45.264705882352935, 24.59681625657666 46.05882352941177, 24.49018648116226 46.85294117647059, 29.75247747421111 47.64705882352941, 26.43008280485472 48.44117647058824, 27.253532579018703 49.23529411764706, 33.14854207307908 50.029411764705884, 28.01549937984053 50.8235294117647, 23.213313464843605 51.61764705882353, 25.160032060408472 52.411764705882355, 19.421866658378836 53.205882352941174, 19.39458598737698 54.0, 20.781436921698873 54.794117647058826, 17.13973729034962 55.588235294117645, 22.0129876239406 56.38235294117647, 22.853160354252942 57.17647058823529, 25.87162252300321 57.970588235294116, 22.221698530790373 58.76470588235294, 21.88121230494908 59.55882352941176, 25.099829496201508 60.352941176470594, 29.839201915571227 61.14705882352941, 29.136350840822654 61.94117647058823, 27.635547759187073 62.73529411764706, 20.5316958330847 63.529411764705884, 28.123239823687037 64.3235294117647, 31.513627749757532 65.11764705882354, 26.401599834475427 65.91176470588235, 19.065166471372194 66.70588235294117, 17.158336892258145 67.5, 20.454917022873133 68.29411764705883, 11.578067200110098 69.08823529411764, 9.139781683850783 69.88235294117648, 21.992226365656535 70.6764705882353, 18.84750975195052 71.47058823529412, 12.15235844051708 72.26470588235294, 8.378432969538558 73.05882352941175, 3.950538586746255 73.8529411764706, 3.2444713913355114 74.64705882352942, 5.229996908741837 75.44117647058823, 12.701921040978851 76.23529411764706, 8.23002053065952 77.02941176470588, 8.332612331188722 77.8235294117647, 26.790253857290438 78.61764705882354, 18.51097143828338 79.41176470588236, 14.213270959884868 80.20588235294117, 10.198111410279806 81.0, 8.207838381660459 81.79411764705881, 10.124345943557541 82.58823529411765, 7.770631077054493 83.38235294117648, 15.879745984923158 84.17647058823529, 11.443075311283907 84.97058823529412, 9.876255771062686 85.76470588235294, 7.549665312039896 86.55882352941177, 7.710888090467962 87.3529411764706, 5.044977526572589 88.14705882352942, 11.058000980986254 88.94117647058823, 10.823637746810796 89.73529411764706, 11.293680283502626 90.52941176470587, 7.090736215954613 91.32352941176471, 10.318534673865221 92.11764705882354, 10.3109505509966 92.91176470588235, 11.07958344250856 93.70588235294117, 10.324396956903216 94.5, 11.479347856256506 95.29411764705883, 10.57664749960324 96.08823529411765, 10.881829455036538 96.88235294117648, 7.747891824590989 97.67647058823529, 8.429913857513165 98.47058823529412, 10.297491255978128 99.26470588235294, 14.367846533237264 100.05882352941177, 14.506924325760249 100.8529411764706, 12.130327593532458 101.6470588235294, 15.07007323993443 102.44117647058823, 18.231780012466686 103.23529411764706, 17.50826344527495 104.02941176470588, 17.555994133843843 104.82352941176471, 16.73700569221942 105.61764705882352, 15.518790440415781 106.41176470588235, 17.275862636419546 107.20588235294117, 12.201342920422112 108.0, 16.14908450119577 108.79411764705883, 16.53236186547075 109.58823529411765, 11.770585194812792 110.38235294117646, 11.63002447648119 111.17647058823529, 8.817685650906153 111.97058823529413, 12.255539199623552 112.76470588235294, 9.18075286922606 113.55882352941177, 10.744152860248331 114.35294117647058, 10.46294139545291 115.1470588235294, 12.437432415360984 115.94117647058823, 16.37976225384321 116.73529411764706, 15.694551815916787 117.52941176470588, 14.325132108487153 118.32352941176471, 15.768256317122201 119.11764705882352, 16.71411690921407 119.91176470588235, 12.67588425905175 120.70588235294119, 18.51941483291033 121.5, 20.821955841009107 122.29411764705883, 29.87642035545555 123.08823529411764, 26.50659053547823 123.88235294117646, 26.98804444313297 124.6764705882353, 25.55600713467526 125.47058823529412, 27.843234346998468 126.26470588235294, 23.829968330903327 127.05882352941177, 14.174760386790153 127.85294117647058, 9.001277874619305 128.6470588235294, 8.25074213572907 129.44117647058823, 11.052468768055046 130.23529411764707, 4.9014679576165765 131.02941176470588, 6.449658363576914 131.8235294117647, 0.9918916263163066 132.61764705882354, 2.1720759988417577 133.41176470588235, 0.05148065820476202 134.2058823529412, 0.0" fill="none" stroke="#32ca5b" stroke-width="1.25"/>

</svg>