<?xml version="1.0" standalone="no"?>
<!DOCTYPE svg PUBLIC "-//W3C//DTD SVG 1.1//EN" "http://www.w3.org/Graphics/SVG/1.1/DTD/svg11.dtd">

<svg width="135" height="50" viewBox="0 0 135 50" preserveAspectRatio="none" 
  xmlns="http://www.w3.org/2000/svg"
  xmlns:xlink="http://www.w3.org/1999/xlink">


<polyline points="0.0, 7.633795850371275 0.7988165680473372, 8.680894608099058 1.5976331360946745, 1.9809186436901038 2.396449704142012, 0.0 3.195266272189349, 11.605575193295364 3.994082840236686, 5.296894744132246 4.792899408284024, 7.092484645165845 5.591715976331361, 4.408549010227988 6.390532544378698, 3.334608828662753 7.189349112426036, 7.334488979063865 7.988165680473372, 15.645482247053282 8.78698224852071, 10.455266171044714 9.585798816568047, 8.463714244359208 10.384615384615385, 15.007094711019745 11.183431952662723, 12.29851576367469 11.982248520710058, 24.019219463095006 12.781065088757396, 37.513542137959035 13.579881656804734, 37.55114529002799 14.378698224852071, 37.56804390148136 15.177514792899409, 39.05087333261951 15.976331360946745, 38.36607401324656 16.775147928994084, 39.33837538017716 17.57396449704142, 37.67826042977774 18.37278106508876, 33.134559790828824 19.171597633136095, 33.935955817248946 19.970414201183434, 30.55127819844895 20.76923076923077, 31.76942124520656 21.56804733727811, 34.248038994654216 22.366863905325445, 33.88033652272082 23.16568047337278, 31.94658129313948 23.964497041420117, 34.51870851030715 24.763313609467456, 39.071764392146264 25.562130177514792, 41.088532414666375 26.36094674556213, 38.23257404699338 27.159763313609467, 46.45829112369146 27.958579881656807, 41.597154774960586 28.757396449704142, 40.68930114421643 29.55621301775148, 37.80519627091 30.355029585798817, 37.62926016912461 31.153846153846157, 42.46890227245183 31.95266272189349, 40.54300163196898 32.751479289940825, 37.852665381670015 33.55029585798817, 43.40712707960325 34.349112426035504, 50.0 35.14792899408284, 47.06730509076401 35.94674556213018, 46.80031244538064 36.74556213017752, 39.22968077185354 37.54437869822485, 38.049965296587494 38.34319526627219, 36.674064567961665 39.142011834319526, 38.002698989591174 39.94082840236687, 45.80851014527279 40.7396449704142, 45.498618890414086 41.53846153846154, 41.27978881169533 42.337278106508876, 45.22334902715933 43.13609467455622, 40.96411634728149 43.93491124260355, 28.06327313096699 44.73372781065089, 10.534138421786702 45.532544378698226, 6.115225665686558 46.33136094674556, 2.871518229953879 47.1301775147929, 11.898111858742542 47.928994082840234, 20.90241180562842 48.72781065088758, 23.914407679213138 49.52662721893491, 23.946969151395166 50.32544378698225, 23.114855563128952 51.124260355029584, 21.542399502742015 51.92307692307693, 26.29479100095348 52.72189349112426, 24.505769469375398 53.5207100591716, 23.106294485070904 54.319526627218934, 24.567506825795142 55.11834319526627, 20.403847539393904 55.91715976331361, 24.99191375475609 56.71597633136094, 25.930259162421265 57.514792899408285, 30.412097717999448 58.31360946745562, 25.664789733795207 59.11242603550296, 26.90784177482798 59.91124260355029, 31.49645674981507 60.710059171597635, 34.0852777901062 61.50887573964497, 32.74435922290383 62.307692307692314, 35.43104760314926 63.10650887573964, 36.40623305622929 63.90532544378698, 37.86076762789845 64.70414201183432, 40.65459642975827 65.50295857988165, 37.31361409514406 66.30177514792899, 31.998667875463184 67.10059171597634, 31.570046657730344 67.89940828402366, 31.245553535599985 68.69822485207101, 28.026525351717428 69.49704142011834, 24.262084881662698 70.29585798816568, 31.422884825750657 71.09467455621302, 33.45238920500117 71.89349112426036, 29.275890484135918 72.6923076923077, 32.008059705434924 73.49112426035504, 31.479052424190236 74.28994082840237, 29.45283713112798 75.0887573964497, 31.675186578306253 75.88757396449704, 33.698232712449844 76.68639053254438, 32.329050382426914 77.48520710059172, 32.20827005797823 78.28402366863905, 41.075816257223714 79.0828402366864, 34.704583827169245 79.88165680473374, 30.379766206848956 80.68047337278107, 28.12586865910978 81.4792899408284, 27.9095372471088 82.27810650887574, 32.59904637976014 83.07692307692308, 29.972121002836804 83.87573964497041, 32.05855623153997 84.67455621301775, 28.427969074762444 85.4733727810651, 28.006049745411637 86.27218934911244, 26.344852567299625 87.07100591715975, 30.29940172765892 87.8698224852071, 28.366133221788125 88.66863905325444, 31.348568205008405 89.46745562130178, 31.244439378699074 90.26627218934911, 29.36185787094893 91.06508875739645, 27.413657334386706 91.8639053254438, 31.939975900884598 92.66272189349112, 31.995709424195013 93.46153846153845, 33.478750249596445 94.2603550295858, 32.27196903958524 95.05917159763314, 32.50976331840511 95.85798816568047, 31.849522903305928 96.65680473372781, 32.08708811902633 97.45562130177515, 28.592229512286497 98.2544378698225, 27.805148988703603 99.05325443786982, 22.625670706987965 99.85207100591715, 25.763143128887855 100.6508875739645, 26.152447469514957 101.44970414201183, 24.21980051731392 102.24852071005917, 26.80729694946492 103.04733727810651, 29.353768006317065 103.84615384615385, 28.342669062048003 104.64497041420118, 29.235255484819223 105.44378698224853, 28.961103160327305 106.24260355029585, 27.855052896890005 107.0414201183432, 28.019193983195905 107.84023668639053, 21.833640776803282 108.63905325443787, 25.72561148697744 109.43786982248521, 25.94828509849062 110.23668639053254, 24.243270738448203 111.03550295857988, 22.74133896000193 111.83431952662723, 22.425170603931946 112.63313609467457, 24.564046093667645 113.43195266272188, 23.874558001549772 114.23076923076923, 26.622735872808036 115.02958579881657, 24.759324496537886 115.82840236686391, 20.619230626948756 116.62721893491124, 23.07841051212657 117.42603550295858, 24.903310167329817 118.22485207100593, 24.36971891687157 119.02366863905324, 24.375341831289383 119.82248520710058, 22.04414324418412 120.62130177514793, 18.82791851469654 121.42011834319527, 22.327533599152545 122.2189349112426, 20.37018214703668 123.01775147928994, 29.779104126021693 123.81656804733728, 28.03112845649636 124.61538461538463, 30.430176901613535 125.41420118343194, 26.52743224491837 126.21301775147928, 25.75207315102982 127.01183431952663, 19.79690857316811 127.81065088757396, 14.153457216556847 128.60946745562129, 14.348157200108592 129.40828402366864, 13.227262343657898 130.20710059171597, 15.721485416058705 131.0059171597633, 15.074976707314958 131.80473372781066, 13.719840360068847 132.60355029585799, 13.80804698216581 133.40236686390534, 15.541412263649043 134.20118343195267, 11.604475158862888" fill="none" stroke="#ff3a33" stroke-width="1.25"/>

</svg>