<?xml version="1.0" standalone="no"?>
<!DOCTYPE svg PUBLIC "-//W3C//DTD SVG 1.1//EN" "http://www.w3.org/Graphics/SVG/1.1/DTD/svg11.dtd">

<svg width="135" height="50" viewBox="0 0 135 50" preserveAspectRatio="none" 
  xmlns="http://www.w3.org/2000/svg"
  xmlns:xlink="http://www.w3.org/1999/xlink">


<polyline points="0.0, 0.0 0.7988165680473372, 2.0545491166760463 1.5976331360946745, 1.9175797343179894 2.396449704142012, 2.4140544887178828 3.195266272189349, 7.041342478847722 3.994082840236686, 5.973237252431931 4.792899408284024, 5.3487205674122835 5.591715976331361, 16.883165616499664 6.390532544378698, 15.235176661284882 7.189349112426036, 20.850812208869478 7.988165680473372, 21.467696325806536 8.78698224852071, 22.70790547429208 9.585798816568047, 25.176780559289604 10.384615384615385, 25.08452055664292 11.183431952662723, 31.905561962805567 11.982248520710058, 35.4045273738105 12.781065088757396, 35.782640946566715 13.579881656804734, 36.86334704686794 14.378698224852071, 37.058544329266105 15.177514792899409, 35.393952743997225 15.976331360946745, 35.15187908540474 16.775147928994084, 34.99860427160826 17.57396449704142, 35.072949742447896 18.37278106508876, 36.30309768751895 19.171597633136095, 39.89095657662152 19.970414201183434, 36.159072813404656 20.76923076923077, 34.770579615210465 21.56804733727811, 35.61994141566729 22.366863905325445, 36.26990805526941 23.16568047337278, 38.50426411604068 23.964497041420117, 37.75017066077187 24.763313609467456, 39.155104628775625 25.562130177514792, 38.95843361364291 26.36094674556213, 48.2451985436016 27.159763313609467, 45.485465299896575 27.958579881656807, 46.510452483874985 28.757396449704142, 44.15788175688766 29.55621301775148, 45.082078476121865 30.355029585798817, 46.91946505458183 31.153846153846157, 46.50704417801416 31.95266272189349, 46.06457049847901 32.751479289940825, 48.56343966646743 33.55029585798817, 50.0 34.349112426035504, 48.833629448646846 35.14792899408284, 49.44864275669151 35.94674556213018, 45.88105941808116 36.74556213017752, 44.650588888823535 37.54437869822485, 43.2252802527994 38.34319526627219, 44.36932512347951 39.142011834319526, 47.63508262561432 39.94082840236687, 46.17720557813966 40.7396449704142, 45.412246404769775 41.53846153846154, 46.2105524920006 42.337278106508876, 45.19621473110116 43.13609467455622, 42.02314396633039 43.93491124260355, 43.96188016081967 44.73372781065089, 41.565789459298905 45.532544378698226, 40.342149692593196 46.33136094674556, 41.8970173538147 47.1301775147929, 42.30948244438158 47.928994082840234, 45.84111687817449 48.72781065088758, 47.24267128485144 49.52662721893491, 44.617901747942774 50.32544378698225, 43.46377609883151 51.124260355029584, 46.88241440660275 51.92307692307693, 45.02486674913773 52.72189349112426, 43.687028181805495 53.5207100591716, 44.523913110931275 54.319526627218934, 43.26070558816085 55.11834319526627, 45.587183308527315 55.91715976331361, 45.15788794580363 56.71597633136094, 46.84335625248062 57.514792899408285, 45.02522429206493 58.31360946745562, 46.86636796439447 59.11242603550296, 47.80672176152461 59.91124260355029, 47.51901302640588 60.710059171597635, 46.7886932209878 61.50887573964497, 46.677243466952504 62.307692307692314, 45.24379063176849 63.10650887573964, 47.14857468177024 63.90532544378698, 48.784016859156274 64.70414201183432, 47.785606905226345 65.50295857988165, 46.47349111900146 66.30177514792899, 46.09241600099458 67.10059171597634, 47.4259460955591 67.89940828402366, 43.3191372271713 68.69822485207101, 40.37965505679629 69.49704142011834, 42.51436015148749 70.29585798816568, 36.71685551510618 71.09467455621302, 30.178124472069722 71.89349112426036, 32.994002184377536 72.6923076923077, 33.03405862983775 73.49112426035504, 32.95645251798978 74.28994082840237, 32.11438854869169 75.0887573964497, 34.297877639042106 75.88757396449704, 32.95473562233073 76.68639053254438, 32.7757114586127 77.48520710059172, 36.03415670188759 78.28402366863905, 32.32112704727354 79.0828402366864, 31.243332125966326 79.88165680473374, 28.393710894146913 80.68047337278107, 30.680550910939836 81.4792899408284, 31.411001577473325 82.27810650887574, 32.27358780528139 83.07692307692308, 34.500266554958934 83.87573964497041, 34.29604425170372 84.67455621301775, 34.23429747139708 85.4733727810651, 33.66915951629976 86.27218934911244, 34.68208068232697 87.07100591715975, 34.602684055508476 87.8698224852071, 35.44950780324701 88.66863905325444, 34.71892637625426 89.46745562130178, 34.29296930466321 90.26627218934911, 31.19395011325971 91.06508875739645, 32.01154871951707 91.8639053254438, 31.749357614390306 92.66272189349112, 31.018540551861644 93.46153846153845, 31.202029669731346 94.2603550295858, 30.888119176750976 95.05917159763314, 30.584571856086068 95.85798816568047, 32.27331962520405 96.65680473372781, 31.70677945896223 97.45562130177515, 34.11144279422953 98.2544378698225, 34.87107802971141 99.05325443786982, 35.53032961814584 99.85207100591715, 34.848286739735556 100.6508875739645, 35.68944438172627 101.44970414201183, 35.73544690053294 102.24852071005917, 37.8784225421782 103.04733727810651, 36.73821721566202 103.84615384615385, 37.141175864995816 104.64497041420118, 35.919948150766935 105.44378698224853, 35.35298678250915 106.24260355029585, 36.3210444866601 107.0414201183432, 35.353522736467525 107.84023668639053, 36.692356972115945 108.63905325443787, 37.639654196027 109.43786982248521, 35.7644684188445 110.23668639053254, 35.296970574030944 111.03550295857988, 35.32049715641985 111.83431952662723, 35.1255062723074 112.63313609467457, 35.442356784504206 113.43195266272188, 35.67234179006445 114.23076923076923, 35.57504643996449 115.02958579881657, 34.752952687393005 115.82840236686391, 35.85692739099061 116.62721893491124, 36.36223270597458 117.42603550295858, 36.055402593349115 118.22485207100593, 36.1879906479177 119.02366863905324, 35.91328139671215 119.82248520710058, 34.64770825502865 120.62130177514793, 36.93663337450894 121.42011834319527, 39.76760100656128 122.2189349112426, 44.041655829023476 123.01775147928994, 43.34700069311426 123.81656804733728, 41.94698133551638 124.61538461538463, 41.159836971984646 125.41420118343194, 41.97081485472269 126.21301775147928, 40.31070541996892 127.01183431952663, 36.98837759734354 127.81065088757396, 36.9920312585221 128.60946745562129, 35.74417827240909 129.40828402366864, 36.734616335364265 130.20710059171597, 34.96351619436968 131.0059171597633, 36.26074837217298 131.80473372781066, 34.653006354417386 132.60355029585799, 34.06340499087684 133.40236686390534, 34.97054869789123 134.20118343195267, 34.554432317339334" fill="none" stroke="#ff3a33" stroke-width="1.25"/>

</svg>