<?xml version="1.0" standalone="no"?>
<!DOCTYPE svg PUBLIC "-//W3C//DTD SVG 1.1//EN" "http://www.w3.org/Graphics/SVG/1.1/DTD/svg11.dtd">

<svg width="135" height="50" viewBox="0 0 135 50" preserveAspectRatio="none" 
  xmlns="http://www.w3.org/2000/svg"
  xmlns:xlink="http://www.w3.org/1999/xlink">


<polyline points="0.0, 30.12695646828109 0.7988165680473372, 32.46201162725408 1.5976331360946745, 34.572982175086544 2.396449704142012, 33.719538431155115 3.195266272189349, 35.93313760193985 3.994082840236686, 34.055854808760714 4.792899408284024, 33.894168651810595 5.591715976331361, 33.38164370139098 6.390532544378698, 32.28648617881852 7.189349112426036, 33.863110966552476 7.988165680473372, 35.806001229846935 8.78698224852071, 33.65683610914908 9.585798816568047, 33.13638723857355 10.384615384615385, 34.395955484486855 11.183431952662723, 31.56359613662478 11.982248520710058, 37.711297595571004 12.781065088757396, 40.391229618669946 13.579881656804734, 42.1319171430147 14.378698224852071, 42.028613765485424 15.177514792899409, 41.29419960414272 15.976331360946745, 38.73532451084844 16.775147928994084, 38.34909285916975 17.57396449704142, 37.70185774897306 18.37278106508876, 36.291121156930615 19.171597633136095, 36.54470040614592 19.970414201183434, 38.70163320787881 20.76923076923077, 40.067582107173614 21.56804733727811, 40.53294238400632 22.366863905325445, 39.90499088913447 23.16568047337278, 41.41128640360694 23.964497041420117, 42.29614412778758 24.763313609467456, 44.08762640565535 25.562130177514792, 44.79248330425604 26.36094674556213, 43.61154342651501 27.159763313609467, 47.32072495762574 27.958579881656807, 46.22348702989393 28.757396449704142, 47.186958229409804 29.55621301775148, 45.73379957360143 30.355029585798817, 46.93226955230591 31.153846153846157, 48.71011774470417 31.95266272189349, 47.96747544213772 32.751479289940825, 46.624384406786696 33.55029585798817, 48.96815916845478 34.349112426035504, 50.0 35.14792899408284, 49.24213009559428 35.94674556213018, 49.32505356072278 36.74556213017752, 46.46661005277444 37.54437869822485, 45.28628620357986 38.34319526627219, 44.135816373801156 39.142011834319526, 46.413253540107874 39.94082840236687, 49.48004158990919 40.7396449704142, 48.54830888197728 41.53846153846154, 47.07341265402942 42.337278106508876, 47.31513893700491 43.13609467455622, 47.134947113369 43.93491124260355, 44.743455952461126 44.73372781065089, 43.09816329787415 45.532544378698226, 40.99470625100247 46.33136094674556, 40.367478677395894 47.1301775147929, 42.57803038803369 47.928994082840234, 43.39588514492833 48.72781065088758, 44.17771453765057 49.52662721893491, 46.485493912514954 50.32544378698225, 44.335782535773646 51.124260355029584, 44.0009383579187 51.92307692307693, 45.67987374384995 52.72189349112426, 43.59055305127374 53.5207100591716, 41.96977320201527 54.319526627218934, 43.031535484609044 55.11834319526627, 39.66814174854516 55.91715976331361, 40.01866204986385 56.71597633136094, 41.18262203249738 57.514792899408285, 43.59892696130089 58.31360946745562, 42.0828776592226 59.11242603550296, 44.31866190844907 59.91124260355029, 45.38575855630771 60.710059171597635, 45.96667482003019 61.50887573964497, 45.13787568490403 62.307692307692314, 44.943047147681305 63.10650887573964, 43.45404818865463 63.90532544378698, 45.62128468076782 64.70414201183432, 47.29429806581105 65.50295857988165, 45.565935418450096 66.30177514792899, 44.89377241938685 67.10059171597634, 44.698609225958734 67.89940828402366, 45.83244541526721 68.69822485207101, 43.80810752960622 69.49704142011834, 42.087003260888295 70.29585798816568, 41.88831412025216 71.09467455621302, 43.4976724066534 71.89349112426036, 39.07826003463908 72.6923076923077, 39.51512930373816 73.49112426035504, 37.73725620328968 74.28994082840237, 35.71464201403743 75.0887573964497, 36.399902529639974 75.88757396449704, 38.862223418676415 76.68639053254438, 38.50613112424096 77.48520710059172, 35.97800913417209 78.28402366863905, 40.63150094823752 79.0828402366864, 39.97342474243653 79.88165680473374, 36.523663122502334 80.68047337278107, 34.96054847140763 81.4792899408284, 32.696654180523055 82.27810650887574, 31.2596621365197 83.07692307692308, 29.295649744016888 83.87573964497041, 30.8081432191887 84.67455621301775, 27.66974150666268 85.4733727810651, 29.370738106196754 86.27218934911244, 29.02036650445165 87.07100591715975, 29.939024734166082 87.8698224852071, 29.46393080225803 88.66863905325444, 31.219724724255 89.46745562130178, 28.74721518934522 90.26627218934911, 27.942975048505218 91.06508875739645, 24.439406797838263 91.8639053254438, 23.852019908055272 92.66272189349112, 18.32045681100949 93.46153846153845, 17.1398435288494 94.2603550295858, 15.362684603025833 95.05917159763314, 15.186747713297985 95.85798816568047, 15.036653861356974 96.65680473372781, 16.59580025117646 97.45562130177515, 17.123040897748282 98.2544378698225, 19.200632959612594 99.05325443786982, 21.21243486081342 99.85207100591715, 20.48991047710019 100.6508875739645, 20.668505141104642 101.44970414201183, 18.92965790364268 102.24852071005917, 17.977044812257688 103.04733727810651, 20.05979356003825 103.84615384615385, 18.62118970489845 104.64497041420118, 21.58549896671159 105.44378698224853, 22.529358417306735 106.24260355029585, 22.85944027174972 107.0414201183432, 23.89767941556256 107.84023668639053, 22.022935109270563 108.63905325443787, 22.000831537671527 109.43786982248521, 21.280154398508962 110.23668639053254, 20.206882455366987 111.03550295857988, 20.79121043995845 111.83431952662723, 20.631265704659015 112.63313609467457, 22.16879463573857 113.43195266272188, 22.497781680552468 114.23076923076923, 22.175003228642527 115.02958579881657, 21.97637068661495 115.82840236686391, 22.128805600006146 116.62721893491124, 23.98320309462747 117.42603550295858, 23.728619516554257 118.22485207100593, 24.04058070736341 119.02366863905324, 22.702939016537748 119.82248520710058, 18.937486346251966 120.62130177514793, 17.619904495143114 121.42011834319527, 16.6274089541291 122.2189349112426, 13.494320044982281 123.01775147928994, 21.68589249965171 123.81656804733728, 20.854502945221384 124.61538461538463, 20.137276093017086 125.41420118343194, 18.626588501534062 126.21301775147928, 12.65647167746306 127.01183431952663, 5.57682486201694 127.81065088757396, 2.7263186626989007 128.60946745562129, 1.4779735205548596 129.40828402366864, 0.0 130.20710059171597, 3.585709732223795 131.0059171597633, 2.1728837978571467 131.80473372781066, 2.0811912878223215 132.60355029585799, 0.10414697042316144 133.40236686390534, 3.857614313747107 134.20118343195267, 2.154891371409398" fill="none" stroke="#32ca5b" stroke-width="1.25"/>

</svg>