<?xml version="1.0" standalone="no"?>
<!DOCTYPE svg PUBLIC "-//W3C//DTD SVG 1.1//EN" "http://www.w3.org/Graphics/SVG/1.1/DTD/svg11.dtd">

<svg width="135" height="50" viewBox="0 0 135 50" preserveAspectRatio="none" 
  xmlns="http://www.w3.org/2000/svg"
  xmlns:xlink="http://www.w3.org/1999/xlink">


<polyline points="0.0, 33.41277880696659 0.7988165680473372, 34.184352874022345 1.5976331360946745, 31.229030638501303 2.396449704142012, 35.58842847012953 3.195266272189349, 34.34338928576204 3.994082840236686, 34.704496467189465 4.792899408284024, 34.32924349722568 5.591715976331361, 35.13858907643266 6.390532544378698, 38.456147988970784 7.189349112426036, 41.97290978896209 7.988165680473372, 40.333422860229014 8.78698224852071, 39.18331356727314 9.585798816568047, 39.672359844822886 10.384615384615385, 34.24018669968995 11.183431952662723, 39.52898030025316 11.982248520710058, 47.40412996625767 12.781065088757396, 50.0 13.579881656804734, 46.97397446206932 14.378698224852071, 47.57000208143196 15.177514792899409, 44.50587482847569 15.976331360946745, 43.006912361470256 16.775147928994084, 40.43069660356349 17.57396449704142, 38.99300662843391 18.37278106508876, 38.22156135315646 19.171597633136095, 38.11699320536705 19.970414201183434, 36.71303135912508 20.76923076923077, 36.164331117943284 21.56804733727811, 35.39143719250304 22.366863905325445, 37.42698738926421 23.16568047337278, 37.58248813256919 23.964497041420117, 37.585355733522704 24.763313609467456, 39.36049542573855 25.562130177514792, 37.9155270511901 26.36094674556213, 47.114125697121644 27.159763313609467, 46.06944878915306 27.958579881656807, 45.767769992557454 28.757396449704142, 40.85238585943105 29.55621301775148, 27.539782091625675 30.355029585798817, 34.46603693504612 31.153846153846157, 29.864359784191453 31.95266272189349, 24.0352851777052 32.751479289940825, 27.187349477883437 33.55029585798817, 29.071533460268164 34.349112426035504, 26.12577230234898 35.14792899408284, 27.36892944186873 35.94674556213018, 20.201183479871176 36.74556213017752, 14.250212917014862 37.54437869822485, 7.168016056244708 38.34319526627219, 7.706071040356472 39.142011834319526, 16.530473299552785 39.94082840236687, 12.721776726948306 40.7396449704142, 9.227978022603233 41.53846153846154, 11.068066330458734 42.337278106508876, 1.6606204449205786 43.13609467455622, 2.9925226981675044 43.93491124260355, 6.047493839679832 44.73372781065089, 2.8740207091747556 45.532544378698226, 0.0 46.33136094674556, 6.650505574269601 47.1301775147929, 4.400334587781762 47.928994082840234, 8.734859075858362 48.72781065088758, 14.35301306192163 49.52662721893491, 13.328189346015595 50.32544378698225, 14.55475925853961 51.124260355029584, 13.239223831699306 51.92307692307693, 7.098846887120888 52.72189349112426, 6.631550867495626 53.5207100591716, 9.964626231058512 54.319526627218934, 9.62923004164769 55.11834319526627, 11.683560037552839 55.91715976331361, 12.814334980856291 56.71597633136094, 15.465270555957106 57.514792899408285, 12.96414720780562 58.31360946745562, 13.721578961913089 59.11242603550296, 16.592260683011144 59.91124260355029, 20.034386747222637 60.710059171597635, 20.89613032376304 61.50887573964497, 20.40030273707834 62.307692307692314, 18.878741005513717 63.10650887573964, 23.230143859237867 63.90532544378698, 23.755018554256594 64.70414201183432, 21.527918377859827 65.50295857988165, 25.193641625663314 66.30177514792899, 24.823470779641237 67.10059171597634, 27.853640036172074 67.89940828402366, 23.775447996983317 68.69822485207101, 22.163012801746003 69.49704142011834, 29.10429198897493 70.29585798816568, 28.93091399349758 71.09467455621302, 27.73943335111336 71.89349112426036, 29.658746142418114 72.6923076923077, 33.335395291615654 73.49112426035504, 30.155182640021955 74.28994082840237, 31.781381436149374 75.0887573964497, 34.4584982999527 75.88757396449704, 34.968743878947876 76.68639053254438, 34.67868014467415 77.48520710059172, 39.636490632256184 78.28402366863905, 40.92611301234578 79.0828402366864, 38.92373872512969 79.88165680473374, 37.35413387111547 80.68047337278107, 36.95348082696594 81.4792899408284, 37.88430170749082 82.27810650887574, 36.7767889987631 83.07692307692308, 38.63653819644756 83.87573964497041, 36.1100279217276 84.67455621301775, 33.45668273387253 85.4733727810651, 29.979027692457887 86.27218934911244, 31.169640453136054 87.07100591715975, 31.002040114565897 87.8698224852071, 31.651685067096423 88.66863905325444, 31.77367718833074 89.46745562130178, 31.736120679776462 90.26627218934911, 31.77005609275152 91.06508875739645, 33.20832779774195 91.8639053254438, 34.7689017984915 92.66272189349112, 34.30474540933578 93.46153846153845, 35.02566670916907 94.2603550295858, 37.10121910281644 95.05917159763314, 36.41509701354983 95.85798816568047, 36.33615208798221 96.65680473372781, 33.58323474253414 97.45562130177515, 32.95709561419351 98.2544378698225, 35.23473315423766 99.05325443786982, 35.22619586692988 99.85207100591715, 34.669678037269755 100.6508875739645, 34.20871429246664 101.44970414201183, 34.04816543512268 102.24852071005917, 34.61897669460405 103.04733727810651, 34.11617257751783 103.84615384615385, 35.56456580416323 104.64497041420118, 34.4584596442115 105.44378698224853, 34.476620592833626 106.24260355029585, 34.87555326538203 107.0414201183432, 33.61030737175271 107.84023668639053, 36.17031258894604 108.63905325443787, 36.38962354045362 109.43786982248521, 35.49121084829162 110.23668639053254, 36.08943878618557 111.03550295857988, 34.838236278504446 111.83431952662723, 34.134975377053074 112.63313609467457, 34.072825171678474 113.43195266272188, 33.44813873645264 114.23076923076923, 31.735277631996507 115.02958579881657, 31.61655539356813 115.82840236686391, 33.41513727259979 116.62721893491124, 34.32692241816369 117.42603550295858, 32.43284135312464 118.22485207100593, 33.01167502096347 119.02366863905324, 34.64105459967719 119.82248520710058, 33.056788742382814 120.62130177514793, 34.41379216774557 121.42011834319527, 35.26300228452845 122.2189349112426, 40.96058573195908 123.01775147928994, 38.96157596742062 123.81656804733728, 39.70774894358916 124.61538461538463, 39.828162953528455 125.41420118343194, 38.07466324682003 126.21301775147928, 30.61968750225394 127.01183431952663, 29.469930352535766 127.81065088757396, 26.630089927711566 128.60946745562129, 24.176633488481553 129.40828402366864, 24.32270592166377 130.20710059171597, 20.52403714965518 131.0059171597633, 20.24771296003995 131.80473372781066, 20.257188273115155 132.60355029585799, 22.401275111177668 133.40236686390534, 23.435942132750963 134.20118343195267, 22.516631396950356" fill="none" stroke="#32ca5b" stroke-width="1.25"/>

</svg>