<?xml version="1.0" standalone="no"?>
<!DOCTYPE svg PUBLIC "-//W3C//DTD SVG 1.1//EN" "http://www.w3.org/Graphics/SVG/1.1/DTD/svg11.dtd">

<svg width="135" height="50" viewBox="0 0 135 50" preserveAspectRatio="none" 
  xmlns="http://www.w3.org/2000/svg"
  xmlns:xlink="http://www.w3.org/1999/xlink">


<polyline points="0.0, 0.0 0.7988165680473372, 5.456538807557837 1.5976331360946745, 7.313308333124446 2.396449704142012, 15.193531854289938 3.195266272189349, 20.291276461341464 3.994082840236686, 20.442555136444383 4.792899408284024, 18.593393160173452 5.591715976331361, 18.986445440230078 6.390532544378698, 19.47703100582677 7.189349112426036, 18.407802241825383 7.988165680473372, 22.013358613334947 8.78698224852071, 21.42671165125672 9.585798816568047, 21.34182011973045 10.384615384615385, 22.772169712528484 11.183431952662723, 24.267070022971772 11.982248520710058, 27.815208991910684 12.781065088757396, 33.13232969927132 13.579881656804734, 35.06536376359649 14.378698224852071, 32.28638250945986 15.177514792899409, 35.860179878239414 15.976331360946745, 34.19215524361823 16.775147928994084, 35.380902299674716 17.57396449704142, 33.01935102177859 18.37278106508876, 34.69122522223048 19.171597633136095, 34.04895525987744 19.970414201183434, 26.67601847901006 20.76923076923077, 34.63352434824587 21.56804733727811, 28.684776755681618 22.366863905325445, 29.99954611790041 23.16568047337278, 30.46445944271593 23.964497041420117, 23.418334162767255 24.763313609467456, 29.430443671308176 25.562130177514792, 33.909228601015954 26.36094674556213, 28.04855344687257 27.159763313609467, 32.21471770197395 27.958579881656807, 35.789349790551185 28.757396449704142, 38.11347587866548 29.55621301775148, 29.54187106200233 30.355029585798817, 28.31452616739637 31.153846153846157, 36.07144904948842 31.95266272189349, 29.90247944007557 32.751479289940825, 31.87798070767618 33.55029585798817, 35.792086154638206 34.349112426035504, 42.02418463225607 35.14792899408284, 40.382301266826026 35.94674556213018, 40.539086614083715 36.74556213017752, 33.43681951983202 37.54437869822485, 27.330010459080505 38.34319526627219, 23.39857064451861 39.142011834319526, 25.593810191029124 39.94082840236687, 35.28329125311148 40.7396449704142, 30.954383909739036 41.53846153846154, 25.437682414222202 42.337278106508876, 22.336021489558167 43.13609467455622, 19.394519035603082 43.93491124260355, 3.3267744784332565 44.73372781065089, 7.959784727815437 45.532544378698226, 14.826069977837433 46.33136094674556, 14.042170355530756 47.1301775147929, 19.477206115288652 47.928994082840234, 21.44441606405741 48.72781065088758, 21.96274831363252 49.52662721893491, 26.112389699083337 50.32544378698225, 25.103250534708714 51.124260355029584, 27.12611546759931 51.92307692307693, 29.139620934235655 52.72189349112426, 27.441047248240018 53.5207100591716, 27.701351273828635 54.319526627218934, 28.563963201356117 55.11834319526627, 27.560679363671138 55.91715976331361, 31.640742966447995 56.71597633136094, 30.913954320479448 57.514792899408285, 30.518183920626964 58.31360946745562, 29.844870006151496 59.11242603550296, 26.98923636188466 59.91124260355029, 29.58883870725588 60.710059171597635, 31.342756018664335 61.50887573964497, 28.942968036072614 62.307692307692314, 27.450963601851385 63.10650887573964, 28.958038932913922 63.90532544378698, 29.653561979381436 64.70414201183432, 31.415796331845996 65.50295857988165, 28.44618687397779 66.30177514792899, 30.980920230689584 67.10059171597634, 31.95113831583708 67.89940828402366, 34.21039144207752 68.69822485207101, 33.21069356154928 69.49704142011834, 36.26400488694691 70.29585798816568, 41.71835790456853 71.09467455621302, 42.40345704867831 71.89349112426036, 41.98388433033359 72.6923076923077, 41.769605819671604 73.49112426035504, 41.21911912375802 74.28994082840237, 40.66539309927455 75.0887573964497, 43.822709439705534 75.88757396449704, 44.42761123479338 76.68639053254438, 45.20226193593185 77.48520710059172, 45.81261880186102 78.28402366863905, 49.94885709965052 79.0828402366864, 48.37187032970728 79.88165680473374, 46.623839673268265 80.68047337278107, 46.740600931138175 81.4792899408284, 46.94530206346346 82.27810650887574, 49.12977865111781 83.07692307692308, 48.64194262605364 83.87573964497041, 50.0 84.67455621301775, 47.87037337199041 85.4733727810651, 46.64742051906444 86.27218934911244, 44.501004252415896 87.07100591715975, 44.63325407603198 87.8698224852071, 44.343472752731024 88.66863905325444, 44.86294620334117 89.46745562130178, 46.14842096570364 90.26627218934911, 44.51490653759958 91.06508875739645, 43.27075795792386 91.8639053254438, 45.12840091607447 92.66272189349112, 44.44090255156277 93.46153846153845, 42.938341825815776 94.2603550295858, 39.60751581357025 95.05917159763314, 41.93361557533682 95.85798816568047, 40.735654553447105 96.65680473372781, 39.04563125236958 97.45562130177515, 36.83618253120821 98.2544378698225, 34.22949945824888 99.05325443786982, 37.665130867364276 99.85207100591715, 39.21428624150392 100.6508875739645, 40.92508595624984 101.44970414201183, 42.001305801482545 102.24852071005917, 44.80095360830795 103.04733727810651, 45.25270250474749 103.84615384615385, 44.380338854899044 104.64497041420118, 45.38396552357211 105.44378698224853, 45.68310690809225 106.24260355029585, 45.32867490774667 107.0414201183432, 36.90890032667686 107.84023668639053, 30.21659994945552 108.63905325443787, 32.48397962633665 109.43786982248521, 34.87669690929556 110.23668639053254, 35.47701155410222 111.03550295857988, 35.46006247092551 111.83431952662723, 35.18722338185981 112.63313609467457, 35.033357132113025 113.43195266272188, 35.62045732767557 114.23076923076923, 37.55675160571324 115.02958579881657, 33.5613052681044 115.82840236686391, 33.3131219067354 116.62721893491124, 32.9375171189628 117.42603550295858, 36.08306126710272 118.22485207100593, 36.98264558998279 119.02366863905324, 38.30717009803535 119.82248520710058, 39.12074797713079 120.62130177514793, 41.02377058255557 121.42011834319527, 42.17582446199341 122.2189349112426, 41.23131734884106 123.01775147928994, 35.36837171235955 123.81656804733728, 31.581957224623284 124.61538461538463, 36.2013920571059 125.41420118343194, 40.06646147125208 126.21301775147928, 42.36086281787521 127.01183431952663, 39.28647840390115 127.81065088757396, 35.78954933698233 128.60946745562129, 33.22777787525176 129.40828402366864, 36.35513160028022 130.20710059171597, 39.42753265602559 131.0059171597633, 37.89024401782204 131.80473372781066, 36.47854249586973 132.60355029585799, 35.90690772736115 133.40236686390534, 35.061938161896386 134.20118343195267, 35.06266134101732" fill="none" stroke="#ff3a33" stroke-width="1.25"/>

</svg>