<?xml version="1.0" standalone="no"?>
<!DOCTYPE svg PUBLIC "-//W3C//DTD SVG 1.1//EN" "http://www.w3.org/Graphics/SVG/1.1/DTD/svg11.dtd">

<svg width="135" height="50" viewBox="0 0 135 50" preserveAspectRatio="none" 
  xmlns="http://www.w3.org/2000/svg"
  xmlns:xlink="http://www.w3.org/1999/xlink">


<polyline points="0.0, 50.0 0.7988165680473372, 49.71825154638065 1.5976331360946745, 45.8268795903237 2.396449704142012, 43.51449755528603 3.195266272189349, 38.34614245489808 3.994082840236686, 39.5201311197462 4.792899408284024, 42.44525549548289 5.591715976331361, 37.09379236708594 6.390532544378698, 35.12633893766394 7.189349112426036, 37.047367832313924 7.988165680473372, 26.954028342263708 8.78698224852071, 21.040501808099783 9.585798816568047, 18.340702652951922 10.384615384615385, 22.047298866473117 11.183431952662723, 22.704489668237716 11.982248520710058, 26.35545609517837 12.781065088757396, 29.30123801525168 13.579881656804734, 28.60260456380882 14.378698224852071, 30.014197066510373 15.177514792899409, 27.77470193364635 15.976331360946745, 22.462097059038495 16.775147928994084, 25.99152413025253 17.57396449704142, 23.14753949641345 18.37278106508876, 19.50166381750839 19.171597633136095, 20.874522800777733 19.970414201183434, 2.8603502718494433 20.76923076923077, 9.456398972006566 21.56804733727811, 6.33484572444864 22.366863905325445, 11.232927413449987 23.16568047337278, 9.420381151641818 23.964497041420117, 14.287344867312534 24.763313609467456, 16.966889831980772 25.562130177514792, 13.963754518469262 26.36094674556213, 9.614024752549724 27.159763313609467, 15.430752305129666 27.958579881656807, 14.842298447271032 28.757396449704142, 14.300034639489786 29.55621301775148, 10.813969347882274 30.355029585798817, 15.595892652447862 31.153846153846157, 18.530124497768423 31.95266272189349, 18.581269453876626 32.751479289940825, 21.970741660638325 33.55029585798817, 28.89153353873989 34.349112426035504, 29.59807777113767 35.14792899408284, 21.21913220995549 35.94674556213018, 16.795896014249266 36.74556213017752, 16.01147741910571 37.54437869822485, 17.796748700464185 38.34319526627219, 17.71336181317862 39.142011834319526, 16.732172512136838 39.94082840236687, 20.820568125004854 40.7396449704142, 20.52316007929941 41.53846153846154, 21.553740014793654 42.337278106508876, 17.59325533955951 43.13609467455622, 19.742538603911548 43.93491124260355, 17.53141386715625 44.73372781065089, 17.231498497060173 45.532544378698226, 15.854749428825693 46.33136094674556, 16.53026597909348 47.1301775147929, 17.357566335507236 47.928994082840234, 15.763194806231256 48.72781065088758, 16.39499983697503 49.52662721893491, 18.019005875703474 50.32544378698225, 17.537079606136903 51.124260355029584, 16.657036514284087 51.92307692307693, 17.123707489647067 52.72189349112426, 16.632337259404988 53.5207100591716, 15.268034348769714 54.319526627218934, 15.007588343361547 55.11834319526627, 15.044582602982882 55.91715976331361, 17.210475495635837 56.71597633136094, 16.817533868191976 57.514792899408285, 17.920248492688728 58.31360946745562, 14.061426733110194 59.11242603550296, 19.154799796615936 59.91124260355029, 20.87828423551166 60.710059171597635, 21.161158416690768 61.50887573964497, 22.542608028018737 62.307692307692314, 22.655622252429815 63.10650887573964, 22.859516848311944 63.90532544378698, 24.32756373856111 64.70414201183432, 24.954489594560673 65.50295857988165, 25.102653883868577 66.30177514792899, 23.78120150745153 67.10059171597634, 24.05568772475923 67.89940828402366, 24.02905071797977 68.69822485207101, 23.29790093556565 69.49704142011834, 22.829877500352563 70.29585798816568, 24.871220644580742 71.09467455621302, 25.331675909563057 71.89349112426036, 24.488252415094067 72.6923076923077, 25.13287905537695 73.49112426035504, 24.89860072103535 74.28994082840237, 24.702696606383544 75.0887573964497, 25.435534677877637 75.88757396449704, 26.27990219076992 76.68639053254438, 26.00366407525403 77.48520710059172, 28.645944195960215 78.28402366863905, 30.114720709302162 79.0828402366864, 28.776992946580947 79.88165680473374, 28.45107150326275 80.68047337278107, 28.64441610236516 81.4792899408284, 28.176529823208753 82.27810650887574, 28.598423263059132 83.07692307692308, 28.231233554208444 83.87573964497041, 30.312678905578128 84.67455621301775, 31.291889119397844 85.4733727810651, 31.259858452654022 86.27218934911244, 30.616302224244833 87.07100591715975, 30.36911773892621 87.8698224852071, 30.76548789282077 88.66863905325444, 31.385009826068277 89.46745562130178, 30.641740213421997 90.26627218934911, 30.57879817232174 91.06508875739645, 29.153213156258506 91.8639053254438, 28.551009745856053 92.66272189349112, 25.74927052753236 93.46153846153845, 23.780966512091386 94.2603550295858, 24.936625491695224 95.05917159763314, 22.98547329920792 95.85798816568047, 22.45756625133113 96.65680473372781, 12.51118695420263 97.45562130177515, 12.06490089027353 98.2544378698225, 13.385879861307693 99.05325443786982, 9.135752363901442 99.85207100591715, 10.853711007994733 100.6508875739645, 9.907931656233616 101.44970414201183, 12.095693988588998 102.24852071005917, 12.883809193965831 103.04733727810651, 15.549920122063178 103.84615384615385, 14.195723416144112 104.64497041420118, 15.374453255887477 105.44378698224853, 16.929934597050107 106.24260355029585, 16.612684594442488 107.0414201183432, 18.058148098077517 107.84023668639053, 16.594321517493988 108.63905325443787, 11.405545865002777 109.43786982248521, 13.235063542143658 110.23668639053254, 11.618286189792267 111.03550295857988, 12.746221181772931 111.83431952662723, 10.74410725137406 112.63313609467457, 12.22315077301631 113.43195266272188, 9.912893052734388 114.23076923076923, 8.760001829352333 115.02958579881657, 8.325478673888922 115.82840236686391, 7.634452551568542 116.62721893491124, 6.7490076475437935 117.42603550295858, 0.0 118.22485207100593, 5.752470413320372 119.02366863905324, 4.927690117651724 119.82248520710058, 6.938347400570673 120.62130177514793, 7.378554828148674 121.42011834319527, 8.947401461427756 122.2189349112426, 9.592721859386526 123.01775147928994, 8.471500460003341 123.81656804733728, 7.238023048994199 124.61538461538463, 7.402359532828486 125.41420118343194, 0.1704655023129742 126.21301775147928, 5.53246660140128 127.01183431952663, 5.31754953320637 127.81065088757396, 6.7670064429288 128.60946745562129, 7.019545533640933 129.40828402366864, 5.581646431972002 130.20710059171597, 5.626654245714446 131.0059171597633, 4.870513193013924 131.80473372781066, 6.206526654642767 132.60355029585799, 4.631366724493332 133.40236686390534, 5.209288925016593 134.20118343195267, 5.321648041162019" fill="none" stroke="#32ca5b" stroke-width="1.25"/>

</svg>