<?xml version="1.0" standalone="no"?>
<!DOCTYPE svg PUBLIC "-//W3C//DTD SVG 1.1//EN" "http://www.w3.org/Graphics/SVG/1.1/DTD/svg11.dtd">

<svg width="135" height="50" viewBox="0 0 135 50" preserveAspectRatio="none" 
  xmlns="http://www.w3.org/2000/svg"
  xmlns:xlink="http://www.w3.org/1999/xlink">


<polyline points="0.0, 42.576371093251055 0.7988165680473372, 43.413101656179634 1.5976331360946745, 44.12733500260677 2.396449704142012, 44.13309278404867 3.195266272189349, 44.92837022907791 3.994082840236686, 44.61135966401274 4.792899408284024, 44.94717714718918 5.591715976331361, 44.686397330990545 6.390532544378698, 44.836695352740655 7.189349112426036, 44.21642521588557 7.988165680473372, 44.676575662861026 8.78698224852071, 44.72878977856587 9.585798816568047, 44.569950521496935 10.384615384615385, 44.33173091641156 11.183431952662723, 44.74487898267488 11.982248520710058, 45.226990154741614 12.781065088757396, 45.307199713801815 13.579881656804734, 45.314933479319905 14.378698224852071, 44.005632570687524 15.177514792899409, 44.76918210573735 15.976331360946745, 45.26239262524423 16.775147928994084, 47.071311318097706 17.57396449704142, 46.93282158188066 18.37278106508876, 46.89031748528446 19.171597633136095, 46.74452451596714 19.970414201183434, 46.99795116935595 20.76923076923077, 45.72854465469231 21.56804733727811, 45.81020474080703 22.366863905325445, 46.823795094543385 23.16568047337278, 46.75207172474304 23.964497041420117, 46.4926666685205 24.763313609467456, 46.20832108103002 25.562130177514792, 45.99559656535131 26.36094674556213, 46.511740559826706 27.159763313609467, 46.27128864161975 27.958579881656807, 46.73569635067219 28.757396449704142, 46.27457269635566 29.55621301775148, 45.676331507679635 30.355029585798817, 46.114883884153535 31.153846153846157, 47.046658110639264 31.95266272189349, 47.4365586300951 32.751479289940825, 47.72062608435076 33.55029585798817, 47.762413472586516 34.349112426035504, 48.376156488606405 35.14792899408284, 47.949493447374856 35.94674556213018, 48.505232288487434 36.74556213017752, 48.16056647343668 37.54437869822485, 48.47627062155714 38.34319526627219, 48.212619621910896 39.142011834319526, 49.28312109163265 39.94082840236687, 50.0 40.7396449704142, 48.254111713234565 41.53846153846154, 49.800843828361245 42.337278106508876, 48.513209219062034 43.13609467455622, 48.235802568639556 43.93491124260355, 48.17480285045447 44.73372781065089, 49.137876686290625 45.532544378698226, 49.15157573127123 46.33136094674556, 47.84411451598281 47.1301775147929, 47.85762057027866 47.928994082840234, 47.622811978920915 48.72781065088758, 47.50410156875756 49.52662721893491, 47.47328504945758 50.32544378698225, 47.17838783484492 51.124260355029584, 46.710709116855085 51.92307692307693, 46.71170668802883 52.72189349112426, 46.93917453455344 53.5207100591716, 46.36215288173538 54.319526627218934, 47.267086878115784 55.11834319526627, 46.66122656410581 55.91715976331361, 45.684147011593716 56.71597633136094, 45.72055705185338 57.514792899408285, 45.964426044645904 58.31360946745562, 46.41415036873734 59.11242603550296, 42.98544687622452 59.91124260355029, 45.18715808140831 60.710059171597635, 47.21605593576171 61.50887573964497, 45.612396954626476 62.307692307692314, 45.624788242321955 63.10650887573964, 44.98687484179385 63.90532544378698, 44.981550908364554 64.70414201183432, 45.566911337165315 65.50295857988165, 45.06824146713986 66.30177514792899, 45.51476547686492 67.10059171597634, 45.026730163471505 67.89940828402366, 44.42062181431865 68.69822485207101, 44.405530410089526 69.49704142011834, 43.526770448237784 70.29585798816568, 43.9786047670048 71.09467455621302, 44.31498654669038 71.89349112426036, 44.59106492133789 72.6923076923077, 44.49384313577986 73.49112426035504, 44.840879171326996 74.28994082840237, 42.93121840291837 75.0887573964497, 44.0954597579475 75.88757396449704, 44.54943526466696 76.68639053254438, 44.70120943805091 77.48520710059172, 44.612335630276824 78.28402366863905, 44.22088494992673 79.0828402366864, 43.97813504087201 79.88165680473374, 44.94463550740398 80.68047337278107, 44.825639783995854 81.4792899408284, 45.3238036788884 82.27810650887574, 46.37585284938697 83.07692307692308, 45.84375474859087 83.87573964497041, 45.831889845302804 84.67455621301775, 44.56752350633452 85.4733727810651, 45.006106651090036 86.27218934911244, 45.043248013096886 87.07100591715975, 44.747976294608236 87.8698224852071, 44.74901062651919 88.66863905325444, 45.03189352853632 89.46745562130178, 45.009153542434596 90.26627218934911, 44.990318678123565 91.06508875739645, 45.03553457134492 91.8639053254438, 45.76822912752618 92.66272189349112, 45.71162648544448 93.46153846153845, 42.591609404503615 94.2603550295858, 42.593775924142804 95.05917159763314, 40.77894779340145 95.85798816568047, 41.5353699524843 96.65680473372781, 41.56566679559216 97.45562130177515, 42.79852827989556 98.2544378698225, 43.291811445477165 99.05325443786982, 42.70975678826386 99.85207100591715, 42.581349329195085 100.6508875739645, 42.633018678074514 101.44970414201183, 43.15415635654296 102.24852071005917, 43.41735978240844 103.04733727810651, 43.0824541888702 103.84615384615385, 42.864441616958956 104.64497041420118, 43.12576959599605 105.44378698224853, 42.78614214233575 106.24260355029585, 42.79756713779106 107.0414201183432, 43.4052642112594 107.84023668639053, 43.43802529009285 108.63905325443787, 43.362707161136186 109.43786982248521, 43.3443532167752 110.23668639053254, 43.22776438772401 111.03550295857988, 42.83246498720419 111.83431952662723, 42.06499775528943 112.63313609467457, 38.9974617209006 113.43195266272188, 40.01647563496471 114.23076923076923, 40.85945349598393 115.02958579881657, 40.46093614443757 115.82840236686391, 38.98946669473932 116.62721893491124, 36.60658258180355 117.42603550295858, 34.807618320789494 118.22485207100593, 34.69764687574768 119.02366863905324, 35.01885344131161 119.82248520710058, 35.64757126569732 120.62130177514793, 35.01517139436719 121.42011834319527, 33.411162286170345 122.2189349112426, 34.060574563663636 123.01775147928994, 35.31862909190724 123.81656804733728, 33.163986807484434 124.61538461538463, 0.0 125.41420118343194, 15.961880153592423 126.21301775147928, 22.883907180810574 127.01183431952663, 21.48851798396303 127.81065088757396, 25.35282985085318 128.60946745562129, 25.02644617908042 129.40828402366864, 29.819313991112885 130.20710059171597, 18.309425208073858 131.0059171597633, 9.967769972308261 131.80473372781066, 20.150197305187813 132.60355029585799, 21.83604895060201 133.40236686390534, 25.035211356767856 134.20118343195267, 14.729421401145698" fill="none" stroke="#32ca5b" stroke-width="1.25"/>

</svg>