<?xml version="1.0" standalone="no"?>
<!DOCTYPE svg PUBLIC "-//W3C//DTD SVG 1.1//EN" "http://www.w3.org/Graphics/SVG/1.1/DTD/svg11.dtd">

<svg width="135" height="50" viewBox="0 0 135 50" preserveAspectRatio="none" 
  xmlns="http://www.w3.org/2000/svg"
  xmlns:xlink="http://www.w3.org/1999/xlink">


<polyline points="0.0, 46.42824434425975 0.7988165680473372, 47.402825338375784 1.5976331360946745, 35.99163800407724 2.396449704142012, 39.6458652243146 3.195266272189349, 40.31267547348692 3.994082840236686, 39.724896152566984 4.792899408284024, 36.268661338007426 5.591715976331361, 37.20232611844242 6.390532544378698, 35.645379121945965 7.189349112426036, 35.787992853240794 7.988165680473372, 34.77701570983599 8.78698224852071, 34.89628228881615 9.585798816568047, 29.915830649603393 10.384615384615385, 32.85226260696665 11.183431952662723, 31.539450403041563 11.982248520710058, 31.524552840451285 12.781065088757396, 28.729478343954046 13.579881656804734, 33.26382658607021 14.378698224852071, 29.19531303914023 15.177514792899409, 20.946818247282433 15.976331360946745, 16.068671458064525 16.775147928994084, 13.316507888911303 17.57396449704142, 12.287442683829768 18.37278106508876, 12.315067818644199 19.171597633136095, 16.447541270272826 19.970414201183434, 14.240125032360352 20.76923076923077, 2.5831634363498237 21.56804733727811, 4.118129833827181 22.366863905325445, 3.6304891256882357 23.16568047337278, 0.6762743485844833 23.964497041420117, 4.6354594930194875 24.763313609467456, 2.9591772782102694 25.562130177514792, 1.9342630024317613 26.36094674556213, 6.188146108510578 27.159763313609467, 7.954132257212843 27.958579881656807, 5.70525589647577 28.757396449704142, 2.3327481156032293 29.55621301775148, 0.0 30.355029585798817, 1.8051782503519895 31.153846153846157, 3.3014682666883255 31.95266272189349, 1.0240241309994342 32.751479289940825, 0.2023404715820195 33.55029585798817, 7.150444884769892 34.349112426035504, 4.5714541742150505 35.14792899408284, 47.7635457344006 35.94674556213018, 50.0 36.74556213017752, 44.776675653604144 37.54437869822485, 39.48841571424738 38.34319526627219, 41.77087593954016 39.142011834319526, 40.973153663306434 39.94082840236687, 39.5441582061795 40.7396449704142, 39.012996796863376 41.53846153846154, 39.32909809303203 42.337278106508876, 37.7308885598666 43.13609467455622, 37.424052381589696 43.93491124260355, 38.2193583100566 44.73372781065089, 34.91857766015631 45.532544378698226, 35.29346865743654 46.33136094674556, 31.41625070252247 47.1301775147929, 30.464959563557265 47.928994082840234, 31.25026775412914 48.72781065088758, 29.762524894890053 49.52662721893491, 30.79661849655388 50.32544378698225, 28.1051351177677 51.124260355029584, 26.986739087079474 51.92307692307693, 33.059541992502595 52.72189349112426, 41.13718849947646 53.5207100591716, 43.34119430491089 54.319526627218934, 39.29843730676055 55.11834319526627, 40.15843328209146 55.91715976331361, 39.16338365177331 56.71597633136094, 39.18251055591997 57.514792899408285, 38.86587225912636 58.31360946745562, 37.55742702062682 59.11242603550296, 31.268955925228383 59.91124260355029, 48.86973385595621 60.710059171597635, 45.848179383816806 61.50887573964497, 43.558395562112615 62.307692307692314, 44.60561444485901 63.10650887573964, 44.51415718539805 63.90532544378698, 48.54684321897371 64.70414201183432, 49.02542213702442 65.50295857988165, 43.830027895634494 66.30177514792899, 47.72727194970457 67.10059171597634, 43.182038466684546 67.89940828402366, 43.32883844515655 68.69822485207101, 41.74420870892476 69.49704142011834, 39.55840088268849 70.29585798816568, 36.27323969297191 71.09467455621302, 38.7213390560408 71.89349112426036, 42.45271908578474 72.6923076923077, 43.3989290316575 73.49112426035504, 42.344314659327175 74.28994082840237, 41.25916532368237 75.0887573964497, 41.156257402372276 75.88757396449704, 41.53439222686576 76.68639053254438, 39.86607698259386 77.48520710059172, 42.08669334999012 78.28402366863905, 42.1694300530588 79.0828402366864, 40.32487291657959 79.88165680473374, 42.6964600594732 80.68047337278107, 41.397631453095734 81.4792899408284, 41.68205778114823 82.27810650887574, 46.01199291826145 83.07692307692308, 46.57376333530883 83.87573964497041, 43.245219116196054 84.67455621301775, 41.15075496695866 85.4733727810651, 38.37042772295805 86.27218934911244, 37.81942195453224 87.07100591715975, 42.79104336105522 87.8698224852071, 41.49066578055602 88.66863905325444, 33.28695545066212 89.46745562130178, 32.62002905209698 90.26627218934911, 35.909730689917694 91.06508875739645, 34.070143550508554 91.8639053254438, 31.909381320672125 92.66272189349112, 34.16401835367927 93.46153846153845, 29.03714953804432 94.2603550295858, 28.606498564651684 95.05917159763314, 27.31576304794891 95.85798816568047, 30.637623909921697 96.65680473372781, 25.9035904456202 97.45562130177515, 24.631497405664017 98.2544378698225, 29.200432962899015 99.05325443786982, 27.91490137600779 99.85207100591715, 28.01550663364977 100.6508875739645, 27.578944777275645 101.44970414201183, 29.054228913195264 102.24852071005917, 28.78057965225277 103.04733727810651, 27.875087085864962 103.84615384615385, 30.081354684588334 104.64497041420118, 28.43501514778429 105.44378698224853, 25.028045299595618 106.24260355029585, 24.5379384680365 107.0414201183432, 24.1776179721765 107.84023668639053, 22.06643247335491 108.63905325443787, 21.608620544436395 109.43786982248521, 34.993328241066436 110.23668639053254, 33.404482969515975 111.03550295857988, 26.819220084377744 111.83431952662723, 21.89412112238597 112.63313609467457, 22.508353135522174 113.43195266272188, 19.377696123388233 114.23076923076923, 26.16749150757273 115.02958579881657, 21.084030182420065 115.82840236686391, 20.18369198028411 116.62721893491124, 22.84714137247684 117.42603550295858, 38.64654470651547 118.22485207100593, 38.45119847769817 119.02366863905324, 39.94471102616824 119.82248520710058, 39.7625475604167 120.62130177514793, 36.22959239102313 121.42011834319527, 33.95151715623256 122.2189349112426, 31.848975198437486 123.01775147928994, 32.38334328183245 123.81656804733728, 33.43301364349377 124.61538461538463, 40.18038170266925 125.41420118343194, 37.260436302365385 126.21301775147928, 35.63492553891266 127.01183431952663, 33.47358381489122 127.81065088757396, 20.749801892082175 128.60946745562129, 26.733261361943388 129.40828402366864, 19.329618339627746 130.20710059171597, 19.226061709705153 131.0059171597633, 13.36789477824642 131.80473372781066, 6.268062186229118 132.60355029585799, 5.714040522786565 133.40236686390534, 5.130815322842644 134.20118343195267, 5.155974857665823" fill="none" stroke="#32ca5b" stroke-width="1.25"/>

</svg>