<?xml version="1.0" standalone="no"?>
<!DOCTYPE svg PUBLIC "-//W3C//DTD SVG 1.1//EN" "http://www.w3.org/Graphics/SVG/1.1/DTD/svg11.dtd">

<svg width="135" height="50" viewBox="0 0 135 50" preserveAspectRatio="none" 
  xmlns="http://www.w3.org/2000/svg"
  xmlns:xlink="http://www.w3.org/1999/xlink">


<polyline points="0.0, 21.753629669545827 0.7988165680473372, 23.486251309924313 1.5976331360946745, 20.575130052821184 2.396449704142012, 23.257250976433266 3.195266272189349, 18.178678165554757 3.994082840236686, 17.37836340117484 4.792899408284024, 16.22568693685215 5.591715976331361, 18.98233371399521 6.390532544378698, 21.06812794033442 7.189349112426036, 24.024274359123464 7.988165680473372, 20.175302662475122 8.78698224852071, 18.04251598999908 9.585798816568047, 21.124412223194035 10.384615384615385, 17.185875482078547 11.183431952662723, 26.895919598383532 11.982248520710058, 34.97233371143227 12.781065088757396, 36.01865259440147 13.579881656804734, 35.154088216050205 14.378698224852071, 34.326653257906855 15.177514792899409, 30.47870451599033 15.976331360946745, 28.091362541617837 16.775147928994084, 26.954327631785148 17.57396449704142, 26.30277304840467 18.37278106508876, 27.20288699896647 19.171597633136095, 29.11387763968759 19.970414201183434, 31.173537769337546 20.76923076923077, 32.8584900052431 21.56804733727811, 32.41128653220292 22.366863905325445, 35.18105213913855 23.16568047337278, 36.30969704202866 23.964497041420117, 38.155430467682436 24.763313609467456, 39.02907488578458 25.562130177514792, 38.181010954675756 26.36094674556213, 45.70553314904321 27.159763313609467, 44.96440464782103 27.958579881656807, 48.381861659498504 28.757396449704142, 44.30600364565182 29.55621301775148, 45.31400396871933 30.355029585798817, 49.39982171679354 31.153846153846157, 46.46961905875141 31.95266272189349, 45.37734319527088 32.751479289940825, 49.58449749750881 33.55029585798817, 50.0 34.349112426035504, 47.13408008565308 35.14792899408284, 48.42016514263525 35.94674556213018, 43.71354490408643 36.74556213017752, 43.02166359952299 37.54437869822485, 40.88357462438126 38.34319526627219, 43.319151790561335 39.142011834319526, 47.722209720072584 39.94082840236687, 46.37554782270621 40.7396449704142, 43.64639864255564 41.53846153846154, 43.93189592951143 42.337278106508876, 42.61463313748761 43.13609467455622, 37.87066022823471 43.93491124260355, 37.892799965339265 44.73372781065089, 35.8834823296481 45.532544378698226, 35.65827191180975 46.33136094674556, 36.587033648551184 47.1301775147929, 36.76917250412678 47.928994082840234, 37.914052695689385 48.72781065088758, 40.932115448217246 49.52662721893491, 36.938843797157716 50.32544378698225, 35.81793893058254 51.124260355029584, 38.1483775990379 51.92307692307693, 35.30405216411771 52.72189349112426, 33.66157984272393 53.5207100591716, 32.948049560319745 54.319526627218934, 30.347070033951667 55.11834319526627, 33.39690346122956 55.91715976331361, 31.53888299245935 56.71597633136094, 34.760178145420284 57.514792899408285, 34.181675376003845 58.31360946745562, 36.441776300671805 59.11242603550296, 38.94977166977397 59.91124260355029, 40.39274272937091 60.710059171597635, 37.77469694480381 61.50887573964497, 38.327188928723146 62.307692307692314, 35.33750311612329 63.10650887573964, 38.986784100465414 63.90532544378698, 43.470937377127164 64.70414201183432, 41.81959192570521 65.50295857988165, 38.504983901510364 66.30177514792899, 38.6571127359603 67.10059171597634, 41.38662710406427 67.89940828402366, 39.88453642909484 68.69822485207101, 40.19890437916941 69.49704142011834, 40.01794529394919 70.29585798816568, 41.413388793001324 71.09467455621302, 37.46283080178245 71.89349112426036, 39.5551900302136 72.6923076923077, 37.36507646962291 73.49112426035504, 36.18672655674188 74.28994082840237, 37.5527062576401 75.0887573964497, 41.171116818770585 75.88757396449704, 40.847538923143645 76.68639053254438, 35.96955207891066 77.48520710059172, 42.943526802723795 78.28402366863905, 39.390877668935616 79.0828402366864, 38.70307856306794 79.88165680473374, 35.91219193121481 80.68047337278107, 35.42290565868002 81.4792899408284, 36.201229282459465 82.27810650887574, 34.45658725638589 83.07692307692308, 35.36968318722907 83.87573964497041, 31.017248259463642 84.67455621301775, 28.49554480930312 85.4733727810651, 25.253948668989963 86.27218934911244, 27.939913733439738 87.07100591715975, 25.829990766133175 87.8698224852071, 29.178538771311757 88.66863905325444, 29.056325448834343 89.46745562130178, 27.329526542451738 90.26627218934911, 23.83906674078923 91.06508875739645, 25.211349260243853 91.8639053254438, 25.999214921640196 92.66272189349112, 26.900431018883843 93.46153846153845, 26.76699885307429 94.2603550295858, 26.889570348985835 95.05917159763314, 26.23723967692417 95.85798816568047, 27.89950731667785 96.65680473372781, 27.23036679467426 97.45562130177515, 28.475412116296418 98.2544378698225, 29.097864162996643 99.05325443786982, 30.474012646909216 99.85207100591715, 30.213446988558708 100.6508875739645, 30.142415446888464 101.44970414201183, 29.0827980256352 102.24852071005917, 29.780598613736547 103.04733727810651, 28.684076787219215 103.84615384615385, 29.227156777278946 104.64497041420118, 27.525819499536002 105.44378698224853, 26.782458807058322 106.24260355029585, 26.760144125282437 107.0414201183432, 24.17718535766088 107.84023668639053, 24.694153053662323 108.63905325443787, 25.96474028136858 109.43786982248521, 23.978679319531864 110.23668639053254, 24.509905246602113 111.03550295857988, 21.229554057665332 111.83431952662723, 22.291492218425685 112.63313609467457, 21.624019210807813 113.43195266272188, 23.490556051099155 114.23076923076923, 18.381874089099227 115.02958579881657, 16.519012704923426 115.82840236686391, 19.253786597558467 116.62721893491124, 19.706624272535283 117.42603550295858, 17.62844116688172 118.22485207100593, 11.769645251365697 119.02366863905324, 6.3765951985035665 119.82248520710058, 2.0316751680768634 120.62130177514793, 6.472924167472918 121.42011834319527, 5.780132336680958 122.2189349112426, 13.992362931156821 123.01775147928994, 13.14615557215037 123.81656804733728, 10.872206161421898 124.61538461538463, 7.449014710055484 125.41420118343194, 10.920446809848324 126.21301775147928, 9.699355761438786 127.01183431952663, 7.99365607699154 127.81065088757396, 5.806220415275995 128.60946745562129, 3.1067065668542044 129.40828402366864, 4.892439289567027 130.20710059171597, 2.1347959728662778 131.0059171597633, 1.367089000134703 131.80473372781066, 0.21879570338712634 132.60355029585799, 1.2966741749013828 133.40236686390534, 1.155164229916233 134.20118343195267, 0.0" fill="none" stroke="#32ca5b" stroke-width="1.25"/>

</svg>