<?xml version="1.0" standalone="no"?>
<!DOCTYPE svg PUBLIC "-//W3C//DTD SVG 1.1//EN" "http://www.w3.org/Graphics/SVG/1.1/DTD/svg11.dtd">

<svg width="135" height="50" viewBox="0 0 135 50" preserveAspectRatio="none" 
  xmlns="http://www.w3.org/2000/svg"
  xmlns:xlink="http://www.w3.org/1999/xlink">


<polyline points="0.0, 10.07917373204606 0.7988165680473372, 14.66547830061442 1.5976331360946745, 18.75237578957383 2.396449704142012, 15.341144496954023 3.195266272189349, 20.192290689821952 3.994082840236686, 18.546060992504426 4.792899408284024, 14.791262714024361 5.591715976331361, 12.683129645551904 6.390532544378698, 13.820432127646948 7.189349112426036, 18.457523239185285 7.988165680473372, 20.12757851363793 8.78698224852071, 16.564019400252388 9.585798816568047, 15.290659414177851 10.384615384615385, 14.580314132867011 11.183431952662723, 12.515038009521021 11.982248520710058, 20.62126793694512 12.781065088757396, 30.069535960085652 13.579881656804734, 31.04104548714629 14.378698224852071, 31.042743666350887 15.177514792899409, 31.441820735155474 15.976331360946745, 28.34571733017162 16.775147928994084, 25.709335491464763 17.57396449704142, 27.158357682277057 18.37278106508876, 23.90817490371154 19.171597633136095, 25.08478398554977 19.970414201183434, 26.735878054823004 20.76923076923077, 29.016946978130864 21.56804733727811, 30.31568764318726 22.366863905325445, 29.199093756602906 23.16568047337278, 32.28867807890314 23.964497041420117, 32.09091578645537 24.763313609467456, 35.28144262273651 25.562130177514792, 33.89501148532826 26.36094674556213, 34.49017788849502 27.159763313609467, 42.010964580268904 27.958579881656807, 40.11874711840288 28.757396449704142, 43.22837869714819 29.55621301775148, 40.71877138750881 30.355029585798817, 43.119974007536385 31.153846153846157, 47.855976271493276 31.95266272189349, 45.23161414734151 32.751479289940825, 43.35308731907674 33.55029585798817, 47.482986170849486 34.349112426035504, 50.0 35.14792899408284, 46.14291153357724 35.94674556213018, 47.27795436880253 36.74556213017752, 41.798292798349806 37.54437869822485, 39.730837118534055 38.34319526627219, 38.380539224374246 39.142011834319526, 41.022718910389145 39.94082840236687, 46.80042741497398 40.7396449704142, 45.85089205602394 41.53846153846154, 43.48571418456846 42.337278106508876, 44.67781600215025 43.13609467455622, 42.93502142047717 43.93491124260355, 39.98325627109179 44.73372781065089, 39.10011412767479 45.532544378698226, 35.06068325899803 46.33136094674556, 33.49495396464997 47.1301775147929, 33.682765763561676 47.928994082840234, 33.423731544419304 48.72781065088758, 33.6371765978685 49.52662721893491, 38.57037868176505 50.32544378698225, 34.25585997282584 51.124260355029584, 33.144018915875314 51.92307692307693, 34.91656941568665 52.72189349112426, 32.59501901934739 53.5207100591716, 33.01374518765436 54.319526627218934, 34.55452800438137 55.11834319526627, 31.98504298729718 55.91715976331361, 35.80005321994434 56.71597633136094, 35.310985317147 57.514792899408285, 37.57846153635383 58.31360946745562, 34.28504539780892 59.11242603550296, 35.84476201827785 59.91124260355029, 37.76963793902659 60.710059171597635, 39.757024259462284 61.50887573964497, 36.848791814149564 62.307692307692314, 36.25802178853271 63.10650887573964, 33.908072014316005 63.90532544378698, 36.1447034346844 64.70414201183432, 40.47625636168535 65.50295857988165, 37.45691087203038 66.30177514792899, 35.8593608344416 67.10059171597634, 36.00485073724571 67.89940828402366, 36.86472143569567 68.69822485207101, 34.79059142916313 69.49704142011834, 30.640859056194746 70.29585798816568, 32.99454177590819 71.09467455621302, 36.76429211231583 71.89349112426036, 33.767321223016175 72.6923076923077, 33.4110737310656 73.49112426035504, 32.26068164166854 74.28994082840237, 30.531746185669995 75.0887573964497, 32.522751924556346 75.88757396449704, 32.18009415568342 76.68639053254438, 30.39543473341103 77.48520710059172, 29.09954033313666 78.28402366863905, 34.91765791937937 79.0828402366864, 31.09687748124344 79.88165680473374, 28.700511395819174 80.68047337278107, 26.757469767501114 81.4792899408284, 24.946354980115526 82.27810650887574, 20.89093257067529 83.07692307692308, 19.959039318829003 83.87573964497041, 17.111703778908712 84.67455621301775, 11.141908699006956 85.4733727810651, 8.221820515798225 86.27218934911244, 10.56026593360584 87.07100591715975, 13.996193357557408 87.8698224852071, 15.80580731493125 88.66863905325444, 17.46324622853691 89.46745562130178, 20.405546896255743 90.26627218934911, 19.31286703050894 91.06508875739645, 15.631719135731576 91.8639053254438, 17.206961522689916 92.66272189349112, 16.13870404083443 93.46153846153845, 16.769849390830057 94.2603550295858, 16.07990423746775 95.05917159763314, 17.62920095453396 95.85798816568047, 19.170599042208806 96.65680473372781, 19.72470471298467 97.45562130177515, 18.27405680085532 98.2544378698225, 18.66580863694973 99.05325443786982, 20.309553222267716 99.85207100591715, 22.216112840855175 100.6508875739645, 21.860544662124862 101.44970414201183, 22.277938553754183 102.24852071005917, 21.285478009940174 103.04733727810651, 21.637589996191377 103.84615384615385, 21.8436118508776 104.64497041420118, 21.34475505314294 105.44378698224853, 17.9719220506805 106.24260355029585, 15.29850232991287 107.0414201183432, 16.36899787966027 107.84023668639053, 14.92183325927289 108.63905325443787, 18.10986501177002 109.43786982248521, 18.8834884721493 110.23668639053254, 17.86300521346675 111.03550295857988, 19.326768878481595 111.83431952662723, 16.046564223630792 112.63313609467457, 16.582202413983822 113.43195266272188, 12.445305869624159 114.23076923076923, 12.7967927200723 115.02958579881657, 12.38062175152304 115.82840236686391, 10.45773174687979 116.62721893491124, 13.417608394490447 117.42603550295858, 13.739524975859254 118.22485207100593, 11.467873639443706 119.02366863905324, 10.621062403040579 119.82248520710058, 6.815895832422132 120.62130177514793, 0.1570953028931618 121.42011834319527, 1.5985435389090534 122.2189349112426, 0.0 123.01775147928994, 10.145512566334256 123.81656804733728, 7.830763003365303 124.61538461538463, 8.94875296970858 125.41420118343194, 9.19299972971817 126.21301775147928, 12.70563316248655 127.01183431952663, 7.352557203320694 127.81065088757396, 3.4498554550369662 128.60946745562129, 3.3576008438960843 129.40828402366864, 3.6303802305847386 130.20710059171597, 7.381275881770994 131.0059171597633, 2.801926517770657 131.80473372781066, 3.4051022450841337 132.60355029585799, 1.7905248625033632 133.40236686390534, 3.81053486506687 134.20118343195267, 4.301705245692257" fill="none" stroke="#32ca5b" stroke-width="1.25"/>

</svg>