<?xml version="1.0" standalone="no"?>
<!DOCTYPE svg PUBLIC "-//W3C//DTD SVG 1.1//EN" "http://www.w3.org/Graphics/SVG/1.1/DTD/svg11.dtd">

<svg width="135" height="50" viewBox="0 0 135 50" preserveAspectRatio="none" 
  xmlns="http://www.w3.org/2000/svg"
  xmlns:xlink="http://www.w3.org/1999/xlink">


<polyline points="0.0, 29.404792406956222 0.7988165680473372, 32.2428854121519 1.5976331360946745, 30.91449661770852 2.396449704142012, 31.1118687584824 3.195266272189349, 34.1427290782004 3.994082840236686, 31.70210495274462 4.792899408284024, 31.257217044779946 5.591715976331361, 30.074367795991662 6.390532544378698, 28.212578885655248 7.189349112426036, 32.353531573368386 7.988165680473372, 33.79728426525625 8.78698224852071, 31.94604635287946 9.585798816568047, 29.57737732304697 10.384615384615385, 31.87049014818775 11.183431952662723, 30.04283565765024 11.982248520710058, 35.06554429078827 12.781065088757396, 40.247088062750585 13.579881656804734, 42.457224703237564 14.378698224852071, 41.3765912685711 15.177514792899409, 38.34408898595109 15.976331360946745, 37.86547391971783 16.775147928994084, 37.98537172278819 17.57396449704142, 38.31939805832416 18.37278106508876, 37.976914680584365 19.171597633136095, 36.42566235416652 19.970414201183434, 34.81559755621035 20.76923076923077, 36.39798062921556 21.56804733727811, 37.09117599515548 22.366863905325445, 37.210466855334204 23.16568047337278, 38.70484045439047 23.964497041420117, 40.47261983545201 24.763313609467456, 41.877108341332494 25.562130177514792, 42.758555466661555 26.36094674556213, 40.21034847011166 27.159763313609467, 45.68413914405567 27.958579881656807, 43.76480339449504 28.757396449704142, 46.42491849183957 29.55621301775148, 44.72261987307639 30.355029585798817, 46.7274363819896 31.153846153846157, 49.827614262697864 31.95266272189349, 48.28301172753123 32.751479289940825, 46.71046988983603 33.55029585798817, 49.4314466918271 34.349112426035504, 50.0 35.14792899408284, 48.76223096694623 35.94674556213018, 48.47843479455287 36.74556213017752, 45.87391874545404 37.54437869822485, 44.63433600646172 38.34319526627219, 42.005288649869435 39.142011834319526, 42.85892233493754 39.94082840236687, 46.56320950524544 40.7396449704142, 45.868626096938705 41.53846153846154, 44.402121086976784 42.337278106508876, 44.761505643821955 43.13609467455622, 43.54851562304301 43.93491124260355, 40.88830587265734 44.73372781065089, 39.36243831173168 45.532544378698226, 37.110417749533894 46.33136094674556, 34.67397818730159 47.1301775147929, 28.741161468564748 47.928994082840234, 28.543563062563965 48.72781065088758, 29.94770377081683 49.52662721893491, 32.75744225587361 50.32544378698225, 30.63419056552923 51.124260355029584, 28.587864606614538 51.92307692307693, 33.341193447133904 52.72189349112426, 31.84135187997834 53.5207100591716, 31.5292114377037 54.319526627218934, 33.103967090656404 55.11834319526627, 30.95453370180774 55.91715976331361, 32.50588981886954 56.71597633136094, 33.0137829059844 57.514792899408285, 35.390112863708985 58.31360946745562, 33.02116330709175 59.11242603550296, 34.60549152189939 59.91124260355029, 36.54982862171843 60.710059171597635, 37.04149509970856 61.50887573964497, 35.872895868627275 62.307692307692314, 36.53030563949482 63.10650887573964, 31.473706051799688 63.90532544378698, 33.57566632874437 64.70414201183432, 29.337873197510948 65.50295857988165, 31.952880230529594 66.30177514792899, 29.440844978709897 67.10059171597634, 28.781918317366923 67.89940828402366, 30.562391892453334 68.69822485207101, 31.082420064048083 69.49704142011834, 30.293862512289444 70.29585798816568, 33.193797228533164 71.09467455621302, 31.249686392950743 71.89349112426036, 30.40609433737309 72.6923076923077, 30.542724713599213 73.49112426035504, 29.583359277658438 74.28994082840237, 29.892432751046066 75.0887573964497, 32.22781399847507 75.88757396449704, 33.74281426127309 76.68639053254438, 33.769414605763735 77.48520710059172, 31.65967254248825 78.28402366863905, 36.61736192518347 79.0828402366864, 34.61199456102056 79.88165680473374, 32.962992261352944 80.68047337278107, 32.158052830733226 81.4792899408284, 30.920454855499347 82.27810650887574, 30.67857747293545 83.07692307692308, 29.507366734698014 83.87573964497041, 30.21681817775485 84.67455621301775, 28.298066927997628 85.4733727810651, 27.428322441524084 86.27218934911244, 27.120596251522635 87.07100591715975, 26.592799475266865 87.8698224852071, 25.338365651659295 88.66863905325444, 23.469332994525967 89.46745562130178, 26.190746423492772 90.26627218934911, 24.313485208583245 91.06508875739645, 24.335926599518825 91.8639053254438, 17.93203344540073 92.66272189349112, 12.031011847431401 93.46153846153845, 14.939323422201136 94.2603550295858, 14.77462567681087 95.05917159763314, 18.8977051724239 95.85798816568047, 19.824888764698343 96.65680473372781, 20.342001241182526 97.45562130177515, 19.289424048375988 98.2544378698225, 20.227415980015014 99.05325443786982, 18.55784865221068 99.85207100591715, 21.705742347011007 100.6508875739645, 20.583574945524383 101.44970414201183, 18.84256414913371 102.24852071005917, 18.245932729609134 103.04733727810651, 17.624700200639047 103.84615384615385, 15.487978156905136 104.64497041420118, 14.645647749884075 105.44378698224853, 12.876880992665052 106.24260355029585, 13.754356926476166 107.0414201183432, 13.101399826893154 107.84023668639053, 11.989386501247306 108.63905325443787, 14.04993456541201 109.43786982248521, 11.303428009114143 110.23668639053254, 4.892858645229165 111.03550295857988, 5.247565764674813 111.83431952662723, 8.857257965539484 112.63313609467457, 9.417640851825121 113.43195266272188, 9.908184366441898 114.23076923076923, 7.369219992215815 115.02958579881657, 6.630562292324299 115.82840236686391, 3.7889395698192647 116.62721893491124, 7.572538363048312 117.42603550295858, 7.973086363542896 118.22485207100593, 6.906848128735904 119.02366863905324, 8.421458085873333 119.82248520710058, 9.648270928402388 120.62130177514793, 7.47709864552501 121.42011834319527, 11.54225377521016 122.2189349112426, 11.365496490721245 123.01775147928994, 11.282527367097861 123.81656804733728, 8.75422971825289 124.61538461538463, 8.368638737263964 125.41420118343194, 7.544295961150422 126.21301775147928, 9.585680135085898 127.01183431952663, 8.180585156228846 127.81065088757396, 4.956214420247964 128.60946745562129, 2.6265182631887343 129.40828402366864, 2.9850194797445675 130.20710059171597, 4.489754356392068 131.0059171597633, 0.0 131.80473372781066, 2.076080950995941 132.60355029585799, 2.668920567518719 133.40236686390534, 1.674904806095317 134.20118343195267, 1.9241892295342924" fill="none" stroke="#32ca5b" stroke-width="1.25"/>

</svg>