<?xml version="1.0" standalone="no"?>
<!DOCTYPE svg PUBLIC "-//W3C//DTD SVG 1.1//EN" "http://www.w3.org/Graphics/SVG/1.1/DTD/svg11.dtd">

<svg width="135" height="50" viewBox="0 0 135 50" preserveAspectRatio="none" 
  xmlns="http://www.w3.org/2000/svg"
  xmlns:xlink="http://www.w3.org/1999/xlink">


<polyline points="0.0, 26.33799972152278 0.7988165680473372, 28.744517232555832 1.5976331360946745, 28.3033014135399 2.396449704142012, 30.286153741566885 3.195266272189349, 29.145525307784375 3.994082840236686, 28.26323440173837 4.792899408284024, 27.08764540600903 5.591715976331361, 27.9470126607544 6.390532544378698, 29.367645658061292 7.189349112426036, 32.085163261067564 7.988165680473372, 29.815484250079226 8.78698224852071, 28.112206687253327 9.585798816568047, 30.07160913204051 10.384615384615385, 25.40790640039506 11.183431952662723, 34.000647565907684 11.982248520710058, 38.10328040647944 12.781065088757396, 39.97038576030946 13.579881656804734, 39.559027274077245 14.378698224852071, 38.92941820555084 15.177514792899409, 36.15256537559461 15.976331360946745, 35.165629718155586 16.775147928994084, 35.02815576482533 17.57396449704142, 35.24989516516599 18.37278106508876, 34.6688950586713 19.171597633136095, 35.144384893611495 19.970414201183434, 35.88553868645685 20.76923076923077, 35.84091883415288 21.56804733727811, 35.77877937143887 22.366863905325445, 37.37309433874084 23.16568047337278, 38.47953085011782 23.964497041420117, 40.02205723252488 24.763313609467456, 40.978360303102946 25.562130177514792, 40.61844958300845 26.36094674556213, 45.18387217718934 27.159763313609467, 43.99715727592119 27.958579881656807, 44.17820694322897 28.757396449704142, 42.63630545676614 29.55621301775148, 44.37745176227861 30.355029585798817, 46.995665479921875 31.153846153846157, 45.98186262189712 31.95266272189349, 45.23200799126392 32.751479289940825, 48.27157123650407 33.55029585798817, 50.0 34.349112426035504, 48.13396057362145 35.14792899408284, 48.79480920089475 35.94674556213018, 45.22109267170709 36.74556213017752, 44.13123429472988 37.54437869822485, 42.4760336596462 38.34319526627219, 43.991862020933766 39.142011834319526, 48.354560809315444 39.94082840236687, 48.145935095196215 40.7396449704142, 46.290338811979446 41.53846153846154, 46.37085082600406 42.337278106508876, 45.24453712597617 43.13609467455622, 42.549368555318736 43.93491124260355, 40.25174425012643 44.73372781065089, 39.277654225074166 45.532544378698226, 38.552416930006736 46.33136094674556, 40.47745722516186 47.1301775147929, 40.89960048951286 47.928994082840234, 41.501626504305605 48.72781065088758, 43.861039737486564 49.52662721893491, 42.16575984323798 50.32544378698225, 42.09872572984119 51.124260355029584, 44.624197456164325 51.92307692307693, 43.47913027502406 52.72189349112426, 42.86690390176976 53.5207100591716, 43.953151444127954 54.319526627218934, 41.94527320451385 55.11834319526627, 44.88909274101209 55.91715976331361, 45.62578650924271 56.71597633136094, 46.92313711544257 57.514792899408285, 44.54809909840276 58.31360946745562, 45.30549066424398 59.11242603550296, 46.95305575171226 59.91124260355029, 47.402960915311546 60.710059171597635, 46.50879092054562 61.50887573964497, 46.571935530685636 62.307692307692314, 44.61890508130224 63.10650887573964, 46.51296757397712 63.90532544378698, 47.86795803071332 64.70414201183432, 46.76823221501219 65.50295857988165, 45.22604793020658 66.30177514792899, 45.84899048179892 67.10059171597634, 45.25302382317983 67.89940828402366, 40.05948335883369 68.69822485207101, 39.55704282617823 69.49704142011834, 35.47792119096421 70.29585798816568, 33.254673117047574 71.09467455621302, 32.98806723851505 71.89349112426036, 34.928828646219806 72.6923076923077, 35.59013680743692 73.49112426035504, 33.74587443662931 74.28994082840237, 33.02281111232413 75.0887573964497, 36.13615268929794 75.88757396449704, 37.42766570745354 76.68639053254438, 35.368820725646465 77.48520710059172, 37.08230337225536 78.28402366863905, 31.15817915939505 79.0828402366864, 27.577300564293083 79.88165680473374, 21.636308999440228 80.68047337278107, 14.090718382404981 81.4792899408284, 21.080780139107038 82.27810650887574, 14.747908565643328 83.07692307692308, 12.886311051050523 83.87573964497041, 6.551786555432752 84.67455621301775, 7.057400726058208 85.4733727810651, 0.0 86.27218934911244, 3.3486236558621116 87.07100591715975, 8.706897911825314 87.8698224852071, 13.741824020125144 88.66863905325444, 17.99813393641561 89.46745562130178, 17.09672539116245 90.26627218934911, 15.184962607790975 91.06508875739645, 15.837299161850224 91.8639053254438, 15.878084540497769 92.66272189349112, 16.845511489304847 93.46153846153845, 16.924202133250162 94.2603550295858, 18.96454929147003 95.05917159763314, 17.922174248079937 95.85798816568047, 19.482739746368683 96.65680473372781, 20.945454034242356 97.45562130177515, 22.17119233215188 98.2544378698225, 23.774399913788773 99.05325443786982, 23.742659805981152 99.85207100591715, 22.09133845350561 100.6508875739645, 20.018906336050605 101.44970414201183, 19.217528193156085 102.24852071005917, 18.965113679722386 103.04733727810651, 17.6193204181653 103.84615384615385, 18.128375318272 104.64497041420118, 17.0379390152036 105.44378698224853, 13.035064848616035 106.24260355029585, 12.48416809477563 107.0414201183432, 8.851731649926634 107.84023668639053, 19.51459495588356 108.63905325443787, 19.87496185266201 109.43786982248521, 19.128728271895863 110.23668639053254, 19.073018779085725 111.03550295857988, 18.391872469357057 111.83431952662723, 17.302418945165748 112.63313609467457, 17.56595469357957 113.43195266272188, 17.973089821724272 114.23076923076923, 17.73954235997142 115.02958579881657, 17.914917260739742 115.82840236686391, 17.85000236121321 116.62721893491124, 18.944423369461912 117.42603550295858, 18.212252370374102 118.22485207100593, 19.014946627510085 119.02366863905324, 17.788288852224586 119.82248520710058, 16.47037331485098 120.62130177514793, 18.95106434541713 121.42011834319527, 19.17559338311513 122.2189349112426, 24.023406665166696 123.01775147928994, 22.166748535937696 123.81656804733728, 22.786929228117195 124.61538461538463, 20.506168610300605 125.41420118343194, 18.282008430510444 126.21301775147928, 14.321586943178218 127.01183431952663, 13.650148514561675 127.81065088757396, 14.298593073613134 128.60946745562129, 14.145717179777304 129.40828402366864, 15.89412536919245 130.20710059171597, 15.019077502420707 131.0059171597633, 14.585703230777355 131.80473372781066, 14.418573188115252 132.60355029585799, 14.615381794262955 133.40236686390534, 14.890874553969184 134.20118343195267, 16.757397193107956" fill="none" stroke="#32ca5b" stroke-width="1.25"/>

</svg>