<?xml version="1.0" standalone="no"?>
<!DOCTYPE svg PUBLIC "-//W3C//DTD SVG 1.1//EN" "http://www.w3.org/Graphics/SVG/1.1/DTD/svg11.dtd">

<svg width="135" height="50" viewBox="0 0 135 50" preserveAspectRatio="none" 
  xmlns="http://www.w3.org/2000/svg"
  xmlns:xlink="http://www.w3.org/1999/xlink">


<polyline points="0.0, 37.85197046639902 0.7988165680473372, 38.435916387504285 1.5976331360946745, 38.6725279586402 2.396449704142012, 39.10493447510577 3.195266272189349, 39.294480541869774 3.994082840236686, 38.722752617499815 4.792899408284024, 39.2479323102883 5.591715976331361, 39.22992671850856 6.390532544378698, 38.99566944739972 7.189349112426036, 38.91899321361708 7.988165680473372, 39.324074026015694 8.78698224852071, 39.359199910570034 9.585798816568047, 39.168375023189114 10.384615384615385, 33.629098959397865 11.183431952662723, 31.23564592517688 11.982248520710058, 31.846128377761595 12.781065088757396, 30.12871029970188 13.579881656804734, 34.90508447027264 14.378698224852071, 38.405741560392265 15.177514792899409, 38.309443830456765 15.976331360946745, 37.863983331703736 16.775147928994084, 38.07326865814659 17.57396449704142, 38.058236408784154 18.37278106508876, 38.58498813113959 19.171597633136095, 36.77987805845329 19.970414201183434, 37.657164634019495 20.76923076923077, 36.38041614518291 21.56804733727811, 35.95667377037316 22.366863905325445, 36.14123720833477 23.16568047337278, 36.00670393686665 23.964497041420117, 35.76416322938725 24.763313609467456, 35.783449772997 25.562130177514792, 35.66116182597594 26.36094674556213, 35.87386817638732 27.159763313609467, 37.03917279650486 27.958579881656807, 36.643644131650596 28.757396449704142, 36.45367363499515 29.55621301775148, 35.76024993609877 30.355029585798817, 35.739460322013294 31.153846153846157, 38.4615824665556 31.95266272189349, 38.89130554984359 32.751479289940825, 38.40625589123288 33.55029585798817, 38.552044123289605 34.349112426035504, 38.79015383147827 35.14792899408284, 39.46834265224292 35.94674556213018, 39.69855221401129 36.74556213017752, 39.47880624111745 37.54437869822485, 39.24649053362204 38.34319526627219, 40.163432412527285 39.142011834319526, 40.36420019663717 39.94082840236687, 42.615133006377675 40.7396449704142, 43.46168902462371 41.53846153846154, 43.74855324240851 42.337278106508876, 43.52574837979008 43.13609467455622, 43.499981460361006 43.93491124260355, 42.29469382691061 44.73372781065089, 42.89808459919085 45.532544378698226, 42.3905567059753 46.33136094674556, 43.826990162514 47.1301775147929, 43.760589485098876 47.928994082840234, 45.44174234030214 48.72781065088758, 48.71417590613672 49.52662721893491, 49.93574695287966 50.32544378698225, 49.87551078878005 51.124260355029584, 49.524262874086645 51.92307692307693, 47.70963995713476 52.72189349112426, 48.68926456705569 53.5207100591716, 47.259369803673664 54.319526627218934, 47.35015790037031 55.11834319526627, 44.52857976585749 55.91715976331361, 45.08373632135957 56.71597633136094, 46.42093287393044 57.514792899408285, 46.303277422538905 58.31360946745562, 44.89432108067205 59.11242603550296, 46.51258028661519 59.91124260355029, 47.79040986561327 60.710059171597635, 47.021479526591634 61.50887573964497, 47.30503395549639 62.307692307692314, 47.20919872356571 63.10650887573964, 48.28682168027202 63.90532544378698, 47.95274586179102 64.70414201183432, 47.90215225646204 65.50295857988165, 48.40600949913579 66.30177514792899, 48.535906441206286 67.10059171597634, 48.95088139684689 67.89940828402366, 47.75670004437497 68.69822485207101, 48.74211351381873 69.49704142011834, 48.61478874446283 70.29585798816568, 49.838369551511775 71.09467455621302, 49.25827943606886 71.89349112426036, 48.89163298921243 72.6923076923077, 48.919721358160736 73.49112426035504, 49.42548933435297 74.28994082840237, 49.53321589980429 75.0887573964497, 49.74103913290638 75.88757396449704, 49.60482495327848 76.68639053254438, 50.0 77.48520710059172, 49.916646788770144 78.28402366863905, 49.1888600387428 79.0828402366864, 48.998320631973606 79.88165680473374, 49.32033390143079 80.68047337278107, 49.077291794056265 81.4792899408284, 49.47922543301723 82.27810650887574, 49.15200340930197 83.07692307692308, 48.67223620412171 83.87573964497041, 44.970835114717374 84.67455621301775, 36.33550322044191 85.4733727810651, 35.09929242950171 86.27218934911244, 22.568426345692757 87.07100591715975, 18.899181694091435 87.8698224852071, 19.902513234193016 88.66863905325444, 24.228640799135434 89.46745562130178, 27.45226232577309 90.26627218934911, 26.92044815390018 91.06508875739645, 25.90029754320704 91.8639053254438, 25.588561311366355 92.66272189349112, 24.85474573857738 93.46153846153845, 30.22764625798876 94.2603550295858, 30.110150382880498 95.05917159763314, 30.34834562317752 95.85798816568047, 28.879920592284552 96.65680473372781, 29.674974770448852 97.45562130177515, 29.7595205957292 98.2544378698225, 29.001115118390665 99.05325443786982, 28.326749302383693 99.85207100591715, 24.616484056707264 100.6508875739645, 21.424258916989295 101.44970414201183, 13.170645971772432 102.24852071005917, 11.569706599115566 103.04733727810651, 10.31706461610948 103.84615384615385, 6.690584364019313 104.64497041420118, 7.153943395230507 105.44378698224853, 10.790936502517114 106.24260355029585, 11.530596270733149 107.0414201183432, 15.35063124328786 107.84023668639053, 13.948114118096342 108.63905325443787, 11.10380382756477 109.43786982248521, 12.148815078636952 110.23668639053254, 12.383652708264666 111.03550295857988, 10.878990450373792 111.83431952662723, 11.612015900309501 112.63313609467457, 11.394442295632189 113.43195266272188, 11.819924480463378 114.23076923076923, 12.315807557458971 115.02958579881657, 13.571881565622492 115.82840236686391, 15.917484429631646 116.62721893491124, 21.20683821251019 117.42603550295858, 23.780241898794465 118.22485207100593, 24.734638837406226 119.02366863905324, 24.84530477258911 119.82248520710058, 25.19626569435133 120.62130177514793, 24.842817324476744 121.42011834319527, 23.863426186033255 122.2189349112426, 22.708564868670777 123.01775147928994, 24.483579475519345 123.81656804733728, 22.866240840283997 124.61538461538463, 22.607777978727608 125.41420118343194, 27.004061272305407 126.21301775147928, 26.490135170813 127.01183431952663, 25.725902418916302 127.81065088757396, 23.91052561988421 128.60946745562129, 23.226326512912728 129.40828402366864, 11.33296176812379 130.20710059171597, 11.560516947615525 131.0059171597633, 11.721566690052478 131.80473372781066, 12.193377979340145 132.60355029585799, 11.205115214957106 133.40236686390534, 8.759913597888795 134.20118343195267, 0.0" fill="none" stroke="#32ca5b" stroke-width="1.25"/>

</svg>