<?xml version="1.0" standalone="no"?>
<!DOCTYPE svg PUBLIC "-//W3C//DTD SVG 1.1//EN" "http://www.w3.org/Graphics/SVG/1.1/DTD/svg11.dtd">

<svg width="135" height="50" viewBox="0 0 135 50" preserveAspectRatio="none" 
  xmlns="http://www.w3.org/2000/svg"
  xmlns:xlink="http://www.w3.org/1999/xlink">


<polyline points="0.0, 20.327791181581553 0.7988165680473372, 25.606089297130367 1.5976331360946745, 26.921301667737602 2.396449704142012, 24.229703259172574 3.195266272189349, 16.340970658982513 3.994082840236686, 13.423864589694363 4.792899408284024, 13.947172891651737 5.591715976331361, 8.670232985674723 6.390532544378698, 7.728593651161277 7.189349112426036, 6.845460460733242 7.988165680473372, 14.265895212948386 8.78698224852071, 1.9749052214107647 9.585798816568047, 12.986678147043534 10.384615384615385, 6.011896071718384 11.183431952662723, 17.150087169171783 11.982248520710058, 16.03380916153221 12.781065088757396, 14.014863170471015 13.579881656804734, 20.20327072480405 14.378698224852071, 17.867789814042258 15.177514792899409, 19.51659830324878 15.976331360946745, 19.02825546574853 16.775147928994084, 9.433035175497292 17.57396449704142, 16.891300761349882 18.37278106508876, 16.22660138671696 19.171597633136095, 15.907449814974445 19.970414201183434, 16.559884025794293 20.76923076923077, 16.81160071464584 21.56804733727811, 16.799795211355164 22.366863905325445, 17.261654248081115 23.16568047337278, 10.337400821944577 23.964497041420117, 13.07229373553653 24.763313609467456, 21.557478378779333 25.562130177514792, 21.889277318228423 26.36094674556213, 23.212902009888236 27.159763313609467, 23.267320875948375 27.958579881656807, 22.850578467234254 28.757396449704142, 22.793921245728967 29.55621301775148, 22.178996031056762 30.355029585798817, 15.558065801728963 31.153846153846157, 14.6820949205274 31.95266272189349, 14.790714783132117 32.751479289940825, 21.323796561637185 33.55029585798817, 19.07151431939021 34.349112426035504, 19.91675092117061 35.14792899408284, 22.532125670368597 35.94674556213018, 22.855930729069602 36.74556213017752, 19.446274511743198 37.54437869822485, 25.817067053066133 38.34319526627219, 20.386511286071155 39.142011834319526, 21.159528746013166 39.94082840236687, 21.334446018433113 40.7396449704142, 12.919351880336762 41.53846153846154, 17.730756904634692 42.337278106508876, 22.035716568270004 43.13609467455622, 21.798192784381822 43.93491124260355, 15.477322072756394 44.73372781065089, 14.069451656282395 45.532544378698226, 17.556367410452946 46.33136094674556, 22.47066498858792 47.1301775147929, 25.707175431504613 47.928994082840234, 25.525335503335032 48.72781065088758, 28.714862101644485 49.52662721893491, 24.66790133945308 50.32544378698225, 17.535182921272625 51.124260355029584, 28.486353114755914 51.92307692307693, 26.720346298658125 52.72189349112426, 29.768524073831276 53.5207100591716, 32.64767267839694 54.319526627218934, 0.0 55.11834319526627, 8.180189479998774 55.91715976331361, 4.408759553020515 56.71597633136094, 1.8242315233195066 57.514792899408285, 9.20987860386445 58.31360946745562, 10.337481884191767 59.11242603550296, 7.475390484965735 59.91124260355029, 8.113883876087344 60.710059171597635, 19.77937214821644 61.50887573964497, 28.30526892130014 62.307692307692314, 27.78363806087027 63.10650887573964, 28.039850666398664 63.90532544378698, 28.095378401402726 64.70414201183432, 32.801736289222134 65.50295857988165, 26.062424196727097 66.30177514792899, 28.190479399108582 67.10059171597634, 27.89705520928224 67.89940828402366, 35.35004653542085 68.69822485207101, 34.5523521466087 69.49704142011834, 36.333961420035635 70.29585798816568, 35.22961842631673 71.09467455621302, 35.128511223698695 71.89349112426036, 33.92566060929653 72.6923076923077, 36.33708445474998 73.49112426035504, 31.237298395077453 74.28994082840237, 31.058462780771702 75.0887573964497, 32.53815979239029 75.88757396449704, 32.15400864038558 76.68639053254438, 32.22077339837759 77.48520710059172, 35.93898368455572 78.28402366863905, 40.12790833434737 79.0828402366864, 35.69567669004014 79.88165680473374, 23.449712749322075 80.68047337278107, 20.97451084851364 81.4792899408284, 15.2396169310982 82.27810650887574, 10.196939178807844 83.07692307692308, 12.371214062222371 83.87573964497041, 50.0 84.67455621301775, 46.484838353249124 85.4733727810651, 49.79704244872572 86.27218934911244, 45.74885966322467 87.07100591715975, 42.0982655302301 87.8698224852071, 41.73906662827229 88.66863905325444, 39.88422966369558 89.46745562130178, 40.97561688274903 90.26627218934911, 37.27639079763979 91.06508875739645, 34.64890141510457 91.8639053254438, 38.10108515111058 92.66272189349112, 40.62072983773994 93.46153846153845, 39.401145693331486 94.2603550295858, 41.73772787716821 95.05917159763314, 37.54723890176441 95.85798816568047, 38.05932372779587 96.65680473372781, 35.080891034768065 97.45562130177515, 37.11095461397889 98.2544378698225, 32.219249455750905 99.05325443786982, 35.56980417909067 99.85207100591715, 27.60328431084677 100.6508875739645, 34.47191507761037 101.44970414201183, 43.759364539464045 102.24852071005917, 46.70232542342247 103.04733727810651, 36.73803897711885 103.84615384615385, 30.107233010520112 104.64497041420118, 34.55141452247232 105.44378698224853, 32.261711097094434 106.24260355029585, 29.4963958657855 107.0414201183432, 31.083566447257233 107.84023668639053, 32.347149280308145 108.63905325443787, 32.35501919108481 109.43786982248521, 29.098052397652836 110.23668639053254, 27.4597919781161 111.03550295857988, 23.830668152510786 111.83431952662723, 18.590734030616442 112.63313609467457, 14.224218631046417 113.43195266272188, 18.260847494179423 114.23076923076923, 16.976382917930007 115.02958579881657, 15.45241832450152 115.82840236686391, 8.438946948002354 116.62721893491124, 11.474505562482205 117.42603550295858, 6.674782668072626 118.22485207100593, 44.44760468052072 119.02366863905324, 45.09182548106902 119.82248520710058, 43.154018428923685 120.62130177514793, 41.52088729301875 121.42011834319527, 39.9432145274586 122.2189349112426, 43.16764878410619 123.01775147928994, 38.59148554479954 123.81656804733728, 34.98381019487351 124.61538461538463, 32.317719052243746 125.41420118343194, 23.45070323912938 126.21301775147928, 23.074066665460062 127.01183431952663, 9.357779862319568 127.81065088757396, 9.720187593847204 128.60946745562129, 8.878424755536422 129.40828402366864, 14.283338070690743 130.20710059171597, 6.8797492076441 131.0059171597633, 29.936433263455363 131.80473372781066, 34.329232021588474 132.60355029585799, 25.356805797522487 133.40236686390534, 23.475011154878274 134.20118343195267, 22.245029670063484" fill="none" stroke="#ff3a33" stroke-width="1.25"/>

</svg>