<?xml version="1.0" standalone="no"?>
<!DOCTYPE svg PUBLIC "-//W3C//DTD SVG 1.1//EN" "http://www.w3.org/Graphics/SVG/1.1/DTD/svg11.dtd">

<svg width="135" height="50" viewBox="0 0 135 50" preserveAspectRatio="none" 
  xmlns="http://www.w3.org/2000/svg"
  xmlns:xlink="http://www.w3.org/1999/xlink">


<polyline points="0.0, 38.179359320366565 0.7988165680473372, 20.019038519639416 1.5976331360946745, 6.4919440544630085 2.396449704142012, 0.0 3.195266272189349, 28.552387967753383 3.994082840236686, 35.38073686159404 4.792899408284024, 17.110119044877234 5.591715976331361, 47.81716203496869 6.390532544378698, 32.76850539573617 7.189349112426036, 27.83470947087434 7.988165680473372, 30.83957996947813 8.78698224852071, 16.065614727984563 9.585798816568047, 33.475276890190344 10.384615384615385, 31.740511401739795 11.183431952662723, 10.051075987995858 11.982248520710058, 24.766540144650637 12.781065088757396, 29.6865179168664 13.579881656804734, 26.20366998920852 14.378698224852071, 21.575737325519853 15.177514792899409, 40.50083264177577 15.976331360946745, 39.72304539927017 16.775147928994084, 10.940188072893747 17.57396449704142, 30.522416748737687 18.37278106508876, 23.672791143317728 19.171597633136095, 1.9252794832045779 19.970414201183434, 21.06616322833064 20.76923076923077, 41.08754417554458 21.56804733727811, 16.03161963517211 22.366863905325445, 16.356191432872855 23.16568047337278, 16.849232878731105 23.964497041420117, 17.836242328968943 24.763313609467456, 9.622989701338597 25.562130177514792, 39.00901301892446 26.36094674556213, 26.16616977723214 27.159763313609467, 15.691025507289021 27.958579881656807, 26.373760312602172 28.757396449704142, 34.843700107424816 29.55621301775148, 31.107784670016052 30.355029585798817, 37.78273531479396 31.153846153846157, 34.46630938087424 31.95266272189349, 34.29039149280598 32.751479289940825, 23.896430587687522 33.55029585798817, 26.647622153855778 34.349112426035504, 36.92135735114945 35.14792899408284, 27.367938787627473 35.94674556213018, 32.05568172109367 36.74556213017752, 7.105564196830234 37.54437869822485, 8.382301149109034 38.34319526627219, 31.526730928822786 39.142011834319526, 38.4253715979157 39.94082840236687, 39.247509107434176 40.7396449704142, 36.01624673138313 41.53846153846154, 34.404730049882104 42.337278106508876, 38.91039552673662 43.13609467455622, 38.37781878413675 43.93491124260355, 30.292754472658164 44.73372781065089, 33.16255861377553 45.532544378698226, 30.378847466352415 46.33136094674556, 20.05450183396306 47.1301775147929, 32.12005828371275 47.928994082840234, 32.349329093975854 48.72781065088758, 31.12648602408768 49.52662721893491, 23.022514556456183 50.32544378698225, 43.22674490600218 51.124260355029584, 50.0 51.92307692307693, 36.86465111160998 52.72189349112426, 33.72282560497196 53.5207100591716, 7.1830956426771255 54.319526627218934, 40.170127655591834 55.11834319526627, 33.80892940199592 55.91715976331361, 17.762563846732633 56.71597633136094, 23.712022798436188 57.514792899408285, 23.74672291843389 58.31360946745562, 9.717778352952102 59.11242603550296, 49.61180251472964 59.91124260355029, 32.790606690573156 60.710059171597635, 29.64466374213207 61.50887573964497, 47.74403055831802 62.307692307692314, 18.63798009160261 63.10650887573964, 15.105659460756913 63.90532544378698, 22.925215988918414 64.70414201183432, 32.21017282338818 65.50295857988165, 4.27937181478479 66.30177514792899, 20.206462690600098 67.10059171597634, 12.68950738806193 67.89940828402366, 38.603178104410695 68.69822485207101, 38.89127820794519 69.49704142011834, 38.46374890315606 70.29585798816568, 24.01008233719889 71.09467455621302, 17.429316443562985 71.89349112426036, 14.438074612063465 72.6923076923077, 11.448265708675525 73.49112426035504, 40.67969750701044 74.28994082840237, 41.313969630191245 75.0887573964497, 35.64844697394973 75.88757396449704, 22.267044523975954 76.68639053254438, 17.72589122222474 77.48520710059172, 25.766042843389396 78.28402366863905, 12.709279918188706 79.0828402366864, 16.909060053107233 79.88165680473374, 14.476011567428571 80.68047337278107, 41.559819593418354 81.4792899408284, 30.971594264651202 82.27810650887574, 37.62015174345753 83.07692307692308, 38.48347621896858 83.87573964497041, 14.212442505596204 84.67455621301775, 10.543172213416534 85.4733727810651, 13.771175030471214 86.27218934911244, 29.476667651539973 87.07100591715975, 38.226639783760874 87.8698224852071, 37.138557015942055 88.66863905325444, 31.14033710714595 89.46745562130178, 39.093807597227624 90.26627218934911, 13.563750773316002 91.06508875739645, 1.3312319557822736 91.8639053254438, 38.156311343829366 92.66272189349112, 27.090018704662604 93.46153846153845, 25.357670977038893 94.2603550295858, 4.306757933638702 95.05917159763314, 12.448932476779511 95.85798816568047, 14.311949687842665 96.65680473372781, 38.221436515632426 97.45562130177515, 43.632009844554176 98.2544378698225, 44.05516600105816 99.05325443786982, 35.322485145563995 99.85207100591715, 9.541309752968512 100.6508875739645, 9.180861060365373 101.44970414201183, 16.147353141190063 102.24852071005917, 15.191812815023322 103.04733727810651, 16.423342391197636 103.84615384615385, 16.496220872659162 104.64497041420118, 31.940969053792283 105.44378698224853, 36.40170022229182 106.24260355029585, 38.1349172251975 107.0414201183432, 29.55127524681227 107.84023668639053, 22.050244094093983 108.63905325443787, 28.83714601226288 109.43786982248521, 24.64195661594501 110.23668639053254, 27.290358819134642 111.03550295857988, 18.218726004322907 111.83431952662723, 30.225866084733095 112.63313609467457, 25.556383508578023 113.43195266272188, 23.992197777805128 114.23076923076923, 23.853257951932562 115.02958579881657, 27.062725211308962 115.82840236686391, 32.53596654010645 116.62721893491124, 27.851330298033865 117.42603550295858, 25.254598156045 118.22485207100593, 25.10941158725505 119.02366863905324, 20.115069064782283 119.82248520710058, 16.777037317985123 120.62130177514793, 38.52565780895753 121.42011834319527, 38.34363401797683 122.2189349112426, 42.369280345494204 123.01775147928994, 47.17970703467308 123.81656804733728, 25.72698135880369 124.61538461538463, 24.10582283642608 125.41420118343194, 23.36409368541506 126.21301775147928, 37.961522482108926 127.01183431952663, 29.110093995396667 127.81065088757396, 25.666736368130515 128.60946745562129, 37.679841925659865 129.40828402366864, 29.418906535057783 130.20710059171597, 31.17603415403823 131.0059171597633, 36.62590074174615 131.80473372781066, 15.167809614586384 132.60355029585799, 17.3067591808434 133.40236686390534, 35.37611028478288 134.20118343195267, 36.35039852051084" fill="none" stroke="#32ca5b" stroke-width="1.25"/>

</svg>