<?xml version="1.0" standalone="no"?>
<!DOCTYPE svg PUBLIC "-//W3C//DTD SVG 1.1//EN" "http://www.w3.org/Graphics/SVG/1.1/DTD/svg11.dtd">

<svg width="135" height="50" viewBox="0 0 135 50" preserveAspectRatio="none" 
  xmlns="http://www.w3.org/2000/svg"
  xmlns:xlink="http://www.w3.org/1999/xlink">


<polyline points="0.0, 0.0 0.7988165680473372, 9.584141572996709 1.5976331360946745, 5.434891599432523 2.396449704142012, 8.061951647952782 3.195266272189349, 7.048013422491863 3.994082840236686, 6.841892521256225 4.792899408284024, 3.8869570338671826 5.591715976331361, 7.676045068677693 6.390532544378698, 11.484115881460333 7.189349112426036, 14.807353802139378 7.988165680473372, 9.439789091702727 8.78698224852071, 6.292803088510432 9.585798816568047, 8.035238727569723 10.384615384615385, 0.6076224360981788 11.183431952662723, 11.07927650857784 11.982248520710058, 20.72675252801873 12.781065088757396, 29.380174044179864 13.579881656804734, 24.91038545205783 14.378698224852071, 20.273858366772977 15.177514792899409, 14.073439424556724 15.976331360946745, 15.883617178306904 16.775147928994084, 14.52974598706494 17.57396449704142, 9.681599928159956 18.37278106508876, 8.281794521282832 19.171597633136095, 14.504756741164432 19.970414201183434, 16.75694437949547 20.76923076923077, 19.61007417852361 21.56804733727811, 19.069675474737092 22.366863905325445, 23.415726318335036 23.16568047337278, 25.9412106285288 23.964497041420117, 26.065839516146305 24.763313609467456, 29.046722186386553 25.562130177514792, 24.371002828165185 26.36094674556213, 37.02292778946901 27.159763313609467, 33.35550469103967 27.958579881656807, 38.68012327193466 28.757396449704142, 32.90898599751378 29.55621301775148, 36.18039092071759 30.355029585798817, 38.70950805088456 31.153846153846157, 38.70383282348973 31.95266272189349, 36.98733765777713 32.751479289940825, 40.45057247677569 33.55029585798817, 45.00501387422143 34.349112426035504, 40.94918760790249 35.14792899408284, 43.18590211730395 35.94674556213018, 34.84437126957234 36.74556213017752, 32.26850357797878 37.54437869822485, 30.65329184114892 38.34319526627219, 38.36307181551368 39.142011834319526, 46.28052912026339 39.94082840236687, 42.81606689379725 40.7396449704142, 39.83487080036298 41.53846153846154, 39.7046810797002 42.337278106508876, 35.32779574696827 43.13609467455622, 30.328554129988262 43.93491124260355, 30.03407194680357 44.73372781065089, 27.166585511462905 45.532544378698226, 23.965799126495885 46.33136094674556, 30.342597869977396 47.1301775147929, 30.826258824568104 47.928994082840234, 33.0249818524866 48.72781065088758, 38.40752179189712 49.52662721893491, 35.496151163846456 50.32544378698225, 35.35435725331646 51.124260355029584, 38.18327481749747 51.92307692307693, 37.50736079304313 52.72189349112426, 30.61806206082352 53.5207100591716, 34.42982917297598 54.319526627218934, 30.42737258372248 55.11834319526627, 35.41341774248682 55.91715976331361, 38.16540338033217 56.71597633136094, 40.83991039883229 57.514792899408285, 40.24403839571627 58.31360946745562, 43.53980212000345 59.11242603550296, 44.54393133354333 59.91124260355029, 46.08070221657336 60.710059171597635, 44.63209412829931 61.50887573964497, 46.86457368269588 62.307692307692314, 40.87785550435239 63.10650887573964, 46.51999337159991 63.90532544378698, 49.58425315836858 64.70414201183432, 46.701573424102286 65.50295857988165, 41.2626245735226 66.30177514792899, 42.558677612132264 67.10059171597634, 44.285155096119695 67.89940828402366, 42.55706465204199 68.69822485207101, 38.587909087187136 69.49704142011834, 41.377970034669865 70.29585798816568, 42.75951116709 71.09467455621302, 40.326631636108665 71.89349112426036, 44.145281669414736 72.6923076923077, 40.21937760104327 73.49112426035504, 38.247976561441575 74.28994082840237, 41.829599343197394 75.0887573964497, 45.309528481253096 75.88757396449704, 43.665877073220834 76.68639053254438, 42.50794239133401 77.48520710059172, 50.0 78.28402366863905, 47.36987011329916 79.0828402366864, 44.380537763682995 79.88165680473374, 43.23066852638558 80.68047337278107, 41.40937721153346 81.4792899408284, 41.55873437627907 82.27810650887574, 38.58765641929535 83.07692307692308, 41.905827061618666 83.87573964497041, 37.60176168206969 84.67455621301775, 40.2899069088048 85.4733727810651, 35.691625815498156 86.27218934911244, 37.10582344897303 87.07100591715975, 37.89168395605504 87.8698224852071, 39.802504188016286 88.66863905325444, 39.90243294992309 89.46745562130178, 37.318207273006585 90.26627218934911, 33.90647033035664 91.06508875739645, 35.77084255809477 91.8639053254438, 35.452636823952055 92.66272189349112, 36.29645046867987 93.46153846153845, 36.73127228966717 94.2603550295858, 35.868914407324255 95.05917159763314, 34.01145590751594 95.85798816568047, 37.527746412332874 96.65680473372781, 33.912107518397086 97.45562130177515, 33.29004393337208 98.2544378698225, 34.13122249168636 99.05325443786982, 35.734810355817466 99.85207100591715, 33.81594162915636 100.6508875739645, 33.115078850780336 101.44970414201183, 33.959164995642475 102.24852071005917, 36.94448674285298 103.04733727810651, 37.228309277584046 103.84615384615385, 34.22920839465907 104.64497041420118, 33.808491497300984 105.44378698224853, 32.67739680755891 106.24260355029585, 35.12537885286407 107.0414201183432, 33.289091896438876 107.84023668639053, 34.958036876982675 108.63905325443787, 35.903225693412914 109.43786982248521, 31.94700709571895 110.23668639053254, 30.249708776023272 111.03550295857988, 22.714135816721864 111.83431952662723, 22.984187990433444 112.63313609467457, 21.042439127265432 113.43195266272188, 20.637532514727415 114.23076923076923, 20.11430917507131 115.02958579881657, 20.138244629977464 115.82840236686391, 23.476056214848047 116.62721893491124, 27.24514438855865 117.42603550295858, 24.070199705436654 118.22485207100593, 24.505196298308203 119.02366863905324, 26.672551611602728 119.82248520710058, 23.89745574096506 120.62130177514793, 30.12605874567374 121.42011834319527, 28.77146784556006 122.2189349112426, 37.09660440974161 123.01775147928994, 33.70585130381143 123.81656804733728, 33.51151400047809 124.61538461538463, 32.93387837907603 125.41420118343194, 34.79121237764587 126.21301775147928, 28.595200746917282 127.01183431952663, 23.27270221646368 127.81065088757396, 20.862066529711036 128.60946745562129, 16.641102342953822 129.40828402366864, 21.745340278782376 130.20710059171597, 16.603358407761487 131.0059171597633, 17.28277356064568 131.80473372781066, 16.004050582915948 132.60355029585799, 18.587144344311433 133.40236686390534, 18.495126909165325 134.20118343195267, 9.501582840367654" fill="none" stroke="#ff3a33" stroke-width="1.25"/>

</svg>