<?xml version="1.0" standalone="no"?>
<!DOCTYPE svg PUBLIC "-//W3C//DTD SVG 1.1//EN" "http://www.w3.org/Graphics/SVG/1.1/DTD/svg11.dtd">

<svg width="135" height="50" viewBox="0 0 135 50" preserveAspectRatio="none" 
  xmlns="http://www.w3.org/2000/svg"
  xmlns:xlink="http://www.w3.org/1999/xlink">


<polyline points="0.0, 41.47276239170035 0.7988165680473372, 37.707127381985565 1.5976331360946745, 37.00316672978984 2.396449704142012, 37.96529674597189 3.195266272189349, 33.3225549069927 3.994082840236686, 35.07806175470571 4.792899408284024, 33.62351183647633 5.591715976331361, 35.8837935640896 6.390532544378698, 35.11655849180808 7.189349112426036, 38.42571460606795 7.988165680473372, 34.74458030320303 8.78698224852071, 32.86073466685776 9.585798816568047, 35.433080785209555 10.384615384615385, 34.11778841088989 11.183431952662723, 39.79958804033918 11.982248520710058, 42.94967852238043 12.781065088757396, 42.30336381730627 13.579881656804734, 44.254447058197215 14.378698224852071, 41.59629337937402 15.177514792899409, 39.019773294489454 15.976331360946745, 38.35847828694478 16.775147928994084, 37.06715696195616 17.57396449704142, 35.73972540787593 18.37278106508876, 36.31198732882695 19.171597633136095, 38.076610550531036 19.970414201183434, 35.609415586818564 20.76923076923077, 33.96967298907996 21.56804733727811, 32.205439420671446 22.366863905325445, 31.77655246238938 23.16568047337278, 36.562673077710315 23.964497041420117, 35.64379028635059 24.763313609467456, 37.547163270346026 25.562130177514792, 37.30409924462006 26.36094674556213, 44.50129636416369 27.159763313609467, 43.37512205704297 27.958579881656807, 41.840328321169636 28.757396449704142, 21.33542441989832 29.55621301775148, 32.11995711054219 30.355029585798817, 29.540863559122798 31.153846153846157, 29.10893070281886 31.95266272189349, 29.924697281213813 32.751479289940825, 31.893543200963926 33.55029585798817, 30.674080885232108 34.349112426035504, 27.927490617477822 35.14792899408284, 27.39588132918378 35.94674556213018, 26.07578959754789 36.74556213017752, 20.017958053913194 37.54437869822485, 19.60444696776844 38.34319526627219, 0.0 39.142011834319526, 5.979502529705752 39.94082840236687, 4.926869314691877 40.7396449704142, 6.849073996577074 41.53846153846154, 3.9416127771568603 42.337278106508876, 6.3049787002286415 43.13609467455622, 25.938364824803145 43.93491124260355, 23.91743979439885 44.73372781065089, 25.074661522654 45.532544378698226, 24.75958564169857 46.33136094674556, 23.999785956064628 47.1301775147929, 26.901566070079923 47.928994082840234, 28.474683977593802 48.72781065088758, 31.77113095453679 49.52662721893491, 32.44977843715866 50.32544378698225, 31.30430404053571 51.124260355029584, 33.495643765126424 51.92307692307693, 31.581886945047643 52.72189349112426, 30.514072775045804 53.5207100591716, 30.191769605500358 54.319526627218934, 28.257230503051034 55.11834319526627, 30.954593096648807 55.91715976331361, 31.50038747327095 56.71597633136094, 32.85929285669773 57.514792899408285, 38.596874399739015 58.31360946745562, 36.08190272059114 59.11242603550296, 36.40066784811848 59.91124260355029, 39.519022450586085 60.710059171597635, 40.45717076901115 61.50887573964497, 40.7659051636542 62.307692307692314, 38.731362797761925 63.10650887573964, 41.630796636855216 63.90532544378698, 41.56937927004442 64.70414201183432, 41.7701355018776 65.50295857988165, 39.129363926605855 66.30177514792899, 39.812166483591376 67.10059171597634, 42.04200714917634 67.89940828402366, 41.675858441417724 68.69822485207101, 40.85026717884525 69.49704142011834, 42.67212583810913 70.29585798816568, 42.00809054535837 71.09467455621302, 41.08788419899162 71.89349112426036, 42.52760167542508 72.6923076923077, 41.92375331350319 73.49112426035504, 41.62548403613345 74.28994082840237, 42.39386851835603 75.0887573964497, 43.521966799161376 75.88757396449704, 44.27527652395263 76.68639053254438, 45.50256310172745 77.48520710059172, 49.55785905245673 78.28402366863905, 48.683203470858835 79.0828402366864, 47.21675615525153 79.88165680473374, 45.79076908240973 80.68047337278107, 45.38038295064176 81.4792899408284, 46.34774772098805 82.27810650887574, 46.41980218792499 83.07692307692308, 47.560319650443 83.87573964497041, 46.058596350373904 84.67455621301775, 44.85543029239092 85.4733727810651, 44.7379495463956 86.27218934911244, 45.1128904504154 87.07100591715975, 43.566860901607406 87.8698224852071, 45.51041104384843 88.66863905325444, 44.724715557783426 89.46745562130178, 44.343063189230996 90.26627218934911, 44.000547810227616 91.06508875739645, 44.6978553487837 91.8639053254438, 44.63950418051183 92.66272189349112, 44.725803655331624 93.46153846153845, 45.16962918717711 94.2603550295858, 44.766642485772614 95.05917159763314, 44.23166431733639 95.85798816568047, 45.60341445185196 96.65680473372781, 45.580304831978744 97.45562130177515, 46.476225405545485 98.2544378698225, 46.55581285873567 99.05325443786982, 47.11550637196198 99.85207100591715, 47.245171411660706 100.6508875739645, 46.93213727323572 101.44970414201183, 48.03706190433892 102.24852071005917, 49.11864295811999 103.04733727810651, 48.25304794640332 103.84615384615385, 48.141954215775165 104.64497041420118, 47.75866256791698 105.44378698224853, 45.57492448598413 106.24260355029585, 45.07027303455152 107.0414201183432, 44.6098808426716 107.84023668639053, 45.31458308934769 108.63905325443787, 44.64127908078306 109.43786982248521, 44.06121336001644 110.23668639053254, 42.55156472268638 111.03550295857988, 42.172773850688785 111.83431952662723, 42.751483745743606 112.63313609467457, 42.47487198545267 113.43195266272188, 43.099414959519024 114.23076923076923, 44.194356264467835 115.02958579881657, 44.19802893973234 115.82840236686391, 45.004899076538734 116.62721893491124, 45.03232577998793 117.42603550295858, 45.31884546038499 118.22485207100593, 44.02508534637128 119.02366863905324, 43.18416899020707 119.82248520710058, 42.4091438357169 120.62130177514793, 44.09122078890887 121.42011834319527, 43.61519780605116 122.2189349112426, 50.0 123.01775147928994, 48.113362805699126 123.81656804733728, 48.88828615512019 124.61538461538463, 47.66853033296011 125.41420118343194, 45.86187996104357 126.21301775147928, 44.603798710963034 127.01183431952663, 41.15358384921299 127.81065088757396, 40.362487617057965 128.60946745562129, 39.673695478403495 129.40828402366864, 39.44155431388883 130.20710059171597, 38.53148098188879 131.0059171597633, 39.389573156775995 131.80473372781066, 39.26449930287152 132.60355029585799, 39.735890691817104 133.40236686390534, 40.1236667278425 134.20118343195267, 39.471546040876696" fill="none" stroke="#32ca5b" stroke-width="1.25"/>

</svg>