<?xml version="1.0" standalone="no"?>
<!DOCTYPE svg PUBLIC "-//W3C//DTD SVG 1.1//EN" "http://www.w3.org/Graphics/SVG/1.1/DTD/svg11.dtd">

<svg width="135" height="50" viewBox="0 0 135 50" preserveAspectRatio="none" 
  xmlns="http://www.w3.org/2000/svg"
  xmlns:xlink="http://www.w3.org/1999/xlink">


<polyline points="0.0, 27.69832189668948 0.7988165680473372, 28.74137796457034 1.5976331360946745, 27.090141732368416 2.396449704142012, 29.948775100988527 3.195266272189349, 31.244089697685197 3.994082840236686, 29.091404347832032 4.792899408284024, 30.07768834020342 5.591715976331361, 29.65824167212502 6.390532544378698, 31.733367868857222 7.189349112426036, 35.718895670814206 7.988165680473372, 32.00971305106681 8.78698224852071, 30.914007815926585 9.585798816568047, 33.31968073347252 10.384615384615385, 33.02154948707475 11.183431952662723, 39.852252307503434 11.982248520710058, 44.81366298561524 12.781065088757396, 47.58804530790292 13.579881656804734, 46.62761212043448 14.378698224852071, 45.204609611382615 15.177514792899409, 42.629198929493725 15.976331360946745, 41.53661568257172 16.775147928994084, 38.52000433470952 17.57396449704142, 38.16750445450243 18.37278106508876, 39.72882188771444 19.171597633136095, 38.569675597897024 19.970414201183434, 39.19796423666014 20.76923076923077, 39.73278611551024 21.56804733727811, 39.0714843410057 22.366863905325445, 40.31929698820239 23.16568047337278, 39.175678523570184 23.964497041420117, 41.79005145017836 24.763313609467456, 42.578893610210066 25.562130177514792, 42.27224998446608 26.36094674556213, 47.99547309189927 27.159763313609467, 46.47430984313516 27.958579881656807, 48.46621470774119 28.757396449704142, 43.363377364603146 29.55621301775148, 46.556434675671966 30.355029585798817, 50.0 31.153846153846157, 48.19560210383107 31.95266272189349, 45.264726339644945 32.751479289940825, 48.23903164700557 33.55029585798817, 48.95522563746027 34.349112426035504, 47.71210061698504 35.14792899408284, 46.65924011546031 35.94674556213018, 43.24190405087238 36.74556213017752, 41.48028809828217 37.54437869822485, 41.01391534659167 38.34319526627219, 41.53469056556916 39.142011834319526, 45.417620596712595 39.94082840236687, 45.04820913596393 40.7396449704142, 43.01927837776668 41.53846153846154, 41.919002935381975 42.337278106508876, 40.83929800473111 43.13609467455622, 38.15811983041253 43.93491124260355, 35.45424969104361 44.73372781065089, 31.449319922318566 45.532544378698226, 29.750359219454232 46.33136094674556, 30.95999805347788 47.1301775147929, 31.66213323456069 47.928994082840234, 30.563887786539578 48.72781065088758, 33.55025737328659 49.52662721893491, 31.40025915463034 50.32544378698225, 29.88315714383693 51.124260355029584, 28.899626995460537 51.92307692307693, 25.907694096524537 52.72189349112426, 22.990420664844486 53.5207100591716, 14.005107803577504 54.319526627218934, 0.0 55.11834319526627, 11.148020951942799 55.91715976331361, 20.5315115767045 56.71597633136094, 24.76969404669706 57.514792899408285, 22.08672123712163 58.31360946745562, 22.510422155417466 59.11242603550296, 25.73309121974309 59.91124260355029, 27.52244200057911 60.710059171597635, 26.948069538360986 61.50887573964497, 29.0547036066394 62.307692307692314, 28.321584268240326 63.10650887573964, 30.5570550358924 63.90532544378698, 32.133439247078485 64.70414201183432, 31.844578208360275 65.50295857988165, 29.189521083341653 66.30177514792899, 28.88799518905256 67.10059171597634, 31.046627206863022 67.89940828402366, 28.99670283710326 68.69822485207101, 26.00199340410177 69.49704142011834, 30.158209075568525 70.29585798816568, 30.278155875676305 71.09467455621302, 26.011399989041827 71.89349112426036, 27.324748703969874 72.6923076923077, 26.983636971371368 73.49112426035504, 24.470337825884418 74.28994082840237, 27.341248656851036 75.0887573964497, 30.59336198465373 75.88757396449704, 31.121429325262582 76.68639053254438, 30.735680238792266 77.48520710059172, 36.37805668439433 78.28402366863905, 33.737421385414905 79.0828402366864, 32.11786663315535 79.88165680473374, 30.876972980529377 80.68047337278107, 30.134030123752904 81.4792899408284, 29.628680829089205 82.27810650887574, 27.846747155944556 83.07692307692308, 29.526947449763917 83.87573964497041, 28.29909958604909 84.67455621301775, 30.44620607932113 85.4733727810651, 29.795048749332025 86.27218934911244, 31.407277024214675 87.07100591715975, 29.053692741024207 87.8698224852071, 30.04684150351311 88.66863905325444, 30.439117889418117 89.46745562130178, 27.306900318029104 90.26627218934911, 25.37458487865057 91.06508875739645, 26.46959767526872 91.8639053254438, 27.371374303639186 92.66272189349112, 27.6169169507728 93.46153846153845, 27.919970084530675 94.2603550295858, 29.107445617895273 95.05917159763314, 28.899455440981153 95.85798816568047, 28.821032260181006 96.65680473372781, 26.81807217270695 97.45562130177515, 27.795562358160385 98.2544378698225, 29.754453064313246 99.05325443786982, 30.142052624400677 99.85207100591715, 28.93262173536738 100.6508875739645, 27.825750905658612 101.44970414201183, 28.319570163073664 102.24852071005917, 30.136146231947215 103.04733727810651, 30.595082119878846 103.84615384615385, 30.185924086779515 104.64497041420118, 28.756368559886525 105.44378698224853, 27.18718147764817 106.24260355029585, 27.838746959441202 107.0414201183432, 25.478139899038805 107.84023668639053, 26.688472212540336 108.63905325443787, 26.349106876822226 109.43786982248521, 24.53871179106935 110.23668639053254, 20.449152260453747 111.03550295857988, 19.25632540055984 111.83431952662723, 22.33638005111307 112.63313609467457, 22.600764571783476 113.43195266272188, 23.488861008755215 114.23076923076923, 23.54364716845553 115.02958579881657, 23.367083764708944 115.82840236686391, 24.625991056559908 116.62721893491124, 25.988526029226122 117.42603550295858, 24.837633224967202 118.22485207100593, 23.49048225464579 119.02366863905324, 21.730027918653057 119.82248520710058, 22.316028698577004 120.62130177514793, 25.579759847654127 121.42011834319527, 23.577964068570665 122.2189349112426, 27.894174418103468 123.01775147928994, 28.958881352232492 123.81656804733728, 28.25740441959318 124.61538461538463, 28.92153774142498 125.41420118343194, 30.273592359234513 126.21301775147928, 25.41287454421853 127.01183431952663, 25.43828145689514 127.81065088757396, 24.14361655808708 128.60946745562129, 23.641128285308923 129.40828402366864, 24.622947701791034 130.20710059171597, 23.890735683165843 131.0059171597633, 24.171663743157428 131.80473372781066, 23.668976853921222 132.60355029585799, 24.10558645240173 133.40236686390534, 24.557093236483084 134.20118343195267, 24.08802003213964" fill="none" stroke="#32ca5b" stroke-width="1.25"/>

</svg>