<?xml version="1.0" standalone="no"?>
<!DOCTYPE svg PUBLIC "-//W3C//DTD SVG 1.1//EN" "http://www.w3.org/Graphics/SVG/1.1/DTD/svg11.dtd">

<svg width="135" height="50" viewBox="0 0 135 50" preserveAspectRatio="none" 
  xmlns="http://www.w3.org/2000/svg"
  xmlns:xlink="http://www.w3.org/1999/xlink">


<polyline points="0.0, 4.740042940488052 0.8035714285714285, 7.745241576676547 1.607142857142857, 4.309667835888505 2.4107142857142856, 7.704765495319056 3.214285714285714, 3.3805969174773276 4.017857142857142, 1.3065681691216469 4.821428571428571, 2.111168416954183 5.625, 3.669852515986606 6.428571428571428, 6.012635581920075 7.232142857142857, 13.216782480956471 8.035714285714285, 5.5762181873168535 8.839285714285715, 3.384589645852263 9.642857142857142, 7.6740062751415055 10.446428571428571, 0.0 11.25, 15.921377931008527 12.053571428571429, 24.01251372061002 12.857142857142856, 28.50031209286169 13.660714285714286, 25.18760259518874 14.464285714285714, 21.598381967691626 15.267857142857142, 16.770387390862727 16.07142857142857, 17.279166478250758 16.875, 16.117080110549722 17.67857142857143, 13.504868967147473 18.482142857142858, 12.845600684919045 19.285714285714285, 15.664968341522254 20.089285714285715, 17.051166157781473 20.892857142857142, 18.157427700611795 21.696428571428573, 19.258006272294523 22.5, 19.97121761579143 23.303571428571427, 23.719782338651672 24.107142857142858, 26.912999360791158 24.91071428571429, 27.318413106888634 25.71428571428571, 26.346571435556314 26.517857142857142, 34.58697314442664 27.321428571428573, 31.342343580817 28.125, 34.14569693344433 28.928571428571427, 29.615634564366605 29.732142857142858, 31.80441830726521 30.535714285714285, 37.334502689429094 31.339285714285715, 34.21865030676493 32.14285714285714, 32.09608214851012 32.94642857142857, 39.89484203583701 33.75, 42.93782203924683 34.55357142857142, 35.03141588400464 35.35714285714286, 35.14699202830806 36.160714285714285, 27.529926484306845 36.964285714285715, 26.51484779158544 37.767857142857146, 22.87498462612288 38.57142857142857, 25.71859387138302 39.375, 30.843685080518352 40.17857142857143, 32.66693163038985 40.982142857142854, 31.494354855573064 41.785714285714285, 34.74950434768872 42.589285714285715, 32.33232958196777 43.392857142857146, 27.747604549175435 44.19642857142857, 24.67288458924049 45.0, 20.330862158754883 45.80357142857143, 18.053968451595047 46.607142857142854, 24.10153778041631 47.410714285714285, 25.807906747527277 48.214285714285715, 28.963479191504764 49.01785714285714, 35.444489283969865 49.82142857142858, 27.479072678386828 50.625, 25.736446581690426 51.42857142857142, 30.806990565753157 52.23214285714286, 27.826492168925686 53.035714285714285, 25.27997946956863 53.839285714285715, 28.06910866752367 54.642857142857146, 24.367677700544238 55.44642857142857, 30.46772765594879 56.25, 30.959250005215637 57.05357142857143, 33.34413443027706 57.857142857142854, 33.23355850599518 58.660714285714285, 35.43467187137564 59.464285714285715, 41.03451090973355 60.267857142857146, 39.58098113898048 61.07142857142857, 37.48244640865892 61.875, 37.188537775412 62.67857142857143, 35.45041388734083 63.482142857142854, 39.14071987034842 64.28571428571428, 41.004461309235516 65.08928571428572, 38.1308978276858 65.89285714285714, 33.87229735255534 66.69642857142857, 34.94748488797977 67.5, 39.731520279228725 68.30357142857143, 37.8134912857233 69.10714285714285, 38.54906686309437 69.91071428571429, 45.46113496627795 70.71428571428572, 43.70312597614037 71.51785714285714, 40.43646235789497 72.32142857142857, 40.11036314608722 73.125, 38.786132177536274 73.92857142857143, 38.01140255397165 74.73214285714286, 40.737427620841714 75.53571428571429, 46.309512337039024 76.33928571428571, 45.069005052270136 77.14285714285714, 43.27259356955741 77.94642857142857, 50.0 78.75, 48.57880487484503 79.55357142857143, 47.15658758315098 80.35714285714286, 42.306204005653 81.16071428571428, 41.390055986673374 81.96428571428571, 42.844214813786756 82.76785714285715, 39.9346032657594 83.57142857142857, 41.01384345318447 84.375, 38.192176773760806 85.17857142857143, 37.74799671677899 85.98214285714285, 35.566430462115065 86.78571428571429, 35.98100789319728 87.58928571428572, 36.673622523062555 88.39285714285714, 37.33326279106432 89.19642857142857, 39.99232031406003 90.0, 37.04155240578104 90.80357142857143, 35.056655206096266 91.60714285714286, 33.19183720657829 92.41071428571429, 34.72600654766032 93.21428571428571, 34.956024641229966 94.01785714285714, 34.718431702344056 94.82142857142857, 34.35977088890663 95.625, 33.746204003684014 96.42857142857143, 33.837143566973246 97.23214285714286, 32.99899502715352 98.03571428571428, 33.429328165862216 98.83928571428571, 35.34384882564846 99.64285714285715, 36.89233092315247 100.44642857142857, 35.93059543134118 101.25, 29.691123447613005 102.05357142857143, 32.8615242475573 102.85714285714285, 34.36367010176961 103.66071428571429, 32.94392484232823 104.46428571428572, 35.86980427570487 105.26785714285714, 34.121792759943574 106.07142857142857, 32.975507741341495 106.875, 34.076878774084186 107.67857142857143, 29.03795710468514 108.48214285714286, 32.71602245670316 109.28571428571429, 33.69153058079796 110.08928571428571, 33.09175506499008 110.89285714285714, 33.30788239850169 111.69642857142857, 29.129270823050962 112.5, 29.664068096130464 113.30357142857143, 31.33150763973813 114.10714285714286, 28.688143870778894 114.91071428571428, 26.034513808685123 115.71428571428571, 25.616647696150995 116.51785714285715, 25.219570527773488 117.32142857142857, 29.27057925552205 118.125, 31.23222531145341 118.92857142857143, 29.676932907851274 119.73214285714285, 28.312695049660423 120.53571428571429, 28.15279506058252 121.33928571428572, 32.75317054020855 122.14285714285714, 32.13267608142642 122.94642857142857, 38.66365739779445 123.75, 36.42086653166296 124.55357142857143, 35.34276258964786 125.35714285714286, 33.339152160354445 126.16071428571429, 32.165166884387084 126.96428571428571, 22.379360911406224 127.76785714285714, 14.28652896383748 128.57142857142856, 7.2069469801623525 129.375, 4.9140198665472905 130.17857142857144, 9.672695755981463 130.98214285714286, 5.670687442277547 131.78571428571428, 7.64747423536227 132.5892857142857, 3.2884884645625716 133.39285714285714, 3.7984404148334803 134.19642857142858, 1.3178549373715924" fill="none" stroke="#32ca5b" stroke-width="1.25"/>

</svg>