<?xml version="1.0" standalone="no"?>
<!DOCTYPE svg PUBLIC "-//W3C//DTD SVG 1.1//EN" "http://www.w3.org/Graphics/SVG/1.1/DTD/svg11.dtd">

<svg width="135" height="50" viewBox="0 0 135 50" preserveAspectRatio="none" 
  xmlns="http://www.w3.org/2000/svg"
  xmlns:xlink="http://www.w3.org/1999/xlink">


<polyline points="0.0, 2.718112453700862 0.7988165680473372, 2.9752665712557045 1.5976331360946745, 3.6767760177099635 2.396449704142012, 0.0 3.195266272189349, 3.4073246749573975 3.994082840236686, 1.1256739395647843 4.792899408284024, 6.706337339658459 5.591715976331361, 9.962341007059878 6.390532544378698, 8.105023086245506 7.189349112426036, 15.076202271011477 7.988165680473372, 12.331547596855762 8.78698224852071, 8.257543968046397 9.585798816568047, 10.135545958738433 10.384615384615385, 13.05830922510363 11.183431952662723, 18.842405299984186 11.982248520710058, 21.14597065171897 12.781065088757396, 20.61515453228785 13.579881656804734, 16.968710532016168 14.378698224852071, 23.16478062587646 15.177514792899409, 18.993929472622575 15.976331360946745, 30.119666723965278 16.775147928994084, 39.10644578635553 17.57396449704142, 41.97477774195573 18.37278106508876, 41.31924130336288 19.171597633136095, 39.7326187770088 19.970414201183434, 35.617952200255424 20.76923076923077, 32.69018541553137 21.56804733727811, 26.54942672737386 22.366863905325445, 26.544258178950614 23.16568047337278, 25.60936339199664 23.964497041420117, 24.01779817362796 24.763313609467456, 24.030750406771396 25.562130177514792, 28.25103279055013 26.36094674556213, 27.03084431995765 27.159763313609467, 28.453560241801824 27.958579881656807, 37.59306265161297 28.757396449704142, 38.530348695736144 29.55621301775148, 42.221766787154586 30.355029585798817, 42.07090272659112 31.153846153846157, 49.3777093880286 31.95266272189349, 44.83654388381778 32.751479289940825, 46.21702064322236 33.55029585798817, 41.77356304821792 34.349112426035504, 42.96642689893311 35.14792899408284, 50.0 35.94674556213018, 47.82847655270102 36.74556213017752, 44.55427066492088 37.54437869822485, 38.75785705434414 38.34319526627219, 37.45475003034648 39.142011834319526, 37.24955784733148 39.94082840236687, 39.330301515453236 40.7396449704142, 34.816286485087616 41.53846153846154, 33.20705211347619 42.337278106508876, 29.756293726542893 43.13609467455622, 33.35639600426199 43.93491124260355, 40.06029100040614 44.73372781065089, 39.72355379893289 45.532544378698226, 38.49183467792891 46.33136094674556, 39.60071602394411 47.1301775147929, 36.83239701090369 47.928994082840234, 31.740047562744326 48.72781065088758, 31.853766642011895 49.52662721893491, 29.546341959212075 50.32544378698225, 28.736336878297298 51.124260355029584, 31.282356110020583 51.92307692307693, 28.611814158505023 52.72189349112426, 28.6837328453836 53.5207100591716, 32.407561751873246 54.319526627218934, 30.304143340846 55.11834319526627, 30.521557271617517 55.91715976331361, 31.922108573234226 56.71597633136094, 29.206328334766248 57.514792899408285, 29.652174814822708 58.31360946745562, 31.91499147429403 59.11242603550296, 29.24209335911319 59.91124260355029, 33.72477247309446 60.710059171597635, 33.3206320657883 61.50887573964497, 37.50788185330266 62.307692307692314, 34.99770489441233 63.10650887573964, 35.95335433899353 63.90532544378698, 41.422713878685734 64.70414201183432, 41.85891631807877 65.50295857988165, 38.9922456024825 66.30177514792899, 39.35279628539875 67.10059171597634, 36.67665149456405 67.89940828402366, 40.19180600183665 68.69822485207101, 40.07670635659078 69.49704142011834, 42.48968373140618 70.29585798816568, 39.12885813642597 71.09467455621302, 38.78818797190134 71.89349112426036, 42.17885408892179 72.6923076923077, 40.165550604229956 73.49112426035504, 36.66747575083967 74.28994082840237, 41.72573103246602 75.0887573964497, 42.50698971851292 75.88757396449704, 39.018045620769385 76.68639053254438, 40.819471190170745 77.48520710059172, 39.615550560806284 78.28402366863905, 36.7947717065843 79.0828402366864, 39.282408301230404 79.88165680473374, 42.33118831401829 80.68047337278107, 42.26184465703622 81.4792899408284, 39.21572838709301 82.27810650887574, 43.66780843973495 83.07692307692308, 41.57618020538265 83.87573964497041, 37.675786984354666 84.67455621301775, 35.50890100210648 85.4733727810651, 36.33240343148344 86.27218934911244, 38.11607497897383 87.07100591715975, 32.95459933877503 87.8698224852071, 31.136906447872402 88.66863905325444, 27.48448394088011 89.46745562130178, 29.856477386512104 90.26627218934911, 28.833311089443765 91.06508875739645, 29.90034880512653 91.8639053254438, 28.152134748756264 92.66272189349112, 29.53955494407488 93.46153846153845, 29.39403865160628 94.2603550295858, 24.93478001746769 95.05917159763314, 25.375072972531072 95.85798816568047, 28.142469548843007 96.65680473372781, 29.384207067317675 97.45562130177515, 28.293357593244828 98.2544378698225, 29.179838776820134 99.05325443786982, 30.27318511143587 99.85207100591715, 29.88319319313164 100.6508875739645, 27.825615946142335 101.44970414201183, 26.981356320184403 102.24852071005917, 28.1670087864761 103.04733727810651, 30.562278410257182 103.84615384615385, 31.662153464502023 104.64497041420118, 32.14620711720828 105.44378698224853, 32.110145094489326 106.24260355029585, 32.32571607506712 107.0414201183432, 34.390774020193135 107.84023668639053, 34.25333278287228 108.63905325443787, 36.20330994261899 109.43786982248521, 33.95018159296882 110.23668639053254, 30.98432366949208 111.03550295857988, 33.712159996757016 111.83431952662723, 33.700920419488064 112.63313609467457, 35.23501794415746 113.43195266272188, 35.83105313298335 114.23076923076923, 34.610967292366254 115.02958579881657, 34.13503789726152 115.82840236686391, 32.85088782772164 116.62721893491124, 34.88911000149895 117.42603550295858, 34.73321962295602 118.22485207100593, 34.89011706119628 119.02366863905324, 33.83133169160178 119.82248520710058, 31.885360784460048 120.62130177514793, 34.42226250254504 121.42011834319527, 32.834277985855195 122.2189349112426, 30.461440681097272 123.01775147928994, 28.71279016179354 123.81656804733728, 25.94116799930187 124.61538461538463, 22.370460478604258 125.41420118343194, 24.18860414993525 126.21301775147928, 21.849583210769715 127.01183431952663, 30.678828934985585 127.81065088757396, 28.508943350201417 128.60946745562129, 27.881937783240367 129.40828402366864, 32.33614591439111 130.20710059171597, 37.55678106199388 131.0059171597633, 34.11674537599344 131.80473372781066, 29.662772856878206 132.60355029585799, 27.85689153864262 133.40236686390534, 26.332207099095555 134.20118343195267, 22.450408218263878" fill="none" stroke="#ff3a33" stroke-width="1.25"/>

</svg>