<?xml version="1.0" standalone="no"?>
<!DOCTYPE svg PUBLIC "-//W3C//DTD SVG 1.1//EN" "http://www.w3.org/Graphics/SVG/1.1/DTD/svg11.dtd">

<svg width="135" height="50" viewBox="0 0 135 50" preserveAspectRatio="none" 
  xmlns="http://www.w3.org/2000/svg"
  xmlns:xlink="http://www.w3.org/1999/xlink">


<polyline points="0.0, 23.350695978561742 0.7988165680473372, 20.921619617602037 1.5976331360946745, 18.083435393074904 2.396449704142012, 30.804779726553512 3.195266272189349, 28.140472251929598 3.994082840236686, 29.025375544022964 4.792899408284024, 27.06389728699678 5.591715976331361, 25.439946929028984 6.390532544378698, 26.306647060605364 7.189349112426036, 25.58302661609806 7.988165680473372, 23.553023511292782 8.78698224852071, 22.020466137684817 9.585798816568047, 33.205971205856436 10.384615384615385, 15.939047158953636 11.183431952662723, 17.709355444739444 11.982248520710058, 25.79758573022491 12.781065088757396, 39.599710198146916 13.579881656804734, 11.776248598690755 14.378698224852071, 21.412150008965494 15.177514792899409, 24.43543344731464 15.976331360946745, 31.636409876330973 16.775147928994084, 28.4257173946748 17.57396449704142, 19.4036272050277 18.37278106508876, 24.81334839341909 19.171597633136095, 31.27024086727113 19.970414201183434, 30.56242566064682 20.76923076923077, 32.271004295582564 21.56804733727811, 32.60077780821808 22.366863905325445, 30.456022471265804 23.16568047337278, 31.0552372458272 23.964497041420117, 30.905804559016282 24.763313609467456, 36.37523726358558 25.562130177514792, 30.9125416268081 26.36094674556213, 45.6095896451585 27.159763313609467, 33.33396924799888 27.958579881656807, 33.92928135825565 28.757396449704142, 29.616129247096378 29.55621301775148, 19.894423559033203 30.355029585798817, 32.328291491203984 31.153846153846157, 39.52159399904824 31.95266272189349, 18.142117255966987 32.751479289940825, 33.863224021638224 33.55029585798817, 26.795520918951425 34.349112426035504, 24.50545547128232 35.14792899408284, 18.904506364213596 35.94674556213018, 27.85103546123971 36.74556213017752, 34.18002884613118 37.54437869822485, 38.865634776711104 38.34319526627219, 38.45614851230579 39.142011834319526, 34.84843798813716 39.94082840236687, 24.025241885873463 40.7396449704142, 29.656484113087394 41.53846153846154, 26.13994113585538 42.337278106508876, 28.49439780332182 43.13609467455622, 27.896188574190912 43.93491124260355, 29.42779750654006 44.73372781065089, 25.88795926921412 45.532544378698226, 27.874385802653507 46.33136094674556, 35.87176754139267 47.1301775147929, 24.68077079113388 47.928994082840234, 28.835644503636033 48.72781065088758, 28.146201590778595 49.52662721893491, 18.60129483397508 50.32544378698225, 22.864576097312465 51.124260355029584, 22.37946776056639 51.92307692307693, 31.813500602688904 52.72189349112426, 27.34031535132555 53.5207100591716, 27.670738234135033 54.319526627218934, 27.15203223476688 55.11834319526627, 25.01948576244526 55.91715976331361, 28.32683524871207 56.71597633136094, 22.613472523921562 57.514792899408285, 26.11344551216512 58.31360946745562, 28.42967474422314 59.11242603550296, 36.715085355649215 59.91124260355029, 19.60996761712815 60.710059171597635, 28.17276100491968 61.50887573964497, 27.115819722819822 62.307692307692314, 27.66342059417648 63.10650887573964, 26.568010125187875 63.90532544378698, 24.99039520620591 64.70414201183432, 24.210817921744063 65.50295857988165, 26.64300719632879 66.30177514792899, 26.999562515614645 67.10059171597634, 26.779438638849225 67.89940828402366, 26.458404320963204 68.69822485207101, 0.0 69.49704142011834, 26.188853298267002 70.29585798816568, 26.953584195731732 71.09467455621302, 30.673664288213043 71.89349112426036, 28.14366772418274 72.6923076923077, 30.888495366084495 73.49112426035504, 25.81357640710567 74.28994082840237, 29.54499567885696 75.0887573964497, 29.33614193197443 75.88757396449704, 32.078316788582754 76.68639053254438, 25.597297724549616 77.48520710059172, 33.95872301341845 78.28402366863905, 22.258821512372652 79.0828402366864, 20.473769477517763 79.88165680473374, 26.62196132004815 80.68047337278107, 21.824818983301974 81.4792899408284, 21.493575077078706 82.27810650887574, 19.943820489177316 83.07692307692308, 39.67029788208732 83.87573964497041, 32.811342121947106 84.67455621301775, 20.793294820878756 85.4733727810651, 21.09983152200516 86.27218934911244, 24.91177564861875 87.07100591715975, 19.37516971082954 87.8698224852071, 25.140580635347952 88.66863905325444, 21.21877474307193 89.46745562130178, 30.863741595389055 90.26627218934911, 37.16241234081431 91.06508875739645, 39.85479081586232 91.8639053254438, 23.803341551032386 92.66272189349112, 36.869045482013355 93.46153846153845, 24.73398098489691 94.2603550295858, 27.00867939498814 95.05917159763314, 27.964496057625404 95.85798816568047, 42.46824553817596 96.65680473372781, 31.440511428855082 97.45562130177515, 20.908199727078408 98.2544378698225, 31.0270030316963 99.05325443786982, 21.195142838360574 99.85207100591715, 21.856793601887578 100.6508875739645, 24.549225231051537 101.44970414201183, 24.976462949426317 102.24852071005917, 24.110769120817803 103.04733727810651, 23.50410709687638 103.84615384615385, 25.81014822792966 104.64497041420118, 23.11680125100655 105.44378698224853, 20.806032828164618 106.24260355029585, 24.22067671656817 107.0414201183432, 25.02190673407185 107.84023668639053, 19.88237470519371 108.63905325443787, 25.003856135662694 109.43786982248521, 20.743222835031045 110.23668639053254, 20.0886179722972 111.03550295857988, 23.6034570287112 111.83431952662723, 24.631310315598252 112.63313609467457, 29.82611644836298 113.43195266272188, 36.53082455863801 114.23076923076923, 26.919420011842888 115.02958579881657, 26.950907335834106 115.82840236686391, 33.361884582183556 116.62721893491124, 36.37174434665699 117.42603550295858, 17.504402705487863 118.22485207100593, 19.69602832186557 119.02366863905324, 27.663114676819156 119.82248520710058, 32.06679035183684 120.62130177514793, 50.0 121.42011834319527, 28.170456503679027 122.2189349112426, 29.740736970762377 123.01775147928994, 30.338969929741193 123.81656804733728, 24.9329738568693 124.61538461538463, 31.14178795133625 125.41420118343194, 27.51418589367042 126.21301775147928, 18.643464473101616 127.01183431952663, 22.42256322257383 127.81065088757396, 25.732891651461838 128.60946745562129, 17.54184134112902 129.40828402366864, 10.757467638673871 130.20710059171597, 29.68234607275708 131.0059171597633, 16.446138051943148 131.80473372781066, 24.89311807787301 132.60355029585799, 10.363752830035192 133.40236686390534, 30.3713068367765 134.20118343195267, 18.14248240194469" fill="none" stroke="#32ca5b" stroke-width="1.25"/>

</svg>