<?xml version="1.0" standalone="no"?>
<!DOCTYPE svg PUBLIC "-//W3C//DTD SVG 1.1//EN" "http://www.w3.org/Graphics/SVG/1.1/DTD/svg11.dtd">

<svg width="135" height="50" viewBox="0 0 135 50" preserveAspectRatio="none" 
  xmlns="http://www.w3.org/2000/svg"
  xmlns:xlink="http://www.w3.org/1999/xlink">


<polyline points="0.0, 21.39823792238495 0.7988165680473372, 26.162886388259977 1.5976331360946745, 20.35176006820353 2.396449704142012, 22.70486369637342 3.195266272189349, 11.971900597026627 3.994082840236686, 13.139368480723162 4.792899408284024, 11.838491986306051 5.591715976331361, 39.072640883984 6.390532544378698, 43.479934682508826 7.189349112426036, 33.39488092708934 7.988165680473372, 33.49053206104308 8.78698224852071, 30.57285565280987 9.585798816568047, 40.02341489309874 10.384615384615385, 18.098631957777197 11.183431952662723, 12.890375031819584 11.982248520710058, 25.917415207749418 12.781065088757396, 31.205941525663743 13.579881656804734, 39.85281629085538 14.378698224852071, 40.84980826230905 15.177514792899409, 34.48357580554091 15.976331360946745, 33.43433539808798 16.775147928994084, 39.98787814913402 17.57396449704142, 24.390949500555564 18.37278106508876, 28.705193478609026 19.171597633136095, 27.98480433775249 19.970414201183434, 21.67592917189888 20.76923076923077, 27.857539173580438 21.56804733727811, 18.24965390715321 22.366863905325445, 19.034389977765954 23.16568047337278, 18.947803045798203 23.964497041420117, 18.306641262886796 24.763313609467456, 27.748069444826157 25.562130177514792, 28.753106782765194 26.36094674556213, 31.70110659888014 27.159763313609467, 38.484235028443834 27.958579881656807, 38.50927810860612 28.757396449704142, 50.0 29.55621301775148, 38.174372364974616 30.355029585798817, 37.58704993017234 31.153846153846157, 40.0357635772301 31.95266272189349, 30.97265540492755 32.751479289940825, 23.784646633863037 33.55029585798817, 33.87323220054979 34.349112426035504, 34.55330305116041 35.14792899408284, 32.80941749446386 35.94674556213018, 31.10446128975088 36.74556213017752, 24.039779029568347 37.54437869822485, 31.753955158408086 38.34319526627219, 31.97006481181211 39.142011834319526, 33.79710793786174 39.94082840236687, 29.125660076444053 40.7396449704142, 29.046139592195736 41.53846153846154, 30.56100984729267 42.337278106508876, 30.162227766857114 43.13609467455622, 7.185912578613009 43.93491124260355, 3.842801217597253 44.73372781065089, 19.84448838577377 45.532544378698226, 11.822378843508696 46.33136094674556, 9.401245496713187 47.1301775147929, 8.11335372114864 47.928994082840234, 14.993626471054814 48.72781065088758, 19.283705838231043 49.52662721893491, 20.78448326622504 50.32544378698225, 20.7657881815685 51.124260355029584, 21.604896830555077 51.92307692307693, 20.766758880371466 52.72189349112426, 31.947740771722888 53.5207100591716, 26.432074678567542 54.319526627218934, 23.887652772446984 55.11834319526627, 27.481860014860317 55.91715976331361, 30.909429696979267 56.71597633136094, 45.99987161985915 57.514792899408285, 40.51903799713188 58.31360946745562, 29.488788484778755 59.11242603550296, 31.184810875023643 59.91124260355029, 30.651654567958257 60.710059171597635, 27.4539902621383 61.50887573964497, 31.33212458043584 62.307692307692314, 41.42063584821213 63.10650887573964, 37.83704091588173 63.90532544378698, 37.95665279415002 64.70414201183432, 31.806711533441145 65.50295857988165, 28.97527015521945 66.30177514792899, 23.6998192188798 67.10059171597634, 21.546080708317614 67.89940828402366, 32.04844329974093 68.69822485207101, 34.220294893313415 69.49704142011834, 38.23685468295547 70.29585798816568, 37.604711956626375 71.09467455621302, 30.688390104283457 71.89349112426036, 33.24078686411924 72.6923076923077, 38.60947376596492 73.49112426035504, 38.45799217708495 74.28994082840237, 24.917049904199466 75.0887573964497, 26.727177658535005 75.88757396449704, 23.254774737141343 76.68639053254438, 27.102937859357468 77.48520710059172, 20.300646068454324 78.28402366863905, 15.397440903808404 79.0828402366864, 18.996563632401607 79.88165680473374, 19.10185778565222 80.68047337278107, 18.003957809990208 81.4792899408284, 15.08012437013139 82.27810650887574, 17.332588275486234 83.07692307692308, 17.10822836087492 83.87573964497041, 18.87319822337102 84.67455621301775, 17.656623910828138 85.4733727810651, 21.354842540839204 86.27218934911244, 20.171381299791573 87.07100591715975, 18.029352572093288 87.8698224852071, 17.350567951263457 88.66863905325444, 15.863218736771428 89.46745562130178, 11.980188126723949 90.26627218934911, 13.88848923562828 91.06508875739645, 0.0 91.8639053254438, 7.126976845384999 92.66272189349112, 7.172727039365968 93.46153846153845, 7.195181372481615 94.2603550295858, 13.674516758132329 95.05917159763314, 14.24130294236137 95.85798816568047, 13.77178437986456 96.65680473372781, 14.162482916784652 97.45562130177515, 12.682287045020788 98.2544378698225, 14.800033754933612 99.05325443786982, 15.249127444595606 99.85207100591715, 14.234138201237014 100.6508875739645, 14.207354637211573 101.44970414201183, 13.75357844492339 102.24852071005917, 14.989429802324231 103.04733727810651, 15.167212025747881 103.84615384615385, 30.511752335840796 104.64497041420118, 17.52867993724034 105.44378698224853, 7.694990525234499 106.24260355029585, 13.351542752886136 107.0414201183432, 10.569328510944064 107.84023668639053, 22.037576165401596 108.63905325443787, 17.47555530246268 109.43786982248521, 16.15715674573587 110.23668639053254, 15.37677865836031 111.03550295857988, 16.290512667146178 111.83431952662723, 9.798115766619995 112.63313609467457, 7.818642596373962 113.43195266272188, 9.300011248856167 114.23076923076923, 10.475960676118353 115.02958579881657, 9.214295168337756 115.82840236686391, 10.542777995764887 116.62721893491124, 13.861495996871462 117.42603550295858, 19.322227325729184 118.22485207100593, 25.458204284166435 119.02366863905324, 22.33619594839859 119.82248520710058, 22.093246521116512 120.62130177514793, 21.58930958709016 121.42011834319527, 15.361926254386699 122.2189349112426, 20.19137514558094 123.01775147928994, 19.201701078620186 123.81656804733728, 20.449630141110507 124.61538461538463, 19.259215990527288 125.41420118343194, 18.119007160822527 126.21301775147928, 17.66703466839605 127.01183431952663, 14.687941051952889 127.81065088757396, 11.706999989815628 128.60946745562129, 11.87255390944086 129.40828402366864, 29.960085507049843 130.20710059171597, 30.298848773177312 131.0059171597633, 26.444491356742354 131.80473372781066, 29.47181025081828 132.60355029585799, 32.73697563731337 133.40236686390534, 24.87506239929038 134.20118343195267, 25.33379436490078" fill="none" stroke="#ff3a33" stroke-width="1.25"/>

</svg>