<?xml version="1.0" standalone="no"?>
<!DOCTYPE svg PUBLIC "-//W3C//DTD SVG 1.1//EN" "http://www.w3.org/Graphics/SVG/1.1/DTD/svg11.dtd">

<svg width="135" height="50" viewBox="0 0 135 50" preserveAspectRatio="none" 
  xmlns="http://www.w3.org/2000/svg"
  xmlns:xlink="http://www.w3.org/1999/xlink">


<polyline points="0.0, 15.061065535168277 0.7988165680473372, 11.340614987243388 1.5976331360946745, 11.000679697132785 2.396449704142012, 12.874484016857796 3.195266272189349, 12.21819224597754 3.994082840236686, 11.394514430555633 4.792899408284024, 11.68536530034447 5.591715976331361, 16.906346507185894 6.390532544378698, 18.798900024096536 7.189349112426036, 17.74268964099683 7.988165680473372, 18.735834151927904 8.78698224852071, 18.98610570408291 9.585798816568047, 18.130647369525445 10.384615384615385, 18.05380431182463 11.183431952662723, 18.110456006069022 11.982248520710058, 20.51606622320324 12.781065088757396, 23.12108779935597 13.579881656804734, 18.64052957410477 14.378698224852071, 15.059740469990581 15.177514792899409, 17.25822514954453 15.976331360946745, 9.845268782059021 16.775147928994084, 21.053478409126765 17.57396449704142, 25.548153262054512 18.37278106508876, 30.10831937378437 19.171597633136095, 28.64184492100799 19.970414201183434, 26.03095789867382 20.76923076923077, 19.792799335667425 21.56804733727811, 16.12900185538077 22.366863905325445, 16.006434171097872 23.16568047337278, 17.281414827641324 23.964497041420117, 17.62950542143889 24.763313609467456, 21.436530198000487 25.562130177514792, 26.505639864896875 26.36094674556213, 26.424116295119582 27.159763313609467, 25.12624856094862 27.958579881656807, 26.396765677920342 28.757396449704142, 29.074732424210787 29.55621301775148, 30.480873337857716 30.355029585798817, 31.03240827823325 31.153846153846157, 29.887749098372595 31.95266272189349, 34.92619856410018 32.751479289940825, 33.73514692755984 33.55029585798817, 35.905858900955764 34.349112426035504, 33.18394795250029 35.14792899408284, 34.27986119250197 35.94674556213018, 38.01941831704581 36.74556213017752, 35.87294487280083 37.54437869822485, 35.132751272299096 38.34319526627219, 37.64165918378682 39.142011834319526, 40.1108295034629 39.94082840236687, 37.398125854778726 40.7396449704142, 37.152055945810886 41.53846153846154, 34.43451214890041 42.337278106508876, 32.76740186354678 43.13609467455622, 30.7766746447714 43.93491124260355, 34.51001794366117 44.73372781065089, 40.01126539968328 45.532544378698226, 40.17599034261695 46.33136094674556, 37.94134503388754 47.1301775147929, 38.33674462422504 47.928994082840234, 37.01293614153321 48.72781065088758, 31.16912422634156 49.52662721893491, 29.36385308044346 50.32544378698225, 27.261411186030486 51.124260355029584, 26.55626908309938 51.92307692307693, 28.98701522208912 52.72189349112426, 29.615287191637552 53.5207100591716, 32.350269079955936 54.319526627218934, 35.481802077148124 55.11834319526627, 33.75585072337356 55.91715976331361, 33.74307168321645 56.71597633136094, 36.675133580194334 57.514792899408285, 33.844062215244676 58.31360946745562, 32.87923332842889 59.11242603550296, 34.68858404336761 59.91124260355029, 32.309459409986644 60.710059171597635, 36.44259352250031 61.50887573964497, 35.90693186601692 62.307692307692314, 37.99980367719364 63.10650887573964, 36.24357648257197 63.90532544378698, 38.12890002223798 64.70414201183432, 37.59279983280038 65.50295857988165, 41.990984257467815 66.30177514792899, 40.8834659251399 67.10059171597634, 41.311477236015044 67.89940828402366, 38.63142466977583 68.69822485207101, 40.40216244696357 69.49704142011834, 41.70282020800944 70.29585798816568, 40.251140312354615 71.09467455621302, 38.48955967716526 71.89349112426036, 37.454855840029374 72.6923076923077, 39.98988159686452 73.49112426035504, 38.76148707922956 74.28994082840237, 40.17834760961805 75.0887573964497, 45.307637244678986 75.88757396449704, 46.75268610781635 76.68639053254438, 44.426888444280976 77.48520710059172, 44.986980058818524 78.28402366863905, 44.4936221835469 79.0828402366864, 42.53940787489138 79.88165680473374, 43.76837267411008 80.68047337278107, 45.74777598758057 81.4792899408284, 45.40413507650524 82.27810650887574, 45.02498203320844 83.07692307692308, 50.0 83.87573964497041, 46.68689963743834 84.67455621301775, 44.614240061185576 85.4733727810651, 43.39109203598875 86.27218934911244, 42.56982490783032 87.07100591715975, 42.92749160822421 87.8698224852071, 40.97432724708188 88.66863905325444, 39.53077550097203 89.46745562130178, 34.59306306200501 90.26627218934911, 27.578577674114 91.06508875739645, 27.932518298713887 91.8639053254438, 30.182277216196567 92.66272189349112, 27.089855231309777 93.46153846153845, 25.98733631073315 94.2603550295858, 3.213062802473701 95.05917159763314, 12.445981732592482 95.85798816568047, 2.2004798562827648 96.65680473372781, 3.160895934894696 97.45562130177515, 0.0 98.2544378698225, 2.5001438980972512 99.05325443786982, 6.1800566922370335 99.85207100591715, 10.842799709136264 100.6508875739645, 5.948130304290329 101.44970414201183, 4.041723891880839 102.24852071005917, 5.462018171500169 103.04733727810651, 7.265925381602512 103.84615384615385, 11.967081782160168 104.64497041420118, 16.453901035260788 105.44378698224853, 17.458069752013962 106.24260355029585, 16.38189322916865 107.0414201183432, 21.042597354853417 107.84023668639053, 22.02035857836818 108.63905325443787, 22.59155289577017 109.43786982248521, 22.256393238726154 110.23668639053254, 18.604255696623294 111.03550295857988, 10.914545882547547 111.83431952662723, 15.27190935597014 112.63313609467457, 12.400390177974462 113.43195266272188, 15.492701385608711 114.23076923076923, 15.763786221681775 115.02958579881657, 14.825809128592422 115.82840236686391, 15.227539115361044 116.62721893491124, 15.162318423261345 117.42603550295858, 15.734611381934242 118.22485207100593, 17.37135570497331 119.02366863905324, 19.308983544723414 119.82248520710058, 18.955286090803376 120.62130177514793, 20.655117165670806 121.42011834319527, 21.64928744501517 122.2189349112426, 21.768360130945947 123.01775147928994, 16.717676325145895 123.81656804733728, 21.90040465282233 124.61538461538463, 21.645860163825546 125.41420118343194, 21.065158136582927 126.21301775147928, 23.892660953552937 127.01183431952663, 23.97937930541356 127.81065088757396, 27.701775267890948 128.60946745562129, 27.021114967002287 129.40828402366864, 27.51978064118411 130.20710059171597, 26.134446681209067 131.0059171597633, 25.571262268747784 131.80473372781066, 20.464451645221413 132.60355029585799, 17.79458150954785 133.40236686390534, 16.828010997231583 134.20118343195267, 18.366900870592694" fill="none" stroke="#ff3a33" stroke-width="1.25"/>

</svg>