<?xml version="1.0" standalone="no"?>
<!DOCTYPE svg PUBLIC "-//W3C//DTD SVG 1.1//EN" "http://www.w3.org/Graphics/SVG/1.1/DTD/svg11.dtd">

<svg width="135" height="50" viewBox="0 0 135 50" preserveAspectRatio="none" 
  xmlns="http://www.w3.org/2000/svg"
  xmlns:xlink="http://www.w3.org/1999/xlink">


<polyline points="0.0, 33.244118852601986 0.7988165680473372, 33.2042872461764 1.5976331360946745, 34.98341686745669 2.396449704142012, 33.59298488298865 3.195266272189349, 35.824841607280874 3.994082840236686, 33.72188043455067 4.792899408284024, 31.699668750714515 5.591715976331361, 31.75111040637935 6.390532544378698, 32.75692241195169 7.189349112426036, 34.52997839728073 7.988165680473372, 37.222233882086456 8.78698224852071, 33.91869086847668 9.585798816568047, 33.441780154155346 10.384615384615385, 35.87950969274232 11.183431952662723, 33.64523578302758 11.982248520710058, 39.533730986338746 12.781065088757396, 44.171985449557425 13.579881656804734, 46.70420603439315 14.378698224852071, 45.05549415122155 15.177514792899409, 44.27709260901863 15.976331360946745, 41.605168880843834 16.775147928994084, 40.74949135598377 17.57396449704142, 40.786986844915305 18.37278106508876, 39.72719753951546 19.171597633136095, 40.00910266687224 19.970414201183434, 40.682517400240314 20.76923076923077, 41.88560455660627 21.56804733727811, 42.041198077852826 22.366863905325445, 40.98916294837718 23.16568047337278, 42.625350041155706 23.964497041420117, 42.93961414210542 24.763313609467456, 44.92447743008377 25.562130177514792, 45.42658411547328 26.36094674556213, 45.15718845000081 27.159763313609467, 49.44553219830962 27.958579881656807, 47.64881579089361 28.757396449704142, 49.04420836784025 29.55621301775148, 47.0221228434994 30.355029585798817, 47.048292181384035 31.153846153846157, 49.25343462429132 31.95266272189349, 48.32804008365685 32.751479289940825, 47.313570922093575 33.55029585798817, 49.81458693834308 34.349112426035504, 50.0 35.14792899408284, 48.71253925447545 35.94674556213018, 48.77303728423726 36.74556213017752, 45.544534650002404 37.54437869822485, 45.07557985719593 38.34319526627219, 44.337983250482196 39.142011834319526, 43.90612262771919 39.94082840236687, 46.66110818253604 40.7396449704142, 45.441656893267705 41.53846153846154, 42.59610203517982 42.337278106508876, 43.46933991306824 43.13609467455622, 42.0468212991235 43.93491124260355, 40.351934433085255 44.73372781065089, 39.94913866189558 45.532544378698226, 38.73051080222339 46.33136094674556, 37.42243460236062 47.1301775147929, 38.38112189927191 47.928994082840234, 39.135706113666934 48.72781065088758, 39.626529929176186 49.52662721893491, 42.266202784432686 50.32544378698225, 40.80767209841659 51.124260355029584, 40.06311027987208 51.92307692307693, 41.52355727366839 52.72189349112426, 40.146771708958525 53.5207100591716, 39.73571798657595 54.319526627218934, 39.9642559900745 55.11834319526627, 39.096608247137226 55.91715976331361, 40.88702905007403 56.71597633136094, 40.44000129386481 57.514792899408285, 41.321573853340695 58.31360946745562, 39.4767254489362 59.11242603550296, 40.56213308517741 59.91124260355029, 42.397248777535715 60.710059171597635, 42.86583444625756 61.50887573964497, 42.66288954863548 62.307692307692314, 41.96261594833699 63.10650887573964, 39.92093052749588 63.90532544378698, 43.03576618773431 64.70414201183432, 44.56202293055519 65.50295857988165, 44.31970232516955 66.30177514792899, 43.0000790225267 67.10059171597634, 43.423154377985554 67.89940828402366, 44.60362180855179 68.69822485207101, 42.49213688643426 69.49704142011834, 20.322787315248217 70.29585798816568, 30.458179523824942 71.09467455621302, 29.28592149745165 71.89349112426036, 26.296714613853535 72.6923076923077, 27.086442612078866 73.49112426035504, 23.432629922067775 74.28994082840237, 22.73800686861712 75.0887573964497, 25.157770841242183 75.88757396449704, 28.744749605111018 76.68639053254438, 29.58012318578297 77.48520710059172, 26.242418713726334 78.28402366863905, 30.818071455960137 79.0828402366864, 27.153596427268827 79.88165680473374, 20.199466952784114 80.68047337278107, 16.324317787507656 81.4792899408284, 13.096708777610221 82.27810650887574, 9.651048276892542 83.07692307692308, 0.0 83.87573964497041, 0.800576798044281 84.67455621301775, 0.5319699585873265 85.4733727810651, 1.4532903720377268 86.27218934911244, 11.388599090150159 87.07100591715975, 12.622755283292625 87.8698224852071, 12.72704503062187 88.66863905325444, 16.983957432284168 89.46745562130178, 21.105279256151768 90.26627218934911, 19.684503138420677 91.06508875739645, 17.049831898127543 91.8639053254438, 17.959035788430178 92.66272189349112, 17.38871979795039 93.46153846153845, 17.558537004128638 94.2603550295858, 18.181500378596617 95.05917159763314, 19.66469499870051 95.85798816568047, 19.809105655442274 96.65680473372781, 22.44016240416237 97.45562130177515, 21.552421996658087 98.2544378698225, 21.215547942660294 99.05325443786982, 24.33012890223317 99.85207100591715, 25.713695992291637 100.6508875739645, 25.69448221016876 101.44970414201183, 22.79128759157093 102.24852071005917, 20.41893863433675 103.04733727810651, 20.346021376149316 103.84615384615385, 22.260733142597633 104.64497041420118, 23.47187421903923 105.44378698224853, 22.045908513000292 106.24260355029585, 21.383262541150554 107.0414201183432, 23.62840747483608 107.84023668639053, 22.099666177273377 108.63905325443787, 23.1220216746954 109.43786982248521, 22.88718912539155 110.23668639053254, 20.72257602487527 111.03550295857988, 20.048828053243827 111.83431952662723, 18.08268262299075 112.63313609467457, 17.22801444817989 113.43195266272188, 17.80511586330067 114.23076923076923, 19.205052865882102 115.02958579881657, 19.360314407693053 115.82840236686391, 20.73571434646919 116.62721893491124, 21.52189792011992 117.42603550295858, 20.285517978465258 118.22485207100593, 17.39262306213884 119.02366863905324, 19.844465185571348 119.82248520710058, 20.785320279952195 120.62130177514793, 21.07055134412801 121.42011834319527, 23.496278708841764 122.2189349112426, 23.245693470884735 123.01775147928994, 26.85504701354622 123.81656804733728, 25.72417801934065 124.61538461538463, 24.11745759614738 125.41420118343194, 23.253136666687034 126.21301775147928, 24.96069980497634 127.01183431952663, 21.769646654204628 127.81065088757396, 18.813658137087085 128.60946745562129, 17.896065524578106 129.40828402366864, 19.848471955529533 130.20710059171597, 20.95779435000542 131.0059171597633, 19.56224504614447 131.80473372781066, 19.639557759721292 132.60355029585799, 18.60703587982803 133.40236686390534, 19.444563585087334 134.20118343195267, 19.27959984389036" fill="none" stroke="#32ca5b" stroke-width="1.25"/>

</svg>