<?xml version="1.0" standalone="no"?>
<!DOCTYPE svg PUBLIC "-//W3C//DTD SVG 1.1//EN" "http://www.w3.org/Graphics/SVG/1.1/DTD/svg11.dtd">

<svg width="135" height="50" viewBox="0 0 135 50" preserveAspectRatio="none" 
  xmlns="http://www.w3.org/2000/svg"
  xmlns:xlink="http://www.w3.org/1999/xlink">


<polyline points="0.0, 4.9462142647010685 0.7988165680473372, 7.918143799882436 1.5976331360946745, 0.0 2.396449704142012, 1.611290916170487 3.195266272189349, 3.8994513324655964 3.994082840236686, 4.157302964654757 4.792899408284024, 5.047027183349486 5.591715976331361, 4.8879438680643945 6.390532544378698, 6.330942694704146 7.189349112426036, 9.168355228982325 7.988165680473372, 9.601716920004977 8.78698224852071, 9.782944143292035 9.585798816568047, 8.51178763320389 10.384615384615385, 10.89911823299466 11.183431952662723, 11.656588559131897 11.982248520710058, 14.924877424903011 12.781065088757396, 19.42878551791673 13.579881656804734, 20.234018293908317 14.378698224852071, 20.72702695480124 15.177514792899409, 19.977371110062634 15.976331360946745, 20.06323220422007 16.775147928994084, 18.94025651849535 17.57396449704142, 18.160742146644957 18.37278106508876, 16.15455653408568 19.171597633136095, 16.088978441887274 19.970414201183434, 14.959188237383128 20.76923076923077, 15.047398750931794 21.56804733727811, 15.83551204409118 22.366863905325445, 18.839032029347536 23.16568047337278, 21.48213165362635 23.964497041420117, 21.254608139338615 24.763313609467456, 27.13463172045455 25.562130177514792, 27.93675513542655 26.36094674556213, 31.85892630862263 27.159763313609467, 32.548076102535326 27.958579881656807, 33.813701610338484 28.757396449704142, 34.85699979026905 29.55621301775148, 34.789945395037385 30.355029585798817, 36.15193275882768 31.153846153846157, 36.669878433434775 31.95266272189349, 37.701002493502955 32.751479289940825, 37.42248288322012 33.55029585798817, 37.773879839969496 34.349112426035504, 37.94928032401391 35.14792899408284, 37.80604116722082 35.94674556213018, 38.020253816813195 36.74556213017752, 36.45633411439099 37.54437869822485, 35.90630964263642 38.34319526627219, 36.66266413499958 39.142011834319526, 36.10693926464026 39.94082840236687, 38.04355091646842 40.7396449704142, 38.289573389611604 41.53846153846154, 37.86022847065402 42.337278106508876, 38.95201884382043 43.13609467455622, 36.44399607003423 43.93491124260355, 33.28358042607042 44.73372781065089, 31.767934637914518 45.532544378698226, 32.663532026136025 46.33136094674556, 31.879709030341825 47.1301775147929, 25.4944573054192 47.928994082840234, 26.623848295834424 48.72781065088758, 30.846776057124387 49.52662721893491, 30.830658328655925 50.32544378698225, 32.867449076362846 51.124260355029584, 32.99823604489522 51.92307692307693, 34.1424934632857 52.72189349112426, 34.35530536394526 53.5207100591716, 34.484315117441795 54.319526627218934, 33.98000103521555 55.11834319526627, 34.33100165143368 55.91715976331361, 36.579893942869376 56.71597633136094, 37.637734821166276 57.514792899408285, 37.083170192951535 58.31360946745562, 36.699053423063546 59.11242603550296, 35.64757269590949 59.91124260355029, 37.47065711875564 60.710059171597635, 42.1294290647604 61.50887573964497, 38.96303924285585 62.307692307692314, 38.65876833802222 63.10650887573964, 39.73931191178045 63.90532544378698, 40.45713488236649 64.70414201183432, 39.36213915993593 65.50295857988165, 39.0491598653896 66.30177514792899, 39.36248603635962 67.10059171597634, 40.41639458439186 67.89940828402366, 40.07789108342606 68.69822485207101, 40.06100733357373 69.49704142011834, 38.78870496784017 70.29585798816568, 39.380976536464054 71.09467455621302, 39.131333002633724 71.89349112426036, 39.70843603434668 72.6923076923077, 39.13785647994505 73.49112426035504, 38.547502980674594 74.28994082840237, 38.379470062325666 75.0887573964497, 39.6239682138001 75.88757396449704, 39.82056634672153 76.68639053254438, 40.85791867546804 77.48520710059172, 34.78859544722298 78.28402366863905, 35.48258005221429 79.0828402366864, 34.33222970009895 79.88165680473374, 35.746293163998 80.68047337278107, 37.85820256440555 81.4792899408284, 38.45618232490578 82.27810650887574, 38.11298888215115 83.07692307692308, 36.74222928211375 83.87573964497041, 34.339053996540066 84.67455621301775, 32.71496260327733 85.4733727810651, 31.858031839880002 86.27218934911244, 30.856212431595203 87.07100591715975, 32.85172014830785 87.8698224852071, 30.005240255983797 88.66863905325444, 30.07259868126203 89.46745562130178, 28.621401800112373 90.26627218934911, 28.602091830554887 91.06508875739645, 29.62264427975675 91.8639053254438, 29.971431348051475 92.66272189349112, 28.546301094243248 93.46153846153845, 28.62178819355047 94.2603550295858, 28.850582879369757 95.05917159763314, 28.68792595444674 95.85798816568047, 28.829615774343864 96.65680473372781, 27.91625807283068 97.45562130177515, 28.911106438088947 98.2544378698225, 29.59636104549155 99.05325443786982, 30.689291239120543 99.85207100591715, 33.820447851969355 100.6508875739645, 33.11576088793581 101.44970414201183, 32.28064521225868 102.24852071005917, 28.033186254304976 103.04733727810651, 32.03043097370619 103.84615384615385, 31.78517866585907 104.64497041420118, 32.01665058064484 105.44378698224853, 33.78236857176225 106.24260355029585, 34.75929687853243 107.0414201183432, 34.94163173357877 107.84023668639053, 34.32579790239005 108.63905325443787, 34.05981992746643 109.43786982248521, 33.76920046773297 110.23668639053254, 32.78722613718294 111.03550295857988, 25.52888051121464 111.83431952662723, 24.37446001999547 112.63313609467457, 26.379451215010825 113.43195266272188, 26.502031745178694 114.23076923076923, 28.184116206212646 115.02958579881657, 30.114854496879044 115.82840236686391, 30.484921017699573 116.62721893491124, 36.829789852826195 117.42603550295858, 35.77171310640252 118.22485207100593, 36.75659117054847 119.02366863905324, 36.73091497752537 119.82248520710058, 36.97749774397338 120.62130177514793, 40.00382811920363 121.42011834319527, 41.19570484269943 122.2189349112426, 47.884124240955884 123.01775147928994, 49.949205773716216 123.81656804733728, 50.0 124.61538461538463, 49.34327195297673 125.41420118343194, 48.608230842061 126.21301775147928, 48.21413300675797 127.01183431952663, 44.1689532838853 127.81065088757396, 25.878248822504936 128.60946745562129, 36.104833702208516 129.40828402366864, 34.12005447071473 130.20710059171597, 35.54690657385059 131.0059171597633, 33.974314082334075 131.80473372781066, 33.689644161008175 132.60355029585799, 32.151447613583166 133.40236686390534, 30.522413041720874 134.20118343195267, 30.726447568502923" fill="none" stroke="#ff3a33" stroke-width="1.25"/>

</svg>