<?xml version="1.0" standalone="no"?>
<!DOCTYPE svg PUBLIC "-//W3C//DTD SVG 1.1//EN" "http://www.w3.org/Graphics/SVG/1.1/DTD/svg11.dtd">

<svg width="135" height="50" viewBox="0 0 135 50" preserveAspectRatio="none" 
  xmlns="http://www.w3.org/2000/svg"
  xmlns:xlink="http://www.w3.org/1999/xlink">


<polyline points="0.0, 0.3210175710812759 0.7988165680473372, 2.6597098974403495 1.5976331360946745, 6.2030044613850785 2.396449704142012, 4.773825356505641 3.195266272189349, 11.543461582384094 3.994082840236686, 6.22299914603576 4.792899408284024, 1.0654957334240445 5.591715976331361, 0.0 6.390532544378698, 1.5368697540542386 7.189349112426036, 7.170235165170498 7.988165680473372, 14.103111160095535 8.78698224852071, 7.9770496697050675 9.585798816568047, 2.0147831772787903 10.384615384615385, 10.083939175402621 11.183431952662723, 0.4538724194186162 11.982248520710058, 13.533470892944422 12.781065088757396, 30.208026594182837 13.579881656804734, 35.07137758455666 14.378698224852071, 34.95864666960997 15.177514792899409, 31.41885541464641 15.976331360946745, 24.89796769474455 16.775147928994084, 20.18846070382323 17.57396449704142, 20.07343127824933 18.37278106508876, 16.63581638333135 19.171597633136095, 16.842051027213962 19.970414201183434, 18.050529509273105 20.76923076923077, 21.879078041276443 21.56804733727811, 27.31397125903669 22.366863905325445, 26.834850536151546 23.16568047337278, 31.58089350292969 23.964497041420117, 32.18843781752637 24.763313609467456, 35.30541257066565 25.562130177514792, 39.99956517842672 26.36094674556213, 36.28419356236166 27.159763313609467, 46.5929622679172 27.958579881656807, 46.356890395273076 28.757396449704142, 49.87959294636822 29.55621301775148, 41.58457410401819 30.355029585798817, 44.99177622440773 31.153846153846157, 49.66477961788675 31.95266272189349, 45.854020922151506 32.751479289940825, 43.45256095029659 33.55029585798817, 48.767363213035296 34.349112426035504, 50.0 35.14792899408284, 48.11398642709581 35.94674556213018, 48.74391865690222 36.74556213017752, 40.02185805744535 37.54437869822485, 37.905191109625974 38.34319526627219, 35.8041276387884 39.142011834319526, 36.50281313820709 39.94082840236687, 44.02765560052851 40.7396449704142, 42.89552853800177 41.53846153846154, 40.52662397790654 42.337278106508876, 42.27439161557019 43.13609467455622, 38.1955006650227 43.93491124260355, 32.41836221437821 44.73372781065089, 26.433328521945747 45.532544378698226, 25.696489863601595 46.33136094674556, 25.32080743326397 47.1301775147929, 27.57763974636005 47.928994082840234, 27.875563197273205 48.72781065088758, 30.181351019058773 49.52662721893491, 35.688821756344424 50.32544378698225, 32.5797849547411 51.124260355029584, 30.312198092913583 51.92307692307693, 37.407526077607294 52.72189349112426, 34.05285168530246 53.5207100591716, 33.60794331476599 54.319526627218934, 35.074759582955444 55.11834319526627, 31.483474114913708 55.91715976331361, 34.724580662393464 56.71597633136094, 34.68587156691447 57.514792899408285, 38.41884093934277 58.31360946745562, 35.578349341404135 59.11242603550296, 39.1342110545595 59.91124260355029, 42.576010028675896 60.710059171597635, 43.22812772071957 61.50887573964497, 43.91603118602347 62.307692307692314, 43.935844578431535 63.10650887573964, 41.627632771310616 63.90532544378698, 46.89291640891716 64.70414201183432, 49.562500835419456 65.50295857988165, 46.815150596132554 66.30177514792899, 44.095993035900634 67.10059171597634, 43.51099380929383 67.89940828402366, 47.18611265472067 68.69822485207101, 42.221696966717666 69.49704142011834, 22.105478547673567 70.29585798816568, 29.362732876276304 71.09467455621302, 32.477992638083236 71.89349112426036, 26.662788710399393 72.6923076923077, 31.033807579527604 73.49112426035504, 31.223441348516946 74.28994082840237, 24.47233137624045 75.0887573964497, 29.519457960085116 75.88757396449704, 35.07524025088348 76.68639053254438, 35.332873390766274 77.48520710059172, 35.76909171014841 78.28402366863905, 46.54712421476534 79.0828402366864, 42.36420210430928 79.88165680473374, 40.7033327966633 80.68047337278107, 37.838682034211274 81.4792899408284, 38.72076912215482 82.27810650887574, 40.43151294201283 83.07692307692308, 37.655212618458755 83.87573964497041, 36.01252087619961 84.67455621301775, 30.940611386377455 85.4733727810651, 31.028552595016336 86.27218934911244, 30.532546105499293 87.07100591715975, 33.118501099530064 87.8698224852071, 31.766954035307336 88.66863905325444, 36.535236133297275 89.46745562130178, 33.97529373623579 90.26627218934911, 31.20117112976681 91.06508875739645, 26.235308675599985 91.8639053254438, 25.846606897765977 92.66272189349112, 25.338937966794127 93.46153846153845, 24.521403292494607 94.2603550295858, 24.961906273268962 95.05917159763314, 27.28208093003321 95.85798816568047, 25.74511229765158 96.65680473372781, 27.042661585862565 97.45562130177515, 21.20200788560469 98.2544378698225, 21.34411338905888 99.05325443786982, 27.00058088227698 99.85207100591715, 31.992381696674453 100.6508875739645, 29.023016167346626 101.44970414201183, 29.142368217777452 102.24852071005917, 32.7218356356825 103.04733727810651, 35.58482565817884 103.84615384615385, 35.174221657486505 104.64497041420118, 35.16559040408586 105.44378698224853, 31.724452784127955 106.24260355029585, 30.598574346620094 107.0414201183432, 33.9878897294232 107.84023668639053, 29.456214387274066 108.63905325443787, 33.26371185223677 109.43786982248521, 33.496745468605674 110.23668639053254, 31.372076218797947 111.03550295857988, 31.451637732392047 111.83431952662723, 31.451479639451712 112.63313609467457, 30.491437404322152 113.43195266272188, 31.037070030961612 114.23076923076923, 34.15541964051015 115.02958579881657, 31.823635404525696 115.82840236686391, 29.247388243054246 116.62721893491124, 28.55029073701693 117.42603550295858, 24.514429387173063 118.22485207100593, 20.396663202630265 119.02366863905324, 18.163406019235396 119.82248520710058, 8.2038079841537 120.62130177514793, 14.401603422820092 121.42011834319527, 20.941634667100683 122.2189349112426, 13.163697581846742 123.01775147928994, 24.353833727999056 123.81656804733728, 24.418659400996255 124.61538461538463, 27.887455695322828 125.41420118343194, 28.083236470130746 126.21301775147928, 27.006672263420743 127.01183431952663, 20.022012759573062 127.81065088757396, 16.59973973030075 128.60946745562129, 18.63785177112271 129.40828402366864, 20.103965105008008 130.20710059171597, 19.223153348769724 131.0059171597633, 16.416363807192237 131.80473372781066, 15.325956579806538 132.60355029585799, 6.619939969564129 133.40236686390534, 7.802813295220168 134.20118343195267, 8.057229500037568" fill="none" stroke="#ff3a33" stroke-width="1.25"/>

</svg>