<?xml version="1.0" standalone="no"?>
<!DOCTYPE svg PUBLIC "-//W3C//DTD SVG 1.1//EN" "http://www.w3.org/Graphics/SVG/1.1/DTD/svg11.dtd">

<svg width="135" height="50" viewBox="0 0 135 50" preserveAspectRatio="none" 
  xmlns="http://www.w3.org/2000/svg"
  xmlns:xlink="http://www.w3.org/1999/xlink">


<polyline points="0.0, 6.028285647551603 0.7988165680473372, 7.326432938630272 1.5976331360946745, 0.6354399578585057 2.396449704142012, 4.913474183474674 3.195266272189349, 10.47592565177963 3.994082840236686, 10.797293145057704 4.792899408284024, 8.718969083760667 5.591715976331361, 3.889411618565522 6.390532544378698, 5.57997212797122 7.189349112426036, 2.1882836570877746 7.988165680473372, 6.4969927965552055 8.78698224852071, 7.488076397612526 9.585798816568047, 5.764932303329026 10.384615384615385, 5.664734600414913 11.183431952662723, 4.435926089611465 11.982248520710058, 0.0 12.781065088757396, 1.948259029658666 13.579881656804734, 4.3779708492612714 14.378698224852071, 9.251308847173394 15.177514792899409, 8.411413385228897 15.976331360946745, 4.763733065574413 16.775147928994084, 4.501397889728726 17.57396449704142, 3.3836036532512175 18.37278106508876, 3.929692864294455 19.171597633136095, 3.9394801100838954 19.970414201183434, 3.6646817020768365 20.76923076923077, 3.2884777772670772 21.56804733727811, 0.975899731966611 22.366863905325445, 2.8856605850723924 23.16568047337278, 2.7689714318959013 23.964497041420117, 3.6990665527272024 24.763313609467456, 3.8755494533155512 25.562130177514792, 3.9215069880851674 26.36094674556213, 4.973449010359251 27.159763313609467, 7.935765326938197 27.958579881656807, 8.714899553963827 28.757396449704142, 8.033604916487889 29.55621301775148, 9.696326611397907 30.355029585798817, 11.121577702357936 31.153846153846157, 11.771927348851378 31.95266272189349, 12.959531939854394 32.751479289940825, 12.163513390547571 33.55029585798817, 12.050303265852824 34.349112426035504, 9.74029937866953 35.14792899408284, 3.144367402900927 35.94674556213018, 7.41129437928612 36.74556213017752, 10.619117072487724 37.54437869822485, 10.039706347203463 38.34319526627219, 9.61389013846502 39.142011834319526, 8.941556861650877 39.94082840236687, 10.928440745942074 40.7396449704142, 9.997458176361116 41.53846153846154, 14.318299144254256 42.337278106508876, 15.197316940793144 43.13609467455622, 14.226023929119918 43.93491124260355, 14.18011265586846 44.73372781065089, 16.175369476714714 45.532544378698226, 17.02700601308423 46.33136094674556, 17.158813911316294 47.1301775147929, 18.163967945296253 47.928994082840234, 18.196772598090906 48.72781065088758, 17.634511480727358 49.52662721893491, 18.598921790549007 50.32544378698225, 17.382036403820315 51.124260355029584, 16.242255862365784 51.92307692307693, 15.489161916244662 52.72189349112426, 17.901623638990856 53.5207100591716, 16.892156316227318 54.319526627218934, 17.767959673263952 55.11834319526627, 18.4844999744072 55.91715976331361, 19.89505767774755 56.71597633136094, 16.446697372649545 57.514792899408285, 17.045774038488933 58.31360946745562, 20.767405246749483 59.11242603550296, 20.44652915733959 59.91124260355029, 19.77141863056598 60.710059171597635, 21.24172444487738 61.50887573964497, 22.367387383363624 62.307692307692314, 21.99959562219709 63.10650887573964, 21.975557402031498 63.90532544378698, 22.12866715999926 64.70414201183432, 22.61969381234475 65.50295857988165, 22.60419686107046 66.30177514792899, 22.315726432506587 67.10059171597634, 20.49996965927064 67.89940828402366, 21.91470690540552 68.69822485207101, 21.94849534998427 69.49704142011834, 21.71425358543664 70.29585798816568, 22.68817597367723 71.09467455621302, 22.922686460954147 71.89349112426036, 22.72485898687566 72.6923076923077, 20.19987382698341 73.49112426035504, 22.75492963825464 74.28994082840237, 23.91249001667063 75.0887573964497, 25.989548397184738 75.88757396449704, 27.24070926690974 76.68639053254438, 30.921404205504093 77.48520710059172, 30.44455239347074 78.28402366863905, 30.824644428047783 79.0828402366864, 31.83317475399752 79.88165680473374, 31.98086882501429 80.68047337278107, 31.667315878452285 81.4792899408284, 31.109376042532112 82.27810650887574, 32.09505971232303 83.07692307692308, 31.24743401419775 83.87573964497041, 31.023304015257363 84.67455621301775, 31.667207308007768 85.4733727810651, 29.85109519411423 86.27218934911244, 29.417584942296454 87.07100591715975, 30.581235621162755 87.8698224852071, 29.895679094013712 88.66863905325444, 28.590688387603468 89.46745562130178, 31.13067380182407 90.26627218934911, 31.24863866942586 91.06508875739645, 31.77123126467616 91.8639053254438, 32.34393471763581 92.66272189349112, 34.06778237643119 93.46153846153845, 39.22996184653588 94.2603550295858, 41.26266702160334 95.05917159763314, 40.451151418016366 95.85798816568047, 41.43280126607223 96.65680473372781, 42.16982200569401 97.45562130177515, 39.458354538816764 98.2544378698225, 38.886406091221986 99.05325443786982, 41.28691440257434 99.85207100591715, 41.2506759420555 100.6508875739645, 39.96888547275141 101.44970414201183, 38.72595530813286 102.24852071005917, 38.06780835537125 103.04733727810651, 37.68754248854218 103.84615384615385, 38.76916365451009 104.64497041420118, 39.86741971699704 105.44378698224853, 40.654074363873285 106.24260355029585, 42.26806606223147 107.0414201183432, 40.67527127021399 107.84023668639053, 43.49705412993968 108.63905325443787, 42.734304951883956 109.43786982248521, 41.31002084932282 110.23668639053254, 41.80766613089059 111.03550295857988, 42.61037722047649 111.83431952662723, 44.03319610376486 112.63313609467457, 43.135975876912404 113.43195266272188, 42.87479839730744 114.23076923076923, 46.756913585804504 115.02958579881657, 46.47466851270569 115.82840236686391, 48.58978491566219 116.62721893491124, 48.43734514560536 117.42603550295858, 49.732057458637826 118.22485207100593, 50.0 119.02366863905324, 49.249682255334804 119.82248520710058, 48.9617787930768 120.62130177514793, 47.06160318939475 121.42011834319527, 48.80610917368025 122.2189349112426, 48.41781718884635 123.01775147928994, 48.42388197904465 123.81656804733728, 49.050285901643065 124.61538461538463, 49.400057476070344 125.41420118343194, 49.01393500011143 126.21301775147928, 48.21368688231769 127.01183431952663, 48.88812883473663 127.81065088757396, 48.47930661789256 128.60946745562129, 43.80709468759771 129.40828402366864, 41.57891549628475 130.20710059171597, 42.03326552518759 131.0059171597633, 43.74841275136973 131.80473372781066, 40.44614046452056 132.60355029585799, 39.6667439155199 133.40236686390534, 36.89500284275994 134.20118343195267, 32.62514035805528" fill="none" stroke="#ff3a33" stroke-width="1.25"/>

</svg>