<?xml version="1.0" standalone="no"?>
<!DOCTYPE svg PUBLIC "-//W3C//DTD SVG 1.1//EN" "http://www.w3.org/Graphics/SVG/1.1/DTD/svg11.dtd">

<svg width="135" height="50" viewBox="0 0 135 50" preserveAspectRatio="none" 
  xmlns="http://www.w3.org/2000/svg"
  xmlns:xlink="http://www.w3.org/1999/xlink">


<polyline points="0.0, 28.592099651367903 0.7988165680473372, 30.646680473963357 1.5976331360946745, 28.92561732955376 2.396449704142012, 31.560487637264355 3.195266272189349, 29.370859147928858 3.994082840236686, 29.508472154314486 4.792899408284024, 27.253317833859587 5.591715976331361, 27.160712082651656 6.390532544378698, 30.507317301945058 7.189349112426036, 32.3656345005317 7.988165680473372, 31.507057103848947 8.78698224852071, 30.663621462258888 9.585798816568047, 31.768468648333837 10.384615384615385, 27.332548318031602 11.183431952662723, 30.69482064762138 11.982248520710058, 39.44237315974315 12.781065088757396, 43.17984298098546 13.579881656804734, 43.369890486487456 14.378698224852071, 41.66076707846631 15.177514792899409, 39.23075626533137 15.976331360946745, 39.50234361256387 16.775147928994084, 39.80924970552556 17.57396449704142, 36.89597388662416 18.37278106508876, 36.639476561574654 19.171597633136095, 38.710800175065955 19.970414201183434, 39.30833818804438 20.76923076923077, 40.245672558046095 21.56804733727811, 39.65228555891969 22.366863905325445, 40.532328482993165 23.16568047337278, 42.75543949435476 23.964497041420117, 44.10226802489385 24.763313609467456, 45.65372972366769 25.562130177514792, 42.821385077205385 26.36094674556213, 46.26585682327712 27.159763313609467, 44.542538112489794 27.958579881656807, 46.319797799317115 28.757396449704142, 43.68873903666064 29.55621301775148, 45.00166057000256 30.355029585798817, 48.3822762321235 31.153846153846157, 47.71492231131929 31.95266272189349, 45.65129360260427 32.751479289940825, 48.81718247293883 33.55029585798817, 50.0 34.349112426035504, 47.46691644338721 35.14792899408284, 44.775021731185596 35.94674556213018, 43.01002220943283 36.74556213017752, 41.964776924132195 37.54437869822485, 42.649306251206056 38.34319526627219, 43.25016899827085 39.142011834319526, 46.17396742204918 39.94082840236687, 45.665986194568134 40.7396449704142, 44.29931308684203 41.53846153846154, 44.44225036193764 42.337278106508876, 43.31192562297021 43.13609467455622, 41.32167032235706 43.93491124260355, 40.81850713825852 44.73372781065089, 39.9891182647229 45.532544378698226, 39.163768143564646 46.33136094674556, 40.33402776210405 47.1301775147929, 41.42598747665161 47.928994082840234, 42.72454058026116 48.72781065088758, 44.730013213306606 49.52662721893491, 42.660239465972325 50.32544378698225, 42.84754759172609 51.124260355029584, 42.992552773675776 51.92307692307693, 41.96671073913854 52.72189349112426, 40.60129201091834 53.5207100591716, 41.34978791255371 54.319526627218934, 40.14977913883377 55.11834319526627, 43.15493094445297 55.91715976331361, 43.57683639938271 56.71597633136094, 45.438276796624244 57.514792899408285, 44.109952740784955 58.31360946745562, 44.406014310388784 59.11242603550296, 46.13546362454539 59.91124260355029, 47.22671479771816 60.710059171597635, 44.97083567735626 61.50887573964497, 44.63738184379987 62.307692307692314, 42.87242351347093 63.10650887573964, 44.39684961302465 63.90532544378698, 46.37287608500426 64.70414201183432, 46.495267907331915 65.50295857988165, 45.26342592557616 66.30177514792899, 44.80738719174893 67.10059171597634, 46.856508392171 67.89940828402366, 46.21678516792302 68.69822485207101, 44.6128451602842 69.49704142011834, 47.473186942082805 70.29585798816568, 49.22939794752296 71.09467455621302, 46.4106840323609 71.89349112426036, 45.42768815748687 72.6923076923077, 45.66578422568013 73.49112426035504, 44.46010436339009 74.28994082840237, 46.560171116301916 75.0887573964497, 46.88270260280073 75.88757396449704, 46.771547810877415 76.68639053254438, 45.83374552424023 77.48520710059172, 49.48680277012518 78.28402366863905, 48.01364505895586 79.0828402366864, 46.30263487317468 79.88165680473374, 43.37286704052987 80.68047337278107, 42.498017264258166 81.4792899408284, 42.63131581199013 82.27810650887574, 40.81329781438356 83.07692307692308, 41.589005298801794 83.87573964497041, 36.69405922669649 84.67455621301775, 33.43951758616328 85.4733727810651, 36.045626928755894 86.27218934911244, 37.89007671502149 87.07100591715975, 37.046490858539826 87.8698224852071, 37.386117261469224 88.66863905325444, 37.84408753557852 89.46745562130178, 37.390047687362944 90.26627218934911, 36.40244678604456 91.06508875739645, 36.92050038804718 91.8639053254438, 36.72356337176618 92.66272189349112, 36.588895820703584 93.46153846153845, 27.238320008289758 94.2603550295858, 32.80220625833296 95.05917159763314, 32.55215020822858 95.85798816568047, 36.043358316147064 96.65680473372781, 33.80703935230183 97.45562130177515, 33.48995000678307 98.2544378698225, 34.30295528100356 99.05325443786982, 36.34178265475237 99.85207100591715, 34.79327281487235 100.6508875739645, 35.016253365766055 101.44970414201183, 36.69574307487573 102.24852071005917, 35.84403034628286 103.04733727810651, 35.980401186756666 103.84615384615385, 35.30760280282345 104.64497041420118, 32.577557035737456 105.44378698224853, 34.0997063831848 106.24260355029585, 36.31502233631719 107.0414201183432, 34.85309018798976 107.84023668639053, 36.41625143824761 108.63905325443787, 36.62196057844673 109.43786982248521, 34.85512182595099 110.23668639053254, 34.8476330694224 111.03550295857988, 34.4003764188974 111.83431952662723, 33.25502435354613 112.63313609467457, 33.271882579903874 113.43195266272188, 33.7898676514548 114.23076923076923, 33.03132584443681 115.02958579881657, 33.133488531303804 115.82840236686391, 34.07435758981586 116.62721893491124, 33.80293173303517 117.42603550295858, 32.42756074071267 118.22485207100593, 31.96878191234205 119.02366863905324, 31.650889963465325 119.82248520710058, 29.197924998244268 120.62130177514793, 32.61897793162737 121.42011834319527, 31.716214408859784 122.2189349112426, 35.86297950122284 123.01775147928994, 32.872535169352176 123.81656804733728, 32.985652965640995 124.61538461538463, 32.283818736857924 125.41420118343194, 33.4563780908275 126.21301775147928, 30.825423261575168 127.01183431952663, 26.126601156082568 127.81065088757396, 23.615300578701927 128.60946745562129, 13.814965697677906 129.40828402366864, 0.0 130.20710059171597, 8.321511661021388 131.0059171597633, 11.877283472439652 131.80473372781066, 10.836833506623972 132.60355029585799, 7.087326154698593 133.40236686390534, 3.150454601732322 134.20118343195267, 1.5910701973530987" fill="none" stroke="#32ca5b" stroke-width="1.25"/>

</svg>