<?xml version="1.0" standalone="no"?>
<!DOCTYPE svg PUBLIC "-//W3C//DTD SVG 1.1//EN" "http://www.w3.org/Graphics/SVG/1.1/DTD/svg11.dtd">

<svg width="135" height="50" viewBox="0 0 135 50" preserveAspectRatio="none" 
  xmlns="http://www.w3.org/2000/svg"
  xmlns:xlink="http://www.w3.org/1999/xlink">


<polyline points="0.0, 37.140789093384655 0.7988165680473372, 39.64591960820948 1.5976331360946745, 38.9444736036144 2.396449704142012, 36.89335842166713 3.195266272189349, 36.82834262751097 3.994082840236686, 35.199262089490986 4.792899408284024, 34.411634943773336 5.591715976331361, 34.188301194479884 6.390532544378698, 38.01422575228244 7.189349112426036, 39.71915702615137 7.988165680473372, 40.32338372982496 8.78698224852071, 37.11585675199601 9.585798816568047, 34.32818747813668 10.384615384615385, 32.75773530986935 11.183431952662723, 33.74341079165386 11.982248520710058, 38.202877468208136 12.781065088757396, 40.029261709078014 13.579881656804734, 43.48344286187613 14.378698224852071, 44.53590534134737 15.177514792899409, 44.097433341327665 15.976331360946745, 41.81860776488748 16.775147928994084, 34.77739235191207 17.57396449704142, 34.34431747625327 18.37278106508876, 34.76020337946188 19.171597633136095, 35.20403242994322 19.970414201183434, 36.80927124460597 20.76923076923077, 37.359196055695485 21.56804733727811, 37.29054823865913 22.366863905325445, 39.55876070414361 23.16568047337278, 42.124423271257236 23.964497041420117, 44.822688601976324 24.763313609467456, 44.88821944735962 25.562130177514792, 42.71870632899329 26.36094674556213, 42.976927581550754 27.159763313609467, 43.891579640444256 27.958579881656807, 45.35326226938552 28.757396449704142, 44.431125320514475 29.55621301775148, 44.578493287578816 30.355029585798817, 45.74228570269399 31.153846153846157, 47.8710780986103 31.95266272189349, 47.211125937820015 32.751479289940825, 50.0 33.55029585798817, 48.34907024210974 34.349112426035504, 47.970329246508456 35.14792899408284, 48.226538837114035 35.94674556213018, 41.19179054465122 36.74556213017752, 34.606970055686354 37.54437869822485, 31.437776556987572 38.34319526627219, 30.243809441593328 39.142011834319526, 32.29132433629941 39.94082840236687, 33.262718703916136 40.7396449704142, 33.21915142194846 41.53846153846154, 34.90909426531716 42.337278106508876, 34.23894687602451 43.13609467455622, 33.12868707353017 43.93491124260355, 32.609812764176056 44.73372781065089, 32.627585698787065 45.532544378698226, 31.69830866556738 46.33136094674556, 31.2570122426095 47.1301775147929, 30.90434658793629 47.928994082840234, 29.602095598777783 48.72781065088758, 28.240526935947496 49.52662721893491, 26.04974645851466 50.32544378698225, 28.118678283258074 51.124260355029584, 28.896244260869615 51.92307692307693, 32.020862920388645 52.72189349112426, 33.75808590513854 53.5207100591716, 34.496996404749304 54.319526627218934, 33.51919243469992 55.11834319526627, 36.7141047332503 55.91715976331361, 37.87456258965158 56.71597633136094, 39.86795360273693 57.514792899408285, 43.45871104917967 58.31360946745562, 39.90942337642803 59.11242603550296, 39.89106675297386 59.91124260355029, 39.2718802509025 60.710059171597635, 38.63373570126634 61.50887573964497, 38.41640421586707 62.307692307692314, 36.7730684629715 63.10650887573964, 37.17536197695425 63.90532544378698, 39.003968892114045 64.70414201183432, 38.71427547344803 65.50295857988165, 38.340776653568774 66.30177514792899, 38.49339561866783 67.10059171597634, 39.78951805994623 67.89940828402366, 38.28181280819952 68.69822485207101, 36.65983719982029 69.49704142011834, 37.24462545839098 70.29585798816568, 41.6083246481255 71.09467455621302, 40.41406123975814 71.89349112426036, 40.32157442990296 72.6923076923077, 39.94466211961141 73.49112426035504, 40.79559059572296 74.28994082840237, 42.03575206712104 75.0887573964497, 42.10297524721782 75.88757396449704, 43.5060054011676 76.68639053254438, 43.51130405004488 77.48520710059172, 44.72628591722796 78.28402366863905, 44.878784845758155 79.0828402366864, 45.268005248299865 79.88165680473374, 45.24256583892912 80.68047337278107, 44.041142558126005 81.4792899408284, 44.05079535924799 82.27810650887574, 42.890723047311326 83.07692307692308, 41.99054278912838 83.87573964497041, 40.09861392155491 84.67455621301775, 38.108150003897975 85.4733727810651, 37.34859199570904 86.27218934911244, 36.41877037043589 87.07100591715975, 35.98316523365634 87.8698224852071, 29.036507356014702 88.66863905325444, 28.10727823405192 89.46745562130178, 29.61615368224581 90.26627218934911, 29.786092770773813 91.06508875739645, 34.35062223621892 91.8639053254438, 34.84323712723993 92.66272189349112, 32.30270530738253 93.46153846153845, 33.47975781014622 94.2603550295858, 33.727541615069434 95.05917159763314, 33.38357535320893 95.85798816568047, 33.99043692814139 96.65680473372781, 32.98578596514769 97.45562130177515, 33.85160203936499 98.2544378698225, 33.82446772757037 99.05325443786982, 35.488287478657824 99.85207100591715, 34.85895323886322 100.6508875739645, 34.22784884583309 101.44970414201183, 33.64138213444825 102.24852071005917, 33.15558928524745 103.04733727810651, 32.880029264224284 103.84615384615385, 32.698175407579136 104.64497041420118, 30.823838976140078 105.44378698224853, 29.75665342659642 106.24260355029585, 29.546177445192452 107.0414201183432, 29.869702131808356 107.84023668639053, 29.654921095760873 108.63905325443787, 29.98698341171527 109.43786982248521, 32.335096653501935 110.23668639053254, 32.517070192740924 111.03550295857988, 32.85778880692434 111.83431952662723, 32.81560128475386 112.63313609467457, 32.38969171482943 113.43195266272188, 31.826679174000994 114.23076923076923, 32.38263891470909 115.02958579881657, 32.990232765612795 115.82840236686391, 33.9655714835486 116.62721893491124, 34.26191714009477 117.42603550295858, 33.52873263763087 118.22485207100593, 33.09174940208528 119.02366863905324, 32.97334395740203 119.82248520710058, 32.19770652648094 120.62130177514793, 34.254218220013854 121.42011834319527, 34.98226807149162 122.2189349112426, 36.86341909224348 123.01775147928994, 36.7942028980659 123.81656804733728, 36.90910777347345 124.61538461538463, 38.38061701007038 125.41420118343194, 36.25148105121273 126.21301775147928, 35.810314022742716 127.01183431952663, 31.82067559214483 127.81065088757396, 18.44392495679363 128.60946745562129, 16.259034041394095 129.40828402366864, 14.386810907541761 130.20710059171597, 10.117442622262097 131.0059171597633, 3.2110295423075628 131.80473372781066, 1.3057810644035583 132.60355029585799, 0.0 133.40236686390534, 1.719616331356115 134.20118343195267, 0.22719841985328298" fill="none" stroke="#32ca5b" stroke-width="1.25"/>

</svg>