<?xml version="1.0" standalone="no"?>
<!DOCTYPE svg PUBLIC "-//W3C//DTD SVG 1.1//EN" "http://www.w3.org/Graphics/SVG/1.1/DTD/svg11.dtd">

<svg width="135" height="50" viewBox="0 0 135 50" preserveAspectRatio="none" 
  xmlns="http://www.w3.org/2000/svg"
  xmlns:xlink="http://www.w3.org/1999/xlink">


<polyline points="0.0, 1.7474539950536205 0.7988165680473372, 5.561943839277986 1.5976331360946745, 1.7779798208597857 2.396449704142012, 1.278371487640325 3.195266272189349, 10.363520248531412 3.994082840236686, 9.197003543230972 4.792899408284024, 6.110921415496643 5.591715976331361, 8.461483052225152 6.390532544378698, 11.923901831303906 7.189349112426036, 16.37713745839717 7.988165680473372, 9.521333197613277 8.78698224852071, 6.953328911077865 9.585798816568047, 10.12722455489279 10.384615384615385, 3.8125378747708534 11.183431952662723, 17.587536067698213 11.982248520710058, 32.14380565931714 12.781065088757396, 37.04438470862334 13.579881656804734, 35.69334920165158 14.378698224852071, 30.186365039716122 15.177514792899409, 24.21884071603935 15.976331360946745, 21.481484472107965 16.775147928994084, 18.0612168170351 17.57396449704142, 15.894772518121448 18.37278106508876, 15.423103882997143 19.171597633136095, 18.79342739613527 19.970414201183434, 19.081658119773714 20.76923076923077, 20.775152326601557 21.56804733727811, 15.022236296732192 22.366863905325445, 16.937661225771546 23.16568047337278, 17.861632863967145 23.964497041420117, 20.492791164817568 24.763313609467456, 27.891602426861407 25.562130177514792, 24.140076134287664 26.36094674556213, 41.478228967030766 27.159763313609467, 37.96576147865474 27.958579881656807, 41.05785644967423 28.757396449704142, 33.7587356180512 29.55621301775148, 37.14069595609907 30.355029585798817, 45.21449342705396 31.153846153846157, 41.30071091724581 31.95266272189349, 37.527096242011524 32.751479289940825, 45.80048221593637 33.55029585798817, 50.0 34.349112426035504, 42.91186728428191 35.14792899408284, 43.49140610110169 35.94674556213018, 34.350944085878545 36.74556213017752, 29.855141156492394 37.54437869822485, 26.71834977289191 38.34319526627219, 30.812565378980416 39.142011834319526, 42.13552286893949 39.94082840236687, 36.059877896887244 40.7396449704142, 31.412976747642208 41.53846153846154, 34.9642168054591 42.337278106508876, 31.662666284094847 43.13609467455622, 24.831025820206516 43.93491124260355, 20.61010678535447 44.73372781065089, 16.195349978574907 45.532544378698226, 17.52031204798529 46.33136094674556, 17.70758026740253 47.1301775147929, 15.131029760864731 47.928994082840234, 17.21988251552983 48.72781065088758, 24.901272678170514 49.52662721893491, 20.614238046971284 50.32544378698225, 17.10600482951558 51.124260355029584, 20.492998043327333 51.92307692307693, 17.614647288664997 52.72189349112426, 16.184932910667992 53.5207100591716, 18.65594031174206 54.319526627218934, 13.217823792528579 55.11834319526627, 18.570820048259492 55.91715976331361, 18.64825807377796 56.71597633136094, 22.77479953374108 57.514792899408285, 18.43336467094797 58.31360946745562, 21.41034471029452 59.11242603550296, 26.313230706118386 59.91124260355029, 28.922517066468334 60.710059171597635, 26.774405131490475 61.50887573964497, 26.79903783005453 62.307692307692314, 18.827951219762216 63.10650887573964, 25.82344577264654 63.90532544378698, 32.05917253119973 64.70414201183432, 26.121768312414563 65.50295857988165, 19.49775102322044 66.30177514792899, 21.944418151018876 67.10059171597634, 25.046420632245255 67.89940828402366, 19.796853039643487 68.69822485207101, 17.319483811432907 69.49704142011834, 18.687637767079444 70.29585798816568, 22.463034992834984 71.09467455621302, 17.74661548862529 71.89349112426036, 19.07884087172178 72.6923076923077, 17.14449051300231 73.49112426035504, 16.374491030467595 74.28994082840237, 18.77664530509643 75.0887573964497, 26.966853586108407 75.88757396449704, 25.479064863930077 76.68639053254438, 23.19418677106198 77.48520710059172, 36.40605387268392 78.28402366863905, 27.40151464223195 79.0828402366864, 22.014189992216796 79.88165680473374, 17.418301947705114 80.68047337278107, 17.591276262658816 81.4792899408284, 19.287742779961636 82.27810650887574, 12.469585095953017 83.07692307692308, 14.363878861009482 83.87573964497041, 11.328952430778331 84.67455621301775, 13.533757429733544 85.4733727810651, 8.813007604361323 86.27218934911244, 13.747142974922264 87.07100591715975, 11.07482333871142 87.8698224852071, 18.222941956769457 88.66863905325444, 18.531655790404162 89.46745562130178, 15.93251856306283 90.26627218934911, 11.165879093452197 91.06508875739645, 14.926856062501495 91.8639053254438, 13.540267939741318 92.66272189349112, 15.667920934037028 93.46153846153845, 14.131353450756858 94.2603550295858, 16.782906932993903 95.05917159763314, 14.765288802150797 95.85798816568047, 15.338055102600137 96.65680473372781, 12.725382532463241 97.45562130177515, 15.93247035571552 98.2544378698225, 18.523693980966392 99.05325443786982, 20.038880247488905 99.85207100591715, 19.206677296718 100.6508875739645, 15.946604472025328 101.44970414201183, 19.394124516961895 102.24852071005917, 22.76844788894622 103.04733727810651, 22.34213214320887 103.84615384615385, 24.307245560103723 104.64497041420118, 20.39407171591386 105.44378698224853, 20.035768191638816 106.24260355029585, 16.86656306069951 107.0414201183432, 16.229441509069133 107.84023668639053, 17.61918584171521 108.63905325443787, 19.60216501183423 109.43786982248521, 17.632932823812013 110.23668639053254, 19.288746037294967 111.03550295857988, 16.498663165038955 111.83431952662723, 15.972507815152625 112.63313609467457, 14.91334398989856 113.43195266272188, 12.979882580455063 114.23076923076923, 12.00416482759323 115.02958579881657, 10.692458645943017 115.82840236686391, 12.117629450823653 116.62721893491124, 16.243869740357695 117.42603550295858, 9.911189139591862 118.22485207100593, 9.44398476245134 119.02366863905324, 9.930344159038432 119.82248520710058, 7.16123065831962 120.62130177514793, 14.42797467915507 121.42011834319527, 14.395297008638117 122.2189349112426, 28.53764140255465 123.01775147928994, 22.125573790825428 123.81656804733728, 22.267461005710924 124.61538461538463, 21.55611276893836 125.41420118343194, 22.91009383281495 126.21301775147928, 15.76688422177868 127.01183431952663, 8.14950557410005 127.81065088757396, 3.1336820397696816 128.60946745562129, 0.8805411287371027 129.40828402366864, 4.619309904931042 130.20710059171597, 0.0 131.0059171597633, 1.695882681971291 131.80473372781066, 0.09865741137255687 132.60355029585799, 0.9704232880013972 133.40236686390534, 2.391466225461177 134.20118343195267, 0.11079750623150057" fill="none" stroke="#32ca5b" stroke-width="1.25"/>

</svg>