<?xml version="1.0" standalone="no"?>
<!DOCTYPE svg PUBLIC "-//W3C//DTD SVG 1.1//EN" "http://www.w3.org/Graphics/SVG/1.1/DTD/svg11.dtd">

<svg width="135" height="50" viewBox="0 0 135 50" preserveAspectRatio="none" 
  xmlns="http://www.w3.org/2000/svg"
  xmlns:xlink="http://www.w3.org/1999/xlink">


<polyline points="0.0, 35.77494302247556 0.7988165680473372, 37.178221325467874 1.5976331360946745, 37.865262567330035 2.396449704142012, 37.06199843511964 3.195266272189349, 36.27289716405788 3.994082840236686, 35.66691648864779 4.792899408284024, 34.8111548542452 5.591715976331361, 34.739057953490374 6.390532544378698, 33.53466310536633 7.189349112426036, 31.352388057221592 7.988165680473372, 28.864544261936132 8.78698224852071, 30.91320817732593 9.585798816568047, 31.23533274533435 10.384615384615385, 27.131468256233372 11.183431952662723, 29.555914428800506 11.982248520710058, 31.81711213779873 12.781065088757396, 29.96062000360483 13.579881656804734, 33.402119166118126 14.378698224852071, 32.493208588312484 15.177514792899409, 32.1728723973507 15.976331360946745, 30.836151058170863 16.775147928994084, 30.587463647958916 17.57396449704142, 30.425835785822564 18.37278106508876, 29.827208207161952 19.171597633136095, 30.84691649887987 19.970414201183434, 29.606746824902636 20.76923076923077, 28.109957282317914 21.56804733727811, 29.443882888365053 22.366863905325445, 29.76206352309082 23.16568047337278, 25.650413710476062 23.964497041420117, 23.113623036288146 24.763313609467456, 23.717998628988692 25.562130177514792, 25.15372275169021 26.36094674556213, 23.876493294854424 27.159763313609467, 20.834365968568804 27.958579881656807, 22.937302320014144 28.757396449704142, 23.820717605383702 29.55621301775148, 23.779821569769165 30.355029585798817, 24.25080515280514 31.153846153846157, 26.414872061478402 31.95266272189349, 25.564370131229204 32.751479289940825, 25.44891955812717 33.55029585798817, 26.037740925733043 34.349112426035504, 26.752594636382334 35.14792899408284, 25.942840834201764 35.94674556213018, 26.074413293625636 36.74556213017752, 25.504886512591753 37.54437869822485, 25.275522187555794 38.34319526627219, 24.95006838067218 39.142011834319526, 24.64591002979195 39.94082840236687, 21.88797435989658 40.7396449704142, 22.6871132449709 41.53846153846154, 18.775327630308766 42.337278106508876, 19.63331137637586 43.13609467455622, 21.544485146881648 43.93491124260355, 21.232469521271522 44.73372781065089, 22.177245901643833 45.532544378698226, 21.36801241928497 46.33136094674556, 20.562310194581716 47.1301775147929, 21.602949873399044 47.928994082840234, 21.441063592947057 48.72781065088758, 21.94747648350758 49.52662721893491, 23.110940722374636 50.32544378698225, 22.789702798658215 51.124260355029584, 22.190661650521797 51.92307692307693, 22.44101173390341 52.72189349112426, 21.76536708355045 53.5207100591716, 21.682028843888336 54.319526627218934, 21.597554657389644 55.11834319526627, 21.489715519685067 55.91715976331361, 22.0218743950312 56.71597633136094, 21.91314451172123 57.514792899408285, 22.193640947291748 58.31360946745562, 19.895368382527852 59.11242603550296, 20.380277636206852 59.91124260355029, 21.147757845833947 60.710059171597635, 21.758010763951468 61.50887573964497, 12.903374736839412 62.307692307692314, 12.462893325864586 63.10650887573964, 15.596526851664521 63.90532544378698, 15.229610968660062 64.70414201183432, 12.9301035657585 65.50295857988165, 12.091049557546132 66.30177514792899, 12.726604896481108 67.10059171597634, 12.334137726475452 67.89940828402366, 13.330298595127537 68.69822485207101, 13.713180595805685 69.49704142011834, 11.762865196250276 70.29585798816568, 13.62075325060228 71.09467455621302, 10.458559799867743 71.89349112426036, 11.68409994709872 72.6923076923077, 11.550352852252626 73.49112426035504, 11.113406038745357 74.28994082840237, 11.295557278372819 75.0887573964497, 11.646770041346155 75.88757396449704, 10.484703310090984 76.68639053254438, 9.58130531061613 77.48520710059172, 7.27331524631978 78.28402366863905, 7.548945936122731 79.0828402366864, 4.057043591212884 79.88165680473374, 0.0 80.68047337278107, 3.845452926425748 81.4792899408284, 5.40071169186937 82.27810650887574, 7.334897547253513 83.07692307692308, 7.575103147776881 83.87573964497041, 15.936535207899002 84.67455621301775, 19.829609408744204 85.4733727810651, 26.676332813542803 86.27218934911244, 28.504943760281094 87.07100591715975, 28.064308185816127 87.8698224852071, 26.99216940514832 88.66863905325444, 27.100938773420534 89.46745562130178, 34.16911395104924 90.26627218934911, 29.785186825350024 91.06508875739645, 36.75104310118094 91.8639053254438, 38.31839403417173 92.66272189349112, 36.17356864238096 93.46153846153845, 40.60123701244252 94.2603550295858, 42.215787162260874 95.05917159763314, 40.21549663482155 95.85798816568047, 40.54804581442595 96.65680473372781, 40.89876938746159 97.45562130177515, 44.45904422213772 98.2544378698225, 43.72624681814256 99.05325443786982, 45.56206776768833 99.85207100591715, 47.75456507506134 100.6508875739645, 48.52524488821208 101.44970414201183, 49.125690741596785 102.24852071005917, 49.974000914594505 103.04733727810651, 50.0 103.84615384615385, 48.90352679630779 104.64497041420118, 46.915250991025815 105.44378698224853, 47.17354055618584 106.24260355029585, 48.20128853266317 107.0414201183432, 47.924293426405264 107.84023668639053, 46.87695401817918 108.63905325443787, 46.77004322012016 109.43786982248521, 47.85783322819583 110.23668639053254, 46.442614098343775 111.03550295857988, 46.95250417543883 111.83431952662723, 46.25796846482988 112.63313609467457, 46.724251643673846 113.43195266272188, 47.4781486396539 114.23076923076923, 47.2243809427537 115.02958579881657, 48.29748989919045 115.82840236686391, 47.41449248474171 116.62721893491124, 48.29402665241929 117.42603550295858, 48.656251714162885 118.22485207100593, 48.22813824601193 119.02366863905324, 47.83419118657829 119.82248520710058, 47.432867170062984 120.62130177514793, 47.74812865421813 121.42011834319527, 47.46522375426987 122.2189349112426, 47.55619599373322 123.01775147928994, 48.4895832227491 123.81656804733728, 48.23842551871989 124.61538461538463, 48.4697587354202 125.41420118343194, 48.42627931207284 126.21301775147928, 48.41442701262103 127.01183431952663, 48.11389519200127 127.81065088757396, 48.143509431782434 128.60946745562129, 48.15403461051992 129.40828402366864, 48.09789667100004 130.20710059171597, 48.11995469234244 131.0059171597633, 48.01233183309607 131.80473372781066, 47.76078910494678 132.60355029585799, 47.72968431619044 133.40236686390534, 47.86171649999238 134.20118343195267, 47.352172888609765" fill="none" stroke="#ff3a33" stroke-width="1.25"/>

</svg>