<?xml version="1.0" standalone="no"?>
<!DOCTYPE svg PUBLIC "-//W3C//DTD SVG 1.1//EN" "http://www.w3.org/Graphics/SVG/1.1/DTD/svg11.dtd">

<svg width="135" height="50" viewBox="0 0 135 50" preserveAspectRatio="none" 
  xmlns="http://www.w3.org/2000/svg"
  xmlns:xlink="http://www.w3.org/1999/xlink">


<polyline points="0.0, 26.19509742818516 0.7988165680473372, 27.128169086732 1.5976331360946745, 22.51719053433066 2.396449704142012, 26.04734230104165 3.195266272189349, 22.2056619780534 3.994082840236686, 21.775566245659743 4.792899408284024, 20.292094560349494 5.591715976331361, 21.110206107448498 6.390532544378698, 23.077389691551634 7.189349112426036, 26.351422143702685 7.988165680473372, 20.32871548181941 8.78698224852071, 16.835478658467277 9.585798816568047, 17.738817988463634 10.384615384615385, 15.911038424252085 11.183431952662723, 25.77390330375364 11.982248520710058, 38.65695576478462 12.781065088757396, 44.02540536728738 13.579881656804734, 42.8053514939252 14.378698224852071, 40.745993775531915 15.177514792899409, 33.5279373006981 15.976331360946745, 33.89660891573384 16.775147928994084, 33.00005646488163 17.57396449704142, 31.31264792157013 18.37278106508876, 27.36714402829622 19.171597633136095, 28.77219027908383 19.970414201183434, 29.806628594795438 20.76923076923077, 30.68959654589755 21.56804733727811, 28.45597401030397 22.366863905325445, 32.19998922336415 23.16568047337278, 33.13212024830656 23.964497041420117, 37.884317327053594 24.763313609467456, 39.12466655015109 25.562130177514792, 36.4731708012627 26.36094674556213, 44.265180883060594 27.159763313609467, 43.8899660276091 27.958579881656807, 46.29164417444024 28.757396449704142, 42.693116999055924 29.55621301775148, 44.45853438918172 30.355029585798817, 49.04221587373952 31.153846153846157, 46.20854111875383 31.95266272189349, 44.221689140260715 32.751479289940825, 48.21228740092589 33.55029585798817, 50.0 34.349112426035504, 47.589293572089595 35.14792899408284, 49.242915476842924 35.94674556213018, 43.33774812315484 36.74556213017752, 43.034536394637776 37.54437869822485, 40.25148935986849 38.34319526627219, 40.05716508681555 39.142011834319526, 44.64683501907968 39.94082840236687, 44.00137018474071 40.7396449704142, 41.88447740908094 41.53846153846154, 43.55977999832729 42.337278106508876, 39.690604662727694 43.13609467455622, 32.32644482190407 43.93491124260355, 31.732506978314294 44.73372781065089, 30.934026379963104 45.532544378698226, 29.092927908883226 46.33136094674556, 32.33870134111837 47.1301775147929, 31.233524067590952 47.928994082840234, 32.72127302000683 48.72781065088758, 38.87608492440131 49.52662721893491, 34.43091773986013 50.32544378698225, 33.434808065563544 51.124260355029584, 36.502227054019464 51.92307692307693, 34.167792932007515 52.72189349112426, 33.30045511122531 53.5207100591716, 34.040493114734105 54.319526627218934, 28.549721374350668 55.11834319526627, 32.48095249314427 55.91715976331361, 31.642786764006875 56.71597633136094, 34.31090456506951 57.514792899408285, 31.008789160969307 58.31360946745562, 33.57991293537357 59.11242603550296, 38.267417754100435 59.91124260355029, 39.84077381996949 60.710059171597635, 37.6081718866026 61.50887573964497, 37.997391944338375 62.307692307692314, 30.57668862476217 63.10650887573964, 33.7422476356731 63.90532544378698, 30.823238563153936 64.70414201183432, 28.688122179836572 65.50295857988165, 23.966290262987663 66.30177514792899, 25.507437301394365 67.10059171597634, 26.75655317348735 67.89940828402366, 25.11151927636371 68.69822485207101, 26.901887225066112 69.49704142011834, 31.644624423643503 70.29585798816568, 36.17976890184521 71.09467455621302, 28.831084403967118 71.89349112426036, 29.935063686630727 72.6923076923077, 29.49159165484968 73.49112426035504, 27.91908099639 74.28994082840237, 27.14373771436246 75.0887573964497, 31.46685660144586 75.88757396449704, 27.72049571482772 76.68639053254438, 26.341193329509228 77.48520710059172, 31.275391193749797 78.28402366863905, 29.105317156641654 79.0828402366864, 26.533360342416408 79.88165680473374, 26.184548398344337 80.68047337278107, 26.132688654580967 81.4792899408284, 24.544588497094498 82.27810650887574, 22.162108737581992 83.07692307692308, 21.096962126635294 83.87573964497041, 19.431921340251694 84.67455621301775, 18.95637361713479 85.4733727810651, 15.49831890223817 86.27218934911244, 18.14632287982513 87.07100591715975, 19.04169312333839 87.8698224852071, 22.6479012025036 88.66863905325444, 23.553624143122853 89.46745562130178, 20.108977931640833 90.26627218934911, 17.285775214223435 91.06508875739645, 19.33417966143004 91.8639053254438, 18.14261257160417 92.66272189349112, 16.936140981028384 93.46153846153845, 16.4619585876979 94.2603550295858, 16.331837771995577 95.05917159763314, 17.960852287418742 95.85798816568047, 18.473718869092625 96.65680473372781, 17.193524158987806 97.45562130177515, 19.376234245425966 98.2544378698225, 20.345287825176964 99.05325443786982, 22.558348481064023 99.85207100591715, 23.38859901261736 100.6508875739645, 21.41349899204508 101.44970414201183, 23.113662669570438 102.24852071005917, 26.513346626165212 103.04733727810651, 24.608960938551096 103.84615384615385, 24.23996023249646 104.64497041420118, 23.670195899069782 105.44378698224853, 19.96006576803671 106.24260355029585, 16.806872075508345 107.0414201183432, 17.45130632550154 107.84023668639053, 20.31583784136693 108.63905325443787, 20.556936994933842 109.43786982248521, 17.71152796021104 110.23668639053254, 19.10593990533834 111.03550295857988, 20.19836218390736 111.83431952662723, 20.247455083405296 112.63313609467457, 19.46924071957182 113.43195266272188, 15.861231518546829 114.23076923076923, 15.661931089585583 115.02958579881657, 16.591019462753223 115.82840236686391, 18.731672040886696 116.62721893491124, 20.486192947760195 117.42603550295858, 18.64206089599653 118.22485207100593, 15.67165818650704 119.02366863905324, 14.985818558830765 119.82248520710058, 11.400801121026793 120.62130177514793, 16.26369520697 121.42011834319527, 13.224412710247114 122.2189349112426, 25.102223368656794 123.01775147928994, 23.06718132435267 123.81656804733728, 21.55969736841388 124.61538461538463, 20.973401563733248 125.41420118343194, 21.528768402001212 126.21301775147928, 15.729562666283309 127.01183431952663, 7.401828896808911 127.81065088757396, 3.2174668219797744 128.60946745562129, 2.2528065134396353 129.40828402366864, 2.102253460455419 130.20710059171597, 2.269288318226967 131.0059171597633, 0.0 131.80473372781066, 2.4676575657268014 132.60355029585799, 1.299428522706511 133.40236686390534, 2.9525037117180064 134.20118343195267, 4.4300810357467055" fill="none" stroke="#32ca5b" stroke-width="1.25"/>

</svg>