<?xml version="1.0" standalone="no"?>
<!DOCTYPE svg PUBLIC "-//W3C//DTD SVG 1.1//EN" "http://www.w3.org/Graphics/SVG/1.1/DTD/svg11.dtd">

<svg width="135" height="50" viewBox="0 0 135 50" preserveAspectRatio="none" 
  xmlns="http://www.w3.org/2000/svg"
  xmlns:xlink="http://www.w3.org/1999/xlink">


<polyline points="0.0, 43.58089467137659 0.7988165680473372, 42.85779126345249 1.5976331360946745, 43.85849239026175 2.396449704142012, 41.39627508672368 3.195266272189349, 42.68709600556965 3.994082840236686, 40.904225000867264 4.792899408284024, 39.00934243008755 5.591715976331361, 38.73130977434014 6.390532544378698, 40.278137341329455 7.189349112426036, 41.79963971055729 7.988165680473372, 43.186956768530386 8.78698224852071, 42.53786463502962 9.585798816568047, 39.653131517509166 10.384615384615385, 40.913303289173975 11.183431952662723, 37.77416543868966 11.982248520710058, 44.166525112934124 12.781065088757396, 48.73301988359189 13.579881656804734, 50.0 14.378698224852071, 47.851823771005876 15.177514792899409, 46.85611216827958 15.976331360946745, 44.00201331123001 16.775147928994084, 45.328170044056435 17.57396449704142, 42.67163149610319 18.37278106508876, 39.348417923504066 19.171597633136095, 38.826963526418304 19.970414201183434, 37.91786804991805 20.76923076923077, 36.166626063279 21.56804733727811, 34.78526210826229 22.366863905325445, 34.12487619688874 23.16568047337278, 34.95880283390282 23.964497041420117, 36.06993255466599 24.763313609467456, 38.86686555606274 25.562130177514792, 41.07670360446048 26.36094674556213, 38.97635659589147 27.159763313609467, 43.42462424445554 27.958579881656807, 41.42611928850508 28.757396449704142, 38.81509040680493 29.55621301775148, 28.1772314743428 30.355029585798817, 20.36869673470771 31.153846153846157, 29.91950664543619 31.95266272189349, 35.59821916225992 32.751479289940825, 38.923249667305654 33.55029585798817, 38.372410316026695 34.349112426035504, 37.11774801124716 35.14792899408284, 30.83588361280505 35.94674556213018, 30.903348075626397 36.74556213017752, 13.83241259033725 37.54437869822485, 7.363411414855121 38.34319526627219, 4.100633556762228 39.142011834319526, 9.3223671441186 39.94082840236687, 17.515867543468826 40.7396449704142, 23.231169476246798 41.53846153846154, 18.023008413987334 42.337278106508876, 15.753806800717143 43.13609467455622, 13.273652941434278 43.93491124260355, 10.571842884983413 44.73372781065089, 9.419289882416992 45.532544378698226, 6.672664287189295 46.33136094674556, 7.598542198890228 47.1301775147929, 12.842283970401144 47.928994082840234, 9.57625594599733 48.72781065088758, 7.95410577806573 49.52662721893491, 11.058144989873464 50.32544378698225, 10.902163529005765 51.124260355029584, 10.550691227879105 51.92307692307693, 13.946341473414522 52.72189349112426, 13.26376834489936 53.5207100591716, 12.003527686678158 54.319526627218934, 12.435204635007034 55.11834319526627, 10.444795368119411 55.91715976331361, 14.312644434366204 56.71597633136094, 13.899457486032102 57.514792899408285, 15.34082975797916 58.31360946745562, 12.19185572575782 59.11242603550296, 17.305863618202384 59.91124260355029, 18.38794969402458 60.710059171597635, 17.58715174261658 61.50887573964497, 20.659474549315735 62.307692307692314, 20.092177317034572 63.10650887573964, 20.72905753128 63.90532544378698, 25.672332798881293 64.70414201183432, 28.777059626510955 65.50295857988165, 27.48198037877127 66.30177514792899, 28.284579953165274 67.10059171597634, 27.651004614950235 67.89940828402366, 29.83979725828657 68.69822485207101, 26.666828449899615 69.49704142011834, 21.876599643935556 70.29585798816568, 22.135496809929688 71.09467455621302, 22.798071406322943 71.89349112426036, 20.946427705502465 72.6923076923077, 20.156201873320363 73.49112426035504, 21.14010443466814 74.28994082840237, 20.875842639776508 75.0887573964497, 21.239520874149438 75.88757396449704, 23.23299516937581 76.68639053254438, 23.007368933689172 77.48520710059172, 20.949865834939747 78.28402366863905, 24.323045854691294 79.0828402366864, 15.587009447559414 79.88165680473374, 15.669473657811627 80.68047337278107, 15.74435632754694 81.4792899408284, 18.018248065669074 82.27810650887574, 20.319197874776236 83.07692307692308, 17.309157685267603 83.87573964497041, 18.246304602189216 84.67455621301775, 17.590103929286986 85.4733727810651, 18.003662253817616 86.27218934911244, 19.2605394809705 87.07100591715975, 19.93313100951337 87.8698224852071, 18.10227253326545 88.66863905325444, 17.246964562748836 89.46745562130178, 14.876713254710364 90.26627218934911, 13.891019603258394 91.06508875739645, 11.923783271092258 91.8639053254438, 11.108507357125145 92.66272189349112, 4.905063073563895 93.46153846153845, 3.214591577685973 94.2603550295858, 3.8930628339575493 95.05917159763314, 7.889273322608196 95.85798816568047, 7.207977882804453 96.65680473372781, 6.462246802293342 97.45562130177515, 4.496309872724299 98.2544378698225, 2.5759889641654583 99.05325443786982, 1.6221915841889831 99.85207100591715, 2.281499925473916 100.6508875739645, 0.15434410062491533 101.44970414201183, 0.5647760404074941 102.24852071005917, 0.7321300415999268 103.04733727810651, 2.369376690990191 103.84615384615385, 2.217729047853276 104.64497041420118, 2.4262677682403933 105.44378698224853, 1.486767500777036 106.24260355029585, 0.0 107.0414201183432, 0.6379915913993898 107.84023668639053, 0.3566798477602076 108.63905325443787, 3.3910254288421626 109.43786982248521, 4.545235071138771 110.23668639053254, 3.988051154697805 111.03550295857988, 4.63108949128521 111.83431952662723, 4.332010878345604 112.63313609467457, 3.2256098697666493 113.43195266272188, 3.534419937314185 114.23076923076923, 4.982119962668103 115.02958579881657, 3.699463708575753 115.82840236686391, 3.3342055252920466 116.62721893491124, 5.855109077000269 117.42603550295858, 6.818284792538674 118.22485207100593, 7.194926680996019 119.02366863905324, 7.304423086293428 119.82248520710058, 6.815317094043386 120.62130177514793, 6.799701843986192 121.42011834319527, 10.494216567245056 122.2189349112426, 11.479905981426164 123.01775147928994, 15.526116313746599 123.81656804733728, 13.543019430957997 124.61538461538463, 12.954183354929993 125.41420118343194, 10.768977598004568 126.21301775147928, 12.451549065507356 127.01183431952663, 11.20532798197218 127.81065088757396, 7.9489766940095254 128.60946745562129, 4.425056030865723 129.40828402366864, 4.6377195642645415 130.20710059171597, 7.438927629352598 131.0059171597633, 5.01409506640913 131.80473372781066, 4.471580704705335 132.60355029585799, 2.980337481176357 133.40236686390534, 4.334154935182125 134.20118343195267, 4.993806368431065" fill="none" stroke="#32ca5b" stroke-width="1.25"/>

</svg>