<?xml version="1.0" standalone="no"?>
<!DOCTYPE svg PUBLIC "-//W3C//DTD SVG 1.1//EN" "http://www.w3.org/Graphics/SVG/1.1/DTD/svg11.dtd">

<svg width="135" height="50" viewBox="0 0 135 50" preserveAspectRatio="none" 
  xmlns="http://www.w3.org/2000/svg"
  xmlns:xlink="http://www.w3.org/1999/xlink">


<polyline points="0.0, 35.35474364347398 0.7988165680473372, 23.503035710207673 1.5976331360946745, 36.22830074381034 2.396449704142012, 32.48001651410309 3.195266272189349, 25.14897260178094 3.994082840236686, 32.03763458801432 4.792899408284024, 27.07791233719267 5.591715976331361, 32.04093713861143 6.390532544378698, 31.545765189612457 7.189349112426036, 20.75288837751698 7.988165680473372, 22.917013205684775 8.78698224852071, 21.69896379016544 9.585798816568047, 25.516749066235267 10.384615384615385, 36.78554305284863 11.183431952662723, 22.897729787264858 11.982248520710058, 20.508610481042925 12.781065088757396, 37.465846521535006 13.579881656804734, 32.244849768041064 14.378698224852071, 23.528218846212514 15.177514792899409, 13.164448609118582 15.976331360946745, 30.233987832297355 16.775147928994084, 25.103431969569783 17.57396449704142, 28.14185696551899 18.37278106508876, 25.952883419142225 19.171597633136095, 26.23939280713091 19.970414201183434, 29.192270663007026 20.76923076923077, 34.243053703814546 21.56804733727811, 26.43858353018714 22.366863905325445, 27.343076529727934 23.16568047337278, 29.060111206486432 23.964497041420117, 23.011905345084834 24.763313609467456, 44.23320327507298 25.562130177514792, 26.605364776617655 26.36094674556213, 50.0 27.159763313609467, 20.420961025323603 27.958579881656807, 31.41667069669949 28.757396449704142, 25.83068793050783 29.55621301775148, 17.78569899902185 30.355029585798817, 32.54115983731699 31.153846153846157, 39.00828410326429 31.95266272189349, 7.889884756476162 32.751479289940825, 21.367889849173654 33.55029585798817, 23.753772938882086 34.349112426035504, 20.945557987334524 35.14792899408284, 39.53010141674714 35.94674556213018, 23.78725160591631 36.74556213017752, 27.779443705905628 37.54437869822485, 20.408715385960537 38.34319526627219, 29.668182755617423 39.142011834319526, 25.443210502416385 39.94082840236687, 24.785212194833196 40.7396449704142, 28.816279872955477 41.53846153846154, 30.47830637552585 42.337278106508876, 34.200350240409996 43.13609467455622, 22.37627306540323 43.93491124260355, 31.193405753757027 44.73372781065089, 18.679803962792256 45.532544378698226, 10.62968940407095 46.33136094674556, 29.53109133706704 47.1301775147929, 28.28160928191264 47.928994082840234, 22.135236454128236 48.72781065088758, 14.239143613528155 49.52662721893491, 25.740611791430496 50.32544378698225, 27.081724852945854 51.124260355029584, 31.227490222642484 51.92307692307693, 25.440619608001587 52.72189349112426, 13.786214216488663 53.5207100591716, 29.567343568459897 54.319526627218934, 14.599267123077905 55.11834319526627, 29.758288387414865 55.91715976331361, 16.20716259194949 56.71597633136094, 21.368921414909234 57.514792899408285, 17.85949407676086 58.31360946745562, 35.03349166500039 59.11242603550296, 23.07697268611071 59.91124260355029, 22.112729326463864 60.710059171597635, 27.400021061825353 61.50887573964497, 29.02813509990292 62.307692307692314, 24.75585929835214 63.10650887573964, 32.800435206086966 63.90532544378698, 24.139580638812046 64.70414201183432, 30.90486770590334 65.50295857988165, 23.2639526998622 66.30177514792899, 24.547145536899947 67.10059171597634, 23.95194965620593 67.89940828402366, 19.723139181269925 68.69822485207101, 17.043106316895546 69.49704142011834, 32.09727604215609 70.29585798816568, 11.540275650350452 71.09467455621302, 23.489758900569733 71.89349112426036, 23.544773529427278 72.6923076923077, 26.201696820820015 73.49112426035504, 18.207400686896808 74.28994082840237, 27.222000266445747 75.0887573964497, 27.895673249825347 75.88757396449704, 23.428328356008326 76.68639053254438, 24.514656717407064 77.48520710059172, 32.904330024622546 78.28402366863905, 24.51296018944276 79.0828402366864, 22.568467528424392 79.88165680473374, 25.132974607108636 80.68047337278107, 19.38964434931167 81.4792899408284, 22.812535281784253 82.27810650887574, 21.816920989624663 83.07692307692308, 22.556013104076627 83.87573964497041, 23.086559792520458 84.67455621301775, 23.004433802729988 85.4733727810651, 19.528998850842218 86.27218934911244, 21.247141543872182 87.07100591715975, 22.475456439568287 87.8698224852071, 22.91512987275351 88.66863905325444, 23.995706694844728 89.46745562130178, 22.023515807880322 90.26627218934911, 0.0 91.06508875739645, 27.22676332293729 91.8639053254438, 19.94463249051409 92.66272189349112, 22.692085022257906 93.46153846153845, 17.27901407279006 94.2603550295858, 26.702534962453694 95.05917159763314, 26.12465063098 95.85798816568047, 25.847578610389327 96.65680473372781, 10.671897151423863 97.45562130177515, 48.78859705953186 98.2544378698225, 16.259610121222607 99.05325443786982, 21.505583636548653 99.85207100591715, 17.567607637896657 100.6508875739645, 20.679988284607152 101.44970414201183, 20.249352481255343 102.24852071005917, 28.823387677613514 103.04733727810651, 20.40001496587835 103.84615384615385, 21.669771781593205 104.64497041420118, 22.71883926593953 105.44378698224853, 18.45377666072439 106.24260355029585, 19.42627974348107 107.0414201183432, 21.087887924509417 107.84023668639053, 37.924362693586325 108.63905325443787, 28.94163563234171 109.43786982248521, 15.026502210966791 110.23668639053254, 20.535783001296537 111.03550295857988, 22.31674264267078 111.83431952662723, 24.33430590491116 112.63313609467457, 15.45583635992798 113.43195266272188, 30.328561143653715 114.23076923076923, 24.961692179613635 115.02958579881657, 20.12962078583998 115.82840236686391, 26.36492982223781 116.62721893491124, 24.557647493066284 117.42603550295858, 13.493583368505154 118.22485207100593, 19.25919875165797 119.02366863905324, 21.082159882136864 119.82248520710058, 18.701212839951467 120.62130177514793, 28.26937428467981 121.42011834319527, 25.78202742520067 122.2189349112426, 28.744357520505474 123.01775147928994, 24.049506276211854 123.81656804733728, 18.6792363872968 124.61538461538463, 20.65142717990186 125.41420118343194, 27.99073482005763 126.21301775147928, 5.383319862054332 127.01183431952663, 6.138779594642242 127.81065088757396, 25.513294669236764 128.60946745562129, 15.578420733909146 129.40828402366864, 11.19899297706992 130.20710059171597, 26.595002390963707 131.0059171597633, 9.777248846337896 131.80473372781066, 24.70287865599172 132.60355029585799, 18.951619566485476 133.40236686390534, 25.195761169946667 134.20118343195267, 14.70183210136071" fill="none" stroke="#32ca5b" stroke-width="1.25"/>

</svg>