<?xml version="1.0" standalone="no"?>
<!DOCTYPE svg PUBLIC "-//W3C//DTD SVG 1.1//EN" "http://www.w3.org/Graphics/SVG/1.1/DTD/svg11.dtd">

<svg width="135" height="50" viewBox="0 0 135 50" preserveAspectRatio="none" 
  xmlns="http://www.w3.org/2000/svg"
  xmlns:xlink="http://www.w3.org/1999/xlink">


<polyline points="0.0, 14.434548479071912 0.7988165680473372, 19.120550972866596 1.5976331360946745, 17.7275030290086 2.396449704142012, 21.68918703991086 3.195266272189349, 18.135421295305388 3.994082840236686, 18.941733339829096 4.792899408284024, 32.43838422725941 5.591715976331361, 35.19198788692306 6.390532544378698, 36.49669155700997 7.189349112426036, 31.148232613034217 7.988165680473372, 31.92672380565523 8.78698224852071, 30.335758147620673 9.585798816568047, 26.102467340543395 10.384615384615385, 6.515046813022869 11.183431952662723, 23.608704430646867 11.982248520710058, 29.781086674743268 12.781065088757396, 33.59631400784375 13.579881656804734, 32.876517473772125 14.378698224852071, 31.899756943745032 15.177514792899409, 26.941303077858368 15.976331360946745, 31.94302053106528 16.775147928994084, 29.965103335036098 17.57396449704142, 17.239838705232113 18.37278106508876, 17.062074360305797 19.171597633136095, 28.511438156549158 19.970414201183434, 28.952193627922384 20.76923076923077, 25.84221492991033 21.56804733727811, 23.60104171377806 22.366863905325445, 28.13734292398277 23.16568047337278, 30.228752732598913 23.964497041420117, 32.44873310217493 24.763313609467456, 35.30821550250665 25.562130177514792, 11.70968875985455 26.36094674556213, 33.203397806604904 27.159763313609467, 15.810770109929779 27.958579881656807, 28.86216799875867 28.757396449704142, 28.923072485819485 29.55621301775148, 22.778980308084147 30.355029585798817, 24.75118179103441 31.153846153846157, 26.417349419118104 31.95266272189349, 25.29467714960667 32.751479289940825, 31.41350980470559 33.55029585798817, 33.338195754245184 34.349112426035504, 27.450673096610334 35.14792899408284, 28.727041737747637 35.94674556213018, 23.906362464519326 36.74556213017752, 20.67106122673353 37.54437869822485, 32.719762793497395 38.34319526627219, 34.22467748036788 39.142011834319526, 15.474801293188293 39.94082840236687, 33.2165843653514 40.7396449704142, 31.401142314101072 41.53846153846154, 35.358194747673636 42.337278106508876, 27.44046109448147 43.13609467455622, 17.266540764002546 43.93491124260355, 7.609587159758746 44.73372781065089, 0.0 45.532544378698226, 8.631937818367186 46.33136094674556, 23.99653908097514 47.1301775147929, 23.945309620273488 47.928994082840234, 27.21575797641532 48.72781065088758, 31.04268267353043 49.52662721893491, 34.195158865091344 50.32544378698225, 31.069371123087507 51.124260355029584, 32.11430495962224 51.92307692307693, 34.715166693633954 52.72189349112426, 35.49273623645781 53.5207100591716, 38.09466533483302 54.319526627218934, 36.61459427415879 55.11834319526627, 39.249162164197834 55.91715976331361, 35.62618083434512 56.71597633136094, 36.62479331654046 57.514792899408285, 31.984510153224644 58.31360946745562, 38.21133828813464 59.11242603550296, 39.58452354025765 59.91124260355029, 37.12787139402248 60.710059171597635, 36.06816178126522 61.50887573964497, 39.47555600384013 62.307692307692314, 39.369014753034904 63.10650887573964, 43.01798810837948 63.90532544378698, 44.81991139565079 64.70414201183432, 44.62947766498878 65.50295857988165, 43.51156116432149 66.30177514792899, 41.46224083337245 67.10059171597634, 39.46563452498677 67.89940828402366, 39.23162173794065 68.69822485207101, 33.22525531993439 69.49704142011834, 37.18367170743047 70.29585798816568, 32.7967342399493 71.09467455621302, 30.702363295287437 71.89349112426036, 32.88562528675399 72.6923076923077, 13.96514818018132 73.49112426035504, 17.06502087551465 74.28994082840237, 14.746257088479458 75.0887573964497, 19.107360214017202 75.88757396449704, 22.303546144448642 76.68639053254438, 19.434360575058477 77.48520710059172, 17.00470270919356 78.28402366863905, 15.015461661814294 79.0828402366864, 14.572644421430688 79.88165680473374, 13.614505286462169 80.68047337278107, 21.764430667685073 81.4792899408284, 22.723736366003795 82.27810650887574, 20.621373472327107 83.07692307692308, 15.527935624635445 83.87573964497041, 19.91587577657282 84.67455621301775, 44.87156603369961 85.4733727810651, 27.0438618258402 86.27218934911244, 28.28129692420276 87.07100591715975, 28.181977527075787 87.8698224852071, 42.390113412730685 88.66863905325444, 31.57977449367786 89.46745562130178, 22.04288414308266 90.26627218934911, 15.807538276955018 91.06508875739645, 10.948308055559604 91.8639053254438, 29.642135418198727 92.66272189349112, 34.26554755379995 93.46153846153845, 26.648334819263653 94.2603550295858, 18.097230069769694 95.05917159763314, 24.75246893453127 95.85798816568047, 28.33016148495091 96.65680473372781, 43.55672790058811 97.45562130177515, 16.570306000559466 98.2544378698225, 18.4952950387832 99.05325443786982, 16.11884023530781 99.85207100591715, 21.197769903510437 100.6508875739645, 30.238809623066494 101.44970414201183, 37.36920053592876 102.24852071005917, 42.48359464401369 103.04733727810651, 31.04760000308987 103.84615384615385, 27.856222886314058 104.64497041420118, 22.60581773431542 105.44378698224853, 22.621080574351655 106.24260355029585, 29.97862698959003 107.0414201183432, 37.18207538639548 107.84023668639053, 28.81105227563147 108.63905325443787, 22.89598209453133 109.43786982248521, 31.508896777891966 110.23668639053254, 32.87236523389845 111.03550295857988, 27.552673851504956 111.83431952662723, 24.08104554549585 112.63313609467457, 28.102666959217217 113.43195266272188, 30.8497332084331 114.23076923076923, 33.244131289430165 115.02958579881657, 26.47417618037779 115.82840236686391, 28.146111520723387 116.62721893491124, 34.46231574873867 117.42603550295858, 30.944589052395173 118.22485207100593, 25.56144259210785 119.02366863905324, 23.883244583638632 119.82248520710058, 36.63550045882938 120.62130177514793, 38.389740118722386 121.42011834319527, 37.57167881701312 122.2189349112426, 37.36270510324257 123.01775147928994, 38.83717477094586 123.81656804733728, 45.849508606025346 124.61538461538463, 45.22389893272098 125.41420118343194, 43.33408828160528 126.21301775147928, 43.82013469519294 127.01183431952663, 46.518332565791454 127.81065088757396, 45.79937442358052 128.60946745562129, 45.21806372566668 129.40828402366864, 47.54901615611824 130.20710059171597, 45.23364458240137 131.0059171597633, 46.37081759513818 131.80473372781066, 50.0 132.60355029585799, 49.09964334248071 133.40236686390534, 49.57041401687531 134.20118343195267, 44.27546234938406" fill="none" stroke="#ff3a33" stroke-width="1.25"/>

</svg>