<?xml version="1.0" standalone="no"?>
<!DOCTYPE svg PUBLIC "-//W3C//DTD SVG 1.1//EN" "http://www.w3.org/Graphics/SVG/1.1/DTD/svg11.dtd">

<svg width="135" height="50" viewBox="0 0 135 50" preserveAspectRatio="none" 
  xmlns="http://www.w3.org/2000/svg"
  xmlns:xlink="http://www.w3.org/1999/xlink">


<polyline points="0.0, 36.659791843778045 0.7988165680473372, 36.634819612613825 1.5976331360946745, 35.20565310374548 2.396449704142012, 35.14491357035396 3.195266272189349, 33.36028388422313 3.994082840236686, 33.72486604800193 4.792899408284024, 32.256658286671225 5.591715976331361, 33.13761219369101 6.390532544378698, 32.62369829887194 7.189349112426036, 30.689378220477863 7.988165680473372, 34.588852882401454 8.78698224852071, 33.201675513940124 9.585798816568047, 30.1548967659331 10.384615384615385, 30.57273378758184 11.183431952662723, 30.582817660483467 11.982248520710058, 34.231978212785855 12.781065088757396, 36.26913869238169 13.579881656804734, 33.066663762481355 14.378698224852071, 33.7336030354384 15.177514792899409, 36.10929068617178 15.976331360946745, 35.036748192646776 16.775147928994084, 39.969057100201695 17.57396449704142, 43.552936231140635 18.37278106508876, 45.50796947128129 19.171597633136095, 44.19900278032118 19.970414201183434, 42.81363879539218 20.76923076923077, 41.08709364757199 21.56804733727811, 38.66929950520305 22.366863905325445, 39.61496621653126 23.16568047337278, 37.61391961139221 23.964497041420117, 36.91021414581423 24.763313609467456, 37.94781038324487 25.562130177514792, 38.15084302321152 26.36094674556213, 38.77440679392043 27.159763313609467, 38.74342234470107 27.958579881656807, 40.102244896116886 28.757396449704142, 41.17855820365983 29.55621301775148, 43.75055944494438 30.355029585798817, 45.12608131992853 31.153846153846157, 43.97394977456641 31.95266272189349, 47.3482914808855 32.751479289940825, 46.08578682228151 33.55029585798817, 47.610019309597554 34.349112426035504, 46.174758248938865 35.14792899408284, 47.07056592502707 35.94674556213018, 49.260340046427935 36.74556213017752, 48.05461708203369 37.54437869822485, 46.82803178535265 38.34319526627219, 48.9348951580903 39.142011834319526, 50.0 39.94082840236687, 48.89747511303297 40.7396449704142, 49.53348148610236 41.53846153846154, 45.693315173564756 42.337278106508876, 40.698845855695126 43.13609467455622, 40.20845977991689 43.93491124260355, 42.023669475977094 44.73372781065089, 45.12641064969767 45.532544378698226, 45.00073775786467 46.33136094674556, 44.62562918101874 47.1301775147929, 45.26888169390275 47.928994082840234, 44.806764663580516 48.72781065088758, 43.458007614615354 49.52662721893491, 40.03721365205596 50.32544378698225, 37.24953653008992 51.124260355029584, 36.991390403353904 51.92307692307693, 38.45122973663539 52.72189349112426, 39.69702585996024 53.5207100591716, 39.64829387303032 54.319526627218934, 40.03177509281187 55.11834319526627, 38.00086313351972 55.91715976331361, 31.069454356860987 56.71597633136094, 27.464652044132194 57.514792899408285, 20.97047622125959 58.31360946745562, 22.26316876753183 59.11242603550296, 25.479243734554075 59.91124260355029, 23.83972864426491 60.710059171597635, 23.548765602964046 61.50887573964497, 21.369320317147466 62.307692307692314, 23.42228991564834 63.10650887573964, 20.25182923522318 63.90532544378698, 22.865374344488576 64.70414201183432, 21.52008413741585 65.50295857988165, 24.40171854168819 66.30177514792899, 22.500951079260442 67.10059171597634, 23.4307363804138 67.89940828402366, 19.332074916525418 68.69822485207101, 22.23256165899919 69.49704142011834, 24.232307476854995 70.29585798816568, 27.795554344696654 71.09467455621302, 24.31248175999901 71.89349112426036, 23.804867390299457 72.6923076923077, 25.796418840110828 73.49112426035504, 22.73661215597219 74.28994082840237, 25.805438502147382 75.0887573964497, 26.199997526272416 75.88757396449704, 28.17345113249109 76.68639053254438, 27.568538282384136 77.48520710059172, 27.01148431653955 78.28402366863905, 28.43636942196485 79.0828402366864, 28.042607287182957 79.88165680473374, 29.36798165820329 80.68047337278107, 31.886598457655506 81.4792899408284, 32.049291187838506 82.27810650887574, 31.409588197578124 83.07692307692308, 35.12523728443693 83.87573964497041, 34.29035483838992 84.67455621301775, 32.61878758161183 85.4733727810651, 31.554349950610828 86.27218934911244, 30.08589781898417 87.07100591715975, 29.863940592302303 87.8698224852071, 27.05685103662823 88.66863905325444, 24.804192739541133 89.46745562130178, 19.360491699949765 90.26627218934911, 17.237216303712167 91.06508875739645, 18.717440728601368 91.8639053254438, 23.380683748792055 92.66272189349112, 20.594645771507327 93.46153846153845, 14.66010607935902 94.2603550295858, 8.453143492116103 95.05917159763314, 8.950826194558106 95.85798816568047, 0.18025182869451906 96.65680473372781, 0.0 97.45562130177515, 2.3878714503642127 98.2544378698225, 2.61471828920444 99.05325443786982, 3.931664011898852 99.85207100591715, 1.3239616163052235 100.6508875739645, 1.2281659831551428 101.44970414201183, 1.7540348144669138 102.24852071005917, 1.4787576159124454 103.04733727810651, 5.788306806385613 103.84615384615385, 8.500865478198742 104.64497041420118, 11.567053552937846 105.44378698224853, 11.1819198029857 106.24260355029585, 10.938758340892889 107.0414201183432, 7.860719196505486 107.84023668639053, 9.580421332043429 108.63905325443787, 9.130362625739997 109.43786982248521, 7.5932102464459055 110.23668639053254, 7.259519562387188 111.03550295857988, 7.937212845266478 111.83431952662723, 11.042343699259714 112.63313609467457, 9.086639438554135 113.43195266272188, 8.792923600347162 114.23076923076923, 9.201016269297217 115.02958579881657, 8.875768675049468 115.82840236686391, 8.814812339190361 116.62721893491124, 9.823254471817101 117.42603550295858, 10.980813898184861 118.22485207100593, 10.455824983356674 119.02366863905324, 10.66958296561961 119.82248520710058, 10.18826023263549 120.62130177514793, 9.361490699311158 121.42011834319527, 12.395871447547748 122.2189349112426, 11.094853824985874 123.01775147928994, 9.87556122497651 123.81656804733728, 11.135064349329447 124.61538461538463, 10.595862153480102 125.41420118343194, 8.880836370107465 126.21301775147928, 8.427178919567915 127.01183431952663, 11.815881024259584 127.81065088757396, 14.060083594133127 128.60946745562129, 15.1606303332915 129.40828402366864, 13.343691779445738 130.20710059171597, 10.43489849824357 131.0059171597633, 8.99758252947542 131.80473372781066, 9.531108456033474 132.60355029585799, 8.859427705667182 133.40236686390534, 9.93099528803791 134.20118343195267, 4.358128387435219" fill="none" stroke="#32ca5b" stroke-width="1.25"/>

</svg>