<?xml version="1.0" standalone="no"?>
<!DOCTYPE svg PUBLIC "-//W3C//DTD SVG 1.1//EN" "http://www.w3.org/Graphics/SVG/1.1/DTD/svg11.dtd">

<svg width="135" height="50" viewBox="0 0 135 50" preserveAspectRatio="none" 
  xmlns="http://www.w3.org/2000/svg"
  xmlns:xlink="http://www.w3.org/1999/xlink">


<polyline points="0.0, 42.033456936493245 0.7988165680473372, 45.43003069903757 1.5976331360946745, 44.27559248914142 2.396449704142012, 47.214472848035285 3.195266272189349, 44.894594141006564 3.994082840236686, 45.123812351172404 4.792899408284024, 43.726647918314285 5.591715976331361, 45.139551349847395 6.390532544378698, 45.861423974697765 7.189349112426036, 48.66490714971966 7.988165680473372, 45.660275100196706 8.78698224852071, 42.686145120133205 9.585798816568047, 43.37737650497381 10.384615384615385, 33.3080109409857 11.183431952662723, 42.686754565078836 11.982248520710058, 44.83192839113622 12.781065088757396, 48.426824163716006 13.579881656804734, 46.45585434718336 14.378698224852071, 44.35237029866082 15.177514792899409, 35.278999388645985 15.976331360946745, 37.17458479965724 16.775147928994084, 33.984121594587705 17.57396449704142, 32.269940498110266 18.37278106508876, 29.88699870537115 19.171597633136095, 32.19783813213118 19.970414201183434, 32.75835531420553 20.76923076923077, 31.369832756447753 21.56804733727811, 30.95354210666429 22.366863905325445, 33.34318047306635 23.16568047337278, 35.83741024803935 23.964497041420117, 40.26846276612693 24.763313609467456, 42.89431210550558 25.562130177514792, 40.90551492297433 26.36094674556213, 48.97508062595402 27.159763313609467, 46.096019648436716 27.958579881656807, 49.48502066280797 28.757396449704142, 45.73025632665368 29.55621301775148, 48.11128310836818 30.355029585798817, 50.0 31.153846153846157, 46.70781500072455 31.95266272189349, 44.31275364738133 32.751479289940825, 47.88234853285649 33.55029585798817, 48.95397056852844 34.349112426035504, 47.386922938114566 35.14792899408284, 47.743445477925334 35.94674556213018, 44.23838264902471 36.74556213017752, 43.1721236609836 37.54437869822485, 36.06779808334915 38.34319526627219, 41.79031553398677 39.142011834319526, 46.968419530063514 39.94082840236687, 45.59468746861477 40.7396449704142, 43.125910610620686 41.53846153846154, 44.86521959147501 42.337278106508876, 43.275487364340165 43.13609467455622, 41.48772406540406 43.93491124260355, 35.019807887344285 44.73372781065089, 29.59940594102555 45.532544378698226, 28.62242373369731 46.33136094674556, 33.015812194385234 47.1301775147929, 34.66400141216884 47.928994082840234, 35.68420717104029 48.72781065088758, 41.37127475858404 49.52662721893491, 39.3548874958945 50.32544378698225, 36.08050376672651 51.124260355029584, 37.176678393259586 51.92307692307693, 34.392440554754735 52.72189349112426, 35.72491786723794 53.5207100591716, 34.79060091927507 54.319526627218934, 30.805147112969465 55.11834319526627, 35.52579198459564 55.91715976331361, 34.91318114039596 56.71597633136094, 35.65957995489597 57.514792899408285, 34.597871710223004 58.31360946745562, 34.95004124330561 59.11242603550296, 36.90891613934565 59.91124260355029, 40.37267471326375 60.710059171597635, 40.16703992395847 61.50887573964497, 40.074020215730016 62.307692307692314, 38.854092359869995 63.10650887573964, 43.72446290054049 63.90532544378698, 45.371973494869856 64.70414201183432, 42.73264035933626 65.50295857988165, 41.41675280979316 66.30177514792899, 41.221492212961564 67.10059171597634, 43.618820311105154 67.89940828402366, 42.78821895115014 68.69822485207101, 42.08424934879238 69.49704142011834, 44.625744248565745 70.29585798816568, 43.23074955920729 71.09467455621302, 41.85667740217912 71.89349112426036, 42.11418392577725 72.6923076923077, 41.5970066842219 73.49112426035504, 40.603137205112304 74.28994082840237, 41.73483410855792 75.0887573964497, 43.99434902131028 75.88757396449704, 45.34516620845477 76.68639053254438, 43.65090549855778 77.48520710059172, 46.47404749454823 78.28402366863905, 45.724459273439 79.0828402366864, 43.55782188599528 79.88165680473374, 40.534505448866355 80.68047337278107, 41.19740780519689 81.4792899408284, 41.379534204360866 82.27810650887574, 39.601517547174275 83.07692307692308, 40.52105276631006 83.87573964497041, 39.03535463379582 84.67455621301775, 39.25970994971398 85.4733727810651, 38.647262474955696 86.27218934911244, 39.267598189639244 87.07100591715975, 38.63287506290587 87.8698224852071, 39.28134189548149 88.66863905325444, 39.515057892866615 89.46745562130178, 38.79874605984422 90.26627218934911, 33.28236897287361 91.06508875739645, 34.5255644166671 91.8639053254438, 33.659950994408206 92.66272189349112, 33.574429520117064 93.46153846153845, 33.7601692485091 94.2603550295858, 33.87345003991754 95.05917159763314, 35.76047311433646 95.85798816568047, 35.59470554447715 96.65680473372781, 32.267218027084795 97.45562130177515, 28.60411179126747 98.2544378698225, 28.541792922621344 99.05325443786982, 29.440498683043458 99.85207100591715, 28.909295574195752 100.6508875739645, 26.332067340613364 101.44970414201183, 26.46991557730553 102.24852071005917, 27.56835634716005 103.04733727810651, 28.912112361891364 103.84615384615385, 28.805642350396994 104.64497041420118, 28.186648099253826 105.44378698224853, 26.906863242501505 106.24260355029585, 25.204929081692732 107.0414201183432, 21.035610237506774 107.84023668639053, 25.21532848369958 108.63905325443787, 26.04469590904919 109.43786982248521, 21.954249933018392 110.23668639053254, 21.857377096976435 111.03550295857988, 19.302185765195382 111.83431952662723, 16.211169585662986 112.63313609467457, 15.01052466834237 113.43195266272188, 16.41554997467706 114.23076923076923, 13.9405057728227 115.02958579881657, 13.08352849529711 115.82840236686391, 14.91184291639395 116.62721893491124, 15.824555017257541 117.42603550295858, 15.435894312416185 118.22485207100593, 15.128736050540079 119.02366863905324, 14.596532468399074 119.82248520710058, 15.103585585395333 120.62130177514793, 17.735054190513086 121.42011834319527, 16.89531477499919 122.2189349112426, 25.524799713882757 123.01775147928994, 22.302282317368437 123.81656804733728, 23.199592051500947 124.61538461538463, 21.917671529618513 125.41420118343194, 21.9545177753663 126.21301775147928, 16.727097701466757 127.01183431952663, 13.088964607607881 127.81065088757396, 6.6524528160782 128.60946745562129, 8.274016052007758 129.40828402366864, 9.246712430171558 130.20710059171597, 2.9796797827686903 131.0059171597633, 0.0 131.80473372781066, 1.9243432548868444 132.60355029585799, 1.8810718305177985 133.40236686390534, 3.2971933605002843 134.20118343195267, 2.383957289086285" fill="none" stroke="#32ca5b" stroke-width="1.25"/>

</svg>