<?xml version="1.0" standalone="no"?>
<!DOCTYPE svg PUBLIC "-//W3C//DTD SVG 1.1//EN" "http://www.w3.org/Graphics/SVG/1.1/DTD/svg11.dtd">

<svg width="135" height="50" viewBox="0 0 135 50" preserveAspectRatio="none" 
  xmlns="http://www.w3.org/2000/svg"
  xmlns:xlink="http://www.w3.org/1999/xlink">


<polyline points="0.0, 25.017129453731147 0.7988165680473372, 28.45168954457887 1.5976331360946745, 29.683520279163556 2.396449704142012, 28.39242875074802 3.195266272189349, 30.632335264916343 3.994082840236686, 28.242213436351744 4.792899408284024, 25.21105965643099 5.591715976331361, 27.384067003488777 6.390532544378698, 28.6124235016663 7.189349112426036, 28.630675026286855 7.988165680473372, 31.132081967302284 8.78698224852071, 26.25023011707678 9.585798816568047, 26.31461182407593 10.384615384615385, 28.483892618139077 11.183431952662723, 27.65529849999242 11.982248520710058, 37.37753975822226 12.781065088757396, 39.266556061299305 13.579881656804734, 42.60323513730944 14.378698224852071, 41.140507360834555 15.177514792899409, 39.31027098155635 15.976331360946745, 36.29559640579938 16.775147928994084, 35.09517996201287 17.57396449704142, 33.964232813405374 18.37278106508876, 32.0729556308868 19.171597633136095, 32.86736256713437 19.970414201183434, 31.400467778415393 20.76923076923077, 31.00037243392133 21.56804733727811, 30.461406619844762 22.366863905325445, 31.310734641635594 23.16568047337278, 32.29143998685581 23.964497041420117, 36.07799812405556 24.763313609467456, 40.81969267489905 25.562130177514792, 41.70336320663902 26.36094674556213, 41.23708271059445 27.159763313609467, 46.69363105847305 27.958579881656807, 44.290652261441075 28.757396449704142, 45.945375613275715 29.55621301775148, 43.0648453774891 30.355029585798817, 43.399577157988354 31.153846153846157, 47.68624112638735 31.95266272189349, 44.78354667741177 32.751479289940825, 44.41932686639025 33.55029585798817, 48.094041292279854 34.349112426035504, 50.0 35.14792899408284, 46.935331621920476 35.94674556213018, 48.8805876972 36.74556213017752, 44.06051320361294 37.54437869822485, 42.97759377111014 38.34319526627219, 42.08746914538129 39.142011834319526, 44.312051159481754 39.94082840236687, 49.38350995198546 40.7396449704142, 48.04921387843003 41.53846153846154, 44.92042374217772 42.337278106508876, 46.06435291748339 43.13609467455622, 45.01867702332859 43.93491124260355, 41.8420202444441 44.73372781065089, 41.24597039269157 45.532544378698226, 38.43850518600764 46.33136094674556, 38.579405102052824 47.1301775147929, 39.420548645430145 47.928994082840234, 39.18973789000324 48.72781065088758, 41.68274309342328 49.52662721893491, 44.47157410228149 50.32544378698225, 42.044949502182554 51.124260355029584, 40.63631795214728 51.92307692307693, 41.45065033236648 52.72189349112426, 39.91216202808992 53.5207100591716, 38.582291666456335 54.319526627218934, 39.12611601687311 55.11834319526627, 36.42035400436402 55.91715976331361, 39.016061095782895 56.71597633136094, 40.258154359790225 57.514792899408285, 42.46172478441146 58.31360946745562, 39.46885262399423 59.11242603550296, 40.74147795618324 59.91124260355029, 43.561514665215576 60.710059171597635, 44.507681693710055 61.50887573964497, 41.48611801145693 62.307692307692314, 41.256579040557014 63.10650887573964, 39.494584882883935 63.90532544378698, 42.02148043368651 64.70414201183432, 42.71804392458049 65.50295857988165, 40.85670213495591 66.30177514792899, 38.56379904325144 67.10059171597634, 37.80018631198508 67.89940828402366, 39.8701922076675 68.69822485207101, 38.039321321875214 69.49704142011834, 36.8933983204876 70.29585798816568, 41.445384237361246 71.09467455621302, 37.68617161015831 71.89349112426036, 33.78962315580656 72.6923076923077, 35.82302545911309 73.49112426035504, 33.22879370856465 74.28994082840237, 35.16337073369641 75.0887573964497, 34.55110665320865 75.88757396449704, 37.80344617891976 76.68639053254438, 3.135020199868663 77.48520710059172, 7.118315939435946 78.28402366863905, 1.5256939163491963 79.0828402366864, 3.988391157263326 79.88165680473374, 2.4745561785232546 80.68047337278107, 0.0 81.4792899408284, 1.1220419059116056 82.27810650887574, 0.5456730367582229 83.07692307692308, 7.603306022239259 83.87573964497041, 7.374324359390913 84.67455621301775, 17.901209497792863 85.4733727810651, 23.71605546584479 86.27218934911244, 27.377962531570375 87.07100591715975, 23.98579466142877 87.8698224852071, 24.867031842828297 88.66863905325444, 26.30904108080257 89.46745562130178, 27.078082328648197 90.26627218934911, 26.096738284045422 91.06508875739645, 23.601527325978505 91.8639053254438, 25.14378162293912 92.66272189349112, 25.676772162732203 93.46153846153845, 25.304011388313274 94.2603550295858, 23.938679445999394 95.05917159763314, 23.77601227789331 95.85798816568047, 25.498728406926634 96.65680473372781, 20.51404542429506 97.45562130177515, 27.450814340762776 98.2544378698225, 28.536263978235986 99.05325443786982, 28.977908904941863 99.85207100591715, 30.477459176270084 100.6508875739645, 30.257917652969645 101.44970414201183, 27.92446022289446 102.24852071005917, 29.69867066596205 103.04733727810651, 25.161863052836598 103.84615384615385, 26.752271077540573 104.64497041420118, 33.699672045438625 105.44378698224853, 33.302131763869674 106.24260355029585, 33.99590935294086 107.0414201183432, 25.822042493852713 107.84023668639053, 32.063914144252145 108.63905325443787, 33.32016973639492 109.43786982248521, 33.52054581001917 110.23668639053254, 32.15069887935814 111.03550295857988, 32.10795965955622 111.83431952662723, 31.22285881215547 112.63313609467457, 31.64200074998457 113.43195266272188, 31.859335709537 114.23076923076923, 32.02207704327437 115.02958579881657, 32.574097977783765 115.82840236686391, 32.502144503242974 116.62721893491124, 33.5204245906989 117.42603550295858, 34.21899311206992 118.22485207100593, 33.35915040018532 119.02366863905324, 34.41402851837664 119.82248520710058, 33.84315286512411 120.62130177514793, 33.843759317495284 121.42011834319527, 35.62897208545735 122.2189349112426, 34.48750124855245 123.01775147928994, 41.87035548858377 123.81656804733728, 40.71247078728142 124.61538461538463, 39.71179402133337 125.41420118343194, 38.73999178548894 126.21301775147928, 38.808963937598726 127.01183431952663, 34.035663642602756 127.81065088757396, 30.42045311371432 128.60946745562129, 30.008956968363172 129.40828402366864, 28.68302228113987 130.20710059171597, 30.836325730388765 131.0059171597633, 27.493274495104895 131.80473372781066, 28.671632191997283 132.60355029585799, 28.40136046563223 133.40236686390534, 28.480965103902882 134.20118343195267, 28.187979622942112" fill="none" stroke="#ff3a33" stroke-width="1.25"/>

</svg>