<?xml version="1.0" standalone="no"?>
<!DOCTYPE svg PUBLIC "-//W3C//DTD SVG 1.1//EN" "http://www.w3.org/Graphics/SVG/1.1/DTD/svg11.dtd">

<svg width="135" height="50" viewBox="0 0 135 50" preserveAspectRatio="none" 
  xmlns="http://www.w3.org/2000/svg"
  xmlns:xlink="http://www.w3.org/1999/xlink">


<polyline points="0.0, 27.473147491238826 0.7988165680473372, 28.718288849342883 1.5976331360946745, 30.790172761321045 2.396449704142012, 29.80421870749789 3.195266272189349, 32.6372043516764 3.994082840236686, 30.82619727846468 4.792899408284024, 29.661133417616114 5.591715976331361, 28.589007821755636 6.390532544378698, 30.191967443058775 7.189349112426036, 31.42948711661255 7.988165680473372, 30.658648633536306 8.78698224852071, 29.50120941846248 9.585798816568047, 30.040302228839728 10.384615384615385, 28.722167974381797 11.183431952662723, 27.233879833167624 11.982248520710058, 33.93725307480862 12.781065088757396, 38.04962241336303 13.579881656804734, 39.98674133024237 14.378698224852071, 42.17323674099189 15.177514792899409, 38.62697388823816 15.976331360946745, 35.728909756330005 16.775147928994084, 33.369177879247296 17.57396449704142, 32.79086178017798 18.37278106508876, 34.65148878632697 19.171597633136095, 34.69649682040292 19.970414201183434, 34.81026010694624 20.76923076923077, 36.72912868837776 21.56804733727811, 37.1097087280861 22.366863905325445, 36.39611886644508 23.16568047337278, 37.69414492167195 23.964497041420117, 36.6750600034832 24.763313609467456, 38.56592057628147 25.562130177514792, 40.93813384610049 26.36094674556213, 41.34154683123056 27.159763313609467, 45.48944231673336 27.958579881656807, 45.297230654029136 28.757396449704142, 48.2409674603991 29.55621301775148, 47.20948358614842 30.355029585798817, 49.269203479241 31.153846153846157, 48.62080204337514 31.95266272189349, 47.4298752352461 32.751479289940825, 46.68305946131769 33.55029585798817, 47.04866504522695 34.349112426035504, 48.08651436539598 35.14792899408284, 47.63680691513196 35.94674556213018, 50.0 36.74556213017752, 47.147477853875316 37.54437869822485, 46.72536197228234 38.34319526627219, 43.97680856535296 39.142011834319526, 42.27940167805436 39.94082840236687, 45.19901179473669 40.7396449704142, 44.799372719530496 41.53846153846154, 42.899173318809254 42.337278106508876, 42.17059433060733 43.13609467455622, 43.48090364299034 43.93491124260355, 41.9815561386073 44.73372781065089, 40.224345751699296 45.532544378698226, 35.92800524761323 46.33136094674556, 35.92701734075228 47.1301775147929, 36.86595172500897 47.928994082840234, 35.47799695151389 48.72781065088758, 35.700614295206044 49.52662721893491, 38.12784162730204 50.32544378698225, 35.04493729117165 51.124260355029584, 34.785296621331796 51.92307692307693, 34.90074934496191 52.72189349112426, 33.08272964269277 53.5207100591716, 27.960675519338956 54.319526627218934, 26.879712747491492 55.11834319526627, 23.966605462355016 55.91715976331361, 26.329576080562827 56.71597633136094, 25.35529691040565 57.514792899408285, 26.50977912468288 58.31360946745562, 27.675870697156462 59.11242603550296, 28.41055577922563 59.91124260355029, 30.741409958088983 60.710059171597635, 31.97864157292839 61.50887573964497, 32.98183101714846 62.307692307692314, 36.00486011093432 63.10650887573964, 34.92290327533391 63.90532544378698, 35.54236862461262 64.70414201183432, 37.438319189337975 65.50295857988165, 38.89134082162878 66.30177514792899, 37.558853659290136 67.10059171597634, 35.926700860154654 67.89940828402366, 34.869941992569 68.69822485207101, 33.74392185018114 69.49704142011834, 32.44362597368698 70.29585798816568, 34.62509210064116 71.09467455621302, 36.30999150201465 71.89349112426036, 35.414459314607384 72.6923076923077, 35.23242519251104 73.49112426035504, 33.00481702577978 74.28994082840237, 30.750031875810755 75.0887573964497, 32.67425326997645 75.88757396449704, 36.04793777588594 76.68639053254438, 32.755730091920235 77.48520710059172, 29.621980215223946 78.28402366863905, 34.35045443532446 79.0828402366864, 32.70803791052499 79.88165680473374, 31.872402120464443 80.68047337278107, 28.427757589568355 81.4792899408284, 28.295760747655947 82.27810650887574, 28.90652667479312 83.07692307692308, 26.79054776793307 83.87573964497041, 29.385812121241845 84.67455621301775, 25.774160836257554 85.4733727810651, 22.871396497749384 86.27218934911244, 20.261892333003708 87.07100591715975, 18.36250283107655 87.8698224852071, 18.687504351771693 88.66863905325444, 21.374761420198375 89.46745562130178, 21.667564839777096 90.26627218934911, 20.22344344274148 91.06508875739645, 19.12046399351951 91.8639053254438, 21.433769511414162 92.66272189349112, 17.300709612118563 93.46153846153845, 15.418655110109572 94.2603550295858, 14.448443361463045 95.05917159763314, 13.383744354402738 95.85798816568047, 14.45540567897558 96.65680473372781, 17.15606247332036 97.45562130177515, 16.972033960295597 98.2544378698225, 16.814930399000076 99.05325443786982, 20.036506212361076 99.85207100591715, 26.323354659527652 100.6508875739645, 25.380399413560333 101.44970414201183, 23.911336156961095 102.24852071005917, 23.821313426095298 103.04733727810651, 24.002410386900028 103.84615384615385, 24.32390230425149 104.64497041420118, 25.306125757453025 105.44378698224853, 23.57618719776578 106.24260355029585, 24.306541696916632 107.0414201183432, 26.412521884337224 107.84023668639053, 25.833908483359046 108.63905325443787, 25.170629645253417 109.43786982248521, 24.55127925731327 110.23668639053254, 23.74422985492677 111.03550295857988, 24.466840500553218 111.83431952662723, 23.172113843853552 112.63313609467457, 22.750546357367206 113.43195266272188, 21.01735854791169 114.23076923076923, 19.268591321048596 115.02958579881657, 18.94186622423564 115.82840236686391, 19.546490990667976 116.62721893491124, 20.669443427229858 117.42603550295858, 18.495099203169108 118.22485207100593, 18.65373109581364 119.02366863905324, 18.17486331845596 119.82248520710058, 20.665173043027036 120.62130177514793, 17.70528370780528 121.42011834319527, 21.73643725201555 122.2189349112426, 19.049747214737103 123.01775147928994, 24.841407280168053 123.81656804733728, 25.445202709521926 124.61538461538463, 24.40965268323101 125.41420118343194, 21.45232359440658 126.21301775147928, 19.20248294128357 127.01183431952663, 15.899388793998176 127.81065088757396, 11.708690736028569 128.60946745562129, 8.262873725870202 129.40828402366864, 5.9092130447045195 130.20710059171597, 5.483750510111363 131.0059171597633, 0.0 131.80473372781066, 4.0598506290322645 132.60355029585799, 1.6888004806403698 133.40236686390534, 3.9116836210056176 134.20118343195267, 2.3582785840626936" fill="none" stroke="#32ca5b" stroke-width="1.25"/>

</svg>