<?xml version="1.0" standalone="no"?>
<!DOCTYPE svg PUBLIC "-//W3C//DTD SVG 1.1//EN" "http://www.w3.org/Graphics/SVG/1.1/DTD/svg11.dtd">

<svg width="135" height="50" viewBox="0 0 135 50" preserveAspectRatio="none" 
  xmlns="http://www.w3.org/2000/svg"
  xmlns:xlink="http://www.w3.org/1999/xlink">


<polyline points="0.0, 49.21651253249041 0.7988165680473372, 48.29705767611957 1.5976331360946745, 48.338388892141445 2.396449704142012, 49.020083597100324 3.195266272189349, 49.54863805387178 3.994082840236686, 49.58640606824687 4.792899408284024, 49.67096349811093 5.591715976331361, 47.42203138461756 6.390532544378698, 46.847116687196404 7.189349112426036, 46.803268796085185 7.988165680473372, 47.417633924849326 8.78698224852071, 48.09024971481526 9.585798816568047, 48.148495164728125 10.384615384615385, 49.527988688709435 11.183431952662723, 48.881833257725155 11.982248520710058, 48.157449371473824 12.781065088757396, 49.29866230954428 13.579881656804734, 49.60867340672497 14.378698224852071, 49.42254655687366 15.177514792899409, 50.0 15.976331360946745, 48.43507081357049 16.775147928994084, 47.41535482910085 17.57396449704142, 45.84861405632862 18.37278106508876, 35.97081593834683 19.171597633136095, 29.400571590762926 19.970414201183434, 19.94381603955119 20.76923076923077, 13.709401082567204 21.56804733727811, 18.038324349624666 22.366863905325445, 20.75238475696208 23.16568047337278, 18.23237267760864 23.964497041420117, 18.84291393319816 24.763313609467456, 22.401871014632306 25.562130177514792, 22.942250538766437 26.36094674556213, 25.67877434736088 27.159763313609467, 28.7036006742073 27.958579881656807, 37.58453138285707 28.757396449704142, 36.08308577533575 29.55621301775148, 35.71666568752346 30.355029585798817, 32.138769707795525 31.153846153846157, 34.024939263971724 31.95266272189349, 33.12009235005454 32.751479289940825, 31.917955079617133 33.55029585798817, 33.10091756361713 34.349112426035504, 30.409387878793805 35.14792899408284, 23.12900904784184 35.94674556213018, 19.727005403400774 36.74556213017752, 19.363202084713674 37.54437869822485, 18.431587449172866 38.34319526627219, 19.654462504610027 39.142011834319526, 19.874904249490775 39.94082840236687, 21.36005968146182 40.7396449704142, 21.027806326847433 41.53846153846154, 21.40194794911756 42.337278106508876, 21.532644602284595 43.13609467455622, 22.007913382916367 43.93491124260355, 22.61281102353731 44.73372781065089, 22.05354098981471 45.532544378698226, 21.342465272911873 46.33136094674556, 21.190474346258497 47.1301775147929, 20.899410331191177 47.928994082840234, 21.35164831369842 48.72781065088758, 21.147413159117608 49.52662721893491, 22.941992637189628 50.32544378698225, 21.64447108320736 51.124260355029584, 21.875671648090815 51.92307692307693, 21.95562588710477 52.72189349112426, 22.74313501296023 53.5207100591716, 21.862222805584096 54.319526627218934, 20.098543753329327 55.11834319526627, 20.280697647968925 55.91715976331361, 18.97842474399507 56.71597633136094, 21.43682246375596 57.514792899408285, 21.545840091701393 58.31360946745562, 22.667644648670933 59.11242603550296, 27.522721916297556 59.91124260355029, 28.660047029253104 60.710059171597635, 29.119937324016725 61.50887573964497, 29.2165641285061 62.307692307692314, 29.67904752510347 63.10650887573964, 27.26533418875352 63.90532544378698, 25.869963596695015 64.70414201183432, 26.757724616036032 65.50295857988165, 26.350736032762782 66.30177514792899, 26.472711762913388 67.10059171597634, 27.079594586402873 67.89940828402366, 26.013054393207618 68.69822485207101, 26.73051529392022 69.49704142011834, 28.967271180204296 70.29585798816568, 27.365122844957135 71.09467455621302, 29.198945006426836 71.89349112426036, 29.10856245284489 72.6923076923077, 27.621152592297182 73.49112426035504, 26.225685095352407 74.28994082840237, 25.82488609036837 75.0887573964497, 27.00615922067964 75.88757396449704, 27.49810549777384 76.68639053254438, 30.91898726999925 77.48520710059172, 30.63529407795751 78.28402366863905, 29.741987576075285 79.0828402366864, 28.5659014261469 79.88165680473374, 28.710463855562708 80.68047337278107, 27.883083168199246 81.4792899408284, 28.583335178013 82.27810650887574, 29.47043442268711 83.07692307692308, 28.993597805982496 83.87573964497041, 28.139414838599762 84.67455621301775, 28.98196789132167 85.4733727810651, 27.994078472212138 86.27218934911244, 27.760161042350422 87.07100591715975, 27.243707726036533 87.8698224852071, 22.15922255519098 88.66863905325444, 25.18848348369768 89.46745562130178, 25.218702102887963 90.26627218934911, 24.311209898160264 91.06508875739645, 23.957804648266446 91.8639053254438, 23.721838311819027 92.66272189349112, 25.78434868809934 93.46153846153845, 23.668677929814745 94.2603550295858, 24.023947390648907 95.05917159763314, 21.94221508596671 95.85798816568047, 20.307086611642532 96.65680473372781, 18.91463036268232 97.45562130177515, 17.440712430576387 98.2544378698225, 16.89778112577787 99.05325443786982, 17.15196226664235 99.85207100591715, 17.405128618706126 100.6508875739645, 17.664529155822066 101.44970414201183, 19.394483661863934 102.24852071005917, 21.344443077615086 103.04733727810651, 22.117139074089426 103.84615384615385, 20.214962491347713 104.64497041420118, 20.222743356022182 105.44378698224853, 20.334046223099268 106.24260355029585, 20.062619106759154 107.0414201183432, 18.28332279118977 107.84023668639053, 17.66283634061702 108.63905325443787, 19.310668224315837 109.43786982248521, 18.71423479324561 110.23668639053254, 18.586965932984896 111.03550295857988, 19.750178806692507 111.83431952662723, 20.234878273223625 112.63313609467457, 18.48318507243669 113.43195266272188, 19.94118416768656 114.23076923076923, 18.632862762306836 115.02958579881657, 17.867206378713693 115.82840236686391, 17.461753925133703 116.62721893491124, 16.956067353198694 117.42603550295858, 16.62038380492594 118.22485207100593, 16.17509819215081 119.02366863905324, 15.705721796101452 119.82248520710058, 16.055901244512796 120.62130177514793, 15.407142261088813 121.42011834319527, 14.658021439087943 122.2189349112426, 12.521352331470379 123.01775147928994, 13.945241679319412 123.81656804733728, 13.761187984718143 124.61538461538463, 14.446966649815666 125.41420118343194, 15.63217905399453 126.21301775147928, 15.571804461606215 127.01183431952663, 15.172310707349679 127.81065088757396, 11.271771620391286 128.60946745562129, 5.258676484068222 129.40828402366864, 5.043594373908574 130.20710059171597, 4.538949620444132 131.0059171597633, 2.70768988510945 131.80473372781066, 0.9908148326802724 132.60355029585799, 0.0 133.40236686390534, 0.49773234609777445 134.20118343195267, 0.5574461493680697" fill="none" stroke="#32ca5b" stroke-width="1.25"/>

</svg>