<?xml version="1.0" standalone="no"?>
<!DOCTYPE svg PUBLIC "-//W3C//DTD SVG 1.1//EN" "http://www.w3.org/Graphics/SVG/1.1/DTD/svg11.dtd">

<svg width="135" height="50" viewBox="0 0 135 50" preserveAspectRatio="none" 
  xmlns="http://www.w3.org/2000/svg"
  xmlns:xlink="http://www.w3.org/1999/xlink">


<polyline points="0.0, 40.71936667995356 0.7988165680473372, 43.745120395891746 1.5976331360946745, 44.44480612580527 2.396449704142012, 43.6743610875367 3.195266272189349, 44.71518857716246 3.994082840236686, 44.05410365395841 4.792899408284024, 43.201973244298145 5.591715976331361, 43.3689443829805 6.390532544378698, 42.451334534442765 7.189349112426036, 43.310493593700805 7.988165680473372, 44.637663099190355 8.78698224852071, 42.2989151542353 9.585798816568047, 42.05540693585779 10.384615384615385, 41.33111452258084 11.183431952662723, 39.54872718811685 11.982248520710058, 44.887553031637864 12.781065088757396, 48.32818717132798 13.579881656804734, 49.99258023128464 14.378698224852071, 50.0 15.177514792899409, 49.64592797336388 15.976331360946745, 46.83067500901523 16.775147928994084, 45.45750894274453 17.57396449704142, 44.63266119411503 18.37278106508876, 43.72191531302848 19.171597633136095, 43.860451442816625 19.970414201183434, 35.604147301296116 20.76923076923077, 30.3775318422471 21.56804733727811, 32.86466090059484 22.366863905325445, 30.756171609146225 23.16568047337278, 30.23184824087684 23.964497041420117, 18.05172925984626 24.763313609467456, 34.19948720278848 25.562130177514792, 31.724550567553166 26.36094674556213, 30.748040116941578 27.159763313609467, 34.29082273500658 27.958579881656807, 33.49808859141905 28.757396449704142, 38.64129500755083 29.55621301775148, 37.50100334887122 30.355029585798817, 35.265051063775765 31.153846153846157, 37.4530877025841 31.95266272189349, 36.58318121800666 32.751479289940825, 36.413943917985 33.55029585798817, 37.87336991453332 34.349112426035504, 41.019260458122304 35.14792899408284, 40.11195075339711 35.94674556213018, 40.1130213778405 36.74556213017752, 36.866207674466686 37.54437869822485, 37.73129871626725 38.34319526627219, 36.92658417514298 39.142011834319526, 30.749028141877734 39.94082840236687, 30.381194802300083 40.7396449704142, 30.935639871574804 41.53846153846154, 29.828334469757078 42.337278106508876, 30.659843628554555 43.13609467455622, 31.525620621402854 43.93491124260355, 29.240325738106023 44.73372781065089, 29.368713701133665 45.532544378698226, 25.50627826121634 46.33136094674556, 25.10981941639756 47.1301775147929, 28.098724549794923 47.928994082840234, 27.900168963570092 48.72781065088758, 25.943246968163898 49.52662721893491, 31.690231241926774 50.32544378698225, 29.34462930579489 51.124260355029584, 28.54224071064503 51.92307692307693, 29.825993120623824 52.72189349112426, 27.820369167756354 53.5207100591716, 26.376158906500425 54.319526627218934, 26.83439492776684 55.11834319526627, 26.59561973653104 55.91715976331361, 28.49116547851439 56.71597633136094, 28.71880349878647 57.514792899408285, 28.411643515718303 58.31360946745562, 22.330585997773575 59.11242603550296, 23.341219589415708 59.91124260355029, 24.92566293521443 60.710059171597635, 27.175512971707594 61.50887573964497, 27.143352565550792 62.307692307692314, 26.89688359531104 63.10650887573964, 27.561402462914003 63.90532544378698, 30.0763924741925 64.70414201183432, 32.53339881567655 65.50295857988165, 33.26677622934934 66.30177514792899, 33.0566786085488 67.10059171597634, 33.22104550932375 67.89940828402366, 34.0808403095128 68.69822485207101, 34.240164131967006 69.49704142011834, 33.69071123930832 70.29585798816568, 36.69230509854089 71.09467455621302, 37.47969317111602 71.89349112426036, 34.915477912043244 72.6923076923077, 34.6006230281647 73.49112426035504, 33.84326358948097 74.28994082840237, 32.93200855908635 75.0887573964497, 32.84727228487295 75.88757396449704, 33.340578980632756 76.68639053254438, 33.384815306401926 77.48520710059172, 36.34552973702347 78.28402366863905, 40.53314408430298 79.0828402366864, 40.035670596963655 79.88165680473374, 38.413381378909236 80.68047337278107, 36.76976059112137 81.4792899408284, 36.40854859818193 82.27810650887574, 36.94013766162311 83.07692307692308, 36.46294248748438 83.87573964497041, 38.433720756706386 84.67455621301775, 36.34203293835226 85.4733727810651, 29.98081214916623 86.27218934911244, 25.24384122224414 87.07100591715975, 27.013350192964293 87.8698224852071, 21.85250423861505 88.66863905325444, 13.719660177567707 89.46745562130178, 27.849166918579776 90.26627218934911, 28.383475215619686 91.06508875739645, 25.29811505350952 91.8639053254438, 24.972483948784753 92.66272189349112, 25.26342208048548 93.46153846153845, 24.694213437220533 94.2603550295858, 23.953342456421648 95.05917159763314, 23.740790424787935 95.85798816568047, 23.320975685706017 96.65680473372781, 26.91210627976505 97.45562130177515, 25.800022247259918 98.2544378698225, 27.399509031600246 99.05325443786982, 28.30283971122557 99.85207100591715, 29.428464409695625 100.6508875739645, 28.94916670115248 101.44970414201183, 27.87859664271996 102.24852071005917, 28.779956750233865 103.04733727810651, 28.52291189880284 103.84615384615385, 29.472572394537572 104.64497041420118, 27.838774380250385 105.44378698224853, 28.581599759562494 106.24260355029585, 26.887255928741354 107.0414201183432, 27.92776281340961 107.84023668639053, 27.415071226278148 108.63905325443787, 28.406180502147482 109.43786982248521, 26.942556294340598 110.23668639053254, 25.71169435831584 111.03550295857988, 23.026511746970026 111.83431952662723, 23.98978201376449 112.63313609467457, 24.035249153274414 113.43195266272188, 23.634779004756307 114.23076923076923, 23.52852636990225 115.02958579881657, 22.64213445843205 115.82840236686391, 22.68238039316858 116.62721893491124, 18.413223002096217 117.42603550295858, 16.345375369118127 118.22485207100593, 13.68690932672789 119.02366863905324, 16.82389565266484 119.82248520710058, 20.197203923578556 120.62130177514793, 21.762185460244616 121.42011834319527, 24.265099050253003 122.2189349112426, 22.501109497720662 123.01775147928994, 31.52591014848211 123.81656804733728, 28.7064320122873 124.61538461538463, 28.093122870756037 125.41420118343194, 27.04546226906066 126.21301775147928, 27.709013976584203 127.01183431952663, 25.003179583479756 127.81065088757396, 1.977946011153214 128.60946745562129, 6.8596696821589545 129.40828402366864, 5.172536296628358 130.20710059171597, 3.9348355631182415 131.0059171597633, 3.515128760554413 131.80473372781066, 3.575071870948838 132.60355029585799, 3.4691304785721404 133.40236686390534, 6.233887939782418 134.20118343195267, 0.0" fill="none" stroke="#32ca5b" stroke-width="1.25"/>

</svg>