<?xml version="1.0" standalone="no"?>
<!DOCTYPE svg PUBLIC "-//W3C//DTD SVG 1.1//EN" "http://www.w3.org/Graphics/SVG/1.1/DTD/svg11.dtd">

<svg width="135" height="50" viewBox="0 0 135 50" preserveAspectRatio="none" 
  xmlns="http://www.w3.org/2000/svg"
  xmlns:xlink="http://www.w3.org/1999/xlink">


<polyline points="0.0, 23.741726652928783 0.7988165680473372, 25.99574905132089 1.5976331360946745, 28.06899611383328 2.396449704142012, 28.437501859106728 3.195266272189349, 31.47714072797234 3.994082840236686, 29.08816701721922 4.792899408284024, 27.004363614963573 5.591715976331361, 26.96089865523245 6.390532544378698, 26.771624982682674 7.189349112426036, 29.166913265502252 7.988165680473372, 32.186812898029444 8.78698224852071, 26.818460041957877 9.585798816568047, 26.60691542953065 10.384615384615385, 29.92272717997393 11.183431952662723, 23.41035645654661 11.982248520710058, 30.654605590783152 12.781065088757396, 34.01170151703511 13.579881656804734, 36.82662882845332 14.378698224852071, 37.86669613229144 15.177514792899409, 34.87683819010934 15.976331360946745, 22.762655699123645 16.775147928994084, 23.202643923400764 17.57396449704142, 15.667484752961142 18.37278106508876, 13.838629928075497 19.171597633136095, 14.447989124802257 19.970414201183434, 14.08871080292958 20.76923076923077, 16.972053890039824 21.56804733727811, 18.604542559165 22.366863905325445, 18.04950795707464 23.16568047337278, 22.459938658629646 23.964497041420117, 25.001289035648306 24.763313609467456, 28.37736062647595 25.562130177514792, 29.751860035180965 26.36094674556213, 29.886370752589258 27.159763313609467, 38.61392289840976 27.958579881656807, 37.96649249442408 28.757396449704142, 39.792469748481125 29.55621301775148, 38.108199798634566 30.355029585798817, 40.49043553344458 31.153846153846157, 46.03270213951773 31.95266272189349, 41.48477625973042 32.751479289940825, 42.04735397535153 33.55029585798817, 47.33335773536567 34.349112426035504, 50.0 35.14792899408284, 48.69370995199701 35.94674556213018, 48.762177253371696 36.74556213017752, 43.76895737103907 37.54437869822485, 41.554759626117324 38.34319526627219, 38.73745381906895 39.142011834319526, 42.75067414908971 39.94082840236687, 47.42874927588421 40.7396449704142, 46.974445529034476 41.53846153846154, 44.473246664491725 42.337278106508876, 43.028277926823385 43.13609467455622, 40.81003206272584 43.93491124260355, 36.12878314951622 44.73372781065089, 34.678153352847936 45.532544378698226, 29.551145182950822 46.33136094674556, 28.339792642281814 47.1301775147929, 31.889553092465693 47.928994082840234, 31.077721376556333 48.72781065088758, 31.198598722806626 49.52662721893491, 38.34430663287253 50.32544378698225, 33.124961285658 51.124260355029584, 31.61975890286878 51.92307692307693, 35.39959441353695 52.72189349112426, 29.02855840726027 53.5207100591716, 29.04977553740406 54.319526627218934, 31.281918510121304 55.11834319526627, 14.877948697152393 55.91715976331361, 24.27447478067286 56.71597633136094, 20.665136666313593 57.514792899408285, 25.13963951547895 58.31360946745562, 23.32171951915257 59.11242603550296, 26.772049101270483 59.91124260355029, 27.833229488090883 60.710059171597635, 28.61996208043826 61.50887573964497, 27.007521217905023 62.307692307692314, 27.940946644733444 63.10650887573964, 24.890139168467364 63.90532544378698, 29.77852786143467 64.70414201183432, 33.37392280501549 65.50295857988165, 32.240044726134734 66.30177514792899, 31.057568276490795 67.10059171597634, 29.53025445755579 67.89940828402366, 31.89377536118625 68.69822485207101, 30.429847604890618 69.49704142011834, 27.921010544957035 70.29585798816568, 34.181191348355064 71.09467455621302, 32.35954179195703 71.89349112426036, 29.09625153436901 72.6923076923077, 24.69091651772442 73.49112426035504, 23.25644342809451 74.28994082840237, 21.131133363951786 75.0887573964497, 24.3351908187237 75.88757396449704, 26.975505981775612 76.68639053254438, 26.149663699357035 77.48520710059172, 24.18731581658439 78.28402366863905, 30.566702083949142 79.0828402366864, 25.896184386789994 79.88165680473374, 25.70894991158762 80.68047337278107, 24.12379756837947 81.4792899408284, 22.542646366556532 82.27810650887574, 21.139559859891463 83.07692307692308, 16.141659893503384 83.87573964497041, 20.28423999391508 84.67455621301775, 18.863833625194072 85.4733727810651, 20.575200108374013 86.27218934911244, 21.19078545777025 87.07100591715975, 22.75833904617626 87.8698224852071, 22.799190172918838 88.66863905325444, 24.698538906575084 89.46745562130178, 24.555108558219008 90.26627218934911, 25.396325604184018 91.06508875739645, 21.538552584713745 91.8639053254438, 23.465105191954436 92.66272189349112, 23.211048559517774 93.46153846153845, 23.861910657756386 94.2603550295858, 23.43558253851006 95.05917159763314, 24.38142558906115 95.85798816568047, 24.489412827703024 96.65680473372781, 26.37206117590724 97.45562130177515, 24.907662258148726 98.2544378698225, 24.005563375241863 99.05325443786982, 27.83351845678963 99.85207100591715, 29.39676398865122 100.6508875739645, 29.548905535841513 101.44970414201183, 28.74033019660718 102.24852071005917, 29.47114547663882 103.04733727810651, 30.91916773760558 103.84615384615385, 31.166209166378323 104.64497041420118, 31.79251390095296 105.44378698224853, 31.03852237035062 106.24260355029585, 30.050475633403916 107.0414201183432, 30.86246280006873 107.84023668639053, 28.01817879700265 108.63905325443787, 31.811997503918864 109.43786982248521, 33.36026596122862 110.23668639053254, 30.60159926618646 111.03550295857988, 31.09255234837736 111.83431952662723, 29.58452251512888 112.63313609467457, 28.584273342741323 113.43195266272188, 28.33674687992079 114.23076923076923, 27.653769495092895 115.02958579881657, 23.38923536668067 115.82840236686391, 25.20790003246503 116.62721893491124, 24.632216521830006 117.42603550295858, 25.03963360708939 118.22485207100593, 23.483585028570904 119.02366863905324, 24.390947792615286 119.82248520710058, 23.15800141918397 120.62130177514793, 21.67886901195682 121.42011834319527, 26.429451031478653 122.2189349112426, 24.175728845655048 123.01775147928994, 30.631447872884067 123.81656804733728, 25.785127108447192 124.61538461538463, 25.16912544584956 125.41420118343194, 17.85056769097844 126.21301775147928, 17.337982546401644 127.01183431952663, 10.804799688340225 127.81065088757396, 5.676293542447007 128.60946745562129, 6.163080804979228 129.40828402366864, 2.1721165938489957 130.20710059171597, 5.156680515252924 131.0059171597633, 2.706406596637313 131.80473372781066, 0.0 132.60355029585799, 1.2200087609443695 133.40236686390534, 2.5003364054508705 134.20118343195267, 2.3561369582824723" fill="none" stroke="#32ca5b" stroke-width="1.25"/>

</svg>