<?xml version="1.0" standalone="no"?>
<!DOCTYPE svg PUBLIC "-//W3C//DTD SVG 1.1//EN" "http://www.w3.org/Graphics/SVG/1.1/DTD/svg11.dtd">

<svg width="135" height="50" viewBox="0 0 135 50" preserveAspectRatio="none" 
  xmlns="http://www.w3.org/2000/svg"
  xmlns:xlink="http://www.w3.org/1999/xlink">


<polyline points="0.0, 4.265181738387521 0.7988165680473372, 10.687624639362667 1.5976331360946745, 11.183651544243292 2.396449704142012, 10.782117852239201 3.195266272189349, 10.457165377130854 3.994082840236686, 9.38556554788794 4.792899408284024, 9.994458435869499 5.591715976331361, 12.555905165589692 6.390532544378698, 12.589207417149995 7.189349112426036, 13.076815069952092 7.988165680473372, 12.135588833375994 8.78698224852071, 11.266356759383786 9.585798816568047, 12.955049432537653 10.384615384615385, 15.263100139873902 11.183431952662723, 18.533567887489504 11.982248520710058, 18.281331995580015 12.781065088757396, 21.443035799588305 13.579881656804734, 29.638923299961345 14.378698224852071, 17.01377125527921 15.177514792899409, 19.965037145029623 15.976331360946745, 20.507620136946887 16.775147928994084, 20.448233850995948 17.57396449704142, 21.31195176562582 18.37278106508876, 17.057316525768066 19.171597633136095, 18.12297949791535 19.970414201183434, 20.055761532360776 20.76923076923077, 17.928415899012855 21.56804733727811, 18.500810237054523 22.366863905325445, 19.415354168583484 23.16568047337278, 19.93062525478139 23.964497041420117, 25.723114883235954 24.763313609467456, 26.34898284821528 25.562130177514792, 23.371085473759436 26.36094674556213, 24.72925884733071 27.159763313609467, 28.002799727554763 27.958579881656807, 29.13588744789376 28.757396449704142, 29.183145522278743 29.55621301775148, 29.66983690975177 30.355029585798817, 29.865137005424884 31.153846153846157, 29.872397960256613 31.95266272189349, 29.546469741827476 32.751479289940825, 27.715058526948678 33.55029585798817, 28.178121186832684 34.349112426035504, 26.663911725886457 35.14792899408284, 27.252701576919787 35.94674556213018, 28.77093204693515 36.74556213017752, 29.805511898213403 37.54437869822485, 28.002503633948862 38.34319526627219, 29.27848557876091 39.142011834319526, 31.107785298155616 39.94082840236687, 33.481878219524205 40.7396449704142, 32.506368700436894 41.53846153846154, 50.0 42.337278106508876, 40.205979935770046 43.13609467455622, 38.88480547396629 43.93491124260355, 37.27664445635398 44.73372781065089, 35.8236251635807 45.532544378698226, 35.95751269004239 46.33136094674556, 35.612997959409775 47.1301775147929, 40.90461676280633 47.928994082840234, 35.41749096731277 48.72781065088758, 35.8620565660388 49.52662721893491, 32.51662602829152 50.32544378698225, 26.819870664637463 51.124260355029584, 21.259355813941706 51.92307692307693, 19.530377106703 52.72189349112426, 18.601160749740885 53.5207100591716, 20.55629360809444 54.319526627218934, 17.46488509549496 55.11834319526627, 17.63782304705754 55.91715976331361, 17.11187982513864 56.71597633136094, 19.152468418166933 57.514792899408285, 17.518618936460015 58.31360946745562, 16.459982199702047 59.11242603550296, 16.154828386747358 59.91124260355029, 18.963988604924054 60.710059171597635, 18.087189400415856 61.50887573964497, 16.21668921678069 62.307692307692314, 12.537181973981207 63.10650887573964, 12.834545086577268 63.90532544378698, 11.87643292968749 64.70414201183432, 11.66025860294979 65.50295857988165, 10.619812470679614 66.30177514792899, 10.208660128755577 67.10059171597634, 11.201544874537039 67.89940828402366, 11.455110976337679 68.69822485207101, 11.760208932985307 69.49704142011834, 15.512915508604724 70.29585798816568, 19.079979233523133 71.09467455621302, 18.675241995164733 71.89349112426036, 19.75550874574706 72.6923076923077, 20.17336498136137 73.49112426035504, 19.610580650561978 74.28994082840237, 19.340196266848473 75.0887573964497, 19.333918065244397 75.88757396449704, 19.56996303438902 76.68639053254438, 19.56790483984695 77.48520710059172, 20.72377193683624 78.28402366863905, 19.84673601066057 79.0828402366864, 23.7434301436131 79.88165680473374, 21.559485552792506 80.68047337278107, 21.62594216034631 81.4792899408284, 21.040790974343405 82.27810650887574, 19.840876013182967 83.07692307692308, 20.35498416488591 83.87573964497041, 19.8128026941068 84.67455621301775, 19.509988721417177 85.4733727810651, 20.202546332699704 86.27218934911244, 21.50650519804345 87.07100591715975, 18.15424917691332 87.8698224852071, 19.81443180829175 88.66863905325444, 19.579525340200682 89.46745562130178, 19.395611138594262 90.26627218934911, 16.48728642029677 91.06508875739645, 14.24353203369396 91.8639053254438, 13.576035666195487 92.66272189349112, 13.509709689525515 93.46153846153845, 12.930860146519485 94.2603550295858, 13.2744030370736 95.05917159763314, 13.391044657643775 95.85798816568047, 12.26627517971221 96.65680473372781, 11.309537403690506 97.45562130177515, 10.236060662672923 98.2544378698225, 10.65284666349239 99.05325443786982, 11.110469426904205 99.85207100591715, 10.810680005282167 100.6508875739645, 9.720444764551479 101.44970414201183, 9.74431078591596 102.24852071005917, 10.213681743179665 103.04733727810651, 7.490544978051069 103.84615384615385, 4.471859236513414 104.64497041420118, 3.356394168084964 105.44378698224853, 2.607525514888486 106.24260355029585, 0.0 107.0414201183432, 11.639473010215823 107.84023668639053, 13.87237820706268 108.63905325443787, 13.183956340912436 109.43786982248521, 13.8916046432562 110.23668639053254, 14.124378162969503 111.03550295857988, 13.116141772036114 111.83431952662723, 13.429463701899822 112.63313609467457, 13.306753668740686 113.43195266272188, 13.482748065827469 114.23076923076923, 16.71144147505385 115.02958579881657, 18.45818790791976 115.82840236686391, 19.607005594678988 116.62721893491124, 27.952253141638366 117.42603550295858, 27.43759200596324 118.22485207100593, 27.052648122068163 119.02366863905324, 26.83555747213882 119.82248520710058, 26.498551495741836 120.62130177514793, 27.244565874320408 121.42011834319527, 24.432009310127093 122.2189349112426, 26.320942807627628 123.01775147928994, 25.63164256131296 123.81656804733728, 28.488552152749897 124.61538461538463, 30.01501992843042 125.41420118343194, 25.665710454779788 126.21301775147928, 24.616388071579916 127.01183431952663, 22.70173937047513 127.81065088757396, 16.37609845220674 128.60946745562129, 17.403697427456077 129.40828402366864, 13.841218365294067 130.20710059171597, 10.269528698727209 131.0059171597633, 8.885011535140022 131.80473372781066, 6.956899212807592 132.60355029585799, 5.49400005398291 133.40236686390534, 1.5928474935869728 134.20118343195267, 1.139725781982117" fill="none" stroke="#32ca5b" stroke-width="1.25"/>

</svg>