<?xml version="1.0" standalone="no"?>
<!DOCTYPE svg PUBLIC "-//W3C//DTD SVG 1.1//EN" "http://www.w3.org/Graphics/SVG/1.1/DTD/svg11.dtd">

<svg width="135" height="50" viewBox="0 0 135 50" preserveAspectRatio="none" 
  xmlns="http://www.w3.org/2000/svg"
  xmlns:xlink="http://www.w3.org/1999/xlink">


<polyline points="0.0, 0.0 0.7988165680473372, 6.308336042662377 1.5976331360946745, 9.62891045501621 2.396449704142012, 7.290356770616717 3.195266272189349, 10.183396483675063 3.994082840236686, 7.812919181085134 4.792899408284024, 7.2234802966288605 5.591715976331361, 6.458619302617354 6.390532544378698, 6.936826420124291 7.189349112426036, 9.97558398205208 7.988165680473372, 15.375771561701889 8.78698224852071, 10.553236315323252 9.585798816568047, 9.027436832132214 10.384615384615385, 13.808453851195878 11.183431952662723, 7.164199763537516 11.982248520710058, 16.87761998666695 12.781065088757396, 25.66701093737988 13.579881656804734, 30.072038984763704 14.378698224852071, 29.96235764617794 15.177514792899409, 25.85030780743977 15.976331360946745, 22.263710170424513 16.775147928994084, 18.369762692974863 17.57396449704142, 13.46385595203164 18.37278106508876, 9.9738588251108 19.171597633136095, 12.851459195462564 19.970414201183434, 17.598229662920343 20.76923076923077, 21.98753385878598 21.56804733727811, 21.71853791057057 22.366863905325445, 20.489919678012033 23.16568047337278, 22.15907785418698 23.964497041420117, 25.372478749917743 24.763313609467456, 27.36995005580381 25.562130177514792, 26.75437117306261 26.36094674556213, 23.804632378597052 27.159763313609467, 33.361356743378295 27.958579881656807, 30.011675186940806 28.757396449704142, 33.296324605392016 29.55621301775148, 28.480963241642637 30.355029585798817, 25.36086147696363 31.153846153846157, 21.490646435770415 31.95266272189349, 19.241022333552948 32.751479289940825, 17.490104153019466 33.55029585798817, 25.504186118010747 34.349112426035504, 29.522495865153747 35.14792899408284, 26.364019747659256 35.94674556213018, 28.88156112122727 36.74556213017752, 23.27348616913322 37.54437869822485, 23.59418395363927 38.34319526627219, 19.122826388161883 39.142011834319526, 25.41274063633247 39.94082840236687, 29.373849062668032 40.7396449704142, 30.646174811392545 41.53846153846154, 27.61519249751631 42.337278106508876, 29.191771388876752 43.13609467455622, 27.728325065588766 43.93491124260355, 19.659130505519624 44.73372781065089, 18.11699028313049 45.532544378698226, 14.564471117881128 46.33136094674556, 14.464461412751092 47.1301775147929, 20.324696017606847 47.928994082840234, 20.984238779863514 48.72781065088758, 19.40796348522541 49.52662721893491, 25.288156442808578 50.32544378698225, 16.47163752423201 51.124260355029584, 18.874489020742097 51.92307692307693, 21.71010349674934 52.72189349112426, 13.41817574752181 53.5207100591716, 9.092306530480295 54.319526627218934, 3.499256697409775 55.11834319526627, 4.844923843315311 55.91715976331361, 7.426641084009046 56.71597633136094, 7.735742864813891 57.514792899408285, 11.222837816956343 58.31360946745562, 8.089049279895006 59.11242603550296, 10.904620978277684 59.91124260355029, 12.06491974559392 60.710059171597635, 16.668672332718888 61.50887573964497, 15.089607624590307 62.307692307692314, 17.11673314206316 63.10650887573964, 14.422014408590716 63.90532544378698, 19.53163446622594 64.70414201183432, 24.259129435412298 65.50295857988165, 21.154535189555936 66.30177514792899, 20.47338127501415 67.10059171597634, 21.442740042737558 67.89940828402366, 24.786513815549554 68.69822485207101, 23.649654665288207 69.49704142011834, 28.48589233395012 70.29585798816568, 38.33854102649445 71.09467455621302, 42.11575587699266 71.89349112426036, 39.85834202502826 72.6923076923077, 38.17731821418956 73.49112426035504, 35.792559435089075 74.28994082840237, 33.16179834868915 75.0887573964497, 36.09060033708374 75.88757396449704, 40.15534021876552 76.68639053254438, 39.91146177191706 77.48520710059172, 40.338259243549174 78.28402366863905, 50.0 79.0828402366864, 47.42332797242567 79.88165680473374, 44.14107733575557 80.68047337278107, 39.03443341409376 81.4792899408284, 38.53572491621815 82.27810650887574, 41.291386667805575 83.07692307692308, 37.56128287649539 83.87573964497041, 39.43384805831228 84.67455621301775, 36.86610114439791 85.4733727810651, 35.0620158062334 86.27218934911244, 34.4187108883621 87.07100591715975, 37.80488109135706 87.8698224852071, 36.913974591472275 88.66863905325444, 38.71219739594213 89.46745562130178, 34.24719633351277 90.26627218934911, 29.49882207188315 91.06508875739645, 27.19814008660836 91.8639053254438, 27.167270615552653 92.66272189349112, 27.713816060968878 93.46153846153845, 27.847377044868658 94.2603550295858, 28.046037979205312 95.05917159763314, 31.042455020925125 95.85798816568047, 32.4123538540155 96.65680473372781, 34.36450328539344 97.45562130177515, 31.855141287410156 98.2544378698225, 34.28294886802172 99.05325443786982, 34.28859088758768 99.85207100591715, 36.24907354389501 100.6508875739645, 35.04895238910253 101.44970414201183, 33.55325401895291 102.24852071005917, 33.47320959610116 103.04733727810651, 34.49883482993668 103.84615384615385, 35.000314909432056 104.64497041420118, 35.41019179808186 105.44378698224853, 32.3041288855982 106.24260355029585, 30.490221954429263 107.0414201183432, 34.673386866639014 107.84023668639053, 30.97566425138238 108.63905325443787, 35.120309504907524 109.43786982248521, 35.05935385219572 110.23668639053254, 31.48188626685866 111.03550295857988, 33.294009688175244 111.83431952662723, 32.591471634408805 112.63313609467457, 29.91920604931872 113.43195266272188, 30.48789588186032 114.23076923076923, 30.710671562395753 115.02958579881657, 30.068295859353906 115.82840236686391, 29.865150149748686 116.62721893491124, 32.22192119491084 117.42603550295858, 34.82677399546535 118.22485207100593, 30.1552001572531 119.02366863905324, 31.948098981733388 119.82248520710058, 31.955867562544565 120.62130177514793, 31.91938471323128 121.42011834319527, 36.89221945214138 122.2189349112426, 38.019657179069874 123.01775147928994, 44.71094128139196 123.81656804733728, 41.33860227498066 124.61538461538463, 42.41001124866547 125.41420118343194, 42.02827241368437 126.21301775147928, 42.42762813576116 127.01183431952663, 38.87829737298879 127.81065088757396, 35.35147998467257 128.60946745562129, 26.872275612345664 129.40828402366864, 20.970107079200833 130.20710059171597, 20.610462775680794 131.0059171597633, 15.638311467653008 131.80473372781066, 19.918511528823085 132.60355029585799, 21.103860031294186 133.40236686390534, 23.77233006436134 134.20118343195267, 24.565463592666806" fill="none" stroke="#ff3a33" stroke-width="1.25"/>

</svg>