<?xml version="1.0" standalone="no"?>
<!DOCTYPE svg PUBLIC "-//W3C//DTD SVG 1.1//EN" "http://www.w3.org/Graphics/SVG/1.1/DTD/svg11.dtd">

<svg width="135" height="50" viewBox="0 0 135 50" preserveAspectRatio="none" 
  xmlns="http://www.w3.org/2000/svg"
  xmlns:xlink="http://www.w3.org/1999/xlink">


<polyline points="0.0, 36.422239727025115 0.7988165680473372, 37.43958071234606 1.5976331360946745, 38.15715325885168 2.396449704142012, 36.71122303227791 3.195266272189349, 37.63248741284112 3.994082840236686, 37.43154104755509 4.792899408284024, 36.81717212719883 5.591715976331361, 36.27628830102345 6.390532544378698, 37.139778695169205 7.189349112426036, 38.57361372698964 7.988165680473372, 40.624306406593206 8.78698224852071, 39.0247877264418 9.585798816568047, 38.498745662266224 10.384615384615385, 40.22269498949704 11.183431952662723, 38.82337873388336 11.982248520710058, 41.17296502067516 12.781065088757396, 45.31761234873126 13.579881656804734, 46.798412587495264 14.378698224852071, 46.32660052688655 15.177514792899409, 46.37372305627635 15.976331360946745, 45.11343421363705 16.775147928994084, 43.73568195327843 17.57396449704142, 43.449788411050044 18.37278106508876, 42.059693621474615 19.171597633136095, 42.06284894008122 19.970414201183434, 41.52649896814926 20.76923076923077, 42.49917609679284 21.56804733727811, 43.09709379704734 22.366863905325445, 42.57764834099628 23.16568047337278, 43.40162325330443 23.964497041420117, 43.719097524789206 24.763313609467456, 44.58650136001484 25.562130177514792, 45.19530953339087 26.36094674556213, 44.35846506769837 27.159763313609467, 47.037931687216755 27.958579881656807, 47.00408482089032 28.757396449704142, 48.12590192403049 29.55621301775148, 46.51605853781515 30.355029585798817, 47.284665851633804 31.153846153846157, 50.0 31.95266272189349, 49.39054574389402 32.751479289940825, 46.452044085751005 33.55029585798817, 48.01952548904393 34.349112426035504, 48.35372462096528 35.14792899408284, 47.34191690341402 35.94674556213018, 47.1439835014147 36.74556213017752, 44.74192400665001 37.54437869822485, 42.58351747888563 38.34319526627219, 42.23426829060269 39.142011834319526, 43.46556603688654 39.94082840236687, 44.50449556505499 40.7396449704142, 43.265785696062856 41.53846153846154, 42.395323159530676 42.337278106508876, 40.13876666954816 43.13609467455622, 36.982720266530755 43.93491124260355, 34.920932590343526 44.73372781065089, 34.684959738959854 45.532544378698226, 31.413964408929758 46.33136094674556, 28.305534889324907 47.1301775147929, 24.545324002587602 47.928994082840234, 27.038594293939884 48.72781065088758, 25.21020918690124 49.52662721893491, 27.13288169870229 50.32544378698225, 30.033413609081133 51.124260355029584, 28.463541034014195 51.92307692307693, 28.850039719208187 52.72189349112426, 30.437750708453915 53.5207100591716, 30.68246956817864 54.319526627218934, 30.538973266805307 55.11834319526627, 28.798600832232907 55.91715976331361, 29.811994168168095 56.71597633136094, 30.20021923318992 57.514792899408285, 31.343919255327908 58.31360946745562, 29.750692156706936 59.11242603550296, 30.655112628476093 59.91124260355029, 31.44570996318602 60.710059171597635, 33.563783174793166 61.50887573964497, 33.05893958952401 62.307692307692314, 31.750986241985956 63.10650887573964, 31.36033523322149 63.90532544378698, 31.297171761013615 64.70414201183432, 33.648357878950954 65.50295857988165, 33.59000294758718 66.30177514792899, 32.00667488679831 67.10059171597634, 32.28800223054439 67.89940828402366, 30.445081247011224 68.69822485207101, 30.72680731945126 69.49704142011834, 29.966060751468422 70.29585798816568, 30.43295734592401 71.09467455621302, 31.711056249644592 71.89349112426036, 30.550034595035942 72.6923076923077, 32.22457805797793 73.49112426035504, 31.500473250615745 74.28994082840237, 31.23475991526431 75.0887573964497, 31.576404443703943 75.88757396449704, 33.63916876200671 76.68639053254438, 31.934886397609663 77.48520710059172, 31.48253865337591 78.28402366863905, 34.20418025770441 79.0828402366864, 32.344260124324805 79.88165680473374, 31.655817189471325 80.68047337278107, 29.20700637824692 81.4792899408284, 28.293042739290104 82.27810650887574, 30.42420921454878 83.07692307692308, 27.716191551677184 83.87573964497041, 22.741446574255672 84.67455621301775, 22.403999597008944 85.4733727810651, 25.813002728787314 86.27218934911244, 26.6459084483479 87.07100591715975, 28.34665731335877 87.8698224852071, 28.020733969338618 88.66863905325444, 28.73736879514298 89.46745562130178, 27.155006655703563 90.26627218934911, 25.347051004875752 91.06508875739645, 24.872467106233984 91.8639053254438, 27.10091285770017 92.66272189349112, 26.255356459855438 93.46153846153845, 26.11700310762992 94.2603550295858, 25.76103816285011 95.05917159763314, 25.587022058511515 95.85798816568047, 25.07247786575754 96.65680473372781, 26.156298671162393 97.45562130177515, 25.54389550215407 98.2544378698225, 25.90646547603913 99.05325443786982, 25.93078627856614 99.85207100591715, 26.641156943251133 100.6508875739645, 26.97395860520231 101.44970414201183, 26.09029139714485 102.24852071005917, 27.83245079363732 103.04733727810651, 28.395042212554987 103.84615384615385, 26.976312221424376 104.64497041420118, 27.121371559151967 105.44378698224853, 25.818662377275814 106.24260355029585, 24.377227266546363 107.0414201183432, 26.764001648316565 107.84023668639053, 26.881474453541284 108.63905325443787, 28.791649635767268 109.43786982248521, 27.755245408106422 110.23668639053254, 26.884852635379087 111.03550295857988, 26.830262152007478 111.83431952662723, 25.78809823725763 112.63313609467457, 26.008889602108766 113.43195266272188, 26.571584418661892 114.23076923076923, 27.557867002079416 115.02958579881657, 27.089500630852363 115.82840236686391, 26.765374937471858 116.62721893491124, 28.167995724798956 117.42603550295858, 28.79363811059224 118.22485207100593, 27.781679017559423 119.02366863905324, 26.640274030490918 119.82248520710058, 19.128157707345235 120.62130177514793, 12.494204076065232 121.42011834319527, 11.878135885260425 122.2189349112426, 15.464997808297595 123.01775147928994, 14.84379175686463 123.81656804733728, 8.779879534897743 124.61538461538463, 7.1162525750556105 125.41420118343194, 6.898623974576462 126.21301775147928, 10.982995700170328 127.01183431952663, 11.541972513998386 127.81065088757396, 7.724824043105126 128.60946745562129, 4.203630720040454 129.40828402366864, 5.001120561236508 130.20710059171597, 6.858767927221362 131.0059171597633, 4.2953186800289505 131.80473372781066, 1.2648856721324129 132.60355029585799, 0.0 133.40236686390534, 2.1271539279963796 134.20118343195267, 1.1621913762996825" fill="none" stroke="#32ca5b" stroke-width="1.25"/>

</svg>