<?xml version="1.0" standalone="no"?>
<!DOCTYPE svg PUBLIC "-//W3C//DTD SVG 1.1//EN" "http://www.w3.org/Graphics/SVG/1.1/DTD/svg11.dtd">

<svg width="135" height="50" viewBox="0 0 135 50" preserveAspectRatio="none" 
  xmlns="http://www.w3.org/2000/svg"
  xmlns:xlink="http://www.w3.org/1999/xlink">


<polyline points="0.0, 0.0 0.7988165680473372, 0.9133704058446259 1.5976331360946745, 0.5028606307125623 2.396449704142012, 3.3398916171169293 3.195266272189349, 6.6469561096071095 3.994082840236686, 11.441584628694164 4.792899408284024, 10.051769416896777 5.591715976331361, 7.339703356028972 6.390532544378698, 12.289718230134236 7.189349112426036, 17.162220873627803 7.988165680473372, 11.295528438404737 8.78698224852071, 11.0121524857143 9.585798816568047, 14.160599677627761 10.384615384615385, 6.011187871796744 11.183431952662723, 11.439546620835833 11.982248520710058, 32.8602498471761 12.781065088757396, 40.18116743552854 13.579881656804734, 48.175654067997215 14.378698224852071, 50.0 15.177514792899409, 40.50865569198017 15.976331360946745, 33.01669104479312 16.775147928994084, 29.565027145073458 17.57396449704142, 28.412741121597485 18.37278106508876, 27.61948645814039 19.171597633136095, 27.877867273014456 19.970414201183434, 31.80734263466739 20.76923076923077, 32.51183440667269 21.56804733727811, 35.66014657287887 22.366863905325445, 39.15362824639179 23.16568047337278, 31.75619116219675 23.964497041420117, 34.73246176661767 24.763313609467456, 40.76513388271219 25.562130177514792, 41.79593435701442 26.36094674556213, 47.10082364514081 27.159763313609467, 44.27480701542626 27.958579881656807, 47.91853487696392 28.757396449704142, 44.72297726920009 29.55621301775148, 44.170914985227874 30.355029585798817, 46.512386071869756 31.153846153846157, 46.94028507141567 31.95266272189349, 45.560372536634624 32.751479289940825, 44.030463320982335 33.55029585798817, 46.65851302773006 34.349112426035504, 46.771567110459614 35.14792899408284, 49.13180744057924 35.94674556213018, 41.28766410832211 36.74556213017752, 35.97185897651236 37.54437869822485, 34.78277166601678 38.34319526627219, 35.002575810314646 39.142011834319526, 36.23193577188991 39.94082840236687, 34.56873996161981 40.7396449704142, 32.23557916908787 41.53846153846154, 31.887307753260252 42.337278106508876, 33.10478592194983 43.13609467455622, 35.58843264849695 43.93491124260355, 31.02339068189968 44.73372781065089, 36.6084307726356 45.532544378698226, 33.098875311887085 46.33136094674556, 33.86449639369572 47.1301775147929, 34.43987190217543 47.928994082840234, 36.614091633191705 48.72781065088758, 35.44869907511868 49.52662721893491, 33.52844027463968 50.32544378698225, 31.789091789685838 51.124260355029584, 29.704241061881792 51.92307692307693, 26.830924730525446 52.72189349112426, 22.420312278032036 53.5207100591716, 18.441307418489693 54.319526627218934, 14.87483489705844 55.11834319526627, 20.05145633360811 55.91715976331361, 20.831861201094434 56.71597633136094, 19.23269380855962 57.514792899408285, 16.3730718215709 58.31360946745562, 15.32092062135503 59.11242603550296, 14.602366919577264 59.91124260355029, 8.447245023356725 60.710059171597635, 10.053532188746157 61.50887573964497, 9.705228619467414 62.307692307692314, 3.5707567190535547 63.10650887573964, 11.55237604273621 63.90532544378698, 17.81647630947577 64.70414201183432, 31.39492077541039 65.50295857988165, 35.95357665054017 66.30177514792899, 33.3116744949063 67.10059171597634, 34.83067776946782 67.89940828402366, 34.960377797746176 68.69822485207101, 38.87646815400366 69.49704142011834, 44.98198517626974 70.29585798816568, 49.07321671008125 71.09467455621302, 44.29271615407316 71.89349112426036, 36.03927370572151 72.6923076923077, 37.54565205426395 73.49112426035504, 41.34109316098879 74.28994082840237, 39.652036161856365 75.0887573964497, 42.93837846115411 75.88757396449704, 40.66015244080967 76.68639053254438, 38.364285780219475 77.48520710059172, 42.488097237667304 78.28402366863905, 42.14574755502311 79.0828402366864, 40.51266008927132 79.88165680473374, 36.95806231456569 80.68047337278107, 34.85903614069774 81.4792899408284, 34.31339137835134 82.27810650887574, 33.8663185214597 83.07692307692308, 35.25259571825097 83.87573964497041, 30.327760406138793 84.67455621301775, 27.660563841840663 85.4733727810651, 28.864793919069236 86.27218934911244, 31.18622786124777 87.07100591715975, 32.219126692913115 87.8698224852071, 34.027816394256206 88.66863905325444, 34.79628483956645 89.46745562130178, 40.04973447037296 90.26627218934911, 39.36957544324591 91.06508875739645, 41.533198101009575 91.8639053254438, 40.92128437840223 92.66272189349112, 41.388981431139754 93.46153846153845, 39.70353004540365 94.2603550295858, 39.596105408057745 95.05917159763314, 40.50942496104502 95.85798816568047, 41.04259418955548 96.65680473372781, 39.425849521781934 97.45562130177515, 39.99578135295243 98.2544378698225, 42.73016669886686 99.05325443786982, 45.50260104897487 99.85207100591715, 42.02313368253776 100.6508875739645, 41.6199574870996 101.44970414201183, 43.34359382872459 102.24852071005917, 45.258972105463826 103.04733727810651, 40.73252876332324 103.84615384615385, 37.3287591997476 104.64497041420118, 39.90887814912392 105.44378698224853, 40.46752434820384 106.24260355029585, 41.77848707922028 107.0414201183432, 37.78811327022662 107.84023668639053, 41.37164352061891 108.63905325443787, 42.34569478297601 109.43786982248521, 42.68540446378485 110.23668639053254, 42.98272586904298 111.03550295857988, 39.325230065125396 111.83431952662723, 39.07716729633538 112.63313609467457, 37.34696601002478 113.43195266272188, 35.597080973460784 114.23076923076923, 33.678285449815206 115.02958579881657, 32.252248967313754 115.82840236686391, 34.51450784601085 116.62721893491124, 36.76925384658883 117.42603550295858, 37.61738019122316 118.22485207100593, 37.93366425485366 119.02366863905324, 33.27436424031763 119.82248520710058, 25.609175417930413 120.62130177514793, 24.899431054448044 121.42011834319527, 26.54792958739922 122.2189349112426, 35.93007425540852 123.01775147928994, 32.9882631405211 123.81656804733728, 36.97347105670941 124.61538461538463, 37.083580236979444 125.41420118343194, 36.52325484393801 126.21301775147928, 38.09950564454839 127.01183431952663, 27.939512487769356 127.81065088757396, 25.93470068415001 128.60946745562129, 26.429030916479373 129.40828402366864, 27.87678681002939 130.20710059171597, 21.84969562722357 131.0059171597633, 19.039658768280983 131.80473372781066, 9.941893837698753 132.60355029585799, 13.939753960943618 133.40236686390534, 16.605671882994415 134.20118343195267, 16.1926134183018" fill="none" stroke="#ff3a33" stroke-width="1.25"/>

</svg>