<?xml version="1.0" standalone="no"?>
<!DOCTYPE svg PUBLIC "-//W3C//DTD SVG 1.1//EN" "http://www.w3.org/Graphics/SVG/1.1/DTD/svg11.dtd">

<svg width="135" height="50" viewBox="0 0 135 50" preserveAspectRatio="none" 
  xmlns="http://www.w3.org/2000/svg"
  xmlns:xlink="http://www.w3.org/1999/xlink">


<polyline points="0.0, 48.21375033542781 0.7988165680473372, 48.56845874526707 1.5976331360946745, 47.90820623369201 2.396449704142012, 48.764446244257556 3.195266272189349, 47.932733356213504 3.994082840236686, 47.20581839266901 4.792899408284024, 46.604361319466555 5.591715976331361, 46.69730040847375 6.390532544378698, 47.43248315541207 7.189349112426036, 46.4662005323909 7.988165680473372, 47.74880007468219 8.78698224852071, 47.32396832132353 9.585798816568047, 47.46315578153939 10.384615384615385, 46.966346066934086 11.183431952662723, 47.65353236100226 11.982248520710058, 48.277843107034826 12.781065088757396, 48.772948601329176 13.579881656804734, 50.0 14.378698224852071, 49.84487781452278 15.177514792899409, 48.37434286001785 15.976331360946745, 48.431267996833476 16.775147928994084, 48.611889507469726 17.57396449704142, 48.284718955792286 18.37278106508876, 47.56570335075393 19.171597633136095, 47.29042848064855 19.970414201183434, 47.6617776709811 20.76923076923077, 48.300036673927536 21.56804733727811, 47.3398922751217 22.366863905325445, 45.81193163744898 23.16568047337278, 44.943288358406356 23.964497041420117, 45.513983589520784 24.763313609467456, 46.432304261348584 25.562130177514792, 45.82367598707849 26.36094674556213, 47.84618669840018 27.159763313609467, 46.99518212506706 27.958579881656807, 40.99725445267636 28.757396449704142, 43.80177105184077 29.55621301775148, 46.88748903120062 30.355029585798817, 46.50903419292155 31.153846153846157, 46.51326730370941 31.95266272189349, 45.24242707533104 32.751479289940825, 45.863686811332805 33.55029585798817, 42.61945223395339 34.349112426035504, 40.73170853069733 35.14792899408284, 40.37930781713496 35.94674556213018, 42.13901549579587 36.74556213017752, 42.28442227844214 37.54437869822485, 40.78047436725477 38.34319526627219, 41.120871772570354 39.142011834319526, 38.07542806014499 39.94082840236687, 30.036173317005154 40.7396449704142, 33.032164670424166 41.53846153846154, 25.202224656390037 42.337278106508876, 30.898533771729014 43.13609467455622, 32.53584813920188 43.93491124260355, 34.32180974205094 44.73372781065089, 30.344894134197155 45.532544378698226, 32.81167909314955 46.33136094674556, 28.376801350310732 47.1301775147929, 7.506046081897567 47.928994082840234, 16.878842367999386 48.72781065088758, 4.775344809407928 49.52662721893491, 6.893849098892114 50.32544378698225, 10.343875265059761 51.124260355029584, 14.295469204121222 51.92307692307693, 7.93017127322036 52.72189349112426, 12.068322759750064 53.5207100591716, 14.917271077114751 54.319526627218934, 10.442699482322096 55.11834319526627, 2.5471660417479804 55.91715976331361, 6.2280643050480045 56.71597633136094, 4.09231233765981 57.514792899408285, 5.769213190625531 58.31360946745562, 12.625553414421406 59.11242603550296, 13.046281022341374 59.91124260355029, 10.484853749580509 60.710059171597635, 17.174864356394178 61.50887573964497, 18.864260098967588 62.307692307692314, 0.0 63.10650887573964, 3.56364818282852 63.90532544378698, 8.168844060814836 64.70414201183432, 9.789503636516784 65.50295857988165, 15.161974724541597 66.30177514792899, 14.41939602190487 67.10059171597634, 14.474646109053207 67.89940828402366, 14.56021655690591 68.69822485207101, 20.892249168018097 69.49704142011834, 23.774333044876045 70.29585798816568, 24.024534044386716 71.09467455621302, 25.535124272168797 71.89349112426036, 25.32937550491478 72.6923076923077, 22.969441849384424 73.49112426035504, 20.695077913078844 74.28994082840237, 22.60763863969466 75.0887573964497, 26.423001652270145 75.88757396449704, 24.858341095111207 76.68639053254438, 24.952247563294573 77.48520710059172, 29.75398098048727 78.28402366863905, 29.404532208380513 79.0828402366864, 29.763327000192884 79.88165680473374, 26.91724469933415 80.68047337278107, 27.76782652265789 81.4792899408284, 26.735974577520082 82.27810650887574, 28.893529079349722 83.07692307692308, 29.38918945980823 83.87573964497041, 28.575887751897934 84.67455621301775, 28.392687389588957 85.4733727810651, 28.38514171646061 86.27218934911244, 29.033608995479156 87.07100591715975, 27.65406152161883 87.8698224852071, 27.507569070471572 88.66863905325444, 26.926318946557583 89.46745562130178, 27.97750732557472 90.26627218934911, 22.763663223847676 91.06508875739645, 22.339040840501916 91.8639053254438, 21.00761399712896 92.66272189349112, 23.04180076293239 93.46153846153845, 21.49627907518928 94.2603550295858, 23.157422496965236 95.05917159763314, 21.78937734442788 95.85798816568047, 21.261652239139345 96.65680473372781, 20.639467559229637 97.45562130177515, 19.429418581011472 98.2544378698225, 22.948356485694518 99.05325443786982, 25.173618000227783 99.85207100591715, 25.549203194942972 100.6508875739645, 24.634152693809995 101.44970414201183, 21.75984238736995 102.24852071005917, 22.276876047912836 103.04733727810651, 24.291415886304122 103.84615384615385, 20.166230686697077 104.64497041420118, 23.396935077809868 105.44378698224853, 22.89850757270184 106.24260355029585, 24.836478334654984 107.0414201183432, 23.86057486804792 107.84023668639053, 24.656429538752942 108.63905325443787, 24.706240777336394 109.43786982248521, 24.910036757648474 110.23668639053254, 24.760139805876598 111.03550295857988, 24.88409751652952 111.83431952662723, 24.446760151772633 112.63313609467457, 23.921225797549848 113.43195266272188, 25.161058221813914 114.23076923076923, 25.66908788197702 115.02958579881657, 24.61750808482733 115.82840236686391, 26.13067619460946 116.62721893491124, 26.296775789535744 117.42603550295858, 24.57347191412261 118.22485207100593, 25.44643289007547 119.02366863905324, 25.7290957338511 119.82248520710058, 25.55173036616572 120.62130177514793, 26.498494132684936 121.42011834319527, 26.29896240539405 122.2189349112426, 28.268374764516192 123.01775147928994, 27.408320633109422 123.81656804733728, 26.978219833757034 124.61538461538463, 27.1053508712634 125.41420118343194, 27.286100324177887 126.21301775147928, 26.2653530891891 127.01183431952663, 25.162921426918427 127.81065088757396, 23.803619852746934 128.60946745562129, 24.23563887682792 129.40828402366864, 24.66347017020106 130.20710059171597, 24.204995618258828 131.0059171597633, 24.337557413287072 131.80473372781066, 23.822592591782158 132.60355029585799, 24.289280602608514 133.40236686390534, 24.495037035094917 134.20118343195267, 24.398327568933432" fill="none" stroke="#32ca5b" stroke-width="1.25"/>

</svg>