<?xml version="1.0" standalone="no"?>
<!DOCTYPE svg PUBLIC "-//W3C//DTD SVG 1.1//EN" "http://www.w3.org/Graphics/SVG/1.1/DTD/svg11.dtd">

<svg width="135" height="50" viewBox="0 0 135 50" preserveAspectRatio="none" 
  xmlns="http://www.w3.org/2000/svg"
  xmlns:xlink="http://www.w3.org/1999/xlink">


<polyline points="0.0, 2.589982749343266 0.7988165680473372, 4.9006481719443435 1.5976331360946745, 1.8981156616132617 2.396449704142012, 4.116067086437279 3.195266272189349, 1.4403320682447054 3.994082840236686, 0.03148315320758773 4.792899408284024, 0.0 5.591715976331361, 0.4064248713332202 6.390532544378698, 1.8864992916329728 7.189349112426036, 6.967368661723872 7.988165680473372, 3.5171857391139447 8.78698224852071, 1.9074419552333206 9.585798816568047, 4.516031586556099 10.384615384615385, 2.3814746643798395 11.183431952662723, 8.713491748278264 11.982248520710058, 20.27868768899718 12.781065088757396, 20.76692733615224 13.579881656804734, 18.113109808334933 14.378698224852071, 17.26251595687115 15.177514792899409, 12.987333361589531 15.976331360946745, 10.237942660538385 16.775147928994084, 11.766445913003185 17.57396449704142, 9.945697207863672 18.37278106508876, 9.547465397836781 19.171597633136095, 10.793766787979019 19.970414201183434, 14.353432653307694 20.76923076923077, 17.27207883978021 21.56804733727811, 15.64059159690903 22.366863905325445, 18.262903965527798 23.16568047337278, 20.831861103338976 23.964497041420117, 22.560699857442902 24.763313609467456, 24.689998994185565 25.562130177514792, 24.839828103841942 26.36094674556213, 30.461935773781303 27.159763313609467, 28.28263113223663 27.958579881656807, 29.392751412898203 28.757396449704142, 27.037182965368284 29.55621301775148, 29.80259341835545 30.355029585798817, 33.31423170531345 31.153846153846157, 31.249293893362744 31.95266272189349, 30.202937213560215 32.751479289940825, 32.4483621277499 33.55029585798817, 33.865568621456546 34.349112426035504, 32.23436236527687 35.14792899408284, 33.61107149120571 35.94674556213018, 30.897224648821304 36.74556213017752, 30.872244254549884 37.54437869822485, 30.61430980636918 38.34319526627219, 30.300994441345498 39.142011834319526, 36.761179423601966 39.94082840236687, 38.01511583911143 40.7396449704142, 36.2609796701196 41.53846153846154, 36.74155472279783 42.337278106508876, 34.053135939457164 43.13609467455622, 30.74653723466614 43.93491124260355, 29.733634588191343 44.73372781065089, 28.363127921014897 45.532544378698226, 28.635716852480225 46.33136094674556, 28.443868624977842 47.1301775147929, 27.789913345363125 47.928994082840234, 28.411940472575836 48.72781065088758, 29.26121246509198 49.52662721893491, 27.27350367865312 50.32544378698225, 24.304150720917406 51.124260355029584, 26.637862124035948 51.92307692307693, 26.30979930224392 52.72189349112426, 26.242400765689588 53.5207100591716, 27.097910847840623 54.319526627218934, 24.464764027657086 55.11834319526627, 27.89206664770574 55.91715976331361, 29.007625838315924 56.71597633136094, 32.34672821961658 57.514792899408285, 32.1846287713006 58.31360946745562, 33.010000953593355 59.11242603550296, 37.289144040712664 59.91124260355029, 37.029518981964735 60.710059171597635, 35.31634296697438 61.50887573964497, 35.22525842973125 62.307692307692314, 33.8684971132815 63.10650887573964, 35.11085967904389 63.90532544378698, 35.72047943330667 64.70414201183432, 34.58073284155059 65.50295857988165, 32.164398252439035 66.30177514792899, 31.57850652991235 67.10059171597634, 31.519800718530743 67.89940828402366, 29.865285354110654 68.69822485207101, 27.385412082161036 69.49704142011834, 28.873241109758176 70.29585798816568, 31.32984347541848 71.09467455621302, 28.30285366985459 71.89349112426036, 32.510162424254155 72.6923076923077, 32.18182691641537 73.49112426035504, 30.33070391054324 74.28994082840237, 31.738440163212484 75.0887573964497, 33.97099938279634 75.88757396449704, 33.53975631106894 76.68639053254438, 32.88008885615842 77.48520710059172, 39.741233986334535 78.28402366863905, 36.37322966316272 79.0828402366864, 33.0924270700101 79.88165680473374, 30.739023391040305 80.68047337278107, 29.97764617787381 81.4792899408284, 31.732598039660324 82.27810650887574, 34.26267888087297 83.07692307692308, 34.513625469165845 83.87573964497041, 35.62406139895789 84.67455621301775, 37.223002025376324 85.4733727810651, 37.704812293712905 86.27218934911244, 36.70620079842011 87.07100591715975, 36.231102484054716 87.8698224852071, 37.16273309577258 88.66863905325444, 37.05842671001986 89.46745562130178, 37.50589885159045 90.26627218934911, 35.42100361931423 91.06508875739645, 35.92832052093868 91.8639053254438, 35.53549886064571 92.66272189349112, 36.88535785947165 93.46153846153845, 36.379910199048716 94.2603550295858, 37.08708862400599 95.05917159763314, 36.315426104746265 95.85798816568047, 36.809771893527426 96.65680473372781, 34.61678259156771 97.45562130177515, 34.67759644188262 98.2544378698225, 38.843005095804706 99.05325443786982, 44.57364478740783 99.85207100591715, 44.956929399762245 100.6508875739645, 44.362173756752114 101.44970414201183, 44.12938440951565 102.24852071005917, 44.232024103553655 103.04733727810651, 44.41485611411089 103.84615384615385, 44.84818061258839 104.64497041420118, 42.75955284419239 105.44378698224853, 41.3160995667778 106.24260355029585, 43.01892271602064 107.0414201183432, 41.95769774301663 107.84023668639053, 43.5770445264599 108.63905325443787, 42.879491174664615 109.43786982248521, 42.246134423857704 110.23668639053254, 43.06467723814168 111.03550295857988, 42.71188130311702 111.83431952662723, 42.10911593050973 112.63313609467457, 42.43291287206607 113.43195266272188, 42.88683151327431 114.23076923076923, 42.63594923570281 115.02958579881657, 43.27394616156065 115.82840236686391, 46.77437684612051 116.62721893491124, 49.065653633619334 117.42603550295858, 45.45226634171384 118.22485207100593, 44.683698134150525 119.02366863905324, 42.679689825869104 119.82248520710058, 43.86498373698754 120.62130177514793, 46.60873228861948 121.42011834319527, 46.49118191953126 122.2189349112426, 50.0 123.01775147928994, 48.77734142199442 123.81656804733728, 47.735407201491995 124.61538461538463, 46.84709358243098 125.41420118343194, 46.744824322548965 126.21301775147928, 45.11944063076153 127.01183431952663, 42.79102257897062 127.81065088757396, 40.23121283201551 128.60946745562129, 41.09030111622798 129.40828402366864, 42.300583013125795 130.20710059171597, 40.32644571101486 131.0059171597633, 39.10470993329279 131.80473372781066, 38.255011001213546 132.60355029585799, 38.25347094779854 133.40236686390534, 38.7806638170707 134.20118343195267, 38.66743100973029" fill="none" stroke="#ff3a33" stroke-width="1.25"/>

</svg>