<?xml version="1.0" standalone="no"?>
<!DOCTYPE svg PUBLIC "-//W3C//DTD SVG 1.1//EN" "http://www.w3.org/Graphics/SVG/1.1/DTD/svg11.dtd">

<svg width="135" height="50" viewBox="0 0 135 50" preserveAspectRatio="none" 
  xmlns="http://www.w3.org/2000/svg"
  xmlns:xlink="http://www.w3.org/1999/xlink">


<polyline points="0.0, 27.463249415865064 0.7988165680473372, 34.861385214291744 1.5976331360946745, 24.22560044373416 2.396449704142012, 18.026289535982688 3.195266272189349, 25.03334263595727 3.994082840236686, 30.224100747551773 4.792899408284024, 22.37954961740713 5.591715976331361, 21.005614917849826 6.390532544378698, 23.322394489894524 7.189349112426036, 26.90373805338092 7.988165680473372, 16.113138193238317 8.78698224852071, 27.031715134035167 9.585798816568047, 22.979289232699703 10.384615384615385, 22.965257403405044 11.183431952662723, 16.983993624510337 11.982248520710058, 20.758524227997935 12.781065088757396, 25.457925479291017 13.579881656804734, 23.069228597098203 14.378698224852071, 27.139311141712845 15.177514792899409, 30.28232751349449 15.976331360946745, 33.50588352974054 16.775147928994084, 34.082843553020446 17.57396449704142, 28.329978471922974 18.37278106508876, 32.14339163343827 19.171597633136095, 28.224674323295567 19.970414201183434, 26.420240572296482 20.76923076923077, 37.96439636684772 21.56804733727811, 26.212855263327928 22.366863905325445, 28.653886012697726 23.16568047337278, 27.888623919400896 23.964497041420117, 27.32696280586897 24.763313609467456, 30.563946520775982 25.562130177514792, 23.578009749689322 26.36094674556213, 25.6469560951037 27.159763313609467, 30.202705384692912 27.958579881656807, 28.952459636672877 28.757396449704142, 26.716394995476655 29.55621301775148, 31.749777811083497 30.355029585798817, 29.28733902093802 31.153846153846157, 30.683146423490548 31.95266272189349, 28.623134145196406 32.751479289940825, 28.622177177458436 33.55029585798817, 28.476419455014334 34.349112426035504, 28.015184220583304 35.14792899408284, 30.704017685015252 35.94674556213018, 27.065418057673757 36.74556213017752, 27.256424751673787 37.54437869822485, 28.688120739868612 38.34319526627219, 27.693223789514427 39.142011834319526, 27.426266290214237 39.94082840236687, 18.50438205548859 40.7396449704142, 18.65884965759759 41.53846153846154, 21.825239719966795 42.337278106508876, 15.084150114507317 43.13609467455622, 20.288830913034896 43.93491124260355, 29.423837272669466 44.73372781065089, 18.681073572798308 45.532544378698226, 32.05752629836952 46.33136094674556, 30.485886393891377 47.1301775147929, 31.995775993062463 47.928994082840234, 28.26725848330378 48.72781065088758, 35.46656477736434 49.52662721893491, 33.91341227678496 50.32544378698225, 27.55345965694815 51.124260355029584, 13.040504831488974 51.92307692307693, 12.460031193826037 52.72189349112426, 16.40386151107726 53.5207100591716, 17.17604797315011 54.319526627218934, 11.613622322695887 55.11834319526627, 10.868290641320929 55.91715976331361, 14.581049694106893 56.71597633136094, 15.078987225724976 57.514792899408285, 24.67731908698118 58.31360946745562, 19.44807437367422 59.11242603550296, 12.71389190250437 59.91124260355029, 10.96193007156795 60.710059171597635, 6.004205995647129 61.50887573964497, 10.273782700225139 62.307692307692314, 10.521395739363067 63.10650887573964, 16.547901851330764 63.90532544378698, 16.559910167195575 64.70414201183432, 11.534086266483651 65.50295857988165, 12.946002926082482 66.30177514792899, 19.088119105398594 67.10059171597634, 18.60213328721747 67.89940828402366, 15.635012907256375 68.69822485207101, 15.109798622550766 69.49704142011834, 11.778956184139599 70.29585798816568, 18.950366002963808 71.09467455621302, 5.093396530227973 71.89349112426036, 25.265895691014716 72.6923076923077, 21.664059974291458 73.49112426035504, 28.97717484028845 74.28994082840237, 23.28739471987439 75.0887573964497, 20.672576680029035 75.88757396449704, 20.417962633240606 76.68639053254438, 27.648455396910247 77.48520710059172, 29.264992384584293 78.28402366863905, 17.765593260635228 79.0828402366864, 16.34463254793224 79.88165680473374, 42.14017632111196 80.68047337278107, 15.957711125244165 81.4792899408284, 20.86179591792806 82.27810650887574, 19.742613008266517 83.07692307692308, 22.567971436845227 83.87573964497041, 12.93791911729079 84.67455621301775, 17.751920181673654 85.4733727810651, 22.23916660420683 86.27218934911244, 26.35341087891226 87.07100591715975, 21.793250654852287 87.8698224852071, 18.130671534193336 88.66863905325444, 29.40345241346094 89.46745562130178, 22.438371553258225 90.26627218934911, 26.370629874390296 91.06508875739645, 22.433806113668957 91.8639053254438, 24.290453237313294 92.66272189349112, 25.203875113493407 93.46153846153845, 27.18845945153764 94.2603550295858, 23.13245794798003 95.05917159763314, 18.85350421261959 95.85798816568047, 22.663232350676253 96.65680473372781, 8.544919704716257 97.45562130177515, 25.807281152891072 98.2544378698225, 21.920189042665044 99.05325443786982, 37.453549029588665 99.85207100591715, 5.492590571577851 100.6508875739645, 20.345463416111418 101.44970414201183, 8.132703240082199 102.24852071005917, 21.244688589009655 103.04733727810651, 17.57259398198944 103.84615384615385, 13.338414537818274 104.64497041420118, 24.635709206650578 105.44378698224853, 18.226973059301976 106.24260355029585, 16.469044111061454 107.0414201183432, 21.02578019181237 107.84023668639053, 13.024705524824007 108.63905325443787, 23.777516657773255 109.43786982248521, 24.72703316201714 110.23668639053254, 29.459082062850843 111.03550295857988, 25.28725642663354 111.83431952662723, 28.910693623921702 112.63313609467457, 50.0 113.43195266272188, 27.93981967814049 114.23076923076923, 35.55579298198783 115.02958579881657, 28.960811910031893 115.82840236686391, 17.112048163682545 116.62721893491124, 34.69614976111022 117.42603550295858, 30.91192024634566 118.22485207100593, 0.0 119.02366863905324, 18.447054641756903 119.82248520710058, 22.39528045219426 120.62130177514793, 16.265804903289823 121.42011834319527, 29.119500531062613 122.2189349112426, 21.089855345707782 123.01775147928994, 25.509864054732244 123.81656804733728, 12.202266122757907 124.61538461538463, 33.78382463265551 125.41420118343194, 30.43214393679008 126.21301775147928, 27.614433237093067 127.01183431952663, 30.09074750785377 127.81065088757396, 31.188765815595946 128.60946745562129, 34.57143065721874 129.40828402366864, 28.603204098693695 130.20710059171597, 24.089664034486493 131.0059171597633, 20.93821407908418 131.80473372781066, 27.950404781308475 132.60355029585799, 31.751896500978294 133.40236686390534, 28.005133879026534 134.20118343195267, 27.641518319417102" fill="none" stroke="#ff3a33" stroke-width="1.25"/>

</svg>