<?xml version="1.0" standalone="no"?>
<!DOCTYPE svg PUBLIC "-//W3C//DTD SVG 1.1//EN" "http://www.w3.org/Graphics/SVG/1.1/DTD/svg11.dtd">

<svg width="135" height="50" viewBox="0 0 135 50" preserveAspectRatio="none" 
  xmlns="http://www.w3.org/2000/svg"
  xmlns:xlink="http://www.w3.org/1999/xlink">


<polyline points="0.0, 0.0 0.7988165680473372, 2.929392496590071 1.5976331360946745, 9.00403107919506 2.396449704142012, 7.936534345907761 3.195266272189349, 9.32872953938544 3.994082840236686, 9.488288027330615 4.792899408284024, 6.628163896827774 5.591715976331361, 4.428846952356591 6.390532544378698, 7.186751122446814 7.189349112426036, 12.952175847329329 7.988165680473372, 13.44966199353099 8.78698224852071, 10.788302870712412 9.585798816568047, 9.650400306895229 10.384615384615385, 11.564587355150815 11.183431952662723, 6.664998610833149 11.982248520710058, 16.783725181290936 12.781065088757396, 20.3844286859822 13.579881656804734, 26.84991361233 14.378698224852071, 29.390949943026136 15.177514792899409, 26.33373525968458 15.976331360946745, 23.60680169911957 16.775147928994084, 22.08490923022306 17.57396449704142, 19.423430626659748 18.37278106508876, 15.767781953260606 19.171597633136095, 13.422409352541296 19.970414201183434, 16.918730463868464 20.76923076923077, 21.55810376720053 21.56804733727811, 22.81691668307633 22.366863905325445, 22.509621419007576 23.16568047337278, 25.194576382713123 23.964497041420117, 29.207984804530714 24.763313609467456, 32.7093301945697 25.562130177514792, 36.92503686503892 26.36094674556213, 31.507636607025557 27.159763313609467, 36.895918843986145 27.958579881656807, 40.64506512787766 28.757396449704142, 41.94738685279845 29.55621301775148, 38.77662503744407 30.355029585798817, 40.31522735091666 31.153846153846157, 43.935317262898565 31.95266272189349, 39.48963567565014 32.751479289940825, 36.33196445980989 33.55029585798817, 43.563960419862326 34.349112426035504, 45.11956167014182 35.14792899408284, 43.020523229250536 35.94674556213018, 45.837720451723044 36.74556213017752, 42.69876622115639 37.54437869822485, 38.94761060446644 38.34319526627219, 35.63703198481121 39.142011834319526, 39.13533163276114 39.94082840236687, 46.84553607677827 40.7396449704142, 45.53852385256117 41.53846153846154, 44.753817819266914 42.337278106508876, 44.607647574436974 43.13609467455622, 43.51404583247369 43.93491124260355, 39.928095671183414 44.73372781065089, 36.774676311829495 45.532544378698226, 32.73229298521878 46.33136094674556, 33.281837464155196 47.1301775147929, 33.44831213116419 47.928994082840234, 36.59345418718945 48.72781065088758, 37.05349308135146 49.52662721893491, 41.27233870030606 50.32544378698225, 38.04938067988493 51.124260355029584, 34.55021520643907 51.92307692307693, 38.91565924468868 52.72189349112426, 38.361486114991145 53.5207100591716, 37.4150024862825 54.319526627218934, 37.91956624050602 55.11834319526627, 34.327757672484324 55.91715976331361, 37.667629101974796 56.71597633136094, 38.321305860819805 57.514792899408285, 41.2701231080464 58.31360946745562, 40.67515538637397 59.11242603550296, 42.20384553080789 59.91124260355029, 44.728667405556344 60.710059171597635, 46.13527527085938 61.50887573964497, 44.57437923519086 62.307692307692314, 45.16257002054811 63.10650887573964, 42.5281243354341 63.90532544378698, 45.03849205314689 64.70414201183432, 46.56640129565706 65.50295857988165, 47.14686519137994 66.30177514792899, 43.052505803471185 67.10059171597634, 42.60487392735655 67.89940828402366, 45.43336417212796 68.69822485207101, 43.79755417955256 69.49704142011834, 39.51629589030572 70.29585798816568, 43.879742240599434 71.09467455621302, 50.0 71.89349112426036, 48.2641096110662 72.6923076923077, 42.20176660880758 73.49112426035504, 41.77712231475841 74.28994082840237, 40.57287486745551 75.0887573964497, 42.10832301477876 75.88757396449704, 44.88241821412003 76.68639053254438, 45.81725411567055 77.48520710059172, 41.93729818476814 78.28402366863905, 48.73235111434609 79.0828402366864, 47.74155215329794 79.88165680473374, 46.11643842116536 80.68047337278107, 43.03578600558794 81.4792899408284, 41.22762448346193 82.27810650887574, 40.82654297657744 83.07692307692308, 38.40626588333657 83.87573964497041, 35.99951472116482 84.67455621301775, 31.136037703621234 85.4733727810651, 29.007797350788135 86.27218934911244, 29.393280681303235 87.07100591715975, 29.770576488558227 87.8698224852071, 29.671831341057974 88.66863905325444, 31.599574901524203 89.46745562130178, 31.98243075466612 90.26627218934911, 30.69920621355643 91.06508875739645, 26.49630406156347 91.8639053254438, 26.645953615689788 92.66272189349112, 27.599193256516802 93.46153846153845, 26.792811820852 94.2603550295858, 25.219596068055804 95.05917159763314, 24.979257346602818 95.85798816568047, 25.912643785599332 96.65680473372781, 24.15895923841129 97.45562130177515, 21.566203370076483 98.2544378698225, 24.249733265064336 99.05325443786982, 22.418570690850164 99.85207100591715, 22.39895934804646 100.6508875739645, 23.697123407524536 101.44970414201183, 21.976313587735476 102.24852071005917, 22.774791544123683 103.04733727810651, 24.551533481911 103.84615384615385, 25.20760576334766 104.64497041420118, 26.017029254962388 105.44378698224853, 25.35145698800675 106.24260355029585, 23.068530484287635 107.0414201183432, 23.936517224054636 107.84023668639053, 24.958047958915003 108.63905325443787, 25.522660152689543 109.43786982248521, 27.508047611838 110.23668639053254, 27.21944899458371 111.03550295857988, 24.367923742622562 111.83431952662723, 25.057172736772404 112.63313609467457, 23.02231416529738 113.43195266272188, 23.10618065894299 114.23076923076923, 24.80260281674917 115.02958579881657, 25.095994507620755 115.82840236686391, 24.42916483508685 116.62721893491124, 25.829776939057624 117.42603550295858, 30.49902356962832 118.22485207100593, 29.653854068941932 119.02366863905324, 27.640513987309255 119.82248520710058, 27.257120852826855 120.62130177514793, 27.018080688519948 121.42011834319527, 29.42592351943315 122.2189349112426, 27.62504124835826 123.01775147928994, 37.00081190406676 123.81656804733728, 33.66047450452243 124.61538461538463, 30.624530896562923 125.41420118343194, 31.25582175657766 126.21301775147928, 28.56386255989667 127.01183431952663, 24.292708392564954 127.81065088757396, 17.147043556028002 128.60946745562129, 13.053298194973886 129.40828402366864, 13.024479586560131 130.20710059171597, 11.89838471670939 131.0059171597633, 8.877615141649196 131.80473372781066, 6.137248295250173 132.60355029585799, 7.634307249447851 133.40236686390534, 7.968793145723661 134.20118343195267, 5.996769868292998" fill="none" stroke="#ff3a33" stroke-width="1.25"/>

</svg>