<?xml version="1.0" standalone="no"?>
<!DOCTYPE svg PUBLIC "-//W3C//DTD SVG 1.1//EN" "http://www.w3.org/Graphics/SVG/1.1/DTD/svg11.dtd">

<svg width="135" height="50" viewBox="0 0 135 50" preserveAspectRatio="none" 
  xmlns="http://www.w3.org/2000/svg"
  xmlns:xlink="http://www.w3.org/1999/xlink">


<polyline points="0.0, 8.283790534862689 0.7988165680473372, 10.860477254812903 1.5976331360946745, 5.785824186419038 2.396449704142012, 11.550791569592622 3.195266272189349, 9.598218204167097 3.994082840236686, 3.1508649852356747 4.792899408284024, 4.970916847756678 5.591715976331361, 2.7239491310868833 6.390532544378698, 8.676574171248117 7.189349112426036, 10.093474395225376 7.988165680473372, 0.2828471197334344 8.78698224852071, 0.0 9.585798816568047, 3.3656015137422646 10.384615384615385, 1.162397638207132 11.183431952662723, 10.761104240690338 11.982248520710058, 24.99646157321823 12.781065088757396, 38.4383697193976 13.579881656804734, 34.08032980373074 14.378698224852071, 30.73531201634391 15.177514792899409, 26.917600100352658 15.976331360946745, 24.043526444684773 16.775147928994084, 22.504415871039452 17.57396449704142, 20.3342353083517 18.37278106508876, 22.782654473816542 19.171597633136095, 23.518597862464173 19.970414201183434, 21.09193306331085 20.76923076923077, 20.04914902140926 21.56804733727811, 19.678801607635464 22.366863905325445, 24.869211791204876 23.16568047337278, 26.94953168882353 23.964497041420117, 33.3612271369457 24.763313609467456, 35.941657637395394 25.562130177514792, 32.337887057728146 26.36094674556213, 42.26629489659391 27.159763313609467, 38.146842935771645 27.958579881656807, 39.39278923187282 28.757396449704142, 33.81145750507232 29.55621301775148, 37.957458105189964 30.355029585798817, 43.93409899451935 31.153846153846157, 42.429241492015045 31.95266272189349, 38.583795376423204 32.751479289940825, 43.51497048637411 33.55029585798817, 50.0 34.349112426035504, 47.54944578228601 35.14792899408284, 47.990598548519195 35.94674556213018, 43.020805039229096 36.74556213017752, 42.39845070118228 37.54437869822485, 35.84114062445394 38.34319526627219, 36.6982769536654 39.142011834319526, 48.44395651512055 39.94082840236687, 46.13306942042627 40.7396449704142, 42.238228278017196 41.53846153846154, 42.60015925128913 42.337278106508876, 39.13848515978652 43.13609467455622, 33.23737679694751 43.93491124260355, 30.728339487306915 44.73372781065089, 23.068661809391763 45.532544378698226, 21.038308869033326 46.33136094674556, 26.91460350493367 47.1301775147929, 28.461328540167575 47.928994082840234, 32.4889050054508 48.72781065088758, 37.08067004005387 49.52662721893491, 30.506146450455283 50.32544378698225, 32.350770649447306 51.124260355029584, 34.189013952104204 51.92307692307693, 31.270124699027065 52.72189349112426, 28.978633686431348 53.5207100591716, 32.11529005206644 54.319526627218934, 30.47427432473093 55.11834319526627, 38.84700266746682 55.91715976331361, 38.11693467568537 56.71597633136094, 42.70657096990878 57.514792899408285, 39.635331042792444 58.31360946745562, 42.78902642970577 59.11242603550296, 46.95287503700966 59.91124260355029, 49.969887103151905 60.710059171597635, 48.72945614546805 61.50887573964497, 48.83090357535148 62.307692307692314, 46.70728759315089 63.10650887573964, 49.48865523728578 63.90532544378698, 49.92162261003419 64.70414201183432, 48.513043985857614 65.50295857988165, 46.52159981013128 66.30177514792899, 42.41354224047721 67.10059171597634, 45.983625362504796 67.89940828402366, 43.97028926810481 68.69822485207101, 38.4635446743114 69.49704142011834, 29.27535073584297 70.29585798816568, 25.920662140219054 71.09467455621302, 21.16096689939328 71.89349112426036, 22.589318615020673 72.6923076923077, 20.773237401358134 73.49112426035504, 21.112583078086463 74.28994082840237, 26.876285115475575 75.0887573964497, 33.333605023729945 75.88757396449704, 35.38010502972925 76.68639053254438, 27.837082009837655 77.48520710059172, 37.40347806250816 78.28402366863905, 32.016948329022895 79.0828402366864, 26.758098323763672 79.88165680473374, 26.403067120248203 80.68047337278107, 23.678729811257156 81.4792899408284, 24.500668826336064 82.27810650887574, 19.78205911399386 83.07692307692308, 20.875401154963548 83.87573964497041, 16.49879804284797 84.67455621301775, 13.225945201630967 85.4733727810651, 20.509901797441156 86.27218934911244, 25.56574850659793 87.07100591715975, 19.302668768554128 87.8698224852071, 23.36273958988226 88.66863905325444, 24.323771857190174 89.46745562130178, 21.957358765392872 90.26627218934911, 18.5642669084743 91.06508875739645, 22.06781742055307 91.8639053254438, 20.71750242586709 92.66272189349112, 20.497760755475436 93.46153846153845, 21.058956600295154 94.2603550295858, 19.17258448920591 95.05917159763314, 15.715341854924617 95.85798816568047, 17.823589077804183 96.65680473372781, 13.761383276080611 97.45562130177515, 16.950519016214415 98.2544378698225, 15.339164741566005 99.05325443786982, 16.22118897680192 99.85207100591715, 17.18952751629949 100.6508875739645, 14.898534789030244 101.44970414201183, 23.27958829553506 102.24852071005917, 24.35232097709114 103.04733727810651, 20.29006593961514 103.84615384615385, 14.877355812629359 104.64497041420118, 13.46629070129802 105.44378698224853, 11.514037684409207 106.24260355029585, 16.208744130489247 107.0414201183432, 16.991903282362237 107.84023668639053, 19.77273804579254 108.63905325443787, 19.882247104409153 109.43786982248521, 18.139274177759283 110.23668639053254, 18.455512624961912 111.03550295857988, 15.30801591109461 111.83431952662723, 15.681832013412503 112.63313609467457, 13.51919278860268 113.43195266272188, 16.950891391158056 114.23076923076923, 16.5522406913796 115.02958579881657, 16.921672825748868 115.82840236686391, 19.985574721475942 116.62721893491124, 20.91256189856782 117.42603550295858, 19.599613956634666 118.22485207100593, 21.575308287084265 119.02366863905324, 21.330160878337814 119.82248520710058, 17.975847951118155 120.62130177514793, 22.219901227206634 121.42011834319527, 22.801166480180417 122.2189349112426, 32.310531816980756 123.01775147928994, 27.232144458577544 123.81656804733728, 28.367933723192486 124.61538461538463, 29.17659012235239 125.41420118343194, 29.990574918213692 126.21301775147928, 22.123027416666982 127.01183431952663, 20.560819002865387 127.81065088757396, 18.30621473861433 128.60946745562129, 19.35900393921931 129.40828402366864, 21.14679136023386 130.20710059171597, 18.017556212662534 131.0059171597633, 16.70702112980751 131.80473372781066, 15.459197103193087 132.60355029585799, 17.504754625600217 133.40236686390534, 18.793238581296993 134.20118343195267, 18.89764677803051" fill="none" stroke="#ff3a33" stroke-width="1.25"/>

</svg>