<?xml version="1.0" standalone="no"?>
<!DOCTYPE svg PUBLIC "-//W3C//DTD SVG 1.1//EN" "http://www.w3.org/Graphics/SVG/1.1/DTD/svg11.dtd">

<svg width="135" height="50" viewBox="0 0 135 50" preserveAspectRatio="none" 
  xmlns="http://www.w3.org/2000/svg"
  xmlns:xlink="http://www.w3.org/1999/xlink">


<polyline points="0.0, 0.0 0.7988165680473372, 16.06797899712113 1.5976331360946745, 13.923230748563636 2.396449704142012, 14.057861424160729 3.195266272189349, 12.496697589741492 3.994082840236686, 10.121282792616684 4.792899408284024, 10.143490913029947 5.591715976331361, 13.760245703424845 6.390532544378698, 13.9250468217509 7.189349112426036, 18.154202046468402 7.988165680473372, 15.858535877421822 8.78698224852071, 7.2027237590616755 9.585798816568047, 12.266878728775067 10.384615384615385, 10.889138047608702 11.183431952662723, 18.71238093404533 11.982248520710058, 25.554171982912326 12.781065088757396, 21.66228001427352 13.579881656804734, 24.1913304506645 14.378698224852071, 26.15743823839822 15.177514792899409, 20.358207086521034 15.976331360946745, 19.980932861325478 16.775147928994084, 19.084792356553134 17.57396449704142, 15.46728725306196 18.37278106508876, 14.933668191282182 19.171597633136095, 23.9816269019886 19.970414201183434, 26.21189469351153 20.76923076923077, 24.809856917631507 21.56804733727811, 24.536925297500154 22.366863905325445, 24.608681829277515 23.16568047337278, 25.343930975447083 23.964497041420117, 29.97134867188935 24.763313609467456, 35.893702325972164 25.562130177514792, 36.69251586433352 26.36094674556213, 34.27990703225131 27.159763313609467, 36.52185636178251 27.958579881656807, 38.25352943043667 28.757396449704142, 40.66823320364673 29.55621301775148, 37.59814410686912 30.355029585798817, 42.43089602462442 31.153846153846157, 44.00871927346257 31.95266272189349, 38.55186800069142 32.751479289940825, 41.922116086767176 33.55029585798817, 43.06240903936758 34.349112426035504, 42.6485244553069 35.14792899408284, 42.76387596773035 35.94674556213018, 37.56889038706385 36.74556213017752, 35.12664178006635 37.54437869822485, 34.1815698378956 38.34319526627219, 39.328771520030465 39.142011834319526, 42.21623626916474 39.94082840236687, 42.241144915048125 40.7396449704142, 38.53165463540988 41.53846153846154, 39.31171470585018 42.337278106508876, 38.76831744098268 43.13609467455622, 16.89869491531337 43.93491124260355, 17.597014875278365 44.73372781065089, 22.928554674473094 45.532544378698226, 20.573433997067273 46.33136094674556, 21.68465598127912 47.1301775147929, 19.75500987590091 47.928994082840234, 20.400551676123857 48.72781065088758, 26.10177616198867 49.52662721893491, 25.038958992042154 50.32544378698225, 23.953169148888403 51.124260355029584, 25.388344042493788 51.92307692307693, 24.45917159521926 52.72189349112426, 23.733956350688292 53.5207100591716, 25.42600842515131 54.319526627218934, 20.28097874136652 55.11834319526627, 20.67791748223492 55.91715976331361, 22.30962243677149 56.71597633136094, 20.66601020996415 57.514792899408285, 8.326395300931967 58.31360946745562, 19.18268147826862 59.11242603550296, 21.69234110138055 59.91124260355029, 23.924130487447183 60.710059171597635, 23.736714706665214 61.50887573964497, 25.480644375234913 62.307692307692314, 24.01870060313104 63.10650887573964, 27.03100470867541 63.90532544378698, 30.438954953708873 64.70414201183432, 30.17294460719007 65.50295857988165, 26.22296584643117 66.30177514792899, 23.573078548397636 67.10059171597634, 26.61561457387429 67.89940828402366, 27.143079024771723 68.69822485207101, 28.617995029035427 69.49704142011834, 37.08650447057737 70.29585798816568, 36.28297411234664 71.09467455621302, 33.047171524331205 71.89349112426036, 33.43891089516966 72.6923076923077, 32.10082067620538 73.49112426035504, 25.76311044944322 74.28994082840237, 21.89231914569783 75.0887573964497, 26.71877736920794 75.88757396449704, 30.062562185813558 76.68639053254438, 29.496493260770457 77.48520710059172, 32.607197650821675 78.28402366863905, 31.624932754024105 79.0828402366864, 31.256233756824408 79.88165680473374, 30.67796446061164 80.68047337278107, 29.83092898344259 81.4792899408284, 27.511567510208344 82.27810650887574, 24.54188821033848 83.07692307692308, 25.497329118224275 83.87573964497041, 24.940328287544606 84.67455621301775, 26.0735591219006 85.4733727810651, 24.777305844917162 86.27218934911244, 29.12386123548869 87.07100591715975, 27.82340779724305 87.8698224852071, 27.545376524455754 88.66863905325444, 27.72963151726642 89.46745562130178, 27.057176636936003 90.26627218934911, 23.14250323048503 91.06508875739645, 27.222144540744875 91.8639053254438, 25.726909058051206 92.66272189349112, 25.270259608418506 93.46153846153845, 25.804075502024844 94.2603550295858, 25.810966291486903 95.05917159763314, 26.479976360277362 95.85798816568047, 25.644248990257356 96.65680473372781, 24.541262504239995 97.45562130177515, 27.774039948181983 98.2544378698225, 28.682381779095127 99.05325443786982, 29.382704464203215 99.85207100591715, 27.56870498742799 100.6508875739645, 27.581029598400225 101.44970414201183, 31.0747964369931 102.24852071005917, 31.47195515197496 103.04733727810651, 35.24622294106384 103.84615384615385, 34.037469895354675 104.64497041420118, 32.832903369444885 105.44378698224853, 28.974228031657915 106.24260355029585, 31.860591855495308 107.0414201183432, 30.828470217323922 107.84023668639053, 31.253041578552704 108.63905325443787, 31.30472712149385 109.43786982248521, 31.305981958891778 110.23668639053254, 31.3333391944226 111.03550295857988, 29.685693748316684 111.83431952662723, 31.200176527478728 112.63313609467457, 30.27046402877317 113.43195266272188, 28.155067813897933 114.23076923076923, 28.126234117671185 115.02958579881657, 31.779993579313448 115.82840236686391, 32.74505862579776 116.62721893491124, 43.299730015707645 117.42603550295858, 39.33463759671251 118.22485207100593, 37.268665311658836 119.02366863905324, 41.22917905782704 119.82248520710058, 41.231457932346494 120.62130177514793, 42.6146199037451 121.42011834319527, 42.05215371681649 122.2189349112426, 49.13646125668788 123.01775147928994, 49.150947000166965 123.81656804733728, 50.0 124.61538461538463, 49.590569557739535 125.41420118343194, 48.50782003700556 126.21301775147928, 40.335182062438165 127.01183431952663, 33.74455682489369 127.81065088757396, 29.41510912100453 128.60946745562129, 30.038186467739408 129.40828402366864, 24.211569174808595 130.20710059171597, 24.066996573356818 131.0059171597633, 19.993181345282856 131.80473372781066, 14.347951026201198 132.60355029585799, 11.744295927208496 133.40236686390534, 15.469758352717939 134.20118343195267, 14.97153855788064" fill="none" stroke="#ff3a33" stroke-width="1.25"/>

</svg>