<?xml version="1.0" standalone="no"?>
<!DOCTYPE svg PUBLIC "-//W3C//DTD SVG 1.1//EN" "http://www.w3.org/Graphics/SVG/1.1/DTD/svg11.dtd">

<svg width="135" height="50" viewBox="0 0 135 50" preserveAspectRatio="none" 
  xmlns="http://www.w3.org/2000/svg"
  xmlns:xlink="http://www.w3.org/1999/xlink">


<polyline points="0.0, 38.64998486936523 0.7988165680473372, 39.55157273586071 1.5976331360946745, 39.25698710172791 2.396449704142012, 40.59453875161932 3.195266272189349, 40.181399423368376 3.994082840236686, 39.58419747423994 4.792899408284024, 38.96031137252063 5.591715976331361, 36.8870411027075 6.390532544378698, 39.00051549231858 7.189349112426036, 39.36083397295064 7.988165680473372, 36.07175382839035 8.78698224852071, 34.21627403648239 9.585798816568047, 36.42870627277181 10.384615384615385, 35.44143842150705 11.183431952662723, 38.109538508995314 11.982248520710058, 41.351345240402296 12.781065088757396, 40.53249639455419 13.579881656804734, 42.28618836999256 14.378698224852071, 41.85123773784507 15.177514792899409, 39.631505530539606 15.976331360946745, 39.294930089957546 16.775147928994084, 38.35250208256721 17.57396449704142, 37.63411889821085 18.37278106508876, 37.78733142392105 19.171597633136095, 38.156524290156156 19.970414201183434, 39.32830015638863 20.76923076923077, 39.54541679112111 21.56804733727811, 38.277480989621765 22.366863905325445, 38.020957117343116 23.16568047337278, 38.49414288620765 23.964497041420117, 40.8886813399461 24.763313609467456, 43.162731754614796 25.562130177514792, 41.797870945888086 26.36094674556213, 46.072074363490024 27.159763313609467, 45.83942597384667 27.958579881656807, 44.92208358062353 28.757396449704142, 43.46634872504133 29.55621301775148, 45.561794526143586 30.355029585798817, 48.41486471842521 31.153846153846157, 47.42927669934763 31.95266272189349, 46.873149821150086 32.751479289940825, 48.40990421813306 33.55029585798817, 50.0 34.349112426035504, 48.98263344751591 35.14792899408284, 49.83413542681672 35.94674556213018, 47.03333534780599 36.74556213017752, 45.53736155723702 37.54437869822485, 44.87678781549318 38.34319526627219, 45.39583166155859 39.142011834319526, 47.55257593433873 39.94082840236687, 47.91853271200066 40.7396449704142, 47.04842253092449 41.53846153846154, 46.60694040382531 42.337278106508876, 46.02243246258026 43.13609467455622, 43.216715485876456 43.93491124260355, 42.20494639540024 44.73372781065089, 41.30898139887312 45.532544378698226, 40.79440007476748 46.33136094674556, 39.53711966048567 47.1301775147929, 39.824023487869894 47.928994082840234, 41.21339395483006 48.72781065088758, 43.9538907395552 49.52662721893491, 42.534915888543445 50.32544378698225, 39.75032266851727 51.124260355029584, 41.693002480169774 51.92307692307693, 40.66729730043487 52.72189349112426, 40.318939629784204 53.5207100591716, 39.91528654880972 54.319526627218934, 38.61760389977764 55.11834319526627, 39.88110725226661 55.91715976331361, 37.99249181613903 56.71597633136094, 37.933161723621666 57.514792899408285, 36.88237413858689 58.31360946745562, 38.03376101493758 59.11242603550296, 40.014881514159015 59.91124260355029, 41.92847430113748 60.710059171597635, 40.680216100846586 61.50887573964497, 39.9624222639383 62.307692307692314, 39.015510205172625 63.10650887573964, 39.79777313813535 63.90532544378698, 39.9972914716654 64.70414201183432, 39.92498397900875 65.50295857988165, 39.72987929641359 66.30177514792899, 38.395941123957094 67.10059171597634, 30.862059787842433 67.89940828402366, 31.564111533591856 68.69822485207101, 33.17380991138954 69.49704142011834, 28.072345459640673 70.29585798816568, 27.683767888542388 71.09467455621302, 26.31833708558387 71.89349112426036, 25.543399488151923 72.6923076923077, 26.914011042067287 73.49112426035504, 25.712316512785094 74.28994082840237, 27.81558711081709 75.0887573964497, 27.708293521338263 75.88757396449704, 31.516610997705463 76.68639053254438, 32.7194945320996 77.48520710059172, 34.16499945248708 78.28402366863905, 32.87844416010513 79.0828402366864, 30.966109454893694 79.88165680473374, 30.367737007172106 80.68047337278107, 28.69318267885576 81.4792899408284, 30.26424268880347 82.27810650887574, 29.556693402147754 83.07692307692308, 29.39703239833712 83.87573964497041, 26.078121608563524 84.67455621301775, 25.922943063211655 85.4733727810651, 19.456262001881445 86.27218934911244, 16.68467861962984 87.07100591715975, 16.527830203506007 87.8698224852071, 9.130267678397919 88.66863905325444, 20.85008716394863 89.46745562130178, 21.167465613980553 90.26627218934911, 19.296659347436076 91.06508875739645, 18.227605163222986 91.8639053254438, 14.515822292101497 92.66272189349112, 10.626804460892208 93.46153846153845, 7.053155481836937 94.2603550295858, 6.272401363223559 95.05917159763314, 9.439931186345582 95.85798816568047, 3.2557735062396627 96.65680473372781, 3.582133593627855 97.45562130177515, 6.2841195349594825 98.2544378698225, 7.7355146326873525 99.05325443786982, 11.452785712654803 99.85207100591715, 11.915029624842651 100.6508875739645, 10.690136855077194 101.44970414201183, 14.76503429908903 102.24852071005917, 14.139892674942347 103.04733727810651, 10.10768023112975 103.84615384615385, 7.246257279582144 104.64497041420118, 7.498147765106451 105.44378698224853, 5.362529123666789 106.24260355029585, 6.12052727423168 107.0414201183432, 7.227419632200194 107.84023668639053, 6.489736006441904 108.63905325443787, 8.36904604366758 109.43786982248521, 3.9827941589276703 110.23668639053254, 5.856737098563784 111.03550295857988, 5.801028076337403 111.83431952662723, 1.5412463125720397 112.63313609467457, 0.0 113.43195266272188, 5.210186738712238 114.23076923076923, 7.490010646318929 115.02958579881657, 8.295075859946422 115.82840236686391, 8.86213868590079 116.62721893491124, 9.763322343462846 117.42603550295858, 9.013232144007077 118.22485207100593, 8.856541525215189 119.02366863905324, 10.329723516784563 119.82248520710058, 12.306324152473898 120.62130177514793, 15.489525498603568 121.42011834319527, 17.607791764135946 122.2189349112426, 18.428627788168978 123.01775147928994, 14.349119682177264 123.81656804733728, 16.4410828731363 124.61538461538463, 15.939220151040995 125.41420118343194, 15.914418366767686 126.21301775147928, 14.456573100747692 127.01183431952663, 10.882328706371085 127.81065088757396, 9.378831752306247 128.60946745562129, 5.786313709242902 129.40828402366864, 6.124008772249786 130.20710059171597, 6.464993781822232 131.0059171597633, 6.616610571534721 131.80473372781066, 5.814371705626206 132.60355029585799, 6.057265781903913 133.40236686390534, 4.8894201689778205 134.20118343195267, 3.218413717061381" fill="none" stroke="#32ca5b" stroke-width="1.25"/>

</svg>