<?xml version="1.0" standalone="no"?>
<!DOCTYPE svg PUBLIC "-//W3C//DTD SVG 1.1//EN" "http://www.w3.org/Graphics/SVG/1.1/DTD/svg11.dtd">

<svg width="135" height="50" viewBox="0 0 135 50" preserveAspectRatio="none" 
  xmlns="http://www.w3.org/2000/svg"
  xmlns:xlink="http://www.w3.org/1999/xlink">


<polyline points="0.0, 42.63764337557897 0.7988165680473372, 45.24831718520409 1.5976331360946745, 44.1012626292183 2.396449704142012, 45.88213816686228 3.195266272189349, 43.984863633717566 3.994082840236686, 44.22738062713736 4.792899408284024, 43.69769336748467 5.591715976331361, 45.45525600649145 6.390532544378698, 45.511331640764865 7.189349112426036, 47.31608288264455 7.988165680473372, 44.6141534836371 8.78698224852071, 42.26472960662351 9.585798816568047, 43.74134466658941 10.384615384615385, 32.52186080804786 11.183431952662723, 42.494127018569486 11.982248520710058, 44.50761740827186 12.781065088757396, 48.055443053528265 13.579881656804734, 44.62027725813926 14.378698224852071, 44.21180921347761 15.177514792899409, 34.91724659903392 15.976331360946745, 35.31847328441894 16.775147928994084, 33.5753045454438 17.57396449704142, 31.335868836624837 18.37278106508876, 28.31041639254277 19.171597633136095, 30.07721635684202 19.970414201183434, 30.423642199396365 20.76923076923077, 29.58545579307934 21.56804733727811, 30.36532306086909 22.366863905325445, 32.004988952868615 23.16568047337278, 34.52170886676466 23.964497041420117, 39.41043848367513 24.763313609467456, 43.109697182749926 25.562130177514792, 41.670350307440316 26.36094674556213, 49.56620629983884 27.159763313609467, 46.745092022264316 27.958579881656807, 49.31958403704244 28.757396449704142, 45.475360795605354 29.55621301775148, 47.362459274874084 30.355029585798817, 50.0 31.153846153846157, 46.58521144666483 31.95266272189349, 43.04635973865766 32.751479289940825, 46.55106932678498 33.55029585798817, 48.87223074158621 34.349112426035504, 47.06694180029903 35.14792899408284, 47.44255081401456 35.94674556213018, 43.415009777322474 36.74556213017752, 41.62986570530764 37.54437869822485, 36.43289543986186 38.34319526627219, 41.07739878419783 39.142011834319526, 46.339307029974705 39.94082840236687, 45.09869479829598 40.7396449704142, 42.688375395991116 41.53846153846154, 44.548131077949826 42.337278106508876, 43.92142126128952 43.13609467455622, 38.65823155031879 43.93491124260355, 35.03844093727119 44.73372781065089, 28.506212112332907 45.532544378698226, 27.036533577413397 46.33136094674556, 31.709531804078527 47.1301775147929, 33.35638223734407 47.928994082840234, 35.12292377630403 48.72781065088758, 41.41333724319938 49.52662721893491, 37.38975037349352 50.32544378698225, 34.70748484891226 51.124260355029584, 37.70114511247725 51.92307692307693, 34.126343004872524 52.72189349112426, 33.569981430408184 53.5207100591716, 34.38001413821969 54.319526627218934, 29.18089390390209 55.11834319526627, 34.273874077550936 55.91715976331361, 33.12857750897846 56.71597633136094, 35.206908589948995 57.514792899408285, 33.81987895762935 58.31360946745562, 35.438729128510275 59.11242603550296, 40.10435010722661 59.91124260355029, 39.73616371895213 60.710059171597635, 39.47241153925348 61.50887573964497, 39.75800866631618 62.307692307692314, 37.698692410086196 63.10650887573964, 44.335066310954915 63.90532544378698, 45.32645423001468 64.70414201183432, 42.26090234705268 65.50295857988165, 41.3225265598129 66.30177514792899, 40.711415685185095 67.10059171597634, 42.8041904590796 67.89940828402366, 41.1276662513553 68.69822485207101, 38.39769043622092 69.49704142011834, 45.507044811941235 70.29585798816568, 42.40552079801641 71.09467455621302, 40.011632059136915 71.89349112426036, 40.94650164556899 72.6923076923077, 40.00399079755776 73.49112426035504, 39.27988223849824 74.28994082840237, 41.03056736292257 75.0887573964497, 43.889555492718635 75.88757396449704, 44.28598191537797 76.68639053254438, 42.6154944365063 77.48520710059172, 46.92174763283884 78.28402366863905, 44.98170789596272 79.0828402366864, 42.75346520797252 79.88165680473374, 41.119049750137535 80.68047337278107, 40.27990152829551 81.4792899408284, 40.88268744604225 82.27810650887574, 38.095097589719884 83.07692307692308, 39.89161067238343 83.87573964497041, 37.95418167534855 84.67455621301775, 38.13613922393461 85.4733727810651, 37.15991658038294 86.27218934911244, 38.02380121846697 87.07100591715975, 37.74740299442003 87.8698224852071, 39.05938114592558 88.66863905325444, 39.382164938416665 89.46745562130178, 39.00911043600857 90.26627218934911, 32.41119788978417 91.06508875739645, 34.60650766917234 91.8639053254438, 33.98152109831038 92.66272189349112, 33.65036346059317 93.46153846153845, 32.96799073926658 94.2603550295858, 32.692849366323294 95.05917159763314, 32.880208484295785 95.85798816568047, 32.88141443778276 96.65680473372781, 29.850231143138277 97.45562130177515, 26.552238326397585 98.2544378698225, 26.672686638723942 99.05325443786982, 26.984612547088364 99.85207100591715, 26.220108863723546 100.6508875739645, 24.881695211567425 101.44970414201183, 25.033258683321552 102.24852071005917, 27.42858533161096 103.04733727810651, 27.402078645341494 103.84615384615385, 26.592321839087766 104.64497041420118, 23.901286048728597 105.44378698224853, 23.19684231963458 106.24260355029585, 23.814197754612294 107.0414201183432, 19.011642558015822 107.84023668639053, 22.644052964164757 108.63905325443787, 24.59570395863393 109.43786982248521, 21.263827839400882 110.23668639053254, 21.143025111710497 111.03550295857988, 16.945866822763914 111.83431952662723, 12.89556388674398 112.63313609467457, 12.669935981743102 113.43195266272188, 13.916969692566358 114.23076923076923, 12.201263878736421 115.02958579881657, 10.503580227147207 115.82840236686391, 12.979806952314904 116.62721893491124, 13.687349243646402 117.42603550295858, 13.113608608613484 118.22485207100593, 13.585501696967265 119.02366863905324, 13.676358721457307 119.82248520710058, 13.594155965314917 120.62130177514793, 16.812961966582108 121.42011834319527, 16.284740844453776 122.2189349112426, 23.990196323123808 123.01775147928994, 21.35313015654581 123.81656804733728, 22.612436770257858 124.61538461538463, 20.67673014291803 125.41420118343194, 20.81449811271356 126.21301775147928, 14.42849361614386 127.01183431952663, 9.67402991240385 127.81065088757396, 5.959229515731628 128.60946745562129, 6.101380108281522 129.40828402366864, 8.3657629257436 130.20710059171597, 2.0044724690531854 131.0059171597633, 0.7811942791331655 131.80473372781066, 0.0 132.60355029585799, 1.029901758792958 133.40236686390534, 1.5485693768764246 134.20118343195267, 1.6499950366547345" fill="none" stroke="#32ca5b" stroke-width="1.25"/>

</svg>