<?xml version="1.0" standalone="no"?>
<!DOCTYPE svg PUBLIC "-//W3C//DTD SVG 1.1//EN" "http://www.w3.org/Graphics/SVG/1.1/DTD/svg11.dtd">

<svg width="135" height="50" viewBox="0 0 135 50" preserveAspectRatio="none" 
  xmlns="http://www.w3.org/2000/svg"
  xmlns:xlink="http://www.w3.org/1999/xlink">


<polyline points="0.0, 28.63398188472616 0.7988165680473372, 31.915998810882307 1.5976331360946745, 33.538660784106625 2.396449704142012, 31.146365827157425 3.195266272189349, 34.00248849128219 3.994082840236686, 32.53020662309466 4.792899408284024, 31.753511085919733 5.591715976331361, 30.18531458204794 6.390532544378698, 30.312341771082334 7.189349112426036, 32.39131838915707 7.988165680473372, 35.5052098824074 8.78698224852071, 32.41458789897002 9.585798816568047, 29.613093299177944 10.384615384615385, 31.81696500577646 11.183431952662723, 26.529806288466705 11.982248520710058, 37.16216994667889 12.781065088757396, 42.461195325183695 13.579881656804734, 45.539450039584864 14.378698224852071, 44.99333707591314 15.177514792899409, 39.952289151789 15.976331360946745, 39.99609703902555 16.775147928994084, 36.336103049012074 17.57396449704142, 38.00350207470255 18.37278106508876, 36.71360796405372 19.171597633136095, 35.80344427300929 19.970414201183434, 36.672612937533195 20.76923076923077, 37.521704247051204 21.56804733727811, 39.260550138901266 22.366863905325445, 39.18529875961212 23.16568047337278, 40.295736894375096 23.964497041420117, 41.80408400853485 24.763313609467456, 42.78887765398486 25.562130177514792, 44.10644506888156 26.36094674556213, 42.25149762217061 27.159763313609467, 46.28535973213368 27.958579881656807, 47.4644857949106 28.757396449704142, 46.50658850231134 29.55621301775148, 43.86702732547952 30.355029585798817, 46.470973495111096 31.153846153846157, 50.0 31.95266272189349, 48.95262848604384 32.751479289940825, 46.65445222030885 33.55029585798817, 48.115941673953266 34.349112426035504, 48.857029107134515 35.14792899408284, 46.555440878510964 35.94674556213018, 45.10223199919559 36.74556213017752, 38.21571384625727 37.54437869822485, 38.293200044781344 38.34319526627219, 39.83946890840191 39.142011834319526, 41.914552765049784 39.94082840236687, 44.624672850467825 40.7396449704142, 43.57366320018366 41.53846153846154, 40.627948640251226 42.337278106508876, 41.53054584250388 43.13609467455622, 41.68626226831767 43.93491124260355, 38.87515105764241 44.73372781065089, 33.78755457555954 45.532544378698226, 33.16890689266887 46.33136094674556, 31.96941626843419 47.1301775147929, 33.51148110315462 47.928994082840234, 32.757109375515455 48.72781065088758, 34.63514944117876 49.52662721893491, 37.40405389556512 50.32544378698225, 35.07758400541297 51.124260355029584, 34.8246303923893 51.92307692307693, 36.56012077431308 52.72189349112426, 34.56557524608942 53.5207100591716, 34.00173627205291 54.319526627218934, 35.96381924656652 55.11834319526627, 34.17510160813704 55.91715976331361, 37.115950222385116 56.71597633136094, 36.90557588667067 57.514792899408285, 39.259767440600974 58.31360946745562, 38.586864242871975 59.11242603550296, 40.30075692418023 59.91124260355029, 41.79945093024003 60.710059171597635, 43.53016261577039 61.50887573964497, 42.71337840089431 62.307692307692314, 42.83899431886476 63.10650887573964, 40.74146403940464 63.90532544378698, 42.69371650660314 64.70414201183432, 44.44212524177207 65.50295857988165, 43.01506079855757 66.30177514792899, 41.07225713260768 67.10059171597634, 41.23442516274106 67.89940828402366, 42.391975426512424 68.69822485207101, 41.66248758284334 69.49704142011834, 35.76471920381831 70.29585798816568, 37.59111314995404 71.09467455621302, 40.46347163844592 71.89349112426036, 38.624775484798604 72.6923076923077, 39.303751391964134 73.49112426035504, 37.89328681623508 74.28994082840237, 36.00822613630679 75.0887573964497, 35.25288677093961 75.88757396449704, 36.89852597656976 76.68639053254438, 37.17314095555361 77.48520710059172, 36.80233544557632 78.28402366863905, 42.38907053076571 79.0828402366864, 40.39821923039746 79.88165680473374, 38.29091234038029 80.68047337278107, 34.07934184866335 81.4792899408284, 29.211530506785156 82.27810650887574, 33.184012512596986 83.07692307692308, 32.1858317409867 83.87573964497041, 33.336710412894035 84.67455621301775, 32.277557560546185 85.4733727810651, 30.143953658421964 86.27218934911244, 29.42849793676437 87.07100591715975, 25.974622715874684 87.8698224852071, 26.628276489274192 88.66863905325444, 28.227124762192023 89.46745562130178, 29.452248040005536 90.26627218934911, 25.79328478092545 91.06508875739645, 26.58139659356456 91.8639053254438, 27.639647783294752 92.66272189349112, 27.09223098503339 93.46153846153845, 26.161860651097495 94.2603550295858, 25.253325588351096 95.05917159763314, 26.195280437412656 95.85798816568047, 25.51361985393335 96.65680473372781, 24.399462947332687 97.45562130177515, 18.294771741270193 98.2544378698225, 20.700881718506434 99.05325443786982, 22.01579210274203 99.85207100591715, 22.965052871888524 100.6508875739645, 21.950420640375494 101.44970414201183, 19.342543547064203 102.24852071005917, 21.73771773024547 103.04733727810651, 16.066982166127875 103.84615384615385, 14.010969048365492 104.64497041420118, 13.309157754414947 105.44378698224853, 9.9059101979121 106.24260355029585, 9.299400161937191 107.0414201183432, 13.224861952411269 107.84023668639053, 15.042145017880108 108.63905325443787, 18.946280602632324 109.43786982248521, 18.860809024602066 110.23668639053254, 13.459925472658602 111.03550295857988, 13.378062354951014 111.83431952662723, 14.57922823170911 112.63313609467457, 12.384641639918573 113.43195266272188, 10.027716383571574 114.23076923076923, 10.02367388684959 115.02958579881657, 10.143800766167862 115.82840236686391, 7.470985687467421 116.62721893491124, 13.182657442607635 117.42603550295858, 13.991001950167028 118.22485207100593, 11.5502265348321 119.02366863905324, 12.08877642265776 119.82248520710058, 10.21185641679343 120.62130177514793, 10.834161747572102 121.42011834319527, 13.18001353197172 122.2189349112426, 12.89622161851208 123.01775147928994, 15.523720760477634 123.81656804733728, 12.104737029693347 124.61538461538463, 13.116685844760113 125.41420118343194, 12.331864619814043 126.21301775147928, 15.005062283154821 127.01183431952663, 12.985533550830638 127.81065088757396, 6.40800742135715 128.60946745562129, 0.0 129.40828402366864, 0.13281114520401244 130.20710059171597, 4.229557019557703 131.0059171597633, 5.357748158019609 131.80473372781066, 4.702506322906311 132.60355029585799, 2.3965455058130716 133.40236686390534, 1.8709660260878627 134.20118343195267, 0.8845169992310347" fill="none" stroke="#32ca5b" stroke-width="1.25"/>

</svg>