<?xml version="1.0" standalone="no"?>
<!DOCTYPE svg PUBLIC "-//W3C//DTD SVG 1.1//EN" "http://www.w3.org/Graphics/SVG/1.1/DTD/svg11.dtd">

<svg width="135" height="50" viewBox="0 0 135 50" preserveAspectRatio="none" 
  xmlns="http://www.w3.org/2000/svg"
  xmlns:xlink="http://www.w3.org/1999/xlink">


<polyline points="0.0, 50.0 0.7988165680473372, 45.18159038216372 1.5976331360946745, 33.34107788570827 2.396449704142012, 45.201340197055266 3.195266272189349, 48.2336998564832 3.994082840236686, 48.16498321149789 4.792899408284024, 40.10612616809238 5.591715976331361, 44.05343864381357 6.390532544378698, 39.659358957158766 7.189349112426036, 28.67909776727917 7.988165680473372, 39.56591546781319 8.78698224852071, 42.15576441427438 9.585798816568047, 36.96772904727398 10.384615384615385, 31.93040446965611 11.183431952662723, 38.58005383054522 11.982248520710058, 32.15760184492119 12.781065088757396, 36.748636529363196 13.579881656804734, 30.695825696406096 14.378698224852071, 35.72121186568089 15.177514792899409, 32.35355673870343 15.976331360946745, 33.9803237577426 16.775147928994084, 28.293857594641146 17.57396449704142, 27.155330240047775 18.37278106508876, 32.6431454074452 19.171597633136095, 34.16299514674145 19.970414201183434, 33.55074022501094 20.76923076923077, 33.00981614386676 21.56804733727811, 32.233774028636894 22.366863905325445, 31.844788676779018 23.16568047337278, 34.175915429158046 23.964497041420117, 36.81773469394922 24.763313609467456, 38.801481769813954 25.562130177514792, 32.18874658240188 26.36094674556213, 44.85670737579619 27.159763313609467, 38.283223212246924 27.958579881656807, 35.56973181061428 28.757396449704142, 24.23437320330378 29.55621301775148, 21.262369675060107 30.355029585798817, 41.793589591255326 31.153846153846157, 41.61322434060104 31.95266272189349, 18.594444152038193 32.751479289940825, 36.192600289720076 33.55029585798817, 37.55039792097206 34.349112426035504, 39.08397024347644 35.14792899408284, 34.0616950764536 35.94674556213018, 26.561937182249444 36.74556213017752, 25.591818025612074 37.54437869822485, 26.306443649185695 38.34319526627219, 36.29713070273435 39.142011834319526, 31.80479412924463 39.94082840236687, 20.074025287587677 40.7396449704142, 28.94338188911112 41.53846153846154, 29.81645848590012 42.337278106508876, 29.752688184645514 43.13609467455622, 19.83356663684325 43.93491124260355, 28.51539642628158 44.73372781065089, 19.37260437352539 45.532544378698226, 19.906055610670233 46.33136094674556, 20.95255976426173 47.1301775147929, 26.879767362917335 47.928994082840234, 17.064805410332806 48.72781065088758, 29.587307890261826 49.52662721893491, 22.06138478363191 50.32544378698225, 32.86470231659022 51.124260355029584, 32.85886416096581 51.92307692307693, 35.33088838898298 52.72189349112426, 26.485419830089036 53.5207100591716, 31.1014655035403 54.319526627218934, 32.21138349170236 55.11834319526627, 25.55649861671492 55.91715976331361, 21.803421164111455 56.71597633136094, 28.298541734925355 57.514792899408285, 24.266902325277673 58.31360946745562, 25.54861119354339 59.11242603550296, 30.98524574226051 59.91124260355029, 27.58158831629054 60.710059171597635, 36.53754897200448 61.50887573964497, 29.429822345400435 62.307692307692314, 33.93779605901444 63.10650887573964, 21.18184711505149 63.90532544378698, 35.96199370846772 64.70414201183432, 25.802314168590375 65.50295857988165, 24.764774475552947 66.30177514792899, 19.593300947689546 67.10059171597634, 32.01135029035269 67.89940828402366, 21.791122449663757 68.69822485207101, 25.444565784734213 69.49704142011834, 37.27072527966484 70.29585798816568, 24.802274874540156 71.09467455621302, 22.77651235346843 71.89349112426036, 35.9608855914413 72.6923076923077, 23.861219853139445 73.49112426035504, 31.58962999100442 74.28994082840237, 35.987102194615915 75.0887573964497, 36.83380671729958 75.88757396449704, 41.63533523997021 76.68639053254438, 31.98959070857132 77.48520710059172, 32.369445392874304 78.28402366863905, 31.96973501975965 79.0828402366864, 31.27507701798039 79.88165680473374, 30.813142979913934 80.68047337278107, 31.4107303737787 81.4792899408284, 34.164541257369244 82.27810650887574, 33.657640973265934 83.07692307692308, 32.918462474929285 83.87573964497041, 35.07781194642315 84.67455621301775, 33.45096099529768 85.4733727810651, 31.938242380990644 86.27218934911244, 33.21971590833631 87.07100591715975, 31.880305477784475 87.8698224852071, 34.70085729258886 88.66863905325444, 33.627777786943874 89.46745562130178, 29.574671358745608 90.26627218934911, 34.89300068403613 91.06508875739645, 33.7205893808882 91.8639053254438, 33.928790842913614 92.66272189349112, 27.763754511057105 93.46153846153845, 26.776498261730964 94.2603550295858, 33.16909221000689 95.05917159763314, 29.676693107515224 95.85798816568047, 31.817882452823902 96.65680473372781, 21.35853117107702 97.45562130177515, 32.51293791849003 98.2544378698225, 29.651764810058296 99.05325443786982, 28.133590257942366 99.85207100591715, 33.37956595653906 100.6508875739645, 31.822269650207087 101.44970414201183, 36.03183847488992 102.24852071005917, 31.337710521097918 103.04733727810651, 32.42851844591779 103.84615384615385, 30.562127112159487 104.64497041420118, 31.23143316447291 105.44378698224853, 30.485219591800032 106.24260355029585, 32.88386508625336 107.0414201183432, 30.182200261689264 107.84023668639053, 15.672363666409755 108.63905325443787, 33.899205460194395 109.43786982248521, 33.22597355400927 110.23668639053254, 30.26203404330327 111.03550295857988, 31.70125103062261 111.83431952662723, 34.00055784064996 112.63313609467457, 23.322619959052435 113.43195266272188, 33.068376420638835 114.23076923076923, 32.0398284220329 115.02958579881657, 33.249630318530386 115.82840236686391, 34.01848044967943 116.62721893491124, 35.550826735503406 117.42603550295858, 24.37352897503447 118.22485207100593, 31.64536890351154 119.02366863905324, 30.355613131319426 119.82248520710058, 30.048720200655303 120.62130177514793, 27.49743208818634 121.42011834319527, 29.033945089507373 122.2189349112426, 21.804901332470514 123.01775147928994, 27.515364854662312 123.81656804733728, 19.544827911551792 124.61538461538463, 26.701123710363163 125.41420118343194, 13.279647587650642 126.21301775147928, 13.548763552787548 127.01183431952663, 11.323793890220161 127.81065088757396, 3.9976724299025963 128.60946745562129, 5.034615029346785 129.40828402366864, 14.747136569125663 130.20710059171597, 14.73665010877557 131.0059171597633, 8.27635368224276 131.80473372781066, 1.3162659857306964 132.60355029585799, 0.0 133.40236686390534, 5.859031990658312 134.20118343195267, 11.939394635301987" fill="none" stroke="#32ca5b" stroke-width="1.25"/>

</svg>