<?xml version="1.0" standalone="no"?>
<!DOCTYPE svg PUBLIC "-//W3C//DTD SVG 1.1//EN" "http://www.w3.org/Graphics/SVG/1.1/DTD/svg11.dtd">

<svg width="135" height="50" viewBox="0 0 135 50" preserveAspectRatio="none" 
  xmlns="http://www.w3.org/2000/svg"
  xmlns:xlink="http://www.w3.org/1999/xlink">


<polyline points="0.0, 11.502004105317535 0.7988165680473372, 16.90084334730382 1.5976331360946745, 19.722948357467864 2.396449704142012, 16.68191732799335 3.195266272189349, 22.66479653498855 3.994082840236686, 19.114112992972533 4.792899408284024, 15.311768921295805 5.591715976331361, 15.02606432904085 6.390532544378698, 16.629070938440655 7.189349112426036, 18.68990689278767 7.988165680473372, 22.44234939500562 8.78698224852071, 19.017604803560317 9.585798816568047, 13.374729470590893 10.384615384615385, 18.162581190229538 11.183431952662723, 11.430240393228278 11.982248520710058, 22.54155439768675 12.781065088757396, 30.41793559908184 13.579881656804734, 32.58154695447498 14.378698224852071, 29.398097947215213 15.177514792899409, 27.16540499144726 15.976331360946745, 23.851213790610736 16.775147928994084, 24.514466456905353 17.57396449704142, 22.75284956887777 18.37278106508876, 18.97145182946286 19.171597633136095, 21.816708802812155 19.970414201183434, 24.797936333876052 20.76923076923077, 28.02022763986734 21.56804733727811, 29.439163481442453 22.366863905325445, 28.783249354787944 23.16568047337278, 31.521594239341834 23.964497041420117, 32.888343985339155 24.763313609467456, 35.09930936918425 25.562130177514792, 36.84933947470476 26.36094674556213, 35.56070796021167 27.159763313609467, 44.46975075110189 27.958579881656807, 43.312637573021235 28.757396449704142, 45.47564925690446 29.55621301775148, 41.766499756278044 30.355029585798817, 43.67289382316796 31.153846153846157, 47.46154521994371 31.95266272189349, 45.10292078918528 32.751479289940825, 44.09474770417779 33.55029585798817, 48.18890532280329 34.349112426035504, 50.0 35.14792899408284, 47.62429724555434 35.94674556213018, 48.167346272020445 36.74556213017752, 42.9346836966484 37.54437869822485, 41.18793808664833 38.34319526627219, 38.77775119871151 39.142011834319526, 43.18451589476769 39.94082840236687, 47.24217794020342 40.7396449704142, 46.07220656829532 41.53846153846154, 44.405422974043624 42.337278106508876, 45.157750487483064 43.13609467455622, 43.35888272622512 43.93491124260355, 39.06131677791803 44.73372781065089, 37.34384288087085 45.532544378698226, 35.543742401439005 46.33136094674556, 35.71565170816724 47.1301775147929, 37.935704486943 47.928994082840234, 39.139762889974755 48.72781065088758, 40.74862187316589 49.52662721893491, 43.74142013716249 50.32544378698225, 39.6756040377759 51.124260355029584, 38.17624408027967 51.92307692307693, 39.66809982883541 52.72189349112426, 36.29966165106031 53.5207100591716, 35.01983372602542 54.319526627218934, 35.96972441906372 55.11834319526627, 33.19115330848866 55.91715976331361, 36.7613077411891 56.71597633136094, 36.17069254347135 57.514792899408285, 39.423206970330746 58.31360946745562, 37.326774456243164 59.11242603550296, 38.2994762342124 59.91124260355029, 41.28406408111227 60.710059171597635, 41.198406075309755 61.50887573964497, 39.41251245459414 62.307692307692314, 39.24402619937506 63.10650887573964, 35.32710894223207 63.90532544378698, 39.64742848314252 64.70414201183432, 43.31203548203917 65.50295857988165, 41.58236285285252 66.30177514792899, 39.19499802034093 67.10059171597634, 38.490891794318074 67.89940828402366, 41.233864607891576 68.69822485207101, 38.71623626409084 69.49704142011834, 37.44684231140075 70.29585798816568, 41.05855580681709 71.09467455621302, 41.542027793561296 71.89349112426036, 36.08240958181431 72.6923076923077, 37.30282032029073 73.49112426035504, 35.68355982669 74.28994082840237, 33.833337167797175 75.0887573964497, 35.475490359791216 75.88757396449704, 39.20133818337819 76.68639053254438, 38.88475950191106 77.48520710059172, 35.69270991492312 78.28402366863905, 43.325702914525294 79.0828402366864, 38.06331098786836 79.88165680473374, 35.38105668630881 80.68047337278107, 34.7097966140445 81.4792899408284, 33.47699596047543 82.27810650887574, 33.06491843674012 83.07692307692308, 30.75785212545113 83.87573964497041, 33.688049392766864 84.67455621301775, 28.92050332065535 85.4733727810651, 27.118294445021267 86.27218934911244, 25.019486224006503 87.07100591715975, 27.991541018500765 87.8698224852071, 26.183399079238185 88.66863905325444, 29.492815596170054 89.46745562130178, 27.71537239140265 90.26627218934911, 27.240506895335482 91.06508875739645, 24.639648773303573 91.8639053254438, 25.391417571906633 92.66272189349112, 24.964202153561786 93.46153846153845, 25.85534551294122 94.2603550295858, 25.862272321575624 95.05917159763314, 26.779263763727286 95.85798816568047, 26.400576114782222 96.65680473372781, 27.164998194455713 97.45562130177515, 24.842125845294216 98.2544378698225, 26.60162300615909 99.05325443786982, 27.701409981233816 99.85207100591715, 29.214195654474967 100.6508875739645, 28.67748407944129 101.44970414201183, 27.743426295747515 102.24852071005917, 28.32902500311211 103.04733727810651, 30.622550947139366 103.84615384615385, 28.843434352831675 104.64497041420118, 29.634886664526316 105.44378698224853, 28.039291116886222 106.24260355029585, 27.96171687955179 107.0414201183432, 27.34337699815967 107.84023668639053, 24.523936246589496 108.63905325443787, 26.965847037154933 109.43786982248521, 28.03207791769799 110.23668639053254, 25.6454847445763 111.03550295857988, 26.12922167732413 111.83431952662723, 25.69503231043534 112.63313609467457, 23.150615491447454 113.43195266272188, 24.156245348542864 114.23076923076923, 25.38540315447011 115.02958579881657, 24.154975662187354 115.82840236686391, 24.385240687321563 116.62721893491124, 27.04375253170676 117.42603550295858, 26.21022757450266 118.22485207100593, 23.075131819831636 119.02366863905324, 18.44820613130098 119.82248520710058, 12.376283345771059 120.62130177514793, 7.8787710034825 121.42011834319527, 13.955330356875251 122.2189349112426, 13.178456407385585 123.01775147928994, 21.031642966167823 123.81656804733728, 19.64318971865721 124.61538461538463, 18.016208974179996 125.41420118343194, 12.851076053587537 126.21301775147928, 17.173702128077135 127.01183431952663, 11.615480374418677 127.81065088757396, 9.950664523451874 128.60946745562129, 6.082381040187665 129.40828402366864, 1.927233732572032 130.20710059171597, 2.18890505150074 131.0059171597633, 1.865841260839582 131.80473372781066, 0.0 132.60355029585799, 0.2948470317741997 133.40236686390534, 1.52859421105805 134.20118343195267, 2.151673198997458" fill="none" stroke="#32ca5b" stroke-width="1.25"/>

</svg>