<?xml version="1.0" standalone="no"?>
<!DOCTYPE svg PUBLIC "-//W3C//DTD SVG 1.1//EN" "http://www.w3.org/Graphics/SVG/1.1/DTD/svg11.dtd">

<svg width="135" height="50" viewBox="0 0 135 50" preserveAspectRatio="none" 
  xmlns="http://www.w3.org/2000/svg"
  xmlns:xlink="http://www.w3.org/1999/xlink">


<polyline points="0.0, 21.6424515228376 0.7988165680473372, 17.0066361199615 1.5976331360946745, 20.938788994590837 2.396449704142012, 6.228969401114405 3.195266272189349, 0.0 3.994082840236686, 4.724571365238914 4.792899408284024, 4.597086929334047 5.591715976331361, 4.355472117001343 6.390532544378698, 4.923616363398739 7.189349112426036, 14.790625082403217 7.988165680473372, 12.628344089518503 8.78698224852071, 11.030513996688496 9.585798816568047, 15.030177082027413 10.384615384615385, 11.60214436360051 11.183431952662723, 15.301619360945812 11.982248520710058, 17.779643734724353 12.781065088757396, 23.997359240194072 13.579881656804734, 28.28192940317441 14.378698224852071, 31.103006176918175 15.177514792899409, 31.263337399059214 15.976331360946745, 27.90902972402679 16.775147928994084, 19.133047645593052 17.57396449704142, 21.935565964459357 18.37278106508876, 21.176299815892673 19.171597633136095, 22.037564078508325 19.970414201183434, 19.62795003210749 20.76923076923077, 15.198401436209071 21.56804733727811, 15.463313868687045 22.366863905325445, 11.45879538874573 23.16568047337278, 11.2974718989021 23.964497041420117, 13.680080363992253 24.763313609467456, 14.334866033305099 25.562130177514792, 14.623677461337786 26.36094674556213, 14.584645404334731 27.159763313609467, 18.800119012884426 27.958579881656807, 24.779572593229247 28.757396449704142, 25.001466460537923 29.55621301775148, 25.97318840565368 30.355029585798817, 28.401419721874394 31.153846153846157, 33.703392479682854 31.95266272189349, 31.349849612003815 32.751479289940825, 29.828186928355453 33.55029585798817, 33.12950184582847 34.349112426035504, 27.814346011552963 35.14792899408284, 29.413524460599533 35.94674556213018, 27.950417201076238 36.74556213017752, 27.68921074113115 37.54437869822485, 26.46776785144938 38.34319526627219, 25.95227803591343 39.142011834319526, 29.169558484641566 39.94082840236687, 29.75389843284477 40.7396449704142, 30.40543139343258 41.53846153846154, 31.970821225306285 42.337278106508876, 29.213047828139544 43.13609467455622, 26.27634554316332 43.93491124260355, 25.331333936221807 44.73372781065089, 25.13010899204975 45.532544378698226, 25.17996212418707 46.33136094674556, 25.332574711764146 47.1301775147929, 24.861441962924616 47.928994082840234, 20.97441815749622 48.72781065088758, 22.750767523877514 49.52662721893491, 27.336618236394955 50.32544378698225, 28.097020135719745 51.124260355029584, 21.425257037494973 51.92307692307693, 20.09907266675624 52.72189349112426, 20.036252443239082 53.5207100591716, 19.001504028715754 54.319526627218934, 23.180014797802702 55.11834319526627, 24.444633081305476 55.91715976331361, 27.24266576242896 56.71597633136094, 34.58386076500031 57.514792899408285, 34.80213999458038 58.31360946745562, 34.2127331319401 59.11242603550296, 34.40557597099807 59.91124260355029, 34.91608548450815 60.710059171597635, 34.76650864581014 61.50887573964497, 35.23511230501716 62.307692307692314, 34.817951721762 63.10650887573964, 38.2370845782462 63.90532544378698, 37.43615448419796 64.70414201183432, 41.85517768425705 65.50295857988165, 42.50999985392326 66.30177514792899, 43.66484303388632 67.10059171597634, 43.977581461885755 67.89940828402366, 43.86170885920437 68.69822485207101, 43.97862375005356 69.49704142011834, 43.03599978297306 70.29585798816568, 43.27462485261129 71.09467455621302, 50.0 71.89349112426036, 47.39652529497586 72.6923076923077, 47.58279987399652 73.49112426035504, 44.04151441227949 74.28994082840237, 44.39066684326785 75.0887573964497, 45.11849568277949 75.88757396449704, 44.96139746870602 76.68639053254438, 46.49047290227175 77.48520710059172, 45.86889373725749 78.28402366863905, 46.79323489455239 79.0828402366864, 44.80821384827002 79.88165680473374, 45.256384743179964 80.68047337278107, 48.00929549292024 81.4792899408284, 47.131221244241914 82.27810650887574, 47.235893061826616 83.07692307692308, 44.56654347034178 83.87573964497041, 44.503817490375816 84.67455621301775, 44.43699992437922 85.4733727810651, 41.75999475748623 86.27218934911244, 41.151254483864655 87.07100591715975, 41.30914487816686 87.8698224852071, 41.359501844221796 88.66863905325444, 45.10117023790629 89.46745562130178, 48.53871159968812 90.26627218934911, 48.60263335256955 91.06508875739645, 40.88981698513732 91.8639053254438, 40.43839369545893 92.66272189349112, 48.2669373661066 93.46153846153845, 45.71182963993901 94.2603550295858, 42.9131282113426 95.05917159763314, 42.818124474877614 95.85798816568047, 42.520417761706156 96.65680473372781, 41.2149819597049 97.45562130177515, 40.05857830653509 98.2544378698225, 40.172147832868525 99.05325443786982, 39.07814096217141 99.85207100591715, 38.787082322593065 100.6508875739645, 38.464984996211484 101.44970414201183, 39.437880826582195 102.24852071005917, 32.007089804132214 103.04733727810651, 29.695323565937137 103.84615384615385, 29.119678658283192 104.64497041420118, 29.158922703392566 105.44378698224853, 29.30283780327308 106.24260355029585, 28.928038284840678 107.0414201183432, 28.792842757596127 107.84023668639053, 28.447850835526346 108.63905325443787, 25.69490770253362 109.43786982248521, 25.745665529137586 110.23668639053254, 27.114888683139178 111.03550295857988, 30.1899947489775 111.83431952662723, 30.280745963028956 112.63313609467457, 30.528634438635848 113.43195266272188, 25.481903168749838 114.23076923076923, 23.698683690988847 115.02958579881657, 25.39456026765865 115.82840236686391, 24.64929921981028 116.62721893491124, 24.457523314032027 117.42603550295858, 24.829495777304356 118.22485207100593, 28.06053873725617 119.02366863905324, 27.855870321353255 119.82248520710058, 27.94821799871255 120.62130177514793, 27.482023334686627 121.42011834319527, 30.911023773141977 122.2189349112426, 31.179110433773204 123.01775147928994, 44.15206576458892 123.81656804733728, 38.80829868083334 124.61538461538463, 38.75221025492997 125.41420118343194, 38.8944062706847 126.21301775147928, 38.62778906350409 127.01183431952663, 37.066014206305184 127.81065088757396, 33.721861440036186 128.60946745562129, 35.22570714401104 129.40828402366864, 34.040506980669825 130.20710059171597, 34.31357204351264 131.0059171597633, 34.74587493635509 131.80473372781066, 32.31595161887117 132.60355029585799, 30.52789950885749 133.40236686390534, 31.048109328166312 134.20118343195267, 25.378290546356812" fill="none" stroke="#ff3a33" stroke-width="1.25"/>

</svg>