<?xml version="1.0" standalone="no"?>
<!DOCTYPE svg PUBLIC "-//W3C//DTD SVG 1.1//EN" "http://www.w3.org/Graphics/SVG/1.1/DTD/svg11.dtd">

<svg width="135" height="50" viewBox="0 0 135 50" preserveAspectRatio="none" 
  xmlns="http://www.w3.org/2000/svg"
  xmlns:xlink="http://www.w3.org/1999/xlink">


<polyline points="0.0, 38.89158148939694 0.7988165680473372, 39.740243685934814 1.5976331360946745, 38.95435153988484 2.396449704142012, 41.01057775829202 3.195266272189349, 39.96175604072435 3.994082840236686, 39.61503923568006 4.792899408284024, 39.38388307879803 5.591715976331361, 39.550479011861995 6.390532544378698, 41.00916888603543 7.189349112426036, 41.720103717968286 7.988165680473372, 38.363640721283495 8.78698224852071, 37.199667130266576 9.585798816568047, 38.223176440632095 10.384615384615385, 36.87371714212368 11.183431952662723, 41.20565629892839 11.982248520710058, 44.35575601013737 12.781065088757396, 45.457826948106536 13.579881656804734, 45.48366423908452 14.378698224852071, 43.740241177939915 15.177514792899409, 42.10003761945862 15.976331360946745, 40.9069385795782 16.775147928994084, 40.966338417076074 17.57396449704142, 40.10002021555849 18.37278106508876, 40.329783090324135 19.171597633136095, 41.81293363184975 19.970414201183434, 41.50123943336355 20.76923076923077, 41.604952717352525 21.56804733727811, 41.1536317604943 22.366863905325445, 41.98072535545488 23.16568047337278, 43.12420413467196 23.964497041420117, 45.59495736501553 24.763313609467456, 45.8431208667385 25.562130177514792, 45.272198534097974 26.36094674556213, 48.76857010517598 27.159763313609467, 46.69327746859817 27.958579881656807, 48.35561619998144 28.757396449704142, 46.95571109751651 29.55621301775148, 47.55290483158954 30.355029585798817, 49.06577553786902 31.153846153846157, 48.02942433602661 31.95266272189349, 46.87159441333101 32.751479289940825, 49.01058969919684 33.55029585798817, 50.0 34.349112426035504, 49.09403679779549 35.14792899408284, 49.166353643594704 35.94674556213018, 47.24475185220892 36.74556213017752, 46.55524223865547 37.54437869822485, 44.82128992308286 38.34319526627219, 44.892869195761676 39.142011834319526, 47.69752851432428 39.94082840236687, 47.62181048287505 40.7396449704142, 46.823980883246584 41.53846153846154, 46.86319593288088 42.337278106508876, 45.970803189537925 43.13609467455622, 43.645676575867554 43.93491124260355, 43.32219785449273 44.73372781065089, 41.97418905059679 45.532544378698226, 40.45595283259777 46.33136094674556, 41.5123466383622 47.1301775147929, 42.78072360048758 47.928994082840234, 43.488937038080444 48.72781065088758, 45.30626692587171 49.52662721893491, 44.12222545006793 50.32544378698225, 42.68070408059864 51.124260355029584, 43.7171136101504 51.92307692307693, 40.19595228364653 52.72189349112426, 39.54658121406566 53.5207100591716, 40.292025544644254 54.319526627218934, 37.928483522983406 55.11834319526627, 34.736198615108655 55.91715976331361, 31.336098293926707 56.71597633136094, 32.15243245763036 57.514792899408285, 29.41146503517114 58.31360946745562, 25.38579869299481 59.11242603550296, 24.731376012267663 59.91124260355029, 30.521498055729946 60.710059171597635, 29.929885308039267 61.50887573964497, 29.75806125976038 62.307692307692314, 31.028604527090437 63.10650887573964, 32.06699039808662 63.90532544378698, 31.318472822103743 64.70414201183432, 31.467508272764118 65.50295857988165, 32.56332034886661 66.30177514792899, 29.704718488952082 67.10059171597634, 32.63790311897346 67.89940828402366, 34.20969169171614 68.69822485207101, 34.7623926002855 69.49704142011834, 37.4262102562099 70.29585798816568, 36.37035092871617 71.09467455621302, 35.876240668730105 71.89349112426036, 36.074103216175764 72.6923076923077, 35.85287192379132 73.49112426035504, 34.978957619517395 74.28994082840237, 36.1664794641172 75.0887573964497, 37.48792052433964 75.88757396449704, 37.47238377723192 76.68639053254438, 35.18775921685794 77.48520710059172, 37.325887325389935 78.28402366863905, 36.92627935508443 79.0828402366864, 36.45314123388728 79.88165680473374, 34.94013982101116 80.68047337278107, 34.8274265871599 81.4792899408284, 34.00159385252762 82.27810650887574, 33.80912180911661 83.07692307692308, 32.323672510643945 83.87573964497041, 30.656387510382523 84.67455621301775, 27.53911816365786 85.4733727810651, 26.267050675096808 86.27218934911244, 28.71460940674006 87.07100591715975, 28.795192425814587 87.8698224852071, 29.05766489596694 88.66863905325444, 22.927953077537683 89.46745562130178, 28.770264907642908 90.26627218934911, 26.930058803169842 91.06508875739645, 27.99304739464884 91.8639053254438, 28.14755344050164 92.66272189349112, 28.15175773276634 93.46153846153845, 26.855140281648254 94.2603550295858, 27.34780943920433 95.05917159763314, 27.075205662380036 95.85798816568047, 23.402824685975098 96.65680473372781, 17.66358900006426 97.45562130177515, 19.159148322564278 98.2544378698225, 19.754422791765112 99.05325443786982, 19.236792819333047 99.85207100591715, 20.393664724441557 100.6508875739645, 19.813181463048586 101.44970414201183, 20.40079995071466 102.24852071005917, 19.89118430213611 103.04733727810651, 21.143745504524937 103.84615384615385, 18.465003745942127 104.64497041420118, 5.366403702412486 105.44378698224853, 5.863630472485053 106.24260355029585, 10.83464707051647 107.0414201183432, 12.340478547569282 107.84023668639053, 14.853204003906187 108.63905325443787, 15.710930543602228 109.43786982248521, 13.487474341658038 110.23668639053254, 13.701508847358632 111.03550295857988, 13.517137204658047 111.83431952662723, 10.740301179367776 112.63313609467457, 8.43498161493903 113.43195266272188, 9.305191132818281 114.23076923076923, 9.437575992393302 115.02958579881657, 6.023624462903824 115.82840236686391, 14.386403132335515 116.62721893491124, 14.658196424842899 117.42603550295858, 11.554420843727096 118.22485207100593, 12.978097829612945 119.02366863905324, 12.708672918448826 119.82248520710058, 12.641554234846778 120.62130177514793, 13.487997544082656 121.42011834319527, 12.691663208453788 122.2189349112426, 17.555403574500993 123.01775147928994, 12.99363769294204 123.81656804733728, 12.803749306452442 124.61538461538463, 14.919033406690598 125.41420118343194, 17.283819812199383 126.21301775147928, 14.187312091950046 127.01183431952663, 11.624273789379334 127.81065088757396, 7.621486862913199 128.60946745562129, 4.188306199747652 129.40828402366864, 3.4403320310065335 130.20710059171597, 3.4299810679115716 131.0059171597633, 0.8090538972302899 131.80473372781066, 0.0 132.60355029585799, 3.6172992104210864 133.40236686390534, 4.102536942095196 134.20118343195267, 2.92967032069284" fill="none" stroke="#32ca5b" stroke-width="1.25"/>

</svg>