<?xml version="1.0" standalone="no"?>
<!DOCTYPE svg PUBLIC "-//W3C//DTD SVG 1.1//EN" "http://www.w3.org/Graphics/SVG/1.1/DTD/svg11.dtd">

<svg width="135" height="50" viewBox="0 0 135 50" preserveAspectRatio="none" 
  xmlns="http://www.w3.org/2000/svg"
  xmlns:xlink="http://www.w3.org/1999/xlink">


<polyline points="0.0, 47.87997816419525 0.7988165680473372, 48.16844744310303 1.5976331360946745, 49.42555523710755 2.396449704142012, 49.200113524327996 3.195266272189349, 50.0 3.994082840236686, 49.19899872987847 4.792899408284024, 46.396160134573456 5.591715976331361, 45.043833654543505 6.390532544378698, 45.87391886531884 7.189349112426036, 46.27768453401924 7.988165680473372, 42.77882469376827 8.78698224852071, 43.77246179659329 9.585798816568047, 40.97079698145603 10.384615384615385, 39.427813367597466 11.183431952662723, 27.215522887297016 11.982248520710058, 17.842440448689448 12.781065088757396, 29.23933602411986 13.579881656804734, 27.58355935528465 14.378698224852071, 29.6093042739808 15.177514792899409, 31.26928618282307 15.976331360946745, 36.86587827059459 16.775147928994084, 33.09737409715919 17.57396449704142, 35.1161795918002 18.37278106508876, 34.640820391488695 19.171597633136095, 29.508888509206656 19.970414201183434, 29.40486428511849 20.76923076923077, 29.815833006593955 21.56804733727811, 28.710286596951583 22.366863905325445, 26.62291303835706 23.16568047337278, 29.590375127865563 23.964497041420117, 25.945219999707824 24.763313609467456, 25.86371489763933 25.562130177514792, 31.708676663729545 26.36094674556213, 31.866346443122843 27.159763313609467, 35.895170274362016 27.958579881656807, 32.983385170419794 28.757396449704142, 34.31187197520262 29.55621301775148, 37.266748334352116 30.355029585798817, 36.523482675672945 31.153846153846157, 33.37487054715649 31.95266272189349, 35.45223593378453 32.751479289940825, 35.23299177712781 33.55029585798817, 39.279476232080555 34.349112426035504, 40.77191929736201 35.14792899408284, 34.332019850665176 35.94674556213018, 34.91395687253384 36.74556213017752, 37.062264162357714 37.54437869822485, 30.20604968733401 38.34319526627219, 34.43975629506667 39.142011834319526, 30.74595486147481 39.94082840236687, 29.038525277187503 40.7396449704142, 32.50670073645976 41.53846153846154, 30.679353824349896 42.337278106508876, 34.13698286466402 43.13609467455622, 30.03231752510194 43.93491124260355, 30.02552384098677 44.73372781065089, 23.59594322292052 45.532544378698226, 15.760485489141276 46.33136094674556, 18.75129737245505 47.1301775147929, 17.28126706023475 47.928994082840234, 16.2373195229866 48.72781065088758, 22.20506895217549 49.52662721893491, 26.040739517006205 50.32544378698225, 30.114202871369127 51.124260355029584, 30.11854705846886 51.92307692307693, 28.460425918814646 52.72189349112426, 27.69948273395425 53.5207100591716, 27.145170227181687 54.319526627218934, 26.967747420051648 55.11834319526627, 24.225417462173297 55.91715976331361, 24.491114228933476 56.71597633136094, 25.602225179006528 57.514792899408285, 25.047415643846584 58.31360946745562, 25.005607413517676 59.11242603550296, 26.009440358690274 59.91124260355029, 24.061324192999532 60.710059171597635, 23.9804736969016 61.50887573964497, 21.593269622232107 62.307692307692314, 24.273510915790318 63.10650887573964, 25.404078088581034 63.90532544378698, 25.920604435649174 64.70414201183432, 23.74448000042448 65.50295857988165, 26.32897814013935 66.30177514792899, 22.999328031230405 67.10059171597634, 21.852440844685194 67.89940828402366, 24.279500709712806 68.69822485207101, 19.38555614437022 69.49704142011834, 26.330257560075047 70.29585798816568, 27.171145397058915 71.09467455621302, 22.998846474668714 71.89349112426036, 26.283591111832095 72.6923076923077, 23.430811299464178 73.49112426035504, 25.739691712513658 74.28994082840237, 26.198004139894554 75.0887573964497, 26.42613000650377 75.88757396449704, 24.599122122764342 76.68639053254438, 24.462055358886705 77.48520710059172, 24.41859355892112 78.28402366863905, 25.933556853486962 79.0828402366864, 24.322081099671884 79.88165680473374, 25.756150724148007 80.68047337278107, 23.403633762791028 81.4792899408284, 23.7764716953383 82.27810650887574, 23.523397129644287 83.07692307692308, 25.100045188386517 83.87573964497041, 25.100279596230784 84.67455621301775, 25.743844552377166 85.4733727810651, 27.265973877232963 86.27218934911244, 23.15029993696935 87.07100591715975, 23.44943189877135 87.8698224852071, 24.919604980856672 88.66863905325444, 21.930692252845986 89.46745562130178, 25.23765425493925 90.26627218934911, 29.05843750534481 91.06508875739645, 30.37959269047291 91.8639053254438, 29.50656003375264 92.66272189349112, 28.91602033159508 93.46153846153845, 29.265273422980755 94.2603550295858, 29.517040286654005 95.05917159763314, 28.428655695985654 95.85798816568047, 28.236864645650968 96.65680473372781, 28.479301844826843 97.45562130177515, 28.24500886805325 98.2544378698225, 28.22176232210461 99.05325443786982, 27.6083459453598 99.85207100591715, 27.60762542409751 100.6508875739645, 27.54201204442259 101.44970414201183, 29.80038764399446 102.24852071005917, 28.0457697551175 103.04733727810651, 26.345652733893022 103.84615384615385, 25.44862614885119 104.64497041420118, 27.02746283235436 105.44378698224853, 26.92196310088753 106.24260355029585, 30.83283602324791 107.0414201183432, 27.393288691852657 107.84023668639053, 27.902689237886165 108.63905325443787, 26.48030874447841 109.43786982248521, 26.137781055478683 110.23668639053254, 28.125966175566152 111.03550295857988, 27.331036899798068 111.83431952662723, 28.919049005619602 112.63313609467457, 30.19172911184722 113.43195266272188, 25.555195329669665 114.23076923076923, 25.24236952149434 115.02958579881657, 26.723709522533607 115.82840236686391, 29.684708871227528 116.62721893491124, 26.747688896588052 117.42603550295858, 30.245216085779962 118.22485207100593, 27.897098678497766 119.02366863905324, 28.36660029160348 119.82248520710058, 28.332992499373326 120.62130177514793, 26.92345627220395 121.42011834319527, 26.95314071104418 122.2189349112426, 26.931224064163285 123.01775147928994, 26.481966354080868 123.81656804733728, 21.02539387375107 124.61538461538463, 24.400266933769345 125.41420118343194, 20.232505452052614 126.21301775147928, 20.10387497641307 127.01183431952663, 27.372717228205996 127.81065088757396, 21.993214670854204 128.60946745562129, 20.5825872043804 129.40828402366864, 20.589823491962157 130.20710059171597, 19.718434457138002 131.0059171597633, 20.46165627589905 131.80473372781066, 4.084485842018271 132.60355029585799, 5.792044174723815 133.40236686390534, 3.0102002711060947 134.20118343195267, 0.0" fill="none" stroke="#32ca5b" stroke-width="1.25"/>

</svg>