<?xml version="1.0" standalone="no"?>
<!DOCTYPE svg PUBLIC "-//W3C//DTD SVG 1.1//EN" "http://www.w3.org/Graphics/SVG/1.1/DTD/svg11.dtd">

<svg width="135" height="50" viewBox="0 0 135 50" preserveAspectRatio="none" 
  xmlns="http://www.w3.org/2000/svg"
  xmlns:xlink="http://www.w3.org/1999/xlink">


<polyline points="0.0, 19.987026038624382 0.7988165680473372, 20.040563915779764 1.5976331360946745, 24.274719204521134 2.396449704142012, 23.985457217532268 3.195266272189349, 26.125801306006053 3.994082840236686, 23.256160112941078 4.792899408284024, 21.813652200685315 5.591715976331361, 21.108172517333013 6.390532544378698, 24.853375657317976 7.189349112426036, 26.121235869924515 7.988165680473372, 31.911769007961748 8.78698224852071, 26.815463770062692 9.585798816568047, 23.9971303112118 10.384615384615385, 25.976385108369715 11.183431952662723, 19.830888899829294 11.982248520710058, 29.40796231728029 12.781065088757396, 39.040374349486484 13.579881656804734, 48.73837520639165 14.378698224852071, 45.80867614034052 15.177514792899409, 42.73645602867485 15.976331360946745, 36.881574392972425 16.775147928994084, 35.70172511761399 17.57396449704142, 36.04149089589303 18.37278106508876, 34.5390126594265 19.171597633136095, 33.67252124194529 19.970414201183434, 34.721860597710894 20.76923076923077, 36.51432038090741 21.56804733727811, 38.19112872062927 22.366863905325445, 36.441696906356675 23.16568047337278, 37.204181013312855 23.964497041420117, 38.24115834791202 24.763313609467456, 40.572603773688996 25.562130177514792, 43.38398057348987 26.36094674556213, 40.529418226284484 27.159763313609467, 47.48260317826512 27.958579881656807, 45.9699570505861 28.757396449704142, 49.091429313080525 29.55621301775148, 45.896586829139196 30.355029585798817, 47.94521916612834 31.153846153846157, 50.0 31.95266272189349, 47.602458892224355 32.751479289940825, 43.700787415011185 33.55029585798817, 46.74787225382681 34.349112426035504, 48.84453471982243 35.14792899408284, 48.27856079943371 35.94674556213018, 47.82247891261328 36.74556213017752, 43.77707677192282 37.54437869822485, 42.58866678906589 38.34319526627219, 38.1304815997542 39.142011834319526, 40.78274797692005 39.94082840236687, 45.425100765282444 40.7396449704142, 44.54823998338078 41.53846153846154, 41.898764194166134 42.337278106508876, 44.50364814667306 43.13609467455622, 43.302990957953035 43.93491124260355, 39.57789010412535 44.73372781065089, 35.86189158654595 45.532544378698226, 33.644919890298084 46.33136094674556, 32.042524575586995 47.1301775147929, 36.67197917734505 47.928994082840234, 36.49285009423539 48.72781065088758, 38.05810463146705 49.52662721893491, 44.17821790428535 50.32544378698225, 40.61981605329752 51.124260355029584, 38.714145448687546 51.92307692307693, 40.92317843065912 52.72189349112426, 40.10209203647908 53.5207100591716, 38.83813951527791 54.319526627218934, 40.12480004280162 55.11834319526627, 37.08868221885766 55.91715976331361, 39.83336195283867 56.71597633136094, 40.75216917752631 57.514792899408285, 43.444623745254646 58.31360946745562, 41.77830882930526 59.11242603550296, 42.01116945782765 59.91124260355029, 45.18866607481309 60.710059171597635, 45.60792696157999 61.50887573964497, 44.70617818454656 62.307692307692314, 44.7929105812856 63.10650887573964, 42.48179020612499 63.90532544378698, 45.954180065747416 64.70414201183432, 48.830064233985325 65.50295857988165, 48.02473169684461 66.30177514792899, 46.46558539943443 67.10059171597634, 44.83960297782174 67.89940828402366, 47.08666654297499 68.69822485207101, 45.66233629833344 69.49704142011834, 44.44803529386817 70.29585798816568, 44.22892192490371 71.09467455621302, 45.469424273267705 71.89349112426036, 41.96060731572589 72.6923076923077, 41.26373296152137 73.49112426035504, 40.32298479818399 74.28994082840237, 36.012577787925956 75.0887573964497, 35.5570724546972 75.88757396449704, 37.44516685808052 76.68639053254438, 36.54830627816497 77.48520710059172, 30.663560906381697 78.28402366863905, 36.410393193088844 79.0828402366864, 32.97343825500242 79.88165680473374, 33.09360624574767 80.68047337278107, 28.896578326316487 81.4792899408284, 30.307895625209312 82.27810650887574, 31.486603404191488 83.07692307692308, 27.94251154505841 83.87573964497041, 28.136263086663433 84.67455621301775, 27.452243806504917 85.4733727810651, 26.741492270526035 86.27218934911244, 24.42423083061183 87.07100591715975, 24.036574066235815 87.8698224852071, 22.464129103559113 88.66863905325444, 24.370645491267627 89.46745562130178, 24.693078804856647 90.26627218934911, 22.76670288762535 91.06508875739645, 20.271544833992742 91.8639053254438, 21.234364785422315 92.66272189349112, 21.26934814778029 93.46153846153845, 21.895774162126145 94.2603550295858, 22.531646530967258 95.05917159763314, 22.265074902181237 95.85798816568047, 23.75013445654021 96.65680473372781, 23.641883186172063 97.45562130177515, 22.601758381786148 98.2544378698225, 23.421308138479585 99.05325443786982, 23.074691116796608 99.85207100591715, 23.529203201951496 100.6508875739645, 23.49003352121591 101.44970414201183, 22.70023779957188 102.24852071005917, 22.895889955362055 103.04733727810651, 24.120857946199617 103.84615384615385, 24.309339296192977 104.64497041420118, 26.395580238249988 105.44378698224853, 24.813759905224604 106.24260355029585, 24.7582900920323 107.0414201183432, 25.0766115231099 107.84023668639053, 24.27738020555964 108.63905325443787, 25.55656341445805 109.43786982248521, 25.75682143880037 110.23668639053254, 24.714271648038125 111.03550295857988, 25.218192697407265 111.83431952662723, 24.424895897516716 112.63313609467457, 24.253176203546307 113.43195266272188, 24.387559542167896 114.23076923076923, 24.456043695238346 115.02958579881657, 24.827276029304315 115.82840236686391, 23.203198704521615 116.62721893491124, 22.724220735728643 117.42603550295858, 22.01431007194966 118.22485207100593, 20.645706536827714 119.02366863905324, 19.827829345379193 119.82248520710058, 20.408310141492375 120.62130177514793, 17.151178016708837 121.42011834319527, 17.98325027843583 122.2189349112426, 19.584321907702424 123.01775147928994, 26.347939110501972 123.81656804733728, 23.146769741221114 124.61538461538463, 24.465329492119526 125.41420118343194, 24.154632975126503 126.21301775147928, 22.995524627077778 127.01183431952663, 19.01064061274797 127.81065088757396, 10.736832219505795 128.60946745562129, 7.5123505421222525 129.40828402366864, 5.556810992824918 130.20710059171597, 8.058074345609398 131.0059171597633, 3.0472338078948797 131.80473372781066, 0.37266638271072505 132.60355029585799, 0.080328099237269 133.40236686390534, 0.4898796354901671 134.20118343195267, 0.0" fill="none" stroke="#32ca5b" stroke-width="1.25"/>

</svg>