<?xml version="1.0" standalone="no"?>
<!DOCTYPE svg PUBLIC "-//W3C//DTD SVG 1.1//EN" "http://www.w3.org/Graphics/SVG/1.1/DTD/svg11.dtd">

<svg width="135" height="50" viewBox="0 0 135 50" preserveAspectRatio="none" 
  xmlns="http://www.w3.org/2000/svg"
  xmlns:xlink="http://www.w3.org/1999/xlink">


<polyline points="0.0, 20.874848399157205 0.7988165680473372, 23.817793942064732 1.5976331360946745, 26.92075379172666 2.396449704142012, 25.683264723234377 3.195266272189349, 30.068866861117932 3.994082840236686, 29.22302341873512 4.792899408284024, 27.398285970663526 5.591715976331361, 26.997659296337783 6.390532544378698, 28.968690567387533 7.189349112426036, 31.806146837446793 7.988165680473372, 34.19865110236375 8.78698224852071, 30.36250942163447 9.585798816568047, 26.016012283385404 10.384615384615385, 28.492340465721778 11.183431952662723, 24.051252582166796 11.982248520710058, 32.12577950060464 12.781065088757396, 37.81452277205842 13.579881656804734, 42.001653193334114 14.378698224852071, 40.718818653297184 15.177514792899409, 38.16198646658394 15.976331360946745, 33.241602929401054 16.775147928994084, 33.91514536659395 17.57396449704142, 32.254324064889175 18.37278106508876, 31.524663159609567 19.171597633136095, 29.78730193153175 19.970414201183434, 34.19085276732996 20.76923076923077, 36.07599943518043 21.56804733727811, 35.81153948627525 22.366863905325445, 34.34991992298222 23.16568047337278, 35.535216783263174 23.964497041420117, 37.95819966089412 24.763313609467456, 39.54132970035585 25.562130177514792, 41.60322011278665 26.36094674556213, 40.91485783428739 27.159763313609467, 47.743248245292925 27.958579881656807, 46.0239777121885 28.757396449704142, 47.64271013298015 29.55621301775148, 46.848267382292576 30.355029585798817, 48.80303647991851 31.153846153846157, 48.264346987896886 31.95266272189349, 45.08841141376465 32.751479289940825, 42.27193016628135 33.55029585798817, 46.14474312041659 34.349112426035504, 46.66223198706543 35.14792899408284, 45.98290352059253 35.94674556213018, 46.78010096111534 36.74556213017752, 43.96316065886189 37.54437869822485, 42.6162967910512 38.34319526627219, 40.813175625306044 39.142011834319526, 43.773027515198834 39.94082840236687, 47.16191329561132 40.7396449704142, 46.538949717032615 41.53846153846154, 45.00537980662682 42.337278106508876, 46.09499218388544 43.13609467455622, 44.665854815201314 43.93491124260355, 40.24802911992587 44.73372781065089, 38.109023794547824 45.532544378698226, 33.80005200763001 46.33136094674556, 37.103305163126485 47.1301775147929, 40.085700365220376 47.928994082840234, 39.20750478017533 48.72781065088758, 40.20691565926423 49.52662721893491, 44.711270990437804 50.32544378698225, 40.77860627827746 51.124260355029584, 39.80844390318759 51.92307692307693, 43.083035226474905 52.72189349112426, 40.61020269989869 53.5207100591716, 40.23908422820524 54.319526627218934, 41.46334851304464 55.11834319526627, 38.23846523492917 55.91715976331361, 41.972622690891846 56.71597633136094, 41.05567252450057 57.514792899408285, 43.419678842233964 58.31360946745562, 42.47202805552897 59.11242603550296, 44.4493909717313 59.91124260355029, 46.95873161297074 60.710059171597635, 47.621314977592874 61.50887573964497, 46.11098838524783 62.307692307692314, 47.17431938407401 63.10650887573964, 45.282277295109445 63.90532544378698, 48.033610423978686 64.70414201183432, 50.0 65.50295857988165, 47.89192112445337 66.30177514792899, 46.026050804883155 67.10059171597634, 46.59891223310967 67.89940828402366, 47.970341316528035 68.69822485207101, 45.66477268506253 69.49704142011834, 43.05126131833383 70.29585798816568, 46.07124187709365 71.09467455621302, 46.928587768866116 71.89349112426036, 44.78275395665251 72.6923076923077, 44.936402949223094 73.49112426035504, 43.956179183209365 74.28994082840237, 41.88028261482842 75.0887573964497, 41.704940154979376 75.88757396449704, 45.98850341042209 76.68639053254438, 45.79745776300325 77.48520710059172, 43.83582179200664 78.28402366863905, 49.89844333581902 79.0828402366864, 47.66223650791726 79.88165680473374, 47.22928639707645 80.68047337278107, 45.43489743293803 81.4792899408284, 44.75318036769586 82.27810650887574, 45.76067588690106 83.07692307692308, 44.076479258630066 83.87573964497041, 45.16975199883949 84.67455621301775, 42.24150168358657 85.4733727810651, 40.35152982158992 86.27218934911244, 39.20539736824975 87.07100591715975, 40.348379076365646 87.8698224852071, 40.72721773158505 88.66863905325444, 42.37817841134508 89.46745562130178, 43.19905793702555 90.26627218934911, 42.433489549358384 91.06508875739645, 40.07125057557869 91.8639053254438, 41.18182958525718 92.66272189349112, 40.14112229135114 93.46153846153845, 40.39397264642343 94.2603550295858, 41.61446271808693 95.05917159763314, 41.24630355589648 95.85798816568047, 40.75744703035459 96.65680473372781, 40.057491117844926 97.45562130177515, 38.35793309657763 98.2544378698225, 37.55409548313013 99.05325443786982, 36.941509699526726 99.85207100591715, 38.00210293136748 100.6508875739645, 36.91746459193848 101.44970414201183, 36.30750062523807 102.24852071005917, 36.81663958905329 103.04733727810651, 37.87314652998842 103.84615384615385, 36.9826231355565 104.64497041420118, 36.41469530276888 105.44378698224853, 36.501407261308344 106.24260355029585, 34.79548579598728 107.0414201183432, 36.09812665600076 107.84023668639053, 33.867973440520686 108.63905325443787, 34.75555692982037 109.43786982248521, 37.06748266646876 110.23668639053254, 34.58472829398124 111.03550295857988, 34.641041983675706 111.83431952662723, 32.119924217652915 112.63313609467457, 32.04367270499994 113.43195266272188, 30.761040545202373 114.23076923076923, 30.903554915481475 115.02958579881657, 30.10733218267207 115.82840236686391, 28.41674663219998 116.62721893491124, 30.41904073734888 117.42603550295858, 29.619715744490797 118.22485207100593, 28.107796635714767 119.02366863905324, 30.82604775738198 119.82248520710058, 26.918812509572966 120.62130177514793, 23.067681906668742 121.42011834319527, 20.5186753424025 122.2189349112426, 21.46852795550655 123.01775147928994, 27.543344419856524 123.81656804733728, 28.08538777605878 124.61538461538463, 29.240617428427317 125.41420118343194, 25.285914842994096 126.21301775147928, 20.512542050106124 127.01183431952663, 13.990195493795843 127.81065088757396, 8.219710618400637 128.60946745562129, 2.0750709386829005 129.40828402366864, 0.24760253215607286 130.20710059171597, 5.252662102842754 131.0059171597633, 2.391219960811311 131.80473372781066, 0.0 132.60355029585799, 0.8788970727879366 133.40236686390534, 1.565495527384208 134.20118343195267, 4.172873853509898" fill="none" stroke="#32ca5b" stroke-width="1.25"/>

</svg>