<?xml version="1.0" standalone="no"?>
<!DOCTYPE svg PUBLIC "-//W3C//DTD SVG 1.1//EN" "http://www.w3.org/Graphics/SVG/1.1/DTD/svg11.dtd">

<svg width="135" height="50" viewBox="0 0 135 50" preserveAspectRatio="none" 
  xmlns="http://www.w3.org/2000/svg"
  xmlns:xlink="http://www.w3.org/1999/xlink">


<polyline points="0.0, 34.38571085029369 0.7988165680473372, 45.61634352432278 1.5976331360946745, 45.09730487328403 2.396449704142012, 41.78833519268314 3.195266272189349, 42.596508344926946 3.994082840236686, 40.04706180576266 4.792899408284024, 39.286255135851746 5.591715976331361, 38.74015766695856 6.390532544378698, 39.29956883639809 7.189349112426036, 41.335791212484416 7.988165680473372, 39.58374046643881 8.78698224852071, 32.54341877068319 9.585798816568047, 32.239898877050436 10.384615384615385, 32.097527616532595 11.183431952662723, 33.00272942677934 11.982248520710058, 40.2566931909388 12.781065088757396, 44.66033199245352 13.579881656804734, 47.16175970208994 14.378698224852071, 47.88000571526034 15.177514792899409, 46.52947312139672 15.976331360946745, 42.46439796979813 16.775147928994084, 42.149626958208145 17.57396449704142, 39.46781377424919 18.37278106508876, 36.36048483319678 19.171597633136095, 29.33678184108728 19.970414201183434, 0.0 20.76923076923077, 3.669954522604932 21.56804733727811, 7.422701353281449 22.366863905325445, 4.557750145017605 23.16568047337278, 6.519170286384932 23.964497041420117, 15.304660742736132 24.763313609467456, 16.551759401075632 25.562130177514792, 19.341636141570415 26.36094674556213, 16.792531643090573 27.159763313609467, 25.923518130594843 27.958579881656807, 25.155604218497103 28.757396449704142, 32.71125818284937 29.55621301775148, 33.600662928023326 30.355029585798817, 35.46999637228575 31.153846153846157, 36.113143596625235 31.95266272189349, 31.383976356275696 32.751479289940825, 29.753883953532718 33.55029585798817, 36.49736172543974 34.349112426035504, 39.20959191004216 35.14792899408284, 29.03500517102201 35.94674556213018, 32.621614445824086 36.74556213017752, 24.82439204635053 37.54437869822485, 25.30758001989485 38.34319526627219, 25.736720616939877 39.142011834319526, 34.87431755005996 39.94082840236687, 38.80977822474691 40.7396449704142, 38.52023465068054 41.53846153846154, 37.20155080012504 42.337278106508876, 35.91269564390849 43.13609467455622, 34.795808196354464 43.93491124260355, 30.95729679644119 44.73372781065089, 30.895896512413863 45.532544378698226, 32.60973436296817 46.33136094674556, 29.707204082925777 47.1301775147929, 31.51892193596303 47.928994082840234, 32.08352326292398 48.72781065088758, 32.62583251219689 49.52662721893491, 37.96229446604205 50.32544378698225, 33.99548690438286 51.124260355029584, 32.43647134123832 51.92307692307693, 33.634763472198934 52.72189349112426, 33.31478032876881 53.5207100591716, 30.81148108064276 54.319526627218934, 31.77212855177953 55.11834319526627, 26.654025007926297 55.91715976331361, 27.50412073230548 56.71597633136094, 28.257264884667748 57.514792899408285, 30.215606807724456 58.31360946745562, 32.99906265952159 59.11242603550296, 36.37686478447837 59.91124260355029, 39.616289952104225 60.710059171597635, 39.804344102889864 61.50887573964497, 35.991426404053705 62.307692307692314, 36.498380527201235 63.10650887573964, 35.10858478631285 63.90532544378698, 37.57607873325863 64.70414201183432, 38.70485105851411 65.50295857988165, 37.32763655348879 66.30177514792899, 37.118939263370855 67.10059171597634, 37.96153854615333 67.89940828402366, 39.03133540303074 68.69822485207101, 38.432612785862155 69.49704142011834, 37.31975249744113 70.29585798816568, 40.623018989059254 71.09467455621302, 39.0270013696288 71.89349112426036, 37.69723637394266 72.6923076923077, 38.237943487836645 73.49112426035504, 37.70923580658503 74.28994082840237, 37.78824118357578 75.0887573964497, 38.54571591744699 75.88757396449704, 41.08632875072474 76.68639053254438, 40.67550760529262 77.48520710059172, 38.541064862159864 78.28402366863905, 42.43797759858453 79.0828402366864, 42.16549396951145 79.88165680473374, 40.5027706800857 80.68047337278107, 38.75087233296803 81.4792899408284, 38.54088344095181 82.27810650887574, 37.35344305665018 83.07692307692308, 35.887475976995916 83.87573964497041, 38.778928054177584 84.67455621301775, 36.34789654460312 85.4733727810651, 37.5164367951887 86.27218934911244, 37.15751482937111 87.07100591715975, 39.317704410174095 87.8698224852071, 38.798348719696946 88.66863905325444, 39.62714950637459 89.46745562130178, 39.50690996592366 90.26627218934911, 36.51060124341452 91.06508875739645, 37.33656372295339 91.8639053254438, 37.744371660114496 92.66272189349112, 37.075728525860036 93.46153846153845, 36.40719992842109 94.2603550295858, 37.04434847822331 95.05917159763314, 37.128721998123396 95.85798816568047, 37.664995444641605 96.65680473372781, 33.26123902092844 97.45562130177515, 35.073520955527584 98.2544378698225, 35.60788264919433 99.05325443786982, 35.03612778507896 99.85207100591715, 36.737945079388034 100.6508875739645, 37.458030731967206 101.44970414201183, 37.99719800555181 102.24852071005917, 40.82079252138246 103.04733727810651, 41.51311199951924 103.84615384615385, 40.18411427554444 104.64497041420118, 41.625870520884675 105.44378698224853, 38.35673487136369 106.24260355029585, 37.13969576090284 107.0414201183432, 36.128621755895594 107.84023668639053, 35.80404252035134 108.63905325443787, 36.014427238750656 109.43786982248521, 34.718757785042136 110.23668639053254, 34.1260385590363 111.03550295857988, 35.98653339051729 111.83431952662723, 34.19119059712795 112.63313609467457, 35.53238833452874 113.43195266272188, 34.92054293787308 114.23076923076923, 34.924366599693265 115.02958579881657, 35.96056906808365 115.82840236686391, 34.05394742630666 116.62721893491124, 36.92512922927593 117.42603550295858, 40.28926097738534 118.22485207100593, 37.879281554389436 119.02366863905324, 39.08408552120247 119.82248520710058, 39.659455716276796 120.62130177514793, 38.355085922173956 121.42011834319527, 42.213664593979175 122.2189349112426, 43.62476491112241 123.01775147928994, 48.5854356345779 123.81656804733728, 49.81272864609242 124.61538461538463, 50.0 125.41420118343194, 47.56090591538919 126.21301775147928, 47.5702171686165 127.01183431952663, 42.84565394852291 127.81065088757396, 28.28699707692627 128.60946745562129, 37.35443536758963 129.40828402366864, 34.077531733665246 130.20710059171597, 36.607727984740286 131.0059171597633, 33.017301542942455 131.80473372781066, 34.17550501919896 132.60355029585799, 31.124870934260745 133.40236686390534, 31.803018964289677 134.20118343195267, 32.260355403994375" fill="none" stroke="#32ca5b" stroke-width="1.25"/>

</svg>