<?xml version="1.0" standalone="no"?>
<!DOCTYPE svg PUBLIC "-//W3C//DTD SVG 1.1//EN" "http://www.w3.org/Graphics/SVG/1.1/DTD/svg11.dtd">

<svg width="135" height="50" viewBox="0 0 135 50" preserveAspectRatio="none" 
  xmlns="http://www.w3.org/2000/svg"
  xmlns:xlink="http://www.w3.org/1999/xlink">


<polyline points="0.0, 38.45520694113229 0.9375, 37.88889991283771 1.875, 43.692756489817974 2.8125, 43.94437306300805 3.75, 49.88187720823766 4.6875, 49.65350976308317 5.625, 49.88187720823766 6.5625, 49.88187720823766 7.5, 49.88187720823766 8.4375, 50.0 9.375, 49.88187720823766 10.3125, 49.82044269961674 11.25, 49.88187720823766 12.1875, 49.09766466313826 13.125, 49.425658152123084 14.0625, 49.09766466313826 15.0, 49.09766466313826 15.9375, 49.09766466313826 16.875, 49.09766466313826 17.8125, 49.09766466313826 18.75, 49.18391596981953 19.6875, 49.09766466313826 20.625, 49.09766466313826 21.5625, 49.09766466313826 22.5, 49.09766466313826 23.4375, 49.97138210276356 24.375, 49.054834249418505 25.3125, 49.09766466313826 26.25, 49.09766466313826 27.1875, 6.8155301696659345 28.125, 48.308395515548106 29.0625, 48.308395515548106 30.0, 48.308395515548106 30.9375, 48.308395515548106 31.875, 48.96213511529196 32.8125, 49.88187720823766 33.75, 49.88187720823766 34.6875, 49.88187720823766 35.625, 10.795817410781375 36.5625, 10.795817410781375 37.5, 10.795817410781375 38.4375, 10.795817410781375 39.375, 10.795817410781375 40.3125, 10.795817410781375 41.25, 10.795817410781375 42.1875, 10.671249953267612 43.125, 10.671249953267612 44.0625, 10.671249953267612 45.0, 49.88187720823766 45.9375, 49.88187720823766 46.875, 49.88187720823766 47.8125, 49.88187720823766 48.75, 49.88187720823766 49.6875, 49.88187720823766 50.625, 49.88187720823766 51.5625, 49.88187720823766 52.5, 49.88187720823766 53.4375, 49.88187720823766 54.375, 49.88187720823766 55.3125, 49.88187720823766 56.25, 48.6535557371894 57.1875, 10.671249953267612 58.125, 10.671249953267612 59.0625, 10.671249953267612 60.0, 10.667122744527854 60.9375, 10.671249953267612 61.875, 10.671249953267612 62.8125, 10.671249953267612 63.75, 10.80582512709439 64.6875, 10.671249953267612 65.625, 10.406612466736341 66.5625, 10.671249953267612 67.5, 46.31865190972641 68.4375, 46.25455462312094 69.375, 10.671249953267612 70.3125, 10.671249953267612 71.25, 10.671249953267612 72.1875, 10.671249953267612 73.125, 10.671249953267612 74.0625, 10.565873664801586 75.0, 10.671249953267612 75.9375, 10.955356245616183 76.875, 48.31345211803886 77.8125, 48.36480688912122 78.75, 48.51606553785125 79.6875, 48.11928091289298 80.625, 48.31345211803886 81.5625, 48.31345211803886 82.5, 48.31345211803886 83.4375, 48.31345211803886 84.375, 48.31345211803886 85.3125, 48.31345211803886 86.25, 48.31345211803886 87.1875, 48.31345211803886 88.125, 48.31345211803886 89.0625, 48.31345211803886 90.0, 48.31345211803886 90.9375, 48.31345211803886 91.875, 48.31345211803886 92.8125, 48.31345211803886 93.75, 48.31345211803886 94.6875, 48.31345211803886 95.625, 48.31345211803886 96.5625, 48.407817720062226 97.5, 48.31345211803886 98.4375, 48.31345211803886 99.375, 48.31345211803886 100.3125, 48.31345211803886 101.25, 48.31345211803886 102.1875, 48.31345211803886 103.125, 48.31345211803886 104.0625, 48.31345211803886 105.0, 48.31345211803886 105.9375, 48.31345211803886 106.875, 48.31055546089604 107.8125, 48.304854741686434 108.75, 48.31345211803886 109.6875, 48.31345211803886 110.625, 0.0 111.5625, 17.768795177431965 112.5, 18.996278376134793 113.4375, 17.70707820602666 114.375, 16.417336965993233 115.3125, 17.182070922040538 116.25, 17.24362277952083 117.1875, 18.87537365892221 118.125, 47.96189753098699 119.0625, 48.55215928059238 120.0, 48.08314028964812 120.9375, 48.96883690011606 121.875, 48.44912815871797 122.8125, 47.9053820218281 123.75, 47.65096684348723 124.6875, 47.29264333322086 125.625, 47.36528538885457 126.5625, 47.61476191761211 127.5, 47.52923957293946 128.4375, 47.52923957293946 129.375, 46.15261604210726 130.3125, 47.64062192710112 131.25, 47.52923957293946 132.1875, 46.215768614979055 133.125, 47.52923957293946 134.0625, 47.490154612218745" fill="none" stroke="#ff3a33" stroke-width="1.25"/>

</svg>