<?xml version="1.0" standalone="no"?>
<!DOCTYPE svg PUBLIC "-//W3C//DTD SVG 1.1//EN" "http://www.w3.org/Graphics/SVG/1.1/DTD/svg11.dtd">

<svg width="135" height="50" viewBox="0 0 135 50" preserveAspectRatio="none" 
  xmlns="http://www.w3.org/2000/svg"
  xmlns:xlink="http://www.w3.org/1999/xlink">


<polyline points="0.0, 19.03908638497963 0.7988165680473372, 23.018933823529963 1.5976331360946745, 28.77993219627691 2.396449704142012, 29.119699319397345 3.195266272189349, 32.143156820317536 3.994082840236686, 30.73540142095138 4.792899408284024, 28.41967807882593 5.591715976331361, 28.620666201519064 6.390532544378698, 28.973493556423225 7.189349112426036, 32.41522738696838 7.988165680473372, 34.57085712669661 8.78698224852071, 32.71239005211349 9.585798816568047, 32.413064306371446 10.384615384615385, 34.15819388022561 11.183431952662723, 28.165427765638224 11.982248520710058, 34.43347842929788 12.781065088757396, 37.003282105418634 13.579881656804734, 40.468820161645986 14.378698224852071, 39.200436544572625 15.177514792899409, 37.735215490709635 15.976331360946745, 32.07065653347769 16.775147928994084, 32.745254073526304 17.57396449704142, 32.64556154816174 18.37278106508876, 31.291121273996747 19.171597633136095, 29.28870081342162 19.970414201183434, 27.87902070715177 20.76923076923077, 24.75065932123425 21.56804733727811, 23.317807858429298 22.366863905325445, 25.239720218200446 23.16568047337278, 26.642077916397454 23.964497041420117, 29.43328943204352 24.763313609467456, 31.113790415314234 25.562130177514792, 31.376927841328197 26.36094674556213, 31.85285212834187 27.159763313609467, 37.3366260759243 27.958579881656807, 36.172916366061926 28.757396449704142, 39.373120448628484 29.55621301775148, 37.472449417105175 30.355029585798817, 42.06118490262102 31.153846153846157, 44.49207886731179 31.95266272189349, 44.441896851081026 32.751479289940825, 43.16646148120963 33.55029585798817, 47.52844562278065 34.349112426035504, 49.135523785117975 35.14792899408284, 48.03870388199118 35.94674556213018, 48.369636332409385 36.74556213017752, 46.7658852350869 37.54437869822485, 44.2687410012137 38.34319526627219, 41.60905540816513 39.142011834319526, 44.6031735731147 39.94082840236687, 47.733664837262666 40.7396449704142, 47.581795700421786 41.53846153846154, 45.45646546296997 42.337278106508876, 45.50892753069213 43.13609467455622, 45.13542562930875 43.93491124260355, 42.349955611343674 44.73372781065089, 40.02855574467633 45.532544378698226, 36.69129332483627 46.33136094674556, 36.16267347925603 47.1301775147929, 36.835054911721585 47.928994082840234, 38.90590185373621 48.72781065088758, 40.17691737283078 49.52662721893491, 43.444023193731844 50.32544378698225, 41.554843302625066 51.124260355029584, 41.03673196612612 51.92307692307693, 44.7709004918792 52.72189349112426, 42.96429248025173 53.5207100591716, 41.68916218541267 54.319526627218934, 43.31589440628748 55.11834319526627, 41.6390596763297 55.91715976331361, 46.294310705055786 56.71597633136094, 46.7340625165051 57.514792899408285, 49.00626328628076 58.31360946745562, 46.6236968876945 59.11242603550296, 47.18365445638567 59.91124260355029, 48.7966566033334 60.710059171597635, 48.868892649669185 61.50887573964497, 48.31394046269143 62.307692307692314, 48.10320883033105 63.10650887573964, 46.55605550691216 63.90532544378698, 48.59414595306275 64.70414201183432, 50.0 65.50295857988165, 48.41961622781403 66.30177514792899, 47.82510354027597 67.10059171597634, 47.23469565893529 67.89940828402366, 49.16059938252666 68.69822485207101, 47.466217414384445 69.49704142011834, 42.166013363159315 70.29585798816568, 33.45272025320129 71.09467455621302, 38.06643481449836 71.89349112426036, 33.1373858017388 72.6923076923077, 35.714635864527274 73.49112426035504, 35.407336332847095 74.28994082840237, 34.24590070700263 75.0887573964497, 36.877597315266335 75.88757396449704, 39.75332076914986 76.68639053254438, 40.496366735854586 77.48520710059172, 39.8310347916289 78.28402366863905, 44.68357547059502 79.0828402366864, 42.83318207989929 79.88165680473374, 40.682503147312296 80.68047337278107, 39.02170628584906 81.4792899408284, 39.35171062424307 82.27810650887574, 40.29106840569455 83.07692307692308, 35.423669338646825 83.87573964497041, 35.40012176855374 84.67455621301775, 30.75286014149891 85.4733727810651, 28.79654297499183 86.27218934911244, 25.971855550792256 87.07100591715975, 27.954013715276886 87.8698224852071, 29.463911978175343 88.66863905325444, 32.15771480067982 89.46745562130178, 30.230148281468423 90.26627218934911, 29.653651347105754 91.06508875739645, 28.024936474811756 91.8639053254438, 29.11080235102343 92.66272189349112, 26.86767171100371 93.46153846153845, 26.71596421272818 94.2603550295858, 26.51480404300155 95.05917159763314, 25.732368843441535 95.85798816568047, 26.356980608451963 96.65680473372781, 26.945544180692423 97.45562130177515, 25.257349136566315 98.2544378698225, 25.649100440573104 99.05325443786982, 26.67427773686214 99.85207100591715, 25.570376410761092 100.6508875739645, 23.912665414654597 101.44970414201183, 22.43952405773606 102.24852071005917, 24.624471626048074 103.04733727810651, 26.44972018954285 103.84615384615385, 25.978276696963356 104.64497041420118, 25.36642870319846 105.44378698224853, 23.513935557902034 106.24260355029585, 21.867661091031295 107.0414201183432, 22.044982951218405 107.84023668639053, 18.50980893757827 108.63905325443787, 21.670059841640782 109.43786982248521, 23.274957883462232 110.23668639053254, 22.99146906814754 111.03550295857988, 24.022114435607058 111.83431952662723, 23.62970685625358 112.63313609467457, 20.414396047296986 113.43195266272188, 18.214244534095805 114.23076923076923, 18.51288976896926 115.02958579881657, 19.658275575288606 115.82840236686391, 19.523228469841815 116.62721893491124, 21.953121246900505 117.42603550295858, 21.210913061298196 118.22485207100593, 21.125688945792085 119.02366863905324, 21.435336391922633 119.82248520710058, 22.334887435114446 120.62130177514793, 17.210794956900273 121.42011834319527, 22.12355562103594 122.2189349112426, 19.574282629132288 123.01775147928994, 23.713433785293567 123.81656804733728, 22.937501879751512 124.61538461538463, 23.364613651944016 125.41420118343194, 23.401182691109597 126.21301775147928, 25.991438224721314 127.01183431952663, 19.806607773489308 127.81065088757396, 16.100354813688842 128.60946745562129, 7.11876937122708 129.40828402366864, 0.7211119387323977 130.20710059171597, 2.2920666691979 131.0059171597633, 2.842797809226761 131.80473372781066, 0.0 132.60355029585799, 1.1417947203492695 133.40236686390534, 2.5808125254206433 134.20118343195267, 3.0276037720983937" fill="none" stroke="#32ca5b" stroke-width="1.25"/>

</svg>