<?xml version="1.0" standalone="no"?>
<!DOCTYPE svg PUBLIC "-//W3C//DTD SVG 1.1//EN" "http://www.w3.org/Graphics/SVG/1.1/DTD/svg11.dtd">

<svg width="135" height="50" viewBox="0 0 135 50" preserveAspectRatio="none" 
  xmlns="http://www.w3.org/2000/svg"
  xmlns:xlink="http://www.w3.org/1999/xlink">


<polyline points="0.0, 6.643060524351629 0.7988165680473372, 2.837044625347105 1.5976331360946745, 7.445834968816524 2.396449704142012, 3.3499624191854935 3.195266272189349, 3.9780992227529586 3.994082840236686, 3.972526334020695 4.792899408284024, 2.523051575354939 5.591715976331361, 1.2621629938613144 6.390532544378698, 0.0 7.189349112426036, 2.9051296218510525 7.988165680473372, 9.263782816499264 8.78698224852071, 7.765597095032064 9.585798816568047, 2.3081407185167553 10.384615384615385, 7.332635756429521 11.183431952662723, 5.702372189027481 11.982248520710058, 12.57762081088602 12.781065088757396, 19.304286247760643 13.579881656804734, 23.894115291817787 14.378698224852071, 25.97944981606633 15.177514792899409, 22.74525109940399 15.976331360946745, 20.6656244284596 16.775147928994084, 20.062225374696453 17.57396449704142, 20.262523176428417 18.37278106508876, 20.643382074996342 19.171597633136095, 20.289735654641156 19.970414201183434, 19.976035437098865 20.76923076923077, 20.69838851646721 21.56804733727811, 22.342094253403708 22.366863905325445, 21.444815208980504 23.16568047337278, 21.418004933633412 23.964497041420117, 26.12739537130367 24.763313609467456, 30.455909661322757 25.562130177514792, 33.09372659953951 26.36094674556213, 27.851515483554262 27.159763313609467, 40.99757944378286 27.958579881656807, 42.30905660354344 28.757396449704142, 42.6219800026032 29.55621301775148, 42.817091647340035 30.355029585798817, 43.6926803256685 31.153846153846157, 50.0 31.95266272189349, 45.772205189914054 32.751479289940825, 41.603485276486296 33.55029585798817, 45.94631491782224 34.349112426035504, 49.99029929475111 35.14792899408284, 41.03708186981257 35.94674556213018, 45.54665750693419 36.74556213017752, 38.242025430969825 37.54437869822485, 37.35733003408501 38.34319526627219, 34.12047005775038 39.142011834319526, 36.632270510680975 39.94082840236687, 42.742204606790075 40.7396449704142, 42.79838745716902 41.53846153846154, 40.84525559501722 42.337278106508876, 41.5604918448583 43.13609467455622, 39.11122806540197 43.93491124260355, 34.78940931951815 44.73372781065089, 21.435854844143904 45.532544378698226, 22.891302124864403 46.33136094674556, 22.792701680513357 47.1301775147929, 25.65523113673327 47.928994082840234, 23.106858275611277 48.72781065088758, 22.83158370045926 49.52662721893491, 29.154722269840438 50.32544378698225, 28.101787624049653 51.124260355029584, 25.622037732933716 51.92307692307693, 27.51460698017942 52.72189349112426, 23.94635517888803 53.5207100591716, 23.024124040521038 54.319526627218934, 24.526645861429227 55.11834319526627, 18.945870189496606 55.91715976331361, 26.045596732909704 56.71597633136094, 25.452511548712497 57.514792899408285, 34.566607243565365 58.31360946745562, 32.328548518790114 59.11242603550296, 32.62289579726625 59.91124260355029, 34.42070869819099 60.710059171597635, 35.058848385221616 61.50887573964497, 30.707069409152755 62.307692307692314, 31.088256540866954 63.10650887573964, 28.99408401321567 63.90532544378698, 33.89208619316956 64.70414201183432, 37.612424883982754 65.50295857988165, 37.3774270827803 66.30177514792899, 35.36056549227735 67.10059171597634, 34.1292929370915 67.89940828402366, 38.021003885697354 68.69822485207101, 35.573942917720196 69.49704142011834, 32.91552281092311 70.29585798816568, 39.98019857727136 71.09467455621302, 39.51998401600275 71.89349112426036, 38.593136331789474 72.6923076923077, 38.82343212425254 73.49112426035504, 37.06111703797903 74.28994082840237, 36.521649212892854 75.0887573964497, 36.774334421391984 75.88757396449704, 39.60427286997956 76.68639053254438, 39.45137864462005 77.48520710059172, 40.23079431453825 78.28402366863905, 45.81177123790522 79.0828402366864, 43.74192685071732 79.88165680473374, 40.61329665094197 80.68047337278107, 40.18062992472823 81.4792899408284, 40.92389631619496 82.27810650887574, 40.97746850715097 83.07692307692308, 36.8557079294946 83.87573964497041, 37.583286038320665 84.67455621301775, 31.42195147293802 85.4733727810651, 25.94595136927612 86.27218934911244, 26.42210218772424 87.07100591715975, 28.84713682768637 87.8698224852071, 28.924652610594613 88.66863905325444, 31.609649438538973 89.46745562130178, 30.93183940924895 90.26627218934911, 30.554583161357225 91.06508875739645, 28.999014445579807 91.8639053254438, 29.894015808004287 92.66272189349112, 29.351895098368956 93.46153846153845, 31.41523904714579 94.2603550295858, 29.48326364853938 95.05917159763314, 29.779855688955376 95.85798816568047, 28.80177855798532 96.65680473372781, 30.3609127475552 97.45562130177515, 29.026775304524122 98.2544378698225, 29.714237681274273 99.05325443786982, 30.93251837525094 99.85207100591715, 31.058001965279487 100.6508875739645, 30.999103470292415 101.44970414201183, 32.22946105789794 102.24852071005917, 33.38898021367406 103.04733727810651, 34.18464360330709 103.84615384615385, 33.98700637463978 104.64497041420118, 35.9563531306627 105.44378698224853, 33.75061330664173 106.24260355029585, 33.513610945070624 107.0414201183432, 32.39050529163259 107.84023668639053, 31.555804126915564 108.63905325443787, 31.60611060973925 109.43786982248521, 32.365093207693704 110.23668639053254, 29.043769212468618 111.03550295857988, 30.26191590765278 111.83431952662723, 27.268612516399095 112.63313609467457, 27.12697371383112 113.43195266272188, 23.673743648313604 114.23076923076923, 25.33840719536099 115.02958579881657, 22.106443798384632 115.82840236686391, 20.44532758172477 116.62721893491124, 22.384812691810637 117.42603550295858, 25.342394553890447 118.22485207100593, 25.27588417500073 119.02366863905324, 24.992181690192457 119.82248520710058, 22.67826764833169 120.62130177514793, 22.09271187969166 121.42011834319527, 24.389193363669307 122.2189349112426, 26.12834281526057 123.01775147928994, 30.714097419189752 123.81656804733728, 32.49605546662291 124.61538461538463, 33.36069719048459 125.41420118343194, 30.557423930164507 126.21301775147928, 30.690793255462633 127.01183431952663, 25.527723667522828 127.81065088757396, 21.39801923423557 128.60946745562129, 21.456392009536284 129.40828402366864, 20.362329129147646 130.20710059171597, 22.00338809426122 131.0059171597633, 19.379725405047825 131.80473372781066, 17.995049351348904 132.60355029585799, 19.50109289182183 133.40236686390534, 22.82599278367829 134.20118343195267, 21.762121724841023" fill="none" stroke="#ff3a33" stroke-width="1.25"/>

</svg>