<?xml version="1.0" standalone="no"?>
<!DOCTYPE svg PUBLIC "-//W3C//DTD SVG 1.1//EN" "http://www.w3.org/Graphics/SVG/1.1/DTD/svg11.dtd">

<svg width="135" height="50" viewBox="0 0 135 50" preserveAspectRatio="none" 
  xmlns="http://www.w3.org/2000/svg"
  xmlns:xlink="http://www.w3.org/1999/xlink">


<polyline points="0.0, 0.0 0.7988165680473372, 5.725419528211424 1.5976331360946745, 3.2226416055990406 2.396449704142012, 6.049648472863857 3.195266272189349, 3.579383057997932 3.994082840236686, 2.122560577429595 4.792899408284024, 1.3641736995146971 5.591715976331361, 5.956412917863319 6.390532544378698, 7.906737667710016 7.189349112426036, 9.559967496216572 7.988165680473372, 5.430956523215747 8.78698224852071, 3.571641791430127 9.585798816568047, 7.0391609156204 10.384615384615385, 3.6477696373597777 11.183431952662723, 14.39579462439125 11.982248520710058, 21.408278991349732 12.781065088757396, 19.175540442992695 13.579881656804734, 23.813419907519446 14.378698224852071, 20.92350080954913 15.177514792899409, 17.820205043213917 15.976331360946745, 16.21207352410952 16.775147928994084, 14.967267850076208 17.57396449704142, 12.066636281376267 18.37278106508876, 8.92040459485266 19.171597633136095, 13.654168269901698 19.970414201183434, 13.891272232787408 20.76923076923077, 17.928705465648953 21.56804733727811, 17.897282872031397 22.366863905325445, 18.320080576933165 23.16568047337278, 18.83466647725256 23.964497041420117, 23.246288696623374 24.763313609467456, 24.979013759585033 25.562130177514792, 24.798907259304034 26.36094674556213, 30.97050682316946 27.159763313609467, 32.493285679060506 27.958579881656807, 33.81364752872712 28.757396449704142, 31.770601687469508 29.55621301775148, 32.234790491500156 30.355029585798817, 38.97749274945764 31.153846153846157, 33.97982377273203 31.95266272189349, 29.154518757621318 32.751479289940825, 34.76137539916758 33.55029585798817, 39.68032481006338 34.349112426035504, 38.67118794874819 35.14792899408284, 39.306527130135784 35.94674556213018, 33.65312184130854 36.74556213017752, 26.63246541432061 37.54437869822485, 25.022734980323776 38.34319526627219, 28.714774995488078 39.142011834319526, 35.03409431403158 39.94082840236687, 34.57902381929425 40.7396449704142, 32.99642770393844 41.53846153846154, 31.392503790819358 42.337278106508876, 31.26882251598761 43.13609467455622, 25.666554145982083 43.93491124260355, 27.9051268212556 44.73372781065089, 22.96524958415454 45.532544378698226, 17.952182118806096 46.33136094674556, 20.51463666783011 47.1301775147929, 22.25661689606141 47.928994082840234, 24.27459296058158 48.72781065088758, 28.878050214887253 49.52662721893491, 27.756522439174987 50.32544378698225, 23.24321262935581 51.124260355029584, 27.339422908488466 51.92307692307693, 28.42132870605517 52.72189349112426, 28.25657220449645 53.5207100591716, 28.940643573733155 54.319526627218934, 25.51786887662188 55.11834319526627, 31.972067926790803 55.91715976331361, 32.311482069356266 56.71597633136094, 35.75535255657781 57.514792899408285, 36.79974553326697 58.31360946745562, 36.767713512162935 59.11242603550296, 38.230902743788114 59.91124260355029, 39.963324884021155 60.710059171597635, 38.80971704458826 61.50887573964497, 36.738252750489856 62.307692307692314, 34.735221631047544 63.10650887573964, 36.799078089726464 63.90532544378698, 36.94085146700281 64.70414201183432, 39.04322749846586 65.50295857988165, 35.80968873292401 66.30177514792899, 34.768605768491426 67.10059171597634, 39.71129638444994 67.89940828402366, 38.53490656241675 68.69822485207101, 34.42948321204066 69.49704142011834, 43.25383919034307 70.29585798816568, 46.94541558658166 71.09467455621302, 43.10055169162643 71.89349112426036, 41.43117414066456 72.6923076923077, 40.11334341734526 73.49112426035504, 40.24494306735222 74.28994082840237, 40.55974131271945 75.0887573964497, 43.24257122931493 75.88757396449704, 46.166858327178936 76.68639053254438, 46.10671126878067 77.48520710059172, 50.0 78.28402366863905, 47.53121556850582 79.0828402366864, 46.71811932062068 79.88165680473374, 41.3763150379391 80.68047337278107, 41.484242508990846 81.4792899408284, 40.85390800830497 82.27810650887574, 39.324359704037306 83.07692307692308, 37.54364000855493 83.87573964497041, 35.73132241102906 84.67455621301775, 36.10213299470411 85.4733727810651, 36.25583017022373 86.27218934911244, 36.911581634794494 87.07100591715975, 36.302930209238085 87.8698224852071, 36.6997268393427 88.66863905325444, 37.16064738847706 89.46745562130178, 36.382604235395824 90.26627218934911, 30.25494493406181 91.06508875739645, 31.463692940100067 91.8639053254438, 30.78722839213285 92.66272189349112, 28.716823743685687 93.46153846153845, 28.411451804977915 94.2603550295858, 27.867046704915143 95.05917159763314, 28.728747445875065 95.85798816568047, 30.332412497064265 96.65680473372781, 30.403507245384993 97.45562130177515, 31.91361176154297 98.2544378698225, 33.050699626754785 99.05325443786982, 32.74246929451666 99.85207100591715, 33.17324168911072 100.6508875739645, 32.24265278595871 101.44970414201183, 32.4677885805844 102.24852071005917, 34.699999862816405 103.04733727810651, 35.384396496485756 103.84615384615385, 35.889421614427256 104.64497041420118, 34.261363408059125 105.44378698224853, 34.53640274862115 106.24260355029585, 34.34468029857549 107.0414201183432, 32.74628444893512 107.84023668639053, 32.82493839266985 108.63905325443787, 35.07362024343432 109.43786982248521, 31.980619873554083 110.23668639053254, 33.049078387901545 111.03550295857988, 31.979236359090613 111.83431952662723, 30.37051220171233 112.63313609467457, 31.239518093044293 113.43195266272188, 31.975756184749226 114.23076923076923, 31.926429920618677 115.02958579881657, 31.397086840958384 115.82840236686391, 29.7669452642316 116.62721893491124, 33.195342708240084 117.42603550295858, 34.016347404500245 118.22485207100593, 32.252891432899865 119.02366863905324, 31.372037148236352 119.82248520710058, 29.274040800909894 120.62130177514793, 31.27115339645013 121.42011834319527, 30.56014218238343 122.2189349112426, 37.350914022931434 123.01775147928994, 38.117925257710986 123.81656804733728, 40.58042588967316 124.61538461538463, 41.32079497589463 125.41420118343194, 38.7789851919982 126.21301775147928, 35.41454958200869 127.01183431952663, 28.946417126899725 127.81065088757396, 17.198345644186826 128.60946745562129, 10.452185759924754 129.40828402366864, 4.431155589694487 130.20710059171597, 5.338740599824474 131.0059171597633, 6.868482806327031 131.80473372781066, 9.888309441644552 132.60355029585799, 5.846864041345648 133.40236686390534, 4.26574310759114 134.20118343195267, 3.2222435037355273" fill="none" stroke="#ff3a33" stroke-width="1.25"/>

</svg>