<?xml version="1.0" standalone="no"?>
<!DOCTYPE svg PUBLIC "-//W3C//DTD SVG 1.1//EN" "http://www.w3.org/Graphics/SVG/1.1/DTD/svg11.dtd">

<svg width="135" height="50" viewBox="0 0 135 50" preserveAspectRatio="none" 
  xmlns="http://www.w3.org/2000/svg"
  xmlns:xlink="http://www.w3.org/1999/xlink">


<polyline points="0.0, 43.2322270297414 3.552631578947368, 41.54764196197524 7.105263157894736, 43.355121077490246 10.657894736842104, 42.63974576907187 14.210526315789473, 41.39742639902364 17.763157894736842, 42.3306233933856 21.31578947368421, 42.189919211224954 24.86842105263158, 29.14607119371254 28.421052631578945, 50.0 31.973684210526315, 15.928138713094741 35.526315789473685, 11.21266461463571 39.078947368421055, 10.699269338266618 42.63157894736842, 10.816016088927956 46.18421052631579, 11.75619032919282 49.73684210526316, 0.0 53.28947368421053, 28.37792438750731 56.84210526315789, 25.94973985355946 60.39473684210526, 28.39362555735906 63.94736842105263, 27.27691922877059 67.5, 21.384708814778627 71.05263157894737, 27.786220242133208 74.60526315789474, 26.79111985522557 78.15789473684211, 28.154940139853167 81.71052631578948, 28.429457072954182 85.26315789473684, 47.34036065968357 88.81578947368422, 48.040080966849416 92.36842105263158, 48.151055386907444 95.92105263157895, 48.87562633124594 99.47368421052632, 47.69846645949875 103.02631578947368, 47.20531636196383 106.57894736842105, 46.4034953544541 110.13157894736842, 42.505457428941064 113.68421052631578, 43.28737750333778 117.23684210526316, 41.66123157559649 120.78947368421052, 41.97558275836974 124.34210526315789, 42.533060621480026 127.89473684210526, 41.20731143699912 131.44736842105263, 42.24863708992539" fill="none" stroke="#32ca5b" stroke-width="1.25"/>

</svg>