<?xml version="1.0" standalone="no"?>
<!DOCTYPE svg PUBLIC "-//W3C//DTD SVG 1.1//EN" "http://www.w3.org/Graphics/SVG/1.1/DTD/svg11.dtd">

<svg width="135" height="50" viewBox="0 0 135 50" preserveAspectRatio="none" 
  xmlns="http://www.w3.org/2000/svg"
  xmlns:xlink="http://www.w3.org/1999/xlink">


<polyline points="0.0, 10.610710485593696 0.7988165680473372, 10.457693448534151 1.5976331360946745, 7.491333829133021 2.396449704142012, 12.632343796923248 3.195266272189349, 11.346955006859218 3.994082840236686, 12.250445079698501 4.792899408284024, 11.944085987287574 5.591715976331361, 13.0767198963987 6.390532544378698, 15.950087621094896 7.189349112426036, 14.383730671249017 7.988165680473372, 18.256418009490677 8.78698224852071, 17.877296701708232 9.585798816568047, 16.246918229875238 10.384615384615385, 15.225421192371332 11.183431952662723, 14.812527815286664 11.982248520710058, 13.59693712564441 12.781065088757396, 14.144024471789972 13.579881656804734, 13.5283419857813 14.378698224852071, 11.870936088450806 15.177514792899409, 12.016831395013874 15.976331360946745, 10.993577455336586 16.775147928994084, 15.768821089533011 17.57396449704142, 14.275922323141954 18.37278106508876, 17.382238167543893 19.171597633136095, 11.47465143371166 19.970414201183434, 13.432926720986146 20.76923076923077, 12.203036830476291 21.56804733727811, 11.306230725474085 22.366863905325445, 10.484353030809219 23.16568047337278, 0.0 23.964497041420117, 1.743103643189849 24.763313609467456, 4.260566900954447 25.562130177514792, 7.911581141747035 26.36094674556213, 5.331422220624734 27.159763313609467, 5.3603660131181705 27.958579881656807, 5.656965461345055 28.757396449704142, 0.7773173303672289 29.55621301775148, 8.150967707287855 30.355029585798817, 6.772403171240439 31.153846153846157, 6.78919818176716 31.95266272189349, 12.883364952658253 32.751479289940825, 9.678848605738612 33.55029585798817, 8.715161274637415 34.349112426035504, 10.527699691365413 35.14792899408284, 8.865969103756711 35.94674556213018, 14.08384064375131 36.74556213017752, 11.779059233985821 37.54437869822485, 6.168075059222327 38.34319526627219, 9.708520102034392 39.142011834319526, 14.506278778010905 39.94082840236687, 11.741096714321426 40.7396449704142, 15.9900615517616 41.53846153846154, 12.280776272785728 42.337278106508876, 10.76538690198608 43.13609467455622, 9.373783771479426 43.93491124260355, 13.374067363650505 44.73372781065089, 14.607762824567057 45.532544378698226, 13.714093388005278 46.33136094674556, 13.218273870670266 47.1301775147929, 12.529637382270911 47.928994082840234, 11.649221740647077 48.72781065088758, 10.701899017194227 49.52662721893491, 9.428965831015772 50.32544378698225, 7.003626243372743 51.124260355029584, 6.582473972009134 51.92307692307693, 11.099587035030972 52.72189349112426, 12.589495859910663 53.5207100591716, 12.149716588625607 54.319526627218934, 14.284453334269031 55.11834319526627, 10.153978100197282 55.91715976331361, 11.08024651309302 56.71597633136094, 12.73767329934733 57.514792899408285, 11.636112499197806 58.31360946745562, 8.085822907795382 59.11242603550296, 12.128898730342298 59.91124260355029, 8.778698109150886 60.710059171597635, 9.102230026720315 61.50887573964497, 12.006135911585988 62.307692307692314, 16.065335888966885 63.10650887573964, 13.926460318862189 63.90532544378698, 16.67815432092906 64.70414201183432, 22.42606901640412 65.50295857988165, 23.905407110511014 66.30177514792899, 19.31759654472142 67.10059171597634, 20.745322022841695 67.89940828402366, 21.171503246000942 68.69822485207101, 22.80529093848319 69.49704142011834, 23.920937275101807 70.29585798816568, 23.381135739198346 71.09467455621302, 23.491300307188574 71.89349112426036, 22.80542004675872 72.6923076923077, 26.114361971603767 73.49112426035504, 23.365238080421882 74.28994082840237, 23.09221128678184 75.0887573964497, 25.846501467121392 75.88757396449704, 28.673876908035755 76.68639053254438, 27.682835375815447 77.48520710059172, 24.263797907490677 78.28402366863905, 23.482755119556355 79.0828402366864, 26.14509502494232 79.88165680473374, 24.619183857073914 80.68047337278107, 28.632151092070647 81.4792899408284, 33.81526089053599 82.27810650887574, 33.82339430819174 83.07692307692308, 37.86352269106699 83.87573964497041, 38.37243139200454 84.67455621301775, 37.024171361038654 85.4733727810651, 34.105107581304665 86.27218934911244, 36.64758674066182 87.07100591715975, 38.40270933822137 87.8698224852071, 36.00638402933167 88.66863905325444, 35.58813583780895 89.46745562130178, 39.07055976318839 90.26627218934911, 32.94262585211926 91.06508875739645, 33.10092924804703 91.8639053254438, 39.44219248524925 92.66272189349112, 37.71444389194464 93.46153846153845, 39.05487028373769 94.2603550295858, 39.21796353479078 95.05917159763314, 36.85437643458674 95.85798816568047, 34.059762207519846 96.65680473372781, 36.695067771631464 97.45562130177515, 36.239278407022134 98.2544378698225, 37.997934812098464 99.05325443786982, 38.441829821218825 99.85207100591715, 38.7677314814365 100.6508875739645, 41.580763773623325 101.44970414201183, 40.63822885577405 102.24852071005917, 35.57209314000652 103.04733727810651, 38.073340092762606 103.84615384615385, 38.76281967997358 104.64497041420118, 40.75539291277824 105.44378698224853, 42.648780909183664 106.24260355029585, 45.08624797424699 107.0414201183432, 42.69891537985678 107.84023668639053, 43.08320647861053 108.63905325443787, 44.83723288075788 109.43786982248521, 45.03603407044666 110.23668639053254, 43.681290135970336 111.03550295857988, 41.78491655319819 111.83431952662723, 44.169715602671175 112.63313609467457, 42.2078065409929 113.43195266272188, 43.679647121247875 114.23076923076923, 43.70241034091122 115.02958579881657, 45.27371569018828 115.82840236686391, 46.769868995820865 116.62721893491124, 44.0255492681968 117.42603550295858, 46.76104594314219 118.22485207100593, 45.90533504023925 119.02366863905324, 48.50772319589638 119.82248520710058, 47.73650762305912 120.62130177514793, 45.94038680503824 121.42011834319527, 48.27689438075543 122.2189349112426, 50.0 123.01775147928994, 46.8760593542893 123.81656804733728, 46.207839032772505 124.61538461538463, 45.99758334716543 125.41420118343194, 44.656676088297054 126.21301775147928, 48.403561821892254 127.01183431952663, 49.22262643347163 127.81065088757396, 48.947953126372354 128.60946745562129, 47.74424419328523 129.40828402366864, 43.51807015788466 130.20710059171597, 44.63490759648426 131.0059171597633, 41.73171592196422 131.80473372781066, 39.96050200365433 132.60355029585799, 30.11663410825761 133.40236686390534, 28.86507217477648 134.20118343195267, 18.752360778408224" fill="none" stroke="#ff3a33" stroke-width="1.25"/>

</svg>