<?xml version="1.0" standalone="no"?>
<!DOCTYPE svg PUBLIC "-//W3C//DTD SVG 1.1//EN" "http://www.w3.org/Graphics/SVG/1.1/DTD/svg11.dtd">

<svg width="135" height="50" viewBox="0 0 135 50" preserveAspectRatio="none" 
  xmlns="http://www.w3.org/2000/svg"
  xmlns:xlink="http://www.w3.org/1999/xlink">


<polyline points="0.0, 32.039855845143336 0.7988165680473372, 36.81756700012425 1.5976331360946745, 38.68188637604033 2.396449704142012, 38.52475514377392 3.195266272189349, 40.64190423919513 3.994082840236686, 39.44366665559428 4.792899408284024, 38.100183896741704 5.591715976331361, 37.353387834458914 6.390532544378698, 37.78818150958221 7.189349112426036, 38.95432577266527 7.988165680473372, 40.40635835326062 8.78698224852071, 36.01128770627701 9.585798816568047, 35.24475782046758 10.384615384615385, 35.06116171332909 11.183431952662723, 31.18225089393748 11.982248520710058, 42.09503509031506 12.781065088757396, 43.7359409843255 13.579881656804734, 47.8079723452095 14.378698224852071, 47.71657384635422 15.177514792899409, 42.419681642517546 15.976331360946745, 35.58696464877782 16.775147928994084, 37.27176717877463 17.57396449704142, 37.20277417574771 18.37278106508876, 36.05124718622103 19.171597633136095, 35.997489615361374 19.970414201183434, 36.265609288546464 20.76923076923077, 36.79969551926152 21.56804733727811, 33.527243771905376 22.366863905325445, 33.3129149591079 23.16568047337278, 35.88673197442602 23.964497041420117, 38.10886282493527 24.763313609467456, 37.477287727796934 25.562130177514792, 39.917843465208286 26.36094674556213, 39.265398339217526 27.159763313609467, 48.148690628788586 27.958579881656807, 45.29314731004344 28.757396449704142, 49.387998984455706 29.55621301775148, 45.11729302459081 30.355029585798817, 48.85238023318536 31.153846153846157, 50.0 31.95266272189349, 46.20762804199556 32.751479289940825, 43.58836151995239 33.55029585798817, 45.04736169034618 34.349112426035504, 49.526191180134404 35.14792899408284, 48.95442714271089 35.94674556213018, 48.27571706466392 36.74556213017752, 44.28160241834463 37.54437869822485, 44.542828843547774 38.34319526627219, 40.616358595385385 39.142011834319526, 42.08511193512372 39.94082840236687, 47.82123825052542 40.7396449704142, 45.569710128189115 41.53846153846154, 43.36866751628604 42.337278106508876, 42.427871344169255 43.13609467455622, 42.36483307720903 43.93491124260355, 40.195578198037865 44.73372781065089, 40.30041871857454 45.532544378698226, 35.07027761982403 46.33136094674556, 35.46092092850507 47.1301775147929, 36.78074357973242 47.928994082840234, 34.346396758853366 48.72781065088758, 33.56173570641066 49.52662721893491, 37.03514331240559 50.32544378698225, 32.27694796557951 51.124260355029584, 32.37229375506306 51.92307692307693, 32.5141220206771 52.72189349112426, 28.670193524830527 53.5207100591716, 25.906833718123462 54.319526627218934, 24.812240783727376 55.11834319526627, 21.79704476151816 55.91715976331361, 22.967649970300048 56.71597633136094, 23.122348483568093 57.514792899408285, 25.878975238938235 58.31360946745562, 26.90506073353427 59.11242603550296, 27.747811318487297 59.91124260355029, 30.36468704017894 60.710059171597635, 32.081188416248544 61.50887573964497, 34.1759966073581 62.307692307692314, 34.808530040567035 63.10650887573964, 32.39630115518387 63.90532544378698, 36.214660781126604 64.70414201183432, 36.50947901163555 65.50295857988165, 36.30349149505501 66.30177514792899, 35.25421669732634 67.10059171597634, 32.299868480136965 67.89940828402366, 34.255060382208754 68.69822485207101, 30.607576668839346 69.49704142011834, 29.701020045202757 70.29585798816568, 33.91124377506517 71.09467455621302, 35.10150777648619 71.89349112426036, 33.45159138279061 72.6923076923077, 32.499173159780945 73.49112426035504, 30.425070249740156 74.28994082840237, 29.225271549829728 75.0887573964497, 31.08065123589278 75.88757396449704, 35.18989172905015 76.68639053254438, 33.48907910899255 77.48520710059172, 33.380552903937826 78.28402366863905, 38.210950235049864 79.0828402366864, 35.24813444610503 79.88165680473374, 34.27660801535864 80.68047337278107, 32.130158385214216 81.4792899408284, 30.548202433394938 82.27810650887574, 31.51471673457579 83.07692307692308, 28.99063254680985 83.87573964497041, 30.627533531098138 84.67455621301775, 28.055437681828593 85.4733727810651, 24.217059964886467 86.27218934911244, 20.40214782855769 87.07100591715975, 19.65652689033091 87.8698224852071, 20.533536048437796 88.66863905325444, 24.546385433416308 89.46745562130178, 24.032914698412046 90.26627218934911, 21.97377075932081 91.06508875739645, 18.41650204297714 91.8639053254438, 22.069564200460555 92.66272189349112, 20.475978312920198 93.46153846153845, 19.62506172382947 94.2603550295858, 18.28511862817319 95.05917159763314, 19.0365616373718 95.85798816568047, 19.391923591293498 96.65680473372781, 22.407450848483126 97.45562130177515, 21.400759435344916 98.2544378698225, 23.57495877519864 99.05325443786982, 24.40124600234136 99.85207100591715, 26.547885893021352 100.6508875739645, 26.03761064099129 101.44970414201183, 24.807127727993894 102.24852071005917, 23.971064777634968 103.04733727810651, 24.584734784609054 103.84615384615385, 24.669122883845617 104.64497041420118, 26.38507357788409 105.44378698224853, 24.75614745875648 106.24260355029585, 23.698057137104257 107.0414201183432, 25.164790678372594 107.84023668639053, 23.70138352396763 108.63905325443787, 24.4292471310223 109.43786982248521, 24.929760497623867 110.23668639053254, 23.22576243173867 111.03550295857988, 22.209755401912297 111.83431952662723, 19.99591549387418 112.63313609467457, 20.814386923667026 113.43195266272188, 19.932615734010728 114.23076923076923, 18.387224559834067 115.02958579881657, 18.91794571136838 115.82840236686391, 18.928051627531183 116.62721893491124, 20.355855709241084 117.42603550295858, 18.56748065982508 118.22485207100593, 18.796066224884957 119.02366863905324, 18.23552217201477 119.82248520710058, 19.463088725079096 120.62130177514793, 18.3631602402926 121.42011834319527, 20.29878943020473 122.2189349112426, 19.96262552700353 123.01775147928994, 29.3440532271773 123.81656804733728, 27.734870657262807 124.61538461538463, 27.079309899008642 125.41420118343194, 24.53323018098806 126.21301775147928, 20.02455330071826 127.01183431952663, 15.093599968910054 127.81065088757396, 9.808287590707073 128.60946745562129, 6.192441373904361 129.40828402366864, 5.912243629810405 130.20710059171597, 5.5746011746094695 131.0059171597633, 0.0 131.80473372781066, 0.6469691876769705 132.60355029585799, 1.1219907211908402 133.40236686390534, 5.545033184262005 134.20118343195267, 0.11844258321481972" fill="none" stroke="#32ca5b" stroke-width="1.25"/>

</svg>