<?xml version="1.0" standalone="no"?>
<!DOCTYPE svg PUBLIC "-//W3C//DTD SVG 1.1//EN" "http://www.w3.org/Graphics/SVG/1.1/DTD/svg11.dtd">

<svg width="135" height="50" viewBox="0 0 135 50" preserveAspectRatio="none" 
  xmlns="http://www.w3.org/2000/svg"
  xmlns:xlink="http://www.w3.org/1999/xlink">


<polyline points="0.0, 37.036373608443576 0.7988165680473372, 39.14266924554245 1.5976331360946745, 39.4468837037855 2.396449704142012, 38.33980814407415 3.195266272189349, 40.04321559790418 3.994082840236686, 38.49353948245376 4.792899408284024, 35.79950790291716 5.591715976331361, 36.68055800629999 6.390532544378698, 36.57311170502847 7.189349112426036, 37.09481317038537 7.988165680473372, 38.88591129256679 8.78698224852071, 33.242377920510876 9.585798816568047, 34.53774323822342 10.384615384615385, 37.63341526751148 11.183431952662723, 34.80460103536262 11.982248520710058, 38.88414912238326 12.781065088757396, 42.4766011315824 13.579881656804734, 44.27317871611876 14.378698224852071, 45.07237081011778 15.177514792899409, 43.24388125297305 15.976331360946745, 41.62288372056514 16.775147928994084, 39.67323355972541 17.57396449704142, 39.45508257499673 18.37278106508876, 39.00184319291212 19.171597633136095, 39.04407790640397 19.970414201183434, 40.126990793964254 20.76923076923077, 40.71104654345514 21.56804733727811, 41.28929185880676 22.366863905325445, 39.69348203124316 23.16568047337278, 41.421736796991176 23.964497041420117, 43.03979959117658 24.763313609467456, 43.789100136378444 25.562130177514792, 44.69140877991471 26.36094674556213, 42.369460444161284 27.159763313609467, 46.25533677481244 27.958579881656807, 46.28878087409572 28.757396449704142, 47.4219814680318 29.55621301775148, 45.23041102061639 30.355029585798817, 47.12252734896979 31.153846153846157, 50.0 31.95266272189349, 48.708978661385295 32.751479289940825, 46.96666338027393 33.55029585798817, 48.43822637614557 34.349112426035504, 49.50595444856988 35.14792899408284, 45.03919356825762 35.94674556213018, 45.40868970677984 36.74556213017752, 43.970095622947 37.54437869822485, 44.11736399526156 38.34319526627219, 43.946810475400696 39.142011834319526, 44.70654516271183 39.94082840236687, 47.606362383450936 40.7396449704142, 46.76421115929892 41.53846153846154, 45.85897386312649 42.337278106508876, 46.40595473366974 43.13609467455622, 44.90361886582372 43.93491124260355, 41.505106921853645 44.73372781065089, 39.92308371852327 45.532544378698226, 37.43039471021683 46.33136094674556, 36.95578012938066 47.1301775147929, 38.0838488507406 47.928994082840234, 38.94181525367688 48.72781065088758, 39.33090953208087 49.52662721893491, 41.78592593206742 50.32544378698225, 40.3912973386079 51.124260355029584, 39.133448095355476 51.92307692307693, 41.27696387529706 52.72189349112426, 39.74581138010272 53.5207100591716, 39.57452673731567 54.319526627218934, 40.607898660792664 55.11834319526627, 38.4931198889394 55.91715976331361, 41.615678042439015 56.71597633136094, 40.92490679076113 57.514792899408285, 42.52331463290382 58.31360946745562, 41.72596799672378 59.11242603550296, 42.722423216936775 59.91124260355029, 44.03261779796805 60.710059171597635, 44.83776163913812 61.50887573964497, 43.994899356381715 62.307692307692314, 43.262841660609205 63.10650887573964, 42.00963364350772 63.90532544378698, 45.040032201030115 64.70414201183432, 45.87536337590013 65.50295857988165, 45.78128424704456 66.30177514792899, 44.099929992174836 67.10059171597634, 43.917231241283126 67.89940828402366, 45.47244796623387 68.69822485207101, 44.40542836809549 69.49704142011834, 42.767951288617326 70.29585798816568, 45.650573739777364 71.09467455621302, 45.90545956143561 71.89349112426036, 42.86031068777186 72.6923076923077, 42.12923079157921 73.49112426035504, 42.10783774142539 74.28994082840237, 39.24919685180024 75.0887573964497, 40.58025091569315 75.88757396449704, 42.63135903763805 76.68639053254438, 42.34226690807281 77.48520710059172, 42.58238344340652 78.28402366863905, 45.81933315909291 79.0828402366864, 43.74510279242435 79.88165680473374, 42.45958599618884 80.68047337278107, 40.44149055301144 81.4792899408284, 40.293186267894704 82.27810650887574, 40.331592581736935 83.07692307692308, 37.18173298472819 83.87573964497041, 38.95371312647675 84.67455621301775, 37.79756689960342 85.4733727810651, 37.75439134179573 86.27218934911244, 36.96077556463097 87.07100591715975, 37.086453744004174 87.8698224852071, 35.65397414739811 88.66863905325444, 28.816246005226592 89.46745562130178, 27.52736198934166 90.26627218934911, 29.729068128492557 91.06508875739645, 27.138895278858794 91.8639053254438, 26.231300011902597 92.66272189349112, 26.605953559655898 93.46153846153845, 26.89091224405274 94.2603550295858, 27.913417918550092 95.05917159763314, 27.35205907304421 95.85798816568047, 26.999424889033964 96.65680473372781, 28.56241617002977 97.45562130177515, 26.652428622220004 98.2544378698225, 26.2307352722099 99.05325443786982, 27.05472342401703 99.85207100591715, 27.396303668176103 100.6508875739645, 24.818544160615346 101.44970414201183, 21.940394586120558 102.24852071005917, 21.544554456776783 103.04733727810651, 23.94642597370348 103.84615384615385, 19.904808402154366 104.64497041420118, 13.51776897609877 105.44378698224853, 7.822393875994223 106.24260355029585, 3.2110076208322504 107.0414201183432, 0.0 107.84023668639053, 3.470368173452375 108.63905325443787, 9.175653492146289 109.43786982248521, 12.495595057315148 110.23668639053254, 6.757558961885442 111.03550295857988, 7.575082638126814 111.83431952662723, 3.8416998085822947 112.63313609467457, 7.343614392670668 113.43195266272188, 8.656054949245593 114.23076923076923, 10.758694176932625 115.02958579881657, 9.48520663503226 115.82840236686391, 7.177751271518501 116.62721893491124, 11.485330456671276 117.42603550295858, 11.40855549974313 118.22485207100593, 10.854604056971326 119.02366863905324, 9.866732535253373 119.82248520710058, 8.6170746668811 120.62130177514793, 9.029743434695238 121.42011834319527, 12.080913177414677 122.2189349112426, 10.13921787269741 123.01775147928994, 11.858925731284655 123.81656804733728, 10.39422547450123 124.61538461538463, 10.441983679579781 125.41420118343194, 9.131362348309878 126.21301775147928, 7.884137910613891 127.01183431952663, 4.112837125482023 127.81065088757396, 4.393140189097158 128.60946745562129, 7.581330804297667 129.40828402366864, 8.238888409114214 130.20710059171597, 10.699832090435693 131.0059171597633, 9.931768260824017 131.80473372781066, 10.125997953173261 132.60355029585799, 9.079108195853482 133.40236686390534, 8.483930198236239 134.20118343195267, 6.81155326538043" fill="none" stroke="#32ca5b" stroke-width="1.25"/>

</svg>