<?xml version="1.0" standalone="no"?>
<!DOCTYPE svg PUBLIC "-//W3C//DTD SVG 1.1//EN" "http://www.w3.org/Graphics/SVG/1.1/DTD/svg11.dtd">

<svg width="135" height="50" viewBox="0 0 135 50" preserveAspectRatio="none" 
  xmlns="http://www.w3.org/2000/svg"
  xmlns:xlink="http://www.w3.org/1999/xlink">


<polyline points="0.0, 50.0 0.7988165680473372, 45.585006938707835 1.5976331360946745, 45.15979205682881 2.396449704142012, 44.572917823655246 3.195266272189349, 42.79273880472203 3.994082840236686, 43.13480387425409 4.792899408284024, 40.72697892631859 5.591715976331361, 39.23736624075168 6.390532544378698, 36.86075605980221 7.189349112426036, 43.59855095050309 7.988165680473372, 42.95119981606376 8.78698224852071, 42.67385552704706 9.585798816568047, 45.44284901650835 10.384615384615385, 42.40132953707632 11.183431952662723, 43.870068703399866 11.982248520710058, 41.611064176491865 12.781065088757396, 44.733484813327905 13.579881656804734, 46.44830296643113 14.378698224852071, 47.62230463837634 15.177514792899409, 44.25694275799666 15.976331360946745, 41.1681662879993 16.775147928994084, 40.49396098364221 17.57396449704142, 41.86775616565175 18.37278106508876, 42.63596210895058 19.171597633136095, 42.07376854792148 19.970414201183434, 44.41567357625649 20.76923076923077, 42.83905431108103 21.56804733727811, 42.05090204778607 22.366863905325445, 42.144780268222384 23.16568047337278, 38.52337677127615 23.964497041420117, 35.44674320090429 24.763313609467456, 38.99619365823847 25.562130177514792, 38.18663269238248 26.36094674556213, 38.83113864898609 27.159763313609467, 38.65011704246881 27.958579881656807, 38.92704343947252 28.757396449704142, 37.637323012982385 29.55621301775148, 39.036886132338786 30.355029585798817, 40.16312721755158 31.153846153846157, 43.87710887597693 31.95266272189349, 44.0165834718878 32.751479289940825, 40.397955829827595 33.55029585798817, 34.85186375483656 34.349112426035504, 34.48383515629504 35.14792899408284, 43.661742131961944 35.94674556213018, 41.16224413506228 36.74556213017752, 40.613583526206114 37.54437869822485, 37.02988234181341 38.34319526627219, 34.07130826576753 39.142011834319526, 34.6512898046914 39.94082840236687, 28.53904578013865 40.7396449704142, 30.139580726081476 41.53846153846154, 34.23717035606482 42.337278106508876, 28.840868906960893 43.13609467455622, 34.6942267829853 43.93491124260355, 34.333021466933886 44.73372781065089, 32.56624720883049 45.532544378698226, 34.92839453263093 46.33136094674556, 39.84248108895025 47.1301775147929, 41.133043010472164 47.928994082840234, 38.99029170989496 48.72781065088758, 35.51357176424903 49.52662721893491, 39.29423042252709 50.32544378698225, 36.91989120142923 51.124260355029584, 35.550779601477664 51.92307692307693, 35.24374363378848 52.72189349112426, 36.40798981545259 53.5207100591716, 39.43522097994405 54.319526627218934, 39.67391180578458 55.11834319526627, 39.56640024613159 55.91715976331361, 38.02457461243603 56.71597633136094, 37.74295124457569 57.514792899408285, 36.101909179362615 58.31360946745562, 38.407989583107636 59.11242603550296, 36.853739587130704 59.91124260355029, 36.34577665855742 60.710059171597635, 34.9634230646194 61.50887573964497, 35.05312649056797 62.307692307692314, 35.54305605686736 63.10650887573964, 39.35473030043401 63.90532544378698, 38.48252965163274 64.70414201183432, 37.96793768761539 65.50295857988165, 38.61867714841563 66.30177514792899, 32.183725595096014 67.10059171597634, 35.052480960015735 67.89940828402366, 36.27809120542508 68.69822485207101, 36.645179478901504 69.49704142011834, 36.00468606906691 70.29585798816568, 38.48173919258126 71.09467455621302, 41.753513542848374 71.89349112426036, 39.880443379106055 72.6923076923077, 40.02719353638575 73.49112426035504, 39.1556011118395 74.28994082840237, 36.02973863633983 75.0887573964497, 34.330823477357356 75.88757396449704, 37.9112143764746 76.68639053254438, 37.907616338246434 77.48520710059172, 36.93939284682317 78.28402366863905, 37.94295356555424 79.0828402366864, 31.24581684697054 79.88165680473374, 32.764497403541085 80.68047337278107, 32.90690633428056 81.4792899408284, 33.81312914556628 82.27810650887574, 32.5376777158658 83.07692307692308, 33.558500803452404 83.87573964497041, 33.991977033591816 84.67455621301775, 32.99383999218324 85.4733727810651, 32.2713131281712 86.27218934911244, 31.855982710626417 87.07100591715975, 33.955875062618844 87.8698224852071, 32.86089211110208 88.66863905325444, 34.53021900448208 89.46745562130178, 35.94052845924164 90.26627218934911, 35.887422013914254 91.06508875739645, 35.248712581113125 91.8639053254438, 38.87218806275588 92.66272189349112, 35.101308080798326 93.46153846153845, 34.33249665885261 94.2603550295858, 30.93311654017823 95.05917159763314, 28.712953023504905 95.85798816568047, 27.337733459611812 96.65680473372781, 23.7778248259396 97.45562130177515, 25.266138734976195 98.2544378698225, 22.16807226327847 99.05325443786982, 21.035838975596338 99.85207100591715, 25.69165963650452 100.6508875739645, 22.84555596848502 101.44970414201183, 23.016295462234957 102.24852071005917, 25.307055369365184 103.04733727810651, 23.33104176030455 103.84615384615385, 21.548405367399614 104.64497041420118, 22.618883266913354 105.44378698224853, 18.98435750088899 106.24260355029585, 19.697908953257556 107.0414201183432, 18.20981606209876 107.84023668639053, 18.371800391338436 108.63905325443787, 19.369062463161665 109.43786982248521, 20.125078877396387 110.23668639053254, 15.837649725151293 111.03550295857988, 17.337952775536845 111.83431952662723, 17.189956994323094 112.63313609467457, 18.012442664515486 113.43195266272188, 13.062672393991862 114.23076923076923, 16.209449727015322 115.02958579881657, 14.627982091209562 115.82840236686391, 11.052152456763045 116.62721893491124, 7.292897819936034 117.42603550295858, 5.160388763334771 118.22485207100593, 2.059666165462789 119.02366863905324, 4.227751674090717 119.82248520710058, 0.0 120.62130177514793, 6.305201819342877 121.42011834319527, 11.69680826010461 122.2189349112426, 10.776469046735 123.01775147928994, 8.26120353105612 123.81656804733728, 8.442237314079447 124.61538461538463, 6.397753770925152 125.41420118343194, 5.0744714420381944 126.21301775147928, 7.279047236776743 127.01183431952663, 6.754834458046416 127.81065088757396, 6.028309638094807 128.60946745562129, 4.732573743957256 129.40828402366864, 4.705906494116798 130.20710059171597, 5.323011762515638 131.0059171597633, 7.203948033763524 131.80473372781066, 4.381794391319974 132.60355029585799, 3.5297033470453756 133.40236686390534, 3.8116304144688673 134.20118343195267, 7.091652413006484" fill="none" stroke="#32ca5b" stroke-width="1.25"/>

</svg>