<?xml version="1.0" standalone="no"?>
<!DOCTYPE svg PUBLIC "-//W3C//DTD SVG 1.1//EN" "http://www.w3.org/Graphics/SVG/1.1/DTD/svg11.dtd">

<svg width="135" height="50" viewBox="0 0 135 50" preserveAspectRatio="none" 
  xmlns="http://www.w3.org/2000/svg"
  xmlns:xlink="http://www.w3.org/1999/xlink">


<polyline points="0.0, 49.68642618928097 0.7988165680473372, 50.0 1.5976331360946745, 48.464520106539865 2.396449704142012, 47.07527379696908 3.195266272189349, 44.134908317951044 3.994082840236686, 42.35373078194251 4.792899408284024, 43.55049470231353 5.591715976331361, 45.05477529323567 6.390532544378698, 42.91749723434539 7.189349112426036, 43.73121610210609 7.988165680473372, 43.82965674867309 8.78698224852071, 42.68976832765726 9.585798816568047, 37.61094534494994 10.384615384615385, 37.179104774831956 11.183431952662723, 38.08524023620489 11.982248520710058, 39.79123673960978 12.781065088757396, 37.548073674162566 13.579881656804734, 38.99919893344218 14.378698224852071, 38.84222314118689 15.177514792899409, 36.254992576975646 15.976331360946745, 34.934005956659256 16.775147928994084, 33.679276295411995 17.57396449704142, 31.860702485493604 18.37278106508876, 30.961063626034335 19.171597633136095, 31.346226240783114 19.970414201183434, 34.098941168380534 20.76923076923077, 32.404672426402634 21.56804733727811, 33.366169833033595 22.366863905325445, 30.361304388178006 23.16568047337278, 30.128639124697816 23.964497041420117, 33.27780803184917 24.763313609467456, 30.343477576468942 25.562130177514792, 32.19158707022818 26.36094674556213, 31.40097010209748 27.159763313609467, 32.59619528003844 27.958579881656807, 30.617302522162333 28.757396449704142, 28.23949862818873 29.55621301775148, 23.695546353089846 30.355029585798817, 10.039637716179998 31.153846153846157, 17.34839602262705 31.95266272189349, 19.895878260300158 32.751479289940825, 20.32749015751639 33.55029585798817, 18.222935090538968 34.349112426035504, 18.28226149117115 35.14792899408284, 13.279900905709551 35.94674556213018, 13.264616741229778 36.74556213017752, 12.105873066703147 37.54437869822485, 11.455176644465464 38.34319526627219, 10.2391678646867 39.142011834319526, 13.418958273903922 39.94082840236687, 13.375290024644016 40.7396449704142, 10.868507503034222 41.53846153846154, 9.499600936166859 42.337278106508876, 11.460482186601846 43.13609467455622, 9.147531056024379 43.93491124260355, 8.186634551954617 44.73372781065089, 0.0 45.532544378698226, 0.3599274814422878 46.33136094674556, 1.5199078593089064 47.1301775147929, 4.798570040470278 47.928994082840234, 4.23212940370253 48.72781065088758, 3.0981235744917157 49.52662721893491, 13.256533920806596 50.32544378698225, 16.532455362227154 51.124260355029584, 10.374381734706784 51.92307692307693, 9.396604957073698 52.72189349112426, 11.171395202743918 53.5207100591716, 10.346841588144427 54.319526627218934, 12.712216175386127 55.11834319526627, 11.529593857589708 55.91715976331361, 13.399908589303037 56.71597633136094, 13.521419889058029 57.514792899408285, 14.19217665992742 58.31360946745562, 13.307102919052674 59.11242603550296, 15.332113032238917 59.91124260355029, 14.931185697620844 60.710059171597635, 15.252467152915358 61.50887573964497, 16.695367610569367 62.307692307692314, 15.480006312525152 63.10650887573964, 15.670378974289967 63.90532544378698, 15.1883597079156 64.70414201183432, 15.68008304886585 65.50295857988165, 14.525456080737037 66.30177514792899, 14.447657314412435 67.10059171597634, 15.950955806492093 67.89940828402366, 18.041061253097517 68.69822485207101, 18.767218172667427 69.49704142011834, 18.145024088743302 70.29585798816568, 24.57700667385471 71.09467455621302, 23.551611799798955 71.89349112426036, 23.39291695388953 72.6923076923077, 23.938246589509514 73.49112426035504, 23.85298821514128 74.28994082840237, 24.544790630970574 75.0887573964497, 25.678556970505106 75.88757396449704, 25.687502940985418 76.68639053254438, 25.339356500657523 77.48520710059172, 26.928693515656814 78.28402366863905, 27.968066557705733 79.0828402366864, 27.419533712230766 79.88165680473374, 26.74267764302395 80.68047337278107, 26.664817581483153 81.4792899408284, 25.63973316396824 82.27810650887574, 26.698558184625814 83.07692307692308, 26.149421402527324 83.87573964497041, 26.81922972597509 84.67455621301775, 24.230649849032996 85.4733727810651, 25.89227149969624 86.27218934911244, 26.34861093387821 87.07100591715975, 26.675589220760326 87.8698224852071, 26.4002208738782 88.66863905325444, 24.007137396523813 89.46745562130178, 24.612800513441897 90.26627218934911, 17.450085156245763 91.06508875739645, 10.581654076242723 91.8639053254438, 11.470225279775411 92.66272189349112, 9.800531267039894 93.46153846153845, 7.956898816003882 94.2603550295858, 9.92574889001419 95.05917159763314, 9.377009507806216 95.85798816568047, 9.11808324281886 96.65680473372781, 8.168027475332282 97.45562130177515, 7.431968615443177 98.2544378698225, 7.122121981019277 99.05325443786982, 3.774571552516886 99.85207100591715, 5.319165953509536 100.6508875739645, 7.536586767462272 101.44970414201183, 9.352095541900987 102.24852071005917, 11.269143108055978 103.04733727810651, 10.190634659877166 103.84615384615385, 11.53918787984318 104.64497041420118, 12.992678897577816 105.44378698224853, 10.89881995145301 106.24260355029585, 10.55306372719233 107.0414201183432, 10.599387465792097 107.84023668639053, 10.82134313575623 108.63905325443787, 12.55330304455743 109.43786982248521, 12.587354955503189 110.23668639053254, 9.547148310413993 111.03550295857988, 10.291394104186162 111.83431952662723, 10.076469022320083 112.63313609467457, 10.506429854036577 113.43195266272188, 12.162923469666849 114.23076923076923, 12.878514165520516 115.02958579881657, 13.32036571418915 115.82840236686391, 13.029835185993402 116.62721893491124, 14.522805911537517 117.42603550295858, 15.662460922739813 118.22485207100593, 15.4778447564455 119.02366863905324, 15.46331812673652 119.82248520710058, 16.076434133341564 120.62130177514793, 15.390173925820536 121.42011834319527, 16.422837148374573 122.2189349112426, 15.626951548312928 123.01775147928994, 15.058509632325611 123.81656804733728, 15.939978042054703 124.61538461538463, 18.086772393955783 125.41420118343194, 17.4468245588356 126.21301775147928, 17.190359359367 127.01183431952663, 15.262132364536749 127.81065088757396, 11.351275795774757 128.60946745562129, 10.267960940864384 129.40828402366864, 11.894887954503739 130.20710059171597, 14.13205471562338 131.0059171597633, 14.39783744071459 131.80473372781066, 14.90239530271583 132.60355029585799, 12.94479341868299 133.40236686390534, 11.881638204368402 134.20118343195267, 9.930863606415288" fill="none" stroke="#32ca5b" stroke-width="1.25"/>

</svg>