<?xml version="1.0" standalone="no"?>
<!DOCTYPE svg PUBLIC "-//W3C//DTD SVG 1.1//EN" "http://www.w3.org/Graphics/SVG/1.1/DTD/svg11.dtd">

<svg width="135" height="50" viewBox="0 0 135 50" preserveAspectRatio="none" 
  xmlns="http://www.w3.org/2000/svg"
  xmlns:xlink="http://www.w3.org/1999/xlink">


<polyline points="0.0, 20.006536015369107 0.7988165680473372, 24.277918836040524 1.5976331360946745, 24.22646902403357 2.396449704142012, 26.28082009928758 3.195266272189349, 25.307501044770742 3.994082840236686, 25.37840678387863 4.792899408284024, 24.656897067268535 5.591715976331361, 25.486926203409944 6.390532544378698, 28.983453202931038 7.189349112426036, 34.26642226095573 7.988165680473372, 35.123771705538545 8.78698224852071, 34.84913298726666 9.585798816568047, 35.33054689096742 10.384615384615385, 33.561542194951315 11.183431952662723, 41.14465982774463 11.982248520710058, 47.398831322540865 12.781065088757396, 47.55164968546584 13.579881656804734, 44.98046211977676 14.378698224852071, 44.01172973552339 15.177514792899409, 41.40782756189535 15.976331360946745, 42.225848585362655 16.775147928994084, 40.63129496318502 17.57396449704142, 39.551303921436734 18.37278106508876, 39.823012859057705 19.171597633136095, 39.19599120563782 19.970414201183434, 40.79187540377361 20.76923076923077, 40.835138456623675 21.56804733727811, 40.188988449150926 22.366863905325445, 40.81229375661557 23.16568047337278, 41.45635657865129 23.964497041420117, 43.253630244498076 24.763313609467456, 44.805640603396476 25.562130177514792, 43.0145358474752 26.36094674556213, 49.495510649534225 27.159763313609467, 46.19052855142535 27.958579881656807, 48.40986712030449 28.757396449704142, 45.12357455499217 29.55621301775148, 44.936277061202205 30.355029585798817, 47.867322556539 31.153846153846157, 45.473081294583444 31.95266272189349, 45.33069999644373 32.751479289940825, 47.82397354744388 33.55029585798817, 50.0 34.349112426035504, 47.80817510287755 35.14792899408284, 47.91699260332037 35.94674556213018, 44.0666360300157 36.74556213017752, 42.19244218039881 37.54437869822485, 42.03327268168547 38.34319526627219, 45.56949848491152 39.142011834319526, 48.14201480068515 39.94082840236687, 46.31375668079421 40.7396449704142, 44.45746466022667 41.53846153846154, 45.016373077588625 42.337278106508876, 40.27525446837776 43.13609467455622, 24.806157237307023 43.93491124260355, 12.162386099756409 44.73372781065089, 0.0 45.532544378698226, 4.474030173490853 46.33136094674556, 13.929255621274518 47.1301775147929, 10.599873760026206 47.928994082840234, 13.09826422791239 48.72781065088758, 14.886043808110788 49.52662721893491, 16.317791190979776 50.32544378698225, 15.48224180832743 51.124260355029584, 17.17882195498496 51.92307692307693, 16.254979535087788 52.72189349112426, 18.685033680306326 53.5207100591716, 20.948454918760593 54.319526627218934, 18.38937921962735 55.11834319526627, 20.287081553653127 55.91715976331361, 20.192958426278643 56.71597633136094, 21.921859572706577 57.514792899408285, 19.63331463109277 58.31360946745562, 19.642730388752895 59.11242603550296, 19.33042810191779 59.91124260355029, 21.958898372504784 60.710059171597635, 19.96657656182559 61.50887573964497, 23.32620790958493 62.307692307692314, 24.816354513722466 63.10650887573964, 26.436248811706193 63.90532544378698, 26.905994464641164 64.70414201183432, 24.59773806316916 65.50295857988165, 21.997197963867148 66.30177514792899, 15.639620014831312 67.10059171597634, 15.618730324478197 67.89940828402366, 14.247174211059956 68.69822485207101, 14.581344668203036 69.49704142011834, 19.98620791382157 70.29585798816568, 18.62970692129578 71.09467455621302, 17.158159644868416 71.89349112426036, 19.577601431425236 72.6923076923077, 19.80169175641712 73.49112426035504, 18.519104320119524 74.28994082840237, 20.195219144771425 75.0887573964497, 20.84589255102344 75.88757396449704, 21.90908494249137 76.68639053254438, 18.078110782874354 77.48520710059172, 17.747733764139937 78.28402366863905, 15.432455389480069 79.0828402366864, 14.351393595572059 79.88165680473374, 14.283047397974528 80.68047337278107, 13.003235383613521 81.4792899408284, 14.328475991607306 82.27810650887574, 13.8832773865255 83.07692307692308, 14.685924176347898 83.87573964497041, 15.630612611845788 84.67455621301775, 13.032021704089821 85.4733727810651, 13.387256550897458 86.27218934911244, 13.837639064010204 87.07100591715975, 13.32858473519997 87.8698224852071, 13.065858538121825 88.66863905325444, 13.218435656588953 89.46745562130178, 13.854648058878688 90.26627218934911, 14.677693283998948 91.06508875739645, 14.763689013273517 91.8639053254438, 13.70528761501086 92.66272189349112, 13.348013480802592 93.46153846153845, 13.406986301954745 94.2603550295858, 13.076684572926206 95.05917159763314, 11.69873748434949 95.85798816568047, 12.557960419671005 96.65680473372781, 12.372922395509681 97.45562130177515, 14.406191459121054 98.2544378698225, 13.75207795260041 99.05325443786982, 13.83452255464814 99.85207100591715, 13.99457544624293 100.6508875739645, 13.848269698697937 101.44970414201183, 15.158196795764558 102.24852071005917, 16.779408031003587 103.04733727810651, 14.701768277752485 103.84615384615385, 15.339245213436541 104.64497041420118, 14.986343244347058 105.44378698224853, 14.79131568651477 106.24260355029585, 14.860865516362285 107.0414201183432, 13.113046726772106 107.84023668639053, 14.837194626023662 108.63905325443787, 15.322328072673875 109.43786982248521, 13.141154541667433 110.23668639053254, 13.793750126159294 111.03550295857988, 12.929557980280606 111.83431952662723, 13.056629688769942 112.63313609467457, 11.98462991869629 113.43195266272188, 12.70854649006033 114.23076923076923, 13.168552859129065 115.02958579881657, 11.135892788260312 115.82840236686391, 10.647317438482753 116.62721893491124, 11.40895818960562 117.42603550295858, 10.372070662922779 118.22485207100593, 10.602728427443282 119.02366863905324, 7.776286374783734 119.82248520710058, 4.289425191409183 120.62130177514793, 5.540999364245115 121.42011834319527, 5.194514878580686 122.2189349112426, 10.24249458244374 123.01775147928994, 9.44243772254381 123.81656804733728, 9.139538816182279 124.61538461538463, 8.864331939281616 125.41420118343194, 10.689870657745693 126.21301775147928, 9.321220801334945 127.01183431952663, 6.151278696774501 127.81065088757396, 7.398732047061996 128.60946745562129, 7.281786031585781 129.40828402366864, 10.123683738147509 130.20710059171597, 8.217333750514516 131.0059171597633, 9.336303064717399 131.80473372781066, 9.76042195650436 132.60355029585799, 9.797823461012273 133.40236686390534, 9.881003865347775 134.20118343195267, 9.253915360884033" fill="none" stroke="#32ca5b" stroke-width="1.25"/>

</svg>