<?xml version="1.0" standalone="no"?>
<!DOCTYPE svg PUBLIC "-//W3C//DTD SVG 1.1//EN" "http://www.w3.org/Graphics/SVG/1.1/DTD/svg11.dtd">

<svg width="135" height="50" viewBox="0 0 135 50" preserveAspectRatio="none" 
  xmlns="http://www.w3.org/2000/svg"
  xmlns:xlink="http://www.w3.org/1999/xlink">


<polyline points="0.0, 43.205741266042246 0.7988165680473372, 43.79583501765608 1.5976331360946745, 41.71905614323441 2.396449704142012, 44.315163532944844 3.195266272189349, 44.27367649017532 3.994082840236686, 40.85520971755055 4.792899408284024, 39.88313467699661 5.591715976331361, 39.831411114662224 6.390532544378698, 37.05434990550566 7.189349112426036, 38.70781688306529 7.988165680473372, 34.69050282889922 8.78698224852071, 28.54107006486278 9.585798816568047, 35.25607082152 10.384615384615385, 36.22837698330484 11.183431952662723, 39.98514323541228 11.982248520710058, 46.338465894233785 12.781065088757396, 50.0 13.579881656804734, 46.41552435200336 14.378698224852071, 45.76745942822051 15.177514792899409, 42.83044085256483 15.976331360946745, 41.1046431323353 16.775147928994084, 41.25378755689815 17.57396449704142, 41.09062823049869 18.37278106508876, 40.52627587003096 19.171597633136095, 41.81291114683442 19.970414201183434, 41.589038325331536 20.76923076923077, 41.18423713102812 21.56804733727811, 39.46567846579228 22.366863905325445, 35.3968984481163 23.16568047337278, 37.12840891713251 23.964497041420117, 34.83888754354575 24.763313609467456, 33.70399847931703 25.562130177514792, 35.38244180555007 26.36094674556213, 41.107041041489744 27.159763313609467, 41.599684826724975 27.958579881656807, 42.781476322428155 28.757396449704142, 38.61146039613211 29.55621301775148, 40.1034756217737 30.355029585798817, 45.059065122074934 31.153846153846157, 43.803794628996286 31.95266272189349, 44.559648109666924 32.751479289940825, 48.03159859279219 33.55029585798817, 49.45716647167311 34.349112426035504, 48.667045395855205 35.14792899408284, 49.03549425104626 35.94674556213018, 46.73582813370988 36.74556213017752, 44.11939965268295 37.54437869822485, 43.08014369985038 38.34319526627219, 46.27981773178842 39.142011834319526, 48.937750151706986 39.94082840236687, 49.867077505222504 40.7396449704142, 49.32379133155138 41.53846153846154, 49.02441466806692 42.337278106508876, 47.44658610451991 43.13609467455622, 39.418820924001054 43.93491124260355, 15.726446266798677 44.73372781065089, 8.277672635889468 45.532544378698226, 9.130928680839299 46.33136094674556, 16.567182173793967 47.1301775147929, 19.42857311065246 47.928994082840234, 19.338433054872777 48.72781065088758, 16.82056575223452 49.52662721893491, 22.280237467495827 50.32544378698225, 20.039872344783255 51.124260355029584, 26.360680307910954 51.92307692307693, 27.217411585241546 52.72189349112426, 27.063132407334628 53.5207100591716, 27.924773977872608 54.319526627218934, 27.606303772211287 55.11834319526627, 30.02568933748304 55.91715976331361, 29.81207001838515 56.71597633136094, 31.309238693907805 57.514792899408285, 31.0103078271656 58.31360946745562, 32.147232802811025 59.11242603550296, 33.38616812552546 59.91124260355029, 31.53343691479837 60.710059171597635, 29.657956690132327 61.50887573964497, 24.782472777903443 62.307692307692314, 17.757000820500632 63.10650887573964, 20.661810564848988 63.90532544378698, 24.267595358455832 64.70414201183432, 26.456840724119374 65.50295857988165, 29.49310230735899 66.30177514792899, 28.37868455787758 67.10059171597634, 29.164595654504517 67.89940828402366, 28.791257395455062 68.69822485207101, 29.36644912942788 69.49704142011834, 34.73931662071799 70.29585798816568, 33.86415282826033 71.09467455621302, 30.007589501880975 71.89349112426036, 28.817459786535277 72.6923076923077, 28.447949081833013 73.49112426035504, 27.152183622772274 74.28994082840237, 27.23293923276148 75.0887573964497, 28.935283060513346 75.88757396449704, 27.93671976521927 76.68639053254438, 27.46694251922769 77.48520710059172, 30.949991908693125 78.28402366863905, 29.681249923053453 79.0828402366864, 30.729697814380195 79.88165680473374, 29.9891561239147 80.68047337278107, 26.424751967302356 81.4792899408284, 31.422048999948576 82.27810650887574, 30.188196267024793 83.07692307692308, 31.684390642754483 83.87573964497041, 31.632175982805062 84.67455621301775, 28.871023707066534 85.4733727810651, 26.951013873959063 86.27218934911244, 27.997434090340633 87.07100591715975, 28.19355723807886 87.8698224852071, 29.809743745546413 88.66863905325444, 28.806255303933348 89.46745562130178, 26.253812582978135 90.26627218934911, 25.33043593181052 91.06508875739645, 26.723781745794085 91.8639053254438, 25.947079967944347 92.66272189349112, 26.059638220843457 93.46153846153845, 25.382900405448254 94.2603550295858, 26.668052015333842 95.05917159763314, 26.241726294859436 95.85798816568047, 27.350454555725857 96.65680473372781, 26.285205612831035 97.45562130177515, 25.098930605825842 98.2544378698225, 24.30478552064329 99.05325443786982, 24.731833385927455 99.85207100591715, 24.57429647514258 100.6508875739645, 22.84524960019066 101.44970414201183, 19.668833537427354 102.24852071005917, 16.531937068073375 103.04733727810651, 16.582954493635302 103.84615384615385, 15.46416320758697 104.64497041420118, 10.02098959087712 105.44378698224853, 9.470334555115274 106.24260355029585, 15.843752998916164 107.0414201183432, 14.108619825725349 107.84023668639053, 12.868393823037424 108.63905325443787, 10.481269728305946 109.43786982248521, 10.424787750353806 110.23668639053254, 12.377178348997342 111.03550295857988, 10.71958918301524 111.83431952662723, 8.461286232009822 112.63313609467457, 8.709471398154257 113.43195266272188, 10.745616147879977 114.23076923076923, 11.425544244191647 115.02958579881657, 6.408318802027427 115.82840236686391, 0.0 116.62721893491124, 10.299039405149589 117.42603550295858, 9.35511270481685 118.22485207100593, 10.98532375017996 119.02366863905324, 9.16206298634606 119.82248520710058, 10.005048372840978 120.62130177514793, 12.949537120730737 121.42011834319527, 12.663749676910808 122.2189349112426, 16.84792399274212 123.01775147928994, 15.248927122768464 123.81656804733728, 16.02034562464097 124.61538461538463, 15.934218121850268 125.41420118343194, 17.13326173398344 126.21301775147928, 15.63873565033048 127.01183431952663, 13.50250024698857 127.81065088757396, 11.295132278007147 128.60946745562129, 12.373365116122255 129.40828402366864, 16.136558632447358 130.20710059171597, 15.02315532126046 131.0059171597633, 13.867068869522384 131.80473372781066, 11.686607502690165 132.60355029585799, 13.62971920361041 133.40236686390534, 14.736851179479531 134.20118343195267, 15.28013236182588" fill="none" stroke="#32ca5b" stroke-width="1.25"/>

</svg>