<?xml version="1.0" standalone="no"?>
<!DOCTYPE svg PUBLIC "-//W3C//DTD SVG 1.1//EN" "http://www.w3.org/Graphics/SVG/1.1/DTD/svg11.dtd">

<svg width="135" height="50" viewBox="0 0 135 50" preserveAspectRatio="none" 
  xmlns="http://www.w3.org/2000/svg"
  xmlns:xlink="http://www.w3.org/1999/xlink">


<polyline points="0.0, 34.893886136568526 0.7988165680473372, 35.15989735636902 1.5976331360946745, 34.146124333154376 2.396449704142012, 34.85030916642688 3.195266272189349, 37.433219986826295 3.994082840236686, 34.87655474339506 4.792899408284024, 31.516430925578003 5.591715976331361, 31.199587840953946 6.390532544378698, 33.17458822707889 7.189349112426036, 35.810002150385245 7.988165680473372, 38.355072182052005 8.78698224852071, 37.26173413616192 9.585798816568047, 35.19193553508195 10.384615384615385, 36.45064602238079 11.183431952662723, 34.73322595670968 11.982248520710058, 38.79222855090026 12.781065088757396, 44.14957921265924 13.579881656804734, 45.052186380799974 14.378698224852071, 44.23555654178661 15.177514792899409, 43.982955727884196 15.976331360946745, 41.66527976377297 16.775147928994084, 41.116675917917675 17.57396449704142, 40.546673673544035 18.37278106508876, 38.18624518035095 19.171597633136095, 38.54976364624533 19.970414201183434, 38.52193287455001 20.76923076923077, 39.59420385351641 21.56804733727811, 40.40949902096434 22.366863905325445, 40.428890562901096 23.16568047337278, 41.794557312759046 23.964497041420117, 42.924660057995474 24.763313609467456, 44.366284674714414 25.562130177514792, 44.99365712013623 26.36094674556213, 44.903229160979194 27.159763313609467, 48.96191675470581 27.958579881656807, 48.093974291859595 28.757396449704142, 48.166227609480146 29.55621301775148, 46.919357394615666 30.355029585798817, 47.694859174103 31.153846153846157, 50.0 31.95266272189349, 48.63681118198728 32.751479289940825, 47.4086497647475 33.55029585798817, 49.414558453949205 34.349112426035504, 49.71133807443544 35.14792899408284, 48.142379255988516 35.94674556213018, 49.22513255272847 36.74556213017752, 46.40038278104604 37.54437869822485, 45.569828002674804 38.34319526627219, 44.155014339356356 39.142011834319526, 44.66872442055647 39.94082840236687, 47.11739691906451 40.7396449704142, 46.79825387275925 41.53846153846154, 45.41673916055407 42.337278106508876, 45.59428097586538 43.13609467455622, 44.95483989870607 43.93491124260355, 43.12490202744675 44.73372781065089, 41.992117763134544 45.532544378698226, 40.67857580672482 46.33136094674556, 39.84103642775732 47.1301775147929, 40.56494418290324 47.928994082840234, 40.047945504430345 48.72781065088758, 39.987429579573536 49.52662721893491, 41.73634987752415 50.32544378698225, 40.54690781260292 51.124260355029584, 40.29166580296029 51.92307692307693, 42.09905854580635 52.72189349112426, 41.01167160590067 53.5207100591716, 40.06483041190009 54.319526627218934, 40.57856472616786 55.11834319526627, 38.852712928669945 55.91715976331361, 41.10068086581274 56.71597633136094, 40.573384823803615 57.514792899408285, 42.19797494637756 58.31360946745562, 41.11380728233542 59.11242603550296, 41.39511603990707 59.91124260355029, 42.88996744522182 60.710059171597635, 43.98732927377333 61.50887573964497, 43.10260319071838 62.307692307692314, 43.771888399583666 63.10650887573964, 42.46661991454752 63.90532544378698, 44.162396740470754 64.70414201183432, 45.74043021941353 65.50295857988165, 44.940846411138665 66.30177514792899, 32.23644831636605 67.10059171597634, 38.53069187423595 67.89940828402366, 40.849230308051624 68.69822485207101, 40.687827984366635 69.49704142011834, 39.15137684801066 70.29585798816568, 40.978345922336615 71.09467455621302, 40.564204469410306 71.89349112426036, 39.35336038439435 72.6923076923077, 36.31992070528371 73.49112426035504, 37.0352966555984 74.28994082840237, 36.738666936155404 75.0887573964497, 37.89445592552176 75.88757396449704, 39.795845561589445 76.68639053254438, 39.67213726689375 77.48520710059172, 39.284310943224405 78.28402366863905, 43.25685046178769 79.0828402366864, 41.67253674081212 79.88165680473374, 40.386879807003965 80.68047337278107, 39.06287631847297 81.4792899408284, 38.98657229437086 82.27810650887574, 39.693700484287795 83.07692307692308, 38.65620557622738 83.87573964497041, 38.91315499766553 84.67455621301775, 36.586309714080734 85.4733727810651, 35.7791006086492 86.27218934911244, 32.73419243766939 87.07100591715975, 34.898921758258574 87.8698224852071, 34.90885806685047 88.66863905325444, 36.259689414942805 89.46745562130178, 35.0084574752191 90.26627218934911, 34.550199306318625 91.06508875739645, 34.28929745597888 91.8639053254438, 35.212136750419255 92.66272189349112, 32.556245304946444 93.46153846153845, 33.19482241330018 94.2603550295858, 33.28809058694274 95.05917159763314, 34.36128951289527 95.85798816568047, 34.28905723029095 96.65680473372781, 34.20988595352416 97.45562130177515, 33.859943678848595 98.2544378698225, 33.846066669408216 99.05325443786982, 33.897584883230955 99.85207100591715, 33.03185528692996 100.6508875739645, 31.8013835412771 101.44970414201183, 32.29461476223648 102.24852071005917, 32.41104346376815 103.04733727810651, 34.01509872002424 103.84615384615385, 33.33755525435286 104.64497041420118, 34.04571070819597 105.44378698224853, 33.49701152810441 106.24260355029585, 32.578889905597634 107.0414201183432, 33.54668016060616 107.84023668639053, 32.31991574944863 108.63905325443787, 32.229906282995664 109.43786982248521, 32.621213896703836 110.23668639053254, 31.676133869916047 111.03550295857988, 30.589864086663443 111.83431952662723, 27.990839917613545 112.63313609467457, 29.22705372105418 113.43195266272188, 28.15996210400926 114.23076923076923, 27.609008122410895 115.02958579881657, 28.108420757224746 115.82840236686391, 27.65303493201527 116.62721893491124, 29.68146678931672 117.42603550295858, 28.635996893972788 118.22485207100593, 27.98713516725233 119.02366863905324, 29.179935667575357 119.82248520710058, 28.580015010048953 120.62130177514793, 26.495270667888445 121.42011834319527, 27.267868253798206 122.2189349112426, 29.698843708859414 123.01775147928994, 33.71203190486891 123.81656804733728, 29.94505490006572 124.61538461538463, 30.496949237687137 125.41420118343194, 30.833370312999893 126.21301775147928, 31.174717886239595 127.01183431952663, 23.709419904460415 127.81065088757396, 22.67835618576342 128.60946745562129, 22.791342166571734 129.40828402366864, 22.279636798971765 130.20710059171597, 23.54772957766618 131.0059171597633, 16.593324298908712 131.80473372781066, 17.399957186491804 132.60355029585799, 8.028583759608212 133.40236686390534, 1.5986010605245686 134.20118343195267, 0.0" fill="none" stroke="#32ca5b" stroke-width="1.25"/>

</svg>