<?xml version="1.0" standalone="no"?>
<!DOCTYPE svg PUBLIC "-//W3C//DTD SVG 1.1//EN" "http://www.w3.org/Graphics/SVG/1.1/DTD/svg11.dtd">

<svg width="135" height="50" viewBox="0 0 135 50" preserveAspectRatio="none" 
  xmlns="http://www.w3.org/2000/svg"
  xmlns:xlink="http://www.w3.org/1999/xlink">


<polyline points="0.0, 3.4600605581307398 0.7988165680473372, 9.404471853393673 1.5976331360946745, 10.814259159181985 2.396449704142012, 12.061032463672838 3.195266272189349, 20.29948743510983 3.994082840236686, 19.467374240126258 4.792899408284024, 16.57405892477908 5.591715976331361, 16.53002452226949 6.390532544378698, 17.916838620680608 7.189349112426036, 19.712162487907552 7.988165680473372, 22.9929683324232 8.78698224852071, 20.047165758216433 9.585798816568047, 16.59552275591886 10.384615384615385, 14.328711355556024 11.183431952662723, 6.875710958426201 11.982248520710058, 11.783409013898444 12.781065088757396, 15.225855672452997 13.579881656804734, 18.653797407770416 14.378698224852071, 12.828475684781647 15.177514792899409, 8.987500030676728 15.976331360946745, 6.366323794464189 16.775147928994084, 3.8214620114145106 17.57396449704142, 0.049350605740189325 18.37278106508876, 0.0 19.171597633136095, 2.7795734881276393 19.970414201183434, 3.9455216552984176 20.76923076923077, 7.697450560207017 21.56804733727811, 9.96795921888198 22.366863905325445, 10.314976342867427 23.16568047337278, 10.959906618103298 23.964497041420117, 14.212361332194934 24.763313609467456, 18.76267232258437 25.562130177514792, 18.607793850615515 26.36094674556213, 15.661185400366712 27.159763313609467, 28.304152525917537 27.958579881656807, 31.965868773934393 28.757396449704142, 35.93903032627875 29.55621301775148, 26.67981989225845 30.355029585798817, 29.663395237594514 31.153846153846157, 33.68211126310171 31.95266272189349, 33.34918206724154 32.751479289940825, 32.676190166230256 33.55029585798817, 37.328883331191165 34.349112426035504, 40.42586422883366 35.14792899408284, 39.84504213146571 35.94674556213018, 40.558456663734304 36.74556213017752, 35.72818533370381 37.54437869822485, 33.54805718040563 38.34319526627219, 30.227845972950856 39.142011834319526, 34.00393316410887 39.94082840236687, 37.76511274090458 40.7396449704142, 35.888046630082854 41.53846153846154, 34.27716477005431 42.337278106508876, 33.96887337481758 43.13609467455622, 35.27892466435367 43.93491124260355, 30.465775684102113 44.73372781065089, 29.082614635999253 45.532544378698226, 26.30746338309126 46.33136094674556, 25.098387291594303 47.1301775147929, 23.05305549678336 47.928994082840234, 27.606544828737405 48.72781065088758, 29.95268284320648 49.52662721893491, 31.374420180509325 50.32544378698225, 26.846476027258436 51.124260355029584, 25.05021319151683 51.92307692307693, 27.998726814398 52.72189349112426, 25.100886249003917 53.5207100591716, 24.571052071177622 54.319526627218934, 26.16493847441752 55.11834319526627, 23.676276698032922 55.91715976331361, 26.670827011055415 56.71597633136094, 25.831200551251936 57.514792899408285, 49.452398032016525 58.31360946745562, 46.97878149706318 59.11242603550296, 39.60764107318562 59.91124260355029, 42.72086818207038 60.710059171597635, 42.81372986760223 61.50887573964497, 41.54514087785415 62.307692307692314, 40.399902569084745 63.10650887573964, 39.31545955805319 63.90532544378698, 42.43017546143971 64.70414201183432, 43.753802856949434 65.50295857988165, 42.61658941057861 66.30177514792899, 41.083832045139715 67.10059171597634, 40.25359656115036 67.89940828402366, 42.88099021950416 68.69822485207101, 41.10696803815372 69.49704142011834, 42.116664169887805 70.29585798816568, 48.477654654026196 71.09467455621302, 48.45376072900401 71.89349112426036, 45.91589866046885 72.6923076923077, 44.89168594186694 73.49112426035504, 44.81860348301407 74.28994082840237, 43.066825921976 75.0887573964497, 44.410180538703855 75.88757396449704, 46.20192915102956 76.68639053254438, 45.28435140143279 77.48520710059172, 44.222520922381584 78.28402366863905, 50.0 79.0828402366864, 47.6098664473158 79.88165680473374, 45.852004557511364 80.68047337278107, 44.832616382877305 81.4792899408284, 42.57766089730938 82.27810650887574, 42.29423936289093 83.07692307692308, 40.12559302572632 83.87573964497041, 41.1413580014887 84.67455621301775, 41.14274232473769 85.4733727810651, 39.76526569277056 86.27218934911244, 38.434202942692096 87.07100591715975, 40.426456627333536 87.8698224852071, 38.947028394285276 88.66863905325444, 39.93102125918217 89.46745562130178, 37.683688030242635 90.26627218934911, 37.65149952826729 91.06508875739645, 35.11462643141153 91.8639053254438, 35.79211367306918 92.66272189349112, 36.06562005350148 93.46153846153845, 36.94318154616283 94.2603550295858, 38.66209667047328 95.05917159763314, 40.00004179047127 95.85798816568047, 40.08677841790441 96.65680473372781, 40.17893443121808 97.45562130177515, 39.623320496283725 98.2544378698225, 39.19937976603204 99.05325443786982, 41.320813302556374 99.85207100591715, 42.92871454264417 100.6508875739645, 42.15908002731561 101.44970414201183, 42.49491665415865 102.24852071005917, 42.708757236915694 103.04733727810651, 46.51041852928189 103.84615384615385, 46.698648213758 104.64497041420118, 46.92235555837811 105.44378698224853, 46.224229870719796 106.24260355029585, 46.08895830249151 107.0414201183432, 46.64995945064621 107.84023668639053, 42.32378950913891 108.63905325443787, 44.95322391158359 109.43786982248521, 45.09965434808801 110.23668639053254, 42.70059049813079 111.03550295857988, 44.22636823928035 111.83431952662723, 43.18217902661881 112.63313609467457, 42.64957569886599 113.43195266272188, 41.89938724005995 114.23076923076923, 42.8988137486098 115.02958579881657, 42.5762299900694 115.82840236686391, 42.44118431129218 116.62721893491124, 42.62667344138046 117.42603550295858, 36.75982978441725 118.22485207100593, 34.16496292671488 119.02366863905324, 32.70624418047057 119.82248520710058, 29.33272025243175 120.62130177514793, 32.270906906059565 121.42011834319527, 36.4658317617296 122.2189349112426, 35.59070859201404 123.01775147928994, 41.79175171295418 123.81656804733728, 40.30835009372489 124.61538461538463, 40.249601510680094 125.41420118343194, 39.00121316414297 126.21301775147928, 42.435549287624895 127.01183431952663, 40.55725615946109 127.81065088757396, 39.63218336174655 128.60946745562129, 37.471433369509 129.40828402366864, 36.53540126207991 130.20710059171597, 38.476673222517604 131.0059171597633, 37.08292261537516 131.80473372781066, 36.2990808531574 132.60355029585799, 34.747266921037564 133.40236686390534, 35.88928018748831 134.20118343195267, 35.95988354901578" fill="none" stroke="#ff3a33" stroke-width="1.25"/>

</svg>