<?xml version="1.0" standalone="no"?>
<!DOCTYPE svg PUBLIC "-//W3C//DTD SVG 1.1//EN" "http://www.w3.org/Graphics/SVG/1.1/DTD/svg11.dtd">

<svg width="135" height="50" viewBox="0 0 135 50" preserveAspectRatio="none" 
  xmlns="http://www.w3.org/2000/svg"
  xmlns:xlink="http://www.w3.org/1999/xlink">


<polyline points="0.0, 18.24111998621141 0.7988165680473372, 18.68532947024424 1.5976331360946745, 18.8632818158403 2.396449704142012, 19.130725918216836 3.195266272189349, 23.245416023991584 3.994082840236686, 18.639346608983296 4.792899408284024, 16.713385080408248 5.591715976331361, 16.442878737041138 6.390532544378698, 17.986514909978226 7.189349112426036, 17.311259090848637 7.988165680473372, 14.713644769877268 8.78698224852071, 9.747249374709286 9.585798816568047, 3.4502003227116793 10.384615384615385, 0.0 11.183431952662723, 5.340690818955204 11.982248520710058, 13.026284571298724 12.781065088757396, 21.388363497928047 13.579881656804734, 28.162864910864954 14.378698224852071, 28.15618712800072 15.177514792899409, 24.875198176355056 15.976331360946745, 24.784519252976494 16.775147928994084, 21.423368554153146 17.57396449704142, 23.537681214583703 18.37278106508876, 21.99565345940377 19.171597633136095, 15.516542217945464 19.970414201183434, 15.836512060698379 20.76923076923077, 16.217002711159438 21.56804733727811, 19.583035613426297 22.366863905325445, 21.340639859915523 23.16568047337278, 26.835851478843015 23.964497041420117, 25.34040888059502 24.763313609467456, 26.117602555497697 25.562130177514792, 28.999967545681688 26.36094674556213, 27.783337719978718 27.159763313609467, 27.7270466867157 27.958579881656807, 30.85101084495777 28.757396449704142, 31.80377213744064 29.55621301775148, 33.19147034324526 30.355029585798817, 32.82550407245715 31.153846153846157, 31.105335861137956 31.95266272189349, 32.56775914058386 32.751479289940825, 30.136675652008883 33.55029585798817, 33.91477257356399 34.349112426035504, 34.64940076293263 35.14792899408284, 36.163611112462526 35.94674556213018, 36.49065819792173 36.74556213017752, 37.18335291555397 37.54437869822485, 39.297923955274925 38.34319526627219, 39.88039738010542 39.142011834319526, 39.84454004489713 39.94082840236687, 40.43051721159602 40.7396449704142, 39.458071903932044 41.53846153846154, 40.879049679896326 42.337278106508876, 40.727366796481284 43.13609467455622, 35.31717864707846 43.93491124260355, 34.50960536795624 44.73372781065089, 33.59793804755964 45.532544378698226, 33.54590422849499 46.33136094674556, 32.93880919463955 47.1301775147929, 33.45446704116177 47.928994082840234, 32.613207024989464 48.72781065088758, 32.810041752320785 49.52662721893491, 33.904082698475975 50.32544378698225, 32.58920582165555 51.124260355029584, 33.003128541000976 51.92307692307693, 32.8709540486362 52.72189349112426, 33.2717005371281 53.5207100591716, 36.86996767150706 54.319526627218934, 38.44910683719723 55.11834319526627, 38.97197732305371 55.91715976331361, 38.90920558233322 56.71597633136094, 39.14858052141032 57.514792899408285, 39.195492603117025 58.31360946745562, 39.869075974266266 59.11242603550296, 40.33565043264298 59.91124260355029, 41.635572996883035 60.710059171597635, 41.8389651836823 61.50887573964497, 41.509392023440945 62.307692307692314, 35.89872223035756 63.10650887573964, 36.205985386621 63.90532544378698, 38.3840395837161 64.70414201183432, 37.527389381774924 65.50295857988165, 38.13953085463677 66.30177514792899, 38.40000848085629 67.10059171597634, 38.76777111881486 67.89940828402366, 38.24575099803509 68.69822485207101, 34.07958511574425 69.49704142011834, 35.15946073297417 70.29585798816568, 38.145104834179946 71.09467455621302, 44.592149175368675 71.89349112426036, 44.0067938054445 72.6923076923077, 45.48016917632502 73.49112426035504, 46.10708718415328 74.28994082840237, 47.82768403127606 75.0887573964497, 47.24918902096966 75.88757396449704, 46.11180066238197 76.68639053254438, 47.95575811557217 77.48520710059172, 48.880532625335995 78.28402366863905, 49.98716420260098 79.0828402366864, 48.456212747185795 79.88165680473374, 48.27371155707241 80.68047337278107, 49.68413302314262 81.4792899408284, 49.7843799851693 82.27810650887574, 50.0 83.07692307692308, 48.191679342077656 83.87573964497041, 47.81478383285642 84.67455621301775, 45.51359208002018 85.4733727810651, 43.12717697645359 86.27218934911244, 44.76444357081134 87.07100591715975, 44.902726591045614 87.8698224852071, 45.265514034077455 88.66863905325444, 44.35317141301586 89.46745562130178, 44.39633774106544 90.26627218934911, 40.19217671749062 91.06508875739645, 37.35814479544214 91.8639053254438, 38.25303766016977 92.66272189349112, 37.7826593168056 93.46153846153845, 33.47329463186745 94.2603550295858, 29.903774519270794 95.05917159763314, 27.48915969072679 95.85798816568047, 27.22427587983825 96.65680473372781, 21.100929299193954 97.45562130177515, 18.757995138670562 98.2544378698225, 21.621711451450025 99.05325443786982, 24.547150641510807 99.85207100591715, 27.80835497699493 100.6508875739645, 29.369094380352458 101.44970414201183, 26.555378994422966 102.24852071005917, 25.99138948562294 103.04733727810651, 25.29245476019582 103.84615384615385, 28.067077174536575 104.64497041420118, 30.322084789871074 105.44378698224853, 29.709794221181447 106.24260355029585, 29.85080775703231 107.0414201183432, 30.323595418003872 107.84023668639053, 32.106131232201726 108.63905325443787, 32.02132513703668 109.43786982248521, 32.85220159584111 110.23668639053254, 35.622789187553934 111.03550295857988, 36.7759955703378 111.83431952662723, 35.682783184988494 112.63313609467457, 36.47149073965555 113.43195266272188, 36.147934325321216 114.23076923076923, 39.80825641454487 115.02958579881657, 43.47035550890313 115.82840236686391, 42.78006795613081 116.62721893491124, 41.38928554501404 117.42603550295858, 39.80928959341291 118.22485207100593, 38.93539161483538 119.02366863905324, 38.36450465401977 119.82248520710058, 39.34532604614277 120.62130177514793, 40.24828649492006 121.42011834319527, 40.50551234639306 122.2189349112426, 41.412161111055546 123.01775147928994, 44.53712297003591 123.81656804733728, 44.699020642755265 124.61538461538463, 45.15212994718141 125.41420118343194, 47.0175017116016 126.21301775147928, 47.70733626694139 127.01183431952663, 30.946428798080888 127.81065088757396, 27.595993720953466 128.60946745562129, 19.09050527586583 129.40828402366864, 17.406737621400183 130.20710059171597, 21.180722710717415 131.0059171597633, 21.771437700246903 131.80473372781066, 20.9521688294318 132.60355029585799, 20.938476621495674 133.40236686390534, 19.209725692615397 134.20118343195267, 18.62788737360018" fill="none" stroke="#ff3a33" stroke-width="1.25"/>

</svg>