<?xml version="1.0" standalone="no"?>
<!DOCTYPE svg PUBLIC "-//W3C//DTD SVG 1.1//EN" "http://www.w3.org/Graphics/SVG/1.1/DTD/svg11.dtd">

<svg width="135" height="50" viewBox="0 0 135 50" preserveAspectRatio="none" 
  xmlns="http://www.w3.org/2000/svg"
  xmlns:xlink="http://www.w3.org/1999/xlink">


<polyline points="0.0, 28.363136003409124 0.7988165680473372, 21.723293330792103 1.5976331360946745, 15.108723838184499 2.396449704142012, 22.19563252777208 3.195266272189349, 18.070120571477464 3.994082840236686, 19.27063956342955 4.792899408284024, 19.372950707273578 5.591715976331361, 15.12986526055714 6.390532544378698, 12.000575286570527 7.189349112426036, 6.98678417711716 7.988165680473372, 15.638086802544269 8.78698224852071, 10.33143531888888 9.585798816568047, 15.426346655211965 10.384615384615385, 4.187901863965452 11.183431952662723, 14.701408000579914 11.982248520710058, 13.34740166844352 12.781065088757396, 24.593054325643905 13.579881656804734, 6.650518127178992 14.378698224852071, 18.04503623775813 15.177514792899409, 16.068990238876662 15.976331360946745, 21.60066435004736 16.775147928994084, 15.440178748283817 17.57396449704142, 16.86883057085799 18.37278106508876, 16.5341400324195 19.171597633136095, 12.440744393880003 19.970414201183434, 19.58195044946863 20.76923076923077, 20.375159180062514 21.56804733727811, 15.489158156541064 22.366863905325445, 22.436423920121737 23.16568047337278, 24.35267166400223 23.964497041420117, 14.72494615109784 24.763313609467456, 35.33085261224231 25.562130177514792, 27.168197273794558 26.36094674556213, 50.0 27.159763313609467, 33.81325313247846 27.958579881656807, 22.758326766698744 28.757396449704142, 23.375415499484554 29.55621301775148, 6.361701161846234 30.355029585798817, 25.669040005085108 31.153846153846157, 24.19453372144859 31.95266272189349, 11.275555292610706 32.751479289940825, 18.1208688065023 33.55029585798817, 23.219409309995136 34.349112426035504, 18.878852744928686 35.14792899408284, 31.04650482279346 35.94674556213018, 25.1877734966783 36.74556213017752, 20.404851771750497 37.54437869822485, 14.57348773850817 38.34319526627219, 32.9412736822348 39.142011834319526, 40.82199682473875 39.94082840236687, 19.932082468498564 40.7396449704142, 21.762165454943606 41.53846153846154, 17.378118734725298 42.337278106508876, 24.704070287232245 43.13609467455622, 12.753184206138679 43.93491124260355, 24.684683077493535 44.73372781065089, 12.726420853778064 45.532544378698226, 20.575305157736807 46.33136094674556, 21.34871034702797 47.1301775147929, 15.936597669055447 47.928994082840234, 10.940692863664642 48.72781065088758, 10.533161245335256 49.52662721893491, 8.103989005544559 50.32544378698225, 14.780566084362187 51.124260355029584, 16.155205335502522 51.92307692307693, 19.152414904203045 52.72189349112426, 15.409224894173116 53.5207100591716, 20.362270653550414 54.319526627218934, 18.76067014079373 55.11834319526627, 19.443699342655265 55.91715976331361, 15.833101249819714 56.71597633136094, 20.061457712955278 57.514792899408285, 12.285386059724429 58.31360946745562, 24.293422217830315 59.11242603550296, 9.077968983304022 59.91124260355029, 10.227276712845217 60.710059171597635, 17.450036770503527 61.50887573964497, 14.404443624929689 62.307692307692314, 15.545258476791988 63.10650887573964, 19.440115722784522 63.90532544378698, 23.944350960929334 64.70414201183432, 14.867634370943863 65.50295857988165, 16.457979869005555 66.30177514792899, 19.486699236194166 67.10059171597634, 18.183888939326454 67.89940828402366, 11.774833069612546 68.69822485207101, 0.0 69.49704142011834, 24.734076199627566 70.29585798816568, 18.110151052819162 71.09467455621302, 12.258989212588189 71.89349112426036, 21.328267165249393 72.6923076923077, 18.358176257642338 73.49112426035504, 14.53819014977894 74.28994082840237, 25.663852538890097 75.0887573964497, 20.69826825461255 75.88757396449704, 30.884891549296 76.68639053254438, 20.90656117131226 77.48520710059172, 22.887427970332002 78.28402366863905, 17.828237139602642 79.0828402366864, 14.752943258616494 79.88165680473374, 20.272302770263845 80.68047337278107, 15.062668510463325 81.4792899408284, 16.924467325417098 82.27810650887574, 18.686976394119387 83.07692307692308, 17.07577720737359 83.87573964497041, 18.132371645508265 84.67455621301775, 18.95574756999259 85.4733727810651, 16.736038940184375 86.27218934911244, 19.602124276560616 87.07100591715975, 17.870558484672642 87.8698224852071, 19.576100706267624 88.66863905325444, 17.157558295039543 89.46745562130178, 15.141069741593904 90.26627218934911, 22.331584752598356 91.06508875739645, 24.467525474536497 91.8639053254438, 23.202266109341068 92.66272189349112, 18.63472237169969 93.46153846153845, 18.601564745335843 94.2603550295858, 26.704491022017997 95.05917159763314, 20.726428849846354 95.85798816568047, 18.55670856134937 96.65680473372781, 15.140025092690756 97.45562130177515, 29.10793235647409 98.2544378698225, 19.349148764892124 99.05325443786982, 13.339595071791344 99.85207100591715, 19.01581658373673 100.6508875739645, 18.02458922071202 101.44970414201183, 15.579153429847157 102.24852071005917, 16.17496668440097 103.04733727810651, 17.93549316047455 103.84615384615385, 22.177299256247142 104.64497041420118, 19.207837095843832 105.44378698224853, 15.906615416488126 106.24260355029585, 20.617146149929333 107.0414201183432, 19.393719369619358 107.84023668639053, 17.84113845547715 108.63905325443787, 16.140975348261012 109.43786982248521, 16.570483317788266 110.23668639053254, 17.30068589888262 111.03550295857988, 22.118775614038906 111.83431952662723, 18.832805121658318 112.63313609467457, 17.51312107411326 113.43195266272188, 19.03819798311474 114.23076923076923, 17.60379949919684 115.02958579881657, 22.0939564920915 115.82840236686391, 27.311471415205162 116.62721893491124, 21.423662384642814 117.42603550295858, 12.83148895171614 118.22485207100593, 14.203642610130457 119.02366863905324, 15.907548418788977 119.82248520710058, 12.534933153310437 120.62130177514793, 11.024216071336566 121.42011834319527, 17.101095106212966 122.2189349112426, 14.104267563556473 123.01775147928994, 13.75495433269481 123.81656804733728, 12.977940539643642 124.61538461538463, 14.64723726543352 125.41420118343194, 18.67052037618709 126.21301775147928, 15.371661502703335 127.01183431952663, 3.8569944116169985 127.81065088757396, 16.40465405499319 128.60946745562129, 17.934995989342823 129.40828402366864, 3.082882892640009 130.20710059171597, 13.113192807306264 131.0059171597633, 24.15596690646174 131.80473372781066, 11.788828632943202 132.60355029585799, 20.17784296188704 133.40236686390534, 14.744912213506403 134.20118343195267, 21.814601480084843" fill="none" stroke="#32ca5b" stroke-width="1.25"/>

</svg>