<?xml version="1.0" standalone="no"?>
<!DOCTYPE svg PUBLIC "-//W3C//DTD SVG 1.1//EN" "http://www.w3.org/Graphics/SVG/1.1/DTD/svg11.dtd">

<svg width="135" height="50" viewBox="0 0 135 50" preserveAspectRatio="none" 
  xmlns="http://www.w3.org/2000/svg"
  xmlns:xlink="http://www.w3.org/1999/xlink">


<polyline points="0.0, 35.69017977832975 0.7988165680473372, 35.13388944024859 1.5976331360946745, 34.6208968423131 2.396449704142012, 30.671109875237118 3.195266272189349, 33.059962211694746 3.994082840236686, 32.07982371346403 4.792899408284024, 30.74653451765357 5.591715976331361, 31.780951380020433 6.390532544378698, 32.12439390571517 7.189349112426036, 31.826785953780647 7.988165680473372, 31.040725329726833 8.78698224852071, 28.821745069754247 9.585798816568047, 26.250138586690458 10.384615384615385, 30.212530923484326 11.183431952662723, 31.49921647902611 11.982248520710058, 37.05200234853218 12.781065088757396, 36.53771370729794 13.579881656804734, 37.758948866026664 14.378698224852071, 39.289459091032285 15.177514792899409, 35.24902932388847 15.976331360946745, 32.55504702031617 16.775147928994084, 31.490683890747732 17.57396449704142, 32.95133216753925 18.37278106508876, 31.16617891105874 19.171597633136095, 32.73151056818038 19.970414201183434, 31.913270581531616 20.76923076923077, 31.608643541895997 21.56804733727811, 31.927557796427593 22.366863905325445, 31.695961337515705 23.16568047337278, 32.73944992847911 23.964497041420117, 33.12194958245967 24.763313609467456, 33.9736739245419 25.562130177514792, 33.98846218470209 26.36094674556213, 34.264433565987275 27.159763313609467, 36.54028825349701 27.958579881656807, 34.83175339484045 28.757396449704142, 38.280159679618784 29.55621301775148, 31.8982044278379 30.355029585798817, 35.57052576702143 31.153846153846157, 38.138595955918504 31.95266272189349, 47.22249667551509 32.751479289940825, 43.00184107085076 33.55029585798817, 44.93380549542487 34.349112426035504, 49.94223916240685 35.14792899408284, 46.35201958758474 35.94674556213018, 50.0 36.74556213017752, 43.91998085617892 37.54437869822485, 42.69878973364729 38.34319526627219, 38.29984871690045 39.142011834319526, 39.45126672270797 39.94082840236687, 44.7972216997264 40.7396449704142, 45.58290436279327 41.53846153846154, 41.69011007067643 42.337278106508876, 43.781786320743606 43.13609467455622, 39.59613858270687 43.93491124260355, 37.933564093086225 44.73372781065089, 38.531681631588334 45.532544378698226, 38.29831808773886 46.33136094674556, 34.471140596163366 47.1301775147929, 35.53542258229072 47.928994082840234, 34.12337530733463 48.72781065088758, 35.53970383552241 49.52662721893491, 46.308399985111556 50.32544378698225, 48.111504540450824 51.124260355029584, 47.57032170264375 51.92307692307693, 45.45818123341828 52.72189349112426, 43.824514350143374 53.5207100591716, 44.80128375954702 54.319526627218934, 45.242198660540325 55.11834319526627, 41.93674434684689 55.91715976331361, 45.5651112509154 56.71597633136094, 46.309945978441064 57.514792899408285, 45.47004473788368 58.31360946745562, 43.00399297691963 59.11242603550296, 41.01900906111782 59.91124260355029, 41.45884387075599 60.710059171597635, 38.36779933819059 61.50887573964497, 39.05060561098578 62.307692307692314, 40.31434773397631 63.10650887573964, 37.58257222783944 63.90532544378698, 40.7740689751991 64.70414201183432, 40.16157427574907 65.50295857988165, 41.10271859201863 66.30177514792899, 38.6876115840105 67.10059171597634, 38.138208248355795 67.89940828402366, 41.220750509784374 68.69822485207101, 42.095034931536155 69.49704142011834, 42.24641041602417 70.29585798816568, 45.05661166652108 71.09467455621302, 42.239300480651906 71.89349112426036, 43.45245903974003 72.6923076923077, 43.909099051747894 73.49112426035504, 42.134122520646464 74.28994082840237, 44.54851508143264 75.0887573964497, 44.56772053104663 75.88757396449704, 45.96797297349827 76.68639053254438, 42.1722854255554 77.48520710059172, 43.9872162297773 78.28402366863905, 44.6062535332083 79.0828402366864, 43.68804898978551 79.88165680473374, 42.214966827767526 80.68047337278107, 40.71145993087335 81.4792899408284, 38.94747187706395 82.27810650887574, 39.74787981367857 83.07692307692308, 38.8801643046108 83.87573964497041, 36.44882501316412 84.67455621301775, 33.59897826370122 85.4733727810651, 26.300973622147733 86.27218934911244, 18.294668140386126 87.07100591715975, 8.10599615561184 87.8698224852071, 2.4444143876627815 88.66863905325444, 14.09246958291308 89.46745562130178, 12.478955893961588 90.26627218934911, 15.297085254199692 91.06508875739645, 14.64459706849421 91.8639053254438, 16.450059153912296 92.66272189349112, 13.69251989583933 93.46153846153845, 18.618280562651602 94.2603550295858, 15.718808317983202 95.05917159763314, 13.659195927832664 95.85798816568047, 19.787162489958344 96.65680473372781, 19.81943878251935 97.45562130177515, 19.929157646759368 98.2544378698225, 21.94461625153232 99.05325443786982, 21.721528767801573 99.85207100591715, 19.343958064262814 100.6508875739645, 19.13835946169694 101.44970414201183, 20.888708670106478 102.24852071005917, 6.219053358270089 103.04733727810651, 13.814488254787936 103.84615384615385, 3.8910397466911295 104.64497041420118, 4.626408368666195 105.44378698224853, 4.98039006675593 106.24260355029585, 9.106683975729538 107.0414201183432, 4.973012901286396 107.84023668639053, 4.260388338396645 108.63905325443787, 1.2822186606550723 109.43786982248521, 0.9436086638326507 110.23668639053254, 0.0 111.03550295857988, 5.121766949238136 111.83431952662723, 0.2865399726312189 112.63313609467457, 0.2638083246591208 113.43195266272188, 1.1307865656763063 114.23076923076923, 2.9015588526028835 115.02958579881657, 3.1952883669481844 115.82840236686391, 0.10802750435997477 116.62721893491124, 2.1482964383601906 117.42603550295858, 7.370492931051877 118.22485207100593, 17.582479390331873 119.02366863905324, 21.514072749079432 119.82248520710058, 22.33061689665278 120.62130177514793, 19.987452016713743 121.42011834319527, 27.20739385866387 122.2189349112426, 17.937401203208214 123.01775147928994, 23.086829195004544 123.81656804733728, 20.522337190441046 124.61538461538463, 10.248952353292822 125.41420118343194, 9.81261847279559 126.21301775147928, 18.23000450247014 127.01183431952663, 13.663765551395024 127.81065088757396, 11.809228165072248 128.60946745562129, 6.423251498617201 129.40828402366864, 1.591514956778629 130.20710059171597, 7.923847524287379 131.0059171597633, 2.8643560914314423 131.80473372781066, 8.69718959027333 132.60355029585799, 2.7480320330536974 133.40236686390534, 4.383054646351453 134.20118343195267, 0.7621752672361373" fill="none" stroke="#32ca5b" stroke-width="1.25"/>

</svg>