<?xml version="1.0" standalone="no"?>
<!DOCTYPE svg PUBLIC "-//W3C//DTD SVG 1.1//EN" "http://www.w3.org/Graphics/SVG/1.1/DTD/svg11.dtd">

<svg width="135" height="50" viewBox="0 0 135 50" preserveAspectRatio="none" 
  xmlns="http://www.w3.org/2000/svg"
  xmlns:xlink="http://www.w3.org/1999/xlink">


<polyline points="0.0, 49.28435707866733 0.7988165680473372, 49.2924500009705 1.5976331360946745, 49.48032473138665 2.396449704142012, 49.31952194428356 3.195266272189349, 49.31154755082814 3.994082840236686, 49.44801208376728 4.792899408284024, 48.32080288743773 5.591715976331361, 48.29382336828667 6.390532544378698, 48.43971808782828 7.189349112426036, 48.54429458220922 7.988165680473372, 48.68512829080418 8.78698224852071, 48.74747573396885 9.585798816568047, 48.41181349063804 10.384615384615385, 48.53598788505389 11.183431952662723, 48.73488105927525 11.982248520710058, 48.32406884247053 12.781065088757396, 49.79592169131692 13.579881656804734, 49.840274724943924 14.378698224852071, 49.906091707540995 15.177514792899409, 50.0 15.976331360946745, 49.76849754851039 16.775147928994084, 49.872375630680565 17.57396449704142, 49.87679076973649 18.37278106508876, 49.54602383141779 19.171597633136095, 49.40657850266198 19.970414201183434, 49.54951839596278 20.76923076923077, 49.51475603342053 21.56804733727811, 49.56499726553818 22.366863905325445, 49.89062573898047 23.16568047337278, 49.47548948478865 23.964497041420117, 46.074160615028106 24.763313609467456, 44.796041537121894 25.562130177514792, 47.90431295761361 26.36094674556213, 46.51771980555249 27.159763313609467, 46.811618173071494 27.958579881656807, 46.774172850037296 28.757396449704142, 48.46011559697628 29.55621301775148, 47.048242912707586 30.355029585798817, 47.14416121513471 31.153846153846157, 47.063336695792266 31.95266272189349, 48.596923884086394 32.751479289940825, 48.59306982871775 33.55029585798817, 48.64073963699451 34.349112426035504, 48.49248750636763 35.14792899408284, 48.61135474125648 35.94674556213018, 48.41502322545621 36.74556213017752, 48.42001288186708 37.54437869822485, 47.780750025275836 38.34319526627219, 48.06338959441782 39.142011834319526, 48.045945638114205 39.94082840236687, 48.165597842699945 40.7396449704142, 47.130192691054866 41.53846153846154, 47.17537842378089 42.337278106508876, 47.30117442287057 43.13609467455622, 47.688414082869755 43.93491124260355, 47.52696205888447 44.73372781065089, 48.45775969553131 45.532544378698226, 47.76499100918477 46.33136094674556, 44.464501927183015 47.1301775147929, 43.69553542677521 47.928994082840234, 26.27011954826088 48.72781065088758, 19.233316388898373 49.52662721893491, 29.374315245796577 50.32544378698225, 18.915600917716784 51.124260355029584, 27.503411281633333 51.92307692307693, 29.82067988068215 52.72189349112426, 24.914710449667133 53.5207100591716, 28.673207981415636 54.319526627218934, 28.686870481500335 55.11834319526627, 29.648250291538485 55.91715976331361, 25.745073140877185 56.71597633136094, 7.123755087142572 57.514792899408285, 0.0 58.31360946745562, 33.72548936814991 59.11242603550296, 29.972885799987054 59.91124260355029, 35.58636931999142 60.710059171597635, 37.35366156423722 61.50887573964497, 37.47501342193754 62.307692307692314, 48.20737075178426 63.10650887573964, 38.027809667861106 63.90532544378698, 42.09205896124242 64.70414201183432, 43.8548692599243 65.50295857988165, 43.162175570661745 66.30177514792899, 41.10381125935623 67.10059171597634, 37.87855799836114 67.89940828402366, 33.2206244746102 68.69822485207101, 39.928626660668 69.49704142011834, 39.99709704811373 70.29585798816568, 37.94219938602719 71.09467455621302, 38.25625189959387 71.89349112426036, 38.43548233461793 72.6923076923077, 41.02803107964828 73.49112426035504, 40.97714395453439 74.28994082840237, 41.02097551118071 75.0887573964497, 40.95825285894614 75.88757396449704, 40.94772896906008 76.68639053254438, 31.462235424924152 77.48520710059172, 36.78267266031645 78.28402366863905, 39.433008056330024 79.0828402366864, 38.63746312750385 79.88165680473374, 39.0353758177219 80.68047337278107, 39.314923045247205 81.4792899408284, 45.50272149072393 82.27810650887574, 40.04650618389141 83.07692307692308, 44.50657131768047 83.87573964497041, 41.7598965136658 84.67455621301775, 42.16308652698895 85.4733727810651, 43.59776301417553 86.27218934911244, 42.83377545664149 87.07100591715975, 42.87122449392627 87.8698224852071, 45.784917212471825 88.66863905325444, 45.29402343553681 89.46745562130178, 45.68376544578303 90.26627218934911, 44.92368601928526 91.06508875739645, 44.948336918906065 91.8639053254438, 45.29134940447897 92.66272189349112, 45.966012654347296 93.46153846153845, 46.3002199246223 94.2603550295858, 47.78206390107342 95.05917159763314, 43.389162244317916 95.85798816568047, 47.7178682397422 96.65680473372781, 46.592944795350746 97.45562130177515, 42.45736307566103 98.2544378698225, 42.676670393937876 99.05325443786982, 45.84014287021688 99.85207100591715, 46.07970055922484 100.6508875739645, 45.844728901332175 101.44970414201183, 42.486741830585146 102.24852071005917, 45.15470777035092 103.04733727810651, 44.994617124429816 103.84615384615385, 45.82190360138444 104.64497041420118, 45.88094012035725 105.44378698224853, 46.7224961742776 106.24260355029585, 42.73117721661292 107.0414201183432, 42.668352727431994 107.84023668639053, 45.0913343990221 108.63905325443787, 45.24217587735929 109.43786982248521, 45.21950755116007 110.23668639053254, 45.23106952536723 111.03550295857988, 44.924027586190284 111.83431952662723, 46.302409522425656 112.63313609467457, 44.192097365716364 113.43195266272188, 44.250974195754715 114.23076923076923, 44.352356172883596 115.02958579881657, 44.492398193308595 115.82840236686391, 45.72227492321451 116.62721893491124, 44.91604717183396 117.42603550295858, 45.52588850097947 118.22485207100593, 44.77150716366114 119.02366863905324, 45.562314597791435 119.82248520710058, 46.00313844690098 120.62130177514793, 46.086518481387564 121.42011834319527, 45.68866197591639 122.2189349112426, 46.06254732564237 123.01775147928994, 46.12231379368167 123.81656804733728, 45.98126089263502 124.61538461538463, 45.970236515498094 125.41420118343194, 45.541710000862054 126.21301775147928, 45.556082878161334 127.01183431952663, 45.23101588237795 127.81065088757396, 45.05714306242663 128.60946745562129, 44.95016137307499 129.40828402366864, 44.994700956528185 130.20710059171597, 45.205546881334605 131.0059171597633, 45.17396044632152 131.80473372781066, 45.26794348274892 132.60355029585799, 45.33654119736229 133.40236686390534, 45.464858809732725 134.20118343195267, 45.44557609779301" fill="none" stroke="#32ca5b" stroke-width="1.25"/>

</svg>