<?xml version="1.0" standalone="no"?>
<!DOCTYPE svg PUBLIC "-//W3C//DTD SVG 1.1//EN" "http://www.w3.org/Graphics/SVG/1.1/DTD/svg11.dtd">

<svg width="135" height="50" viewBox="0 0 135 50" preserveAspectRatio="none" 
  xmlns="http://www.w3.org/2000/svg"
  xmlns:xlink="http://www.w3.org/1999/xlink">


<polyline points="0.0, 13.049869315022896 0.7988165680473372, 17.6956816714696 1.5976331360946745, 17.417876224352316 2.396449704142012, 12.555351730408947 3.195266272189349, 6.25118600673981 3.994082840236686, 5.481468458746022 4.792899408284024, 7.470082166908493 5.591715976331361, 6.379918727770033 6.390532544378698, 7.403569483241331 7.189349112426036, 11.560065413886836 7.988165680473372, 13.890780327428637 8.78698224852071, 5.168462119512681 9.585798816568047, 2.415685232599638 10.384615384615385, 4.5759364137507585 11.183431952662723, 0.0 11.982248520710058, 11.149724267663185 12.781065088757396, 23.011720316604755 13.579881656804734, 28.821523464593866 14.378698224852071, 24.952706313751534 15.177514792899409, 22.16208662466786 15.976331360946745, 16.041241042198408 16.775147928994084, 13.75122068200762 17.57396449704142, 11.913252599076037 18.37278106508876, 11.231935828180484 19.171597633136095, 12.766616501903922 19.970414201183434, 18.982123771375072 20.76923076923077, 19.731981468428554 21.56804733727811, 19.898591104180348 22.366863905325445, 17.579658100605545 23.16568047337278, 22.216064257944236 23.964497041420117, 24.990093915319918 24.763313609467456, 28.719843830661706 25.562130177514792, 32.192657622437856 26.36094674556213, 29.643225348264107 27.159763313609467, 42.23304635061741 27.958579881656807, 39.399850232448514 28.757396449704142, 42.43157446197499 29.55621301775148, 37.892877546848084 30.355029585798817, 38.616806123854865 31.153846153846157, 42.801884903678925 31.95266272189349, 39.904702439927256 32.751479289940825, 37.06251719592367 33.55029585798817, 39.898082529651994 34.349112426035504, 42.02504934110417 35.14792899408284, 38.29415140678827 35.94674556213018, 39.14130902559192 36.74556213017752, 32.898676923839574 37.54437869822485, 31.354054310005093 38.34319526627219, 29.00707301203857 39.142011834319526, 33.82630490263066 39.94082840236687, 40.964708176374145 40.7396449704142, 38.347496684579845 41.53846153846154, 37.0092111242261 42.337278106508876, 39.40562077696271 43.13609467455622, 38.72840472413775 43.93491124260355, 35.9337428835947 44.73372781065089, 33.04024388597553 45.532544378698226, 32.34181588309903 46.33136094674556, 28.801039440836906 47.1301775147929, 32.9918273956559 47.928994082840234, 33.87675079042962 48.72781065088758, 35.36773458184071 49.52662721893491, 41.76965015718396 50.32544378698225, 37.072091813012975 51.124260355029584, 35.819008748135865 51.92307692307693, 39.30420331618487 52.72189349112426, 36.98938080339637 53.5207100591716, 30.047045092520147 54.319526627218934, 31.570006654283805 55.11834319526627, 27.534044908563533 55.91715976331361, 33.52486232862054 56.71597633136094, 36.35782185612745 57.514792899408285, 38.98091040745828 58.31360946745562, 36.340815039113636 59.11242603550296, 40.45888010803496 59.91124260355029, 42.72306835663681 60.710059171597635, 43.17138567952675 61.50887573964497, 41.58303186103981 62.307692307692314, 41.366310713730456 63.10650887573964, 39.98428398987061 63.90532544378698, 44.4269041645656 64.70414201183432, 48.954866270999936 65.50295857988165, 47.16178735105019 66.30177514792899, 45.46269652870888 67.10059171597634, 44.901233721457814 67.89940828402366, 46.71560271729081 68.69822485207101, 46.367706312142616 69.49704142011834, 44.48462688377648 70.29585798816568, 49.91651181178746 71.09467455621302, 50.0 71.89349112426036, 46.20232532605329 72.6923076923077, 44.79868930811648 73.49112426035504, 42.99573118243977 74.28994082840237, 39.74627236297553 75.0887573964497, 41.753854913593244 75.88757396449704, 47.750478936436764 76.68639053254438, 47.888932942937736 77.48520710059172, 44.81854436287992 78.28402366863905, 49.68073438344039 79.0828402366864, 47.547853894625646 79.88165680473374, 44.514798435864336 80.68047337278107, 41.74276121109047 81.4792899408284, 40.717496027530956 82.27810650887574, 39.31265509837555 83.07692307692308, 37.94207021688918 83.87573964497041, 39.84060605360279 84.67455621301775, 35.3369973576346 85.4733727810651, 33.92721778847251 86.27218934911244, 32.83317249078727 87.07100591715975, 35.128795108852 87.8698224852071, 34.59940798123948 88.66863905325444, 36.28832599263811 89.46745562130178, 36.59821278413359 90.26627218934911, 34.73040579872163 91.06508875739645, 30.78376214813322 91.8639053254438, 32.59403318782898 92.66272189349112, 33.328835950133524 93.46153846153845, 34.673352186783674 94.2603550295858, 34.15853609898974 95.05917159763314, 33.80130456923377 95.85798816568047, 34.66383501264121 96.65680473372781, 35.61860853259605 97.45562130177515, 33.060420077938204 98.2544378698225, 35.01228040686827 99.05325443786982, 34.341229210480456 99.85207100591715, 34.078982902329194 100.6508875739645, 32.6633635357111 101.44970414201183, 33.0543594148771 102.24852071005917, 32.61899483842996 103.04733727810651, 33.141408831699025 103.84615384615385, 32.45619299898609 104.64497041420118, 33.94900971425322 105.44378698224853, 34.91286153193077 106.24260355029585, 34.9191451568555 107.0414201183432, 35.82652476139131 107.84023668639053, 33.372787253010486 108.63905325443787, 36.60928959859072 109.43786982248521, 37.14189429265161 110.23668639053254, 35.10148638404349 111.03550295857988, 35.94470273114453 111.83431952662723, 33.80748050528606 112.63313609467457, 35.2380026563088 113.43195266272188, 35.26864559933925 114.23076923076923, 35.62177697430398 115.02958579881657, 37.65776948138481 115.82840236686391, 37.8473519927008 116.62721893491124, 39.54383415215047 117.42603550295858, 40.77865753629288 118.22485207100593, 39.0527203531177 119.02366863905324, 41.09139628118368 119.82248520710058, 40.71918125933734 120.62130177514793, 41.308285814772155 121.42011834319527, 44.22925784321222 122.2189349112426, 41.85982728540958 123.01775147928994, 49.12598537947717 123.81656804733728, 47.19569524850085 124.61538461538463, 49.83312911003955 125.41420118343194, 49.77466850795692 126.21301775147928, 49.24441942644858 127.01183431952663, 43.909888590807746 127.81065088757396, 38.028313646757965 128.60946745562129, 34.919750957216415 129.40828402366864, 29.449009046971224 130.20710059171597, 33.50975735826302 131.0059171597633, 28.16358078336283 131.80473372781066, 27.78345318507992 132.60355029585799, 26.92386199982734 133.40236686390534, 28.40759602133232 134.20118343195267, 27.048584232623284" fill="none" stroke="#ff3a33" stroke-width="1.25"/>

</svg>