<?xml version="1.0" standalone="no"?>
<!DOCTYPE svg PUBLIC "-//W3C//DTD SVG 1.1//EN" "http://www.w3.org/Graphics/SVG/1.1/DTD/svg11.dtd">

<svg width="135" height="50" viewBox="0 0 135 50" preserveAspectRatio="none" 
  xmlns="http://www.w3.org/2000/svg"
  xmlns:xlink="http://www.w3.org/1999/xlink">


<polyline points="0.0, 15.227618072564447 0.7988165680473372, 19.251555381030208 1.5976331360946745, 20.185198168562266 2.396449704142012, 10.458632460649184 3.195266272189349, 18.090330790300538 3.994082840236686, 23.125521957672053 4.792899408284024, 21.05607766698114 5.591715976331361, 18.841666923164997 6.390532544378698, 21.107230220240925 7.189349112426036, 19.360449684883516 7.988165680473372, 18.56658710039942 8.78698224852071, 24.043721489188062 9.585798816568047, 24.92185436077026 10.384615384615385, 24.778437640937458 11.183431952662723, 29.567833695874217 11.982248520710058, 25.9794405533952 12.781065088757396, 26.06853084571571 13.579881656804734, 27.598371513230475 14.378698224852071, 23.609786124958923 15.177514792899409, 24.250388174696678 15.976331360946745, 28.77575015774279 16.775147928994084, 28.62036400693549 17.57396449704142, 24.133520781239906 18.37278106508876, 27.4912550619056 19.171597633136095, 27.191611674806737 19.970414201183434, 28.183568294875506 20.76923076923077, 29.505280338583074 21.56804733727811, 21.195116639268722 22.366863905325445, 20.720118879094343 23.16568047337278, 27.708317392319664 23.964497041420117, 27.431595461834057 24.763313609467456, 26.891877591470003 25.562130177514792, 27.780817922455114 26.36094674556213, 31.30198573385355 27.159763313609467, 28.749496848436486 27.958579881656807, 25.98594138296627 28.757396449704142, 25.25722499268863 29.55621301775148, 25.31721413262476 30.355029585798817, 25.96358342646224 31.153846153846157, 12.074978270109142 31.95266272189349, 20.872172940741144 32.751479289940825, 25.149243744470372 33.55029585798817, 23.35860327617676 34.349112426035504, 29.421881723596787 35.14792899408284, 28.19545140949065 35.94674556213018, 29.825567607592035 36.74556213017752, 26.91351440922542 37.54437869822485, 18.836238724814518 38.34319526627219, 20.50719938267015 39.142011834319526, 19.185642857719724 39.94082840236687, 19.239398703393643 40.7396449704142, 23.218843864830525 41.53846153846154, 21.249381035432894 42.337278106508876, 21.1231379666463 43.13609467455622, 22.027488213976977 43.93491124260355, 23.630555523605434 44.73372781065089, 34.14991273322156 45.532544378698226, 32.73020066192059 46.33136094674556, 31.858826196427874 47.1301775147929, 30.575538135477554 47.928994082840234, 31.94965999150553 48.72781065088758, 30.628320772945727 49.52662721893491, 29.08674834108473 50.32544378698225, 26.55194945947663 51.124260355029584, 32.02058178230951 51.92307692307693, 31.44644834063855 52.72189349112426, 27.267835307202642 53.5207100591716, 37.45265851946527 54.319526627218934, 33.41774021467619 55.11834319526627, 32.872813881292664 55.91715976331361, 40.2108097214488 56.71597633136094, 38.450147962185454 57.514792899408285, 38.783553874621795 58.31360946745562, 38.55315842641882 59.11242603550296, 35.79160051210472 59.91124260355029, 35.51936011510246 60.710059171597635, 34.04964795519277 61.50887573964497, 34.63462104891795 62.307692307692314, 33.502400703490395 63.10650887573964, 31.577622623291425 63.90532544378698, 32.07008924309015 64.70414201183432, 35.22155392738646 65.50295857988165, 40.16580205934541 66.30177514792899, 21.835093928055034 67.10059171597634, 20.689898817439865 67.89940828402366, 19.0699529552099 68.69822485207101, 19.2230611441557 69.49704142011834, 20.638471347421504 70.29585798816568, 24.816035074520553 71.09467455621302, 28.053618168662563 71.89349112426036, 26.66081931187102 72.6923076923077, 25.555124643613475 73.49112426035504, 28.74626773976728 74.28994082840237, 26.9461790531423 75.0887573964497, 26.221161771514335 75.88757396449704, 33.662476437046635 76.68639053254438, 33.723632291656486 77.48520710059172, 25.68790847071011 78.28402366863905, 29.382966396965298 79.0828402366864, 28.102053256914044 79.88165680473374, 29.789521063084283 80.68047337278107, 34.68023379217649 81.4792899408284, 27.91566216787266 82.27810650887574, 26.224232835468985 83.07692307692308, 25.63462611610745 83.87573964497041, 27.33339383585672 84.67455621301775, 25.390384592825967 85.4733727810651, 27.6861154315424 86.27218934911244, 28.814605355111762 87.07100591715975, 32.41202543962368 87.8698224852071, 31.780689454863825 88.66863905325444, 28.537845909746785 89.46745562130178, 30.409866952172514 90.26627218934911, 32.339222066023524 91.06508875739645, 29.451809052601412 91.8639053254438, 25.97927652992392 92.66272189349112, 25.791328859212705 93.46153846153845, 23.977101573291577 94.2603550295858, 25.319414248318427 95.05917159763314, 32.80897877868356 95.85798816568047, 34.16275508529655 96.65680473372781, 15.940195338542216 97.45562130177515, 15.632182240427309 98.2544378698225, 7.89000069316986 99.05325443786982, 15.857369943921604 99.85207100591715, 31.167623039340985 100.6508875739645, 32.25397081322699 101.44970414201183, 32.65251363227839 102.24852071005917, 29.309727546962748 103.04733727810651, 28.280709377888375 103.84615384615385, 30.219764777562446 104.64497041420118, 28.31186711656068 105.44378698224853, 23.427216967260524 106.24260355029585, 23.084719292660544 107.0414201183432, 23.57792765787798 107.84023668639053, 22.98576351575039 108.63905325443787, 29.013901985215103 109.43786982248521, 26.431460374354714 110.23668639053254, 28.1055901400087 111.03550295857988, 19.57828646609925 111.83431952662723, 22.884838630210737 112.63313609467457, 20.619286820195857 113.43195266272188, 22.62965612304752 114.23076923076923, 50.0 115.02958579881657, 48.86777187482148 115.82840236686391, 27.403875208668705 116.62721893491124, 34.23785670367067 117.42603550295858, 33.6781674792144 118.22485207100593, 34.033739972860594 119.02366863905324, 25.839069852017438 119.82248520710058, 21.34694646606492 120.62130177514793, 23.946566681613792 121.42011834319527, 22.61586848202101 122.2189349112426, 20.414880885650195 123.01775147928994, 20.930297417170127 123.81656804733728, 21.032162532421033 124.61538461538463, 25.919876499377292 125.41420118343194, 25.14593762078759 126.21301775147928, 23.694711851251274 127.01183431952663, 25.88218077661284 127.81065088757396, 18.037805724830314 128.60946745562129, 18.064787520391356 129.40828402366864, 14.66266492560625 130.20710059171597, 14.490714807217344 131.0059171597633, 11.441078299403875 131.80473372781066, 12.734208136591963 132.60355029585799, 16.014124015565052 133.40236686390534, 10.73912771779859 134.20118343195267, 0.0" fill="none" stroke="#32ca5b" stroke-width="1.25"/>

</svg>