<?xml version="1.0" standalone="no"?>
<!DOCTYPE svg PUBLIC "-//W3C//DTD SVG 1.1//EN" "http://www.w3.org/Graphics/SVG/1.1/DTD/svg11.dtd">

<svg width="135" height="50" viewBox="0 0 135 50" preserveAspectRatio="none" 
  xmlns="http://www.w3.org/2000/svg"
  xmlns:xlink="http://www.w3.org/1999/xlink">


<polyline points="0.0, 4.7537150042874385 0.7988165680473372, 5.6143066438269384 1.5976331360946745, 0.0 2.396449704142012, 7.060455148300029 3.195266272189349, 11.019279675727159 3.994082840236686, 6.777984228357979 4.792899408284024, 6.881112458559081 5.591715976331361, 8.110307794033844 6.390532544378698, 11.960524622334272 7.189349112426036, 17.945350556972244 7.988165680473372, 7.373494495225167 8.78698224852071, 8.427226905512926 9.585798816568047, 16.560383284002548 10.384615384615385, 13.243990054900307 11.183431952662723, 26.42054190909796 11.982248520710058, 38.512441861758305 12.781065088757396, 44.07782119028657 13.579881656804734, 41.382908449422246 14.378698224852071, 37.2623004477596 15.177514792899409, 29.78569512212988 15.976331360946745, 27.4691695084227 16.775147928994084, 28.109106947693896 17.57396449704142, 21.98209564433089 18.37278106508876, 17.844298364221842 19.171597633136095, 14.309862768587372 19.970414201183434, 16.33045997188389 20.76923076923077, 21.282633247825025 21.56804733727811, 15.402948407604141 22.366863905325445, 19.826856550300008 23.16568047337278, 24.595086245046563 23.964497041420117, 31.712128854137 24.763313609467456, 37.48693508571401 25.562130177514792, 34.8412015090248 26.36094674556213, 46.93813892491664 27.159763313609467, 43.63559809595666 27.958579881656807, 43.93613395049932 28.757396449704142, 38.546591339757875 29.55621301775148, 41.345453131256264 30.355029585798817, 48.39148676749679 31.153846153846157, 44.92893948152885 31.95266272189349, 41.01898482276604 32.751479289940825, 48.58714008629482 33.55029585798817, 50.0 34.349112426035504, 47.644406594308876 35.14792899408284, 46.71328405177354 35.94674556213018, 38.52827460988597 36.74556213017752, 36.24864314395864 37.54437869822485, 35.01622018460855 38.34319526627219, 38.47987951045986 39.142011834319526, 40.88833273215425 39.94082840236687, 41.69726446748212 40.7396449704142, 39.540206598748576 41.53846153846154, 40.69742544177408 42.337278106508876, 38.53572340010072 43.13609467455622, 32.13451869612515 43.93491124260355, 31.297353169665882 44.73372781065089, 31.381347639155504 45.532544378698226, 29.991733096197848 46.33136094674556, 32.72681310062403 47.1301775147929, 32.885012795079575 47.928994082840234, 36.5997216943019 48.72781065088758, 39.482398897327805 49.52662721893491, 35.99316904609597 50.32544378698225, 34.213415467616464 51.124260355029584, 36.88576745264899 51.92307692307693, 33.885710402592714 52.72189349112426, 32.53256988977856 53.5207100591716, 34.81488444098971 54.319526627218934, 30.447680986329324 55.11834319526627, 37.06581469980058 55.91715976331361, 39.655409073605355 56.71597633136094, 42.06809297842538 57.514792899408285, 36.836474004996504 58.31360946745562, 38.872734064122795 59.11242603550296, 43.55214643270448 59.91124260355029, 43.941271745868384 60.710059171597635, 41.40635448049254 61.50887573964497, 38.20519313537522 62.307692307692314, 36.86414382359168 63.10650887573964, 37.60854779841377 63.90532544378698, 39.03600437285599 64.70414201183432, 39.22154748515167 65.50295857988165, 35.85059205346338 66.30177514792899, 34.39075664273051 67.10059171597634, 38.22006826472551 67.89940828402366, 33.23761804965811 68.69822485207101, 28.709745112675673 69.49704142011834, 36.588782166521916 70.29585798816568, 35.942758307928656 71.09467455621302, 33.48706402693352 71.89349112426036, 34.96646409183792 72.6923076923077, 33.25845031861444 73.49112426035504, 33.18806600746581 74.28994082840237, 36.56947541034962 75.0887573964497, 40.60185161730209 75.88757396449704, 39.59613166207757 76.68639053254438, 36.51790841674431 77.48520710059172, 45.02871926880672 78.28402366863905, 41.19118416284217 79.0828402366864, 37.776301120853276 79.88165680473374, 35.80960064306065 80.68047337278107, 33.356266698108094 81.4792899408284, 36.63688008064394 82.27810650887574, 31.893383388993147 83.07692307692308, 30.044562006659874 83.87573964497041, 28.17196865385968 84.67455621301775, 18.904014248435036 85.4733727810651, 16.835343807319834 86.27218934911244, 18.817575540876977 87.07100591715975, 13.993592944698891 87.8698224852071, 14.697496181678597 88.66863905325444, 19.131249737787677 89.46745562130178, 17.697267130569912 90.26627218934911, 18.224625393163148 91.06508875739645, 20.384084796535944 91.8639053254438, 20.611189861883055 92.66272189349112, 20.727934509466543 93.46153846153845, 20.79419175474865 94.2603550295858, 22.719931397589978 95.05917159763314, 23.054607377716604 95.85798816568047, 23.333564422474325 96.65680473372781, 20.121185072412345 97.45562130177515, 21.473684498264923 98.2544378698225, 23.05519269188411 99.05325443786982, 24.54933714591364 99.85207100591715, 26.011203354849393 100.6508875739645, 24.439816186122147 101.44970414201183, 26.548025377283164 102.24852071005917, 27.99433941073936 103.04733727810651, 26.224220619152856 103.84615384615385, 28.45194152424993 104.64497041420118, 25.070096419553188 105.44378698224853, 21.297559779482775 106.24260355029585, 25.230037142543953 107.0414201183432, 23.010159877341138 107.84023668639053, 22.50329997641222 108.63905325443787, 22.074809268747124 109.43786982248521, 21.721878004866575 110.23668639053254, 22.227643430170932 111.03550295857988, 21.3734617514368 111.83431952662723, 21.05863681134553 112.63313609467457, 21.638557032420465 113.43195266272188, 22.631193957915364 114.23076923076923, 21.642946587523376 115.02958579881657, 20.367893124217943 115.82840236686391, 22.23410753274347 116.62721893491124, 21.438508592574454 117.42603550295858, 19.747360502958017 118.22485207100593, 20.78400601255506 119.02366863905324, 20.685882169445538 119.82248520710058, 14.165725493480469 120.62130177514793, 16.31348442792567 121.42011834319527, 18.74775018208921 122.2189349112426, 27.627163180014463 123.01775147928994, 24.059167328794803 123.81656804733728, 26.817021773928097 124.61538461538463, 27.81855686640609 125.41420118343194, 26.242064360062866 126.21301775147928, 21.335020659141772 127.01183431952663, 16.40988357358125 127.81065088757396, 11.067717485892038 128.60946745562129, 7.258791395251903 129.40828402366864, 9.805004088879917 130.20710059171597, 8.312025430744384 131.0059171597633, 10.224057786749617 131.80473372781066, 7.1495410460445 132.60355029585799, 6.3850032470534055 133.40236686390534, 7.091870340153997 134.20118343195267, 5.425062284474716" fill="none" stroke="#ff3a33" stroke-width="1.25"/>

</svg>