<?xml version="1.0" standalone="no"?>
<!DOCTYPE svg PUBLIC "-//W3C//DTD SVG 1.1//EN" "http://www.w3.org/Graphics/SVG/1.1/DTD/svg11.dtd">

<svg width="135" height="50" viewBox="0 0 135 50" preserveAspectRatio="none" 
  xmlns="http://www.w3.org/2000/svg"
  xmlns:xlink="http://www.w3.org/1999/xlink">


<polyline points="0.0, 25.852855408899504 0.7988165680473372, 27.671077524921785 1.5976331360946745, 25.579013834460163 2.396449704142012, 28.255918899931213 3.195266272189349, 26.073357529114865 3.994082840236686, 24.53780662881497 4.792899408284024, 24.046306861924418 5.591715976331361, 25.01707505688356 6.390532544378698, 26.288924243922086 7.189349112426036, 29.262516586048797 7.988165680473372, 25.40214426079639 8.78698224852071, 24.64857118442423 9.585798816568047, 28.409910383095117 10.384615384615385, 23.181552869899253 11.183431952662723, 33.86808423991731 11.982248520710058, 38.36346149309341 12.781065088757396, 42.609722422927135 13.579881656804734, 40.368552420009166 14.378698224852071, 40.281024784439666 15.177514792899409, 35.496766754406025 15.976331360946745, 34.94550977099666 16.775147928994084, 34.47126835085717 17.57396449704142, 32.117090682985335 18.37278106508876, 31.919169053570055 19.171597633136095, 33.242000517289775 19.970414201183434, 34.56679785396556 20.76923076923077, 35.012769354716504 21.56804733727811, 35.97175667717741 22.366863905325445, 36.97669338757498 23.16568047337278, 37.78577870121803 23.964497041420117, 40.64175258608343 24.763313609467456, 41.78619056090259 25.562130177514792, 41.85191991170708 26.36094674556213, 46.50751172093441 27.159763313609467, 44.54059906146636 27.958579881656807, 45.334137409095945 28.757396449704142, 43.61856082191456 29.55621301775148, 44.482038381064385 30.355029585798817, 48.60782581554173 31.153846153846157, 46.35637398047011 31.95266272189349, 44.1349003830391 32.751479289940825, 49.16650798390432 33.55029585798817, 50.0 34.349112426035504, 46.92059007625299 35.14792899408284, 48.03615290211003 35.94674556213018, 43.88085887578173 36.74556213017752, 43.11708865876234 37.54437869822485, 38.99160792002158 38.34319526627219, 42.05093638130346 39.142011834319526, 44.40814436306236 39.94082840236687, 43.5823009777453 40.7396449704142, 42.317290745001365 41.53846153846154, 42.64600549972001 42.337278106508876, 41.87438523964458 43.13609467455622, 38.797420790437414 43.93491124260355, 35.7047881437162 44.73372781065089, 33.734008427724746 45.532544378698226, 32.79159702848226 46.33136094674556, 35.8436715838522 47.1301775147929, 35.610055583788586 47.928994082840234, 37.11116477445817 48.72781065088758, 41.25779041912249 49.52662721893491, 37.953257320740754 50.32544378698225, 36.545817696831 51.124260355029584, 39.275476919446525 51.92307692307693, 36.924853334470455 52.72189349112426, 35.21751597913469 53.5207100591716, 35.78154220081255 54.319526627218934, 32.836397820080556 55.11834319526627, 36.65393355493397 55.91715976331361, 36.43236255008194 56.71597633136094, 38.54432606036886 57.514792899408285, 37.00886684874282 58.31360946745562, 39.27338237967172 59.11242603550296, 41.95876305392229 59.91124260355029, 42.79222888989225 60.710059171597635, 42.44994074401933 61.50887573964497, 42.310668215755236 62.307692307692314, 39.218975096431045 63.10650887573964, 42.39262423533747 63.90532544378698, 45.29622545966789 64.70414201183432, 45.15307573104694 65.50295857988165, 43.675046834880526 66.30177514792899, 43.31361759974479 67.10059171597634, 45.951525638068624 67.89940828402366, 44.791337602436904 68.69822485207101, 24.58986804456005 69.49704142011834, 17.273864439623278 70.29585798816568, 28.15105011513162 71.09467455621302, 26.122702762781696 71.89349112426036, 27.222811714070343 72.6923076923077, 25.186327131710822 73.49112426035504, 25.285406071765422 74.28994082840237, 26.68061767606984 75.0887573964497, 30.5082236117043 75.88757396449704, 29.21849636744353 76.68639053254438, 21.099568548502305 77.48520710059172, 25.806724330441533 78.28402366863905, 24.596442040632922 79.0828402366864, 18.263783092056567 79.88165680473374, 15.327936656632572 80.68047337278107, 13.000874739972993 81.4792899408284, 12.517073958582017 82.27810650887574, 1.9830804013954941 83.07692307692308, 6.199292446286902 83.87573964497041, 0.0 84.67455621301775, 1.370793699256148 85.4733727810651, 5.751410033534676 86.27218934911244, 11.300146671499851 87.07100591715975, 11.370315632246406 87.8698224852071, 17.379954852908966 88.66863905325444, 19.217516701976713 89.46745562130178, 18.791529225620412 90.26627218934911, 13.341931557545768 91.06508875739645, 13.310579557625326 91.8639053254438, 14.429388300854162 92.66272189349112, 12.510026788163966 93.46153846153845, 11.820665440001113 94.2603550295858, 11.486948054408558 95.05917159763314, 6.449449236090124 95.85798816568047, 10.818052463760196 96.65680473372781, 10.75374562363081 97.45562130177515, 16.427453137635435 98.2544378698225, 16.336524614365576 99.05325443786982, 17.216553693356303 99.85207100591715, 14.092477871180566 100.6508875739645, 13.556494099108217 101.44970414201183, 12.62131080672216 102.24852071005917, 13.99995160351545 103.04733727810651, 14.08250229489149 103.84615384615385, 15.564531025280107 104.64497041420118, 13.448328805538381 105.44378698224853, 13.64692816399143 106.24260355029585, 16.88348781651869 107.0414201183432, 14.610315560910514 107.84023668639053, 17.45337104687684 108.63905325443787, 18.150606011828387 109.43786982248521, 13.10407410524548 110.23668639053254, 12.723619387497068 111.03550295857988, 11.592286694327811 111.83431952662723, 12.238814151276568 112.63313609467457, 12.29537656063268 113.43195266272188, 12.608057350560289 114.23076923076923, 9.986579487387838 115.02958579881657, 8.410931844431584 115.82840236686391, 8.73324731708715 116.62721893491124, 7.8835536014863195 117.42603550295858, 3.007338740683861 118.22485207100593, 3.9169188044522576 119.02366863905324, 5.366457701901494 119.82248520710058, 6.260487379461359 120.62130177514793, 10.582661759369387 121.42011834319527, 12.071503463919314 122.2189349112426, 16.55877490463398 123.01775147928994, 11.306458754302373 123.81656804733728, 12.868083059628946 124.61538461538463, 10.813115471759813 125.41420118343194, 5.7327031930875885 126.21301775147928, 3.799238730147752 127.01183431952663, 0.32774256538598756 127.81065088757396, 0.8021157299745941 128.60946745562129, 4.226281094818499 129.40828402366864, 2.275335228052876 130.20710059171597, 1.3484597463727064 131.0059171597633, 0.5789930639371264 131.80473372781066, 1.3813690072996543 132.60355029585799, 1.337636909008825 133.40236686390534, 1.3159048447776867 134.20118343195267, 0.48751472396098716" fill="none" stroke="#32ca5b" stroke-width="1.25"/>

</svg>