<?xml version="1.0" standalone="no"?>
<!DOCTYPE svg PUBLIC "-//W3C//DTD SVG 1.1//EN" "http://www.w3.org/Graphics/SVG/1.1/DTD/svg11.dtd">

<svg width="135" height="50" viewBox="0 0 135 50" preserveAspectRatio="none" 
  xmlns="http://www.w3.org/2000/svg"
  xmlns:xlink="http://www.w3.org/1999/xlink">


<polyline points="0.0, 40.068916594805906 0.7988165680473372, 41.317909361483466 1.5976331360946745, 43.962913443044656 2.396449704142012, 42.6074200274923 3.195266272189349, 46.538187822447725 3.994082840236686, 43.045538133818866 4.792899408284024, 42.86722926742211 5.591715976331361, 42.28080739953863 6.390532544378698, 45.82316346449401 7.189349112426036, 41.011883900141555 7.988165680473372, 48.66138874218544 8.78698224852071, 43.7917258908624 9.585798816568047, 43.78631120577873 10.384615384615385, 42.93459975895959 11.183431952662723, 33.27875761236781 11.982248520710058, 38.95479862081459 12.781065088757396, 43.82054447551756 13.579881656804734, 47.655381288522044 14.378698224852071, 45.91135244374488 15.177514792899409, 43.34597133584784 15.976331360946745, 35.347179256812375 16.775147928994084, 36.946580765972584 17.57396449704142, 33.17647240427928 18.37278106508876, 32.140169800321 19.171597633136095, 30.216776851121207 19.970414201183434, 31.248337671056444 20.76923076923077, 31.303125993527807 21.56804733727811, 31.097368903754496 22.366863905325445, 31.27652109580869 23.16568047337278, 31.798194775967875 23.964497041420117, 33.44461963302529 24.763313609467456, 36.04353308022672 25.562130177514792, 36.651915997035 26.36094674556213, 40.13979922896282 27.159763313609467, 44.15770771647828 27.958579881656807, 42.875730521272416 28.757396449704142, 45.56998361944282 29.55621301775148, 43.19884550697771 30.355029585798817, 45.90824741662244 31.153846153846157, 50.0 31.95266272189349, 47.7432349803187 32.751479289940825, 45.478302774083275 33.55029585798817, 46.43568243753714 34.349112426035504, 46.93199543695864 35.14792899408284, 45.217814652497054 35.94674556213018, 44.50827407366754 36.74556213017752, 42.21123110639232 37.54437869822485, 41.681106560907935 38.34319526627219, 37.28468918194302 39.142011834319526, 33.27581623766287 39.94082840236687, 44.80723298297638 40.7396449704142, 44.821591814438335 41.53846153846154, 43.48233211915542 42.337278106508876, 44.58782508091278 43.13609467455622, 42.22741026364588 43.93491124260355, 40.87444933167981 44.73372781065089, 37.05898829208055 45.532544378698226, 29.460341648060766 46.33136094674556, 28.319278287213578 47.1301775147929, 31.05782775660899 47.928994082840234, 31.52686711676182 48.72781065088758, 33.43266561350307 49.52662721893491, 39.5620526233508 50.32544378698225, 35.343689929738574 51.124260355029584, 33.60139862996178 51.92307692307693, 36.799627970268254 52.72189349112426, 34.005114609281854 53.5207100591716, 33.49304639880034 54.319526627218934, 34.65150887442316 55.11834319526627, 31.613996976691915 55.91715976331361, 31.82027921881489 56.71597633136094, 33.22143439649449 57.514792899408285, 33.91929357703627 58.31360946745562, 31.00611859688382 59.11242603550296, 32.472535618629394 59.91124260355029, 36.97529590000677 60.710059171597635, 38.61021526469807 61.50887573964497, 38.285967727646735 62.307692307692314, 36.115222574611515 63.10650887573964, 36.40904893079345 63.90532544378698, 43.141900620552526 64.70414201183432, 43.566900953451295 65.50295857988165, 41.02536687117092 66.30177514792899, 40.85305556995337 67.10059171597634, 41.60798435538896 67.89940828402366, 43.50232083547622 68.69822485207101, 41.605626627488554 69.49704142011834, 39.90430303714365 70.29585798816568, 43.388868828802565 71.09467455621302, 42.915825150684675 71.89349112426036, 41.031294548574955 72.6923076923077, 40.23529438953927 73.49112426035504, 39.18691382565711 74.28994082840237, 39.73590717729502 75.0887573964497, 40.0129072610436 75.88757396449704, 44.60290635707818 76.68639053254438, 43.617691400916435 77.48520710059172, 41.667786575983854 78.28402366863905, 48.97776315729199 79.0828402366864, 44.52850582321403 79.88165680473374, 42.52435050208879 80.68047337278107, 40.064623450318955 81.4792899408284, 39.663787021273315 82.27810650887574, 40.159924882855066 83.07692307692308, 37.93810217397478 83.87573964497041, 39.660380876165426 84.67455621301775, 38.658179882885534 85.4733727810651, 38.18483181735816 86.27218934911244, 38.10574340359761 87.07100591715975, 38.632390274584644 87.8698224852071, 37.91961542368167 88.66863905325444, 38.34946849121134 89.46745562130178, 38.42480722220198 90.26627218934911, 37.804096699140665 91.06508875739645, 32.5492822913513 91.8639053254438, 34.03960047211301 92.66272189349112, 33.39575149781659 93.46153846153845, 33.746851129141874 94.2603550295858, 33.56384081873747 95.05917159763314, 33.16509655105181 95.85798816568047, 33.120832857152 96.65680473372781, 33.50393236774512 97.45562130177515, 30.750613824392904 98.2544378698225, 28.712982382041357 99.05325443786982, 28.738387138745658 99.85207100591715, 29.03446576784289 100.6508875739645, 27.40323615096673 101.44970414201183, 26.047117910969487 102.24852071005917, 27.033040581168866 103.04733727810651, 27.05031279221482 103.84615384615385, 26.77335554955564 104.64497041420118, 28.112555912476445 105.44378698224853, 26.6304628168981 106.24260355029585, 26.173770092047345 107.0414201183432, 26.03046891336081 107.84023668639053, 22.792717942785533 108.63905325443787, 23.470821954729676 109.43786982248521, 24.15372989389637 110.23668639053254, 21.144600740893228 111.03550295857988, 20.784997701752296 111.83431952662723, 17.09256923488179 112.63313609467457, 15.119817079933298 113.43195266272188, 14.671267631000177 114.23076923076923, 14.115687308749703 115.02958579881657, 12.722318961004769 115.82840236686391, 12.179933141154244 116.62721893491124, 14.339691029881644 117.42603550295858, 14.886555172869329 118.22485207100593, 15.275829130702572 119.02366863905324, 14.69448404171428 119.82248520710058, 14.82161712548151 120.62130177514793, 14.063087365865062 121.42011834319527, 15.434005076005436 122.2189349112426, 15.37969518169032 123.01775147928994, 19.176727871469016 123.81656804733728, 22.595466143665956 124.61538461538463, 22.42983884274551 125.41420118343194, 20.530041917638535 126.21301775147928, 21.68299974449988 127.01183431952663, 14.744145576456186 127.81065088757396, 8.178776213114627 128.60946745562129, 8.335247704044699 129.40828402366864, 7.719925231853502 130.20710059171597, 5.794656761509484 131.0059171597633, 1.4226950708240484 131.80473372781066, 0.0 132.60355029585799, 1.0093349675981471 133.40236686390534, 0.5631040591149484 134.20118343195267, 2.347395804387783" fill="none" stroke="#32ca5b" stroke-width="1.25"/>

</svg>