<?xml version="1.0" standalone="no"?>
<!DOCTYPE svg PUBLIC "-//W3C//DTD SVG 1.1//EN" "http://www.w3.org/Graphics/SVG/1.1/DTD/svg11.dtd">

<svg width="135" height="50" viewBox="0 0 135 50" preserveAspectRatio="none" 
  xmlns="http://www.w3.org/2000/svg"
  xmlns:xlink="http://www.w3.org/1999/xlink">


<polyline points="0.0, 24.480089681481772 0.7988165680473372, 24.50150958767161 1.5976331360946745, 5.878778160102609 2.396449704142012, 0.0 3.195266272189349, 14.246194750377365 3.994082840236686, 9.960748033277635 4.792899408284024, 24.217304498106788 5.591715976331361, 20.421878422484387 6.390532544378698, 12.991902427318694 7.189349112426036, 11.421874902327017 7.988165680473372, 8.277084689357412 8.78698224852071, 14.948009845758719 9.585798816568047, 11.140169930365843 10.384615384615385, 11.900637168501227 11.183431952662723, 6.617355683422753 11.982248520710058, 5.345054303820912 12.781065088757396, 9.807739117833943 13.579881656804734, 22.338513024029567 14.378698224852071, 6.76364786711954 15.177514792899409, 17.99667443399188 15.976331360946745, 18.955697812123372 16.775147928994084, 23.782486775323886 17.57396449704142, 21.18188579638068 18.37278106508876, 19.002392537350065 19.171597633136095, 21.197988194044065 19.970414201183434, 27.69241965881441 20.76923076923077, 20.140612018414714 21.56804733727811, 23.237320589456576 22.366863905325445, 25.03062792602883 23.16568047337278, 18.18446181625621 23.964497041420117, 24.250840725543735 24.763313609467456, 29.8255968023373 25.562130177514792, 35.7873743412646 26.36094674556213, 33.04285006461926 27.159763313609467, 47.814595921867706 27.958579881656807, 19.46233676767498 28.757396449704142, 42.12188443338143 29.55621301775148, 24.91560338510044 30.355029585798817, 21.1407733778375 31.153846153846157, 28.399220479959553 31.95266272189349, 37.27996980320995 32.751479289940825, 10.612706825732076 33.55029585798817, 38.80426233095925 34.349112426035504, 30.35913361157076 35.14792899408284, 31.55231596901941 35.94674556213018, 43.22954002386626 36.74556213017752, 21.001691398795 37.54437869822485, 17.873880112951163 38.34319526627219, 16.086620411036684 39.142011834319526, 28.067294385060826 39.94082840236687, 36.1590157078909 40.7396449704142, 26.33429637523166 41.53846153846154, 34.432515837549076 42.337278106508876, 33.60879318562652 43.13609467455622, 39.06417334412395 43.93491124260355, 16.385645143106302 44.73372781065089, 28.01000348305496 45.532544378698226, 20.91306279137819 46.33136094674556, 27.777624772378562 47.1301775147929, 43.21275915988793 47.928994082840234, 31.105309105776318 48.72781065088758, 32.4705981063402 49.52662721893491, 36.816146714415446 50.32544378698225, 10.896690527603797 51.124260355029584, 17.08934484385874 51.92307692307693, 28.212739076623095 52.72189349112426, 19.159018992044878 53.5207100591716, 24.747066942000796 54.319526627218934, 29.083863165814222 55.11834319526627, 19.06469417814324 55.91715976331361, 32.00642769336772 56.71597633136094, 32.61270112367216 57.514792899408285, 38.2295668008354 58.31360946745562, 26.483773746789314 59.11242603550296, 44.478329823942694 59.91124260355029, 15.291587792173445 60.710059171597635, 19.280400559310362 61.50887573964497, 21.999131192846242 62.307692307692314, 26.378844236392045 63.10650887573964, 20.50032561668863 63.90532544378698, 25.67679453880394 64.70414201183432, 28.7583920682371 65.50295857988165, 16.926736820344054 66.30177514792899, 15.652572254996509 67.10059171597634, 21.488573884160687 67.89940828402366, 27.771294654499435 68.69822485207101, 21.824855410530265 69.49704142011834, 8.633999163313742 70.29585798816568, 37.17995786859598 71.09467455621302, 20.5710486233074 71.89349112426036, 18.146661146491113 72.6923076923077, 33.611439032117055 73.49112426035504, 35.004928885169335 74.28994082840237, 26.47571194252744 75.0887573964497, 33.39053131486036 75.88757396449704, 40.32787951502448 76.68639053254438, 42.54115915089865 77.48520710059172, 33.826538871377245 78.28402366863905, 48.53405340324874 79.0828402366864, 33.83029922898205 79.88165680473374, 32.04610898990951 80.68047337278107, 35.93238657698105 81.4792899408284, 30.94536307989181 82.27810650887574, 33.58797382566244 83.07692307692308, 32.557823128073075 83.87573964497041, 41.88551815470857 84.67455621301775, 34.03066764718893 85.4733727810651, 36.42383894145566 86.27218934911244, 37.07352958480956 87.07100591715975, 36.82272872829593 87.8698224852071, 41.83263472897974 88.66863905325444, 42.47410019396893 89.46745562130178, 43.672058053535686 90.26627218934911, 40.36601253205189 91.06508875739645, 30.015161988464843 91.8639053254438, 44.369166717722855 92.66272189349112, 43.460159301773736 93.46153846153845, 39.039795897840015 94.2603550295858, 35.831343003045276 95.05917159763314, 40.47469702432897 95.85798816568047, 39.48456429589094 96.65680473372781, 38.21548648865669 97.45562130177515, 29.401679839228034 98.2544378698225, 47.80512929573765 99.05325443786982, 33.37499367868455 99.85207100591715, 32.29855943091126 100.6508875739645, 24.73634438855248 101.44970414201183, 34.80130822040893 102.24852071005917, 33.78661699771288 103.04733727810651, 38.878356991848406 103.84615384615385, 32.029477296247634 104.64497041420118, 32.0494588328954 105.44378698224853, 27.936199830677676 106.24260355029585, 28.16648354575052 107.0414201183432, 37.14679205669121 107.84023668639053, 25.512143623498247 108.63905325443787, 42.15026402873046 109.43786982248521, 37.039715504848616 110.23668639053254, 30.543355670623345 111.03550295857988, 35.17134270843767 111.83431952662723, 35.08506192108441 112.63313609467457, 43.36205724480376 113.43195266272188, 31.841472971300373 114.23076923076923, 49.65914841800246 115.02958579881657, 33.7779301871752 115.82840236686391, 40.47544194257758 116.62721893491124, 38.920689507466804 117.42603550295858, 43.63857235142687 118.22485207100593, 31.646952577338528 119.02366863905324, 31.703917315165032 119.82248520710058, 36.17534389634946 120.62130177514793, 37.62478276407767 121.42011834319527, 50.0 122.2189349112426, 36.96375797253093 123.01775147928994, 39.559578959623884 123.81656804733728, 36.841729803049645 124.61538461538463, 46.46614454278477 125.41420118343194, 39.87778623525584 126.21301775147928, 49.12165313939644 127.01183431952663, 24.320016412094628 127.81065088757396, 19.01795042292285 128.60946745562129, 16.122759764486233 129.40828402366864, 13.405829581333744 130.20710059171597, 1.9505791464427058 131.0059171597633, 14.372532394531287 131.80473372781066, 8.50954615778163 132.60355029585799, 14.064846436119815 133.40236686390534, 10.298332777730158 134.20118343195267, 12.557775006273097" fill="none" stroke="#32ca5b" stroke-width="1.25"/>

</svg>