<?xml version="1.0" standalone="no"?>
<!DOCTYPE svg PUBLIC "-//W3C//DTD SVG 1.1//EN" "http://www.w3.org/Graphics/SVG/1.1/DTD/svg11.dtd">

<svg width="135" height="50" viewBox="0 0 135 50" preserveAspectRatio="none" 
  xmlns="http://www.w3.org/2000/svg"
  xmlns:xlink="http://www.w3.org/1999/xlink">


<polyline points="0.0, 3.626978362720553 0.7988165680473372, 5.932393010692683 1.5976331360946745, 6.61067833460816 2.396449704142012, 8.686314405526577 3.195266272189349, 7.6216854361127835 3.994082840236686, 0.0 4.792899408284024, 1.9699761969875138 5.591715976331361, 3.48085301763085 6.390532544378698, 6.183975960839757 7.189349112426036, 9.675822943786768 7.988165680473372, 5.893354789780698 8.78698224852071, 5.470068848729259 9.585798816568047, 9.706187397463669 10.384615384615385, 4.699051118369223 11.183431952662723, 13.752094337102703 11.982248520710058, 20.92389868299711 12.781065088757396, 24.965794268112525 13.579881656804734, 20.02575501835319 14.378698224852071, 20.002357825274263 15.177514792899409, 14.967283337410079 15.976331360946745, 18.132567826846095 16.775147928994084, 15.106115688890483 17.57396449704142, 12.467688176272064 18.37278106508876, 12.855605490231605 19.171597633136095, 11.845585028997554 19.970414201183434, 14.522136136331476 20.76923076923077, 13.419770159316569 21.56804733727811, 12.05671199828361 22.366863905325445, 11.559359361455671 23.16568047337278, 14.360421328748712 23.964497041420117, 19.461056436010526 24.763313609467456, 19.09838545708386 25.562130177514792, 18.179870756841918 26.36094674556213, 28.569660745423654 27.159763313609467, 25.757816497188784 27.958579881656807, 26.279303105090317 28.757396449704142, 23.650205576700447 29.55621301775148, 26.24418264037131 30.355029585798817, 31.08131571897354 31.153846153846157, 30.516599066379314 31.95266272189349, 28.784330727015075 32.751479289940825, 37.14665807782541 33.55029585798817, 37.931490801542274 34.349112426035504, 36.165910273261275 35.14792899408284, 36.682372804024645 35.94674556213018, 33.119916290331204 36.74556213017752, 30.928778487908893 37.54437869822485, 29.76776418261463 38.34319526627219, 32.21443025388918 39.142011834319526, 36.00422780481097 39.94082840236687, 36.2996564194085 40.7396449704142, 39.07085392061382 41.53846153846154, 39.09784631752065 42.337278106508876, 40.25729827591169 43.13609467455622, 36.423975640663365 43.93491124260355, 33.929927886835074 44.73372781065089, 30.36325768018694 45.532544378698226, 29.742328269552377 46.33136094674556, 31.0018922511193 47.1301775147929, 30.1952020576802 47.928994082840234, 30.216144513494005 48.72781065088758, 34.399661154211444 49.52662721893491, 30.135938089156223 50.32544378698225, 28.726052297201342 51.124260355029584, 33.11376553379458 51.92307692307693, 33.07153880090622 52.72189349112426, 32.68996747333189 53.5207100591716, 33.557598136887115 54.319526627218934, 31.758390365423235 55.11834319526627, 36.86318348515905 55.91715976331361, 42.448681914472566 56.71597633136094, 45.245433292156825 57.514792899408285, 41.86082001366283 58.31360946745562, 45.27250602149523 59.11242603550296, 46.97094680749925 59.91124260355029, 47.00679055949539 60.710059171597635, 45.56662848713922 61.50887573964497, 44.62656221506816 62.307692307692314, 44.39883996524871 63.10650887573964, 48.213670888336125 63.90532544378698, 50.0 64.70414201183432, 47.59782923892748 65.50295857988165, 46.35668380751155 66.30177514792899, 45.85202912181373 67.10059171597634, 46.5609151079747 67.89940828402366, 44.30360746148993 68.69822485207101, 40.73749109857003 69.49704142011834, 40.97361505247578 70.29585798816568, 42.02008791128945 71.09467455621302, 38.08051263982058 71.89349112426036, 38.31066920443354 72.6923076923077, 36.698283565361024 73.49112426035504, 35.52417153308382 74.28994082840237, 39.79753789264386 75.0887573964497, 42.483944668717726 75.88757396449704, 41.33387686698677 76.68639053254438, 38.71558744331802 77.48520710059172, 44.50258291772575 78.28402366863905, 41.331563696362146 79.0828402366864, 39.395965681047706 79.88165680473374, 35.75493864280418 80.68047337278107, 35.827365067364056 81.4792899408284, 37.32715512111061 82.27810650887574, 29.855789823164052 83.07692307692308, 26.723560382127694 83.87573964497041, 23.495300582084024 84.67455621301775, 22.37137459024181 85.4733727810651, 18.901297080274666 86.27218934911244, 20.499917657623936 87.07100591715975, 20.941725243216133 87.8698224852071, 19.020097250153018 88.66863905325444, 22.191062458436907 89.46745562130178, 22.545808975001894 90.26627218934911, 26.771125849126303 91.06508875739645, 27.880764739231783 91.8639053254438, 29.867601104054188 92.66272189349112, 32.849859637300774 93.46153846153845, 33.73976870199205 94.2603550295858, 33.944560030419396 95.05917159763314, 32.23911927613409 95.85798816568047, 31.77543137487137 96.65680473372781, 31.573945000526283 97.45562130177515, 32.14972625461318 98.2544378698225, 34.210625402401746 99.05325443786982, 35.06179371702173 99.85207100591715, 33.83645234826872 100.6508875739645, 33.00492801451552 101.44970414201183, 32.10610371653146 102.24852071005917, 32.85549450717618 103.04733727810651, 30.819359414268206 103.84615384615385, 33.13220525207587 104.64497041420118, 32.356537770622765 105.44378698224853, 33.361965721692485 106.24260355029585, 33.41060788579825 107.0414201183432, 31.68264948683991 107.84023668639053, 34.86193585000903 108.63905325443787, 34.55393764183262 109.43786982248521, 34.27150295824238 110.23668639053254, 33.729254714306386 111.03550295857988, 33.683196658349395 111.83431952662723, 33.42462214294442 112.63313609467457, 31.02619787050369 113.43195266272188, 31.79288705980006 114.23076923076923, 31.07801895221095 115.02958579881657, 29.017417791427043 115.82840236686391, 30.69115454397578 116.62721893491124, 31.415806636357235 117.42603550295858, 30.79139694385778 118.22485207100593, 32.387104512175966 119.02366863905324, 33.385500798946445 119.82248520710058, 31.907071471387255 120.62130177514793, 33.187971915277096 121.42011834319527, 33.53249166883677 122.2189349112426, 8.714423631153316 123.01775147928994, 8.970127456607536 123.81656804733728, 11.559436472392532 124.61538461538463, 15.426571749902967 125.41420118343194, 16.230986839417945 126.21301775147928, 8.805422465010162 127.01183431952663, 9.208854626715185 127.81065088757396, 8.787591693315742 128.60946745562129, 10.035655944648818 129.40828402366864, 11.667559287616777 130.20710059171597, 10.397723731572405 131.0059171597633, 4.4037441054777995 131.80473372781066, 4.817833061158592 132.60355029585799, 7.28913975007622 133.40236686390534, 4.506697624348974 134.20118343195267, 5.327004411634283" fill="none" stroke="#ff3a33" stroke-width="1.25"/>

</svg>