<?xml version="1.0" standalone="no"?>
<!DOCTYPE svg PUBLIC "-//W3C//DTD SVG 1.1//EN" "http://www.w3.org/Graphics/SVG/1.1/DTD/svg11.dtd">

<svg width="135" height="50" viewBox="0 0 135 50" preserveAspectRatio="none" 
  xmlns="http://www.w3.org/2000/svg"
  xmlns:xlink="http://www.w3.org/1999/xlink">


<polyline points="0.0, 10.420132846310214 0.7988165680473372, 15.711429775912617 1.5976331360946745, 19.432152988235813 2.396449704142012, 19.863307385779734 3.195266272189349, 20.39399179452264 3.994082840236686, 26.290190776845606 4.792899408284024, 22.842811494813983 5.591715976331361, 26.11186547102424 6.390532544378698, 28.20284146754516 7.189349112426036, 28.460836210736485 7.988165680473372, 27.62716261544646 8.78698224852071, 26.064360386725287 9.585798816568047, 14.690512997797445 10.384615384615385, 15.294994653872232 11.183431952662723, 24.427201135051043 11.982248520710058, 21.46571433139246 12.781065088757396, 23.123933269416398 13.579881656804734, 23.545873668709966 14.378698224852071, 24.01113869862517 15.177514792899409, 23.800134320068477 15.976331360946745, 23.811118783248734 16.775147928994084, 17.831408604503583 17.57396449704142, 18.391248539817138 18.37278106508876, 21.286937627624162 19.171597633136095, 19.13779480884317 19.970414201183434, 19.189109117698536 20.76923076923077, 19.22189691571874 21.56804733727811, 20.048618519624416 22.366863905325445, 19.94173013938437 23.16568047337278, 18.730099946442497 23.964497041420117, 20.96065033398541 24.763313609467456, 22.234786071905926 25.562130177514792, 21.08543097275972 26.36094674556213, 17.294651221069767 27.159763313609467, 16.868481721160844 27.958579881656807, 17.05148147135463 28.757396449704142, 16.752142532590245 29.55621301775148, 17.51727028182665 30.355029585798817, 23.469284396742008 31.153846153846157, 22.234734649145903 31.95266272189349, 21.934899833235164 32.751479289940825, 18.773395218599706 33.55029585798817, 22.711416528843 34.349112426035504, 21.71069671086778 35.14792899408284, 26.020575777502813 35.94674556213018, 26.770974779447364 36.74556213017752, 33.2430252590569 37.54437869822485, 50.0 38.34319526627219, 45.13888827858389 39.142011834319526, 30.377872005803685 39.94082840236687, 29.314848891761564 40.7396449704142, 23.55633988257733 41.53846153846154, 23.544514971877547 42.337278106508876, 24.058894752481674 43.13609467455622, 27.87432061043727 43.93491124260355, 25.080552504451546 44.73372781065089, 25.29897157048286 45.532544378698226, 24.712475463510724 46.33136094674556, 28.212313060159623 47.1301775147929, 25.611202785951438 47.928994082840234, 30.09651941112022 48.72781065088758, 25.0317630912203 49.52662721893491, 29.016551212384456 50.32544378698225, 29.337713645686957 51.124260355029584, 27.64016563081849 51.92307692307693, 28.156065818335506 52.72189349112426, 22.81664412151167 53.5207100591716, 22.96403653170874 54.319526627218934, 26.91202243452085 55.11834319526627, 29.8865487843406 55.91715976331361, 29.111445252087993 56.71597633136094, 30.15311757966931 57.514792899408285, 28.1838576716473 58.31360946745562, 28.646996210120218 59.11242603550296, 29.570285927796014 59.91124260355029, 27.52472801994686 60.710059171597635, 27.043261345830803 61.50887573964497, 27.209865045910238 62.307692307692314, 29.13558705407703 63.10650887573964, 28.336288128172093 63.90532544378698, 29.633271978857366 64.70414201183432, 30.001948611263607 65.50295857988165, 29.87724682267425 66.30177514792899, 29.90144335711889 67.10059171597634, 32.876080305787184 67.89940828402366, 33.476364922752715 68.69822485207101, 34.93489733049235 69.49704142011834, 30.245500024614575 70.29585798816568, 33.5928356128342 71.09467455621302, 33.29720377262363 71.89349112426036, 32.599301197608895 72.6923076923077, 34.60858869418214 73.49112426035504, 34.66964469283979 74.28994082840237, 35.13734000065449 75.0887573964497, 32.61749430916505 75.88757396449704, 33.34610358200505 76.68639053254438, 28.32358632360269 77.48520710059172, 29.87832129917504 78.28402366863905, 28.15465437808386 79.0828402366864, 31.3318550688435 79.88165680473374, 31.674918968059895 80.68047337278107, 30.13996706507487 81.4792899408284, 27.860225545591504 82.27810650887574, 33.496450195051594 83.07692307692308, 19.300874331332846 83.87573964497041, 24.339535536582623 84.67455621301775, 21.86486663110003 85.4733727810651, 24.635845509216697 86.27218934911244, 21.154523410291723 87.07100591715975, 21.915431365259963 87.8698224852071, 10.693520605941883 88.66863905325444, 20.18628366888121 89.46745562130178, 20.063287751954466 90.26627218934911, 19.45517505344222 91.06508875739645, 19.29419564554616 91.8639053254438, 19.92660414580779 92.66272189349112, 22.777299284875156 93.46153846153845, 23.71772737917594 94.2603550295858, 21.70486910424932 95.05917159763314, 18.362967356789333 95.85798816568047, 21.528267063260547 96.65680473372781, 17.404847032945924 97.45562130177515, 18.414939980537635 98.2544378698225, 20.808595108486998 99.05325443786982, 20.85973992333175 99.85207100591715, 21.561603901452724 100.6508875739645, 20.427394143332954 101.44970414201183, 21.559271350028897 102.24852071005917, 18.414140037976413 103.04733727810651, 17.630408693518213 103.84615384615385, 19.677768615369008 104.64497041420118, 17.894885191031456 105.44378698224853, 17.803041758837516 106.24260355029585, 17.74602580306837 107.0414201183432, 18.369941353067528 107.84023668639053, 17.846300670545627 108.63905325443787, 13.189597555258862 109.43786982248521, 12.170770140185464 110.23668639053254, 11.660515645446466 111.03550295857988, 11.686067117346346 111.83431952662723, 11.232845496242607 112.63313609467457, 11.178517452532843 113.43195266272188, 11.861001187123914 114.23076923076923, 10.914231001675818 115.02958579881657, 9.500088318536621 115.82840236686391, 7.543198923393721 116.62721893491124, 7.178882414595569 117.42603550295858, 23.357548785268765 118.22485207100593, 15.73672143573327 119.02366863905324, 8.273502130869876 119.82248520710058, 8.467869801144774 120.62130177514793, 7.350388455534302 121.42011834319527, 13.32765851999451 122.2189349112426, 6.962318171023664 123.01775147928994, 21.0340481411015 123.81656804733728, 20.269873918905088 124.61538461538463, 19.63941196527091 125.41420118343194, 4.5205672725665975 126.21301775147928, 5.643475196973554 127.01183431952663, 21.649652912387864 127.81065088757396, 2.6586178655628006 128.60946745562129, 21.34986293736326 129.40828402366864, 3.151972513512149 130.20710059171597, 4.14237761268668 131.0059171597633, 0.0 131.80473372781066, 8.353641450612848 132.60355029585799, 7.565724296860797 133.40236686390534, 6.890380472777662 134.20118343195267, 7.41910728927401" fill="none" stroke="#32ca5b" stroke-width="1.25"/>

</svg>