<?xml version="1.0" standalone="no"?>
<!DOCTYPE svg PUBLIC "-//W3C//DTD SVG 1.1//EN" "http://www.w3.org/Graphics/SVG/1.1/DTD/svg11.dtd">

<svg width="135" height="50" viewBox="0 0 135 50" preserveAspectRatio="none" 
  xmlns="http://www.w3.org/2000/svg"
  xmlns:xlink="http://www.w3.org/1999/xlink">


<polyline points="0.0, 4.656124533900709 0.7988165680473372, 6.788162238122775 1.5976331360946745, 5.958192108323153 2.396449704142012, 5.009242990449101 3.195266272189349, 10.451689179645198 3.994082840236686, 9.55648809656498 4.792899408284024, 10.192006316133101 5.591715976331361, 11.571397530797327 6.390532544378698, 12.431277693276781 7.189349112426036, 12.424669440845006 7.988165680473372, 10.535651371435444 8.78698224852071, 8.56979494867551 9.585798816568047, 7.718172700786551 10.384615384615385, 14.663882609604165 11.183431952662723, 10.4215536348592 11.982248520710058, 26.148157765935075 12.781065088757396, 28.600727043392776 13.579881656804734, 35.32164458319489 14.378698224852071, 32.71723178577565 15.177514792899409, 32.930099462403156 15.976331360946745, 30.896538975566685 16.775147928994084, 30.200796846336942 17.57396449704142, 30.28794530204942 18.37278106508876, 29.375910081574432 19.171597633136095, 32.77643663134089 19.970414201183434, 32.90461585795869 20.76923076923077, 35.407252032388655 21.56804733727811, 35.011291971939876 22.366863905325445, 35.45579249277847 23.16568047337278, 34.47770441524622 23.964497041420117, 35.28229394577564 24.763313609467456, 39.65437905662576 25.562130177514792, 37.44612968856479 26.36094674556213, 37.78940996181488 27.159763313609467, 44.1708197571336 27.958579881656807, 42.23386922052662 28.757396449704142, 45.11205996637764 29.55621301775148, 42.31625799233164 30.355029585798817, 47.959467787019534 31.153846153846157, 49.276960640425074 31.95266272189349, 45.65757016492905 32.751479289940825, 45.1317171703798 33.55029585798817, 48.34971474925077 34.349112426035504, 50.0 35.14792899408284, 48.5432741022803 35.94674556213018, 48.11360266781628 36.74556213017752, 42.86550844449015 37.54437869822485, 40.887929802466395 38.34319526627219, 39.00306626997757 39.142011834319526, 41.713168606940826 39.94082840236687, 45.437324876971914 40.7396449704142, 45.297535739456876 41.53846153846154, 42.61787962827781 42.337278106508876, 44.69642405694055 43.13609467455622, 41.42508678099201 43.93491124260355, 37.85140206380144 44.73372781065089, 37.8094925599232 45.532544378698226, 36.299980782310435 46.33136094674556, 31.334970907556446 47.1301775147929, 33.97127288527029 47.928994082840234, 34.533208496262695 48.72781065088758, 30.30444174325161 49.52662721893491, 32.87271074868549 50.32544378698225, 31.479551216317464 51.124260355029584, 30.368312657284253 51.92307692307693, 31.239775953527626 52.72189349112426, 28.835028964775912 53.5207100591716, 27.339587878368555 54.319526627218934, 28.273173244956528 55.11834319526627, 26.363885897912986 55.91715976331361, 28.503080767064233 56.71597633136094, 30.139239945981515 57.514792899408285, 34.54846920261483 58.31360946745562, 31.443326512387266 59.11242603550296, 32.502793089023704 59.91124260355029, 34.5564072595392 60.710059171597635, 35.87851343120787 61.50887573964497, 34.46701355282078 62.307692307692314, 33.38725246787313 63.10650887573964, 33.91485192186271 63.90532544378698, 33.100142402867874 64.70414201183432, 36.3281159198059 65.50295857988165, 34.07777150341373 66.30177514792899, 33.24094274326563 67.10059171597634, 31.329586061747563 67.89940828402366, 33.074844250575595 68.69822485207101, 29.934555404056383 69.49704142011834, 28.725475677019713 70.29585798816568, 34.738591003876024 71.09467455621302, 29.850971274997733 71.89349112426036, 29.163830380133614 72.6923076923077, 30.166489871054058 73.49112426035504, 29.4759945986997 74.28994082840237, 28.136208861629786 75.0887573964497, 28.203483463673873 75.88757396449704, 30.415302944636057 76.68639053254438, 29.937967567310807 77.48520710059172, 30.693381887676114 78.28402366863905, 38.29636628672526 79.0828402366864, 33.62310814366824 79.88165680473374, 30.13500643757997 80.68047337278107, 27.38696970417653 81.4792899408284, 26.70277666938226 82.27810650887574, 28.626689818078482 83.07692307692308, 31.43033709950377 83.87573964497041, 32.26799731901875 84.67455621301775, 30.080239751584603 85.4733727810651, 32.5650001339772 86.27218934911244, 31.470836949315906 87.07100591715975, 33.129417804982204 87.8698224852071, 29.181331011978738 88.66863905325444, 30.922311886765343 89.46745562130178, 28.173226335143315 90.26627218934911, 26.9521108736508 91.06508875739645, 24.78030169254759 91.8639053254438, 26.858177568614533 92.66272189349112, 27.44947509137584 93.46153846153845, 28.352845676582056 94.2603550295858, 28.12233101024378 95.05917159763314, 29.606863078204103 95.85798816568047, 30.05407155721034 96.65680473372781, 30.712286516507685 97.45562130177515, 28.63837252322891 98.2544378698225, 28.66312404191372 99.05325443786982, 30.313777846491845 99.85207100591715, 32.1731769771439 100.6508875739645, 31.462706060262523 101.44970414201183, 30.102560401129807 102.24852071005917, 29.30660708459213 103.04733727810651, 30.16725708718283 103.84615384615385, 27.55457529233194 104.64497041420118, 23.419311664400986 105.44378698224853, 11.67153488547382 106.24260355029585, 7.550642219417954 107.0414201183432, 14.435436962108856 107.84023668639053, 20.547205575573344 108.63905325443787, 19.766158954985762 109.43786982248521, 17.771625089320896 110.23668639053254, 14.37741030351545 111.03550295857988, 14.45156490871681 111.83431952662723, 14.774982146748808 112.63313609467457, 13.11037790269453 113.43195266272188, 14.393150350469947 114.23076923076923, 11.0413262929575 115.02958579881657, 11.801254268224275 115.82840236686391, 9.233645182563542 116.62721893491124, 12.727528279202064 117.42603550295858, 15.906634563488552 118.22485207100593, 15.003607616165079 119.02366863905324, 15.46933145860972 119.82248520710058, 16.684024986141562 120.62130177514793, 18.96296532228773 121.42011834319527, 19.985501082607055 122.2189349112426, 23.39253111073708 123.01775147928994, 27.586077100506785 123.81656804733728, 26.859052343471973 124.61538461538463, 26.29966410941062 125.41420118343194, 25.743845422245414 126.21301775147928, 26.525303841461866 127.01183431952663, 21.649899212008695 127.81065088757396, 14.181223615400654 128.60946745562129, 5.303505169173197 129.40828402366864, 3.634975639972851 130.20710059171597, 11.389353683305291 131.0059171597633, 3.9400879953480556 131.80473372781066, 0.7657713731254361 132.60355029585799, 2.207348995953747 133.40236686390534, 3.464803828950936 134.20118343195267, 0.0" fill="none" stroke="#32ca5b" stroke-width="1.25"/>

</svg>