<?xml version="1.0" standalone="no"?>
<!DOCTYPE svg PUBLIC "-//W3C//DTD SVG 1.1//EN" "http://www.w3.org/Graphics/SVG/1.1/DTD/svg11.dtd">

<svg width="135" height="50" viewBox="0 0 135 50" preserveAspectRatio="none" 
  xmlns="http://www.w3.org/2000/svg"
  xmlns:xlink="http://www.w3.org/1999/xlink">


<polyline points="0.0, 7.747966118902373 0.7988165680473372, 6.709951430414615 1.5976331360946745, 5.328183930616574 2.396449704142012, 8.352819759938114 3.195266272189349, 5.596715286652283 3.994082840236686, 6.737541006486541 4.792899408284024, 5.074873375474791 5.591715976331361, 5.588927003523795 6.390532544378698, 7.457940577971829 7.189349112426036, 9.892470382981113 7.988165680473372, 6.985368906310631 8.78698224852071, 4.56973560912035 9.585798816568047, 4.973446883954969 10.384615384615385, 6.4459458111073 11.183431952662723, 9.847199040484242 11.982248520710058, 10.434035583194708 12.781065088757396, 13.595098969213307 13.579881656804734, 7.561467506968497 14.378698224852071, 7.201681007133878 15.177514792899409, 1.25313601308599 15.976331360946745, 3.3578048264890437 16.775147928994084, 1.4662304963580648 17.57396449704142, 0.0 18.37278106508876, 7.134607373826937 19.171597633136095, 9.266194272612182 19.970414201183434, 11.385979882479154 20.76923076923077, 10.130715152174288 21.56804733727811, 10.96417249878772 22.366863905325445, 11.482918744550927 23.16568047337278, 12.839986629119354 23.964497041420117, 15.775624776737878 24.763313609467456, 16.713554986185944 25.562130177514792, 14.327183627441272 26.36094674556213, 22.708688315276255 27.159763313609467, 17.61117619691864 27.958579881656807, 23.656290654974576 28.757396449704142, 17.90325297118344 29.55621301775148, 17.944931460437733 30.355029585798817, 22.14826365345221 31.153846153846157, 21.48605021052902 31.95266272189349, 14.431448011816823 32.751479289940825, 19.70790777076822 33.55029585798817, 20.560734512191132 34.349112426035504, 19.052611751206662 35.14792899408284, 17.290985246812642 35.94674556213018, 13.152222055669101 36.74556213017752, 10.626658390995747 37.54437869822485, 8.866096399336007 38.34319526627219, 15.846293319734924 39.142011834319526, 14.71796778771069 39.94082840236687, 16.237229811576302 40.7396449704142, 14.297554878253157 41.53846153846154, 34.22865580983656 42.337278106508876, 32.53921467059497 43.13609467455622, 29.81187491956946 43.93491124260355, 28.917867758895316 44.73372781065089, 29.011308747876335 45.532544378698226, 27.967021419826743 46.33136094674556, 32.688205706350416 47.1301775147929, 31.442003619944632 47.928994082840234, 32.45942871336307 48.72781065088758, 34.259775359831565 49.52662721893491, 32.225538807121055 50.32544378698225, 32.277164487588095 51.124260355029584, 37.24085643663408 51.92307692307693, 31.913943330680734 52.72189349112426, 31.478543425968265 53.5207100591716, 34.11640683118624 54.319526627218934, 28.64120183795076 55.11834319526627, 32.40538261207708 55.91715976331361, 35.03926846073519 56.71597633136094, 34.265121574564326 57.514792899408285, 33.01017413332984 58.31360946745562, 32.97574953667494 59.11242603550296, 37.96471993657899 59.91124260355029, 30.150044009766532 60.710059171597635, 29.78399950325298 61.50887573964497, 30.420871341529836 62.307692307692314, 29.697168556026494 63.10650887573964, 33.46006836215124 63.90532544378698, 36.374049382512595 64.70414201183432, 34.47061641643881 65.50295857988165, 32.208853050110356 66.30177514792899, 32.69272454098722 67.10059171597634, 31.889109006984462 67.89940828402366, 31.81481374774095 68.69822485207101, 29.10670277615102 69.49704142011834, 31.95301270887644 70.29585798816568, 30.093639824741842 71.09467455621302, 29.0965870450224 71.89349112426036, 30.600888395462484 72.6923076923077, 30.044059306187116 73.49112426035504, 28.556577922833903 74.28994082840237, 30.694513556118856 75.0887573964497, 33.88139836016123 75.88757396449704, 32.4072024950906 76.68639053254438, 30.831183984476972 77.48520710059172, 50.0 78.28402366863905, 47.38895645579223 79.0828402366864, 44.97318866709335 79.88165680473374, 44.65057311495567 80.68047337278107, 44.062320502975034 81.4792899408284, 46.99217927565816 82.27810650887574, 42.87576856342371 83.07692307692308, 44.84105161468816 83.87573964497041, 44.31406652053186 84.67455621301775, 46.493148516967295 85.4733727810651, 45.241811587670945 86.27218934911244, 44.022323660387826 87.07100591715975, 43.73767407304975 87.8698224852071, 44.689117042752656 88.66863905325444, 44.236794685609965 89.46745562130178, 41.65988140801575 90.26627218934911, 35.13950090452375 91.06508875739645, 34.374493679825285 91.8639053254438, 31.937159075306397 92.66272189349112, 32.496227933127905 93.46153846153845, 31.559189877890493 94.2603550295858, 33.28687124803745 95.05917159763314, 32.846667120453226 95.85798816568047, 33.97082384226661 96.65680473372781, 30.805757166149245 97.45562130177515, 31.134100895235257 98.2544378698225, 30.24105318707546 99.05325443786982, 30.927334414477077 99.85207100591715, 30.41145569173852 100.6508875739645, 31.56399748604028 101.44970414201183, 31.621187828342734 102.24852071005917, 31.498816398242614 103.04733727810651, 33.67066754535429 103.84615384615385, 34.71232172600228 104.64497041420118, 32.919913489657546 105.44378698224853, 31.661417133390866 106.24260355029585, 32.123040682189114 107.0414201183432, 31.61626355679314 107.84023668639053, 36.6071305126818 108.63905325443787, 36.22640931594951 109.43786982248521, 35.28007544838952 110.23668639053254, 34.558398344549104 111.03550295857988, 33.45517989802222 111.83431952662723, 29.58780393430282 112.63313609467457, 30.084763926255047 113.43195266272188, 34.03201501388624 114.23076923076923, 31.00686499297477 115.02958579881657, 30.026188345983083 115.82840236686391, 32.094775310809915 116.62721893491124, 32.61655534873744 117.42603550295858, 30.643738719462743 118.22485207100593, 28.988704371170176 119.02366863905324, 28.861706668463643 119.82248520710058, 29.425328133968833 120.62130177514793, 33.16333216097626 121.42011834319527, 30.75920366752165 122.2189349112426, 36.2807668538936 123.01775147928994, 33.63553693341888 123.81656804733728, 38.48664262197002 124.61538461538463, 37.79893189424924 125.41420118343194, 37.89247970530879 126.21301775147928, 36.393497190945 127.01183431952663, 34.76916700855763 127.81065088757396, 34.875521828345896 128.60946745562129, 36.274890581056944 129.40828402366864, 35.92716473518722 130.20710059171597, 35.85681448799391 131.0059171597633, 35.525643198820106 131.80473372781066, 36.201115778637636 132.60355029585799, 34.99615007011925 133.40236686390534, 42.5399272616321 134.20118343195267, 38.14021797923977" fill="none" stroke="#ff3a33" stroke-width="1.25"/>

</svg>