<?xml version="1.0" standalone="no"?>
<!DOCTYPE svg PUBLIC "-//W3C//DTD SVG 1.1//EN" "http://www.w3.org/Graphics/SVG/1.1/DTD/svg11.dtd">

<svg width="135" height="50" viewBox="0 0 135 50" preserveAspectRatio="none" 
  xmlns="http://www.w3.org/2000/svg"
  xmlns:xlink="http://www.w3.org/1999/xlink">


<polyline points="0.0, 49.149713370292616 0.7988165680473372, 49.45559146078694 1.5976331360946745, 49.219321512826156 2.396449704142012, 49.599586162935935 3.195266272189349, 49.37005192818793 3.994082840236686, 49.360467910744134 4.792899408284024, 49.89757726046585 5.591715976331361, 50.0 6.390532544378698, 49.76025893587502 7.189349112426036, 49.73551201483031 7.988165680473372, 49.75908644229545 8.78698224852071, 49.6660570524569 9.585798816568047, 49.85489874593517 10.384615384615385, 49.63132749481735 11.183431952662723, 49.80898099150307 11.982248520710058, 49.85135078407202 12.781065088757396, 49.88615160058462 13.579881656804734, 49.59144500785549 14.378698224852071, 49.60059432075127 15.177514792899409, 49.63889152284564 15.976331360946745, 49.96972907498504 16.775147928994084, 49.40859686587859 17.57396449704142, 49.72683720294479 18.37278106508876, 49.9355017597025 19.171597633136095, 49.53875196610383 19.970414201183434, 49.40836156017791 20.76923076923077, 49.78892231876019 21.56804733727811, 49.80431262399338 22.366863905325445, 49.585628412694575 23.16568047337278, 49.94407985473786 23.964497041420117, 49.897537263613536 24.763313609467456, 49.81954253819727 25.562130177514792, 49.773486431742114 26.36094674556213, 49.631327785793154 27.159763313609467, 49.7361185542877 27.958579881656807, 49.959674972037696 28.757396449704142, 49.759890073091675 29.55621301775148, 48.608387730462994 30.355029585798817, 48.68210432176822 31.153846153846157, 48.63638369205045 31.95266272189349, 48.44699580933564 32.751479289940825, 48.93528318903574 33.55029585798817, 49.13192331930359 34.349112426035504, 48.50192260312206 35.14792899408284, 48.918588526856965 35.94674556213018, 48.803764623953086 36.74556213017752, 48.524201680459925 37.54437869822485, 48.526854735621875 38.34319526627219, 48.852007210986365 39.142011834319526, 48.19324547058869 39.94082840236687, 48.522422956547516 40.7396449704142, 48.30947226479241 41.53846153846154, 48.77441230267118 42.337278106508876, 48.59952176579118 43.13609467455622, 48.816569618754485 43.93491124260355, 48.17773437935258 44.73372781065089, 48.51752400672346 45.532544378698226, 48.65602220162369 46.33136094674556, 48.64816774939701 47.1301775147929, 48.790864701670635 47.928994082840234, 48.9332009089459 48.72781065088758, 48.685649000677444 49.52662721893491, 48.93645337711871 50.32544378698225, 48.87595336580354 51.124260355029584, 48.75876166590766 51.92307692307693, 47.99877213061945 52.72189349112426, 48.71907284868515 53.5207100591716, 0.0 54.319526627218934, 0.07132323064548701 55.11834319526627, 0.05039658708402575 55.91715976331361, 0.2226697381040301 56.71597633136094, 0.3849521971365866 57.514792899408285, 0.4796592800012435 58.31360946745562, 49.31107174446876 59.11242603550296, 49.06522616307605 59.91124260355029, 49.29346894160277 60.710059171597635, 49.156587105596245 61.50887573964497, 49.411877955717245 62.307692307692314, 49.54434946966513 63.10650887573964, 49.22640312165586 63.90532544378698, 49.08496552700362 64.70414201183432, 49.42404527966458 65.50295857988165, 49.16248625059241 66.30177514792899, 49.25683084243604 67.10059171597634, 49.31646439371767 67.89940828402366, 49.50167784758796 68.69822485207101, 49.291658489559836 69.49704142011834, 49.51113286749906 70.29585798816568, 48.97855111982645 71.09467455621302, 49.14630754118966 71.89349112426036, 49.03692415182763 72.6923076923077, 49.23768036583144 73.49112426035504, 49.489994221805034 74.28994082840237, 49.32769920701909 75.0887573964497, 49.57010930664028 75.88757396449704, 49.39998573534265 76.68639053254438, 49.16719215731726 77.48520710059172, 49.10784594701521 78.28402366863905, 49.21497316425744 79.0828402366864, 49.318173561862324 79.88165680473374, 49.52529622539301 80.68047337278107, 49.01826127113181 81.4792899408284, 49.15454846097925 82.27810650887574, 49.29288060384973 83.07692307692308, 49.2055263639529 83.87573964497041, 49.37261728285547 84.67455621301775, 49.129030122214495 85.4733727810651, 49.46839634653302 86.27218934911244, 49.20184265771784 87.07100591715975, 49.54934973361367 87.8698224852071, 49.302234478304555 88.66863905325444, 49.37291024309873 89.46745562130178, 49.0796095480534 90.26627218934911, 49.45335963146165 91.06508875739645, 49.35749235230518 91.8639053254438, 49.38550221266402 92.66272189349112, 49.2455248290356 93.46153846153845, 49.33592188731797 94.2603550295858, 49.267473073617126 95.05917159763314, 49.426582663212685 95.85798816568047, 49.61190124537627 96.65680473372781, 38.2853591119164 97.45562130177515, 39.30635100290408 98.2544378698225, 39.609791288325184 99.05325443786982, 39.599698980950244 99.85207100591715, 39.92309414891703 100.6508875739645, 40.93106852204224 101.44970414201183, 40.749603558945665 102.24852071005917, 44.98674871731234 103.04733727810651, 48.94491317323889 103.84615384615385, 34.853426789467136 104.64497041420118, 36.276431354136385 105.44378698224853, 36.475023695715535 106.24260355029585, 41.46319346048093 107.0414201183432, 41.959080029561306 107.84023668639053, 41.845249902827334 108.63905325443787, 41.989131056418465 109.43786982248521, 41.30265985598127 110.23668639053254, 41.59179999486036 111.03550295857988, 41.17394621713791 111.83431952662723, 41.92232227865907 112.63313609467457, 41.50924753631619 113.43195266272188, 41.94313167324881 114.23076923076923, 41.931149297400516 115.02958579881657, 41.7548079070908 115.82840236686391, 41.44646981903246 116.62721893491124, 41.36128575234212 117.42603550295858, 42.01810240553584 118.22485207100593, 41.78630522652551 119.02366863905324, 41.71778337646953 119.82248520710058, 41.94220355593997 120.62130177514793, 41.867337184668706 121.42011834319527, 42.08038749713983 122.2189349112426, 40.72417188863099 123.01775147928994, 41.9118541844936 123.81656804733728, 42.02512209840962 124.61538461538463, 42.00631694283257 125.41420118343194, 42.060560669393794 126.21301775147928, 41.67603222123493 127.01183431952663, 41.440094606166625 127.81065088757396, 42.07609103363147 128.60946745562129, 41.14899068412387 129.40828402366864, 41.85787208538886 130.20710059171597, 41.17389503663873 131.0059171597633, 42.15290750901274 131.80473372781066, 41.6136002984631 132.60355029585799, 41.80962868893737 133.40236686390534, 41.627166448240814 134.20118343195267, 41.813269550626664" fill="none" stroke="#32ca5b" stroke-width="1.25"/>

</svg>