<?xml version="1.0" standalone="no"?>
<!DOCTYPE svg PUBLIC "-//W3C//DTD SVG 1.1//EN" "http://www.w3.org/Graphics/SVG/1.1/DTD/svg11.dtd">

<svg width="135" height="50" viewBox="0 0 135 50" preserveAspectRatio="none" 
  xmlns="http://www.w3.org/2000/svg"
  xmlns:xlink="http://www.w3.org/1999/xlink">


<polyline points="0.0, 35.575148465276435 0.7988165680473372, 37.19578295330665 1.5976331360946745, 37.0722756920949 2.396449704142012, 35.813880835201644 3.195266272189349, 38.03078186802076 3.994082840236686, 35.582492933862504 4.792899408284024, 34.37006313918215 5.591715976331361, 33.7135853192299 6.390532544378698, 35.09876975816042 7.189349112426036, 35.577473420386085 7.988165680473372, 35.18811213215553 8.78698224852071, 31.731434308346234 9.585798816568047, 29.116149678353537 10.384615384615385, 30.796594803860266 11.183431952662723, 22.93784222289272 11.982248520710058, 32.754274837386546 12.781065088757396, 36.527440573828535 13.579881656804734, 40.1327876716635 14.378698224852071, 41.73930278399186 15.177514792899409, 38.9899288234448 15.976331360946745, 31.84321099361525 16.775147928994084, 31.993518173977765 17.57396449704142, 31.940636234393605 18.37278106508876, 29.409077047678387 19.171597633136095, 29.408273784280674 19.970414201183434, 30.6662491404931 20.76923076923077, 31.790759688342867 21.56804733727811, 32.14939396486771 22.366863905325445, 32.956182499247646 23.16568047337278, 33.595618270222644 23.964497041420117, 34.81892979921111 24.763313609467456, 36.17704504244201 25.562130177514792, 38.407815820309885 26.36094674556213, 37.024018903635906 27.159763313609467, 44.68327129923635 27.958579881656807, 41.57925108244264 28.757396449704142, 45.670805183442624 29.55621301775148, 41.58215982560644 30.355029585798817, 43.154008492869714 31.153846153846157, 45.254719156836 31.95266272189349, 43.90659371572656 32.751479289940825, 40.20488492183003 33.55029585798817, 44.985702421153704 34.349112426035504, 46.651199064055696 35.14792899408284, 44.87397172776619 35.94674556213018, 45.9503313482392 36.74556213017752, 40.4046859520505 37.54437869822485, 38.85852466235693 38.34319526627219, 34.853209564083684 39.142011834319526, 38.80624074646576 39.94082840236687, 42.37986076418881 40.7396449704142, 40.21456858916944 41.53846153846154, 38.09947435425053 42.337278106508876, 39.454056830704 43.13609467455622, 38.98477132797343 43.93491124260355, 35.92707596295606 44.73372781065089, 35.29190127310241 45.532544378698226, 33.96625391244649 46.33136094674556, 33.833700612500266 47.1301775147929, 37.267881794371235 47.928994082840234, 37.66526311395707 48.72781065088758, 38.85070368023715 49.52662721893491, 43.3596112783602 50.32544378698225, 40.357864368107215 51.124260355029584, 38.115654433680795 51.92307692307693, 39.61296229573 52.72189349112426, 36.46706898393294 53.5207100591716, 37.193808562272096 54.319526627218934, 39.251933781024945 55.11834319526627, 33.35381304717805 55.91715976331361, 38.0926689896554 56.71597633136094, 39.517628649174455 57.514792899408285, 41.26956465471534 58.31360946745562, 39.7296902621025 59.11242603550296, 41.62561764053314 59.91124260355029, 44.01886965268062 60.710059171597635, 44.353950523095115 61.50887573964497, 42.7193235290128 62.307692307692314, 43.65488475051567 63.10650887573964, 41.633120109751914 63.90532544378698, 46.647541774011366 64.70414201183432, 46.305530030586944 65.50295857988165, 45.80835859228988 66.30177514792899, 43.14944327217067 67.10059171597634, 42.608687402399696 67.89940828402366, 45.38868136128429 68.69822485207101, 44.557455008086706 69.49704142011834, 43.93321859914684 70.29585798816568, 46.286158709404546 71.09467455621302, 44.89827450339299 71.89349112426036, 43.52017222858604 72.6923076923077, 43.57765540229845 73.49112426035504, 44.20177772953664 74.28994082840237, 44.06501365845319 75.0887573964497, 45.361724461292525 75.88757396449704, 47.96511337911602 76.68639053254438, 47.13610536660315 77.48520710059172, 46.86135816061619 78.28402366863905, 50.0 79.0828402366864, 47.78546519515861 79.88165680473374, 47.04040533869926 80.68047337278107, 45.79649353186674 81.4792899408284, 44.523624765476455 82.27810650887574, 45.65060564691464 83.07692307692308, 44.57367898574969 83.87573964497041, 45.40063935961347 84.67455621301775, 44.38924186267082 85.4733727810651, 44.34222191607295 86.27218934911244, 43.62236694646666 87.07100591715975, 44.28781483611533 87.8698224852071, 43.57511142089185 88.66863905325444, 44.029234922836814 89.46745562130178, 43.80336312041517 90.26627218934911, 42.632568123712396 91.06508875739645, 36.63457585711967 91.8639053254438, 39.24405269540321 92.66272189349112, 37.84073798695597 93.46153846153845, 38.8920069676441 94.2603550295858, 38.33705279661173 95.05917159763314, 38.152027528808844 95.85798816568047, 38.40512198010392 96.65680473372781, 39.23693461917341 97.45562130177515, 37.65564398359197 98.2544378698225, 38.50046853004302 99.05325443786982, 37.56474951196663 99.85207100591715, 37.49103054531398 100.6508875739645, 36.61352847907284 101.44970414201183, 36.16707829745285 102.24852071005917, 36.27475759598756 103.04733727810651, 37.5903222531998 103.84615384615385, 37.438877156133756 104.64497041420118, 38.11734926437939 105.44378698224853, 37.167496023363576 106.24260355029585, 36.824100855300564 107.0414201183432, 37.44494117780523 107.84023668639053, 36.219243015048235 108.63905325443787, 38.94573452856497 109.43786982248521, 40.21492461740203 110.23668639053254, 38.364194509918846 111.03550295857988, 38.58246950438304 111.83431952662723, 36.83858596159734 112.63313609467457, 36.23469865876562 113.43195266272188, 35.691701200646044 114.23076923076923, 36.584646283574905 115.02958579881657, 36.292843994422554 115.82840236686391, 36.916060904864345 116.62721893491124, 39.55897725970786 117.42603550295858, 39.67437235596639 118.22485207100593, 38.36673765159151 119.02366863905324, 38.44435683703667 119.82248520710058, 38.17251858796186 120.62130177514793, 39.079531782098556 121.42011834319527, 41.50359493030719 122.2189349112426, 41.770322748127384 123.01775147928994, 46.085226776334245 123.81656804733728, 42.969866831251196 124.61538461538463, 43.90161979388248 125.41420118343194, 43.007906976173196 126.21301775147928, 42.34687995721247 127.01183431952663, 36.71781076386804 127.81065088757396, 22.53667360092892 128.60946745562129, 15.826016752914446 129.40828402366864, 15.222859576183017 130.20710059171597, 12.899734181438905 131.0059171597633, 2.8097995353456873 131.80473372781066, 0.0 132.60355029585799, 0.6878680784613231 133.40236686390534, 0.11826676899753315 134.20118343195267, 0.5552605793169894" fill="none" stroke="#32ca5b" stroke-width="1.25"/>

</svg>