<?xml version="1.0" standalone="no"?>
<!DOCTYPE svg PUBLIC "-//W3C//DTD SVG 1.1//EN" "http://www.w3.org/Graphics/SVG/1.1/DTD/svg11.dtd">

<svg width="135" height="50" viewBox="0 0 135 50" preserveAspectRatio="none" 
  xmlns="http://www.w3.org/2000/svg"
  xmlns:xlink="http://www.w3.org/1999/xlink">


<polyline points="0.0, 20.22643693155822 0.7988165680473372, 24.61749885405541 1.5976331360946745, 27.75762415144038 2.396449704142012, 30.06576431793908 3.195266272189349, 30.781625618994184 3.994082840236686, 27.95877619780961 4.792899408284024, 27.880212540665276 5.591715976331361, 26.2175511589634 6.390532544378698, 24.584785664047885 7.189349112426036, 27.934145379516696 7.988165680473372, 26.99906185086541 8.78698224852071, 17.292451892491258 9.585798816568047, 15.67035382229641 10.384615384615385, 20.13792837540468 11.183431952662723, 11.972622400142528 11.982248520710058, 23.180834200431068 12.781065088757396, 26.3258105180771 13.579881656804734, 31.15183997729225 14.378698224852071, 32.020840977242166 15.177514792899409, 28.35555334447899 15.976331360946745, 23.276121300075438 16.775147928994084, 21.802104664584547 17.57396449704142, 21.60739969292368 18.37278106508876, 22.587853003201417 19.171597633136095, 22.911215798379562 19.970414201183434, 21.665354540997505 20.76923076923077, 22.48482789322646 21.56804733727811, 21.96114191480848 22.366863905325445, 20.08068541522448 23.16568047337278, 21.58061073189725 23.964497041420117, 24.263412544234164 24.763313609467456, 37.79635613561139 25.562130177514792, 38.755125010481386 26.36094674556213, 33.43063696536902 27.159763313609467, 43.8646255440828 27.958579881656807, 40.15907220499565 28.757396449704142, 44.642629760481135 29.55621301775148, 43.84152284915811 30.355029585798817, 45.25914196613509 31.153846153846157, 50.0 31.95266272189349, 47.355376799902515 32.751479289940825, 43.7915616468472 33.55029585798817, 47.01186246936888 34.349112426035504, 46.21429379503892 35.14792899408284, 46.26076406852284 35.94674556213018, 47.6539489945969 36.74556213017752, 34.95469584461331 37.54437869822485, 37.539492925087615 38.34319526627219, 33.300198998117466 39.142011834319526, 36.45225609192668 39.94082840236687, 38.72241382836228 40.7396449704142, 40.51126128518581 41.53846153846154, 38.48624442594225 42.337278106508876, 39.35414808229882 43.13609467455622, 36.854304843852724 43.93491124260355, 30.824565797865517 44.73372781065089, 24.669057361547686 45.532544378698226, 19.098685635528454 46.33136094674556, 15.5500923497273 47.1301775147929, 18.74575190290734 47.928994082840234, 21.812027633915605 48.72781065088758, 23.064107469372928 49.52662721893491, 26.62247595857362 50.32544378698225, 25.206992807601864 51.124260355029584, 24.158634617176507 51.92307692307693, 25.30818546719337 52.72189349112426, 24.315074806877153 53.5207100591716, 21.76974982276913 54.319526627218934, 23.6658958788785 55.11834319526627, 21.76408250716203 55.91715976331361, 23.03361958371677 56.71597633136094, 23.361809712461625 57.514792899408285, 25.555623731812844 58.31360946745562, 21.626967680852324 59.11242603550296, 22.31358648796625 59.91124260355029, 22.468365713999358 60.710059171597635, 24.991412487674676 61.50887573964497, 25.948516371808616 62.307692307692314, 27.716254914279748 63.10650887573964, 27.27760617792035 63.90532544378698, 29.445412077681794 64.70414201183432, 31.811304232995237 65.50295857988165, 30.350992950956257 66.30177514792899, 30.898330436615012 67.10059171597634, 30.281961538784753 67.89940828402366, 30.28446756071072 68.69822485207101, 28.110905953651518 69.49704142011834, 25.507620958595094 70.29585798816568, 26.196103143951042 71.09467455621302, 25.083083546303424 71.89349112426036, 22.715391940456332 72.6923076923077, 24.900949642242654 73.49112426035504, 25.944424078591965 74.28994082840237, 27.73681677244437 75.0887573964497, 27.75434403488984 75.88757396449704, 32.19115040208184 76.68639053254438, 32.70802375297741 77.48520710059172, 30.6201042788321 78.28402366863905, 33.80512451973635 79.0828402366864, 33.65359513538111 79.88165680473374, 32.405070923877915 80.68047337278107, 30.314758820519934 81.4792899408284, 29.27490446109165 82.27810650887574, 31.36222855220283 83.07692307692308, 30.662871186563258 83.87573964497041, 30.947555955994133 84.67455621301775, 30.709613252304013 85.4733727810651, 31.76730510881543 86.27218934911244, 31.185450382740065 87.07100591715975, 32.46067325975546 87.8698224852071, 30.334354142776306 88.66863905325444, 33.70504408792682 89.46745562130178, 32.4490575157719 90.26627218934911, 28.916098454371653 91.06508875739645, 26.557024960721897 91.8639053254438, 27.795778187845706 92.66272189349112, 27.692303467770373 93.46153846153845, 29.241909117443594 94.2603550295858, 28.998230787873354 95.05917159763314, 29.43759312588346 95.85798816568047, 29.26365349126481 96.65680473372781, 28.166299056595438 97.45562130177515, 25.988684105553382 98.2544378698225, 25.0531916477974 99.05325443786982, 25.460084320269093 99.85207100591715, 25.83603222285062 100.6508875739645, 25.274538072974984 101.44970414201183, 23.196260507740043 102.24852071005917, 23.804591238962853 103.04733727810651, 20.52491955507061 103.84615384615385, 20.552540350404485 104.64497041420118, 18.29993953871106 105.44378698224853, 18.80150554133719 106.24260355029585, 18.813133848989906 107.0414201183432, 17.937610671674275 107.84023668639053, 16.604787206916114 108.63905325443787, 22.99356489072118 109.43786982248521, 27.070221498994528 110.23668639053254, 24.297616132805103 111.03550295857988, 23.848359917064617 111.83431952662723, 23.013321771955894 112.63313609467457, 22.589042838918996 113.43195266272188, 22.815766455628005 114.23076923076923, 23.137973143496637 115.02958579881657, 24.0015663818479 115.82840236686391, 23.837200467930593 116.62721893491124, 24.674579724214915 117.42603550295858, 24.90841891715955 118.22485207100593, 23.085331551130455 119.02366863905324, 23.57138760042802 119.82248520710058, 23.75612114559268 120.62130177514793, 20.54366423114502 121.42011834319527, 23.875893089463755 122.2189349112426, 26.208298000544104 123.01775147928994, 30.081520270208138 123.81656804733728, 25.39682233623704 124.61538461538463, 22.037895002245232 125.41420118343194, 20.85838520268283 126.21301775147928, 22.78697071330282 127.01183431952663, 21.31854438577354 127.81065088757396, 14.761452306515238 128.60946745562129, 13.40486103961524 129.40828402366864, 8.662618184320078 130.20710059171597, 12.200419047335478 131.0059171597633, 5.044607063216574 131.80473372781066, 3.9645860629076233 132.60355029585799, 6.174455710586859 133.40236686390534, 0.0 134.20118343195267, 1.827718771262431" fill="none" stroke="#32ca5b" stroke-width="1.25"/>

</svg>