<?xml version="1.0" standalone="no"?>
<!DOCTYPE svg PUBLIC "-//W3C//DTD SVG 1.1//EN" "http://www.w3.org/Graphics/SVG/1.1/DTD/svg11.dtd">

<svg width="135" height="50" viewBox="0 0 135 50" preserveAspectRatio="none" 
  xmlns="http://www.w3.org/2000/svg"
  xmlns:xlink="http://www.w3.org/1999/xlink">


<polyline points="0.0, 34.89183171544878 0.7988165680473372, 37.12953729896797 1.5976331360946745, 36.759414235580095 2.396449704142012, 37.28246482251028 3.195266272189349, 39.72470213734644 3.994082840236686, 38.805061191088704 4.792899408284024, 39.51219480533884 5.591715976331361, 40.04116023371803 6.390532544378698, 41.06494410690846 7.189349112426036, 41.83677464538038 7.988165680473372, 41.40561981787254 8.78698224852071, 39.80942940931164 9.585798816568047, 37.61903530441021 10.384615384615385, 38.3835259528945 11.183431952662723, 36.46766416115887 11.982248520710058, 40.76493083541319 12.781065088757396, 42.06483362817621 13.579881656804734, 43.55489605479235 14.378698224852071, 42.22818973232077 15.177514792899409, 42.035486724998094 15.976331360946745, 41.53227500223387 16.775147928994084, 42.51198187036414 17.57396449704142, 43.21662303508852 18.37278106508876, 43.11978268492299 19.171597633136095, 42.05641606447434 19.970414201183434, 42.761396000665385 20.76923076923077, 44.77641023963465 21.56804733727811, 45.57034410477817 22.366863905325445, 45.36701744201238 23.16568047337278, 45.44103626056909 23.964497041420117, 45.84386649061732 24.763313609467456, 45.198082548266214 25.562130177514792, 45.2955300378625 26.36094674556213, 47.447853734305816 27.159763313609467, 48.7370525349806 27.958579881656807, 47.22069663138303 28.757396449704142, 47.975944764496646 29.55621301775148, 47.666068442553986 30.355029585798817, 47.58918150516062 31.153846153846157, 48.106376219923526 31.95266272189349, 48.483582349580026 32.751479289940825, 48.12657811437626 33.55029585798817, 49.34950857573092 34.349112426035504, 50.0 35.14792899408284, 49.259467163251244 35.94674556213018, 49.225061180424746 36.74556213017752, 48.60206616546856 37.54437869822485, 48.08094417697275 38.34319526627219, 47.220427391762705 39.142011834319526, 46.9428756189094 39.94082840236687, 49.26467104319113 40.7396449704142, 48.45327283773174 41.53846153846154, 46.3413735541836 42.337278106508876, 46.16458253732519 43.13609467455622, 45.16054135392519 43.93491124260355, 42.40606010338448 44.73372781065089, 41.240964384971264 45.532544378698226, 42.17190745385368 46.33136094674556, 40.4402830761984 47.1301775147929, 41.76922346087403 47.928994082840234, 42.961981843944066 48.72781065088758, 43.96157385107388 49.52662721893491, 42.47596038464343 50.32544378698225, 41.986206630087764 51.124260355029584, 40.8110739701495 51.92307692307693, 39.08133026983504 52.72189349112426, 39.78242070180891 53.5207100591716, 41.897238215793074 54.319526627218934, 41.520909301753925 55.11834319526627, 40.76811036775387 55.91715976331361, 41.97746635513642 56.71597633136094, 42.3879285293731 57.514792899408285, 42.91522546479569 58.31360946745562, 41.33570904228221 59.11242603550296, 43.40869676528371 59.91124260355029, 43.35315748083593 60.710059171597635, 44.953117957083435 61.50887573964497, 44.855830789705934 62.307692307692314, 44.35606770366344 63.10650887573964, 44.01051980481778 63.90532544378698, 44.92504768615701 64.70414201183432, 44.843203615481265 65.50295857988165, 44.680682281686046 66.30177514792899, 44.490021501654226 67.10059171597634, 44.1225964951001 67.89940828402366, 45.002305625892944 68.69822485207101, 43.341847465721344 69.49704142011834, 41.45466035096776 70.29585798816568, 46.22258781077429 71.09467455621302, 45.81027783537548 71.89349112426036, 45.851911082314906 72.6923076923077, 45.34874545488873 73.49112426035504, 45.25714219608702 74.28994082840237, 45.444600385873166 75.0887573964497, 45.64313564948768 75.88757396449704, 45.94846130772643 76.68639053254438, 44.58469508771356 77.48520710059172, 45.61677078600381 78.28402366863905, 47.11511022136717 79.0828402366864, 46.38975173652676 79.88165680473374, 46.36056160468728 80.68047337278107, 45.53772919895279 81.4792899408284, 45.41160982405444 82.27810650887574, 45.8677393281707 83.07692307692308, 46.23823545506404 83.87573964497041, 47.2297907498304 84.67455621301775, 46.431207685767156 85.4733727810651, 45.94039775374158 86.27218934911244, 45.18820994731564 87.07100591715975, 44.615047405172895 87.8698224852071, 41.786521871257456 88.66863905325444, 40.12135458092892 89.46745562130178, 28.931173433204304 90.26627218934911, 32.53980510456561 91.06508875739645, 32.25411516549241 91.8639053254438, 31.142726414641242 92.66272189349112, 33.29757679130897 93.46153846153845, 31.657971111972532 94.2603550295858, 33.51817353193817 95.05917159763314, 35.286346445115235 95.85798816568047, 33.82551625644206 96.65680473372781, 33.14295768851377 97.45562130177515, 29.571213510169947 98.2544378698225, 30.841029308508265 99.05325443786982, 32.20624910802729 99.85207100591715, 32.6677726508163 100.6508875739645, 31.26657013210094 101.44970414201183, 27.814901677026366 102.24852071005917, 24.87108137071624 103.04733727810651, 21.521296815798273 103.84615384615385, 20.798523331709426 104.64497041420118, 15.912490909616508 105.44378698224853, 10.971518586025438 106.24260355029585, 14.657484039300584 107.0414201183432, 18.935023045350878 107.84023668639053, 15.7151017067717 108.63905325443787, 12.19398348975639 109.43786982248521, 6.643859658325465 110.23668639053254, 4.989596018952672 111.03550295857988, 4.927824913600251 111.83431952662723, 3.996688107445189 112.63313609467457, 0.0 113.43195266272188, 4.642657669028708 114.23076923076923, 1.6722719763600458 115.02958579881657, 1.2747000391599157 115.82840236686391, 4.003618229176688 116.62721893491124, 5.255407463292226 117.42603550295858, 8.690485339297513 118.22485207100593, 7.186942501001702 119.02366863905324, 5.4610699560763525 119.82248520710058, 9.941979438923575 120.62130177514793, 11.941837071491229 121.42011834319527, 12.002892326303737 122.2189349112426, 10.817037710712277 123.01775147928994, 11.287174263993483 123.81656804733728, 10.128840314163401 124.61538461538463, 14.036184959734616 125.41420118343194, 14.785180905328449 126.21301775147928, 14.588040921822811 127.01183431952663, 12.810786054512585 127.81065088757396, 9.136796229336767 128.60946745562129, 2.628734473171894 129.40828402366864, 9.720731123023254 130.20710059171597, 11.754948368401772 131.0059171597633, 12.27583544767538 131.80473372781066, 11.970122098014317 132.60355029585799, 13.255711611529488 133.40236686390534, 14.934281833869589 134.20118343195267, 14.591189883699396" fill="none" stroke="#32ca5b" stroke-width="1.25"/>

</svg>