<?xml version="1.0" standalone="no"?>
<!DOCTYPE svg PUBLIC "-//W3C//DTD SVG 1.1//EN" "http://www.w3.org/Graphics/SVG/1.1/DTD/svg11.dtd">

<svg width="135" height="50" viewBox="0 0 135 50" preserveAspectRatio="none" 
  xmlns="http://www.w3.org/2000/svg"
  xmlns:xlink="http://www.w3.org/1999/xlink">


<polyline points="0.0, 43.88434643056895 0.7988165680473372, 45.89585471192177 1.5976331360946745, 44.10996250990499 2.396449704142012, 46.04869943481715 3.195266272189349, 46.79532547873751 3.994082840236686, 46.869395951618046 4.792899408284024, 46.815804225612915 5.591715976331361, 46.845259982822355 6.390532544378698, 45.062536145750144 7.189349112426036, 46.090816030291016 7.988165680473372, 48.031061673825526 8.78698224852071, 45.653686624101105 9.585798816568047, 45.655241021302906 10.384615384615385, 45.56759824717591 11.183431952662723, 47.882668393726476 11.982248520710058, 47.935327767424624 12.781065088757396, 47.900007513718016 13.579881656804734, 47.94187677607233 14.378698224852071, 47.97569970101279 15.177514792899409, 47.960016687566956 15.976331360946745, 46.79368383148979 16.775147928994084, 46.8029779868926 17.57396449704142, 45.09575120237852 18.37278106508876, 45.0248094077785 19.171597633136095, 44.23173026075842 19.970414201183434, 44.38789810121778 20.76923076923077, 44.28413795590236 21.56804733727811, 44.23346307980709 22.366863905325445, 46.239534045283044 23.16568047337278, 45.58800313569249 23.964497041420117, 46.19735862451724 24.763313609467456, 46.05680966256717 25.562130177514792, 46.79177022743864 26.36094674556213, 47.86971352759453 27.159763313609467, 47.840837922825855 27.958579881656807, 47.8515759676305 28.757396449704142, 49.81205106673048 29.55621301775148, 44.80882690440878 30.355029585798817, 44.75301165164225 31.153846153846157, 46.55851784313607 31.95266272189349, 46.67173099102177 32.751479289940825, 46.773780580088925 33.55029585798817, 46.76528455584172 34.349112426035504, 46.77365015656283 35.14792899408284, 46.88402195631675 35.94674556213018, 46.72667038590658 36.74556213017752, 47.31630060897072 37.54437869822485, 50.0 38.34319526627219, 49.909913307709694 39.142011834319526, 49.92206426239579 39.94082840236687, 48.53375034697716 40.7396449704142, 49.765318234934995 41.53846153846154, 49.62117307288649 42.337278106508876, 49.628889959198446 43.13609467455622, 49.681963344159584 43.93491124260355, 49.478386366358265 44.73372781065089, 49.44424520240073 45.532544378698226, 49.40997945385225 46.33136094674556, 49.39496005650651 47.1301775147929, 48.027379526163855 47.928994082840234, 48.08473811308501 48.72781065088758, 48.2133495975004 49.52662721893491, 48.21607080290165 50.32544378698225, 49.44385185048468 51.124260355029584, 49.420465629264314 51.92307692307693, 49.39892534791496 52.72189349112426, 49.389739654043616 53.5207100591716, 49.38629209247066 54.319526627218934, 49.38599071376923 55.11834319526627, 49.38447296937712 55.91715976331361, 49.3872590821656 56.71597633136094, 49.366902823945445 57.514792899408285, 49.36536724194051 58.31360946745562, 49.50225284274228 59.11242603550296, 49.46676510662241 59.91124260355029, 49.441490138236475 60.710059171597635, 49.40585697055756 61.50887573964497, 49.40879926907222 62.307692307692314, 49.48153837562985 63.10650887573964, 49.59338137387561 63.90532544378698, 49.622126157728665 64.70414201183432, 49.63482189356253 65.50295857988165, 49.525030086907925 66.30177514792899, 49.5089973673492 67.10059171597634, 49.38868573401695 67.89940828402366, 49.64648132439472 68.69822485207101, 49.57636283828693 69.49704142011834, 49.59967791146426 70.29585798816568, 49.53572166694807 71.09467455621302, 49.51960797115788 71.89349112426036, 49.512721497582525 72.6923076923077, 49.546823106017214 73.49112426035504, 49.535160381473865 74.28994082840237, 48.774978707488906 75.0887573964497, 48.760780665967154 75.88757396449704, 48.76078066596726 76.68639053254438, 48.760780665967125 77.48520710059172, 48.730094529661685 78.28402366863905, 45.120831693138356 79.0828402366864, 45.12083169313811 79.88165680473374, 45.11418261114793 80.68047337278107, 45.12083169313822 81.4792899408284, 45.12141199680579 82.27810650887574, 45.12083169313816 83.07692307692308, 43.60852677048362 83.87573964497041, 45.12061919733901 84.67455621301775, 43.611555014221544 85.4733727810651, 43.61155501422141 86.27218934911244, 43.611555014221494 87.07100591715975, 43.61337196046405 87.8698224852071, 43.62124539418238 88.66863905325444, 34.21915423707803 89.46745562130178, 46.33273483700348 90.26627218934911, 48.136148847263414 91.06508875739645, 48.14059634846702 91.8639053254438, 34.21975988582564 92.66272189349112, 33.31068111573964 93.46153846153845, 47.408367012668215 94.2603550295858, 40.30047331131698 95.05917159763314, 46.28064904471352 95.85798816568047, 40.301684608811975 96.65680473372781, 46.27095866475251 97.45562130177515, 37.20197431880558 98.2544378698225, 0.0 99.05325443786982, 45.11560261305748 99.85207100591715, 39.68937372502997 100.6508875739645, 46.020220083263176 101.44970414201183, 35.70466446487719 102.24852071005917, 33.66176741970724 103.04733727810651, 15.141218688972316 103.84615384615385, 35.49101660695159 104.64497041420118, 34.22097118332067 105.44378698224853, 40.27382476642433 106.24260355029585, 42.702706926594274 107.0414201183432, 34.233840397066544 107.84023668639053, 35.95009268610255 108.63905325443787, 43.17427661848392 109.43786982248521, 36.46308284678369 110.23668639053254, 42.09016536035337 111.03550295857988, 42.067756356693906 111.83431952662723, 41.41286589757832 112.63313609467457, 41.429624770244914 113.43195266272188, 41.47095901995965 114.23076923076923, 37.67683668797943 115.02958579881657, 40.878873213307436 115.82840236686391, 37.981099639254055 116.62721893491124, 41.790349375589805 117.42603550295858, 41.76013421762394 118.22485207100593, 38.470942266172415 119.02366863905324, 40.816671223600515 119.82248520710058, 43.57943585541963 120.62130177514793, 44.155663991459086 121.42011834319527, 41.28129870807543 122.2189349112426, 36.182347643246736 123.01775147928994, 37.190798394114125 123.81656804733728, 42.437592587419175 124.61538461538463, 42.93535278077524 125.41420118343194, 49.06131969012036 126.21301775147928, 44.214284565001556 127.01183431952663, 47.503085516522845 127.81065088757396, 44.29497281067164 128.60946745562129, 43.61343900503305 129.40828402366864, 43.05722497037028 130.20710059171597, 43.05413937821947 131.0059171597633, 43.04653270904624 131.80473372781066, 43.020651271269045 132.60355029585799, 43.680356460582594 133.40236686390534, 44.25657474727422 134.20118343195267, 44.28097958672198" fill="none" stroke="#ff3a33" stroke-width="1.25"/>

</svg>