<?xml version="1.0" standalone="no"?>
<!DOCTYPE svg PUBLIC "-//W3C//DTD SVG 1.1//EN" "http://www.w3.org/Graphics/SVG/1.1/DTD/svg11.dtd">

<svg width="135" height="50" viewBox="0 0 135 50" preserveAspectRatio="none" 
  xmlns="http://www.w3.org/2000/svg"
  xmlns:xlink="http://www.w3.org/1999/xlink">


<polyline points="0.0, 32.019221030400075 0.7988165680473372, 22.375247143356866 1.5976331360946745, 28.139050292474476 2.396449704142012, 32.94899682044769 3.195266272189349, 31.683413940571942 3.994082840236686, 39.01301618231557 4.792899408284024, 29.13866353066239 5.591715976331361, 33.304374718253726 6.390532544378698, 31.92835547981983 7.189349112426036, 29.203561875456064 7.988165680473372, 29.339398054871758 8.78698224852071, 28.92792215234555 9.585798816568047, 31.399925224093124 10.384615384615385, 14.392543904283494 11.183431952662723, 15.67475193312085 11.982248520710058, 26.850994365420732 12.781065088757396, 46.06593930561891 13.579881656804734, 32.24876804208826 14.378698224852071, 32.963653250661714 15.177514792899409, 21.950486589696748 15.976331360946745, 38.34008881199008 16.775147928994084, 29.447344243961197 17.57396449704142, 29.385821752041124 18.37278106508876, 30.908567236846913 19.171597633136095, 26.410824898898333 19.970414201183434, 26.500590735951 20.76923076923077, 33.03163847271489 21.56804733727811, 29.195501067100775 22.366863905325445, 35.95086037747712 23.16568047337278, 34.93565842458046 23.964497041420117, 29.205607860303402 24.763313609467456, 26.74764170046322 25.562130177514792, 32.64097659724995 26.36094674556213, 40.32253095761153 27.159763313609467, 36.7180596544841 27.958579881656807, 41.164180555173004 28.757396449704142, 32.65292651276821 29.55621301775148, 27.41343517440493 30.355029585798817, 35.51050508612455 31.153846153846157, 21.510827012894804 31.95266272189349, 15.439794627481424 32.751479289940825, 28.856900141497672 33.55029585798817, 36.34936584421086 34.349112426035504, 26.28309392832826 35.14792899408284, 46.97580955533228 35.94674556213018, 24.87808414207867 36.74556213017752, 19.83716713950937 37.54437869822485, 0.0 38.34319526627219, 30.021896462587943 39.142011834319526, 34.59383151165588 39.94082840236687, 25.466751293226537 40.7396449704142, 21.224627683157323 41.53846153846154, 26.416691404757557 42.337278106508876, 24.931246898324616 43.13609467455622, 10.10731150383869 43.93491124260355, 12.917738430616923 44.73372781065089, 24.000207354470934 45.532544378698226, 27.094532967910638 46.33136094674556, 35.50756669000811 47.1301775147929, 26.339204053992916 47.928994082840234, 29.97040570526196 48.72781065088758, 28.402872809545492 49.52662721893491, 17.87269619125044 50.32544378698225, 25.911588385633305 51.124260355029584, 33.58302648946574 51.92307692307693, 27.14014554694801 52.72189349112426, 24.593167595546127 53.5207100591716, 30.48701251470976 54.319526627218934, 26.15877372402961 55.11834319526627, 26.102429769938023 55.91715976331361, 20.25885275586387 56.71597633136094, 30.664279268605483 57.514792899408285, 17.448319386466572 58.31360946745562, 40.128495388901655 59.11242603550296, 50.0 59.91124260355029, 30.45400908175882 60.710059171597635, 32.11352523433421 61.50887573964497, 29.94537798290618 62.307692307692314, 28.064977043357636 63.10650887573964, 35.29343778084862 63.90532544378698, 40.492505583841634 64.70414201183432, 31.163722662147386 65.50295857988165, 30.27445584448074 66.30177514792899, 23.886503359351444 67.10059171597634, 27.94539700190243 67.89940828402366, 33.23878591976536 68.69822485207101, 34.496216252159364 69.49704142011834, 38.23820478216975 70.29585798816568, 22.86353968345845 71.09467455621302, 24.457885291730168 71.89349112426036, 29.327817821114866 72.6923076923077, 24.11065744479171 73.49112426035504, 24.603897920268576 74.28994082840237, 31.368245668271577 75.0887573964497, 31.39678401852431 75.88757396449704, 26.739535473687326 76.68639053254438, 21.26359016489471 77.48520710059172, 29.709531701002014 78.28402366863905, 29.643741457648375 79.0828402366864, 24.52500772970486 79.88165680473374, 23.513691631199688 80.68047337278107, 28.91911411411433 81.4792899408284, 32.19162930542017 82.27810650887574, 20.08766057549298 83.07692307692308, 30.14751156672294 83.87573964497041, 23.18712051736477 84.67455621301775, 32.22285689872901 85.4733727810651, 20.24266290895757 86.27218934911244, 22.678129580907765 87.07100591715975, 30.86326451376044 87.8698224852071, 32.40402786162139 88.66863905325444, 25.065338464605862 89.46745562130178, 22.798047045808204 90.26627218934911, 20.928350342215037 91.06508875739645, 37.151174792072425 91.8639053254438, 28.772790801873754 92.66272189349112, 32.78135117678514 93.46153846153845, 23.350777370796592 94.2603550295858, 31.13861808032074 95.05917159763314, 20.474064459468487 95.85798816568047, 22.986995100382067 96.65680473372781, 15.464468704081394 97.45562130177515, 37.34739986634862 98.2544378698225, 23.13887338467855 99.05325443786982, 28.110417841880047 99.85207100591715, 25.694639373548505 100.6508875739645, 30.274852005654694 101.44970414201183, 28.55998429884797 102.24852071005917, 32.60507228014859 103.04733727810651, 29.57000552081398 103.84615384615385, 34.298346693982836 104.64497041420118, 27.18419180237207 105.44378698224853, 25.548847871865892 106.24260355029585, 29.818552091652688 107.0414201183432, 21.82520607243919 107.84023668639053, 26.318135803831694 108.63905325443787, 25.692352013555862 109.43786982248521, 25.615324558813207 110.23668639053254, 24.80542070475532 111.03550295857988, 26.03815241675403 111.83431952662723, 25.81997610517058 112.63313609467457, 30.508368985037144 113.43195266272188, 37.13258876692275 114.23076923076923, 22.73102978678077 115.02958579881657, 25.892762262014784 115.82840236686391, 31.25425826960314 116.62721893491124, 23.9006911964516 117.42603550295858, 20.76507157713043 118.22485207100593, 24.563570941544917 119.02366863905324, 25.79277470226605 119.82248520710058, 25.369727386914594 120.62130177514793, 30.41476919262606 121.42011834319527, 32.44985894055096 122.2189349112426, 31.793951455974383 123.01775147928994, 30.291075992976612 123.81656804733728, 27.392680077252425 124.61538461538463, 28.920639851147158 125.41420118343194, 29.12588099792132 126.21301775147928, 28.318687047808382 127.01183431952663, 25.70427254120447 127.81065088757396, 28.996173110479184 128.60946745562129, 24.880326163347274 129.40828402366864, 30.65190035586912 130.20710059171597, 18.505346840988746 131.0059171597633, 21.806185193820376 131.80473372781066, 14.350571751276497 132.60355029585799, 19.438303156211127 133.40236686390534, 23.86702992594068 134.20118343195267, 18.99487090212442" fill="none" stroke="#32ca5b" stroke-width="1.25"/>

</svg>