<?xml version="1.0" standalone="no"?>
<!DOCTYPE svg PUBLIC "-//W3C//DTD SVG 1.1//EN" "http://www.w3.org/Graphics/SVG/1.1/DTD/svg11.dtd">

<svg width="135" height="50" viewBox="0 0 135 50" preserveAspectRatio="none" 
  xmlns="http://www.w3.org/2000/svg"
  xmlns:xlink="http://www.w3.org/1999/xlink">


<polyline points="0.0, 7.200642789933606 0.7988165680473372, 0.0 1.5976331360946745, 4.130066747990152 2.396449704142012, 7.076542118329446 3.195266272189349, 17.36153393926132 3.994082840236686, 13.28570363756511 4.792899408284024, 19.65987858094879 5.591715976331361, 17.870096779290474 6.390532544378698, 16.587151217195757 7.189349112426036, 12.872162173646073 7.988165680473372, 15.474030278967458 8.78698224852071, 13.861984497772903 9.585798816568047, 15.386635611152405 10.384615384615385, 15.793265721541438 11.183431952662723, 10.748178997602405 11.982248520710058, 19.214870987928396 12.781065088757396, 24.79649181097778 13.579881656804734, 22.99989081713352 14.378698224852071, 22.014034420379314 15.177514792899409, 19.3754471701513 15.976331360946745, 18.859727311859338 16.775147928994084, 18.121214180557686 17.57396449704142, 14.442397022776035 18.37278106508876, 15.076813738355769 19.171597633136095, 19.828763928540745 19.970414201183434, 22.148471266005473 20.76923076923077, 22.474705974335762 21.56804733727811, 21.638623412407828 22.366863905325445, 21.56158037572221 23.16568047337278, 25.899787563043684 23.964497041420117, 27.47089595624618 24.763313609467456, 29.32409812178876 25.562130177514792, 27.903692547853648 26.36094674556213, 34.50923316622707 27.159763313609467, 31.890996625132885 27.958579881656807, 36.07978919308649 28.757396449704142, 31.8233685236909 29.55621301775148, 30.659221430535105 30.355029585798817, 36.45819024292969 31.153846153846157, 35.14196833311078 31.95266272189349, 34.762014898838714 32.751479289940825, 36.44979451120964 33.55029585798817, 38.312964065970924 34.349112426035504, 35.99079926597837 35.14792899408284, 35.7325369546578 35.94674556213018, 31.806711616670857 36.74556213017752, 30.035104103217442 37.54437869822485, 27.886722944106356 38.34319526627219, 34.64401401397629 39.142011834319526, 38.988864727358255 39.94082840236687, 39.718214623346256 40.7396449704142, 37.60241122355769 41.53846153846154, 37.1763387894918 42.337278106508876, 35.21719964933453 43.13609467455622, 33.0744799057967 43.93491124260355, 32.81053600768591 44.73372781065089, 30.15010330496634 45.532544378698226, 30.47302165264104 46.33136094674556, 32.88597846242258 47.1301775147929, 34.10742815365046 47.928994082840234, 34.87227593830817 48.72781065088758, 37.40081723153823 49.52662721893491, 35.762217481928815 50.32544378698225, 34.370965303912975 51.124260355029584, 36.1920139537567 51.92307692307693, 34.417956041311925 52.72189349112426, 33.23580924669693 53.5207100591716, 34.30982917299933 54.319526627218934, 31.392438689490525 55.11834319526627, 34.21150745956363 55.91715976331361, 34.90794535577551 56.71597633136094, 36.38042629059504 57.514792899408285, 33.12848563467058 58.31360946745562, 36.57858738064088 59.11242603550296, 38.490449912675544 59.91124260355029, 40.295481813089175 60.710059171597635, 41.81672976506433 61.50887573964497, 41.46902890882355 62.307692307692314, 39.311538590278 63.10650887573964, 42.47320315251063 63.90532544378698, 44.027030072275814 64.70414201183432, 42.38000849942963 65.50295857988165, 41.778939843714106 66.30177514792899, 38.956586350185624 67.10059171597634, 40.99608342225009 67.89940828402366, 40.34992867151491 68.69822485207101, 36.94461763300113 69.49704142011834, 38.723836313202256 70.29585798816568, 40.81656240959391 71.09467455621302, 37.640482305029785 71.89349112426036, 37.82682303113564 72.6923076923077, 37.47690746289555 73.49112426035504, 35.66167313965805 74.28994082840237, 37.61196016090599 75.0887573964497, 40.246399080239485 75.88757396449704, 39.41942024215493 76.68639053254438, 40.29562149071679 77.48520710059172, 46.29737766226377 78.28402366863905, 43.98066682028392 79.0828402366864, 42.72138713761366 79.88165680473374, 41.09158148173082 80.68047337278107, 41.40244429756024 81.4792899408284, 42.258389405507494 82.27810650887574, 41.35679036675598 83.07692307692308, 43.44561589932827 83.87573964497041, 42.05225599892866 84.67455621301775, 39.877550298837704 85.4733727810651, 39.22934431374735 86.27218934911244, 41.05388511948455 87.07100591715975, 40.54160423815306 87.8698224852071, 41.840057184601406 88.66863905325444, 42.02779517002214 89.46745562130178, 40.72113735450797 90.26627218934911, 38.89524262682739 91.06508875739645, 39.68208482423671 91.8639053254438, 39.127772201602156 92.66272189349112, 39.21121467345104 93.46153846153845, 38.883835688579225 94.2603550295858, 38.92036583760401 95.05917159763314, 38.71149175483708 95.85798816568047, 41.643529627651596 96.65680473372781, 40.948904189307925 97.45562130177515, 41.630212153309145 98.2544378698225, 42.34064921742864 99.05325443786982, 43.76124876704966 99.85207100591715, 43.98931076728418 100.6508875739645, 43.917589513961694 101.44970414201183, 44.72676696368537 102.24852071005917, 45.094696318623235 103.04733727810651, 45.64297480191167 103.84615384615385, 45.80766844636293 104.64497041420118, 43.96235970800581 105.44378698224853, 43.28163901638176 106.24260355029585, 43.93715298776959 107.0414201183432, 41.539831199922325 107.84023668639053, 44.05183884655549 108.63905325443787, 43.41800195846512 109.43786982248521, 43.1592368917075 110.23668639053254, 42.25289341070862 111.03550295857988, 41.55778404991668 111.83431952662723, 42.20489866661803 112.63313609467457, 41.62523095460673 113.43195266272188, 42.10461934828958 114.23076923076923, 41.22242273721755 115.02958579881657, 40.0467700804397 115.82840236686391, 41.386172782442664 116.62721893491124, 39.332173176759675 117.42603550295858, 37.62831531514858 118.22485207100593, 37.747244008410135 119.02366863905324, 37.663717205280165 119.82248520710058, 38.713345051151094 120.62130177514793, 42.312034569783 121.42011834319527, 43.25357367149857 122.2189349112426, 50.0 123.01775147928994, 47.04506098905797 123.81656804733728, 47.55629146220455 124.61538461538463, 46.823200628376426 125.41420118343194, 46.825586800812104 126.21301775147928, 43.601632366718704 127.01183431952663, 39.98381626062941 127.81065088757396, 37.19071866689308 128.60946745562129, 37.96381172789653 129.40828402366864, 39.1397212865391 130.20710059171597, 36.61948413987091 131.0059171597633, 35.89434961729911 131.80473372781066, 34.60668580611605 132.60355029585799, 35.44614933580409 133.40236686390534, 34.61023507741541 134.20118343195267, 36.413109573321975" fill="none" stroke="#ff3a33" stroke-width="1.25"/>

</svg>