<?xml version="1.0" standalone="no"?>
<!DOCTYPE svg PUBLIC "-//W3C//DTD SVG 1.1//EN" "http://www.w3.org/Graphics/SVG/1.1/DTD/svg11.dtd">

<svg width="135" height="50" viewBox="0 0 135 50" preserveAspectRatio="none" 
  xmlns="http://www.w3.org/2000/svg"
  xmlns:xlink="http://www.w3.org/1999/xlink">


<polyline points="0.0, 41.71318000608364 0.7988165680473372, 45.07749025385049 1.5976331360946745, 44.02087565412429 2.396449704142012, 46.67252866486103 3.195266272189349, 44.3995776028606 3.994082840236686, 44.434296518195794 4.792899408284024, 43.05304086975747 5.591715976331361, 44.87794172006309 6.390532544378698, 45.63506320642053 7.189349112426036, 48.314018933100954 7.988165680473372, 45.73322721430826 8.78698224852071, 43.388618756034745 9.585798816568047, 42.90065445170125 10.384615384615385, 32.74897241306133 11.183431952662723, 42.11851086406655 11.982248520710058, 44.60923423803334 12.781065088757396, 48.668738021317296 13.579881656804734, 46.80306425691566 14.378698224852071, 44.24029665647526 15.177514792899409, 35.73437303540187 15.976331360946745, 36.796281187220195 16.775147928994084, 33.35467236485174 17.57396449704142, 31.741404778185707 18.37278106508876, 29.751513016665292 19.171597633136095, 31.535806256655135 19.970414201183434, 32.484524619794364 20.76923076923077, 30.708343702865378 21.56804733727811, 30.93679763496428 22.366863905325445, 32.51247132798725 23.16568047337278, 35.43811727383147 23.964497041420117, 40.128001876274524 24.763313609467456, 42.43062969570271 25.562130177514792, 40.80159051355518 26.36094674556213, 49.38446144685864 27.159763313609467, 45.82264078870429 27.958579881656807, 49.43663520493326 28.757396449704142, 45.56366439210803 29.55621301775148, 47.85074218244779 30.355029585798817, 50.0 31.153846153846157, 46.93758400251235 31.95266272189349, 43.888520340716795 32.751479289940825, 48.17885020961216 33.55029585798817, 48.7268962256608 34.349112426035504, 47.374684090401686 35.14792899408284, 48.10379423054215 35.94674556213018, 43.94124688736036 36.74556213017752, 42.31184689639402 37.54437869822485, 35.18656705557297 38.34319526627219, 41.06576218092357 39.142011834319526, 46.05283305431356 39.94082840236687, 45.18708772386412 40.7396449704142, 42.7633641544695 41.53846153846154, 44.110726495609455 42.337278106508876, 42.8950127173394 43.13609467455622, 39.39991881493468 43.93491124260355, 34.255598494258734 44.73372781065089, 28.629060990516393 45.532544378698226, 27.334207480838085 46.33136094674556, 32.14239415301147 47.1301775147929, 33.00994244936256 47.928994082840234, 34.87932884962445 48.72781065088758, 41.252576247839755 49.52662721893491, 37.076632325291136 50.32544378698225, 34.014124513336554 51.124260355029584, 37.122431129649556 51.92307692307693, 33.71045568835335 52.72189349112426, 33.4380789363817 53.5207100591716, 34.09978998795606 54.319526627218934, 29.818510132129315 55.11834319526627, 35.25144870701865 55.91715976331361, 34.64854199415509 56.71597633136094, 35.65003380571919 57.514792899408285, 33.70104972093735 58.31360946745562, 35.487668065834924 59.11242603550296, 40.42322229803589 59.91124260355029, 39.760735615522314 60.710059171597635, 39.703018666311955 61.50887573964497, 39.46393947455766 62.307692307692314, 37.60306021619767 63.10650887573964, 43.59725339452146 63.90532544378698, 45.306953570404445 64.70414201183432, 42.35650063266336 65.50295857988165, 41.16171327305359 66.30177514792899, 41.248678221701596 67.10059171597634, 43.25031863006629 67.89940828402366, 41.612627124068595 68.69822485207101, 39.89887264303299 69.49704142011834, 45.31708697079393 70.29585798816568, 42.77787641047138 71.09467455621302, 41.137756866031154 71.89349112426036, 41.57599694137773 72.6923076923077, 41.14732395058493 73.49112426035504, 39.828171217391294 74.28994082840237, 41.33343543270568 75.0887573964497, 44.60842496067914 75.88757396449704, 44.203609654482406 76.68639053254438, 43.08076058934876 77.48520710059172, 47.38020342345106 78.28402366863905, 45.35178884408574 79.0828402366864, 43.403906586720616 79.88165680473374, 40.4685512834521 80.68047337278107, 40.31410984620007 81.4792899408284, 40.80744591369253 82.27810650887574, 38.44359049488119 83.07692307692308, 40.53240162935895 83.87573964497041, 39.05174717881036 84.67455621301775, 38.79528058698122 85.4733727810651, 38.15907193919384 86.27218934911244, 38.917742903491025 87.07100591715975, 37.70866042976774 87.8698224852071, 38.596288632317965 88.66863905325444, 38.494869827732956 89.46745562130178, 37.62727056615873 90.26627218934911, 33.05688916578045 91.06508875739645, 33.75880566577548 91.8639053254438, 33.76758290026123 92.66272189349112, 33.786843483955046 93.46153846153845, 33.8889230902982 94.2603550295858, 33.78952854695911 95.05917159763314, 33.80766307191632 95.85798816568047, 33.51517601786324 96.65680473372781, 30.1450016389014 97.45562130177515, 26.92560047687879 98.2544378698225, 27.04813349543383 99.05325443786982, 28.454461094292334 99.85207100591715, 27.466589680116126 100.6508875739645, 25.888777972464577 101.44970414201183, 26.749798108160412 102.24852071005917, 28.808568283840195 103.04733727810651, 28.684324831989777 103.84615384615385, 27.655654258156314 104.64497041420118, 25.528178814616375 105.44378698224853, 24.541554633865985 106.24260355029585, 24.683745375279013 107.0414201183432, 20.19888459993899 107.84023668639053, 24.803467512411235 108.63905325443787, 25.089443436325592 109.43786982248521, 21.89201693852994 110.23668639053254, 21.8372519379026 111.03550295857988, 18.44869780615092 111.83431952662723, 14.822493635137812 112.63313609467457, 13.842660011666924 113.43195266272188, 15.307624634155111 114.23076923076923, 12.932349066815311 115.02958579881657, 12.202691943016312 115.82840236686391, 14.61145529609821 116.62721893491124, 16.292033113297936 117.42603550295858, 14.797858240006326 118.22485207100593, 14.391110574729671 119.02366863905324, 14.149802121861837 119.82248520710058, 13.290734953003241 120.62130177514793, 16.917024891429616 121.42011834319527, 15.774494198969293 122.2189349112426, 24.770033716525067 123.01775147928994, 22.05147429585307 123.81656804733728, 22.528482382432518 124.61538461538463, 20.77285845994357 125.41420118343194, 21.5265387158768 126.21301775147928, 14.080488590514214 127.01183431952663, 9.568925868445785 127.81065088757396, 5.68638165502916 128.60946745562129, 5.171035847442596 129.40828402366864, 6.708343995576074 130.20710059171597, 1.445714980225201 131.0059171597633, 0.11421870808596582 131.80473372781066, 0.0 132.60355029585799, 0.8210113251879007 133.40236686390534, 2.73562779432027 134.20118343195267, 0.45274100143553764" fill="none" stroke="#32ca5b" stroke-width="1.25"/>

</svg>