<?xml version="1.0" standalone="no"?>
<!DOCTYPE svg PUBLIC "-//W3C//DTD SVG 1.1//EN" "http://www.w3.org/Graphics/SVG/1.1/DTD/svg11.dtd">

<svg width="135" height="50" viewBox="0 0 135 50" preserveAspectRatio="none" 
  xmlns="http://www.w3.org/2000/svg"
  xmlns:xlink="http://www.w3.org/1999/xlink">


<polyline points="0.0, 23.1673266485019 0.7988165680473372, 25.653717861531923 1.5976331360946745, 23.137944111771006 2.396449704142012, 23.380738915023517 3.195266272189349, 22.183438574582087 3.994082840236686, 20.906804134416447 4.792899408284024, 18.715003826209905 5.591715976331361, 20.96102724605164 6.390532544378698, 22.5360754388885 7.189349112426036, 25.901574827210943 7.988165680473372, 19.86249672567128 8.78698224852071, 17.662646940985354 9.585798816568047, 20.309089799958794 10.384615384615385, 17.15182865333921 11.183431952662723, 28.928469040826588 11.982248520710058, 39.09998721490328 12.781065088757396, 41.08439878722887 13.579881656804734, 41.88856299081477 14.378698224852071, 37.55564014535307 15.177514792899409, 32.58384036286244 15.976331360946745, 29.848884442639196 16.775147928994084, 30.80570897853365 17.57396449704142, 28.260429919680064 18.37278106508876, 28.14383538604104 19.171597633136095, 26.554685831155666 19.970414201183434, 28.785815063897225 20.76923076923077, 27.45356946604462 21.56804733727811, 25.204421746868967 22.366863905325445, 27.327737456004737 23.16568047337278, 29.153985849139957 23.964497041420117, 31.024593893826285 24.763313609467456, 33.66076540263356 25.562130177514792, 33.15355562412613 26.36094674556213, 44.05365887173978 27.159763313609467, 39.843315537963605 27.958579881656807, 43.23088021233147 28.757396449704142, 39.6689030570219 29.55621301775148, 42.382963253606434 30.355029585798817, 48.566796916404165 31.153846153846157, 46.6457678075306 31.95266272189349, 43.38992153477978 32.751479289940825, 48.279522622551 33.55029585798817, 50.0 34.349112426035504, 47.15890376407575 35.14792899408284, 47.11461654239467 35.94674556213018, 40.25111517440668 36.74556213017752, 38.15888086949488 37.54437869822485, 37.084594738104876 38.34319526627219, 37.41688751537486 39.142011834319526, 43.63926665248034 39.94082840236687, 40.97503719638079 40.7396449704142, 35.21902361500458 41.53846153846154, 38.0771557355412 42.337278106508876, 35.27768427848497 43.13609467455622, 27.448260520148466 43.93491124260355, 27.94744391688802 44.73372781065089, 25.917416033387664 45.532544378698226, 25.21971668493645 46.33136094674556, 23.024247826113626 47.1301775147929, 24.442692067892832 47.928994082840234, 26.45447568823011 48.72781065088758, 31.23479448156143 49.52662721893491, 26.68028925597011 50.32544378698225, 26.453651667798734 51.124260355029584, 28.601927144832036 51.92307692307693, 25.558251752301032 52.72189349112426, 24.727456023760364 53.5207100591716, 26.94833910708578 54.319526627218934, 23.80302305712723 55.11834319526627, 28.37788211726668 55.91715976331361, 27.646720159480093 56.71597633136094, 30.781014768900324 57.514792899408285, 27.920782966530417 58.31360946745562, 29.424509864719383 59.11242603550296, 33.12935427463476 59.91124260355029, 35.180030053643975 60.710059171597635, 33.07138701170099 61.50887573964497, 32.67472018815974 62.307692307692314, 29.238218905724572 63.10650887573964, 34.06030251503535 63.90532544378698, 38.63434569529248 64.70414201183432, 34.1588687346961 65.50295857988165, 31.797549266624564 66.30177514792899, 31.421061062726423 67.10059171597634, 33.805788434443336 67.89940828402366, 29.88460402845371 68.69822485207101, 22.27663452006479 69.49704142011834, 26.14433735310073 70.29585798816568, 26.457834252543318 71.09467455621302, 21.959111965566237 71.89349112426036, 20.504413304342574 72.6923076923077, 17.921159394191903 73.49112426035504, 17.548044646722268 74.28994082840237, 23.298356720364595 75.0887573964497, 28.136521265932394 75.88757396449704, 24.75923558060877 76.68639053254438, 23.151007876229322 77.48520710059172, 30.70254834093744 78.28402366863905, 25.370926875931964 79.0828402366864, 21.348187325001053 79.88165680473374, 18.32131553719938 80.68047337278107, 16.138024367937533 81.4792899408284, 12.956686541549423 82.27810650887574, 7.279210631078915 83.07692307692308, 11.54045081156156 83.87573964497041, 8.685561802892952 84.67455621301775, 6.760865852290952 85.4733727810651, 8.322190031976682 86.27218934911244, 11.173057398062202 87.07100591715975, 11.611146035567128 87.8698224852071, 16.607465808408826 88.66863905325444, 4.7733400737213705 89.46745562130178, 7.074875329419659 90.26627218934911, 3.770333446666857 91.06508875739645, 4.657261603453446 91.8639053254438, 6.152685336419393 92.66272189349112, 8.933631597233187 93.46153846153845, 7.115621424113519 94.2603550295858, 9.438002321022783 95.05917159763314, 10.152007199206407 95.85798816568047, 12.14519130796366 96.65680473372781, 9.529054634498102 97.45562130177515, 8.145206918096013 98.2544378698225, 10.779662562403363 99.05325443786982, 12.793780095554657 99.85207100591715, 12.803891348221304 100.6508875739645, 11.491166376711872 101.44970414201183, 13.453738168517326 102.24852071005917, 17.195692516056177 103.04733727810651, 16.78914536030967 103.84615384615385, 17.03053083486554 104.64497041420118, 15.92932100146296 105.44378698224853, 14.600837705928255 106.24260355029585, 15.7912614456821 107.0414201183432, 13.271864970197415 107.84023668639053, 18.324472033153324 108.63905325443787, 19.34907766053001 109.43786982248521, 16.5680394461914 110.23668639053254, 16.54004618528896 111.03550295857988, 15.694209361586278 111.83431952662723, 17.19539849440387 112.63313609467457, 17.360745214406656 113.43195266272188, 16.120721547125314 114.23076923076923, 15.292705850238523 115.02958579881657, 15.321739609462634 115.82840236686391, 17.66337575589492 116.62721893491124, 17.10599015023868 117.42603550295858, 15.431589925191538 118.22485207100593, 14.680193681012321 119.02366863905324, 12.220140347477324 119.82248520710058, 10.527446794418548 120.62130177514793, 16.09447890454973 121.42011834319527, 16.083492999397368 122.2189349112426, 27.432167536295115 123.01775147928994, 22.296436778416123 123.81656804733728, 21.169951318430318 124.61538461538463, 19.376291244593425 125.41420118343194, 20.03321220257164 126.21301775147928, 15.736832039764256 127.01183431952663, 10.985734633250424 127.81065088757396, 8.895693237132889 128.60946745562129, 3.9275599496869753 129.40828402366864, 2.486939713399664 130.20710059171597, 0.0 131.0059171597633, 1.3681102411832524 131.80473372781066, 0.5509139569906673 132.60355029585799, 2.0246082999004154 133.40236686390534, 4.1881548468175485 134.20118343195267, 4.293698941227615" fill="none" stroke="#32ca5b" stroke-width="1.25"/>

</svg>