<?xml version="1.0" standalone="no"?>
<!DOCTYPE svg PUBLIC "-//W3C//DTD SVG 1.1//EN" "http://www.w3.org/Graphics/SVG/1.1/DTD/svg11.dtd">

<svg width="135" height="50" viewBox="0 0 135 50" preserveAspectRatio="none" 
  xmlns="http://www.w3.org/2000/svg"
  xmlns:xlink="http://www.w3.org/1999/xlink">


<polyline points="0.0, 45.04065218327303 0.7988165680473372, 45.985694406067054 1.5976331360946745, 44.67431978316247 2.396449704142012, 45.01599942672412 3.195266272189349, 45.22519371497113 3.994082840236686, 45.094751280362125 4.792899408284024, 46.62728875963829 5.591715976331361, 46.925162731456275 6.390532544378698, 44.43081453472254 7.189349112426036, 43.78373204623117 7.988165680473372, 43.26651570934019 8.78698224852071, 40.84409282335265 9.585798816568047, 39.541484171502084 10.384615384615385, 36.70790398265178 11.183431952662723, 39.22855311629059 11.982248520710058, 41.377035711042424 12.781065088757396, 42.7305678215523 13.579881656804734, 44.74877081431962 14.378698224852071, 47.476067486091026 15.177514792899409, 44.98024490696833 15.976331360946745, 44.76015375551988 16.775147928994084, 42.455650046507955 17.57396449704142, 42.43928330414862 18.37278106508876, 40.281207918514895 19.171597633136095, 41.609709452197606 19.970414201183434, 40.523137638244904 20.76923076923077, 41.29914335094311 21.56804733727811, 40.72009553381978 22.366863905325445, 42.41607794578078 23.16568047337278, 42.475439139393636 23.964497041420117, 42.623047358072164 24.763313609467456, 43.10194403085997 25.562130177514792, 43.67400945524806 26.36094674556213, 44.45232086831381 27.159763313609467, 43.070311784628984 27.958579881656807, 44.20743037366898 28.757396449704142, 43.81380455399513 29.55621301775148, 45.645306352540075 30.355029585798817, 48.009190465776136 31.153846153846157, 47.24152497303823 31.95266272189349, 47.251960909470206 32.751479289940825, 47.3150924904876 33.55029585798817, 47.26440087779606 34.349112426035504, 47.08370391960795 35.14792899408284, 46.810710778076334 35.94674556213018, 46.73397660731867 36.74556213017752, 48.63397677596474 37.54437869822485, 48.128414143097 38.34319526627219, 49.1072737991001 39.142011834319526, 50.0 39.94082840236687, 49.579478539449475 40.7396449704142, 48.802129578777794 41.53846153846154, 48.65192499882054 42.337278106508876, 46.54567044574635 43.13609467455622, 47.78702731433389 43.93491124260355, 46.931358331693126 44.73372781065089, 42.884471424862234 45.532544378698226, 42.323539198186985 46.33136094674556, 43.519148810476466 47.1301775147929, 41.140175441598245 47.928994082840234, 40.578660470641246 48.72781065088758, 43.583666372868144 49.52662721893491, 43.79906634964887 50.32544378698225, 44.089756235776726 51.124260355029584, 45.174468139520314 51.92307692307693, 37.10396787639985 52.72189349112426, 36.40598981074146 53.5207100591716, 41.63892192605479 54.319526627218934, 40.70804325293363 55.11834319526627, 40.38529336060465 55.91715976331361, 40.76025855891958 56.71597633136094, 43.00440015775271 57.514792899408285, 43.57444325872796 58.31360946745562, 43.874281693721095 59.11242603550296, 45.12419774299229 59.91124260355029, 46.824673136407704 60.710059171597635, 46.615314978027776 61.50887573964497, 47.37976869264877 62.307692307692314, 46.905023121165954 63.10650887573964, 45.705977539613386 63.90532544378698, 45.504222861313515 64.70414201183432, 45.193999434572085 65.50295857988165, 42.533137972416405 66.30177514792899, 42.95937504742218 67.10059171597634, 43.044786963453674 67.89940828402366, 42.77505663161065 68.69822485207101, 43.1669974523085 69.49704142011834, 44.37852784867214 70.29585798816568, 43.6562955330884 71.09467455621302, 43.62692533637818 71.89349112426036, 43.170704207740755 72.6923076923077, 43.521762955234024 73.49112426035504, 43.11806705752717 74.28994082840237, 43.467262187110805 75.0887573964497, 42.9860615101164 75.88757396449704, 41.100685681722304 76.68639053254438, 41.15159613652185 77.48520710059172, 43.544728165414384 78.28402366863905, 43.830338862075145 79.0828402366864, 43.40223415296558 79.88165680473374, 43.433639381854356 80.68047337278107, 43.13057908078051 81.4792899408284, 43.4152874152303 82.27810650887574, 42.55129642330551 83.07692307692308, 40.768666652734645 83.87573964497041, 37.74130648704839 84.67455621301775, 38.48288203521033 85.4733727810651, 38.07684066318292 86.27218934911244, 40.208115070850894 87.07100591715975, 40.50877460891805 87.8698224852071, 40.87940441615486 88.66863905325444, 42.59012130343829 89.46745562130178, 41.95543522156342 90.26627218934911, 40.79116359114568 91.06508875739645, 40.72764143925347 91.8639053254438, 37.51809765267732 92.66272189349112, 37.38758732104695 93.46153846153845, 38.35244976550991 94.2603550295858, 37.67715973246568 95.05917159763314, 37.08747571705928 95.85798816568047, 36.56269487918384 96.65680473372781, 36.99675365666968 97.45562130177515, 37.06153949849913 98.2544378698225, 37.42169605818437 99.05325443786982, 37.94060178934664 99.85207100591715, 38.06848836731677 100.6508875739645, 37.860603198177714 101.44970414201183, 37.90032031129267 102.24852071005917, 38.23660228646743 103.04733727810651, 37.62767031573405 103.84615384615385, 32.418172295776884 104.64497041420118, 36.14276599028328 105.44378698224853, 34.7169548141223 106.24260355029585, 32.76890725326972 107.0414201183432, 30.084735019547654 107.84023668639053, 27.508715696268254 108.63905325443787, 26.45719609663419 109.43786982248521, 25.463661662642444 110.23668639053254, 22.077702018401606 111.03550295857988, 16.96922808074118 111.83431952662723, 20.002535187977262 112.63313609467457, 25.36693811685914 113.43195266272188, 26.142951923060675 114.23076923076923, 26.530210117726654 115.02958579881657, 26.819275636548596 115.82840236686391, 27.103166578917964 116.62721893491124, 27.282344327423868 117.42603550295858, 27.76833344938699 118.22485207100593, 27.459719887689815 119.02366863905324, 26.91164854534013 119.82248520710058, 26.03911203785544 120.62130177514793, 20.48927620201361 121.42011834319527, 10.46125714365583 122.2189349112426, 21.920962464449953 123.01775147928994, 13.597014620295313 123.81656804733728, 15.742410030349548 124.61538461538463, 18.597866251238965 125.41420118343194, 13.761683948683467 126.21301775147928, 14.856910764555609 127.01183431952663, 13.097633274212757 127.81065088757396, 11.198580046868504 128.60946745562129, 6.603835665725989 129.40828402366864, 1.5027946734074207 130.20710059171597, 0.0 131.0059171597633, 3.271445517733452 131.80473372781066, 6.9282364945645405 132.60355029585799, 12.602248360347051 133.40236686390534, 15.977079338845288 134.20118343195267, 14.972623514549946" fill="none" stroke="#32ca5b" stroke-width="1.25"/>

</svg>