<?xml version="1.0" standalone="no"?>
<!DOCTYPE svg PUBLIC "-//W3C//DTD SVG 1.1//EN" "http://www.w3.org/Graphics/SVG/1.1/DTD/svg11.dtd">

<svg width="135" height="50" viewBox="0 0 135 50" preserveAspectRatio="none" 
  xmlns="http://www.w3.org/2000/svg"
  xmlns:xlink="http://www.w3.org/1999/xlink">


<polyline points="0.0, 28.927868778688275 0.7988165680473372, 29.733844948680073 1.5976331360946745, 29.487407425257356 2.396449704142012, 29.427853912308166 3.195266272189349, 29.35772976161031 3.994082840236686, 28.87691150082412 4.792899408284024, 28.885011865110254 5.591715976331361, 29.932882647255937 6.390532544378698, 31.730023179843396 7.189349112426036, 30.973601602229788 7.988165680473372, 31.6570038164379 8.78698224852071, 29.76649513688861 9.585798816568047, 32.53322559003105 10.384615384615385, 28.582905291287748 11.183431952662723, 33.02526663522487 11.982248520710058, 34.805699547352624 12.781065088757396, 36.32171890991614 13.579881656804734, 27.491561097205587 14.378698224852071, 22.979150026318166 15.177514792899409, 19.15022496425905 15.976331360946745, 22.051835229253363 16.775147928994084, 23.288495792110687 17.57396449704142, 23.14711626360581 18.37278106508876, 23.670892931751037 19.171597633136095, 25.885383382904315 19.970414201183434, 25.764839873629384 20.76923076923077, 23.78331596978426 21.56804733727811, 28.912849382071148 22.366863905325445, 29.63424970726661 23.16568047337278, 29.628642902822598 23.964497041420117, 31.47674568503462 24.763313609467456, 32.57112620391143 25.562130177514792, 29.869965592048292 26.36094674556213, 32.807629982140504 27.159763313609467, 31.353099626253506 27.958579881656807, 34.09301699868638 28.757396449704142, 32.89756784797391 29.55621301775148, 35.40441240156016 30.355029585798817, 35.96206408649512 31.153846153846157, 33.680802954397805 31.95266272189349, 32.72146165063609 32.751479289940825, 37.45436748258908 33.55029585798817, 39.9108346586165 34.349112426035504, 38.75340107876958 35.14792899408284, 40.318342767272625 35.94674556213018, 36.88158228703148 36.74556213017752, 37.10581456026741 37.54437869822485, 34.47252287367922 38.34319526627219, 35.26863749638285 39.142011834319526, 40.79806556245893 39.94082840236687, 38.74968819260785 40.7396449704142, 36.53822604603493 41.53846153846154, 37.043205059136326 42.337278106508876, 38.09969699237076 43.13609467455622, 36.928541460073646 43.93491124260355, 38.350378211474585 44.73372781065089, 36.85630591013695 45.532544378698226, 36.70251765873823 46.33136094674556, 37.46787254839152 47.1301775147929, 36.46474967132322 47.928994082840234, 36.769775514519644 48.72781065088758, 37.97745354472072 49.52662721893491, 37.6647008583468 50.32544378698225, 38.05341922573772 51.124260355029584, 40.5410851331427 51.92307692307693, 40.59082773120079 52.72189349112426, 39.24014778612664 53.5207100591716, 40.28951351067895 54.319526627218934, 41.37885895999242 55.11834319526627, 44.00080037552827 55.91715976331361, 42.56059372258756 56.71597633136094, 44.986584854762384 57.514792899408285, 44.662242998956565 58.31360946745562, 44.66519573677022 59.11242603550296, 46.085234417254846 59.91124260355029, 46.39922834988804 60.710059171597635, 45.42650130798471 61.50887573964497, 44.67321057319108 62.307692307692314, 46.03026675757547 63.10650887573964, 47.00022552878125 63.90532544378698, 48.62783674171429 64.70414201183432, 47.48042610952923 65.50295857988165, 48.452481396059696 66.30177514792899, 47.744052936507416 67.10059171597634, 50.0 67.89940828402366, 49.52772135511416 68.69822485207101, 45.16069332273652 69.49704142011834, 41.29845993919704 70.29585798816568, 40.17297532107893 71.09467455621302, 39.976399507076415 71.89349112426036, 38.09083761890646 72.6923076923077, 34.997016580987115 73.49112426035504, 34.60828562717325 74.28994082840237, 33.56294016714123 75.0887573964497, 36.97683732156146 75.88757396449704, 37.71166052280205 76.68639053254438, 37.80266033962633 77.48520710059172, 39.69887499290129 78.28402366863905, 38.178680448267365 79.0828402366864, 37.87621617124417 79.88165680473374, 37.57274182125876 80.68047337278107, 37.96393704686992 81.4792899408284, 38.170917313686836 82.27810650887574, 38.035295984369725 83.07692307692308, 40.45323230048129 83.87573964497041, 38.25920875794988 84.67455621301775, 33.91088788531887 85.4733727810651, 26.163715804597352 86.27218934911244, 27.238332731081528 87.07100591715975, 28.757289215119762 87.8698224852071, 29.175382310075975 88.66863905325444, 31.51614719119934 89.46745562130178, 30.894866460775976 90.26627218934911, 30.113605900747835 91.06508875739645, 30.686038265975725 91.8639053254438, 30.67807270502523 92.66272189349112, 30.24267038606927 93.46153846153845, 31.16266151833061 94.2603550295858, 32.5797027000209 95.05917159763314, 33.080050300161474 95.85798816568047, 32.828559926264354 96.65680473372781, 31.63624514623905 97.45562130177515, 31.074241122375845 98.2544378698225, 29.699923679766155 99.05325443786982, 30.54725746447376 99.85207100591715, 30.905662646954884 100.6508875739645, 31.29402268533688 101.44970414201183, 32.37469023386797 102.24852071005917, 33.582794970902576 103.04733727810651, 33.47859133969494 103.84615384615385, 32.051613059825264 104.64497041420118, 31.31624790006696 105.44378698224853, 30.98513334132496 106.24260355029585, 31.825227763411952 107.0414201183432, 31.060017132104743 107.84023668639053, 31.10983058150546 108.63905325443787, 32.1421576601671 109.43786982248521, 32.74321895630136 110.23668639053254, 30.040706246115494 111.03550295857988, 28.735965750167274 111.83431952662723, 25.95390187567605 112.63313609467457, 25.398288333674678 113.43195266272188, 24.699173017895664 114.23076923076923, 24.2269046896791 115.02958579881657, 23.524613113068003 115.82840236686391, 20.275159667044036 116.62721893491124, 20.48402847088943 117.42603550295858, 20.62342813461377 118.22485207100593, 21.15504526880852 119.02366863905324, 19.673987437932837 119.82248520710058, 19.191698225656566 120.62130177514793, 19.66363446092828 121.42011834319527, 18.23375061894599 122.2189349112426, 24.06814961623312 123.01775147928994, 23.068854555425457 123.81656804733728, 20.173387223403118 124.61538461538463, 20.07126013618153 125.41420118343194, 20.3285114542106 126.21301775147928, 15.904648645315156 127.01183431952663, 11.976492101294339 127.81065088757396, 10.822494168175496 128.60946745562129, 10.969545032302678 129.40828402366864, 13.772412050647729 130.20710059171597, 8.902380565482897 131.0059171597633, 7.954705941165237 131.80473372781066, 4.048738544079825 132.60355029585799, 0.0 133.40236686390534, 1.9172258950772403 134.20118343195267, 2.054082973614496" fill="none" stroke="#32ca5b" stroke-width="1.25"/>

</svg>