<?xml version="1.0" standalone="no"?>
<!DOCTYPE svg PUBLIC "-//W3C//DTD SVG 1.1//EN" "http://www.w3.org/Graphics/SVG/1.1/DTD/svg11.dtd">

<svg width="135" height="50" viewBox="0 0 135 50" preserveAspectRatio="none" 
  xmlns="http://www.w3.org/2000/svg"
  xmlns:xlink="http://www.w3.org/1999/xlink">


<polyline points="0.0, 46.42270594198325 0.7988165680473372, 45.82913952490727 1.5976331360946745, 44.79683750150425 2.396449704142012, 41.85085220468691 3.195266272189349, 50.0 3.994082840236686, 46.558836194913304 4.792899408284024, 46.72237156545534 5.591715976331361, 39.86153012807796 6.390532544378698, 41.01726749284719 7.189349112426036, 37.68764708291391 7.988165680473372, 39.66497530437089 8.78698224852071, 32.15695334852622 9.585798816568047, 28.425304834872527 10.384615384615385, 29.608222669548116 11.183431952662723, 26.499207984834584 11.982248520710058, 32.091933885401936 12.781065088757396, 34.0080389920772 13.579881656804734, 34.42116489054515 14.378698224852071, 20.805949008787856 15.177514792899409, 25.74678744741849 15.976331360946745, 20.626381003133027 16.775147928994084, 20.356922303524865 17.57396449704142, 16.544883310983767 18.37278106508876, 3.8978508858982712 19.171597633136095, 11.753522675988377 19.970414201183434, 9.535206054783425 20.76923076923077, 17.595516793595696 21.56804733727811, 7.309223383735752 22.366863905325445, 3.0138973564557547 23.16568047337278, 2.6027793401026917 23.964497041420117, 0.0 24.763313609467456, 3.122681597459458 25.562130177514792, 1.3124669852003734 26.36094674556213, 6.7589101643520815 27.159763313609467, 16.415869091244982 27.958579881656807, 14.10875543171635 28.757396449704142, 16.114497421486142 29.55621301775148, 13.947751484115367 30.355029585798817, 11.536700220343603 31.153846153846157, 14.752038416832347 31.95266272189349, 14.08018783842546 32.751479289940825, 4.495859379275036 33.55029585798817, 8.278886536730127 34.349112426035504, 13.963841300657661 35.14792899408284, 13.669166340079315 35.94674556213018, 16.21239007870262 36.74556213017752, 8.641658425064023 37.54437869822485, 7.626355982281474 38.34319526627219, 3.9150242132099797 39.142011834319526, 11.339609343778454 39.94082840236687, 15.35890154922056 40.7396449704142, 16.674097920576425 41.53846153846154, 16.28774915440366 42.337278106508876, 15.788298760908553 43.13609467455622, 16.574430397888268 43.93491124260355, 10.38572971699978 44.73372781065089, 9.09328101849185 45.532544378698226, 6.553621613000406 46.33136094674556, 3.091170486959534 47.1301775147929, 3.7916602338779493 47.928994082840234, 3.0039677212792606 48.72781065088758, 4.162772778587262 49.52662721893491, 5.868173831274945 50.32544378698225, 4.479862173098451 51.124260355029584, 7.0890789433377845 51.92307692307693, 10.085962641614751 52.72189349112426, 6.431233717274896 53.5207100591716, 5.923162853998394 54.319526627218934, 9.480874587870348 55.11834319526627, 5.436431088787376 55.91715976331361, 9.36683041119864 56.71597633136094, 12.167488609595864 57.514792899408285, 14.41890618569718 58.31360946745562, 12.81763530061176 59.11242603550296, 17.22378599289149 59.91124260355029, 22.6838678924093 60.710059171597635, 19.479694737506524 61.50887573964497, 17.07045758994004 62.307692307692314, 18.28865458245155 63.10650887573964, 16.985940233509307 63.90532544378698, 24.48647848564918 64.70414201183432, 22.83458002161904 65.50295857988165, 20.917828562166793 66.30177514792899, 19.529155558091166 67.10059171597634, 18.186161764066185 67.89940828402366, 15.77861413424943 68.69822485207101, 13.061751355188559 69.49704142011834, 11.76022111834655 70.29585798816568, 22.228796403455448 71.09467455621302, 20.24126184500975 71.89349112426036, 18.89709476557994 72.6923076923077, 22.72378713526559 73.49112426035504, 21.550252052611025 74.28994082840237, 19.10088969899694 75.0887573964497, 21.4129515427245 75.88757396449704, 23.936059992011945 76.68639053254438, 27.042475364203653 77.48520710059172, 24.27446048377554 78.28402366863905, 32.72224169887911 79.0828402366864, 30.156526276436935 79.88165680473374, 27.473094574629965 80.68047337278107, 25.30070695308495 81.4792899408284, 25.597727189791584 82.27810650887574, 27.988411293892746 83.07692307692308, 26.505710202383582 83.87573964497041, 32.90647595734711 84.67455621301775, 29.441904648641177 85.4733727810651, 32.47130527603425 86.27218934911244, 30.678241115695393 87.07100591715975, 35.28302640823113 87.8698224852071, 34.10977491301723 88.66863905325444, 36.97658839522779 89.46745562130178, 37.52662020978143 90.26627218934911, 35.71609397314237 91.06508875739645, 29.534202186546928 91.8639053254438, 37.40675352491052 92.66272189349112, 35.03864746562046 93.46153846153845, 35.479671701816216 94.2603550295858, 32.55604573337646 95.05917159763314, 33.62084127784011 95.85798816568047, 34.7182089658015 96.65680473372781, 32.38074029041785 97.45562130177515, 28.85891010087109 98.2544378698225, 33.495617912719844 99.05325443786982, 30.05736865083782 99.85207100591715, 29.839232792807213 100.6508875739645, 30.773049201493656 101.44970414201183, 31.301972486606083 102.24852071005917, 31.18027427736359 103.04733727810651, 31.505394300826232 103.84615384615385, 32.51527012701264 104.64497041420118, 36.434613684396176 105.44378698224853, 33.01314168252987 106.24260355029585, 32.57408380720336 107.0414201183432, 32.948313591317046 107.84023668639053, 30.578456270859473 108.63905325443787, 32.764218141271044 109.43786982248521, 33.96568401930442 110.23668639053254, 32.273420980108014 111.03550295857988, 31.956271599724673 111.83431952662723, 29.40335574323163 112.63313609467457, 34.63430364976941 113.43195266272188, 31.69376817482289 114.23076923076923, 35.53361700298267 115.02958579881657, 32.84864703278759 115.82840236686391, 32.392921625378115 116.62721893491124, 36.06216930242084 117.42603550295858, 35.04979257876361 118.22485207100593, 31.16948892320138 119.02366863905324, 29.758302552615028 119.82248520710058, 29.619239035995026 120.62130177514793, 28.257575946094942 121.42011834319527, 31.600223478659384 122.2189349112426, 28.540189738735243 123.01775147928994, 34.32606238047027 123.81656804733728, 27.80804823441365 124.61538461538463, 26.23434403370447 125.41420118343194, 26.194943275585352 126.21301775147928, 23.87361245187228 127.01183431952663, 18.04240064946122 127.81065088757396, 11.836916471706846 128.60946745562129, 8.969194276928507 129.40828402366864, 6.704773157527271 130.20710059171597, 6.893393893621096 131.0059171597633, 3.9115104223634614 131.80473372781066, 6.396444207807163 132.60355029585799, 3.404264134551532 133.40236686390534, 0.1529899487014915 134.20118343195267, 3.0848248611326627" fill="none" stroke="#32ca5b" stroke-width="1.25"/>

</svg>