<?xml version="1.0" standalone="no"?>
<!DOCTYPE svg PUBLIC "-//W3C//DTD SVG 1.1//EN" "http://www.w3.org/Graphics/SVG/1.1/DTD/svg11.dtd">

<svg width="135" height="50" viewBox="0 0 135 50" preserveAspectRatio="none" 
  xmlns="http://www.w3.org/2000/svg"
  xmlns:xlink="http://www.w3.org/1999/xlink">


<polyline points="0.0, 0.0 0.7988165680473372, 2.5815841170880516 1.5976331360946745, 2.7274271791295375 2.396449704142012, 3.437474751895896 3.195266272189349, 5.283550383681281 3.994082840236686, 2.7051014390838812 4.792899408284024, 1.363226115539901 5.591715976331361, 0.6139236957251454 6.390532544378698, 1.1633174483865174 7.189349112426036, 2.7369191261501653 7.988165680473372, 4.944991233101934 8.78698224852071, 2.3600467238540057 9.585798816568047, 3.050713414532739 10.384615384615385, 6.383565808654222 11.183431952662723, 2.7400665578394063 11.982248520710058, 8.642770319057421 12.781065088757396, 14.893129292392034 13.579881656804734, 19.914991636144155 14.378698224852071, 19.881756755864874 15.177514792899409, 20.292019591374206 15.976331360946745, 18.419319609566706 16.775147928994084, 19.315927542174666 17.57396449704142, 16.03470153935399 18.37278106508876, 19.195827325896406 19.171597633136095, 21.648097547325527 19.970414201183434, 20.14718632163718 20.76923076923077, 19.512925264678145 21.56804733727811, 20.66032195474637 22.366863905325445, 22.54269040648693 23.16568047337278, 26.79644920572007 23.964497041420117, 28.125343811972055 24.763313609467456, 30.577571924493935 25.562130177514792, 28.613314743224073 26.36094674556213, 27.255397109154718 27.159763313609467, 31.595082913376082 27.958579881656807, 29.314043400335105 28.757396449704142, 31.480688474316594 29.55621301775148, 31.288867167795303 30.355029585798817, 39.127641553923645 31.153846153846157, 37.30016928957655 31.95266272189349, 36.706468909256934 32.751479289940825, 36.81664182471385 33.55029585798817, 40.815496589940324 34.349112426035504, 41.47352668161318 35.14792899408284, 41.02029114495783 35.94674556213018, 40.844096651349524 36.74556213017752, 36.78157934114283 37.54437869822485, 35.10912473380702 38.34319526627219, 34.83812456833569 39.142011834319526, 35.83510253308489 39.94082840236687, 36.96670200269786 40.7396449704142, 35.977291648006606 41.53846153846154, 36.208831471512696 42.337278106508876, 34.62112961422943 43.13609467455622, 33.68651883138063 43.93491124260355, 33.04072431613597 44.73372781065089, 30.563064877972558 45.532544378698226, 27.949466387756445 46.33136094674556, 27.466140907910773 47.1301775147929, 29.666195358450626 47.928994082840234, 28.845802087408757 48.72781065088758, 32.80628879551021 49.52662721893491, 35.36005602817821 50.32544378698225, 33.774660815469666 51.124260355029584, 32.17796012190627 51.92307692307693, 32.267162274967156 52.72189349112426, 29.32967461444413 53.5207100591716, 30.38008168800637 54.319526627218934, 32.6454855788533 55.11834319526627, 31.223814723980958 55.91715976331361, 33.76310949064255 56.71597633136094, 33.13261749265706 57.514792899408285, 33.56901495580123 58.31360946745562, 32.437012729271395 59.11242603550296, 32.932145580520995 59.91124260355029, 35.16272815015023 60.710059171597635, 36.4200883128212 61.50887573964497, 37.50035468934532 62.307692307692314, 38.58002209559429 63.10650887573964, 36.78068852248225 63.90532544378698, 37.83344295387218 64.70414201183432, 40.72260744475632 65.50295857988165, 40.159225487747854 66.30177514792899, 38.46547543934275 67.10059171597634, 38.42429970984483 67.89940828402366, 38.78371191614059 68.69822485207101, 38.96180516141335 69.49704142011834, 39.351505864477204 70.29585798816568, 40.66991783302211 71.09467455621302, 44.54332934192824 71.89349112426036, 43.039408189539806 72.6923076923077, 42.34924670222849 73.49112426035504, 43.7256514827017 74.28994082840237, 43.66966447256022 75.0887573964497, 44.60712961725731 75.88757396449704, 44.26406818623021 76.68639053254438, 44.80063107121187 77.48520710059172, 45.318207287562124 78.28402366863905, 50.0 79.0828402366864, 47.427994123318626 79.88165680473374, 45.96426341632174 80.68047337278107, 44.44636132707843 81.4792899408284, 42.87962532122883 82.27810650887574, 44.85575560117097 83.07692307692308, 42.64984418732099 83.87573964497041, 42.10351351718263 84.67455621301775, 41.05010997718857 85.4733727810651, 39.535272158786185 86.27218934911244, 35.53986931786308 87.07100591715975, 37.43501370208903 87.8698224852071, 36.85189381132555 88.66863905325444, 37.113240565602034 89.46745562130178, 37.63881118667364 90.26627218934911, 34.91811876096516 91.06508875739645, 34.86750610719109 91.8639053254438, 34.952325805412926 92.66272189349112, 35.52481658235468 93.46153846153845, 36.11038350196957 94.2603550295858, 36.53297613023774 95.05917159763314, 35.342535311884944 95.85798816568047, 35.303923303776074 96.65680473372781, 35.376416314414996 97.45562130177515, 34.63735156062841 98.2544378698225, 31.7702872606707 99.05325443786982, 31.746672241209197 99.85207100591715, 31.223264313393457 100.6508875739645, 30.229876674391488 101.44970414201183, 29.527712694696074 102.24852071005917, 31.670090360662474 103.04733727810651, 34.344977418690334 103.84615384615385, 31.610651020706076 104.64497041420118, 35.22926643199895 105.44378698224853, 34.75636700309243 106.24260355029585, 34.02464719039817 107.0414201183432, 35.363424801129455 107.84023668639053, 34.867184190815124 108.63905325443787, 37.469376163996024 109.43786982248521, 38.04244334477732 110.23668639053254, 37.60013260910166 111.03550295857988, 38.27986026032957 111.83431952662723, 36.80911899220515 112.63313609467457, 35.50718653854742 113.43195266272188, 32.466472677341436 114.23076923076923, 32.777529772752445 115.02958579881657, 30.755258342421183 115.82840236686391, 25.39821851074706 116.62721893491124, 28.561036926814094 117.42603550295858, 30.385230748668214 118.22485207100593, 28.823888391620617 119.02366863905324, 28.600100716877158 119.82248520710058, 29.494706926850213 120.62130177514793, 29.776326231831646 121.42011834319527, 33.2071215253958 122.2189349112426, 34.807790846910585 123.01775147928994, 39.014514990333154 123.81656804733728, 38.29338151695619 124.61538461538463, 40.80237979792066 125.41420118343194, 39.90625187066601 126.21301775147928, 41.58475738177542 127.01183431952663, 38.16443099135129 127.81065088757396, 36.49553203331764 128.60946745562129, 31.912318804596644 129.40828402366864, 30.552031372670747 130.20710059171597, 27.18155231539126 131.0059171597633, 18.714011932534728 131.80473372781066, 15.661070167702897 132.60355029585799, 10.564537893008884 133.40236686390534, 13.736137544689777 134.20118343195267, 6.57380477683886" fill="none" stroke="#ff3a33" stroke-width="1.25"/>

</svg>