<?xml version="1.0" standalone="no"?>
<!DOCTYPE svg PUBLIC "-//W3C//DTD SVG 1.1//EN" "http://www.w3.org/Graphics/SVG/1.1/DTD/svg11.dtd">

<svg width="135" height="50" viewBox="0 0 135 50" preserveAspectRatio="none" 
  xmlns="http://www.w3.org/2000/svg"
  xmlns:xlink="http://www.w3.org/1999/xlink">


<polyline points="0.0, 5.265821561931321 0.7988165680473372, 6.7905482078995 1.5976331360946745, 4.669349381398365 2.396449704142012, 5.512718405782714 3.195266272189349, 5.446921668500547 3.994082840236686, 1.7305966669847148 4.792899408284024, 1.5147628861717573 5.591715976331361, 1.0538433535299847 6.390532544378698, 2.1763128243041394 7.189349112426036, 4.331566536210424 7.988165680473372, 13.22847501005853 8.78698224852071, 0.0 9.585798816568047, 2.5742287342917924 10.384615384615385, 16.855586221945675 11.183431952662723, 4.564681355892135 11.982248520710058, 14.364449138141818 12.781065088757396, 13.409239420822988 13.579881656804734, 18.20628104654065 14.378698224852071, 19.985488478309694 15.177514792899409, 11.263645992003749 15.976331360946745, 13.387924854715969 16.775147928994084, 15.504382219602345 17.57396449704142, 15.245909150499978 18.37278106508876, 15.900020926598476 19.171597633136095, 18.00776760081807 19.970414201183434, 18.723836499118356 20.76923076923077, 19.087646665791727 21.56804733727811, 20.1001004809306 22.366863905325445, 22.07620841119012 23.16568047337278, 23.504363448605087 23.964497041420117, 22.30436377944263 24.763313609467456, 23.33204749069948 25.562130177514792, 22.19343385182789 26.36094674556213, 31.961258628695187 27.159763313609467, 27.63684558340436 27.958579881656807, 29.190010971233004 28.757396449704142, 28.317102053047833 29.55621301775148, 32.89364248076814 30.355029585798817, 33.480121159019944 31.153846153846157, 34.30443750577554 31.95266272189349, 33.03295234155386 32.751479289940825, 35.30896132371852 33.55029585798817, 38.28699702510264 34.349112426035504, 38.346764714008344 35.14792899408284, 39.27178682512136 35.94674556213018, 36.89349212099119 36.74556213017752, 35.63230053852381 37.54437869822485, 36.07739070160216 38.34319526627219, 37.676685636732685 39.142011834319526, 39.56650983423724 39.94082840236687, 40.136494715870704 40.7396449704142, 39.38677568306688 41.53846153846154, 42.31143905848398 42.337278106508876, 41.64165186154469 43.13609467455622, 36.6716475560283 43.93491124260355, 35.342677549289526 44.73372781065089, 33.34243166439669 45.532544378698226, 31.664524644544674 46.33136094674556, 40.29430838024409 47.1301775147929, 35.68170423890326 47.928994082840234, 42.70275969997307 48.72781065088758, 43.88185514751736 49.52662721893491, 42.817515719193175 50.32544378698225, 43.04799935407956 51.124260355029584, 44.153820464829664 51.92307692307693, 44.10614308406031 52.72189349112426, 44.94124039024752 53.5207100591716, 42.030097428503886 54.319526627218934, 45.387792425832934 55.11834319526627, 41.162100700011145 55.91715976331361, 41.54343976148934 56.71597633136094, 42.71583471526821 57.514792899408285, 41.195458773473234 58.31360946745562, 42.95965708137193 59.11242603550296, 44.86316530013709 59.91124260355029, 46.45028623272036 60.710059171597635, 43.84048029956273 61.50887573964497, 41.36206707883594 62.307692307692314, 39.333137515407486 63.10650887573964, 43.78980819575121 63.90532544378698, 46.12977967676346 64.70414201183432, 46.33515708234001 65.50295857988165, 46.36121515881149 66.30177514792899, 45.22478061426883 67.10059171597634, 45.28103012925358 67.89940828402366, 42.091815742242595 68.69822485207101, 43.43563049945305 69.49704142011834, 43.92991371339754 70.29585798816568, 43.77165520868383 71.09467455621302, 42.29503293510261 71.89349112426036, 40.55635816467218 72.6923076923077, 38.47330198955827 73.49112426035504, 36.76808405327851 74.28994082840237, 39.361826644099274 75.0887573964497, 43.97170988590711 75.88757396449704, 44.94057975960047 76.68639053254438, 44.329193848671636 77.48520710059172, 46.84219218004872 78.28402366863905, 45.73287816565971 79.0828402366864, 44.42846711835685 79.88165680473374, 50.0 80.68047337278107, 48.935084337946755 81.4792899408284, 40.4919077956759 82.27810650887574, 39.5233851543386 83.07692307692308, 39.14950310128335 83.87573964497041, 37.3012929348738 84.67455621301775, 47.94607416778487 85.4733727810651, 32.99474623342907 86.27218934911244, 34.2117211676815 87.07100591715975, 31.284796917594242 87.8698224852071, 36.42738491773831 88.66863905325444, 36.38637337620851 89.46745562130178, 44.76929494313694 90.26627218934911, 31.523589333447394 91.06508875739645, 34.48867110224771 91.8639053254438, 34.21428013738487 92.66272189349112, 35.38817902141435 93.46153846153845, 35.839419155947375 94.2603550295858, 36.709010791818606 95.05917159763314, 37.88616863313218 95.85798816568047, 38.11016531905612 96.65680473372781, 38.32960090483767 97.45562130177515, 40.51536004325829 98.2544378698225, 40.030855664708994 99.05325443786982, 40.50779570455893 99.85207100591715, 40.09220725445905 100.6508875739645, 39.932924045696105 101.44970414201183, 38.91056890922248 102.24852071005917, 36.43181610265009 103.04733727810651, 37.53360293262394 103.84615384615385, 37.1840203449254 104.64497041420118, 35.51905601697293 105.44378698224853, 37.135525270952506 106.24260355029585, 38.55570309198547 107.0414201183432, 37.983248472044465 107.84023668639053, 38.90274819973927 108.63905325443787, 39.91392024484149 109.43786982248521, 38.884065209636084 110.23668639053254, 38.753296532466074 111.03550295857988, 37.43198492061466 111.83431952662723, 37.2060884407546 112.63313609467457, 35.09418863446069 113.43195266272188, 43.32632445990121 114.23076923076923, 43.96100555629427 115.02958579881657, 43.04056323687841 115.82840236686391, 36.011962023961864 116.62721893491124, 37.07769444381456 117.42603550295858, 38.00688645023166 118.22485207100593, 39.167379174248936 119.02366863905324, 38.44119102297385 119.82248520710058, 36.322191652563596 120.62130177514793, 36.05444647796128 121.42011834319527, 35.029023517648014 122.2189349112426, 38.119638558311486 123.01775147928994, 35.34593457289781 123.81656804733728, 36.45666754256731 124.61538461538463, 43.77450814900171 125.41420118343194, 37.50279584710901 126.21301775147928, 34.69557867461903 127.01183431952663, 30.668569368007375 127.81065088757396, 31.216759580556502 128.60946745562129, 32.289357436554425 129.40828402366864, 32.17320505984782 130.20710059171597, 31.39767537484635 131.0059171597633, 31.754912633277716 131.80473372781066, 30.878912162437054 132.60355029585799, 31.348737248731247 133.40236686390534, 30.99393125200155 134.20118343195267, 31.164397564702767" fill="none" stroke="#ff3a33" stroke-width="1.25"/>

</svg>