<?xml version="1.0" standalone="no"?>
<!DOCTYPE svg PUBLIC "-//W3C//DTD SVG 1.1//EN" "http://www.w3.org/Graphics/SVG/1.1/DTD/svg11.dtd">

<svg width="135" height="50" viewBox="0 0 135 50" preserveAspectRatio="none" 
  xmlns="http://www.w3.org/2000/svg"
  xmlns:xlink="http://www.w3.org/1999/xlink">


<polyline points="0.0, 7.619043420952706 0.7988165680473372, 11.235655353441496 1.5976331360946745, 10.696601113766182 2.396449704142012, 13.303493352960007 3.195266272189349, 12.65214256596249 3.994082840236686, 11.34659107836878 4.792899408284024, 11.074528750163289 5.591715976331361, 11.060798705726155 6.390532544378698, 12.885052585199617 7.189349112426036, 13.964265606002204 7.988165680473372, 11.408098012926832 8.78698224852071, 10.687584337358087 9.585798816568047, 11.171041345038892 10.384615384615385, 4.965217848186925 11.183431952662723, 8.949748979932416 11.982248520710058, 10.203851854658573 12.781065088757396, 11.289394329766305 13.579881656804734, 11.82021143381939 14.378698224852071, 8.520828369953017 15.177514792899409, 3.7105681304616023 15.976331360946745, 3.1948950069524655 16.775147928994084, 0.0 17.57396449704142, 0.22117101305510586 18.37278106508876, 0.49242314296659256 19.171597633136095, 0.8634426422057065 19.970414201183434, 3.7148793864409573 20.76923076923077, 1.770826242822514 21.56804733727811, 0.7165967199151635 22.366863905325445, 1.7411981903704923 23.16568047337278, 3.773641018403917 23.964497041420117, 6.557936315729104 24.763313609467456, 7.482848789970377 25.562130177514792, 7.562268608759474 26.36094674556213, 13.600901427987022 27.159763313609467, 14.711282469524159 27.958579881656807, 16.151840380772676 28.757396449704142, 14.768607426716024 29.55621301775148, 16.08333737910618 30.355029585798817, 19.224295652587934 31.153846153846157, 16.47307161674505 31.95266272189349, 12.896045280707844 32.751479289940825, 15.402315617407735 33.55029585798817, 16.273966630105853 34.349112426035504, 15.75396412582895 35.14792899408284, 14.522610420678934 35.94674556213018, 12.3470169240787 36.74556213017752, 11.794527006565115 37.54437869822485, 8.448642612290454 38.34319526627219, 11.27811720222494 39.142011834319526, 14.529137448035536 39.94082840236687, 15.33993930291202 40.7396449704142, 13.15724910042548 41.53846153846154, 15.187541221515444 42.337278106508876, 13.781563009361609 43.13609467455622, 11.051914123879746 43.93491124260355, 9.60965910488179 44.73372781065089, 7.994209107157289 45.532544378698226, 7.976197973710211 46.33136094674556, 10.492438730152186 47.1301775147929, 11.566789828749325 47.928994082840234, 12.102363438340367 48.72781065088758, 15.474659939225308 49.52662721893491, 13.454350949081523 50.32544378698225, 11.433931678653025 51.124260355029584, 14.477149973825265 51.92307692307693, 11.11196413728835 52.72189349112426, 10.451950064326262 53.5207100591716, 10.861220559311642 54.319526627218934, 7.359293173145039 55.11834319526627, 9.672266936539959 55.91715976331361, 8.668955837016973 56.71597633136094, 11.391730487670364 57.514792899408285, 9.463708046384896 58.31360946745562, 10.804126317247137 59.11242603550296, 13.129005047709297 59.91124260355029, 15.024508159851212 60.710059171597635, 13.182150046816476 61.50887573964497, 15.394623234192348 62.307692307692314, 13.522103355470968 63.10650887573964, 17.371602631786963 63.90532544378698, 18.107156240961945 64.70414201183432, 17.86238145289091 65.50295857988165, 17.345766058906612 66.30177514792899, 17.178259234048397 67.10059171597634, 19.098457289997892 67.89940828402366, 19.74107660878081 68.69822485207101, 20.781522365012794 69.49704142011834, 28.125735495825754 70.29585798816568, 28.108924653992013 71.09467455621302, 24.37556337977499 71.89349112426036, 24.383903477512646 72.6923076923077, 24.447273216505785 73.49112426035504, 24.798961836129504 74.28994082840237, 27.37679673703389 75.0887573964497, 29.316259491450182 75.88757396449704, 30.189405878880223 76.68639053254438, 29.94834924572702 77.48520710059172, 34.3166686453834 78.28402366863905, 32.063129095209206 79.0828402366864, 31.177730478795162 79.88165680473374, 29.840464700039366 80.68047337278107, 29.010559975130214 81.4792899408284, 29.502187082955512 82.27810650887574, 26.364304433361003 83.07692307692308, 26.422158893012877 83.87573964497041, 24.84233580386158 84.67455621301775, 24.44100291955162 85.4733727810651, 24.19020454175881 86.27218934911244, 25.508536130498786 87.07100591715975, 24.92824754701032 87.8698224852071, 26.4406141482654 88.66863905325444, 27.002445000615115 89.46745562130178, 25.816854805409363 90.26627218934911, 22.672534604353732 91.06508875739645, 24.12234850637537 91.8639053254438, 23.733409899054124 92.66272189349112, 24.25686440004482 93.46153846153845, 24.03706134868351 94.2603550295858, 24.10102242112334 95.05917159763314, 23.54353706318521 95.85798816568047, 24.33278973222954 96.65680473372781, 22.859476188151476 97.45562130177515, 24.245624534497495 98.2544378698225, 25.22295456570322 99.05325443786982, 25.97476257800967 99.85207100591715, 25.505690735145016 100.6508875739645, 25.027985143461766 101.44970414201183, 25.308161587969412 102.24852071005917, 26.632244018020852 103.04733727810651, 26.788960593177734 103.84615384615385, 27.12299411755768 104.64497041420118, 26.080768321326246 105.44378698224853, 26.123531636839957 106.24260355029585, 30.259637338715123 107.0414201183432, 28.698007499758248 107.84023668639053, 30.54685834246674 108.63905325443787, 32.07648129540216 109.43786982248521, 30.561587212396983 110.23668639053254, 30.72077456363816 111.03550295857988, 30.310401689178185 111.83431952662723, 29.465807749331617 112.63313609467457, 30.043932209183914 113.43195266272188, 30.47688897123918 114.23076923076923, 29.690876199766635 115.02958579881657, 28.995460946620216 115.82840236686391, 29.911560154960544 116.62721893491124, 31.202300043939008 117.42603550295858, 32.00279835273191 118.22485207100593, 32.323388301345496 119.02366863905324, 32.57213033983626 119.82248520710058, 33.7665226371567 120.62130177514793, 39.523378360187884 121.42011834319527, 44.89797635409125 122.2189349112426, 50.0 123.01775147928994, 46.486738933344405 123.81656804733728, 46.63252515965495 124.61538461538463, 46.284467497729324 125.41420118343194, 47.2404807400249 126.21301775147928, 43.06213441990029 127.01183431952663, 39.32903023298629 127.81065088757396, 35.311878220876295 128.60946745562129, 35.573355104931856 129.40828402366864, 37.67520129517295 130.20710059171597, 32.383169625102106 131.0059171597633, 32.87455095030008 131.80473372781066, 31.908871592322818 132.60355029585799, 31.608277767434632 133.40236686390534, 31.966913034979648 134.20118343195267, 31.177716701900266" fill="none" stroke="#ff3a33" stroke-width="1.25"/>

</svg>