<?xml version="1.0" standalone="no"?>
<!DOCTYPE svg PUBLIC "-//W3C//DTD SVG 1.1//EN" "http://www.w3.org/Graphics/SVG/1.1/DTD/svg11.dtd">

<svg width="135" height="50" viewBox="0 0 135 50" preserveAspectRatio="none" 
  xmlns="http://www.w3.org/2000/svg"
  xmlns:xlink="http://www.w3.org/1999/xlink">


<polyline points="0.0, 11.015412433697977 0.7988165680473372, 15.337969648058442 1.5976331360946745, 8.877844846164393 2.396449704142012, 7.396106103702109 3.195266272189349, 0.0 3.994082840236686, 0.6537463341873344 4.792899408284024, 7.303011228344867 5.591715976331361, 20.692029853482 6.390532544378698, 21.05614949707696 7.189349112426036, 26.02122648030661 7.988165680473372, 27.237260172677924 8.78698224852071, 21.9272115933429 9.585798816568047, 25.535136818195493 10.384615384615385, 23.140868373818304 11.183431952662723, 22.935230334715037 11.982248520710058, 33.74344746194867 12.781065088757396, 38.35399542791375 13.579881656804734, 44.3001884299839 14.378698224852071, 44.37189414688562 15.177514792899409, 44.82248986683282 15.976331360946745, 40.56834611123022 16.775147928994084, 40.393044460049985 17.57396449704142, 37.304320884049254 18.37278106508876, 37.37073626659314 19.171597633136095, 36.25313969998306 19.970414201183434, 41.34741659836341 20.76923076923077, 36.52364270893453 21.56804733727811, 34.08373692625868 22.366863905325445, 33.20552206531951 23.16568047337278, 34.57930760880034 23.964497041420117, 33.39989156614673 24.763313609467456, 37.49433075555638 25.562130177514792, 33.49954608957146 26.36094674556213, 40.62886344607532 27.159763313609467, 40.46357178427096 27.958579881656807, 42.188623294320735 28.757396449704142, 39.242485532489134 29.55621301775148, 35.03047523402471 30.355029585798817, 42.05753375408602 31.153846153846157, 47.781069946663344 31.95266272189349, 40.1916360965032 32.751479289940825, 44.048580390182195 33.55029585798817, 45.91665127939515 34.349112426035504, 46.34653417272792 35.14792899408284, 46.50221287218424 35.94674556213018, 49.97107546889727 36.74556213017752, 50.0 37.54437869822485, 47.932402722457304 38.34319526627219, 46.73551623999152 39.142011834319526, 47.3459327434883 39.94082840236687, 48.604609693866024 40.7396449704142, 46.264779525569 41.53846153846154, 47.71529558445002 42.337278106508876, 41.88251159137425 43.13609467455622, 42.82727611686745 43.93491124260355, 43.58642910933351 44.73372781065089, 41.44851639341324 45.532544378698226, 41.69901428250436 46.33136094674556, 42.280152844666084 47.1301775147929, 40.362231490756116 47.928994082840234, 37.54369006248239 48.72781065088758, 36.86850676792392 49.52662721893491, 32.368672478984486 50.32544378698225, 32.71347013398559 51.124260355029584, 37.0611321099388 51.92307692307693, 34.475727586738174 52.72189349112426, 34.54328018343148 53.5207100591716, 32.63644758109608 54.319526627218934, 24.88824047419433 55.11834319526627, 24.29189030522649 55.91715976331361, 31.39157661760291 56.71597633136094, 36.956864070488294 57.514792899408285, 37.0975294922087 58.31360946745562, 35.48048438003843 59.11242603550296, 35.81419853154025 59.91124260355029, 34.855388477061354 60.710059171597635, 34.56354069630813 61.50887573964497, 35.21083828280453 62.307692307692314, 35.443659009643454 63.10650887573964, 39.92301320424274 63.90532544378698, 44.24342358461997 64.70414201183432, 40.89954576666737 65.50295857988165, 41.21002475832104 66.30177514792899, 41.09670343297279 67.10059171597634, 45.713599407248495 67.89940828402366, 45.949091786999496 68.69822485207101, 42.77600362097182 69.49704142011834, 44.34980459324955 70.29585798816568, 43.84890283356674 71.09467455621302, 44.9706103886091 71.89349112426036, 46.258890709701895 72.6923076923077, 45.20140002057935 73.49112426035504, 45.275865784562455 74.28994082840237, 44.90530689722705 75.0887573964497, 43.18355181772882 75.88757396449704, 43.74148803249477 76.68639053254438, 42.00456645338018 77.48520710059172, 43.452855936358404 78.28402366863905, 43.95117055753772 79.0828402366864, 44.73249808571128 79.88165680473374, 45.20056472361996 80.68047337278107, 44.07001425902887 81.4792899408284, 43.786548244589326 82.27810650887574, 41.66088199365353 83.07692307692308, 43.52661876332205 83.87573964497041, 43.18871710716874 84.67455621301775, 43.25090467849911 85.4733727810651, 41.8133603703125 86.27218934911244, 42.11498125132805 87.07100591715975, 40.47147490709976 87.8698224852071, 39.34843845568935 88.66863905325444, 37.07415016871141 89.46745562130178, 38.41913835922578 90.26627218934911, 38.08490051181374 91.06508875739645, 34.627068268651556 91.8639053254438, 31.913731489873342 92.66272189349112, 29.66228782161247 93.46153846153845, 29.682996337289087 94.2603550295858, 24.974809139063854 95.05917159763314, 25.71162478899779 95.85798816568047, 23.916914993845932 96.65680473372781, 23.397013378677727 97.45562130177515, 27.652200484708665 98.2544378698225, 29.86722656713317 99.05325443786982, 30.5901371746807 99.85207100591715, 32.70548136478436 100.6508875739645, 35.84955813259968 101.44970414201183, 32.978537450227975 102.24852071005917, 33.82371995932642 103.04733727810651, 34.41720904336676 103.84615384615385, 40.01584614234454 104.64497041420118, 39.14215189872275 105.44378698224853, 36.72220217298725 106.24260355029585, 35.10586721486443 107.0414201183432, 37.469114021226666 107.84023668639053, 38.552730245180825 108.63905325443787, 39.950012719915115 109.43786982248521, 40.94522367444597 110.23668639053254, 42.507320296380726 111.03550295857988, 36.976825546229186 111.83431952662723, 36.08221157181761 112.63313609467457, 38.69182800221722 113.43195266272188, 36.26420098571376 114.23076923076923, 32.17654425200356 115.02958579881657, 37.52590845792334 115.82840236686391, 37.945869411980496 116.62721893491124, 40.29850132797242 117.42603550295858, 39.050666594791934 118.22485207100593, 38.99073485164216 119.02366863905324, 41.586149708367046 119.82248520710058, 41.431516772936476 120.62130177514793, 42.90650291860878 121.42011834319527, 43.81234264290209 122.2189349112426, 43.4945830768949 123.01775147928994, 41.216003105827156 123.81656804733728, 39.81693227708278 124.61538461538463, 39.066013103586805 125.41420118343194, 40.31191405463593 126.21301775147928, 37.99861094408156 127.01183431952663, 35.2340643066966 127.81065088757396, 31.838727299741958 128.60946745562129, 28.55125262767525 129.40828402366864, 31.660202611222154 130.20710059171597, 29.84885978019477 131.0059171597633, 27.857117716727487 131.80473372781066, 33.06927112222514 132.60355029585799, 34.2001161409381 133.40236686390534, 37.258570669824756 134.20118343195267, 37.64219454950019" fill="none" stroke="#ff3a33" stroke-width="1.25"/>

</svg>