<?xml version="1.0" standalone="no"?>
<!DOCTYPE svg PUBLIC "-//W3C//DTD SVG 1.1//EN" "http://www.w3.org/Graphics/SVG/1.1/DTD/svg11.dtd">

<svg width="135" height="50" viewBox="0 0 135 50" preserveAspectRatio="none" 
  xmlns="http://www.w3.org/2000/svg"
  xmlns:xlink="http://www.w3.org/1999/xlink">


<polyline points="0.0, 6.648025487019176 0.7988165680473372, 7.27755917650265 1.5976331360946745, 0.0 2.396449704142012, 6.346976070150033 3.195266272189349, 5.4843217524346555 3.994082840236686, 7.8366120659130445 4.792899408284024, 6.840264878824769 5.591715976331361, 11.835970157175483 6.390532544378698, 16.182819417660642 7.189349112426036, 19.47817933657037 7.988165680473372, 10.958732812878708 8.78698224852071, 9.021131496293483 9.585798816568047, 12.67072316292997 10.384615384615385, 11.133173701106507 11.183431952662723, 20.282918811311948 11.982248520710058, 29.223522287063247 12.781065088757396, 30.899034391436587 13.579881656804734, 29.402203644350884 14.378698224852071, 28.36586381011107 15.177514792899409, 23.103887028369773 15.976331360946745, 22.578356042240173 16.775147928994084, 21.671030359738687 17.57396449704142, 18.2647962633335 18.37278106508876, 16.487324602482765 19.171597633136095, 17.853074933807036 19.970414201183434, 20.35639644276802 20.76923076923077, 24.042441675706236 21.56804733727811, 23.17655511607817 22.366863905325445, 28.481109426946933 23.16568047337278, 29.838287982576684 23.964497041420117, 33.69513419681073 24.763313609467456, 36.45196796479986 25.562130177514792, 34.297578994844656 26.36094674556213, 44.49091298977516 27.159763313609467, 39.22427021276447 27.958579881656807, 40.81759007642773 28.757396449704142, 38.85314773134321 29.55621301775148, 38.42124826835923 30.355029585798817, 44.42964169355003 31.153846153846157, 43.698459328044535 31.95266272189349, 40.76398381980221 32.751479289940825, 47.50984890551497 33.55029585798817, 48.404007135851266 34.349112426035504, 44.82480580339037 35.14792899408284, 45.130780139127594 35.94674556213018, 38.00557995634233 36.74556213017752, 34.82875946844068 37.54437869822485, 33.25837764068507 38.34319526627219, 35.33119856313081 39.142011834319526, 41.851073929887036 39.94082840236687, 40.82225649503153 40.7396449704142, 39.167842986682345 41.53846153846154, 39.83270846010197 42.337278106508876, 39.29187877108298 43.13609467455622, 34.668312804487904 43.93491124260355, 33.57528756164317 44.73372781065089, 31.632558622276168 45.532544378698226, 28.59749313011224 46.33136094674556, 32.86993623144611 47.1301775147929, 32.068456896633904 47.928994082840234, 33.23681692545172 48.72781065088758, 38.2733753802261 49.52662721893491, 34.27025931383772 50.32544378698225, 34.36761936196657 51.124260355029584, 36.61425724901587 51.92307692307693, 35.293075355125815 52.72189349112426, 32.593961805531926 53.5207100591716, 36.80159142033899 54.319526627218934, 34.570140062727376 55.11834319526627, 38.52111106766379 55.91715976331361, 39.508453966642826 56.71597633136094, 41.39461803191469 57.514792899408285, 38.66124694917611 58.31360946745562, 41.69240202559437 59.11242603550296, 45.80725327296502 59.91124260355029, 48.123313302640675 60.710059171597635, 45.903001924660536 61.50887573964497, 44.91198555394077 62.307692307692314, 42.926136513995885 63.10650887573964, 47.11777861064928 63.90532544378698, 50.0 64.70414201183432, 48.84845127125727 65.50295857988165, 47.519116183629954 66.30177514792899, 46.75046887034588 67.10059171597634, 48.12038273057531 67.89940828402366, 42.128533010653996 68.69822485207101, 38.125942849040584 69.49704142011834, 37.81439433148354 70.29585798816568, 39.69382672936875 71.09467455621302, 38.51333761647394 71.89349112426036, 40.050274897478246 72.6923076923077, 38.04992839624056 73.49112426035504, 36.267932742165804 74.28994082840237, 38.11708491655025 75.0887573964497, 39.95175087510396 75.88757396449704, 40.12689629407593 76.68639053254438, 37.109784414155996 77.48520710059172, 35.83252815601079 78.28402366863905, 34.38728361145874 79.0828402366864, 33.3530945475841 79.88165680473374, 32.08882098283456 80.68047337278107, 32.32934043341 81.4792899408284, 32.73991059751818 82.27810650887574, 32.026055413666896 83.07692307692308, 31.964963507517908 83.87573964497041, 30.582425714621316 84.67455621301775, 27.16649578754758 85.4733727810651, 24.259741705130185 86.27218934911244, 24.68179706257503 87.07100591715975, 24.32685176569115 87.8698224852071, 22.70916890723324 88.66863905325444, 18.078779986169184 89.46745562130178, 13.253092325266655 90.26627218934911, 12.555439215388683 91.06508875739645, 12.315240088908762 91.8639053254438, 12.62895152299539 92.66272189349112, 12.154118160138987 93.46153846153845, 14.23128464345164 94.2603550295858, 16.772928936886355 95.05917159763314, 14.261143323980416 95.85798816568047, 11.086045696722339 96.65680473372781, 12.037134249707321 97.45562130177515, 16.958203344525238 98.2544378698225, 22.79751540117852 99.05325443786982, 24.45485859863758 99.85207100591715, 23.75758973503909 100.6508875739645, 20.707463058509326 101.44970414201183, 24.597470065316127 102.24852071005917, 26.885164706414976 103.04733727810651, 27.887891026223866 103.84615384615385, 27.49505148849325 104.64497041420118, 24.613053184969118 105.44378698224853, 23.496843135145674 106.24260355029585, 25.53117100627186 107.0414201183432, 24.057079460961873 107.84023668639053, 24.317607955948812 108.63905325443787, 25.187970620650248 109.43786982248521, 22.99269516089582 110.23668639053254, 21.88761346120795 111.03550295857988, 21.549342918568495 111.83431952662723, 21.074033948534332 112.63313609467457, 21.181257832540997 113.43195266272188, 24.990374909148485 114.23076923076923, 24.6180264800021 115.02958579881657, 25.84628109177568 115.82840236686391, 27.498017851949687 116.62721893491124, 27.74930726958949 117.42603550295858, 27.577906293132543 118.22485207100593, 27.76245019436317 119.02366863905324, 28.273260691485547 119.82248520710058, 26.961034832614438 120.62130177514793, 31.103844858772383 121.42011834319527, 30.630976064342214 122.2189349112426, 37.87738134200892 123.01775147928994, 34.704603367826955 123.81656804733728, 36.76753563944478 124.61538461538463, 36.261128070684165 125.41420118343194, 36.776480238151024 126.21301775147928, 33.55408729931975 127.01183431952663, 23.02790506443245 127.81065088757396, 16.421037057204444 128.60946745562129, 16.510483203806377 129.40828402366864, 18.181967572506146 130.20710059171597, 16.81855849803919 131.0059171597633, 16.020557440695757 131.80473372781066, 13.29386704597289 132.60355029585799, 15.259505945519466 133.40236686390534, 16.211929183074076 134.20118343195267, 15.66909828653703" fill="none" stroke="#ff3a33" stroke-width="1.25"/>

</svg>