<?xml version="1.0" standalone="no"?>
<!DOCTYPE svg PUBLIC "-//W3C//DTD SVG 1.1//EN" "http://www.w3.org/Graphics/SVG/1.1/DTD/svg11.dtd">

<svg width="135" height="50" viewBox="0 0 135 50" preserveAspectRatio="none" 
  xmlns="http://www.w3.org/2000/svg"
  xmlns:xlink="http://www.w3.org/1999/xlink">


<polyline points="0.0, 5.174300260216342 0.7988165680473372, 7.915584009269638 1.5976331360946745, 11.023316117965567 2.396449704142012, 9.852255938937779 3.195266272189349, 15.11335829599621 3.994082840236686, 13.846717808280614 4.792899408284024, 14.466691416493466 5.591715976331361, 12.709032221265451 6.390532544378698, 15.814031081376879 7.189349112426036, 20.289309834700546 7.988165680473372, 25.441998420391926 8.78698224852071, 20.28000800937265 9.585798816568047, 16.911318663275292 10.384615384615385, 20.141969092668763 11.183431952662723, 12.093789286035625 11.982248520710058, 25.08455772871526 12.781065088757396, 33.63882579979106 13.579881656804734, 37.55656825965228 14.378698224852071, 36.31226749003732 15.177514792899409, 34.424945390561824 15.976331360946745, 29.001875843098325 16.775147928994084, 28.690503631923807 17.57396449704142, 25.16509885832593 18.37278106508876, 19.312738618955404 19.171597633136095, 23.406072227436237 19.970414201183434, 28.888830632324563 20.76923076923077, 31.55519312942224 21.56804733727811, 29.489459662889562 22.366863905325445, 31.337795030337436 23.16568047337278, 33.88844871112047 23.964497041420117, 36.204426784261 24.763313609467456, 40.82850500793054 25.562130177514792, 42.619507997655646 26.36094674556213, 40.831035915030505 27.159763313609467, 50.0 27.958579881656807, 45.94952151505844 28.757396449704142, 48.48721613449405 29.55621301775148, 44.31830519098199 30.355029585798817, 45.25541024184707 31.153846153846157, 49.09916243855379 31.95266272189349, 45.17914526250589 32.751479289940825, 43.02118327626051 33.55029585798817, 46.85249367276604 34.349112426035504, 49.386225451917916 35.14792899408284, 46.67851067173959 35.94674556213018, 48.6751771162214 36.74556213017752, 42.22781392463696 37.54437869822485, 42.44647987534961 38.34319526627219, 39.12159528548684 39.142011834319526, 42.790667792908586 39.94082840236687, 49.702793196781286 40.7396449704142, 47.862248400503184 41.53846153846154, 44.77584078228178 42.337278106508876, 46.22250294834293 43.13609467455622, 44.18285992988777 43.93491124260355, 39.231779833533494 44.73372781065089, 36.48526101378196 45.532544378698226, 32.206724620083286 46.33136094674556, 31.88081148692728 47.1301775147929, 35.91442403755065 47.928994082840234, 35.641315717725405 48.72781065088758, 37.687678476102285 49.52662721893491, 41.00118206585795 50.32544378698225, 35.44943661160134 51.124260355029584, 33.93660336285038 51.92307692307693, 34.58098656822502 52.72189349112426, 31.540562839502062 53.5207100591716, 31.372178589267214 54.319526627218934, 33.713019492015206 55.11834319526627, 29.065423207931328 55.91715976331361, 32.84955846382244 56.71597633136094, 33.94438361638447 57.514792899408285, 37.73371791445007 58.31360946745562, 37.02460204349231 59.11242603550296, 39.04804989931746 59.91124260355029, 43.32807711332429 60.710059171597635, 44.99526942425812 61.50887573964497, 43.63921274020483 62.307692307692314, 43.12411121353708 63.10650887573964, 40.58839889577965 63.90532544378698, 46.97767480124777 64.70414201183432, 49.908915668300565 65.50295857988165, 48.16898287017338 66.30177514792899, 46.61098175153625 67.10059171597634, 46.52849179067042 67.89940828402366, 48.444308727881825 68.69822485207101, 47.04738346178637 69.49704142011834, 42.31699512045766 70.29585798816568, 40.41894945223296 71.09467455621302, 40.86378753299706 71.89349112426036, 35.114649568200576 72.6923076923077, 33.40661050779161 73.49112426035504, 30.96063598952994 74.28994082840237, 29.407165893860537 75.0887573964497, 30.10136248283068 75.88757396449704, 36.04581507364261 76.68639053254438, 32.922560020824285 77.48520710059172, 30.632063432639505 78.28402366863905, 40.32140613125102 79.0828402366864, 31.554854117132 79.88165680473374, 31.634233455572293 80.68047337278107, 26.548388687898523 81.4792899408284, 25.331177743768983 82.27810650887574, 20.292610596611727 83.07692307692308, 19.775400216811477 83.87573964497041, 23.39897081463812 84.67455621301775, 22.79965017281085 85.4733727810651, 23.11546690390976 86.27218934911244, 21.74511380945876 87.07100591715975, 22.437616224417166 87.8698224852071, 18.360505698020805 88.66863905325444, 20.65410622475845 89.46745562130178, 19.680832207733122 90.26627218934911, 21.26281830186069 91.06508875739645, 16.64830446276529 91.8639053254438, 19.555761019248056 92.66272189349112, 18.75603890399432 93.46153846153845, 19.623073296190235 94.2603550295858, 15.842618437725815 95.05917159763314, 17.494001447665795 95.85798816568047, 18.699325833459792 96.65680473372781, 20.874276048842745 97.45562130177515, 18.941298613499484 98.2544378698225, 21.183993194656892 99.05325443786982, 21.63363997064786 99.85207100591715, 23.06977491685902 100.6508875739645, 22.173894050145897 101.44970414201183, 21.34060539984451 102.24852071005917, 22.408862608715385 103.04733727810651, 24.98826632778944 103.84615384615385, 24.16911682373912 104.64497041420118, 24.154572608343976 105.44378698224853, 22.699701827814692 106.24260355029585, 21.145486516882432 107.0414201183432, 20.950256726911647 107.84023668639053, 20.90812245016041 108.63905325443787, 23.513057638456146 109.43786982248521, 23.49799593742118 110.23668639053254, 20.582910652272783 111.03550295857988, 20.67325632956906 111.83431952662723, 17.85746774746225 112.63313609467457, 17.424511917612374 113.43195266272188, 19.828124664784045 114.23076923076923, 15.897135812029726 115.02958579881657, 11.784513199255967 115.82840236686391, 14.942742017130167 116.62721893491124, 17.90407853475524 117.42603550295858, 18.711387358448285 118.22485207100593, 16.6032045627141 119.02366863905324, 16.944450159965736 119.82248520710058, 16.37236415521209 120.62130177514793, 14.92833613717662 121.42011834319527, 22.100158758750258 122.2189349112426, 23.219902126226362 123.01775147928994, 29.956308356337185 123.81656804733728, 27.019171061727658 124.61538461538463, 28.53001994841363 125.41420118343194, 28.2952144054744 126.21301775147928, 27.50021629818774 127.01183431952663, 21.757294633410847 127.81065088757396, 15.455827194272118 128.60946745562129, 8.23500441293793 129.40828402366864, 8.030353108687702 130.20710059171597, 7.360646170499708 131.0059171597633, 2.2667440739695834 131.80473372781066, 2.4763821426207357 132.60355029585799, 4.01661499831887 133.40236686390534, 2.427088876423181 134.20118343195267, 0.0" fill="none" stroke="#32ca5b" stroke-width="1.25"/>

</svg>