<?xml version="1.0" standalone="no"?>
<!DOCTYPE svg PUBLIC "-//W3C//DTD SVG 1.1//EN" "http://www.w3.org/Graphics/SVG/1.1/DTD/svg11.dtd">

<svg width="135" height="50" viewBox="0 0 135 50" preserveAspectRatio="none" 
  xmlns="http://www.w3.org/2000/svg"
  xmlns:xlink="http://www.w3.org/1999/xlink">


<polyline points="0.0, 24.31884943505101 0.7988165680473372, 26.098571588144264 1.5976331360946745, 25.68937462976043 2.396449704142012, 30.51644291247428 3.195266272189349, 29.285212876337503 3.994082840236686, 21.369615008030397 4.792899408284024, 20.191324666423462 5.591715976331361, 21.622671986582706 6.390532544378698, 25.265973517099464 7.189349112426036, 31.38290629298111 7.988165680473372, 25.335183302614244 8.78698224852071, 21.939813863401156 9.585798816568047, 28.12097894586137 10.384615384615385, 19.984665694894645 11.183431952662723, 31.910125989833887 11.982248520710058, 37.95425844573238 12.781065088757396, 41.2045396769751 13.579881656804734, 40.903521352098245 14.378698224852071, 39.04465481084672 15.177514792899409, 27.20707996937197 15.976331360946745, 26.3810809015548 16.775147928994084, 24.719723559140512 17.57396449704142, 14.391072093513243 18.37278106508876, 16.934538885552865 19.171597633136095, 15.8607625659335 19.970414201183434, 17.567753677474542 20.76923076923077, 21.18890575240429 21.56804733727811, 17.538761060713867 22.366863905325445, 20.819447900715776 23.16568047337278, 26.748804963071553 23.964497041420117, 33.67112348703111 24.763313609467456, 37.71870920050651 25.562130177514792, 36.9349909394176 26.36094674556213, 45.20769935263513 27.159763313609467, 39.889264735689764 27.958579881656807, 42.14886455518177 28.757396449704142, 37.18873226083378 29.55621301775148, 36.93383721094031 30.355029585798817, 43.58395784949614 31.153846153846157, 42.24525350346871 31.95266272189349, 40.57254324060562 32.751479289940825, 46.32200658465619 33.55029585798817, 49.13704903485463 34.349112426035504, 46.04287633148788 35.14792899408284, 49.08478417935489 35.94674556213018, 39.73344115777457 36.74556213017752, 28.529252812853194 37.54437869822485, 29.585570676141167 38.34319526627219, 28.91994250813449 39.142011834319526, 40.274731608596724 39.94082840236687, 41.479407867364216 40.7396449704142, 38.275982306896815 41.53846153846154, 36.36155357088075 42.337278106508876, 30.110215903879745 43.13609467455622, 27.322105436749418 43.93491124260355, 22.12340712166948 44.73372781065089, 20.795895618186044 45.532544378698226, 20.256169097393755 46.33136094674556, 22.753040138545607 47.1301775147929, 25.02501838257743 47.928994082840234, 27.55833478355363 48.72781065088758, 34.88960455042404 49.52662721893491, 35.7926307817568 50.32544378698225, 32.28484682729944 51.124260355029584, 36.4217251477464 51.92307692307693, 32.16874791942931 52.72189349112426, 32.07322555534145 53.5207100591716, 36.9386895918394 54.319526627218934, 30.580791792054647 55.11834319526627, 36.23810131838272 55.91715976331361, 37.35331735505394 56.71597633136094, 41.796254891631826 57.514792899408285, 35.582008376040314 58.31360946745562, 39.67357778786823 59.11242603550296, 43.4511684152393 59.91124260355029, 44.66707843274055 60.710059171597635, 43.17778963571634 61.50887573964497, 44.04387887156149 62.307692307692314, 40.30346902505176 63.10650887573964, 44.61248137521709 63.90532544378698, 48.04328041048392 64.70414201183432, 46.00600646456252 65.50295857988165, 40.92303515716527 66.30177514792899, 38.41787661290045 67.10059171597634, 44.753417874294215 67.89940828402366, 40.74358874080877 68.69822485207101, 35.594976675309795 69.49704142011834, 41.01627467810173 70.29585798816568, 42.68653311111396 71.09467455621302, 38.21683038841579 71.89349112426036, 37.882518878186715 72.6923076923077, 38.643303764700214 73.49112426035504, 36.44808431362666 74.28994082840237, 40.28010617387068 75.0887573964497, 46.65210018488094 75.88757396449704, 44.97699092825828 76.68639053254438, 40.55364764843085 77.48520710059172, 50.0 78.28402366863905, 43.83338302032372 79.0828402366864, 40.999722162700905 79.88165680473374, 37.73649623758002 80.68047337278107, 35.858524404238565 81.4792899408284, 41.099066356803945 82.27810650887574, 31.657818965584454 83.07692307692308, 36.448881359948444 83.87573964497041, 26.93088678731521 84.67455621301775, 27.402701484703 85.4733727810651, 21.987120031099643 86.27218934911244, 23.91529479192311 87.07100591715975, 22.53716550129751 87.8698224852071, 22.637332799870983 88.66863905325444, 24.224213113547798 89.46745562130178, 27.533174276612304 90.26627218934911, 21.883561897075246 91.06508875739645, 25.861294921527822 91.8639053254438, 26.821144810115417 92.66272189349112, 27.72218002573809 93.46153846153845, 24.119658514949585 94.2603550295858, 25.66156064052627 95.05917159763314, 20.393602285432646 95.85798816568047, 24.908619553885604 96.65680473372781, 21.099782541852736 97.45562130177515, 21.659760923322686 98.2544378698225, 25.695792894012598 99.05325443786982, 27.649712059128234 99.85207100591715, 26.79549223257709 100.6508875739645, 24.718833978301646 101.44970414201183, 25.443095482118338 102.24852071005917, 25.080009204655752 103.04733727810651, 24.61953754787069 103.84615384615385, 26.09278523656775 104.64497041420118, 24.719035579844803 105.44378698224853, 24.734467988982132 106.24260355029585, 25.81510690136617 107.0414201183432, 19.618414563808688 107.84023668639053, 14.78147978228328 108.63905325443787, 18.144461647529077 109.43786982248521, 12.38266442237495 110.23668639053254, 16.294931092160503 111.03550295857988, 14.203897587443706 111.83431952662723, 15.395461749134798 112.63313609467457, 17.150084390755207 113.43195266272188, 19.28940276576042 114.23076923076923, 21.040408342176928 115.02958579881657, 19.94868275620662 115.82840236686391, 25.450497537360416 116.62721893491124, 28.428559045231566 117.42603550295858, 23.83043924478174 118.22485207100593, 26.66632664143142 119.02366863905324, 26.873705035159844 119.82248520710058, 24.64509394222308 120.62130177514793, 32.24377855679923 121.42011834319527, 31.730417875086374 122.2189349112426, 38.21902559016569 123.01775147928994, 32.01059515806236 123.81656804733728, 31.948316206029737 124.61538461538463, 27.709620656765583 125.41420118343194, 30.493167436693682 126.21301775147928, 21.916887007173386 127.01183431952663, 16.879084343869792 127.81065088757396, 13.03395683058563 128.60946745562129, 9.234032023784538 129.40828402366864, 10.383601506446837 130.20710059171597, 5.417659064809589 131.0059171597633, 2.972378316868023 131.80473372781066, 0.0 132.60355029585799, 0.9339314080354667 133.40236686390534, 4.989992456010054 134.20118343195267, 4.192199419047685" fill="none" stroke="#32ca5b" stroke-width="1.25"/>

</svg>