<?xml version="1.0" standalone="no"?>
<!DOCTYPE svg PUBLIC "-//W3C//DTD SVG 1.1//EN" "http://www.w3.org/Graphics/SVG/1.1/DTD/svg11.dtd">

<svg width="135" height="50" viewBox="0 0 135 50" preserveAspectRatio="none" 
  xmlns="http://www.w3.org/2000/svg"
  xmlns:xlink="http://www.w3.org/1999/xlink">


<polyline points="0.0, 41.06257448122305 0.7988165680473372, 42.30718577582669 1.5976331360946745, 41.73438401174533 2.396449704142012, 42.1118073486267 3.195266272189349, 36.86764143535489 3.994082840236686, 37.49145256557359 4.792899408284024, 40.40297734727638 5.591715976331361, 41.74334259394281 6.390532544378698, 43.729726311354796 7.189349112426036, 43.23059450154142 7.988165680473372, 46.73731313122948 8.78698224852071, 43.759552478426876 9.585798816568047, 43.410485886054175 10.384615384615385, 42.76427685694634 11.183431952662723, 44.45401480574887 11.982248520710058, 44.94985527619107 12.781065088757396, 47.79501945249819 13.579881656804734, 44.07724633064083 14.378698224852071, 41.67979327331621 15.177514792899409, 42.28309208088349 15.976331360946745, 34.5434734873308 16.775147928994084, 42.6260640256514 17.57396449704142, 46.00838352972435 18.37278106508876, 50.0 19.171597633136095, 48.47468148730917 19.970414201183434, 43.372407058740755 20.76923076923077, 34.501048769968385 21.56804733727811, 35.82802885698146 22.366863905325445, 32.76173726386038 23.16568047337278, 28.916682744388094 23.964497041420117, 28.968603747149473 24.763313609467456, 30.4791362576949 25.562130177514792, 31.304600581884586 26.36094674556213, 29.434115454849767 27.159763313609467, 30.23763214018499 27.958579881656807, 30.608046521078748 28.757396449704142, 34.05030385354793 29.55621301775148, 34.10561371615081 30.355029585798817, 35.81976515207516 31.153846153846157, 34.87552099605937 31.95266272189349, 40.48116762522885 32.751479289940825, 44.392169604155654 33.55029585798817, 48.04902053285016 34.349112426035504, 44.88961639940106 35.14792899408284, 46.88908418476538 35.94674556213018, 48.85819745647396 36.74556213017752, 45.37938614205329 37.54437869822485, 41.72851238881093 38.34319526627219, 41.27466652257726 39.142011834319526, 42.06856809267897 39.94082840236687, 40.790326239242994 40.7396449704142, 41.51759076485483 41.53846153846154, 43.34841591995282 42.337278106508876, 41.6924528674248 43.13609467455622, 34.77719308035863 43.93491124260355, 39.85519045790459 44.73372781065089, 45.76475045559698 45.532544378698226, 44.909876612285906 46.33136094674556, 42.271825308994046 47.1301775147929, 43.75184445063647 47.928994082840234, 42.84572439673976 48.72781065088758, 38.38153580798105 49.52662721893491, 34.2966830860955 50.32544378698225, 29.319638775565952 51.124260355029584, 27.369031402104937 51.92307692307693, 32.32281192181845 52.72189349112426, 33.402940107381525 53.5207100591716, 35.17978975784648 54.319526627218934, 41.70382565657685 55.11834319526627, 38.33313066468698 55.91715976331361, 35.53902708429351 56.71597633136094, 37.876590653639816 57.514792899408285, 35.93851600452973 58.31360946745562, 36.04833631029373 59.11242603550296, 34.40468085912974 59.91124260355029, 29.807715612660697 60.710059171597635, 35.08523024242452 61.50887573964497, 34.62056266544945 62.307692307692314, 35.36142875895525 63.10650887573964, 33.02868548236086 63.90532544378698, 34.39000330783659 64.70414201183432, 41.23574938325 65.50295857988165, 39.49139336897277 66.30177514792899, 39.45865362274314 67.10059171597634, 39.21809266158242 67.89940828402366, 38.15350615629843 68.69822485207101, 44.14122101602268 69.49704142011834, 45.40201673946292 70.29585798816568, 41.95900186762885 71.09467455621302, 41.570038780604214 71.89349112426036, 42.29887735552431 72.6923076923077, 44.00731313452415 73.49112426035504, 41.93326566215257 74.28994082840237, 41.40811370707857 75.0887573964497, 46.24565356247386 75.88757396449704, 43.01958426251013 76.68639053254438, 41.62474090436072 77.48520710059172, 41.992039203293324 78.28402366863905, 40.98238348357604 79.0828402366864, 40.572173826353776 79.88165680473374, 41.538744393701826 80.68047337278107, 46.16096666325147 81.4792899408284, 44.79883481020811 82.27810650887574, 43.484666831484304 83.07692307692308, 47.174938179995074 83.87573964497041, 45.3897829255706 84.67455621301775, 43.55414595657269 85.4733727810651, 40.69659284389591 86.27218934911244, 40.36360199681809 87.07100591715975, 40.97384798921392 87.8698224852071, 38.54137163292466 88.66863905325444, 40.38118078458291 89.46745562130178, 38.856212517145906 90.26627218934911, 39.15218715350641 91.06508875739645, 38.255496125421296 91.8639053254438, 38.868172410834966 92.66272189349112, 38.03486531518983 93.46153846153845, 38.636602770836184 94.2603550295858, 39.04486287240406 95.05917159763314, 37.700062031400286 95.85798816568047, 31.70875212668648 96.65680473372781, 34.39751959541766 97.45562130177515, 33.78830118215206 98.2544378698225, 33.97234595440173 99.05325443786982, 33.861835799643536 99.85207100591715, 33.65681668236184 100.6508875739645, 34.17784887013022 101.44970414201183, 33.847670527436016 102.24852071005917, 31.78887414198942 103.04733727810651, 27.561353647558096 103.84615384615385, 27.537501334669027 104.64497041420118, 29.762777993810253 105.44378698224853, 26.847504462388937 106.24260355029585, 25.28174824410978 107.0414201183432, 26.906672795092845 107.84023668639053, 28.52956797161016 108.63905325443787, 28.308098353016526 109.43786982248521, 27.42433636709311 110.23668639053254, 24.670481666732346 111.03550295857988, 23.69297344165322 111.83431952662723, 25.262731330876726 112.63313609467457, 20.3813693427518 113.43195266272188, 24.36677176254888 114.23076923076923, 24.775506018851836 115.02958579881657, 21.005731993311393 115.82840236686391, 20.867286408535996 116.62721893491124, 17.4346135765749 117.42603550295858, 14.582942541488592 118.22485207100593, 12.869011478866607 119.02366863905324, 14.222776147911578 119.82248520710058, 12.612494192838916 120.62130177514793, 11.833377134380147 121.42011834319527, 13.706438441477378 122.2189349112426, 15.65052388373101 123.01775147928994, 14.248412157642528 123.81656804733728, 13.474736284381978 124.61538461538463, 13.120403128093727 125.41420118343194, 12.915127757988234 126.21301775147928, 15.932906729785115 127.01183431952663, 15.416264093194041 127.81065088757396, 24.517101688696837 128.60946745562129, 22.565522976729916 129.40828402366864, 22.13356545081706 130.20710059171597, 20.633367850536338 131.0059171597633, 20.812687469824187 131.80473372781066, 13.479362651246781 132.60355029585799, 6.8423420645981485 133.40236686390534, 6.567132708328353 134.20118343195267, 0.0" fill="none" stroke="#32ca5b" stroke-width="1.25"/>

</svg>