<?xml version="1.0" standalone="no"?>
<!DOCTYPE svg PUBLIC "-//W3C//DTD SVG 1.1//EN" "http://www.w3.org/Graphics/SVG/1.1/DTD/svg11.dtd">

<svg width="135" height="50" viewBox="0 0 135 50" preserveAspectRatio="none" 
  xmlns="http://www.w3.org/2000/svg"
  xmlns:xlink="http://www.w3.org/1999/xlink">


<polyline points="0.0, 9.353836641161665 0.7988165680473372, 9.661603442407088 1.5976331360946745, 9.868532767222868 2.396449704142012, 11.06332133038431 3.195266272189349, 14.001326618002391 3.994082840236686, 10.96278874172494 4.792899408284024, 13.11169040546214 5.591715976331361, 13.467705828660437 6.390532544378698, 0.0 7.189349112426036, 9.7268928128398 7.988165680473372, 10.123476976985774 8.78698224852071, 9.448010993879299 9.585798816568047, 11.255728084819387 10.384615384615385, 12.29496671655038 11.183431952662723, 11.530727381302944 11.982248520710058, 13.771824387273762 12.781065088757396, 18.161397437575324 13.579881656804734, 19.785944372243854 14.378698224852071, 20.839373163284105 15.177514792899409, 22.652117098455893 15.976331360946745, 25.456510037629688 16.775147928994084, 22.102339944734275 17.57396449704142, 16.425824296607015 18.37278106508876, 16.811692165117865 19.171597633136095, 14.059754103526659 19.970414201183434, 13.662612350399952 20.76923076923077, 19.231714145362986 21.56804733727811, 23.235298822874388 22.366863905325445, 10.609657904693595 23.16568047337278, 10.784045315266829 23.964497041420117, 14.4264958921128 24.763313609467456, 14.743724103830939 25.562130177514792, 18.09020582084665 26.36094674556213, 16.464932132457204 27.159763313609467, 20.89069115425417 27.958579881656807, 23.443163735568636 28.757396449704142, 29.384596080362336 29.55621301775148, 30.50159556097336 30.355029585798817, 28.638325600252607 31.153846153846157, 30.093934847462112 31.95266272189349, 33.461080318983896 32.751479289940825, 17.79043535051735 33.55029585798817, 33.354837909763226 34.349112426035504, 31.505671712061556 35.14792899408284, 30.750528646318585 35.94674556213018, 31.12659566031388 36.74556213017752, 28.890147457824312 37.54437869822485, 27.959725880355197 38.34319526627219, 26.362391113629823 39.142011834319526, 32.13968592689969 39.94082840236687, 35.80373092956511 40.7396449704142, 36.903506208232464 41.53846153846154, 38.340492122942024 42.337278106508876, 39.31137293708199 43.13609467455622, 34.78009293688296 43.93491124260355, 35.21966949622436 44.73372781065089, 32.84438114325929 45.532544378698226, 29.56085555375453 46.33136094674556, 30.49526362084407 47.1301775147929, 30.842222366012646 47.928994082840234, 30.530943824536784 48.72781065088758, 32.40024978141344 49.52662721893491, 34.85171616847195 50.32544378698225, 33.79660857725829 51.124260355029584, 39.44197649921805 51.92307692307693, 40.225069438515035 52.72189349112426, 38.71847066906558 53.5207100591716, 39.562543918828524 54.319526627218934, 42.49746875538049 55.11834319526627, 38.94243555798763 55.91715976331361, 40.27575923658937 56.71597633136094, 36.156838031371585 57.514792899408285, 31.67115756404149 58.31360946745562, 31.435995325903438 59.11242603550296, 34.02662474171343 59.91124260355029, 36.564139101284646 60.710059171597635, 39.5078941059276 61.50887573964497, 39.5587391002815 62.307692307692314, 36.21931117338957 63.10650887573964, 39.248817205723505 63.90532544378698, 40.93139057716474 64.70414201183432, 43.25299407612484 65.50295857988165, 40.71045235629068 66.30177514792899, 38.98080524902894 67.10059171597634, 38.63416903908393 67.89940828402366, 41.25546112452177 68.69822485207101, 43.54062586165866 69.49704142011834, 46.92690125357426 70.29585798816568, 42.06548796659875 71.09467455621302, 45.82835964099872 71.89349112426036, 42.98428410237682 72.6923076923077, 44.15569934861533 73.49112426035504, 43.535160789641495 74.28994082840237, 44.126532344502415 75.0887573964497, 40.71414491354294 75.88757396449704, 40.34802419284337 76.68639053254438, 41.45716023728878 77.48520710059172, 42.91894522585028 78.28402366863905, 45.059086382212044 79.0828402366864, 44.80101245966244 79.88165680473374, 48.664730008315956 80.68047337278107, 50.0 81.4792899408284, 49.19825759753301 82.27810650887574, 48.080344915038374 83.07692307692308, 47.23665663810777 83.87573964497041, 45.89914717202403 84.67455621301775, 45.81805140798209 85.4733727810651, 46.381002471616284 86.27218934911244, 46.82801677834013 87.07100591715975, 45.30861774138484 87.8698224852071, 45.00165288543138 88.66863905325444, 47.0070596921801 89.46745562130178, 46.40952879981448 90.26627218934911, 45.393997274086615 91.06508875739645, 44.4289805726921 91.8639053254438, 43.249587664891344 92.66272189349112, 43.634403460288695 93.46153846153845, 42.95589302206581 94.2603550295858, 41.86390946880027 95.05917159763314, 42.22474641366155 95.85798816568047, 39.68686418106644 96.65680473372781, 36.54289856750223 97.45562130177515, 38.354102164682 98.2544378698225, 42.3015096025361 99.05325443786982, 39.318374041757956 99.85207100591715, 32.80482424522223 100.6508875739645, 19.7386602486293 101.44970414201183, 16.15551006925566 102.24852071005917, 28.15293460904753 103.04733727810651, 27.264869825011644 103.84615384615385, 33.2280723767791 104.64497041420118, 35.161222239338414 105.44378698224853, 34.54722735898964 106.24260355029585, 30.918134204900312 107.0414201183432, 32.90310098380972 107.84023668639053, 30.08796174401936 108.63905325443787, 33.58544539629866 109.43786982248521, 32.020774109944355 110.23668639053254, 27.263600602954806 111.03550295857988, 29.990238363865046 111.83431952662723, 29.1765057243233 112.63313609467457, 32.091431672437004 113.43195266272188, 32.34370329593897 114.23076923076923, 31.414398202395155 115.02958579881657, 29.533343841753446 115.82840236686391, 31.6240251867102 116.62721893491124, 34.439854998657324 117.42603550295858, 34.66086867424978 118.22485207100593, 32.67679464681973 119.02366863905324, 34.60005093803943 119.82248520710058, 33.35985868426655 120.62130177514793, 32.21739310395071 121.42011834319527, 31.030819869251403 122.2189349112426, 30.54158816842469 123.01775147928994, 27.58492535372631 123.81656804733728, 36.65719538545203 124.61538461538463, 37.11029519841107 125.41420118343194, 40.032255331282116 126.21301775147928, 41.31009105503753 127.01183431952663, 39.380956627793196 127.81065088757396, 29.14358983576364 128.60946745562129, 34.48785619952361 129.40828402366864, 33.63569196377592 130.20710059171597, 33.21824432358535 131.0059171597633, 34.71990662396136 131.80473372781066, 36.178796903669436 132.60355029585799, 35.57490598774896 133.40236686390534, 34.265888205740495 134.20118343195267, 29.808676978844083" fill="none" stroke="#ff3a33" stroke-width="1.25"/>

</svg>