<?xml version="1.0" standalone="no"?>
<!DOCTYPE svg PUBLIC "-//W3C//DTD SVG 1.1//EN" "http://www.w3.org/Graphics/SVG/1.1/DTD/svg11.dtd">

<svg width="135" height="50" viewBox="0 0 135 50" preserveAspectRatio="none" 
  xmlns="http://www.w3.org/2000/svg"
  xmlns:xlink="http://www.w3.org/1999/xlink">


<polyline points="0.0, 37.6143259312456 0.7988165680473372, 38.693884314821446 1.5976331360946745, 43.04230131754845 2.396449704142012, 43.72584665069011 3.195266272189349, 44.57797725588251 3.994082840236686, 44.43016511234333 4.792899408284024, 43.70995675202698 5.591715976331361, 42.85157887097662 6.390532544378698, 43.3764232727605 7.189349112426036, 43.900182066883566 7.988165680473372, 47.569021785908596 8.78698224852071, 42.549732849764055 9.585798816568047, 41.47540314728761 10.384615384615385, 41.79784318106544 11.183431952662723, 33.93836907796086 11.982248520710058, 41.634776335767874 12.781065088757396, 43.60483327640453 13.579881656804734, 46.67340328484008 14.378698224852071, 45.63620820519885 15.177514792899409, 44.25380179726079 15.976331360946745, 37.48425183611969 16.775147928994084, 37.32011088020856 17.57396449704142, 35.03202202500972 18.37278106508876, 31.912051052416047 19.171597633136095, 28.05132093685848 19.970414201183434, 30.237023897309502 20.76923076923077, 30.587789397259602 21.56804733727811, 31.546339775204913 22.366863905325445, 31.531976478943175 23.16568047337278, 31.26256922800394 23.964497041420117, 32.83303587915484 24.763313609467456, 39.8734318390086 25.562130177514792, 41.096722811987576 26.36094674556213, 41.35534812983787 27.159763313609467, 42.050806819923224 27.958579881656807, 47.10890495184275 28.757396449704142, 46.61779823442214 29.55621301775148, 45.48616448776245 30.355029585798817, 44.36026685046673 31.153846153846157, 50.0 31.95266272189349, 48.39757819856628 32.751479289940825, 43.51125878924963 33.55029585798817, 45.14806704083356 34.349112426035504, 45.8320088779837 35.14792899408284, 46.64786528420878 35.94674556213018, 47.86386553713752 36.74556213017752, 43.77510806713121 37.54437869822485, 43.47251521389128 38.34319526627219, 40.43538600859948 39.142011834319526, 37.62347104230432 39.94082840236687, 40.01581044006428 40.7396449704142, 43.466874045680434 41.53846153846154, 42.000932473811304 42.337278106508876, 42.12782975071557 43.13609467455622, 40.88696582575381 43.93491124260355, 39.323812893641104 44.73372781065089, 34.89318785774617 45.532544378698226, 29.92143140530451 46.33136094674556, 27.43247811629414 47.1301775147929, 35.99119521730058 47.928994082840234, 33.495512358600685 48.72781065088758, 34.16440971794799 49.52662721893491, 36.33949278852747 50.32544378698225, 38.29642414498781 51.124260355029584, 34.880725498452776 51.92307692307693, 34.614577128203635 52.72189349112426, 32.999363146204594 53.5207100591716, 33.92279265404839 54.319526627218934, 33.16935656047351 55.11834319526627, 28.627305009587673 55.91715976331361, 33.43791138482651 56.71597633136094, 33.579687091274394 57.514792899408285, 33.376835217079545 58.31360946745562, 32.37106834613511 59.11242603550296, 32.63337413966949 59.91124260355029, 35.95045512177107 60.710059171597635, 37.92919482819421 61.50887573964497, 38.96160982109137 62.307692307692314, 38.57051702521812 63.10650887573964, 38.43974725224775 63.90532544378698, 39.812447754858624 64.70414201183432, 45.08110672563919 65.50295857988165, 39.751361614406534 66.30177514792899, 39.377432504893136 67.10059171597634, 39.835924108511975 67.89940828402366, 40.38330740807626 68.69822485207101, 42.91843698279111 69.49704142011834, 40.87118444213617 70.29585798816568, 45.98847619224175 71.09467455621302, 41.652561070045365 71.89349112426036, 40.23505251583595 72.6923076923077, 40.95482303918487 73.49112426035504, 39.943364348837065 74.28994082840237, 39.31927858488513 75.0887573964497, 40.31850549114311 75.88757396449704, 45.03869769098546 76.68639053254438, 43.51427048156947 77.48520710059172, 42.30508528281702 78.28402366863905, 46.148880893778916 79.0828402366864, 44.662808644159675 79.88165680473374, 42.533357271115214 80.68047337278107, 39.533856465709114 81.4792899408284, 39.48638146301797 82.27810650887574, 40.12473604884066 83.07692307692308, 37.431345334866855 83.87573964497041, 39.31336540857276 84.67455621301775, 37.67458069371512 85.4733727810651, 37.914088673909504 86.27218934911244, 36.9956664067874 87.07100591715975, 38.20700018349022 87.8698224852071, 37.21598249416923 88.66863905325444, 37.51423582103716 89.46745562130178, 37.31407293358228 90.26627218934911, 36.745926530279746 91.06508875739645, 30.60367128632985 91.8639053254438, 33.33674880600749 92.66272189349112, 32.55392034466208 93.46153846153845, 33.12222170058688 94.2603550295858, 32.8558441807054 95.05917159763314, 32.39302380616984 95.85798816568047, 32.51704068632674 96.65680473372781, 32.897089543700034 97.45562130177515, 29.657724888958086 98.2544378698225, 29.156113782824132 99.05325443786982, 29.24527344173774 99.85207100591715, 29.84825437689087 100.6508875739645, 29.53940091193987 101.44970414201183, 24.262694935439875 102.24852071005917, 29.053486816090977 103.04733727810651, 29.74604958684856 103.84615384615385, 30.205431468642217 104.64497041420118, 26.35724831548483 105.44378698224853, 23.467013972461896 106.24260355029585, 22.798311032282893 107.0414201183432, 23.756547376475933 107.84023668639053, 23.34745267006557 108.63905325443787, 23.31600004515661 109.43786982248521, 24.837353703542338 110.23668639053254, 23.457519873095286 111.03550295857988, 23.328934907910114 111.83431952662723, 22.86927319420858 112.63313609467457, 16.019968920619405 113.43195266272188, 16.292906886132315 114.23076923076923, 11.014493953988966 115.02958579881657, 13.433898761170008 115.82840236686391, 11.452881848875569 116.62721893491124, 12.918123235018852 117.42603550295858, 12.389584974686196 118.22485207100593, 13.492886603435645 119.02366863905324, 13.692912564781984 119.82248520710058, 14.321072204792063 120.62130177514793, 14.515159562651379 121.42011834319527, 13.68892792750831 122.2189349112426, 14.347795211809549 123.01775147928994, 21.286503647584134 123.81656804733728, 21.961892944341294 124.61538461538463, 20.884176797577005 125.41420118343194, 19.075714870796375 126.21301775147928, 19.650602304112315 127.01183431952663, 18.161367975818525 127.81065088757396, 12.55244491721276 128.60946745562129, 6.4322998951493595 129.40828402366864, 5.996808105092126 130.20710059171597, 7.767534649395177 131.0059171597633, 0.8862922170179078 131.80473372781066, 0.37236066526718997 132.60355029585799, 0.0 133.40236686390534, 0.6321568254041285 134.20118343195267, 0.8647358660753338" fill="none" stroke="#32ca5b" stroke-width="1.25"/>

</svg>