<?xml version="1.0" standalone="no"?>
<!DOCTYPE svg PUBLIC "-//W3C//DTD SVG 1.1//EN" "http://www.w3.org/Graphics/SVG/1.1/DTD/svg11.dtd">

<svg width="135" height="50" viewBox="0 0 135 50" preserveAspectRatio="none" 
  xmlns="http://www.w3.org/2000/svg"
  xmlns:xlink="http://www.w3.org/1999/xlink">


<polyline points="0.0, 20.222653119065008 0.7988165680473372, 24.065018679758975 1.5976331360946745, 25.167379585825444 2.396449704142012, 22.019850585734087 3.195266272189349, 25.325591351141707 3.994082840236686, 24.120986728545077 4.792899408284024, 20.689783777651286 5.591715976331361, 20.20327296364078 6.390532544378698, 21.745718179332886 7.189349112426036, 23.85497846928586 7.988165680473372, 26.482069587642126 8.78698224852071, 23.2114404551654 9.585798816568047, 22.1888117289298 10.384615384615385, 24.797271590862607 11.183431952662723, 21.764724327317825 11.982248520710058, 29.117838807589624 12.781065088757396, 37.151152216675946 13.579881656804734, 39.015974798305855 14.378698224852071, 38.14988088802727 15.177514792899409, 36.23454296708656 15.976331360946745, 31.113425533517386 16.775147928994084, 31.180588369765626 17.57396449704142, 29.708385815026546 18.37278106508876, 28.25677587324369 19.171597633136095, 29.21431067311789 19.970414201183434, 29.563343549649844 20.76923076923077, 30.68907283322686 21.56804733727811, 32.05051301241472 22.366863905325445, 29.99948556762036 23.16568047337278, 32.31618350848336 23.964497041420117, 33.69430948188383 24.763313609467456, 35.99077965468345 25.562130177514792, 38.64345290600653 26.36094674556213, 38.06210033547967 27.159763313609467, 45.532894008825174 27.958579881656807, 43.92074884305473 28.757396449704142, 45.662679564038314 29.55621301775148, 42.63475647147601 30.355029585798817, 44.667531194242486 31.153846153846157, 47.69162361862045 31.95266272189349, 46.22908358832666 32.751479289940825, 44.77623887553065 33.55029585798817, 48.615559865733786 34.349112426035504, 50.0 35.14792899408284, 48.00192114422178 35.94674556213018, 47.74184866604394 36.74556213017752, 43.78449222005027 37.54437869822485, 41.70434531982622 38.34319526627219, 39.78820443719694 39.142011834319526, 41.3911977405569 39.94082840236687, 44.07373283251584 40.7396449704142, 43.35107605216601 41.53846153846154, 41.77305577879391 42.337278106508876, 42.140424190958484 43.13609467455622, 41.52069552708812 43.93491124260355, 37.81536272524772 44.73372781065089, 36.13419883506796 45.532544378698226, 31.24403937482502 46.33136094674556, 29.793542765171722 47.1301775147929, 30.17254816642999 47.928994082840234, 30.691344234618935 48.72781065088758, 32.523177535742036 49.52662721893491, 35.81184562095112 50.32544378698225, 32.640740834788836 51.124260355029584, 31.42436523932068 51.92307692307693, 33.313088302096176 52.72189349112426, 30.97586059983939 53.5207100591716, 29.992559137976286 54.319526627218934, 31.06883181745328 55.11834319526627, 26.41912343757272 55.91715976331361, 29.966167368505353 56.71597633136094, 28.997205578799495 57.514792899408285, 31.281152628117688 58.31360946745562, 29.438723069829376 59.11242603550296, 31.489362053248886 59.91124260355029, 35.53503079195532 60.710059171597635, 36.92724731194232 61.50887573964497, 36.65243490752674 62.307692307692314, 36.47039207305145 63.10650887573964, 34.79902168495686 63.90532544378698, 38.454050399969155 64.70414201183432, 40.333382526253885 65.50295857988165, 41.053329819315486 66.30177514792899, 39.04742147119487 67.10059171597634, 37.36296419765353 67.89940828402366, 39.489222148674706 68.69822485207101, 36.440892020830944 69.49704142011834, 29.18228296734026 70.29585798816568, 28.490890603569564 71.09467455621302, 32.41492671801336 71.89349112426036, 31.097218197858172 72.6923076923077, 31.260971496045624 73.49112426035504, 29.399721740766573 74.28994082840237, 28.35415917350114 75.0887573964497, 29.797354569340474 75.88757396449704, 31.23361574670145 76.68639053254438, 29.74127220076797 77.48520710059172, 28.714315783835197 78.28402366863905, 36.17290136279015 79.0828402366864, 31.12695349593617 79.88165680473374, 26.631719747384103 80.68047337278107, 12.63143346699495 81.4792899408284, 5.618325709742534 82.27810650887574, 12.631212906222302 83.07692307692308, 9.578084192042477 83.87573964497041, 11.388981122112273 84.67455621301775, 7.6807311347536436 85.4733727810651, 8.589215670205673 86.27218934911244, 8.27815528155516 87.07100591715975, 12.214064982174644 87.8698224852071, 12.564177372772484 88.66863905325444, 16.391653052565612 89.46745562130178, 17.53027989090784 90.26627218934911, 17.192645283976237 91.06508875739645, 14.471742969310068 91.8639053254438, 15.24263634156719 92.66272189349112, 15.323485139248483 93.46153846153845, 15.81057534929386 94.2603550295858, 15.680534345772202 95.05917159763314, 16.597634533319784 95.85798816568047, 16.188295496600464 96.65680473372781, 14.030033979798128 97.45562130177515, 14.598256572049772 98.2544378698225, 16.13596900705867 99.05325443786982, 15.887272583833031 99.85207100591715, 16.670920131632926 100.6508875739645, 13.035206877819267 101.44970414201183, 7.574660017009882 102.24852071005917, 8.817353989817965 103.04733727810651, 8.491275318005153 103.84615384615385, 11.491604412537457 104.64497041420118, 12.714159552839208 105.44378698224853, 8.949584754949086 106.24260355029585, 4.414545208573802 107.0414201183432, 6.544507914129944 107.84023668639053, 7.131898835276031 108.63905325443787, 9.05184338694115 109.43786982248521, 10.860871255865359 110.23668639053254, 9.297413469429234 111.03550295857988, 9.81668118920567 111.83431952662723, 9.021507104896864 112.63313609467457, 9.041458862782505 113.43195266272188, 8.898730206974271 114.23076923076923, 9.703304862089443 115.02958579881657, 8.462171929845997 115.82840236686391, 6.568843653665814 116.62721893491124, 8.626730038232875 117.42603550295858, 9.74426683734424 118.22485207100593, 6.333607583042296 119.02366863905324, 10.653411637912646 119.82248520710058, 9.30216298098255 120.62130177514793, 3.6098112852543505 121.42011834319527, 6.714625461262901 122.2189349112426, 5.588501420217634 123.01775147928994, 13.282965851606576 123.81656804733728, 10.76779691976859 124.61538461538463, 7.72473125366437 125.41420118343194, 8.603499676362079 126.21301775147928, 9.812339157152772 127.01183431952663, 5.371256913515008 127.81065088757396, 1.6584035616702963 128.60946745562129, 3.700602792380251 129.40828402366864, 3.869800810559592 130.20710059171597, 5.455800052890438 131.0059171597633, 2.8806986670065338 131.80473372781066, 1.1301555850753047 132.60355029585799, 0.0 133.40236686390534, 1.5795531312121784 134.20118343195267, 1.1423192894262004" fill="none" stroke="#32ca5b" stroke-width="1.25"/>

</svg>