<?xml version="1.0" standalone="no"?>
<!DOCTYPE svg PUBLIC "-//W3C//DTD SVG 1.1//EN" "http://www.w3.org/Graphics/SVG/1.1/DTD/svg11.dtd">

<svg width="135" height="50" viewBox="0 0 135 50" preserveAspectRatio="none" 
  xmlns="http://www.w3.org/2000/svg"
  xmlns:xlink="http://www.w3.org/1999/xlink">


<polyline points="0.0, 41.637788517895416 0.7988165680473372, 42.43695635280033 1.5976331360946745, 43.5464612512235 2.396449704142012, 43.293196720772215 3.195266272189349, 44.321770946841596 3.994082840236686, 44.56718750277774 4.792899408284024, 44.27541461240854 5.591715976331361, 43.354979288355715 6.390532544378698, 43.5768784487574 7.189349112426036, 44.53235907494929 7.988165680473372, 45.24993730513877 8.78698224852071, 44.70806421560788 9.585798816568047, 43.12177236156908 10.384615384615385, 42.9995961535229 11.183431952662723, 41.88921812296095 11.982248520710058, 44.284140784888656 12.781065088757396, 46.19581937539844 13.579881656804734, 47.56346603752395 14.378698224852071, 46.799484540473166 15.177514792899409, 46.603046605261305 15.976331360946745, 44.78019585323991 16.775147928994084, 44.708319938103116 17.57396449704142, 44.65086950475906 18.37278106508876, 44.685305784002274 19.171597633136095, 44.20998334064022 19.970414201183434, 44.67850366410846 20.76923076923077, 45.45922552663907 21.56804733727811, 46.31364289534912 22.366863905325445, 46.13225252829625 23.16568047337278, 46.062855370250624 23.964497041420117, 46.015787332544406 24.763313609467456, 46.696031158308145 25.562130177514792, 47.216262744270246 26.36094674556213, 46.631347821877974 27.159763313609467, 48.64907513546429 27.958579881656807, 48.50591105310499 28.757396449704142, 49.32791098567341 29.55621301775148, 47.36410243414389 30.355029585798817, 47.93927532157095 31.153846153846157, 49.52368430506115 31.95266272189349, 48.406626819583636 32.751479289940825, 47.63556557040048 33.55029585798817, 48.933309716185406 34.349112426035504, 50.0 35.14792899408284, 49.29146670627233 35.94674556213018, 48.91579147628536 36.74556213017752, 47.96944631707788 37.54437869822485, 47.93174062997102 38.34319526627219, 47.08404640022947 39.142011834319526, 47.999725601069 39.94082840236687, 49.65759577761198 40.7396449704142, 49.564996557726424 41.53846153846154, 48.95571033019678 42.337278106508876, 49.25183684700566 43.13609467455622, 48.466115632069695 43.93491124260355, 47.543611892969615 44.73372781065089, 46.79557843527813 45.532544378698226, 46.15580828743881 46.33136094674556, 45.587268281140084 47.1301775147929, 46.78874644502958 47.928994082840234, 44.93437449577527 48.72781065088758, 44.87292986435288 49.52662721893491, 45.92854618456923 50.32544378698225, 43.86957663818915 51.124260355029584, 42.15535059474737 51.92307692307693, 44.01166004301745 52.72189349112426, 43.06481510374617 53.5207100591716, 42.781326276671706 54.319526627218934, 43.70564814857998 55.11834319526627, 42.09630405423611 55.91715976331361, 43.79281076821574 56.71597633136094, 42.64676322085851 57.514792899408285, 42.384331212899404 58.31360946745562, 41.814059960198875 59.11242603550296, 42.804127037871666 59.91124260355029, 43.64100149751199 60.710059171597635, 44.22781866797203 61.50887573964497, 44.78123931426115 62.307692307692314, 44.78924988142583 63.10650887573964, 43.88132971983655 63.90532544378698, 43.88614839537962 64.70414201183432, 44.05093503258708 65.50295857988165, 42.056594054467325 66.30177514792899, 30.99237949274557 67.10059171597634, 34.525886516987356 67.89940828402366, 38.19095598660529 68.69822485207101, 38.25673758388231 69.49704142011834, 39.89070988334822 70.29585798816568, 41.85490933368526 71.09467455621302, 42.36356160611224 71.89349112426036, 40.645307522508425 72.6923076923077, 41.26993434796377 73.49112426035504, 41.26232853835873 74.28994082840237, 41.75217645926853 75.0887573964497, 42.78338050734518 75.88757396449704, 43.83066698235987 76.68639053254438, 43.85014933076536 77.48520710059172, 44.4732890401822 78.28402366863905, 46.53363651911996 79.0828402366864, 45.432204637139854 79.88165680473374, 44.63459868945429 80.68047337278107, 44.356790427718416 81.4792899408284, 44.08900846445694 82.27810650887574, 44.52752542812542 83.07692307692308, 44.08307956016137 83.87573964497041, 44.93769422101153 84.67455621301775, 42.98699962994945 85.4733727810651, 42.01607197281143 86.27218934911244, 42.14581967139788 87.07100591715975, 42.48691609737915 87.8698224852071, 42.6639886973064 88.66863905325444, 42.87817821095724 89.46745562130178, 42.803592832213255 90.26627218934911, 40.30834746996794 91.06508875739645, 39.56433456405633 91.8639053254438, 40.77338993644091 92.66272189349112, 39.382558910168605 93.46153846153845, 37.24218668369875 94.2603550295858, 37.55919817742503 95.05917159763314, 37.45106901218722 95.85798816568047, 36.39743209271008 96.65680473372781, 37.671773906608294 97.45562130177515, 36.941156007417405 98.2544378698225, 36.328018874719994 99.05325443786982, 34.5090228400061 99.85207100591715, 33.378333329696986 100.6508875739645, 33.869040265901155 101.44970414201183, 35.04580649351311 102.24852071005917, 34.6721360564259 103.04733727810651, 36.67217237919343 103.84615384615385, 36.604342690915516 104.64497041420118, 37.32464204459999 105.44378698224853, 35.92666592600567 106.24260355029585, 36.581135269905815 107.0414201183432, 36.906494124985656 107.84023668639053, 36.0837221476886 108.63905325443787, 36.83334058515709 109.43786982248521, 36.27689564933099 110.23668639053254, 35.531646520409396 111.03550295857988, 31.695372295096476 111.83431952662723, 31.953394035898548 112.63313609467457, 32.73549699355522 113.43195266272188, 31.476287137799652 114.23076923076923, 31.86684110190428 115.02958579881657, 31.8103058522745 115.82840236686391, 27.736385470962148 116.62721893491124, 30.004637191692208 117.42603550295858, 31.888852190026608 118.22485207100593, 31.495512111777252 119.02366863905324, 30.7814101473036 119.82248520710058, 30.80028490743328 120.62130177514793, 29.741793375791588 121.42011834319527, 30.85874854908503 122.2189349112426, 29.76564744876326 123.01775147928994, 33.47936314211306 123.81656804733728, 28.046606811249646 124.61538461538463, 29.743682920844766 125.41420118343194, 28.85017499953041 126.21301775147928, 27.473992431337614 127.01183431952663, 20.75211820836184 127.81065088757396, 18.03470534856064 128.60946745562129, 20.50690572742931 129.40828402366864, 21.523830857310074 130.20710059171597, 19.807498359589857 131.0059171597633, 10.424652636873274 131.80473372781066, 9.046137380267732 132.60355029585799, 0.0 133.40236686390534, 5.659501151853872 134.20118343195267, 2.834912762141438" fill="none" stroke="#32ca5b" stroke-width="1.25"/>

</svg>