<?xml version="1.0" standalone="no"?>
<!DOCTYPE svg PUBLIC "-//W3C//DTD SVG 1.1//EN" "http://www.w3.org/Graphics/SVG/1.1/DTD/svg11.dtd">

<svg width="135" height="50" viewBox="0 0 135 50" preserveAspectRatio="none" 
  xmlns="http://www.w3.org/2000/svg"
  xmlns:xlink="http://www.w3.org/1999/xlink">


<polyline points="0.0, 28.625973632976354 0.7988165680473372, 15.638789201991294 1.5976331360946745, 7.697995822273312 2.396449704142012, 30.09446731196998 3.195266272189349, 17.209622153550562 3.994082840236686, 22.36442488970695 4.792899408284024, 19.516034091020398 5.591715976331361, 21.400125674501062 6.390532544378698, 19.670334733123255 7.189349112426036, 10.641647781503618 7.988165680473372, 14.64538171627382 8.78698224852071, 13.298663862011253 9.585798816568047, 22.204540803105544 10.384615384615385, 16.07451721084921 11.183431952662723, 14.92145727046329 11.982248520710058, 16.64285586643142 12.781065088757396, 26.120686723985525 13.579881656804734, 8.280175859675763 14.378698224852071, 19.87660861563312 15.177514792899409, 20.03704088235804 15.976331360946745, 32.08406310621772 16.775147928994084, 17.733568413059672 17.57396449704142, 21.686822913963017 18.37278106508876, 18.603159580118746 19.171597633136095, 18.378132414127986 19.970414201183434, 22.464267005936993 20.76923076923077, 21.740981210005494 21.56804733727811, 22.758101050349232 22.366863905325445, 21.82949471311253 23.16568047337278, 19.245594865529895 23.964497041420117, 15.530677503935625 24.763313609467456, 27.517673846921998 25.562130177514792, 19.883744180086683 26.36094674556213, 44.26511054801277 27.159763313609467, 26.484649377174936 27.958579881656807, 20.571387099304403 28.757396449704142, 19.0069154037335 29.55621301775148, 9.714917284570493 30.355029585798817, 25.16572020944558 31.153846153846157, 32.16685784940172 31.95266272189349, 10.305071590367115 32.751479289940825, 14.049981173965346 33.55029585798817, 21.103291434689304 34.349112426035504, 13.134822663280534 35.14792899408284, 32.51991009956804 35.94674556213018, 16.47660718665974 36.74556213017752, 9.205920330918898 37.54437869822485, 13.688647643612436 38.34319526627219, 30.582233748887376 39.142011834319526, 20.708033434487255 39.94082840236687, 20.282361574414644 40.7396449704142, 23.118521732182007 41.53846153846154, 25.038046827056416 42.337278106508876, 28.611671588330594 43.13609467455622, 17.053544168088102 43.93491124260355, 27.670250079497034 44.73372781065089, 13.333059225046995 45.532544378698226, 21.813826243811782 46.33136094674556, 31.343669358106414 47.1301775147929, 22.68548686382801 47.928994082840234, 16.5835783114548 48.72781065088758, 6.898547689472748 49.52662721893491, 1.4899329129283023 50.32544378698225, 14.623307436235589 51.124260355029584, 21.60290574231056 51.92307692307693, 17.1393711117309 52.72189349112426, 14.838998471650505 53.5207100591716, 24.721958161162245 54.319526627218934, 10.656786083254088 55.11834319526627, 18.384195632923873 55.91715976331361, 13.465448213161807 56.71597633136094, 15.620354009182783 57.514792899408285, 9.986025864431685 58.31360946745562, 27.682106042586707 59.11242603550296, 47.91996472124372 59.91124260355029, 18.074794733972876 60.710059171597635, 22.86300462969242 61.50887573964497, 26.61140099290002 62.307692307692314, 18.986091828346293 63.10650887573964, 35.57782309180636 63.90532544378698, 19.799252737447606 64.70414201183432, 29.084887273883396 65.50295857988165, 18.83918055715622 66.30177514792899, 21.46916217893328 67.10059171597634, 19.78888550611586 67.89940828402366, 17.150699049282352 68.69822485207101, 21.680661844679886 69.49704142011834, 29.40081821406695 70.29585798816568, 5.2586861331102135 71.09467455621302, 19.790506350414454 71.89349112426036, 25.693800557047187 72.6923076923077, 18.915482070578808 73.49112426035504, 13.718506098891512 74.28994082840237, 24.16058587060264 75.0887573964497, 25.062934534776137 75.88757396449704, 31.98801306436315 76.68639053254438, 21.081757036637164 77.48520710059172, 30.98020267879135 78.28402366863905, 15.44337683005901 79.0828402366864, 19.17526158012804 79.88165680473374, 20.985392330362693 80.68047337278107, 16.553676285031894 81.4792899408284, 20.024621192533022 82.27810650887574, 18.54502352446401 83.07692307692308, 21.577750838462073 83.87573964497041, 20.006200677438876 84.67455621301775, 19.914482271626042 85.4733727810651, 15.946102143263966 86.27218934911244, 18.260547130274578 87.07100591715975, 20.702414067635114 87.8698224852071, 20.166808229099228 88.66863905325444, 21.679238189604508 89.46745562130178, 16.495641174958642 90.26627218934911, 3.6199015607163534 91.06508875739645, 25.519089344143005 91.8639053254438, 17.630704172612813 92.66272189349112, 20.433930318224483 93.46153846153845, 19.191298364590565 94.2603550295858, 25.067286900952425 95.05917159763314, 24.98562453937393 95.85798816568047, 20.018631741473516 96.65680473372781, 15.769919613484234 97.45562130177515, 50.0 98.2544378698225, 13.897487356385918 99.05325443786982, 15.313743499648869 99.85207100591715, 15.141629670004267 100.6508875739645, 16.495712697247946 101.44970414201183, 20.08650760653917 102.24852071005917, 28.158699368887223 103.04733727810651, 17.692283074009687 103.84615384615385, 21.08152712401168 104.64497041420118, 21.331791918062724 105.44378698224853, 16.526946833824496 106.24260355029585, 21.64793090686651 107.0414201183432, 16.302743730061014 107.84023668639053, 19.900732630417547 108.63905325443787, 17.369529460568856 109.43786982248521, 18.11985763023024 110.23668639053254, 17.825658754187476 111.03550295857988, 21.7083862938131 111.83431952662723, 24.29212356324264 112.63313609467457, 13.431359930753345 113.43195266272188, 29.731766891818612 114.23076923076923, 24.387880879240875 115.02958579881657, 18.97981262742534 115.82840236686391, 26.196380442824413 116.62721893491124, 26.779459230342773 117.42603550295858, 11.400742940707321 118.22485207100593, 19.529356711177634 119.02366863905324, 21.07483701700889 119.82248520710058, 17.578658246485897 120.62130177514793, 28.520791169586058 121.42011834319527, 21.901074031437556 122.2189349112426, 25.84873036443323 123.01775147928994, 19.80613537880158 123.81656804733728, 21.09360467513512 124.61538461538463, 15.707406832234232 125.41420118343194, 26.835013565219505 126.21301775147928, 15.80705476951256 127.01183431952663, 5.264506473327312 127.81065088757396, 13.224690088640518 128.60946745562129, 14.589067377526224 129.40828402366864, 6.689589272133315 130.20710059171597, 18.59803392103611 131.0059171597633, 36.849479967778045 131.80473372781066, 23.211924448563376 132.60355029585799, 0.0 133.40236686390534, 25.985723878963697 134.20118343195267, 10.47252808362221" fill="none" stroke="#32ca5b" stroke-width="1.25"/>

</svg>