<?xml version="1.0" standalone="no"?>
<!DOCTYPE svg PUBLIC "-//W3C//DTD SVG 1.1//EN" "http://www.w3.org/Graphics/SVG/1.1/DTD/svg11.dtd">

<svg width="135" height="50" viewBox="0 0 135 50" preserveAspectRatio="none" 
  xmlns="http://www.w3.org/2000/svg"
  xmlns:xlink="http://www.w3.org/1999/xlink">


<polyline points="0.0, 39.95929921476692 0.7988165680473372, 42.001035511558015 1.5976331360946745, 43.69475307955308 2.396449704142012, 42.959894871993306 3.195266272189349, 47.00058362550921 3.994082840236686, 43.78241900210328 4.792899408284024, 43.53033693170965 5.591715976331361, 42.690166920882035 6.390532544378698, 44.21338636540407 7.189349112426036, 44.7958020383836 7.988165680473372, 50.0 8.78698224852071, 43.57171759692815 9.585798816568047, 41.857221812075785 10.384615384615385, 42.92808978893126 11.183431952662723, 31.905351126964987 11.982248520710058, 41.507923421350924 12.781065088757396, 43.70609716126401 13.579881656804734, 48.97938635452731 14.378698224852071, 45.13394585914972 15.177514792899409, 43.1396180979877 15.976331360946745, 34.04273886779784 16.775147928994084, 35.39650747800629 17.57396449704142, 32.77450907994906 18.37278106508876, 30.70741755767454 19.171597633136095, 28.692523175555518 19.970414201183434, 30.944981224925073 20.76923076923077, 31.087355123498273 21.56804733727811, 29.544123352531358 22.366863905325445, 30.25920366303981 23.16568047337278, 31.728286462245308 23.964497041420117, 34.85376897641983 24.763313609467456, 39.31311217281874 25.562130177514792, 41.48653503740497 26.36094674556213, 40.9625465211126 27.159763313609467, 47.10233075767329 27.958579881656807, 44.37629868731184 28.757396449704142, 47.68335854802185 29.55621301775148, 44.40943673602315 30.355029585798817, 46.74329182457003 31.153846153846157, 49.93791316134028 31.95266272189349, 46.65161296679706 32.751479289940825, 42.593771251458186 33.55029585798817, 48.00124458976393 34.349112426035504, 48.39368029171482 35.14792899408284, 46.51335273798567 35.94674556213018, 47.611065590966746 36.74556213017752, 43.2582514330607 37.54437869822485, 43.366557353822635 38.34319526627219, 34.960669146729664 39.142011834319526, 40.14446385335928 39.94082840236687, 45.648894424738636 40.7396449704142, 44.44733051796836 41.53846153846154, 42.15733605935251 42.337278106508876, 43.6915353948092 43.13609467455622, 42.488122663363555 43.93491124260355, 39.129484191196724 44.73372781065089, 33.37147121758977 45.532544378698226, 28.41155162830027 46.33136094674556, 26.401227625126015 47.1301775147929, 31.6572895258078 47.928994082840234, 32.782219370773014 48.72781065088758, 34.469778178777545 49.52662721893491, 40.74897807536485 50.32544378698225, 36.11106723008069 51.124260355029584, 33.32088142654039 51.92307692307693, 36.16430133715881 52.72189349112426, 33.2777883883029 53.5207100591716, 32.20869336105743 54.319526627218934, 33.536936605131196 55.11834319526627, 29.72725337317228 55.91715976331361, 34.361265796475735 56.71597633136094, 33.4942726484516 57.514792899408285, 35.456296456009 58.31360946745562, 32.94640950968948 59.11242603550296, 34.14634216424889 59.91124260355029, 40.840125968242155 60.710059171597635, 39.117095430454064 61.50887573964497, 39.00757649547143 62.307692307692314, 38.79421793705933 63.10650887573964, 37.59447224643669 63.90532544378698, 42.7761950966046 64.70414201183432, 44.10998378952191 65.50295857988165, 41.00188269633457 66.30177514792899, 40.792884906834296 67.10059171597634, 41.281441531373794 67.89940828402366, 42.88085083431183 68.69822485207101, 40.8616334954651 69.49704142011834, 40.24244198364385 70.29585798816568, 43.7415850851002 71.09467455621302, 42.216674514936265 71.89349112426036, 40.60419612424614 72.6923076923077, 40.72811141141134 73.49112426035504, 40.16861468424529 74.28994082840237, 39.46975784272917 75.0887573964497, 40.60286459228898 75.88757396449704, 43.808162850098995 76.68639053254438, 43.65983419682601 77.48520710059172, 42.376444559236894 78.28402366863905, 46.29316914143729 79.0828402366864, 44.13216987855451 79.88165680473374, 42.443951482383 80.68047337278107, 39.75520542747418 81.4792899408284, 39.61627472788493 82.27810650887574, 40.07758113456703 83.07692307692308, 37.71725234951144 83.87573964497041, 39.239743313217055 84.67455621301775, 38.00810365513908 85.4733727810651, 38.2011675757368 86.27218934911244, 37.277438692984724 87.07100591715975, 38.07581755938809 87.8698224852071, 37.17043829080979 88.66863905325444, 38.41489808378382 89.46745562130178, 38.20445165150993 90.26627218934911, 37.365897840880166 91.06508875739645, 31.125495486376142 91.8639053254438, 33.582630936593766 92.66272189349112, 33.35430375516687 93.46153846153845, 33.377569357062 94.2603550295858, 33.2830756111543 95.05917159763314, 33.06320672268758 95.85798816568047, 33.09762164910861 96.65680473372781, 32.97095419740652 97.45562130177515, 30.708700636110137 98.2544378698225, 26.562527157428057 99.05325443786982, 26.820899092260568 99.85207100591715, 28.22206014434416 100.6508875739645, 26.146808069541766 101.44970414201183, 25.387230634553127 102.24852071005917, 26.429211312148116 103.04733727810651, 27.434290745636996 103.84615384615385, 27.877650476157285 104.64497041420118, 27.26225623413591 105.44378698224853, 24.663859086700874 106.24260355029585, 24.158502997288718 107.0414201183432, 24.83121473331186 107.84023668639053, 20.40832781160299 108.63905325443787, 24.292271065241863 109.43786982248521, 24.35163862160229 110.23668639053254, 20.836938661762655 111.03550295857988, 20.714256632080748 111.83431952662723, 17.290261309412713 112.63313609467457, 14.975507997808919 113.43195266272188, 13.016440159992298 114.23076923076923, 14.237405537368081 115.02958579881657, 12.632670134322469 115.82840236686391, 11.622767657789359 116.62721893491124, 14.010302353548083 117.42603550295858, 15.300698975944742 118.22485207100593, 13.926071847166591 119.02366863905324, 13.398382852306955 119.82248520710058, 13.313568650630028 120.62130177514793, 12.940775071092942 121.42011834319527, 16.346701281428867 122.2189349112426, 15.544651472087429 123.01775147928994, 23.317420289331878 123.81656804733728, 21.099734097066825 124.61538461538463, 21.766807583930298 125.41420118343194, 20.455114859648916 126.21301775147928, 20.640857648039216 127.01183431952663, 14.236586679860178 127.81065088757396, 7.95274071113732 128.60946745562129, 6.011574675839987 129.40828402366864, 5.992562148429092 130.20710059171597, 8.740229215019818 131.0059171597633, 0.6791749083682963 131.80473372781066, 1.3835746795228618 132.60355029585799, 0.0 133.40236686390534, 0.9796058313340036 134.20118343195267, 0.910803378575639" fill="none" stroke="#32ca5b" stroke-width="1.25"/>

</svg>