<?xml version="1.0" standalone="no"?>
<!DOCTYPE svg PUBLIC "-//W3C//DTD SVG 1.1//EN" "http://www.w3.org/Graphics/SVG/1.1/DTD/svg11.dtd">

<svg width="135" height="50" viewBox="0 0 135 50" preserveAspectRatio="none" 
  xmlns="http://www.w3.org/2000/svg"
  xmlns:xlink="http://www.w3.org/1999/xlink">


<polyline points="0.0, 4.73204449539125 0.7988165680473372, 5.719974539788829 1.5976331360946745, 4.219783546731193 2.396449704142012, 7.737797445619399 3.195266272189349, 2.440146300824894 3.994082840236686, 1.1001930775418864 4.792899408284024, 2.170166340560822 5.591715976331361, 3.7206597022731103 6.390532544378698, 5.658298679832437 7.189349112426036, 9.32843925321696 7.988165680473372, 5.949361071655636 8.78698224852071, 2.6592346577649932 9.585798816568047, 6.824822272986883 10.384615384615385, 0.0 11.183431952662723, 11.618782343764343 11.982248520710058, 17.23817540298389 12.781065088757396, 22.966334239816703 13.579881656804734, 23.402991383658723 14.378698224852071, 21.88838371425047 15.177514792899409, 13.85424422586703 15.976331360946745, 10.918182712932039 16.775147928994084, 11.140242684566239 17.57396449704142, 8.917587475540783 18.37278106508876, 9.364147674507782 19.171597633136095, 16.243132749785268 19.970414201183434, 21.32345871409328 20.76923076923077, 22.260126206403513 21.56804733727811, 21.102164494691706 22.366863905325445, 21.560179875570228 23.16568047337278, 24.995727312231516 23.964497041420117, 26.80726975440318 24.763313609467456, 28.173689874032842 25.562130177514792, 24.660535653429378 26.36094674556213, 36.801648303839855 27.159763313609467, 31.322104595088042 27.958579881656807, 36.776344066832046 28.757396449704142, 32.487096978148784 29.55621301775148, 35.29673802054233 30.355029585798817, 39.02427718341434 31.153846153846157, 34.03208866376199 31.95266272189349, 31.08488992540817 32.751479289940825, 35.564585914021336 33.55029585798817, 39.2932256542693 34.349112426035504, 39.77845072441538 35.14792899408284, 40.34282464694156 35.94674556213018, 32.15771147964526 36.74556213017752, 28.956507500280587 37.54437869822485, 26.538849664660408 38.34319526627219, 31.656918108315065 39.142011834319526, 37.62699820774005 39.94082840236687, 37.142168626210214 40.7396449704142, 19.524391036836374 41.53846153846154, 28.066876098126535 42.337278106508876, 22.235680345569197 43.13609467455622, 18.42849743525455 43.93491124260355, 18.464592937123182 44.73372781065089, 15.187778234788585 45.532544378698226, 11.493318687820992 46.33136094674556, 16.252505372605402 47.1301775147929, 20.65974787889392 47.928994082840234, 23.70526331252965 48.72781065088758, 30.899208538273363 49.52662721893491, 26.36761925925894 50.32544378698225, 24.770938413011283 51.124260355029584, 30.337013771394872 51.92307692307693, 25.982098568380486 52.72189349112426, 23.123974319899094 53.5207100591716, 25.672350113007752 54.319526627218934, 22.64662591359864 55.11834319526627, 27.678912771852964 55.91715976331361, 28.640856522902027 56.71597633136094, 30.8451160747055 57.514792899408285, 34.46026806284848 58.31360946745562, 36.44737422152298 59.11242603550296, 40.879992428115884 59.91124260355029, 42.70934849088285 60.710059171597635, 39.29599133530396 61.50887573964497, 40.695767085930754 62.307692307692314, 36.5118152212447 63.10650887573964, 41.27084234389685 63.90532544378698, 42.96298677523406 64.70414201183432, 39.64018907897587 65.50295857988165, 38.13530486429684 66.30177514792899, 37.8778208798171 67.10059171597634, 41.45203388063203 67.89940828402366, 38.51414875184999 68.69822485207101, 38.634406938614816 69.49704142011834, 44.50215487568147 70.29585798816568, 43.38492167269912 71.09467455621302, 38.4465197112845 71.89349112426036, 38.04791501670103 72.6923076923077, 38.62807722040661 73.49112426035504, 34.22779602706187 74.28994082840237, 35.797051613340045 75.0887573964497, 39.21439222617589 75.88757396449704, 41.637643162715484 76.68639053254438, 39.73358663736562 77.48520710059172, 50.0 78.28402366863905, 46.691831495397516 79.0828402366864, 48.07587675646283 79.88165680473374, 43.38095220486706 80.68047337278107, 41.45445053190119 81.4792899408284, 45.294229329906635 82.27810650887574, 42.251797052574034 83.07692307692308, 43.49990115670166 83.87573964497041, 41.07217537902254 84.67455621301775, 39.69841583811323 85.4733727810651, 36.19846624819139 86.27218934911244, 37.94230308908425 87.07100591715975, 38.68709494245807 87.8698224852071, 42.18590137772597 88.66863905325444, 39.98174586481557 89.46745562130178, 35.44396713909509 90.26627218934911, 29.655148485508136 91.06508875739645, 34.77881370811893 91.8639053254438, 32.24614554362138 92.66272189349112, 31.76874324149902 93.46153846153845, 32.7704410451814 94.2603550295858, 33.81839665926954 95.05917159763314, 32.68259886965033 95.85798816568047, 35.58936146317176 96.65680473372781, 35.586496322421205 97.45562130177515, 38.498434014716594 98.2544378698225, 37.48362503957365 99.05325443786982, 38.40111541944821 99.85207100591715, 39.43406242423939 100.6508875739645, 38.65331612617605 101.44970414201183, 39.812860003617864 102.24852071005917, 41.57452513125131 103.04733727810651, 40.523046742523725 103.84615384615385, 41.43478356762533 104.64497041420118, 39.03802524922479 105.44378698224853, 38.202981482208436 106.24260355029585, 39.105659668226465 107.0414201183432, 36.928685511987744 107.84023668639053, 38.52240014831305 108.63905325443787, 39.10249779680798 109.43786982248521, 37.00084984174271 110.23668639053254, 36.34465727827327 111.03550295857988, 33.76427922713795 111.83431952662723, 34.28171979885722 112.63313609467457, 33.723220073286505 113.43195266272188, 34.01137815013035 114.23076923076923, 32.94797516936237 115.02958579881657, 36.34532822586134 115.82840236686391, 35.88710609168153 116.62721893491124, 35.27689381159522 117.42603550295858, 32.54118782085929 118.22485207100593, 30.49608562357417 119.02366863905324, 29.31920087212369 119.82248520710058, 24.85486474365888 120.62130177514793, 31.4516084584682 121.42011834319527, 28.868818669318774 122.2189349112426, 45.202988075335234 123.01775147928994, 39.965560098424596 123.81656804733728, 41.76540374333763 124.61538461538463, 44.95116292698891 125.41420118343194, 43.66538070335208 126.21301775147928, 35.618720820196195 127.01183431952663, 25.32087959517356 127.81065088757396, 19.44557297782411 128.60946745562129, 20.225464239805905 129.40828402366864, 21.754233814938083 130.20710059171597, 17.313566401731414 131.0059171597633, 16.71542751809717 131.80473372781066, 17.244120391400923 132.60355029585799, 17.2549315034283 133.40236686390534, 18.227629683402828 134.20118343195267, 20.687044776122438" fill="none" stroke="#ff3a33" stroke-width="1.25"/>

</svg>