<?xml version="1.0" standalone="no"?>
<!DOCTYPE svg PUBLIC "-//W3C//DTD SVG 1.1//EN" "http://www.w3.org/Graphics/SVG/1.1/DTD/svg11.dtd">

<svg width="135" height="50" viewBox="0 0 135 50" preserveAspectRatio="none" 
  xmlns="http://www.w3.org/2000/svg"
  xmlns:xlink="http://www.w3.org/1999/xlink">


<polyline points="0.0, 29.57731868256665 0.7988165680473372, 29.829563332537308 1.5976331360946745, 31.02551251780013 2.396449704142012, 29.746976331395775 3.195266272189349, 31.97218302975489 3.994082840236686, 31.059040841588292 4.792899408284024, 30.138801145173915 5.591715976331361, 29.897933263778555 6.390532544378698, 30.419194284802632 7.189349112426036, 30.417736245980375 7.988165680473372, 32.93704111395981 8.78698224852071, 31.433835984233543 9.585798816568047, 30.19823208735068 10.384615384615385, 29.37511590291652 11.183431952662723, 27.52100197575085 11.982248520710058, 33.028010949581 12.781065088757396, 35.39235697848956 13.579881656804734, 37.63198278651632 14.378698224852071, 40.65311094111915 15.177514792899409, 40.020783152840174 15.976331360946745, 37.96390213988083 16.775147928994084, 37.87078974679533 17.57396449704142, 36.955912354924855 18.37278106508876, 36.30367398023954 19.171597633136095, 36.85303191677845 19.970414201183434, 36.26927913233506 20.76923076923077, 35.03294471679529 21.56804733727811, 33.06847424975314 22.366863905325445, 34.27956847038281 23.16568047337278, 35.792459099499894 23.964497041420117, 36.5723391061088 24.763313609467456, 37.37352938153904 25.562130177514792, 38.75230244484865 26.36094674556213, 38.97030635755563 27.159763313609467, 41.50965589875863 27.958579881656807, 41.21513514390146 28.757396449704142, 43.04304614669336 29.55621301775148, 42.03615134402633 30.355029585798817, 44.99050776460351 31.153846153846157, 47.292808831290756 31.95266272189349, 45.55177799301098 32.751479289940825, 44.214540803945624 33.55029585798817, 47.04024391730655 34.349112426035504, 46.7415715942817 35.14792899408284, 46.120904053426685 35.94674556213018, 46.74646453003544 36.74556213017752, 44.068904426680014 37.54437869822485, 42.46548346005963 38.34319526627219, 41.83775506256095 39.142011834319526, 43.40795692771513 39.94082840236687, 46.6525076688805 40.7396449704142, 45.55655521278687 41.53846153846154, 45.20156179559608 42.337278106508876, 44.883132129540115 43.13609467455622, 44.60239892466375 43.93491124260355, 42.212657978313054 44.73372781065089, 41.34032843719576 45.532544378698226, 39.69916146621667 46.33136094674556, 39.899418961383454 47.1301775147929, 42.64022624861576 47.928994082840234, 42.93394004837525 48.72781065088758, 44.01535728946368 49.52662721893491, 44.89185948216902 50.32544378698225, 44.332107551785796 51.124260355029584, 45.66413144673015 51.92307692307693, 44.54980747710859 52.72189349112426, 41.59369812845651 53.5207100591716, 41.001620124168454 54.319526627218934, 42.05969591722293 55.11834319526627, 41.930930640729905 55.91715976331361, 43.397850946876694 56.71597633136094, 43.292186292402725 57.514792899408285, 45.52467906577094 58.31360946745562, 44.10328354342264 59.11242603550296, 45.42105165020163 59.91124260355029, 46.69613653612243 60.710059171597635, 47.664948435405925 61.50887573964497, 47.655194344244336 62.307692307692314, 47.40175038214257 63.10650887573964, 46.13897899329125 63.90532544378698, 48.2372774292395 64.70414201183432, 50.0 65.50295857988165, 48.80288831384022 66.30177514792899, 47.894745948370456 67.10059171597634, 48.156594907050625 67.89940828402366, 49.49891291367939 68.69822485207101, 47.03889492270599 69.49704142011834, 46.02944624822749 70.29585798816568, 47.50610523336578 71.09467455621302, 47.09411664565803 71.89349112426036, 47.054460777306836 72.6923076923077, 46.70208932361245 73.49112426035504, 45.92329722543783 74.28994082840237, 45.35323620947702 75.0887573964497, 46.31682187564814 75.88757396449704, 47.5984301437201 76.68639053254438, 47.92826677637841 77.48520710059172, 47.67494425515138 78.28402366863905, 49.30444539764652 79.0828402366864, 48.50157670539731 79.88165680473374, 47.802898274956235 80.68047337278107, 47.388103263321824 81.4792899408284, 47.41061689945788 82.27810650887574, 47.93702808150987 83.07692307692308, 45.70260678367073 83.87573964497041, 46.34971011175371 84.67455621301775, 44.16713448511595 85.4733727810651, 43.193879271076376 86.27218934911244, 41.17163055628443 87.07100591715975, 42.51187783973984 87.8698224852071, 41.409729219209645 88.66863905325444, 33.002663220677675 89.46745562130178, 30.288186628938224 90.26627218934911, 33.49155975340385 91.06508875739645, 30.932766813158892 91.8639053254438, 31.28076926778164 92.66272189349112, 32.76303589253992 93.46153846153845, 33.10871685844339 94.2603550295858, 32.79420720224612 95.05917159763314, 31.57483023067609 95.85798816568047, 32.19411240525469 96.65680473372781, 25.277238898716764 97.45562130177515, 22.890951902407316 98.2544378698225, 25.61517134101497 99.05325443786982, 28.22588962437801 99.85207100591715, 29.23106895525737 100.6508875739645, 29.28540078257224 101.44970414201183, 29.11229653118112 102.24852071005917, 29.676496513778535 103.04733727810651, 30.92624019269795 103.84615384615385, 29.235819272922797 104.64497041420118, 30.437070229560568 105.44378698224853, 26.67935362094705 106.24260355029585, 22.919003709506963 107.0414201183432, 26.485903692623587 107.84023668639053, 26.88054810038779 108.63905325443787, 25.75914432188217 109.43786982248521, 27.924460336253542 110.23668639053254, 22.39230071749053 111.03550295857988, 18.378879210340536 111.83431952662723, 11.077836669432545 112.63313609467457, 9.744421249981212 113.43195266272188, 9.160741961195612 114.23076923076923, 9.286164458856158 115.02958579881657, 7.987971199960961 115.82840236686391, 10.739204146386596 116.62721893491124, 13.581548707007652 117.42603550295858, 13.240445168205964 118.22485207100593, 13.722105818092961 119.02366863905324, 13.435003312408764 119.82248520710058, 12.40399445478772 120.62130177514793, 9.330057246073723 121.42011834319527, 13.931541121783322 122.2189349112426, 6.7906697194574175 123.01775147928994, 10.809885528242027 123.81656804733728, 7.8906078644360305 124.61538461538463, 8.655636703887529 125.41420118343194, 9.789752068136817 126.21301775147928, 10.30500830977124 127.01183431952663, 9.186489325028164 127.81065088757396, 8.808882421934953 128.60946745562129, 5.478313474063315 129.40828402366864, 0.7586650455791093 130.20710059171597, 2.508816882437019 131.0059171597633, 0.0 131.80473372781066, 2.9504746916972695 132.60355029585799, 1.9914218194487316 133.40236686390534, 3.1615255212516034 134.20118343195267, 2.9201225249927347" fill="none" stroke="#32ca5b" stroke-width="1.25"/>

</svg>