<?xml version="1.0" standalone="no"?>
<!DOCTYPE svg PUBLIC "-//W3C//DTD SVG 1.1//EN" "http://www.w3.org/Graphics/SVG/1.1/DTD/svg11.dtd">

<svg width="135" height="50" viewBox="0 0 135 50" preserveAspectRatio="none" 
  xmlns="http://www.w3.org/2000/svg"
  xmlns:xlink="http://www.w3.org/1999/xlink">


<polyline points="0.0, 6.28468381731973 0.7988165680473372, 11.36271282276916 1.5976331360946745, 8.812745293474304 2.396449704142012, 16.426942542302474 3.195266272189349, 11.909506093350924 3.994082840236686, 9.830939136234264 4.792899408284024, 9.612969293009439 5.591715976331361, 12.005590058674088 6.390532544378698, 16.1119612590777 7.189349112426036, 19.69262010102771 7.988165680473372, 15.289627040491213 8.78698224852071, 7.593514447489773 9.585798816568047, 14.917243634935362 10.384615384615385, 3.123146054784561 11.183431952662723, 12.705133608890188 11.982248520710058, 19.973938429394586 12.781065088757396, 26.947448804179036 13.579881656804734, 33.34178512776101 14.378698224852071, 32.207827989741894 15.177514792899409, 28.586947494768733 15.976331360946745, 27.897980781421012 16.775147928994084, 24.180520200766473 17.57396449704142, 21.501486022237255 18.37278106508876, 19.927851896693316 19.171597633136095, 22.101276597158943 19.970414201183434, 20.290771263348677 20.76923076923077, 22.3273653520219 21.56804733727811, 22.4425941784232 22.366863905325445, 25.42056828857459 23.16568047337278, 27.28178931024737 23.964497041420117, 29.776164184235537 24.763313609467456, 31.712544120980308 25.562130177514792, 31.3330182239202 26.36094674556213, 39.18945059334912 27.159763313609467, 36.04805747329777 27.958579881656807, 38.615440081231306 28.757396449704142, 35.328301735262116 29.55621301775148, 39.16975269075081 30.355029585798817, 41.95617474797337 31.153846153846157, 39.37214398893436 31.95266272189349, 36.136511014705434 32.751479289940825, 42.72468919243016 33.55029585798817, 49.295338659929364 34.349112426035504, 45.82586713931356 35.14792899408284, 46.421736728168284 35.94674556213018, 40.687340106532545 36.74556213017752, 39.61118407543849 37.54437869822485, 35.448678564879934 38.34319526627219, 38.051612955707526 39.142011834319526, 44.75553778368312 39.94082840236687, 46.046980583238614 40.7396449704142, 42.75294993724323 41.53846153846154, 43.72869583369008 42.337278106508876, 41.360983650527025 43.13609467455622, 35.29259595405526 43.93491124260355, 31.561444635831766 44.73372781065089, 27.537499588020083 45.532544378698226, 26.778423978404554 46.33136094674556, 24.03865744570234 47.1301775147929, 25.879327688158455 47.928994082840234, 27.09136736303137 48.72781065088758, 32.545142110168555 49.52662721893491, 33.267133664353 50.32544378698225, 31.911826063805727 51.124260355029584, 36.10341012814809 51.92307692307693, 32.27143787023736 52.72189349112426, 30.611384643239848 53.5207100591716, 32.55299661022361 54.319526627218934, 28.057507249856346 55.11834319526627, 32.67835687508347 55.91715976331361, 33.620376917914534 56.71597633136094, 36.85649745094272 57.514792899408285, 32.345648056551816 58.31360946745562, 35.86188117927378 59.11242603550296, 40.68561208844653 59.91124260355029, 41.86325179579477 60.710059171597635, 40.56084123043244 61.50887573964497, 40.604134632941765 62.307692307692314, 39.20924317806659 63.10650887573964, 43.50796597764037 63.90532544378698, 46.942656850735865 64.70414201183432, 44.67192863542899 65.50295857988165, 41.949580002585115 66.30177514792899, 40.727354327083525 67.10059171597634, 43.80378283302181 67.89940828402366, 40.50950068872646 68.69822485207101, 44.0380365143693 69.49704142011834, 46.22222616474598 70.29585798816568, 48.22869487525313 71.09467455621302, 41.687495684962435 71.89349112426036, 42.91804798260886 72.6923076923077, 42.13479963157083 73.49112426035504, 40.28965821239447 74.28994082840237, 41.79192791773049 75.0887573964497, 43.60169546508517 75.88757396449704, 42.64042018359391 76.68639053254438, 41.436460579098544 77.48520710059172, 50.0 78.28402366863905, 46.53425552336436 79.0828402366864, 43.65916222788974 79.88165680473374, 41.283410410385216 80.68047337278107, 40.39498298984154 81.4792899408284, 41.776592434776916 82.27810650887574, 35.50762690967041 83.07692307692308, 32.34450269082264 83.87573964497041, 29.271472364482726 84.67455621301775, 25.306547314302907 85.4733727810651, 26.943739093395784 86.27218934911244, 31.92906559397099 87.07100591715975, 32.551195372135474 87.8698224852071, 33.68665071893718 88.66863905325444, 32.842443969630104 89.46745562130178, 29.911205635065276 90.26627218934911, 26.751994835923444 91.06508875739645, 27.679667798347023 91.8639053254438, 26.206867400363688 92.66272189349112, 26.46441929896498 93.46153846153845, 26.807798946464974 94.2603550295858, 27.857293217966134 95.05917159763314, 29.00560573583157 95.85798816568047, 29.955803450122698 96.65680473372781, 28.600866803172785 97.45562130177515, 23.31702019386171 98.2544378698225, 24.833038236548642 99.05325443786982, 30.475207380737828 99.85207100591715, 28.137222461894822 100.6508875739645, 28.185243364932656 101.44970414201183, 31.276042425521723 102.24852071005917, 35.59252363977518 103.04733727810651, 35.88551653573777 103.84615384615385, 35.31276949665924 104.64497041420118, 30.848296626698158 105.44378698224853, 30.786471959951918 106.24260355029585, 30.536529850976624 107.0414201183432, 25.241531733976185 107.84023668639053, 30.695368884908042 108.63905325443787, 32.97879097561444 109.43786982248521, 30.834795244356116 110.23668639053254, 30.757180646971616 111.03550295857988, 26.03262570524395 111.83431952662723, 24.788269530947304 112.63313609467457, 25.462040692912407 113.43195266272188, 25.093999772532538 114.23076923076923, 22.7224954677608 115.02958579881657, 17.628740320282017 115.82840236686391, 14.742803055219497 116.62721893491124, 5.827337950918932 117.42603550295858, 0.0 118.22485207100593, 7.016554235645602 119.02366863905324, 8.093645149947916 119.82248520710058, 9.525740606624575 120.62130177514793, 11.404035488356671 121.42011834319527, 11.158851113677448 122.2189349112426, 18.2459467288864 123.01775147928994, 13.920393207086423 123.81656804733728, 13.668603149178942 124.61538461538463, 15.638822089028956 125.41420118343194, 13.743100659613447 126.21301775147928, 4.842391534353698 127.01183431952663, 8.790446744600153 127.81065088757396, 6.926136408405688 128.60946745562129, 4.826368432640246 129.40828402366864, 12.543809122435338 130.20710059171597, 9.410347579741678 131.0059171597633, 10.833129953967113 131.80473372781066, 7.858766213068071 132.60355029585799, 9.553972646509836 133.40236686390534, 6.6219413210645675 134.20118343195267, 5.9729986627779414" fill="none" stroke="#32ca5b" stroke-width="1.25"/>

</svg>