<?xml version="1.0" standalone="no"?>
<!DOCTYPE svg PUBLIC "-//W3C//DTD SVG 1.1//EN" "http://www.w3.org/Graphics/SVG/1.1/DTD/svg11.dtd">

<svg width="135" height="50" viewBox="0 0 135 50" preserveAspectRatio="none" 
  xmlns="http://www.w3.org/2000/svg"
  xmlns:xlink="http://www.w3.org/1999/xlink">


<polyline points="0.0, 38.382132239780574 0.7988165680473372, 39.22029873580836 1.5976331360946745, 42.84881421865717 2.396449704142012, 41.875460571512605 3.195266272189349, 45.07409274957651 3.994082840236686, 43.155683732441396 4.792899408284024, 42.61315724358414 5.591715976331361, 42.93680208586694 6.390532544378698, 43.82894950245496 7.189349112426036, 44.66964324824488 7.988165680473372, 45.37489192494259 8.78698224852071, 44.071031681454606 9.585798816568047, 42.07289123281517 10.384615384615385, 43.967556758202875 11.183431952662723, 40.48333186455223 11.982248520710058, 44.37618269410014 12.781065088757396, 47.63184634585454 13.579881656804734, 47.985875362409196 14.378698224852071, 49.41123739286364 15.177514792899409, 47.453344296479045 15.976331360946745, 43.42630830581241 16.775147928994084, 40.86422605249094 17.57396449704142, 39.238158550294905 18.37278106508876, 39.08973794981552 19.171597633136095, 39.42839602543836 19.970414201183434, 41.58958581014558 20.76923076923077, 43.3682104892301 21.56804733727811, 43.9963327660631 22.366863905325445, 42.807548406659976 23.16568047337278, 43.93577490971417 23.964497041420117, 45.10147982718501 24.763313609467456, 45.31835889270704 25.562130177514792, 44.880184971767456 26.36094674556213, 41.38700668191865 27.159763313609467, 42.85907919057508 27.958579881656807, 45.371747117408574 28.757396449704142, 47.63147418703477 29.55621301775148, 44.75293312381497 30.355029585798817, 46.57136176545858 31.153846153846157, 49.21669490784167 31.95266272189349, 45.88099780512131 32.751479289940825, 46.86367415195876 33.55029585798817, 49.167326841339865 34.349112426035504, 49.59952680420015 35.14792899408284, 47.44505979742682 35.94674556213018, 50.0 36.74556213017752, 47.99080098854999 37.54437869822485, 48.064144869273285 38.34319526627219, 46.09718485747818 39.142011834319526, 48.53675654751565 39.94082840236687, 49.476740578663374 40.7396449704142, 49.016294389160954 41.53846153846154, 47.75967722998624 42.337278106508876, 47.73832202078737 43.13609467455622, 47.37647109446974 43.93491124260355, 44.97426508455665 44.73372781065089, 43.43312892964008 45.532544378698226, 40.289632452292196 46.33136094674556, 40.46696101011022 47.1301775147929, 41.90470619123731 47.928994082840234, 42.70896628779279 48.72781065088758, 43.44091095669025 49.52662721893491, 45.551178504669984 50.32544378698225, 44.55602268728981 51.124260355029584, 43.105264476797586 51.92307692307693, 44.85771955851069 52.72189349112426, 42.74533205519347 53.5207100591716, 41.18504608599265 54.319526627218934, 42.039597469915094 55.11834319526627, 41.4172517412246 55.91715976331361, 42.50115359065937 56.71597633136094, 40.92309669793111 57.514792899408285, 41.339743112360075 58.31360946745562, 38.52416012056214 59.11242603550296, 36.05977297533377 59.91124260355029, 34.16968155967293 60.710059171597635, 36.012482936329164 61.50887573964497, 33.64682441319037 62.307692307692314, 34.487411151898826 63.10650887573964, 32.59120683228998 63.90532544378698, 35.31045804992833 64.70414201183432, 35.9032458251326 65.50295857988165, 35.16618677938412 66.30177514792899, 32.14608780487467 67.10059171597634, 30.6812748545732 67.89940828402366, 34.39038589176666 68.69822485207101, 35.115037942893295 69.49704142011834, 34.81267934855566 70.29585798816568, 38.78439870180731 71.09467455621302, 41.373630531617714 71.89349112426036, 40.85159150651305 72.6923076923077, 38.97711654626067 73.49112426035504, 38.524472802565874 74.28994082840237, 39.00664627313347 75.0887573964497, 38.80941253189067 75.88757396449704, 40.47911075070505 76.68639053254438, 40.31672859360824 77.48520710059172, 38.98069722288711 78.28402366863905, 42.55027284978846 79.0828402366864, 36.61483577619515 79.88165680473374, 36.14101738122475 80.68047337278107, 35.52359620629454 81.4792899408284, 34.96457163275565 82.27810650887574, 34.18730390489317 83.07692307692308, 31.487543446588834 83.87573964497041, 32.478145223739105 84.67455621301775, 31.592991163584795 85.4733727810651, 34.275949413183575 86.27218934911244, 33.66408837140447 87.07100591715975, 34.49262499909459 87.8698224852071, 32.71314756050207 88.66863905325444, 32.720349013007365 89.46745562130178, 30.9017028167869 90.26627218934911, 29.314398132725618 91.06508875739645, 29.075012493311124 91.8639053254438, 27.062857758657994 92.66272189349112, 26.58252757961761 93.46153846153845, 26.594386125358355 94.2603550295858, 26.25017250917317 95.05917159763314, 25.219436079657225 95.85798816568047, 23.96203441025932 96.65680473372781, 22.37052005333373 97.45562130177515, 21.23961574657157 98.2544378698225, 16.923389929072314 99.05325443786982, 15.212632669101826 99.85207100591715, 13.519989306878728 100.6508875739645, 8.064087526477016 101.44970414201183, 7.309894594493393 102.24852071005917, 6.75629263136537 103.04733727810651, 10.04049019842303 103.84615384615385, 7.557939048340624 104.64497041420118, 5.8746087240745775 105.44378698224853, 4.893731363346822 106.24260355029585, 7.611245172976579 107.0414201183432, 6.665767808238721 107.84023668639053, 6.897509989783717 108.63905325443787, 5.57741752986221 109.43786982248521, 6.299516015419443 110.23668639053254, 2.1890521151506004 111.03550295857988, 1.4931159986903408 111.83431952662723, 1.3801499171129792 112.63313609467457, 0.0 113.43195266272188, 1.2530119109407063 114.23076923076923, 2.2643708217106275 115.02958579881657, 4.379642335015638 115.82840236686391, 8.48333478371557 116.62721893491124, 9.90095395512172 117.42603550295858, 10.82736607834684 118.22485207100593, 8.545906062396563 119.02366863905324, 8.685599340919705 119.82248520710058, 10.015474678020423 120.62130177514793, 10.407636290647897 121.42011834319527, 12.772098483335254 122.2189349112426, 12.484858119142274 123.01775147928994, 18.672273008592704 123.81656804733728, 14.987426501338167 124.61538461538463, 15.46990070183142 125.41420118343194, 14.910038301654804 126.21301775147928, 14.573535290136594 127.01183431952663, 12.358154821282515 127.81065088757396, 9.43160815716569 128.60946745562129, 14.437815448923978 129.40828402366864, 13.472333171744433 130.20710059171597, 13.70905781526357 131.0059171597633, 11.999646479513812 131.80473372781066, 11.42013028589138 132.60355029585799, 10.779007975077096 133.40236686390534, 10.404164877656406 134.20118343195267, 9.913229421126662" fill="none" stroke="#32ca5b" stroke-width="1.25"/>

</svg>