<?xml version="1.0" standalone="no"?>
<!DOCTYPE svg PUBLIC "-//W3C//DTD SVG 1.1//EN" "http://www.w3.org/Graphics/SVG/1.1/DTD/svg11.dtd">

<svg width="135" height="50" viewBox="0 0 135 50" preserveAspectRatio="none" 
  xmlns="http://www.w3.org/2000/svg"
  xmlns:xlink="http://www.w3.org/1999/xlink">


<polyline points="0.0, 36.122178352875274 0.7988165680473372, 37.34627930549318 1.5976331360946745, 35.52014555907863 2.396449704142012, 37.96683227409279 3.195266272189349, 35.16544052414562 3.994082840236686, 33.89079432051116 4.792899408284024, 34.044322783132166 5.591715976331361, 34.543593428735576 6.390532544378698, 35.42569453988121 7.189349112426036, 35.094865285855896 7.988165680473372, 31.092612693013997 8.78698224852071, 27.94943416408723 9.585798816568047, 31.367128747967087 10.384615384615385, 22.893115501259082 11.183431952662723, 32.510977111135155 11.982248520710058, 37.25240040232691 12.781065088757396, 40.80648224739653 13.579881656804734, 42.385591482449854 14.378698224852071, 39.34345884010977 15.177514792899409, 31.453224377436023 15.976331360946745, 32.30864710971413 16.775147928994084, 30.945246640925024 17.57396449704142, 28.73817064764917 18.37278106508876, 28.856844089561722 19.171597633136095, 30.84117778594307 19.970414201183434, 30.397659959367356 20.76923076923077, 31.192625490181907 21.56804733727811, 32.263163619104354 22.366863905325445, 34.57227957263096 23.16568047337278, 34.89452303183336 23.964497041420117, 36.429415575617966 24.763313609467456, 36.584274134011416 25.562130177514792, 37.58779399952215 26.36094674556213, 43.01777584806683 27.159763313609467, 40.92374421342099 27.958579881656807, 47.64782141183698 28.757396449704142, 42.55726025969086 29.55621301775148, 43.266852466010214 30.355029585798817, 45.15027409761885 31.153846153846157, 44.226407935911496 31.95266272189349, 40.939714330138486 32.751479289940825, 46.01329173530016 33.55029585798817, 46.22310757813855 34.349112426035504, 45.92540555764285 35.14792899408284, 46.491677935200315 35.94674556213018, 41.4707316845036 36.74556213017752, 38.1779864997825 37.54437869822485, 34.9887969906795 38.34319526627219, 38.93394697846902 39.142011834319526, 42.5715141889046 39.94082840236687, 40.84638462328057 40.7396449704142, 38.1605308112173 41.53846153846154, 41.0565031881418 42.337278106508876, 40.1811061040471 43.13609467455622, 35.901503298274896 43.93491124260355, 35.18741414059448 44.73372781065089, 33.822363255925545 45.532544378698226, 33.73204551254335 46.33136094674556, 36.442469278574244 47.1301775147929, 36.313067833324894 47.928994082840234, 39.709325369345635 48.72781065088758, 43.31673092677741 49.52662721893491, 40.079342798013776 50.32544378698225, 38.954999649983726 51.124260355029584, 39.72368227858256 51.92307692307693, 36.572461901719265 52.72189349112426, 37.35256749466945 53.5207100591716, 39.29216370009739 54.319526627218934, 33.364253863808656 55.11834319526627, 37.79917538028626 55.91715976331361, 39.359985031978056 56.71597633136094, 42.219620837080264 57.514792899408285, 39.81978103750907 58.31360946745562, 41.67768675736311 59.11242603550296, 44.97320881400146 59.91124260355029, 43.52750592399383 60.710059171597635, 43.048394059751125 61.50887573964497, 43.18751888128227 62.307692307692314, 41.02360036549316 63.10650887573964, 46.311858861807586 63.90532544378698, 46.80416014403339 64.70414201183432, 44.55068745068075 65.50295857988165, 43.004408210915564 66.30177514792899, 42.09096577262108 67.10059171597634, 44.48409173418344 67.89940828402366, 43.22001952356428 68.69822485207101, 43.1350271221671 69.49704142011834, 47.35425324045602 70.29585798816568, 44.45877320491523 71.09467455621302, 42.67107514903157 71.89349112426036, 44.648035536052646 72.6923076923077, 44.01850112102477 73.49112426035504, 43.77993556160135 74.28994082840237, 46.040262078408176 75.0887573964497, 47.68229137074584 75.88757396449704, 47.90972749090136 76.68639053254438, 46.06494633341172 77.48520710059172, 50.0 78.28402366863905, 47.58975964840314 79.0828402366864, 46.31567265496957 79.88165680473374, 45.729004983562845 80.68047337278107, 44.749025686596795 81.4792899408284, 45.587616681232895 82.27810650887574, 44.10817726947807 83.07692307692308, 46.11314880151336 83.87573964497041, 44.32361091192128 84.67455621301775, 44.352620677619996 85.4733727810651, 43.707240475938 86.27218934911244, 44.35261182506605 87.07100591715975, 43.37180681205154 87.8698224852071, 44.386515803006326 88.66863905325444, 44.01596249816472 89.46745562130178, 42.830406686094626 90.26627218934911, 38.473770590146486 91.06508875739645, 39.43902432441425 91.8639053254438, 38.608339249249696 92.66272189349112, 38.910538000660246 93.46153846153845, 38.758483925740485 94.2603550295858, 38.25803013316812 95.05917159763314, 37.43664079583687 95.85798816568047, 37.944810652996175 96.65680473372781, 35.828969932382186 97.45562130177515, 37.54242216289148 98.2544378698225, 37.163078210409815 99.05325443786982, 37.74753046052473 99.85207100591715, 36.39354048696067 100.6508875739645, 34.542102912716 101.44970414201183, 36.27055278202174 102.24852071005917, 38.21735104531193 103.04733727810651, 38.05346218931545 103.84615384615385, 37.91445569320979 104.64497041420118, 36.618378907481414 105.44378698224853, 35.84866598211372 106.24260355029585, 36.64675717869352 107.0414201183432, 35.08839264574745 107.84023668639053, 37.91350229065714 108.63905325443787, 39.83986293085312 109.43786982248521, 37.10540702858011 110.23668639053254, 37.01683156183951 111.03550295857988, 35.51339190751088 111.83431952662723, 34.68976496801473 112.63313609467457, 33.233109918505804 113.43195266272188, 36.366795170348155 114.23076923076923, 35.10723522868029 115.02958579881657, 34.67753783255891 115.82840236686391, 38.49973713817955 116.62721893491124, 39.55816900424068 117.42603550295858, 38.47846808145671 118.22485207100593, 38.29256307676509 119.02366863905324, 37.86631070707481 119.82248520710058, 38.294448974404524 120.62130177514793, 41.64288468709583 121.42011834319527, 40.96014038558738 122.2189349112426, 45.50842883422785 123.01775147928994, 42.46094119133359 123.81656804733728, 42.865479878566845 124.61538461538463, 41.23077762100073 125.41420118343194, 43.535136366775625 126.21301775147928, 36.445857165899056 127.01183431952663, 23.245460160372815 127.81065088757396, 16.258473273969464 128.60946745562129, 15.418546119731024 129.40828402366864, 14.0156697991438 130.20710059171597, 2.8309436341161174 131.0059171597633, 1.8434904891398194 131.80473372781066, 0.6313767761509106 132.60355029585799, 0.0 133.40236686390534, 2.3879770249919505 134.20118343195267, 0.8631503680139063" fill="none" stroke="#32ca5b" stroke-width="1.25"/>

</svg>