<?xml version="1.0" standalone="no"?>
<!DOCTYPE svg PUBLIC "-//W3C//DTD SVG 1.1//EN" "http://www.w3.org/Graphics/SVG/1.1/DTD/svg11.dtd">

<svg width="135" height="50" viewBox="0 0 135 50" preserveAspectRatio="none" 
  xmlns="http://www.w3.org/2000/svg"
  xmlns:xlink="http://www.w3.org/1999/xlink">


<polyline points="0.0, 14.35561697165883 0.7988165680473372, 17.63775950283829 1.5976331360946745, 18.952967943109957 2.396449704142012, 19.037267944504467 3.195266272189349, 21.426116738599788 3.994082840236686, 18.97866624688612 4.792899408284024, 18.55544036026837 5.591715976331361, 17.042217462129354 6.390532544378698, 17.989222248944383 7.189349112426036, 22.272273651625785 7.988165680473372, 26.123176771743566 8.78698224852071, 21.54206285619129 9.585798816568047, 21.320918201664455 10.384615384615385, 24.524643541272432 11.183431952662723, 18.512913471499314 11.982248520710058, 27.95890828330963 12.781065088757396, 38.628455870046515 13.579881656804734, 42.61136089512689 14.378698224852071, 41.012872004037945 15.177514792899409, 38.279229066758454 15.976331360946745, 31.73608864549412 16.775147928994084, 32.11043351838017 17.57396449704142, 33.05674693994013 18.37278106508876, 30.92901893439204 19.171597633136095, 31.224391032513886 19.970414201183434, 34.889300054215724 20.76923076923077, 36.16069912713597 21.56804733727811, 37.85741741323934 22.366863905325445, 37.321796648610324 23.16568047337278, 38.97993433231485 23.964497041420117, 39.44359664191286 24.763313609467456, 39.28196998761464 25.562130177514792, 38.726674628256255 26.36094674556213, 37.36799668032994 27.159763313609467, 48.33538797537755 27.958579881656807, 45.46324172887058 28.757396449704142, 48.72072055380453 29.55621301775148, 44.08922699840199 30.355029585798817, 43.34505333560188 31.153846153846157, 49.713882544930314 31.95266272189349, 45.28624884692336 32.751479289940825, 43.11576588718813 33.55029585798817, 46.028767285903584 34.349112426035504, 50.0 35.14792899408284, 48.05186331233559 35.94674556213018, 48.011761500765 36.74556213017752, 41.19654050506515 37.54437869822485, 38.754839287478575 38.34319526627219, 37.7535263752059 39.142011834319526, 41.68758305837852 39.94082840236687, 47.36371644142627 40.7396449704142, 45.090782499343184 41.53846153846154, 44.03031438779435 42.337278106508876, 45.07743085851732 43.13609467455622, 43.69760167286873 43.93491124260355, 40.93616866505636 44.73372781065089, 38.9861112522482 45.532544378698226, 36.46570139809703 46.33136094674556, 35.910531814974505 47.1301775147929, 34.940176679404885 47.928994082840234, 35.929083387493534 48.72781065088758, 36.42664254629569 49.52662721893491, 38.78883938250085 50.32544378698225, 30.97592157246752 51.124260355029584, 32.27811954195492 51.92307692307693, 35.364231349045156 52.72189349112426, 34.00592540246321 53.5207100591716, 33.04031824954107 54.319526627218934, 36.47650504895745 55.11834319526627, 34.54567190489157 55.91715976331361, 36.719713085765186 56.71597633136094, 36.28467450880852 57.514792899408285, 39.484854640797565 58.31360946745562, 37.968978111505315 59.11242603550296, 40.87050821417606 59.91124260355029, 43.773571864596086 60.710059171597635, 43.460000823809224 61.50887573964497, 43.79311507050434 62.307692307692314, 43.47680720439402 63.10650887573964, 41.82603062434595 63.90532544378698, 45.03816731447974 64.70414201183432, 48.401045294351704 65.50295857988165, 47.333213399841576 66.30177514792899, 45.175289948899064 67.10059171597634, 44.92131609050567 67.89940828402366, 45.82363365025135 68.69822485207101, 44.199185435755425 69.49704142011834, 41.299316707136285 70.29585798816568, 45.20233057359851 71.09467455621302, 42.57986911750777 71.89349112426036, 40.376091067690126 72.6923076923077, 41.34850413177974 73.49112426035504, 40.24598846772422 74.28994082840237, 38.97411573690411 75.0887573964497, 39.20576608544605 75.88757396449704, 40.28990898721115 76.68639053254438, 39.02230213654136 77.48520710059172, 34.85398018814145 78.28402366863905, 40.170063377858725 79.0828402366864, 35.121628670122384 79.88165680473374, 33.96115782489444 80.68047337278107, 32.876119143404324 81.4792899408284, 32.789587033409376 82.27810650887574, 34.11199760853737 83.07692307692308, 31.047569254739987 83.87573964497041, 31.32997796788911 84.67455621301775, 31.528229905757847 85.4733727810651, 30.58483305847272 86.27218934911244, 29.405408599098642 87.07100591715975, 28.622202495785526 87.8698224852071, 26.10135872442974 88.66863905325444, 23.671295259249046 89.46745562130178, 26.57410043076032 90.26627218934911, 26.467044394982654 91.06508875739645, 23.64341481658367 91.8639053254438, 22.383585049517922 92.66272189349112, 23.151587761755085 93.46153846153845, 25.135875351608412 94.2603550295858, 23.734324629290526 95.05917159763314, 23.22182248803827 95.85798816568047, 23.935921777322896 96.65680473372781, 23.174683362452363 97.45562130177515, 24.687318284905366 98.2544378698225, 25.957827408332196 99.05325443786982, 26.43607999904254 99.85207100591715, 28.68532271483531 100.6508875739645, 27.921540839241754 101.44970414201183, 26.808753467084845 102.24852071005917, 25.772845252625693 103.04733727810651, 28.19047822314962 103.84615384615385, 27.89856831406713 104.64497041420118, 28.904018422671456 105.44378698224853, 27.871921811729084 106.24260355029585, 27.21102097901225 107.0414201183432, 28.198944159070273 107.84023668639053, 25.879256294934784 108.63905325443787, 26.5587610427001 109.43786982248521, 27.028681356494356 110.23668639053254, 24.899548389627242 111.03550295857988, 26.035010517479364 111.83431952662723, 24.58657211217307 112.63313609467457, 26.673267611306844 113.43195266272188, 26.41912657724911 114.23076923076923, 27.784285428744703 115.02958579881657, 26.926818002720214 115.82840236686391, 25.08768850884665 116.62721893491124, 27.62291855706148 117.42603550295858, 28.854131175801363 118.22485207100593, 27.166564243153786 119.02366863905324, 28.64678854640111 119.82248520710058, 27.21600853045998 120.62130177514793, 24.973114149325255 121.42011834319527, 28.554464524514284 122.2189349112426, 27.61507879016394 123.01775147928994, 35.273039592915005 123.81656804733728, 31.622622339283467 124.61538461538463, 32.80588665000026 125.41420118343194, 30.75244664289935 126.21301775147928, 29.337150316507703 127.01183431952663, 22.33890553652171 127.81065088757396, 14.831707994779295 128.60946745562129, 15.187067121764194 129.40828402366864, 20.488236224845906 130.20710059171597, 18.762985716287215 131.0059171597633, 13.058361853542449 131.80473372781066, 9.768048980405515 132.60355029585799, 0.0 133.40236686390534, 3.59027166637096 134.20118343195267, 5.426866154398832" fill="none" stroke="#32ca5b" stroke-width="1.25"/>

</svg>