<?xml version="1.0" standalone="no"?>
<!DOCTYPE svg PUBLIC "-//W3C//DTD SVG 1.1//EN" "http://www.w3.org/Graphics/SVG/1.1/DTD/svg11.dtd">

<svg width="135" height="50" viewBox="0 0 135 50" preserveAspectRatio="none" 
  xmlns="http://www.w3.org/2000/svg"
  xmlns:xlink="http://www.w3.org/1999/xlink">


<polyline points="0.0, 40.99938094223129 0.7988165680473372, 39.8867390640465 1.5976331360946745, 40.666966037774536 2.396449704142012, 50.0 3.195266272189349, 43.65083344964848 3.994082840236686, 39.053951594273805 4.792899408284024, 43.764215834041494 5.591715976331361, 43.80019844864283 6.390532544378698, 48.39166363585829 7.189349112426036, 48.31548427899288 7.988165680473372, 44.85642211900745 8.78698224852071, 41.36125576394279 9.585798816568047, 23.57268822409494 10.384615384615385, 3.5460263460875656 11.183431952662723, 39.58035501561912 11.982248520710058, 43.85945376826573 12.781065088757396, 45.26723313978446 13.579881656804734, 45.237772461017066 14.378698224852071, 43.78820422712788 15.177514792899409, 30.842503836335467 15.976331360946745, 30.83601024244454 16.775147928994084, 43.58171624926676 17.57396449704142, 45.1809937540634 18.37278106508876, 26.983209773323225 19.171597633136095, 21.312158215316114 19.970414201183434, 0.0 20.76923076923077, 5.422894681840036 21.56804733727811, 38.86514689022993 22.366863905325445, 32.079891760288945 23.16568047337278, 25.266838604452534 23.964497041420117, 34.47146924397389 24.763313609467456, 35.90369816658704 25.562130177514792, 39.45340364657019 26.36094674556213, 43.61187407859894 27.159763313609467, 38.033435747152176 27.958579881656807, 38.27635109702894 28.757396449704142, 36.749615757863765 29.55621301775148, 44.66909181287214 30.355029585798817, 43.33356687103708 31.153846153846157, 12.569169989832274 31.95266272189349, 36.211878121550185 32.751479289940825, 13.055792889497495 33.55029585798817, 35.71566890141922 34.349112426035504, 35.85180047696122 35.14792899408284, 33.49254675523933 35.94674556213018, 17.75656630917702 36.74556213017752, 37.59145317739712 37.54437869822485, 35.5617179968893 38.34319526627219, 13.869213770482899 39.142011834319526, 13.226077764543295 39.94082840236687, 23.73705043073585 40.7396449704142, 20.82994458410581 41.53846153846154, 32.42276101058366 42.337278106508876, 29.275517344312558 43.13609467455622, 23.75436485806959 43.93491124260355, 31.90180391368868 44.73372781065089, 23.820018574583866 45.532544378698226, 25.014442012455067 46.33136094674556, 28.705308667900457 47.1301775147929, 36.91169586207631 47.928994082840234, 32.71581510254707 48.72781065088758, 35.787331165656894 49.52662721893491, 38.935380409756746 50.32544378698225, 34.85536900432529 51.124260355029584, 38.71641520848594 51.92307692307693, 35.44077579131888 52.72189349112426, 35.308675729523856 53.5207100591716, 38.70033528511926 54.319526627218934, 35.69669175095905 55.11834319526627, 38.84707168580025 55.91715976331361, 35.61812076508474 56.71597633136094, 35.22675714715235 57.514792899408285, 33.38218458368403 58.31360946745562, 29.673773640800118 59.11242603550296, 35.16520544909325 59.91124260355029, 35.36656099551663 60.710059171597635, 35.20318247610238 61.50887573964497, 42.33676773277432 62.307692307692314, 39.86415195717096 63.10650887573964, 35.25065252088135 63.90532544378698, 42.72801568848404 64.70414201183432, 36.511323347474 65.50295857988165, 36.77503967833127 66.30177514792899, 36.701163867820426 67.10059171597634, 37.169269222484694 67.89940828402366, 42.035037150089764 68.69822485207101, 36.97927348510263 69.49704142011834, 37.26461859530537 70.29585798816568, 41.3515650183076 71.09467455621302, 36.788622490076406 71.89349112426036, 36.89655268681153 72.6923076923077, 36.734447762144114 73.49112426035504, 41.86014321026942 74.28994082840237, 37.33880091057535 75.0887573964497, 37.34898866447327 75.88757396449704, 41.81658052917328 76.68639053254438, 41.102761213030675 77.48520710059172, 42.18979042331034 78.28402366863905, 36.75834435469745 79.0828402366864, 40.942822591409275 79.88165680473374, 41.205563781758464 80.68047337278107, 41.08615936601296 81.4792899408284, 41.14423318151375 82.27810650887574, 41.23390965991041 83.07692307692308, 42.32772639989362 83.87573964497041, 36.80282030671125 84.67455621301775, 41.177654029617926 85.4733727810651, 37.04140736695901 86.27218934911244, 41.2169276360257 87.07100591715975, 42.05875575541607 87.8698224852071, 41.26759594505294 88.66863905325444, 41.294297607257164 89.46745562130178, 42.182660300124866 90.26627218934911, 18.950228930480325 91.06508875739645, 28.081891651407652 91.8639053254438, 8.780833695969308 92.66272189349112, 27.858522783366276 93.46153846153845, 29.28217479593292 94.2603550295858, 28.887908131255152 95.05917159763314, 2.859933156834835 95.85798816568047, 12.276148057793012 96.65680473372781, 13.33783843277924 97.45562130177515, 28.572065883204402 98.2544378698225, 17.1179234145209 99.05325443786982, 29.49951716476873 99.85207100591715, 18.473681693749437 100.6508875739645, 21.249966931496413 101.44970414201183, 20.422556272466643 102.24852071005917, 21.754888203188784 103.04733727810651, 37.27509829593261 103.84615384615385, 24.659055854747116 104.64497041420118, 36.28138031277456 105.44378698224853, 25.124084631867955 106.24260355029585, 25.115394590223545 107.0414201183432, 25.42168485567516 107.84023668639053, 24.715849966789555 108.63905325443787, 35.82681125203544 109.43786982248521, 25.68882873583712 110.23668639053254, 25.868459126996573 111.03550295857988, 28.28124717752586 111.83431952662723, 31.746247208248356 112.63313609467457, 31.3997897994848 113.43195266272188, 31.274482107683845 114.23076923076923, 34.059309659779636 115.02958579881657, 31.242815611072 115.82840236686391, 34.01940464466182 116.62721893491124, 34.368888155778244 117.42603550295858, 34.32521315514682 118.22485207100593, 30.60503623193036 119.02366863905324, 23.95173738268975 119.82248520710058, 33.71219663505003 120.62130177514793, 30.340723107479413 121.42011834319527, 32.96867524639838 122.2189349112426, 27.94203289039725 123.01775147928994, 27.7791755220342 123.81656804733728, 28.056007925488874 124.61538461538463, 28.873205011621472 125.41420118343194, 32.616696855539324 126.21301775147928, 29.03510570233668 127.01183431952663, 31.918595976809282 127.81065088757396, 27.57456355750472 128.60946745562129, 29.22826901967418 129.40828402366864, 28.590375762468508 130.20710059171597, 32.6549466234724 131.0059171597633, 29.679938461835132 131.80473372781066, 32.39160314517992 132.60355029585799, 29.046974106071673 133.40236686390534, 29.33272262872615 134.20118343195267, 32.84983700743229" fill="none" stroke="#32ca5b" stroke-width="1.25"/>

</svg>