<?xml version="1.0" standalone="no"?>
<!DOCTYPE svg PUBLIC "-//W3C//DTD SVG 1.1//EN" "http://www.w3.org/Graphics/SVG/1.1/DTD/svg11.dtd">

<svg width="135" height="50" viewBox="0 0 135 50" preserveAspectRatio="none" 
  xmlns="http://www.w3.org/2000/svg"
  xmlns:xlink="http://www.w3.org/1999/xlink">


<polyline points="0.0, 3.5064541712951813 0.7988165680473372, 7.137755806309552 1.5976331360946745, 11.093765583885217 2.396449704142012, 5.519089646866343 3.195266272189349, 14.16067766907991 3.994082840236686, 7.278204397666185 4.792899408284024, 4.169217943102232 5.591715976331361, 2.3958742838470584 6.390532544378698, 2.656573517985044 7.189349112426036, 3.1881538712092725 7.988165680473372, 8.167527735241649 8.78698224852071, 0.0 9.585798816568047, 0.6155461106933142 10.384615384615385, 4.807510183799337 11.183431952662723, 2.711979957412085 11.982248520710058, 19.320146667227416 12.781065088757396, 34.52669116594137 13.579881656804734, 39.416510895479405 14.378698224852071, 37.111471587260304 15.177514792899409, 35.90875041854664 15.976331360946745, 31.57706560841058 16.775147928994084, 27.32631578396686 17.57396449704142, 23.8144920820567 18.37278106508876, 20.038566601600795 19.171597633136095, 20.769977051612027 19.970414201183434, 20.898786943883472 20.76923076923077, 21.642249075210717 21.56804733727811, 24.479676405541866 22.366863905325445, 24.821358627785905 23.16568047337278, 26.381871615401614 23.964497041420117, 30.167174604295205 24.763313609467456, 35.203050568346775 25.562130177514792, 34.22533624016022 26.36094674556213, 32.37303374283851 27.159763313609467, 42.304426977789674 27.958579881656807, 37.57508222975077 28.757396449704142, 40.60741910724526 29.55621301775148, 36.91352570076941 30.355029585798817, 43.22639770081862 31.153846153846157, 50.0 31.95266272189349, 46.83734166070701 32.751479289940825, 42.69824703724143 33.55029585798817, 47.104121638963036 34.349112426035504, 49.463350235813365 35.14792899408284, 46.587652869481424 35.94674556213018, 47.75230352261607 36.74556213017752, 42.279999630994105 37.54437869822485, 40.30428913971188 38.34319526627219, 35.53136543780724 39.142011834319526, 39.14343726925974 39.94082840236687, 45.33640652443998 40.7396449704142, 45.85549046861656 41.53846153846154, 43.05505684717155 42.337278106508876, 43.49625060463904 43.13609467455622, 41.50069288695163 43.93491124260355, 35.242480893024414 44.73372781065089, 35.37688446222227 45.532544378698226, 34.1303476449798 46.33136094674556, 31.868572124615437 47.1301775147929, 35.38937118096412 47.928994082840234, 35.777848626028245 48.72781065088758, 37.24973051834911 49.52662721893491, 40.05693874860724 50.32544378698225, 36.870212765234776 51.124260355029584, 34.63056976064146 51.92307692307693, 35.60826838004777 52.72189349112426, 33.358104859857576 53.5207100591716, 28.377999731383486 54.319526627218934, 29.91164977359973 55.11834319526627, 27.84692581076963 55.91715976331361, 33.103237898863966 56.71597633136094, 32.44785143728948 57.514792899408285, 36.172697974878346 58.31360946745562, 33.11085620765867 59.11242603550296, 34.632365389762036 59.91124260355029, 38.910792605385474 60.710059171597635, 40.18061769509331 61.50887573964497, 39.717703878445676 62.307692307692314, 40.00260544880689 63.10650887573964, 36.45555946548451 63.90532544378698, 40.342107633378724 64.70414201183432, 42.94019799357813 65.50295857988165, 41.489830594625026 66.30177514792899, 39.02291063704969 67.10059171597634, 38.78033793558354 67.89940828402366, 40.50266671736703 68.69822485207101, 34.00926212268647 69.49704142011834, 31.115189733833336 70.29585798816568, 33.208864470633785 71.09467455621302, 35.9472844861867 71.89349112426036, 35.83519362065199 72.6923076923077, 36.684817803347556 73.49112426035504, 36.33596144787089 74.28994082840237, 35.290487502481334 75.0887573964497, 38.19003747318534 75.88757396449704, 42.19172611184623 76.68639053254438, 40.18411405295164 77.48520710059172, 37.5421048683693 78.28402366863905, 46.53900060276583 79.0828402366864, 41.27248533128818 79.88165680473374, 38.1889630406699 80.68047337278107, 34.519387307043154 81.4792899408284, 32.70272692619745 82.27810650887574, 35.414956896055706 83.07692307692308, 30.853145071426336 83.87573964497041, 31.789406467076013 84.67455621301775, 30.10497283893909 85.4733727810651, 28.13491709776762 86.27218934911244, 27.970196525861247 87.07100591715975, 31.429193903506647 87.8698224852071, 31.440794699941492 88.66863905325444, 34.79123304976273 89.46745562130178, 33.36428811639229 90.26627218934911, 30.816052884893907 91.06508875739645, 31.868963472063257 91.8639053254438, 32.091991782724676 92.66272189349112, 28.686313452419405 93.46153846153845, 29.796679626462307 94.2603550295858, 28.611281303412145 95.05917159763314, 28.588032643751077 95.85798816568047, 27.038456243971293 96.65680473372781, 30.23350763565642 97.45562130177515, 28.189781845162575 98.2544378698225, 27.42927039329379 99.05325443786982, 27.483491434578944 99.85207100591715, 29.01053853934482 100.6508875739645, 29.554123892663707 101.44970414201183, 31.50474194718219 102.24852071005917, 32.75736669231615 103.04733727810651, 35.105453116849176 103.84615384615385, 33.9265048445734 104.64497041420118, 36.07682377756912 105.44378698224853, 32.99739494574679 106.24260355029585, 33.32625942349825 107.0414201183432, 37.581813755899994 107.84023668639053, 35.34349164590325 108.63905325443787, 37.656080746130115 109.43786982248521, 36.637015655331986 110.23668639053254, 33.96709834175734 111.03550295857988, 27.905494856865705 111.83431952662723, 27.382393839491204 112.63313609467457, 26.42356638962216 113.43195266272188, 27.13037207099005 114.23076923076923, 28.529267244378463 115.02958579881657, 27.216690602589637 115.82840236686391, 27.314890834026645 116.62721893491124, 28.991777539088286 117.42603550295858, 30.21674745854056 118.22485207100593, 28.906712914083503 119.02366863905324, 26.996695166779773 119.82248520710058, 24.6416449056793 120.62130177514793, 20.780939224174023 121.42011834319527, 26.293142892745617 122.2189349112426, 27.26192116243521 123.01775147928994, 31.086487599679728 123.81656804733728, 30.99924696581121 124.61538461538463, 31.467277714804865 125.41420118343194, 29.075676654723893 126.21301775147928, 30.577051961761025 127.01183431952663, 25.190381882889824 127.81065088757396, 22.02500389570518 128.60946745562129, 21.877220869900306 129.40828402366864, 19.340337554863737 130.20710059171597, 23.54283205318424 131.0059171597633, 20.314471377223512 131.80473372781066, 22.736220322931523 132.60355029585799, 19.38881412275085 133.40236686390534, 18.77784642566094 134.20118343195267, 17.6726259228967" fill="none" stroke="#ff3a33" stroke-width="1.25"/>

</svg>