<?xml version="1.0" standalone="no"?>
<!DOCTYPE svg PUBLIC "-//W3C//DTD SVG 1.1//EN" "http://www.w3.org/Graphics/SVG/1.1/DTD/svg11.dtd">

<svg width="135" height="50" viewBox="0 0 135 50" preserveAspectRatio="none" 
  xmlns="http://www.w3.org/2000/svg"
  xmlns:xlink="http://www.w3.org/1999/xlink">


<polyline points="0.0, 36.39111670266008 0.7988165680473372, 36.13045197992395 1.5976331360946745, 35.66226355341731 2.396449704142012, 37.401465100612945 3.195266272189349, 35.68391154874767 3.994082840236686, 36.08207355472925 4.792899408284024, 35.449067282109084 5.591715976331361, 36.8757420128424 6.390532544378698, 36.55473503621655 7.189349112426036, 37.44492116130703 7.988165680473372, 36.88526524442609 8.78698224852071, 36.46630454799465 9.585798816568047, 36.27316621407193 10.384615384615385, 29.901872088097782 11.183431952662723, 33.58423537433764 11.982248520710058, 34.54046428605855 12.781065088757396, 36.957751582326175 13.579881656804734, 37.067807604832275 14.378698224852071, 37.480163245830326 15.177514792899409, 33.759601551341504 15.976331360946745, 35.04795452577739 16.775147928994084, 31.637287751504452 17.57396449704142, 33.42928324819644 18.37278106508876, 31.62217073133999 19.171597633136095, 29.056319069272433 19.970414201183434, 34.63510715561606 20.76923076923077, 34.66602462594079 21.56804733727811, 37.702016601432106 22.366863905325445, 38.1345619217474 23.16568047337278, 38.59965089202099 23.964497041420117, 38.65776059518286 24.763313609467456, 39.80517273035339 25.562130177514792, 41.112064594569084 26.36094674556213, 43.93374936424034 27.159763313609467, 43.30253219834714 27.958579881656807, 48.37228622187512 28.757396449704142, 43.55828393210981 29.55621301775148, 43.45448192224994 30.355029585798817, 44.90724738162276 31.153846153846157, 47.764815509246496 31.95266272189349, 38.80631259861656 32.751479289940825, 46.4482050419936 33.55029585798817, 45.37846777915872 34.349112426035504, 47.3305748134879 35.14792899408284, 50.0 35.94674556213018, 45.95668260522609 36.74556213017752, 44.73904141108582 37.54437869822485, 38.900408795564104 38.34319526627219, 46.4665595834921 39.142011834319526, 45.58368402842121 39.94082840236687, 45.793044571463454 40.7396449704142, 46.25301424858739 41.53846153846154, 44.219523984296615 42.337278106508876, 43.04529769744906 43.13609467455622, 38.96369592650502 43.93491124260355, 38.62668969052076 44.73372781065089, 34.379074695938556 45.532544378698226, 40.596897788073456 46.33136094674556, 41.88083896297755 47.1301775147929, 44.651919539234214 47.928994082840234, 42.85700038645948 48.72781065088758, 42.8233650751904 49.52662721893491, 40.53446378568959 50.32544378698225, 41.207929383422396 51.124260355029584, 42.472338604320534 51.92307692307693, 41.20763472397258 52.72189349112426, 39.34366099322506 53.5207100591716, 42.633057153668005 54.319526627218934, 39.376571653398486 55.11834319526627, 39.14594616424791 55.91715976331361, 38.278441537686334 56.71597633136094, 38.17443573767096 57.514792899408285, 36.9122978277871 58.31360946745562, 40.319621109157005 59.11242603550296, 41.41643733412169 59.91124260355029, 38.38109193578864 60.710059171597635, 38.3090627155024 61.50887573964497, 40.124475108295584 62.307692307692314, 37.019293200352806 63.10650887573964, 37.90012234049687 63.90532544378698, 38.525945088568264 64.70414201183432, 36.727405554284836 65.50295857988165, 37.3856953610378 66.30177514792899, 39.26431309604195 67.10059171597634, 38.849314744797375 67.89940828402366, 36.71125487943005 68.69822485207101, 35.11702322415628 69.49704142011834, 34.79553679517787 70.29585798816568, 34.81896606334687 71.09467455621302, 33.36501370412737 71.89349112426036, 32.94583162693206 72.6923076923077, 30.16371962660657 73.49112426035504, 30.250435414606407 74.28994082840237, 30.660571258048897 75.0887573964497, 26.717001380559775 75.88757396449704, 32.68189237174862 76.68639053254438, 30.3083854178144 77.48520710059172, 25.109903435664815 78.28402366863905, 20.09796560797545 79.0828402366864, 16.54176591913996 79.88165680473374, 17.393565836839844 80.68047337278107, 16.352743386487134 81.4792899408284, 15.809190037757881 82.27810650887574, 16.773408105406126 83.07692307692308, 18.64241689395222 83.87573964497041, 19.320304962845718 84.67455621301775, 19.870048353889814 85.4733727810651, 18.847037626175457 86.27218934911244, 21.160095824904236 87.07100591715975, 21.015357095302654 87.8698224852071, 21.38067904933865 88.66863905325444, 17.013715116491575 89.46745562130178, 12.979481358435699 90.26627218934911, 8.77642109302436 91.06508875739645, 16.64699648197284 91.8639053254438, 12.897779156393419 92.66272189349112, 8.093636180779226 93.46153846153845, 5.121187709597896 94.2603550295858, 5.972291460900676 95.05917159763314, 5.426677615269974 95.85798816568047, 2.5536193264173046 96.65680473372781, 4.331021260365665 97.45562130177515, 2.874979023810547 98.2544378698225, 0.0 99.05325443786982, 0.12584635884933507 99.85207100591715, 0.4760982561153699 100.6508875739645, 0.9170902222578547 101.44970414201183, 2.4879016948099073 102.24852071005917, 5.070890645345919 103.04733727810651, 15.182069189183023 103.84615384615385, 16.939476769979592 104.64497041420118, 13.83561399107554 105.44378698224853, 13.134274122916315 106.24260355029585, 15.014857667974981 107.0414201183432, 11.785439017132509 107.84023668639053, 11.23842015183488 108.63905325443787, 12.974742536624802 109.43786982248521, 14.39608014133526 110.23668639053254, 12.786675113328796 111.03550295857988, 13.376960929543417 111.83431952662723, 13.492210043480842 112.63313609467457, 12.160090211067995 113.43195266272188, 13.869067935678528 114.23076923076923, 12.308565373597148 115.02958579881657, 10.327298468578409 115.82840236686391, 11.553994317183832 116.62721893491124, 11.19997654599256 117.42603550295858, 12.824772791810426 118.22485207100593, 11.774689749799029 119.02366863905324, 13.727890329511458 119.82248520710058, 16.040150181823694 120.62130177514793, 17.451811619574407 121.42011834319527, 17.590261479932124 122.2189349112426, 23.502366956983625 123.01775147928994, 21.640553475184365 123.81656804733728, 19.64119407452842 124.61538461538463, 20.981793512290263 125.41420118343194, 19.34402960087252 126.21301775147928, 16.19077903776393 127.01183431952663, 17.239778426036843 127.81065088757396, 17.961656184519754 128.60946745562129, 19.426312254339404 129.40828402366864, 16.480277856530712 130.20710059171597, 15.15860945514407 131.0059171597633, 13.358908876153672 131.80473372781066, 13.231737885220523 132.60355029585799, 12.937462374066635 133.40236686390534, 11.30881878190111 134.20118343195267, 10.377294906002051" fill="none" stroke="#32ca5b" stroke-width="1.25"/>

</svg>