<?xml version="1.0" standalone="no"?>
<!DOCTYPE svg PUBLIC "-//W3C//DTD SVG 1.1//EN" "http://www.w3.org/Graphics/SVG/1.1/DTD/svg11.dtd">

<svg width="135" height="50" viewBox="0 0 135 50" preserveAspectRatio="none" 
  xmlns="http://www.w3.org/2000/svg"
  xmlns:xlink="http://www.w3.org/1999/xlink">


<polyline points="0.0, 37.00241664563754 0.9183673469387755, 41.93172066923897 1.836734693877551, 41.9210659099836 2.7551020408163263, 42.748918001772715 3.673469387755102, 43.68069171253143 4.591836734693878, 42.928945608916074 5.5102040816326525, 41.829523253751965 6.428571428571428, 40.571987334047385 7.346938775510204, 41.90289456029789 8.26530612244898, 45.02413568162502 9.183673469387756, 43.111809772337224 10.10204081632653, 40.17935319671063 11.020408163265305, 38.13299931906648 11.938775510204081, 30.457024643800455 12.857142857142856, 34.92593241554131 13.775510204081632, 40.4145154464348 14.693877551020408, 42.21700823919633 15.612244897959185, 42.47518809025342 16.53061224489796, 41.66106926682697 17.448979591836736, 33.100964090380806 18.367346938775512, 33.83307828667954 19.285714285714285, 28.363985653011724 20.20408163265306, 29.942335044356057 21.122448979591837, 30.781211172657212 22.04081632653061, 27.836173617895483 22.959183673469386, 31.067592048702025 23.877551020408163, 32.050644193633396 24.79591836734694, 34.887375012485066 25.71428571428571, 39.266548736943776 26.632653061224488, 43.88142771288918 27.551020408163264, 39.00036035499209 28.46938775510204, 50.0 29.387755102040817, 40.53011342480659 30.306122448979593, 45.68114848320084 31.22448979591837, 42.149101452850495 32.14285714285714, 43.742334421657965 33.06122448979592, 46.532467611486055 33.97959183673469, 47.53286724230249 34.89795918367347, 46.17371181637952 35.816326530612244, 45.154919983195065 36.734693877551024, 44.90328604295015 37.65306122448979, 45.297226067198004 38.57142857142857, 41.07844317779123 39.48979591836735, 39.2182646910947 40.40816326530612, 38.66207530899151 41.3265306122449, 37.90379037709926 42.244897959183675, 36.409159676499186 43.163265306122454, 39.157761884221884 44.08163265306122, 39.199629995895464 45.0, 37.20217514282273 45.91836734693877, 31.12200455185948 46.83673469387755, 29.362846627580012 47.755102040816325, 28.03000597905455 48.673469387755105, 33.631939412133136 49.59183673469388, 31.360565191732654 50.51020408163266, 31.595198340174502 51.42857142857142, 36.97004921135973 52.3469387755102, 36.382214697360055 53.265306122448976, 32.83720944254526 54.183673469387756, 32.42858357319615 55.10204081632653, 33.55561570605631 56.02040816326531, 33.76146654340259 56.93877551020408, 31.34275749501125 57.857142857142854, 27.346338988099212 58.775510204081634, 31.213791567590487 59.69387755102041, 31.07334315939449 60.61224489795919, 30.69674047405236 61.53061224489796, 31.16492570694674 62.44897959183674, 30.56586957901605 63.36734693877551, 31.12797643392508 64.28571428571428, 36.32476355381946 65.20408163265306, 35.41794157148374 66.12244897959184, 36.69529340064192 67.04081632653062, 36.503819220223996 67.95918367346938, 36.451807426195714 68.87755102040816, 36.451807426195714 69.79591836734694, 35.97048057518661 70.71428571428572, 39.9048875588019 71.63265306122449, 38.55932663774941 72.55102040816327, 40.8879393029982 73.46938775510205, 39.92492234562282 74.38775510204081, 38.1965015883732 75.30612244897958, 38.70536670583928 76.22448979591836, 37.5952652439639 77.14285714285714, 37.34852647192759 78.06122448979592, 37.816416048244 78.9795918367347, 38.869396351314464 79.89795918367346, 38.34434648402974 80.81632653061224, 40.637452579295704 81.73469387755102, 40.87976668089509 82.6530612244898, 42.7276829094994 83.57142857142857, 35.546293393012384 84.48979591836735, 34.80670964416608 85.40816326530613, 30.827985299757156 86.32653061224491, 35.19544668844926 87.24489795918367, 36.99860344055007 88.16326530612244, 37.094041501011496 89.08163265306122, 37.053717411902355 90.0, 38.29599097287657 90.91836734693877, 38.370284681488606 91.83673469387755, 35.16406873276202 92.75510204081633, 28.90683604369811 93.6734693877551, 25.93786551421483 94.59183673469387, 27.126008087594123 95.51020408163265, 26.990847094331944 96.42857142857143, 24.17619294628979 97.34693877551021, 24.2361337908438 98.26530612244899, 25.886647647067214 99.18367346938776, 26.489859886652823 100.10204081632654, 26.57808760402564 101.02040816326532, 25.688152962746898 101.93877551020408, 25.2293252460927 102.85714285714285, 21.928506985396044 103.77551020408163, 21.876059121707332 104.6938775510204, 25.644580027314106 105.61224489795919, 23.929183379888112 106.53061224489795, 24.039088128585355 107.44897959183673, 23.05291713348715 108.36734693877551, 14.407566999756297 109.28571428571429, 14.35937892229761 110.20408163265306, 15.182040619675705 111.12244897959184, 14.301504203253671 112.04081632653062, 12.679837691910512 112.9591836734694, 13.698944791329218 113.87755102040816, 13.032433572456814 114.79591836734693, 15.373598376609973 115.71428571428571, 15.32083038173744 116.63265306122449, 15.890314681188 117.55102040816327, 15.551841221200894 118.46938775510203, 14.949268421761003 119.38775510204081, 14.253198201751257 120.3061224489796, 21.584436548274606 121.22448979591837, 21.34659408032152 122.14285714285714, 20.436645953176562 123.06122448979592, 18.279732436175795 123.9795918367347, 18.533400059071404 124.89795918367348, 14.732477825965004 125.81632653061224, 11.903939797055134 126.73469387755102, 7.074476990296363 127.6530612244898, 6.550143557604089 128.57142857142856, 7.091832630754526 129.48979591836735, 4.895593265160872 130.40816326530611, 2.2143488713748516 131.32653061224488, 0.0 132.24489795918367, 0.3623130840922867 133.16326530612244, 0.9455931135683515 134.08163265306123, 1.357034543603775" fill="none" stroke="#32ca5b" stroke-width="1.25"/>

</svg>