<?xml version="1.0" standalone="no"?>
<!DOCTYPE svg PUBLIC "-//W3C//DTD SVG 1.1//EN" "http://www.w3.org/Graphics/SVG/1.1/DTD/svg11.dtd">

<svg width="135" height="50" viewBox="0 0 135 50" preserveAspectRatio="none" 
  xmlns="http://www.w3.org/2000/svg"
  xmlns:xlink="http://www.w3.org/1999/xlink">


<polyline points="0.0, 43.41316865563495 0.7988165680473372, 44.11630333974101 1.5976331360946745, 44.99510311561592 2.396449704142012, 43.66157263477838 3.195266272189349, 44.39350751299767 3.994082840236686, 43.55147539993274 4.792899408284024, 42.981478055639975 5.591715976331361, 41.562932456197764 6.390532544378698, 42.24607597751634 7.189349112426036, 44.455955676101574 7.988165680473372, 44.076460438556246 8.78698224852071, 42.39297626043491 9.585798816568047, 42.22460684304499 10.384615384615385, 43.68808936445808 11.183431952662723, 42.407843281998005 11.982248520710058, 44.066673947216245 12.781065088757396, 47.136347071254484 13.579881656804734, 48.41727066093103 14.378698224852071, 48.25495909300148 15.177514792899409, 46.96868644690037 15.976331360946745, 45.746274291790186 16.775147928994084, 43.91126596926316 17.57396449704142, 43.93106954978742 18.37278106508876, 42.90577693937892 19.171597633136095, 42.951542754049854 19.970414201183434, 42.951823832051915 20.76923076923077, 43.68523913065317 21.56804733727811, 44.03276450885727 22.366863905325445, 43.967520427684065 23.16568047337278, 44.964743642356716 23.964497041420117, 45.482771206307106 24.763313609467456, 46.83354933056928 25.562130177514792, 46.742245854503736 26.36094674556213, 46.36972728058901 27.159763313609467, 49.27287840332957 27.958579881656807, 48.515867806676354 28.757396449704142, 48.762498487287544 29.55621301775148, 47.24464434796759 30.355029585798817, 48.809868974922374 31.153846153846157, 50.0 31.95266272189349, 49.09259567891845 32.751479289940825, 48.42530432421117 33.55029585798817, 49.036719319455976 34.349112426035504, 49.989178374120094 35.14792899408284, 49.238485999173726 35.94674556213018, 49.54581163570809 36.74556213017752, 48.08111422160625 37.54437869822485, 47.577799483540545 38.34319526627219, 46.76164802679553 39.142011834319526, 47.94228911659391 39.94082840236687, 49.664186987485834 40.7396449704142, 48.7658784415555 41.53846153846154, 47.87483960194556 42.337278106508876, 47.53906878175268 43.13609467455622, 47.30357085097274 43.93491124260355, 45.90136393385061 44.73372781065089, 44.97830227009605 45.532544378698226, 43.975918708176096 46.33136094674556, 43.81809985758613 47.1301775147929, 44.53401736692716 47.928994082840234, 43.86354891883295 48.72781065088758, 45.324461869268504 49.52662721893491, 45.19983377769496 50.32544378698225, 43.86834665223945 51.124260355029584, 43.67676251478836 51.92307692307693, 42.984732895083546 52.72189349112426, 40.85816571387284 53.5207100591716, 36.36070837070926 54.319526627218934, 33.91211840248995 55.11834319526627, 41.621773539521186 55.91715976331361, 43.41660074713632 56.71597633136094, 42.56963121661841 57.514792899408285, 43.33462057608642 58.31360946745562, 41.44606997734031 59.11242603550296, 42.8576228830708 59.91124260355029, 43.419880578312004 60.710059171597635, 44.37582046150062 61.50887573964497, 44.13940339470644 62.307692307692314, 44.27350229806184 63.10650887573964, 44.05868220497479 63.90532544378698, 45.16688869188006 64.70414201183432, 45.77492825324384 65.50295857988165, 45.51587567632462 66.30177514792899, 45.40420346499799 67.10059171597634, 45.29652794934601 67.89940828402366, 46.26038152263022 68.69822485207101, 44.37878512857951 69.49704142011834, 25.277315337186867 70.29585798816568, 27.78245022576975 71.09467455621302, 31.674515125132917 71.89349112426036, 33.3018907453602 72.6923076923077, 33.278776638039716 73.49112426035504, 31.978598400742847 74.28994082840237, 29.778103307163263 75.0887573964497, 29.9394951085104 75.88757396449704, 32.11709264384264 76.68639053254438, 28.83510484452374 77.48520710059172, 24.938648214794704 78.28402366863905, 27.20010095110715 79.0828402366864, 20.41094881888363 79.88165680473374, 18.20480589890301 80.68047337278107, 12.823342822546927 81.4792899408284, 11.057124163806456 82.27810650887574, 11.592529101689147 83.07692307692308, 2.1499860975329517 83.87573964497041, 0.0 84.67455621301775, 2.3334404131977626 85.4733727810651, 2.805669863410072 86.27218934911244, 9.724965461898954 87.07100591715975, 11.005225381089705 87.8698224852071, 10.426931050487037 88.66863905325444, 18.03473927077409 89.46745562130178, 18.586017551886385 90.26627218934911, 11.589974109271802 91.06508875739645, 10.898043749706796 91.8639053254438, 8.529890834029402 92.66272189349112, 8.757156549061342 93.46153846153845, 11.05334697061662 94.2603550295858, 13.881611203725061 95.05917159763314, 14.381743253260767 95.85798816568047, 14.240442733620556 96.65680473372781, 14.787451301395235 97.45562130177515, 15.7088293892181 98.2544378698225, 17.83150702753238 99.05325443786982, 18.484686317783343 99.85207100591715, 17.796350515996192 100.6508875739645, 18.06986640732756 101.44970414201183, 18.639156311381715 102.24852071005917, 18.664821279359074 103.04733727810651, 19.036831327626167 103.84615384615385, 16.600809398422275 104.64497041420118, 20.258032636187775 105.44378698224853, 17.665228379762745 106.24260355029585, 17.617916184923278 107.0414201183432, 17.32529625078764 107.84023668639053, 19.19249594254959 108.63905325443787, 19.932751673989184 109.43786982248521, 21.3787246672119 110.23668639053254, 20.125571977332555 111.03550295857988, 19.871221305634798 111.83431952662723, 20.128807046633657 112.63313609467457, 19.369149445199636 113.43195266272188, 20.04631497501008 114.23076923076923, 19.773025109792787 115.02958579881657, 18.81883996500339 115.82840236686391, 19.962467983219444 116.62721893491124, 19.933619617943275 117.42603550295858, 13.838384225957826 118.22485207100593, 15.796385347528435 119.02366863905324, 20.067079993535565 119.82248520710058, 20.797758841823086 120.62130177514793, 21.18731201338028 121.42011834319527, 23.609361932611424 122.2189349112426, 22.438367599307128 123.01775147928994, 22.982342452839895 123.81656804733728, 23.005641208015557 124.61538461538463, 22.948716895885017 125.41420118343194, 22.738232132682672 126.21301775147928, 23.177545264970618 127.01183431952663, 22.32669726250989 127.81065088757396, 21.56504101762575 128.60946745562129, 21.431179483399365 129.40828402366864, 21.989331438345474 130.20710059171597, 23.411016113820953 131.0059171597633, 23.053428435970204 131.80473372781066, 22.43380979823657 132.60355029585799, 21.513613393487944 133.40236686390534, 22.09248546543658 134.20118343195267, 21.245218874021543" fill="none" stroke="#32ca5b" stroke-width="1.25"/>

</svg>