<?xml version="1.0" standalone="no"?>
<!DOCTYPE svg PUBLIC "-//W3C//DTD SVG 1.1//EN" "http://www.w3.org/Graphics/SVG/1.1/DTD/svg11.dtd">

<svg width="135" height="50" viewBox="0 0 135 50" preserveAspectRatio="none" 
  xmlns="http://www.w3.org/2000/svg"
  xmlns:xlink="http://www.w3.org/1999/xlink">


<polyline points="0.0, 19.015843444544885 0.7988165680473372, 15.813366914926355 1.5976331360946745, 14.586095803182339 2.396449704142012, 0.0 3.195266272189349, 18.923867949158947 3.994082840236686, 20.732621695726063 4.792899408284024, 22.994146930476816 5.591715976331361, 22.74906646767342 6.390532544378698, 23.869532676982224 7.189349112426036, 24.673510576813452 7.988165680473372, 23.948626239616555 8.78698224852071, 23.242766771804448 9.585798816568047, 25.10457377472493 10.384615384615385, 23.813854929950836 11.183431952662723, 34.61470328812805 11.982248520710058, 40.90249853920614 12.781065088757396, 44.74886742977407 13.579881656804734, 42.174411486053714 14.378698224852071, 42.123558759997834 15.177514792899409, 37.39284450424801 15.976331360946745, 35.93741516992744 16.775147928994084, 36.34460403292735 17.57396449704142, 35.29196838652007 18.37278106508876, 35.96870144890257 19.171597633136095, 38.02702926377821 19.970414201183434, 39.51200013301704 20.76923076923077, 39.715725988750066 21.56804733727811, 38.123755565497774 22.366863905325445, 33.53722626900015 23.16568047337278, 33.55450232422008 23.964497041420117, 27.201180057677902 24.763313609467456, 32.390436109884014 25.562130177514792, 29.784915384835607 26.36094674556213, 31.134228784559348 27.159763313609467, 24.527934519330046 27.958579881656807, 32.215741016706964 28.757396449704142, 28.620608429548906 29.55621301775148, 30.06839084399192 30.355029585798817, 34.035249226334756 31.153846153846157, 29.730962290988145 31.95266272189349, 33.960833728251814 32.751479289940825, 38.17948420674197 33.55029585798817, 38.69278355804532 34.349112426035504, 37.464359063596845 35.14792899408284, 40.064497977921526 35.94674556213018, 32.439849594719576 36.74556213017752, 34.8364169370943 37.54437869822485, 33.710851313073206 38.34319526627219, 31.459434531800994 39.142011834319526, 39.180714269251645 39.94082840236687, 38.961111324453995 40.7396449704142, 35.999442993530515 41.53846153846154, 35.77748189170925 42.337278106508876, 35.38521420812003 43.13609467455622, 31.183242270077237 43.93491124260355, 32.847128407424684 44.73372781065089, 32.85849697451057 45.532544378698226, 28.902780576793475 46.33136094674556, 32.86207424124255 47.1301775147929, 31.19915369613037 47.928994082840234, 31.930480687139113 48.72781065088758, 33.865416583312935 49.52662721893491, 33.51466950177319 50.32544378698225, 31.23085437614958 51.124260355029584, 30.976850725721093 51.92307692307693, 28.874888119213992 52.72189349112426, 20.179192060711518 53.5207100591716, 21.231238282243346 54.319526627218934, 24.754705282365315 55.11834319526627, 28.752952378929468 55.91715976331361, 29.920125734818008 56.71597633136094, 31.354553054000213 57.514792899408285, 30.481604173383197 58.31360946745562, 31.26781227968972 59.11242603550296, 32.68377813287038 59.91124260355029, 30.315785652225003 60.710059171597635, 33.0113721418061 61.50887573964497, 34.090817069702226 62.307692307692314, 34.03812310946701 63.10650887573964, 36.893313984622125 63.90532544378698, 37.877716450850976 64.70414201183432, 35.96024404810941 65.50295857988165, 36.0854340958875 66.30177514792899, 34.95093752031248 67.10059171597634, 38.45173137513122 67.89940828402366, 37.7130261765921 68.69822485207101, 37.87822479122283 69.49704142011834, 44.61581317542892 70.29585798816568, 44.41440886964638 71.09467455621302, 42.024057209731744 71.89349112426036, 41.7474102366533 72.6923076923077, 42.59064586747698 73.49112426035504, 42.14585669164574 74.28994082840237, 43.803091853714385 75.0887573964497, 46.22993181633572 75.88757396449704, 45.693383343020955 76.68639053254438, 45.43936126147301 77.48520710059172, 50.0 78.28402366863905, 47.60543221093698 79.0828402366864, 45.95207550712941 79.88165680473374, 41.9955695943152 80.68047337278107, 41.61511092045304 81.4792899408284, 43.741452754401145 82.27810650887574, 42.496791882522 83.07692307692308, 44.720912582070426 83.87573964497041, 43.221006923224955 84.67455621301775, 42.87529903082166 85.4733727810651, 41.930113718075845 86.27218934911244, 41.19346063076979 87.07100591715975, 38.81945638197159 87.8698224852071, 38.08002115216984 88.66863905325444, 39.78484479913561 89.46745562130178, 39.03264127919022 90.26627218934911, 37.43790517891733 91.06508875739645, 37.32637684350144 91.8639053254438, 36.11256305322528 92.66272189349112, 37.420358752175 93.46153846153845, 35.04015996616492 94.2603550295858, 32.93722660353317 95.05917159763314, 32.40247355554748 95.85798816568047, 33.54070443572587 96.65680473372781, 29.265617099678664 97.45562130177515, 29.968519703624995 98.2544378698225, 31.267417870750375 99.05325443786982, 35.94817893681939 99.85207100591715, 35.31172681019032 100.6508875739645, 34.89430613039805 101.44970414201183, 36.34674607970151 102.24852071005917, 37.83637190279354 103.04733727810651, 33.542497941232085 103.84615384615385, 36.919700886140774 104.64497041420118, 38.17518521887323 105.44378698224853, 38.56452356841066 106.24260355029585, 41.08004154233822 107.0414201183432, 39.20587427101718 107.84023668639053, 40.161645881018494 108.63905325443787, 38.77821919591234 109.43786982248521, 36.74501618030695 110.23668639053254, 35.76618836294929 111.03550295857988, 36.92756184854852 111.83431952662723, 35.65126035585771 112.63313609467457, 37.009733608890386 113.43195266272188, 36.73683399457198 114.23076923076923, 37.43550987965083 115.02958579881657, 35.30033190436306 115.82840236686391, 38.35222135618702 116.62721893491124, 39.63826483449723 117.42603550295858, 37.78924274478774 118.22485207100593, 36.490438755320675 119.02366863905324, 37.35066494202107 119.82248520710058, 36.79617763625151 120.62130177514793, 40.427695188404286 121.42011834319527, 40.746039700776194 122.2189349112426, 43.719737114190615 123.01775147928994, 41.2692005767971 123.81656804733728, 41.51497985789752 124.61538461538463, 39.08669327932298 125.41420118343194, 36.101435143083 126.21301775147928, 34.51337037419039 127.01183431952663, 32.3680336551502 127.81065088757396, 31.956469730147457 128.60946745562129, 30.496673147985394 129.40828402366864, 31.028798374561323 130.20710059171597, 29.76663228420886 131.0059171597633, 29.43878408022918 131.80473372781066, 29.636443690239663 132.60355029585799, 30.10786995161062 133.40236686390534, 29.603185846155533 134.20118343195267, 26.583062197594852" fill="none" stroke="#ff3a33" stroke-width="1.25"/>

</svg>