<?xml version="1.0" standalone="no"?>
<!DOCTYPE svg PUBLIC "-//W3C//DTD SVG 1.1//EN" "http://www.w3.org/Graphics/SVG/1.1/DTD/svg11.dtd">

<svg width="135" height="50" viewBox="0 0 135 50" preserveAspectRatio="none" 
  xmlns="http://www.w3.org/2000/svg"
  xmlns:xlink="http://www.w3.org/1999/xlink">


<polyline points="0.0, 0.3309982877620497 0.8653846153846153, 0.8716918314996108 1.7307692307692306, 0.9292800911828285 2.5961538461538463, 0.7390003377872669 3.4615384615384612, 0.48709181562829595 4.326923076923077, 0.49364860377705494 5.1923076923076925, 0.7195806903289392 6.0576923076923075, 0.906643927037323 6.9230769230769225, 0.8940108862594012 7.788461538461539, 0.839765679431706 8.653846153846153, 1.0653781871153363 9.519230769230768, 0.7632008530105024 10.384615384615385, 48.938485541723345 11.25, 50.0 12.115384615384615, 0.6513765630350498 12.980769230769232, 0.7200965605485129 13.846153846153845, 0.7669592293401438 14.711538461538462, 0.11321731680138622 15.576923076923078, 0.0 16.442307692307693, 0.25649406420819787 17.307692307692307, 48.37929622629088 18.173076923076923, 47.152306369873926 19.038461538461537, 46.586083942833255 19.903846153846153, 46.29228934599183 20.76923076923077, 46.26869426709669 21.634615384615387, 43.96857101759242 22.5, 40.16896815707435 23.365384615384613, 40.75467580805409 24.23076923076923, 40.613504303271284 25.096153846153847, 40.46582760372547 25.961538461538463, 40.88040967054848 26.826923076923077, 40.906229101797436 27.69230769230769, 40.92551384774633 28.557692307692307, 40.89831501016544 29.423076923076923, 41.03090410084494 30.28846153846154, 41.06369919803767 31.153846153846157, 41.140313612391125 32.01923076923077, 41.4640259571047 32.88461538461539, 41.85275607107227 33.75, 41.77520518799299 34.61538461538461, 45.348937191028696 35.48076923076923, 45.29432142438253 36.34615384615385, 45.119403546379786 37.21153846153847, 45.04864551224515 38.07692307692307, 45.09764682538929 38.942307692307686, 45.16164649663803 39.80769230769231, 45.08192366467265 40.67307692307692, 45.047848815465585 41.53846153846154, 45.14708770110552 42.40384615384615, 44.988911758959716 43.269230769230774, 45.29604404713343 44.13461538461539, 45.59346389896869 45.0, 45.39923243735702 45.86538461538462, 45.37620614790303 46.730769230769226, 45.130820835664096 47.59615384615385, 45.249919047067586 48.46153846153846, 43.68540595763943 49.32692307692307, 43.350916670304755 50.19230769230769, 43.24025110128092 51.05769230769231, 43.289153539204655 51.92307692307693, 43.218299841808204 52.78846153846154, 43.070524800199756 53.65384615384615, 40.73042053507863 54.519230769230774, 40.68696183127478 55.38461538461538, 40.63613271643294 56.25, 40.969448189268576 57.11538461538461, 40.83419413060558 57.980769230769226, 40.7060149265933 58.84615384615385, 40.89286909836494 59.71153846153846, 40.897840188523745 60.57692307692308, 40.7307303355376 61.44230769230769, 40.748992422156796 62.307692307692314, 41.0704629151896 63.17307692307693, 41.33384552704344 64.03846153846153, 41.108547666862755 64.90384615384616, 40.87465023241237 65.76923076923077, 41.118988511628004 66.63461538461539, 41.01945618015703 67.5, 41.04039412230014 68.36538461538461, 40.98228892734718 69.23076923076923, 41.115153395411284 70.09615384615385, 41.314423132053264 70.96153846153847, 41.22252078278949 71.82692307692308, 41.25363332287599 72.6923076923077, 41.338929702948754 73.5576923076923, 41.631587430749164 74.42307692307693, 41.94253543641673 75.28846153846155, 42.00808770016578 76.15384615384615, 41.81918409090372 77.01923076923076, 41.80763917163555 77.88461538461537, 41.711679848082014 78.75, 41.80362544227604 79.61538461538461, 41.66515200300074 80.48076923076923, 41.75121456785953 81.34615384615384, 41.94783785330009 82.21153846153845, 41.770573684293076 83.07692307692308, 41.6863416603002 83.9423076923077, 41.72868166980787 84.8076923076923, 41.713998121179436 85.67307692307692, 41.733494441242385 86.53846153846155, 41.758429197461616 87.40384615384616, 41.93587582944953 88.26923076923077, 41.87661648238994 89.13461538461539, 39.361990677346135 90.0, 39.33995229965073 90.86538461538463, 41.09221641677096 91.73076923076924, 41.734940241640814 92.59615384615385, 41.65576371446556 93.46153846153845, 41.565378435271334 94.32692307692307, 41.559012993990784 95.1923076923077, 43.52878855774645 96.0576923076923, 43.615368076403314 96.92307692307692, 43.53212427207419 97.78846153846153, 43.51417971931487 98.65384615384615, 44.13611468114227 99.51923076923077, 44.18374006979328 100.38461538461539, 44.12913594125535 101.25, 44.14299828815283 102.11538461538461, 44.093395644451235 102.98076923076923, 44.149743811722395 103.84615384615385, 44.11029866640859 104.71153846153847, 43.89834998809872 105.57692307692308, 43.83851075705598 106.4423076923077, 43.8390635551693 107.3076923076923, 43.8390635551693 108.17307692307693, 43.84998126532127 109.03846153846155, 43.98310135410581 109.90384615384615, 43.98398657534797 110.76923076923076, 43.8693294022076 111.63461538461537, 43.63373316833087 112.5, 43.60399484728141 113.36538461538461, 43.91608258404502 114.23076923076923, 43.828129769420514 115.09615384615384, 43.79020283128305 115.96153846153845, 43.72818076220324 116.82692307692308, 43.79439945317012 117.6923076923077, 43.7872449447515 118.5576923076923, 43.87812257650689 119.42307692307692, 43.826141744647074 120.28846153846155, 43.779991545644954 121.15384615384616, 43.9139160526541 122.01923076923077, 43.64921869226138 122.88461538461539, 43.88851985700034 123.75, 43.848244628790304 124.61538461538463, 43.93649705428977 125.48076923076924, 43.61380036793563 126.34615384615385, 43.2248376159543 127.21153846153845, 43.20188923807349 128.07692307692307, 43.20658697577236 128.9423076923077, 43.228851293410344 129.80769230769232, 43.264596111630475 130.67307692307693, 42.338326356892736 131.53846153846155, 42.72303182504019 132.40384615384616, 42.72408464002263 133.26923076923077, 42.69939009093016 134.1346153846154, 42.69939009093016" fill="none" stroke="#ff3a33" stroke-width="1.25"/>

</svg>