<?xml version="1.0" standalone="no"?>
<!DOCTYPE svg PUBLIC "-//W3C//DTD SVG 1.1//EN" "http://www.w3.org/Graphics/SVG/1.1/DTD/svg11.dtd">

<svg width="135" height="50" viewBox="0 0 135 50" preserveAspectRatio="none" 
  xmlns="http://www.w3.org/2000/svg"
  xmlns:xlink="http://www.w3.org/1999/xlink">


<polyline points="0.0, 9.24004866567209 0.7988165680473372, 9.955862299150462 1.5976331360946745, 10.840893640097434 2.396449704142012, 13.05215679758748 3.195266272189349, 17.667817693525002 3.994082840236686, 14.811034067455129 4.792899408284024, 16.66926071275119 5.591715976331361, 10.403922669302167 6.390532544378698, 6.531275826191825 7.189349112426036, 11.10777586223907 7.988165680473372, 10.480024777063152 8.78698224852071, 7.507611515518802 9.585798816568047, 1.3437816786994565 10.384615384615385, 9.116474642161952 11.183431952662723, 4.5667273313815615 11.982248520710058, 8.619998534545418 12.781065088757396, 12.476157392432608 13.579881656804734, 21.175229690128084 14.378698224852071, 23.848158346436954 15.177514792899409, 27.12364884755497 15.976331360946745, 26.92153499058024 16.775147928994084, 25.544102173804472 17.57396449704142, 26.272202395401962 18.37278106508876, 25.11819163774902 19.171597633136095, 23.70599996552852 19.970414201183434, 25.49498563318977 20.76923076923077, 23.68767861581695 21.56804733727811, 25.108352389978588 22.366863905325445, 19.1054913580955 23.16568047337278, 20.89697654330955 23.964497041420117, 20.35194299848973 24.763313609467456, 20.928439005259055 25.562130177514792, 23.025796880581023 26.36094674556213, 21.53415553961726 27.159763313609467, 31.232500871077935 27.958579881656807, 18.876396591014068 28.757396449704142, 19.12073932371913 29.55621301775148, 28.921763865576384 30.355029585798817, 26.500446032859298 31.153846153846157, 33.15191584309194 31.95266272189349, 41.0148753674887 32.751479289940825, 38.772953802887606 33.55029585798817, 46.11916652067846 34.349112426035504, 46.93350881094677 35.14792899408284, 43.7047973364501 35.94674556213018, 48.30352972652128 36.74556213017752, 47.832014618041924 37.54437869822485, 42.63837686146157 38.34319526627219, 37.80558240599449 39.142011834319526, 32.13132355846645 39.94082840236687, 44.04765904038632 40.7396449704142, 44.53790327871047 41.53846153846154, 44.03907915225686 42.337278106508876, 40.574284335632235 43.13609467455622, 39.999030840451056 43.93491124260355, 36.72728706210717 44.73372781065089, 36.20750874403896 45.532544378698226, 21.333045392453744 46.33136094674556, 16.81251638895326 47.1301775147929, 20.80767466130563 47.928994082840234, 16.586553046906424 48.72781065088758, 22.248453604486883 49.52662721893491, 27.71388823982928 50.32544378698225, 23.915023202934528 51.124260355029584, 29.201105246832554 51.92307692307693, 33.817810935445635 52.72189349112426, 35.916360250555066 53.5207100591716, 33.717267901587334 54.319526627218934, 23.082762713568822 55.11834319526627, 23.840067906265926 55.91715976331361, 19.154747183201778 56.71597633136094, 18.231110500921606 57.514792899408285, 21.251672694945796 58.31360946745562, 17.63496649924375 59.11242603550296, 19.53186642959724 59.91124260355029, 38.04619393960332 60.710059171597635, 41.10327906637185 61.50887573964497, 46.54324479445789 62.307692307692314, 44.13710554658164 63.10650887573964, 46.212274279576626 63.90532544378698, 50.0 64.70414201183432, 48.81355830480373 65.50295857988165, 47.324787323995736 66.30177514792899, 45.357164109355864 67.10059171597634, 42.7877744309134 67.89940828402366, 43.49210212013195 68.69822485207101, 42.535681204829665 69.49704142011834, 36.5105936168051 70.29585798816568, 32.653382545201794 71.09467455621302, 33.3241496583243 71.89349112426036, 33.853774460354344 72.6923076923077, 37.31565249179427 73.49112426035504, 36.69217312821569 74.28994082840237, 31.894646071345345 75.0887573964497, 31.3363050263699 75.88757396449704, 28.9383262042427 76.68639053254438, 34.36478637258332 77.48520710059172, 31.973579343492904 78.28402366863905, 30.88553305908606 79.0828402366864, 33.173420155740025 79.88165680473374, 32.94782006763018 80.68047337278107, 31.73054395741859 81.4792899408284, 29.25970107417763 82.27810650887574, 30.77932331177874 83.07692307692308, 30.82002480452335 83.87573964497041, 28.22916931409783 84.67455621301775, 27.43459121755819 85.4733727810651, 27.101733733713058 86.27218934911244, 26.852673367538582 87.07100591715975, 23.03275983832362 87.8698224852071, 18.277930669950454 88.66863905325444, 16.999665387493426 89.46745562130178, 11.091127839309104 90.26627218934911, 17.671343764344684 91.06508875739645, 16.794752715855175 91.8639053254438, 19.323911082392105 92.66272189349112, 17.827652321194577 93.46153846153845, 15.370430827044904 94.2603550295858, 15.319399744278991 95.05917159763314, 14.667211582229847 95.85798816568047, 12.035180672671848 96.65680473372781, 13.977829653619276 97.45562130177515, 14.679616653246907 98.2544378698225, 19.036404059635885 99.05325443786982, 21.97333111096488 99.85207100591715, 19.680016001896654 100.6508875739645, 18.684841656913736 101.44970414201183, 19.647404143450455 102.24852071005917, 21.941853550059232 103.04733727810651, 12.413434300415533 103.84615384615385, 15.545549943943884 104.64497041420118, 8.230398904622763 105.44378698224853, 0.0 106.24260355029585, 8.335691499072624 107.0414201183432, 10.272748850947032 107.84023668639053, 14.246367441926285 108.63905325443787, 15.479768146211095 109.43786982248521, 14.82986148819461 110.23668639053254, 13.969259383983132 111.03550295857988, 14.715402267431552 111.83431952662723, 11.472068684868757 112.63313609467457, 12.02529531991096 113.43195266272188, 9.12584812242578 114.23076923076923, 15.240779161382143 115.02958579881657, 12.905979884332542 115.82840236686391, 14.541905005600327 116.62721893491124, 18.907061550405242 117.42603550295858, 22.68660386935055 118.22485207100593, 23.989381982312835 119.02366863905324, 24.26261086509659 119.82248520710058, 27.579430638716563 120.62130177514793, 23.83718294544854 121.42011834319527, 23.55054331488829 122.2189349112426, 26.1847196595437 123.01775147928994, 29.024998661479636 123.81656804733728, 24.47158864697134 124.61538461538463, 26.687727504258422 125.41420118343194, 15.879286348579855 126.21301775147928, 17.110233018473096 127.01183431952663, 20.07091820370784 127.81065088757396, 21.501588883067054 128.60946745562129, 22.105609627031665 129.40828402366864, 18.725918100902522 130.20710059171597, 17.742040206525363 131.0059171597633, 18.288847504233086 131.80473372781066, 22.078427190824872 132.60355029585799, 21.800904521571578 133.40236686390534, 19.880905241738027 134.20118343195267, 20.043512802792268" fill="none" stroke="#ff3a33" stroke-width="1.25"/>

</svg>