<?xml version="1.0" standalone="no"?>
<!DOCTYPE svg PUBLIC "-//W3C//DTD SVG 1.1//EN" "http://www.w3.org/Graphics/SVG/1.1/DTD/svg11.dtd">

<svg width="135" height="50" viewBox="0 0 135 50" preserveAspectRatio="none" 
  xmlns="http://www.w3.org/2000/svg"
  xmlns:xlink="http://www.w3.org/1999/xlink">


<polyline points="0.0, 31.90882113071015 0.7988165680473372, 29.17135265720233 1.5976331360946745, 23.984273164345772 2.396449704142012, 41.04723873242269 3.195266272189349, 33.09756842749309 3.994082840236686, 31.815580311728407 4.792899408284024, 30.358879330757066 5.591715976331361, 39.271339447808195 6.390532544378698, 31.558205508227882 7.189349112426036, 23.764568396573573 7.988165680473372, 33.475836834448856 8.78698224852071, 26.59237361650965 9.585798816568047, 33.00467548859687 10.384615384615385, 26.121579933682902 11.183431952662723, 27.085283492768653 11.982248520710058, 33.010026851105 12.781065088757396, 40.36515325915981 13.579881656804734, 32.92425522879267 14.378698224852071, 29.61936827570732 15.177514792899409, 29.49147144308839 15.976331360946745, 37.890387181122506 16.775147928994084, 35.39628612752112 17.57396449704142, 33.8625145615826 18.37278106508876, 32.35047021659102 19.171597633136095, 39.80130074923872 19.970414201183434, 35.62026609311958 20.76923076923077, 29.308068065922 21.56804733727811, 33.29420064418174 22.366863905325445, 29.397562970497493 23.16568047337278, 33.35421948541592 23.964497041420117, 35.827818545547736 24.763313609467456, 50.0 25.562130177514792, 29.87981089260579 26.36094674556213, 37.259770308374485 27.159763313609467, 29.645307882002147 27.958579881656807, 30.470406447112946 28.757396449704142, 35.22234887409273 29.55621301775148, 25.57736023609778 30.355029585798817, 37.42699353297292 31.153846153846157, 37.36775777619585 31.95266272189349, 19.174373754162097 32.751479289940825, 23.69998954667815 33.55029585798817, 27.947020364182734 34.349112426035504, 19.68146841422963 35.14792899408284, 35.502116027624176 35.94674556213018, 19.40061613619635 36.74556213017752, 16.587877656600032 37.54437869822485, 23.40230165055155 38.34319526627219, 24.220455884406768 39.142011834319526, 27.325898370053448 39.94082840236687, 35.870615532159164 40.7396449704142, 33.190375239506956 41.53846153846154, 33.846513599768755 42.337278106508876, 31.980540672493298 43.13609467455622, 30.34819895823774 43.93491124260355, 26.53380327685519 44.73372781065089, 14.625554203053282 45.532544378698226, 18.0654053761643 46.33136094674556, 26.390604179530825 47.1301775147929, 21.961656544795304 47.928994082840234, 24.14518155992153 48.72781065088758, 20.743795079612244 49.52662721893491, 12.584721908851554 50.32544378698225, 27.33293181182882 51.124260355029584, 26.023219840711153 51.92307692307693, 24.843533621393036 52.72189349112426, 28.773940623757543 53.5207100591716, 24.62255626264999 54.319526627218934, 27.37041117202476 55.11834319526627, 22.226398731368 55.91715976331361, 25.003868651457083 56.71597633136094, 21.344455191643604 57.514792899408285, 15.090799999416319 58.31360946745562, 25.684140991951597 59.11242603550296, 40.17890482885515 59.91124260355029, 22.960985103684028 60.710059171597635, 29.0966835458483 61.50887573964497, 29.167865337438148 62.307692307692314, 22.80352588492665 63.10650887573964, 31.27151935460155 63.90532544378698, 16.36095783319528 64.70414201183432, 25.593444176562162 65.50295857988165, 19.162342174561868 66.30177514792899, 23.2444319520071 67.10059171597634, 31.853818405818046 67.89940828402366, 24.730360627360508 68.69822485207101, 27.29778180975121 69.49704142011834, 34.60058811678023 70.29585798816568, 21.473152389062935 71.09467455621302, 29.098938152388836 71.89349112426036, 27.20068251526106 72.6923076923077, 26.766367595146832 73.49112426035504, 22.003031170882288 74.28994082840237, 29.055124268133802 75.0887573964497, 28.910656053309648 75.88757396449704, 31.597835386639822 76.68639053254438, 25.19013161744309 77.48520710059172, 29.72583373724082 78.28402366863905, 23.81842146897186 79.0828402366864, 25.479462497995094 79.88165680473374, 24.86233729958686 80.68047337278107, 21.761807345091462 81.4792899408284, 23.899417666937328 82.27810650887574, 22.44483901280229 83.07692307692308, 30.544229728353738 83.87573964497041, 33.341302372278356 84.67455621301775, 29.964877649628164 85.4733727810651, 30.232677363850502 86.27218934911244, 31.831691660223925 87.07100591715975, 32.09307188508593 87.8698224852071, 32.27734492881451 88.66863905325444, 26.80704149652502 89.46745562130178, 26.986078565617337 90.26627218934911, 8.575718167482957 91.06508875739645, 28.86188395969257 91.8639053254438, 26.97991622238704 92.66272189349112, 26.075951936431586 93.46153846153845, 21.396209781181508 94.2603550295858, 29.656926301435217 95.05917159763314, 29.762512351613662 95.85798816568047, 26.251000364539472 96.65680473372781, 20.47931250489719 97.45562130177515, 43.3479172023534 98.2544378698225, 20.659530168609802 99.05325443786982, 25.130912499805554 99.85207100591715, 25.736390618447675 100.6508875739645, 27.20506241780371 101.44970414201183, 27.534245548404375 102.24852071005917, 34.784022882289875 103.04733727810651, 28.900903671095847 103.84615384615385, 29.59143336684173 104.64497041420118, 25.157369652429303 105.44378698224853, 26.507886686109373 106.24260355029585, 27.942825855658132 107.0414201183432, 27.467053898406874 107.84023668639053, 25.356724331204205 108.63905325443787, 26.09625744150209 109.43786982248521, 23.25976427752586 110.23668639053254, 24.092499526038353 111.03550295857988, 26.13922434633341 111.83431952662723, 31.648399023116173 112.63313609467457, 24.691939877224094 113.43195266272188, 33.63104116396595 114.23076923076923, 31.751935195200698 115.02958579881657, 25.216059442616583 115.82840236686391, 31.083325120107126 116.62721893491124, 30.442802969393412 117.42603550295858, 22.37639219187428 118.22485207100593, 27.285266571336113 119.02366863905324, 28.61081327067163 119.82248520710058, 26.02864294519333 120.62130177514793, 29.12817602922633 121.42011834319527, 22.566404814228402 122.2189349112426, 32.77509764123042 123.01775147928994, 26.12355390235028 123.81656804733728, 25.79751085808255 124.61538461538463, 14.665110911751619 125.41420118343194, 30.611530231091134 126.21301775147928, 21.871979842399615 127.01183431952663, 0.0 127.81065088757396, 17.362812637289423 128.60946745562129, 20.93924535797685 129.40828402366864, 18.761593097901315 130.20710059171597, 19.178412097592982 131.0059171597633, 21.606681834817177 131.80473372781066, 31.52108207890752 132.60355029585799, 27.14385368746767 133.40236686390534, 27.53015777004148 134.20118343195267, 22.166139219804705" fill="none" stroke="#32ca5b" stroke-width="1.25"/>

</svg>