<?xml version="1.0" standalone="no"?>
<!DOCTYPE svg PUBLIC "-//W3C//DTD SVG 1.1//EN" "http://www.w3.org/Graphics/SVG/1.1/DTD/svg11.dtd">

<svg width="135" height="50" viewBox="0 0 135 50" preserveAspectRatio="none" 
  xmlns="http://www.w3.org/2000/svg"
  xmlns:xlink="http://www.w3.org/1999/xlink">


<polyline points="0.0, 28.888105315111684 0.7988165680473372, 31.59056162891693 1.5976331360946745, 28.760237423375223 2.396449704142012, 31.44436393179262 3.195266272189349, 29.61726132692139 3.994082840236686, 27.34963905885553 4.792899408284024, 26.694756553901588 5.591715976331361, 27.475538306710632 6.390532544378698, 29.870056826283264 7.189349112426036, 32.51106161990238 7.988165680473372, 28.491183044226602 8.78698224852071, 26.543278861005692 9.585798816568047, 28.262576127741035 10.384615384615385, 24.86098498787066 11.183431952662723, 31.011732887843525 11.982248520710058, 35.8502524608533 12.781065088757396, 39.260403847115946 13.579881656804734, 39.06474120718993 14.378698224852071, 39.67220248530637 15.177514792899409, 32.74565241941998 15.976331360946745, 34.16727112175384 16.775147928994084, 33.348882212395836 17.57396449704142, 30.106859032512773 18.37278106508876, 31.686893121878313 19.171597633136095, 30.91760973158135 19.970414201183434, 30.581847601363144 20.76923076923077, 31.605603100997055 21.56804733727811, 32.7852806038879 22.366863905325445, 34.52849733267099 23.16568047337278, 35.13000653140669 23.964497041420117, 37.51919194020371 24.763313609467456, 40.181616014764046 25.562130177514792, 39.82037506424249 26.36094674556213, 45.25643943140616 27.159763313609467, 43.14933850693238 27.958579881656807, 47.45181565700453 28.757396449704142, 44.78787274403627 29.55621301775148, 46.00932841864173 30.355029585798817, 48.48408804260394 31.153846153846157, 47.48733981794529 31.95266272189349, 44.10145149502771 32.751479289940825, 46.9886847532827 33.55029585798817, 50.0 34.349112426035504, 49.078425523084505 35.14792899408284, 49.610078831419926 35.94674556213018, 45.711908250009174 36.74556213017752, 44.29768706121795 37.54437869822485, 42.46396111479533 38.34319526627219, 44.82039480883037 39.142011834319526, 47.8940271732864 39.94082840236687, 48.04332392892782 40.7396449704142, 45.848443416125654 41.53846153846154, 46.106751012873836 42.337278106508876, 44.07893642428215 43.13609467455622, 40.02312682573497 43.93491124260355, 37.94378990586671 44.73372781065089, 34.87384331208947 45.532544378698226, 35.29340242508857 46.33136094674556, 37.359715419626724 47.1301775147929, 37.66731309861421 47.928994082840234, 37.66471585472818 48.72781065088758, 38.05503915064074 49.52662721893491, 37.461030466876686 50.32544378698225, 36.327470376120615 51.124260355029584, 35.61951500605479 51.92307692307693, 31.480503670622976 52.72189349112426, 29.5718081977331 53.5207100591716, 28.823974623936525 54.319526627218934, 28.051068540409524 55.11834319526627, 31.982489912842034 55.91715976331361, 28.9804977163112 56.71597633136094, 30.21400689218649 57.514792899408285, 30.831275378135775 58.31360946745562, 30.911506788294286 59.11242603550296, 35.27013845522236 59.91124260355029, 36.53949906447103 60.710059171597635, 37.04799025978885 61.50887573964497, 36.70055688172777 62.307692307692314, 32.96199796051043 63.10650887573964, 35.751217136803454 63.90532544378698, 33.916983696015876 64.70414201183432, 34.880081292045 65.50295857988165, 32.087934367802184 66.30177514792899, 33.33473836382539 67.10059171597634, 35.22720472658131 67.89940828402366, 33.58357495720088 68.69822485207101, 31.537757416451388 69.49704142011834, 26.37705930500303 70.29585798816568, 32.60519306029111 71.09467455621302, 27.68131812146733 71.89349112426036, 24.80745703717852 72.6923076923077, 26.948629894969788 73.49112426035504, 27.895057389002893 74.28994082840237, 29.584656474673356 75.0887573964497, 30.182979324884414 75.88757396449704, 29.069407914435075 76.68639053254438, 29.183315585217496 77.48520710059172, 30.13557052249347 78.28402366863905, 27.349753596235242 79.0828402366864, 26.42415428887665 79.88165680473374, 17.331098549403894 80.68047337278107, 24.698489259403292 81.4792899408284, 17.79862995535451 82.27810650887574, 17.111032329755815 83.07692307692308, 17.47941563181007 83.87573964497041, 17.571634837145215 84.67455621301775, 18.60669128860325 85.4733727810651, 18.421662675335973 86.27218934911244, 19.204506018429505 87.07100591715975, 17.675012350944495 87.8698224852071, 18.755946333355787 88.66863905325444, 23.105349883168483 89.46745562130178, 18.032091703668947 90.26627218934911, 15.949832003839731 91.06508875739645, 15.703205618363386 91.8639053254438, 14.87274970678993 92.66272189349112, 16.625222207693874 93.46153846153845, 17.166121581163658 94.2603550295858, 18.69405488379365 95.05917159763314, 21.908678893280168 95.85798816568047, 20.809707972092667 96.65680473372781, 11.078541893826278 97.45562130177515, 20.78075463545779 98.2544378698225, 24.745445500370874 99.05325443786982, 24.292936858457452 99.85207100591715, 21.063159554158954 100.6508875739645, 20.596830443370145 101.44970414201183, 22.741886685476313 102.24852071005917, 26.10388339470911 103.04733727810651, 25.27225225749411 103.84615384615385, 25.694668520095902 104.64497041420118, 25.94943102152454 105.44378698224853, 22.350083845970047 106.24260355029585, 22.55131097452653 107.0414201183432, 23.749131070638533 107.84023668639053, 26.048751196735253 108.63905325443787, 27.109506200552637 109.43786982248521, 25.617399615488623 110.23668639053254, 24.441785484145427 111.03550295857988, 23.114762338119544 111.83431952662723, 16.20278919206734 112.63313609467457, 15.032282515082024 113.43195266272188, 16.48248307914256 114.23076923076923, 16.557602708531263 115.02958579881657, 15.57363929407985 115.82840236686391, 14.263842429316151 116.62721893491124, 17.363775946266173 117.42603550295858, 18.547143797897412 118.22485207100593, 16.250587690805748 119.02366863905324, 11.300065594606982 119.82248520710058, 14.080649367688668 120.62130177514793, 17.029358472329385 121.42011834319527, 13.99723633245043 122.2189349112426, 15.98977618222368 123.01775147928994, 11.046070101524167 123.81656804733728, 12.489350482828149 124.61538461538463, 16.66064591690695 125.41420118343194, 15.146104085782369 126.21301775147928, 13.299108605143713 127.01183431952663, 10.164417508920325 127.81065088757396, 9.208550910483526 128.60946745562129, 6.694499881903915 129.40828402366864, 7.852125584484232 130.20710059171597, 3.309962582289952 131.0059171597633, 5.452036341683961 131.80473372781066, 0.0 132.60355029585799, 4.686956584387566 133.40236686390534, 6.351856330766453 134.20118343195267, 6.533732849824096" fill="none" stroke="#32ca5b" stroke-width="1.25"/>

</svg>