<?xml version="1.0" standalone="no"?>
<!DOCTYPE svg PUBLIC "-//W3C//DTD SVG 1.1//EN" "http://www.w3.org/Graphics/SVG/1.1/DTD/svg11.dtd">

<svg width="135" height="50" viewBox="0 0 135 50" preserveAspectRatio="none" 
  xmlns="http://www.w3.org/2000/svg"
  xmlns:xlink="http://www.w3.org/1999/xlink">


<polyline points="0.0, 35.47409301092386 0.7988165680473372, 34.095622283808154 1.5976331360946745, 34.83838711139199 2.396449704142012, 36.82552295086185 3.195266272189349, 38.72625462330404 3.994082840236686, 36.004748861706695 4.792899408284024, 36.186679735468026 5.591715976331361, 35.088399226609795 6.390532544378698, 35.186983563339744 7.189349112426036, 34.15063973496297 7.988165680473372, 35.00876089194128 8.78698224852071, 27.809485486524828 9.585798816568047, 30.420074250539393 10.384615384615385, 32.73865414788032 11.183431952662723, 26.79724243443306 11.982248520710058, 21.981655094458763 12.781065088757396, 21.06616023958341 13.579881656804734, 10.71438060862542 14.378698224852071, 8.478614776294975 15.177514792899409, 16.926100093565285 15.976331360946745, 9.774428039600748 16.775147928994084, 8.27460879563449 17.57396449704142, 17.50421829042547 18.37278106508876, 13.86679080594905 19.171597633136095, 22.532005933145662 19.970414201183434, 9.177563673924297 20.76923076923077, 9.214887553070435 21.56804733727811, 18.963933139677298 22.366863905325445, 5.302222696146338 23.16568047337278, 4.619452946736479 23.964497041420117, 3.476158790709299 24.763313609467456, 9.36782670125172 25.562130177514792, 7.055123798739957 26.36094674556213, 10.971530079289947 27.159763313609467, 7.157020029847021 27.958579881656807, 10.351605241786869 28.757396449704142, 7.888533298238433 29.55621301775148, 6.2406378798469095 30.355029585798817, 6.548116066883264 31.153846153846157, 7.760611405269523 31.95266272189349, 19.98896139422094 32.751479289940825, 2.833449369933511 33.55029585798817, 8.921458093066798 34.349112426035504, 30.994793664622094 35.14792899408284, 6.807133691889497 35.94674556213018, 30.66411374065479 36.74556213017752, 8.91912305875127 37.54437869822485, 5.520575242763483 38.34319526627219, 4.998977566808599 39.142011834319526, 6.183988026083162 39.94082840236687, 9.872873892626117 40.7396449704142, 10.019299307726175 41.53846153846154, 10.408792129708324 42.337278106508876, 10.453208679722371 43.13609467455622, 9.20751353436907 43.93491124260355, 6.998413739418124 44.73372781065089, 8.144944538910602 45.532544378698226, 7.982742660200688 46.33136094674556, 11.50216541759301 47.1301775147929, 13.33709832590782 47.928994082840234, 14.808581638594681 48.72781065088758, 14.967665317976175 49.52662721893491, 16.858939429837925 50.32544378698225, 22.919759705258073 51.124260355029584, 20.04791097299658 51.92307692307693, 24.455766445507198 52.72189349112426, 26.158364830260656 53.5207100591716, 25.42307817029504 54.319526627218934, 22.79793748452816 55.11834319526627, 18.03764952630848 55.91715976331361, 18.71886568841884 56.71597633136094, 19.582606919095046 57.514792899408285, 18.839806447798843 58.31360946745562, 19.59927931641 59.11242603550296, 15.500746888698439 59.91124260355029, 17.446330616418077 60.710059171597635, 16.12998198275659 61.50887573964497, 18.48038468491808 62.307692307692314, 18.670873344707655 63.10650887573964, 22.57470878954006 63.90532544378698, 19.528106715624602 64.70414201183432, 28.19573625522211 65.50295857988165, 31.466366935297973 66.30177514792899, 20.244807816178394 67.10059171597634, 23.034222692538137 67.89940828402366, 17.23930717894201 68.69822485207101, 21.75144501541699 69.49704142011834, 22.421321891837508 70.29585798816568, 19.992522525348875 71.09467455621302, 14.447006567696574 71.89349112426036, 2.669030621614538 72.6923076923077, 7.360328581195616 73.49112426035504, 8.290793586774464 74.28994082840237, 6.97644506534027 75.0887573964497, 9.223096931794464 75.88757396449704, 15.728146897136735 76.68639053254438, 12.048484722599916 77.48520710059172, 4.845845718860095 78.28402366863905, 13.924886341352485 79.0828402366864, 12.832326729522592 79.88165680473374, 12.704447992757704 80.68047337278107, 13.083406693283953 81.4792899408284, 8.274079356488995 82.27810650887574, 9.94939903417373 83.07692307692308, 50.0 83.87573964497041, 31.7761824956248 84.67455621301775, 12.742788425771694 85.4733727810651, 9.954426651970442 86.27218934911244, 11.490661501387104 87.07100591715975, 7.999362080941998 87.8698224852071, 9.956952208246546 88.66863905325444, 9.386774279437788 89.46745562130178, 15.286082680299987 90.26627218934911, 8.52792810051662 91.06508875739645, 10.147421588222596 91.8639053254438, 6.790404018210228 92.66272189349112, 21.16513982607307 93.46153846153845, 20.397262162932016 94.2603550295858, 23.57619014850527 95.05917159763314, 18.774400843888962 95.85798816568047, 15.33890850144148 96.65680473372781, 17.84914105494928 97.45562130177515, 13.026738681832642 98.2544378698225, 20.948526187941127 99.05325443786982, 16.86482222121011 99.85207100591715, 2.1166436206794654 100.6508875739645, 2.6172292816051916 101.44970414201183, 4.250414649547737 102.24852071005917, 5.479604513517213 103.04733727810651, 3.3565350474709668 103.84615384615385, 2.604274278427463 104.64497041420118, 5.364872784434597 105.44378698224853, 4.9648955424176275 106.24260355029585, 10.144172666880898 107.0414201183432, 10.357827535308132 107.84023668639053, 9.830698633341507 108.63905325443787, 6.135436955455123 109.43786982248521, 6.899035638318132 110.23668639053254, 4.341329640254263 111.03550295857988, 2.6419102495159117 111.83431952662723, 0.0 112.63313609467457, 0.9142452132105685 113.43195266272188, 2.095392265481048 114.23076923076923, 1.6832076889321104 115.02958579881657, 6.788250911141771 115.82840236686391, 7.524446911415859 116.62721893491124, 7.590200095148385 117.42603550295858, 8.827453320958668 118.22485207100593, 7.688041035043557 119.02366863905324, 7.847030579390841 119.82248520710058, 6.86716313262538 120.62130177514793, 7.2537864814784205 121.42011834319527, 5.565274562414259 122.2189349112426, 4.687864608235715 123.01775147928994, 6.418968360997878 123.81656804733728, 5.755512258383829 124.61538461538463, 6.261406648437412 125.41420118343194, 4.838995326021825 126.21301775147928, 1.9738794949820757 127.01183431952663, 9.881850445549311 127.81065088757396, 6.023693564351444 128.60946745562129, 18.309084762430736 129.40828402366864, 5.214120037398756 130.20710059171597, 18.224908894388655 131.0059171597633, 15.652034684850017 131.80473372781066, 12.880792746850647 132.60355029585799, 11.321604843864158 133.40236686390534, 12.616695886804214 134.20118343195267, 12.205427595481883" fill="none" stroke="#32ca5b" stroke-width="1.25"/>

</svg>