<?xml version="1.0" standalone="no"?>
<!DOCTYPE svg PUBLIC "-//W3C//DTD SVG 1.1//EN" "http://www.w3.org/Graphics/SVG/1.1/DTD/svg11.dtd">

<svg width="135" height="50" viewBox="0 0 135 50" preserveAspectRatio="none" 
  xmlns="http://www.w3.org/2000/svg"
  xmlns:xlink="http://www.w3.org/1999/xlink">


<polyline points="0.0, 12.885383913552504 0.7988165680473372, 14.51508113923741 1.5976331360946745, 14.521053342254389 2.396449704142012, 21.232248173119103 3.195266272189349, 24.330692908563716 3.994082840236686, 22.385148737952505 4.792899408284024, 22.62803119629256 5.591715976331361, 23.79131056667873 6.390532544378698, 19.469288473625006 7.189349112426036, 26.830473985058013 7.988165680473372, 23.53153319576246 8.78698224852071, 16.153338004676936 9.585798816568047, 25.185783569731328 10.384615384615385, 25.469633483664804 11.183431952662723, 33.284287260967936 11.982248520710058, 26.400252663164935 12.781065088757396, 30.996015450155973 13.579881656804734, 28.35699487792323 14.378698224852071, 31.46886118058747 15.177514792899409, 29.949046402674785 15.976331360946745, 29.39012984082835 16.775147928994084, 24.122789418088363 17.57396449704142, 15.937691875985251 18.37278106508876, 18.300353344876385 19.171597633136095, 18.635768057035104 19.970414201183434, 17.6839552011259 20.76923076923077, 15.129269422099737 21.56804733727811, 11.773556945675667 22.366863905325445, 15.1087404541965 23.16568047337278, 20.738571682073285 23.964497041420117, 20.665504904919256 24.763313609467456, 18.06510596554618 25.562130177514792, 16.633650150311773 26.36094674556213, 22.329822062166407 27.159763313609467, 26.977017898102602 27.958579881656807, 21.329204985246708 28.757396449704142, 27.602553428134733 29.55621301775148, 32.50428125680789 30.355029585798817, 40.69771408799506 31.153846153846157, 38.14157645320515 31.95266272189349, 35.23881647689396 32.751479289940825, 41.00200200581686 33.55029585798817, 44.97474044579301 34.349112426035504, 40.627675466747334 35.14792899408284, 42.48692959876923 35.94674556213018, 28.017382595412748 36.74556213017752, 17.91668251297394 37.54437869822485, 8.512381659958427 38.34319526627219, 10.02367282838841 39.142011834319526, 16.274950222523188 39.94082840236687, 19.66365554822092 40.7396449704142, 14.558166590680399 41.53846153846154, 16.18527702626686 42.337278106508876, 11.464448438230153 43.13609467455622, 5.211189726558487 43.93491124260355, 6.110130177015458 44.73372781065089, 11.543346312096046 45.532544378698226, 11.403696390483516 46.33136094674556, 11.094826831070062 47.1301775147929, 7.618392149138012 47.928994082840234, 10.331174141380552 48.72781065088758, 14.350638000643299 49.52662721893491, 12.224517746056955 50.32544378698225, 0.0 51.124260355029584, 8.665163969764762 51.92307692307693, 11.939855749170775 52.72189349112426, 13.631993567919022 53.5207100591716, 14.740298093539103 54.319526627218934, 13.686068214214517 55.11834319526627, 18.732497696437328 55.91715976331361, 18.554856214300948 56.71597633136094, 21.73437245243823 57.514792899408285, 20.93650340359609 58.31360946745562, 23.467335021214197 59.11242603550296, 28.254082148599398 59.91124260355029, 28.43598770863915 60.710059171597635, 28.84837392456938 61.50887573964497, 28.277444287979204 62.307692307692314, 27.93967008610268 63.10650887573964, 30.421980684323824 63.90532544378698, 30.55386985374683 64.70414201183432, 31.21144732302551 65.50295857988165, 29.540202807444555 66.30177514792899, 28.804357531323394 67.10059171597634, 31.36041180347926 67.89940828402366, 25.896774100943432 68.69822485207101, 21.710420652963748 69.49704142011834, 35.63624176720819 70.29585798816568, 34.68115006650817 71.09467455621302, 31.758154060119853 71.89349112426036, 31.584790443530963 72.6923076923077, 32.08968125195161 73.49112426035504, 34.66184908129905 74.28994082840237, 36.478262058064516 75.0887573964497, 39.728350175933684 75.88757396449704, 39.375892648015935 76.68639053254438, 41.793393659778026 77.48520710059172, 50.0 78.28402366863905, 46.546893337658815 79.0828402366864, 44.14823854843591 79.88165680473374, 43.99400027154021 80.68047337278107, 46.30773854522271 81.4792899408284, 46.885195888171836 82.27810650887574, 44.93686728151097 83.07692307692308, 46.892067776855626 83.87573964497041, 46.69420016404104 84.67455621301775, 47.38991209176227 85.4733727810651, 44.81628660664509 86.27218934911244, 46.52122373301496 87.07100591715975, 44.295616050738516 87.8698224852071, 45.003498309265375 88.66863905325444, 45.12511859796966 89.46745562130178, 42.89917844890223 90.26627218934911, 43.02997738676531 91.06508875739645, 43.455235171817705 91.8639053254438, 42.62608047846215 92.66272189349112, 43.305032397830345 93.46153846153845, 42.830767609268655 94.2603550295858, 44.10624341628434 95.05917159763314, 43.89220212265029 95.85798816568047, 43.96177910026878 96.65680473372781, 38.838940692442925 97.45562130177515, 36.14003494326272 98.2544378698225, 36.929112744727064 99.05325443786982, 30.380648669256 99.85207100591715, 21.527805068316177 100.6508875739645, 21.550625153994623 101.44970414201183, 21.59307034761554 102.24852071005917, 29.859028029362534 103.04733727810651, 32.97339406076109 103.84615384615385, 32.59495688129655 104.64497041420118, 29.447028356238334 105.44378698224853, 32.155721137387886 106.24260355029585, 33.461309309416016 107.0414201183432, 31.11466650789555 107.84023668639053, 34.282368659142676 108.63905325443787, 33.759897891923224 109.43786982248521, 32.17194166303849 110.23668639053254, 33.14487268988135 111.03550295857988, 32.277623082500305 111.83431952662723, 32.5154952707653 112.63313609467457, 31.93744445253734 113.43195266272188, 33.62722351918437 114.23076923076923, 33.40111196331211 115.02958579881657, 31.73581206193315 115.82840236686391, 32.93922264882667 116.62721893491124, 32.60537620408202 117.42603550295858, 31.53374104275063 118.22485207100593, 31.500439689370186 119.02366863905324, 33.29461840423342 119.82248520710058, 33.47281827590743 120.62130177514793, 37.720321327725685 121.42011834319527, 38.579632705430136 122.2189349112426, 43.66857157655163 123.01775147928994, 41.225911345205226 123.81656804733728, 41.88532038486891 124.61538461538463, 41.94304921021692 125.41420118343194, 42.590085056594624 126.21301775147928, 40.16130188278934 127.01183431952663, 34.848005648622824 127.81065088757396, 31.048219408643828 128.60946745562129, 32.243954075422266 129.40828402366864, 32.4284270876881 130.20710059171597, 31.23566347044443 131.0059171597633, 31.540567923538536 131.80473372781066, 32.19263629144585 132.60355029585799, 34.01384653133132 133.40236686390534, 34.5602216002592 134.20118343195267, 34.67644183982463" fill="none" stroke="#ff3a33" stroke-width="1.25"/>

</svg>