<?xml version="1.0" standalone="no"?>
<!DOCTYPE svg PUBLIC "-//W3C//DTD SVG 1.1//EN" "http://www.w3.org/Graphics/SVG/1.1/DTD/svg11.dtd">

<svg width="135" height="50" viewBox="0 0 135 50" preserveAspectRatio="none" 
  xmlns="http://www.w3.org/2000/svg"
  xmlns:xlink="http://www.w3.org/1999/xlink">


<polyline points="0.0, 26.657485334188497 0.7988165680473372, 28.860961103162015 1.5976331360946745, 25.609361148450816 2.396449704142012, 29.67633739913199 3.195266272189349, 26.76030419270464 3.994082840236686, 25.675431506903244 4.792899408284024, 24.326183497247662 5.591715976331361, 25.824604682656755 6.390532544378698, 24.467618570477605 7.189349112426036, 26.904482364137657 7.988165680473372, 22.81732200440412 8.78698224852071, 23.140832896892427 9.585798816568047, 26.409295998158296 10.384615384615385, 23.949966495376557 11.183431952662723, 32.97996917781738 11.982248520710058, 39.792522521814945 12.781065088757396, 42.007560363654164 13.579881656804734, 40.1642502944964 14.378698224852071, 38.47858420615092 15.177514792899409, 35.54463282862007 15.976331360946745, 35.499486373270344 16.775147928994084, 35.57005408662954 17.57396449704142, 33.62784782438954 18.37278106508876, 34.16925320470377 19.171597633136095, 28.729879074388215 19.970414201183434, 29.530963024439576 20.76923076923077, 30.774935104937917 21.56804733727811, 27.09628820872196 22.366863905325445, 28.007377093139656 23.16568047337278, 29.709150329255994 23.964497041420117, 33.8589840591532 24.763313609467456, 36.887708665608855 25.562130177514792, 35.976727327305944 26.36094674556213, 43.69565822345734 27.159763313609467, 42.81627671143325 27.958579881656807, 46.42232633996608 28.757396449704142, 43.350155239405254 29.55621301775148, 44.03794340845915 30.355029585798817, 48.10883815778787 31.153846153846157, 46.855164338043984 31.95266272189349, 45.02510366040306 32.751479289940825, 48.313186560216 33.55029585798817, 50.0 34.349112426035504, 48.197295180836626 35.14792899408284, 48.98140654820419 35.94674556213018, 45.14415068120407 36.74556213017752, 42.43123464665483 37.54437869822485, 41.984613292557285 38.34319526627219, 43.487567468027436 39.142011834319526, 47.01732431099167 39.94082840236687, 46.38578088958096 40.7396449704142, 44.06981126172939 41.53846153846154, 44.87723989610761 42.337278106508876, 42.9408278356867 43.13609467455622, 38.24945492464117 43.93491124260355, 36.955867539003535 44.73372781065089, 36.38416418433958 45.532544378698226, 34.25546031476788 46.33136094674556, 35.472207158167414 47.1301775147929, 36.05692180825575 47.928994082840234, 37.30207395784607 48.72781065088758, 39.63461815458883 49.52662721893491, 36.13978719819704 50.32544378698225, 34.91577260108059 51.124260355029584, 36.5708375070067 51.92307692307693, 33.728366093765906 52.72189349112426, 33.73069339537304 53.5207100591716, 34.52158718527763 54.319526627218934, 32.39339230602714 55.11834319526627, 34.903618009482884 55.91715976331361, 33.91721158849998 56.71597633136094, 35.93103069081962 57.514792899408285, 34.87607635098385 58.31360946745562, 36.458981290040185 59.11242603550296, 39.72796115112555 59.91124260355029, 40.43348115837328 60.710059171597635, 39.870212822727666 61.50887573964497, 40.18209797999228 62.307692307692314, 37.91552365864811 63.10650887573964, 41.75759413621039 63.90532544378698, 42.932385140619424 64.70414201183432, 42.262899258085625 65.50295857988165, 39.815833556709066 66.30177514792899, 39.06031060970446 67.10059171597634, 41.62968618484587 67.89940828402366, 40.1333847652537 68.69822485207101, 38.55304389503213 69.49704142011834, 41.71111303185618 70.29585798816568, 41.9382034265154 71.09467455621302, 38.83182113532463 71.89349112426036, 37.94420440648235 72.6923076923077, 37.870192593596705 73.49112426035504, 36.58699877693428 74.28994082840237, 37.75167445586344 75.0887573964497, 40.667872515749394 75.88757396449704, 39.92933736666043 76.68639053254438, 39.16651657597672 77.48520710059172, 44.91029310543699 78.28402366863905, 41.94627316878209 79.0828402366864, 39.030134368726074 79.88165680473374, 37.090333237568935 80.68047337278107, 37.93041429783616 81.4792899408284, 37.61073157889885 82.27810650887574, 33.57472081801113 83.07692307692308, 33.910999576369655 83.87573964497041, 31.796702182712107 84.67455621301775, 33.01285123303222 85.4733727810651, 30.567175523710905 86.27218934911244, 31.232966837550848 87.07100591715975, 30.599142699336966 87.8698224852071, 29.406198517673566 88.66863905325444, 28.32609384377972 89.46745562130178, 26.94217084291841 90.26627218934911, 26.278258768145967 91.06508875739645, 26.981609016697046 91.8639053254438, 24.32080504493191 92.66272189349112, 25.40385921048215 93.46153846153845, 24.208800726905377 94.2603550295858, 26.37935928503161 95.05917159763314, 27.015699426004435 95.85798816568047, 28.350066553363362 96.65680473372781, 26.53193144604767 97.45562130177515, 28.151025714183103 98.2544378698225, 28.964473007955892 99.05325443786982, 30.110520212339235 99.85207100591715, 29.571181469136288 100.6508875739645, 29.94234109038793 101.44970414201183, 31.611011208018414 102.24852071005917, 33.26927024989439 103.04733727810651, 32.58564510570394 103.84615384615385, 33.22842620938521 104.64497041420118, 31.324255285065966 105.44378698224853, 29.31557357314847 106.24260355029585, 29.433620863934333 107.0414201183432, 28.240824831707744 107.84023668639053, 30.54752478026152 108.63905325443787, 30.596785536641423 109.43786982248521, 28.47042766560721 110.23668639053254, 29.613561341772453 111.03550295857988, 27.936497196731974 111.83431952662723, 28.257299527982287 112.63313609467457, 14.055143400212671 113.43195266272188, 9.576710212001498 114.23076923076923, 8.865537212283895 115.02958579881657, 11.80223227580766 115.82840236686391, 17.010690451744185 116.62721893491124, 16.63470727298625 117.42603550295858, 13.762957149180286 118.22485207100593, 11.152090268257755 119.02366863905324, 14.630135235855734 119.82248520710058, 14.434203055928474 120.62130177514793, 18.527010792482113 121.42011834319527, 17.370803905481562 122.2189349112426, 22.55914457169578 123.01775147928994, 8.076518109687317 123.81656804733728, 4.9728293172083005 124.61538461538463, 3.7377092688276465 125.41420118343194, 10.864059685055908 126.21301775147928, 8.090580992384869 127.01183431952663, 2.1605328365180263 127.81065088757396, 0.0 128.60946745562129, 3.8788554302502063 129.40828402366864, 6.661356794139841 130.20710059171597, 5.140414184360679 131.0059171597633, 4.3478200446710575 131.80473372781066, 3.172579584719416 132.60355029585799, 3.4452831577367613 133.40236686390534, 4.201718762266933 134.20118343195267, 3.9388691235440234" fill="none" stroke="#32ca5b" stroke-width="1.25"/>

</svg>