<?xml version="1.0" standalone="no"?>
<!DOCTYPE svg PUBLIC "-//W3C//DTD SVG 1.1//EN" "http://www.w3.org/Graphics/SVG/1.1/DTD/svg11.dtd">

<svg width="135" height="50" viewBox="0 0 135 50" preserveAspectRatio="none" 
  xmlns="http://www.w3.org/2000/svg"
  xmlns:xlink="http://www.w3.org/1999/xlink">


<polyline points="0.0, 21.940698483942615 0.7988165680473372, 27.542577910980036 1.5976331360946745, 32.143976820669465 2.396449704142012, 31.793439982335276 3.195266272189349, 35.430489819706565 3.994082840236686, 33.57104650743182 4.792899408284024, 31.045391820427547 5.591715976331361, 34.07675865563795 6.390532544378698, 31.00463623846579 7.189349112426036, 35.096875941550586 7.988165680473372, 38.50110005545879 8.78698224852071, 34.69028792558914 9.585798816568047, 31.737249750006807 10.384615384615385, 31.645476623829506 11.183431952662723, 25.89193402518914 11.982248520710058, 36.49002346148804 12.781065088757396, 42.78600065384333 13.579881656804734, 43.516708468327046 14.378698224852071, 41.49565960943184 15.177514792899409, 38.07494573602055 15.976331360946745, 33.39445455971208 16.775147928994084, 28.95589294099042 17.57396449704142, 25.49746233570172 18.37278106508876, 27.90273154823575 19.171597633136095, 30.514352979322247 19.970414201183434, 36.47376722076782 20.76923076923077, 37.417955752825385 21.56804733727811, 34.98615096543073 22.366863905325445, 32.03259241005582 23.16568047337278, 28.157255780926587 23.964497041420117, 28.19182951782688 24.763313609467456, 26.06288854899827 25.562130177514792, 30.83629329305807 26.36094674556213, 22.397360753475244 27.159763313609467, 32.17893113089637 27.958579881656807, 38.72021549396648 28.757396449704142, 42.48514011965325 29.55621301775148, 40.05594764569536 30.355029585798817, 41.907874034946914 31.153846153846157, 44.9812943079334 31.95266272189349, 43.72866788375515 32.751479289940825, 41.27225023480523 33.55029585798817, 46.61883247094716 34.349112426035504, 50.0 35.14792899408284, 48.395326901613196 35.94674556213018, 47.918719966287185 36.74556213017752, 43.646099830206474 37.54437869822485, 40.16313630351597 38.34319526627219, 38.42829989812921 39.142011834319526, 44.0678891435892 39.94082840236687, 49.57684142253668 40.7396449704142, 47.80429247509507 41.53846153846154, 47.058768697264384 42.337278106508876, 48.52594209896545 43.13609467455622, 44.22328565821857 43.93491124260355, 40.80917553185259 44.73372781065089, 37.46734069725255 45.532544378698226, 35.586402738804786 46.33136094674556, 31.008067447177424 47.1301775147929, 29.28760641667577 47.928994082840234, 23.785785104362713 48.72781065088758, 15.685609773881835 49.52662721893491, 21.864379144181388 50.32544378698225, 15.945166436292805 51.124260355029584, 17.70049917150637 51.92307692307693, 14.945957710028758 52.72189349112426, 6.657358845542709 53.5207100591716, 6.380609368576942 54.319526627218934, 7.762889610826555 55.11834319526627, 10.321709440589853 55.91715976331361, 9.102168288213413 56.71597633136094, 0.0 57.514792899408285, 3.7909233084145697 58.31360946745562, 14.972226976863922 59.11242603550296, 15.567866621344322 59.91124260355029, 17.747996051342465 60.710059171597635, 19.842717027045495 61.50887573964497, 17.47777855033635 62.307692307692314, 18.4834149637116 63.10650887573964, 16.14733914752692 63.90532544378698, 18.378734957389867 64.70414201183432, 15.113905976296236 65.50295857988165, 17.401024670852834 66.30177514792899, 16.07648987449581 67.10059171597634, 15.927587160272259 67.89940828402366, 19.417955397520593 68.69822485207101, 18.703427456321446 69.49704142011834, 20.901783687083913 70.29585798816568, 25.58113057935836 71.09467455621302, 23.94644727585342 71.89349112426036, 23.34725226850382 72.6923076923077, 24.96946086791409 73.49112426035504, 24.19311680392911 74.28994082840237, 23.55122807016494 75.0887573964497, 24.298993493019445 75.88757396449704, 28.42119183053744 76.68639053254438, 25.791117130552927 77.48520710059172, 28.738995195497484 78.28402366863905, 32.529724264016615 79.0828402366864, 30.772686527235503 79.88165680473374, 30.501103884782037 80.68047337278107, 28.12935740648702 81.4792899408284, 29.468754832392374 82.27810650887574, 29.755808651865706 83.07692307692308, 30.11527869794189 83.87573964497041, 33.30877415643973 84.67455621301775, 30.523010768006397 85.4733727810651, 26.628085153603564 86.27218934911244, 24.016216515195186 87.07100591715975, 27.435947121176714 87.8698224852071, 24.136515105814993 88.66863905325444, 21.84447389148521 89.46745562130178, 26.5018159019835 90.26627218934911, 26.36406096707168 91.06508875739645, 24.886311492850684 91.8639053254438, 26.332724369962655 92.66272189349112, 26.716777225792477 93.46153846153845, 26.905250819008668 94.2603550295858, 26.162737999181534 95.05917159763314, 24.48464211625049 95.85798816568047, 24.06522718305163 96.65680473372781, 22.356050005788326 97.45562130177515, 24.94096192341653 98.2544378698225, 25.031634827677742 99.05325443786982, 25.574377863498416 99.85207100591715, 28.02083265276847 100.6508875739645, 28.572215283783102 101.44970414201183, 27.22657676180345 102.24852071005917, 27.760512666151094 103.04733727810651, 30.853433866975443 103.84615384615385, 28.831384161802013 104.64497041420118, 29.76134199598072 105.44378698224853, 29.990231474767032 106.24260355029585, 29.68323354323555 107.0414201183432, 31.155403470567954 107.84023668639053, 29.53962609156212 108.63905325443787, 32.00903420481184 109.43786982248521, 32.459187982096495 110.23668639053254, 30.40291220896799 111.03550295857988, 30.95205572967208 111.83431952662723, 30.17496953408098 112.63313609467457, 27.68170767973393 113.43195266272188, 27.015416328217206 114.23076923076923, 25.962024157253143 115.02958579881657, 26.00599241912927 115.82840236686391, 28.321899156107218 116.62721893491124, 30.325434101172423 117.42603550295858, 32.84604913957037 118.22485207100593, 31.52675057041166 119.02366863905324, 33.32377990660751 119.82248520710058, 33.682755471095426 120.62130177514793, 32.426884717799325 121.42011834319527, 34.88082408973009 122.2189349112426, 35.08706721192446 123.01775147928994, 40.91055791290492 123.81656804733728, 39.37419172924042 124.61538461538463, 38.47099735642725 125.41420118343194, 36.71539585802848 126.21301775147928, 36.83465396491379 127.01183431952663, 34.64599945040516 127.81065088757396, 30.830821455161907 128.60946745562129, 23.740807642235207 129.40828402366864, 23.45709233760914 130.20710059171597, 22.993272304757234 131.0059171597633, 18.04707321273786 131.80473372781066, 16.821938167947135 132.60355029585799, 16.55798581433014 133.40236686390534, 19.06022450600722 134.20118343195267, 19.464568112012365" fill="none" stroke="#32ca5b" stroke-width="1.25"/>

</svg>