<?xml version="1.0" standalone="no"?>
<!DOCTYPE svg PUBLIC "-//W3C//DTD SVG 1.1//EN" "http://www.w3.org/Graphics/SVG/1.1/DTD/svg11.dtd">

<svg width="135" height="50" viewBox="0 0 135 50" preserveAspectRatio="none" 
  xmlns="http://www.w3.org/2000/svg"
  xmlns:xlink="http://www.w3.org/1999/xlink">


<polyline points="0.0, 30.478006176168453 0.7988165680473372, 25.74795964543973 1.5976331360946745, 24.631393500136028 2.396449704142012, 35.50414643236253 3.195266272189349, 27.855672845022745 3.994082840236686, 31.857733554139887 4.792899408284024, 28.525265960190684 5.591715976331361, 37.471546571502586 6.390532544378698, 25.58414837705168 7.189349112426036, 36.24108694485318 7.988165680473372, 26.6997670110979 8.78698224852071, 31.681602815021275 9.585798816568047, 25.01310981776409 10.384615384615385, 26.829125562780217 11.183431952662723, 24.16326204729515 11.982248520710058, 16.7017062535934 12.781065088757396, 42.851383510367526 13.579881656804734, 9.15769508978805 14.378698224852071, 24.33762416328565 15.177514792899409, 18.97766652321688 15.976331360946745, 36.90027989604287 16.775147928994084, 22.37059464694838 17.57396449704142, 23.2932442920215 18.37278106508876, 24.268284676832607 19.171597633136095, 26.85216204753806 19.970414201183434, 25.1259357880236 20.76923076923077, 29.57964708771951 21.56804733727811, 29.783886853170344 22.366863905325445, 23.041277832696135 23.16568047337278, 32.82868874191872 23.964497041420117, 34.661741713667986 24.763313609467456, 29.757805246333714 25.562130177514792, 27.532793454906283 26.36094674556213, 50.0 27.159763313609467, 31.264021507060875 27.958579881656807, 30.100109998071378 28.757396449704142, 27.56580010351044 29.55621301775148, 19.15322179405751 30.355029585798817, 34.95240592512289 31.153846153846157, 37.056859574059665 31.95266272189349, 11.932621646941127 32.751479289940825, 40.39489430584358 33.55029585798817, 26.629850874816803 34.349112426035504, 26.54915686122384 35.14792899408284, 37.691942880585195 35.94674556213018, 17.970250913736074 36.74556213017752, 24.044678138089353 37.54437869822485, 18.695111361243196 38.34319526627219, 26.53703569577483 39.142011834319526, 42.8056117721973 39.94082840236687, 27.92040934406228 40.7396449704142, 28.353082964619887 41.53846153846154, 33.12122411241135 42.337278106508876, 41.60438613890261 43.13609467455622, 23.638682943503365 43.93491124260355, 28.504144112461642 44.73372781065089, 23.551878867122227 45.532544378698226, 8.63677830968146 46.33136094674556, 39.154473718610575 47.1301775147929, 22.34903691435708 47.928994082840234, 23.68164932340576 48.72781065088758, 28.66138789451009 49.52662721893491, 14.235087329427845 50.32544378698225, 22.998241728273722 51.124260355029584, 25.884243294409607 51.92307692307693, 21.32843792323838 52.72189349112426, 22.549860510027433 53.5207100591716, 25.768522666910844 54.319526627218934, 16.294718855757772 55.11834319526627, 28.33517132550637 55.91715976331361, 19.020423440542302 56.71597633136094, 25.50610236426671 57.514792899408285, 16.55719457763131 58.31360946745562, 33.05403536635265 59.11242603550296, 43.690471258247754 59.91124260355029, 26.04841660250302 60.710059171597635, 27.14683807187513 61.50887573964497, 27.52100706474776 62.307692307692314, 20.981772093440902 63.10650887573964, 39.26373913932059 63.90532544378698, 26.06897101018304 64.70414201183432, 24.83873048912436 65.50295857988165, 24.243218680490592 66.30177514792899, 25.423913466726162 67.10059171597634, 23.14213322069689 67.89940828402366, 20.906614693368226 68.69822485207101, 6.5034261091206025 69.49704142011834, 29.514597644143915 70.29585798816568, 22.64290819933671 71.09467455621302, 27.54270614541406 71.89349112426036, 26.494094054948462 72.6923076923077, 27.935310801248896 73.49112426035504, 19.288531883044257 74.28994082840237, 31.05660956901263 75.0887573964497, 30.24442819724377 75.88757396449704, 28.451467608579 76.68639053254438, 24.928716222968546 77.48520710059172, 33.80221173284727 78.28402366863905, 25.838419514731697 79.0828402366864, 24.1888262719514 79.88165680473374, 26.212952918083477 80.68047337278107, 26.059747445023195 81.4792899408284, 30.367303707569715 82.27810650887574, 26.82358273198454 83.07692307692308, 32.248719921330306 83.87573964497041, 30.730689544370083 84.67455621301775, 30.342026702858504 85.4733727810651, 32.13069973065632 86.27218934911244, 31.256203906104368 87.07100591715975, 29.675171867007293 87.8698224852071, 33.46094808728713 88.66863905325444, 33.61972502794889 89.46745562130178, 26.655835353577633 90.26627218934911, 16.030571176199945 91.06508875739645, 40.2982017812347 91.8639053254438, 27.33668188903558 92.66272189349112, 28.05630154936396 93.46153846153845, 21.680723045861928 94.2603550295858, 31.58151779734179 95.05917159763314, 29.029840405344537 95.85798816568047, 29.955185662437778 96.65680473372781, 24.602655840873197 97.45562130177515, 45.636419614290126 98.2544378698225, 21.052528528844025 99.05325443786982, 28.78499713704276 99.85207100591715, 21.966857406357274 100.6508875739645, 25.12275054432138 101.44970414201183, 28.206673057456698 102.24852071005917, 31.650014958415795 103.04733727810651, 24.573357335417427 103.84615384615385, 27.033569649256318 104.64497041420118, 26.53671765087338 105.44378698224853, 23.870761687000922 106.24260355029585, 20.762441468057897 107.0414201183432, 22.82186095657058 107.84023668639053, 28.738046621210874 108.63905325443787, 27.06260402223224 109.43786982248521, 20.800607303450022 110.23668639053254, 19.703136490631252 111.03550295857988, 26.360366601040504 111.83431952662723, 24.655477167935107 112.63313609467457, 12.254526655967407 113.43195266272188, 34.15903494743988 114.23076923076923, 20.834838661848178 115.02958579881657, 21.771757924143554 115.82840236686391, 25.246594096592094 116.62721893491124, 27.9010080293832 117.42603550295858, 13.886600640853608 118.22485207100593, 20.29499845412894 119.02366863905324, 22.363338038808905 119.82248520710058, 20.98825614816128 120.62130177514793, 26.802655242393964 121.42011834319527, 24.2144963460124 122.2189349112426, 24.596572658385497 123.01775147928994, 30.90086783470919 123.81656804733728, 29.85917521043969 124.61538461538463, 27.49428796928597 125.41420118343194, 39.83260820461998 126.21301775147928, 15.847109889669902 127.01183431952663, 9.635929257214185 127.81065088757396, 23.048898435875543 128.60946745562129, 20.909957043863532 129.40828402366864, 5.571499139604889 130.20710059171597, 17.915327325947985 131.0059171597633, 6.329378546557993 131.80473372781066, 12.387508568908771 132.60355029585799, 0.0 133.40236686390534, 30.006783691091915 134.20118343195267, 17.384774912528894" fill="none" stroke="#32ca5b" stroke-width="1.25"/>

</svg>