<?xml version="1.0" standalone="no"?>
<!DOCTYPE svg PUBLIC "-//W3C//DTD SVG 1.1//EN" "http://www.w3.org/Graphics/SVG/1.1/DTD/svg11.dtd">

<svg width="135" height="50" viewBox="0 0 135 50" preserveAspectRatio="none" 
  xmlns="http://www.w3.org/2000/svg"
  xmlns:xlink="http://www.w3.org/1999/xlink">


<polyline points="0.0, 4.09149556776604 0.7988165680473372, 7.094517931503377 1.5976331360946745, 4.446770845839814 2.396449704142012, 7.998578348121171 3.195266272189349, 5.645346393029584 3.994082840236686, 5.070799285986653 4.792899408284024, 4.2582330864717814 5.591715976331361, 5.172315701696127 6.390532544378698, 6.641903838178016 7.189349112426036, 8.035943588256417 7.988165680473372, 5.577327861021224 8.78698224852071, 1.7601466081111234 9.585798816568047, 4.618190375408806 10.384615384615385, 0.0 11.183431952662723, 8.092416638902417 11.982248520710058, 17.273287677867675 12.781065088757396, 21.48666300400229 13.579881656804734, 20.499975348837975 14.378698224852071, 19.517772847659078 15.177514792899409, 15.970548376191642 15.976331360946745, 13.882493472459034 16.775147928994084, 13.02915024403447 17.57396449704142, 9.685993425371645 18.37278106508876, 10.582258589685175 19.171597633136095, 13.727642340658633 19.970414201183434, 16.550188670977576 20.76923076923077, 16.28328287609383 21.56804733727811, 16.375056368872777 22.366863905325445, 17.024275797930713 23.16568047337278, 18.562362150696966 23.964497041420117, 19.397436919209028 24.763313609467456, 18.77666283006258 25.562130177514792, 17.39903447744607 26.36094674556213, 22.54579726669474 27.159763313609467, 19.854039036014896 27.958579881656807, 25.159260508200255 28.757396449704142, 19.51666502523908 29.55621301775148, 19.468834889696577 30.355029585798817, 22.577504286597293 31.153846153846157, 19.41255842032035 31.95266272189349, 19.620791127343352 32.751479289940825, 23.63492999293598 33.55029585798817, 25.67262758455366 34.349112426035504, 22.76282181033265 35.14792899408284, 24.20190549480642 35.94674556213018, 20.088933065983714 36.74556213017752, 18.36892526429563 37.54437869822485, 17.26177908975973 38.34319526627219, 21.416108918814693 39.142011834319526, 24.28869366485214 39.94082840236687, 23.817473845627728 40.7396449704142, 22.63280442062829 41.53846153846154, 25.273615642250647 42.337278106508876, 23.64603550358268 43.13609467455622, 18.5855375434388 43.93491124260355, 18.528975607586435 44.73372781065089, 16.699230014917283 45.532544378698226, 13.901573869969534 46.33136094674556, 18.359859006395677 47.1301775147929, 18.5104321738456 47.928994082840234, 19.70518509776001 48.72781065088758, 23.291929234715788 49.52662721893491, 19.812002032436055 50.32544378698225, 19.49700319726363 51.124260355029584, 22.142050411849873 51.92307692307693, 19.09815408804608 52.72189349112426, 16.412947054948734 53.5207100591716, 17.914280891702692 54.319526627218934, 15.985535731492698 55.11834319526627, 18.905982587725358 55.91715976331361, 18.62232013026922 56.71597633136094, 22.776546356409767 57.514792899408285, 20.14441728384187 58.31360946745562, 23.623912690534095 59.11242603550296, 29.669811107132865 59.91124260355029, 31.443530268366914 60.710059171597635, 30.604711547592682 61.50887573964497, 31.632387259555966 62.307692307692314, 29.65034107384497 63.10650887573964, 32.83289480431215 63.90532544378698, 36.25238198577172 64.70414201183432, 35.820494043834984 65.50295857988165, 33.22468746933951 66.30177514792899, 33.097571164490326 67.10059171597634, 34.84590639011426 67.89940828402366, 33.67215448099138 68.69822485207101, 35.71474848357033 69.49704142011834, 41.14863119021065 70.29585798816568, 43.94944366120736 71.09467455621302, 40.04386928249154 71.89349112426036, 41.24959682651185 72.6923076923077, 41.319389944677276 73.49112426035504, 40.10565022537813 74.28994082840237, 41.484482004300695 75.0887573964497, 43.160783076736365 75.88757396449704, 43.68007336097689 76.68639053254438, 43.98854343546672 77.48520710059172, 50.0 78.28402366863905, 45.88932689298229 79.0828402366864, 47.3647644464609 79.88165680473374, 44.58411164515823 80.68047337278107, 46.96730695670819 81.4792899408284, 47.95083785961983 82.27810650887574, 45.04781694304868 83.07692307692308, 46.641062028833126 83.87573964497041, 43.445865716187924 84.67455621301775, 39.95476570700161 85.4733727810651, 38.718713947575324 86.27218934911244, 40.45935163206725 87.07100591715975, 39.73753725319597 87.8698224852071, 41.49380035151874 88.66863905325444, 41.4067110663994 89.46745562130178, 25.814043122433674 90.26627218934911, 24.71025905173419 91.06508875739645, 27.17171468103121 91.8639053254438, 26.670899347826744 92.66272189349112, 26.32390054133254 93.46153846153845, 25.09155765805129 94.2603550295858, 24.50932981160862 95.05917159763314, 25.137843460829885 95.85798816568047, 28.989838753825282 96.65680473372781, 29.535819255915506 97.45562130177515, 30.10465515229601 98.2544378698225, 26.325306311279462 99.05325443786982, 29.782468452363243 99.85207100591715, 29.341461102931433 100.6508875739645, 27.909923333023517 101.44970414201183, 25.648914631216247 102.24852071005917, 29.163350304854855 103.04733727810651, 28.372620389022195 103.84615384615385, 28.981871458742383 104.64497041420118, 26.54583296818104 105.44378698224853, 23.21618757945831 106.24260355029585, 26.8847553577526 107.0414201183432, 24.89576514816198 107.84023668639053, 26.34715052818683 108.63905325443787, 23.961400046910857 109.43786982248521, 19.78318549481167 110.23668639053254, 18.432238646911294 111.03550295857988, 14.231214939557146 111.83431952662723, 16.324610123298466 112.63313609467457, 18.292024600021143 113.43195266272188, 17.049231624126207 114.23076923076923, 16.668976221512896 115.02958579881657, 17.424695541067717 115.82840236686391, 18.892443238729797 116.62721893491124, 21.106279829831838 117.42603550295858, 20.959247857634743 118.22485207100593, 21.590488444605516 119.02366863905324, 22.34263543008969 119.82248520710058, 23.20514205611261 120.62130177514793, 25.200521110667278 121.42011834319527, 24.14432422614946 122.2189349112426, 29.79859329359221 123.01775147928994, 28.73086250083955 123.81656804733728, 31.15269669141818 124.61538461538463, 29.01458991483859 125.41420118343194, 27.606676407015147 126.21301775147928, 23.345694379014958 127.01183431952663, 20.171413314103777 127.81065088757396, 14.855117662952264 128.60946745562129, 14.527655385650757 129.40828402366864, 16.57493758081662 130.20710059171597, 12.254595380818516 131.0059171597633, 6.784692507841631 131.80473372781066, 7.483597031224476 132.60355029585799, 10.802099917454026 133.40236686390534, 10.91544920697559 134.20118343195267, 10.060044051588699" fill="none" stroke="#ff3a33" stroke-width="1.25"/>

</svg>