<?xml version="1.0" standalone="no"?>
<!DOCTYPE svg PUBLIC "-//W3C//DTD SVG 1.1//EN" "http://www.w3.org/Graphics/SVG/1.1/DTD/svg11.dtd">

<svg width="135" height="50" viewBox="0 0 135 50" preserveAspectRatio="none" 
  xmlns="http://www.w3.org/2000/svg"
  xmlns:xlink="http://www.w3.org/1999/xlink">


<polyline points="0.0, 30.109084111577435 0.7988165680473372, 32.15004340007588 1.5976331360946745, 32.88099616804934 2.396449704142012, 31.08586028007637 3.195266272189349, 32.6400511916988 3.994082840236686, 29.51904384914876 4.792899408284024, 30.49296991027408 5.591715976331361, 30.71640706374253 6.390532544378698, 30.87000846244124 7.189349112426036, 31.964088610746433 7.988165680473372, 33.43541191781595 8.78698224852071, 29.64158857056629 9.585798816568047, 27.69632680433784 10.384615384615385, 29.389043800820946 11.183431952662723, 27.613142504042315 11.982248520710058, 33.85144554156856 12.781065088757396, 39.053861619155946 13.579881656804734, 40.79113006593775 14.378698224852071, 38.61311357511741 15.177514792899409, 37.972251327772035 15.976331360946745, 35.01697633375405 16.775147928994084, 32.53384982127571 17.57396449704142, 31.90555291853341 18.37278106508876, 31.71380830838998 19.171597633136095, 32.076653509430955 19.970414201183434, 32.69460418940139 20.76923076923077, 34.76533513756119 21.56804733727811, 35.578537985653384 22.366863905325445, 35.09398335181999 23.16568047337278, 36.29381007837396 23.964497041420117, 39.860922405649134 24.763313609467456, 41.41172177089135 25.562130177514792, 42.61790137700254 26.36094674556213, 41.62548804858994 27.159763313609467, 47.999873420989836 27.958579881656807, 46.68864793643637 28.757396449704142, 46.829205804672405 29.55621301775148, 45.32742467807117 30.355029585798817, 47.04581889644956 31.153846153846157, 50.0 31.95266272189349, 48.249172744689304 32.751479289940825, 46.19764976025497 33.55029585798817, 46.660890232007254 34.349112426035504, 48.70401927394021 35.14792899408284, 46.17480672131358 35.94674556213018, 46.12047912663589 36.74556213017752, 42.296309781217 37.54437869822485, 38.41496058149423 38.34319526627219, 36.450250728141484 39.142011834319526, 37.5627546435127 39.94082840236687, 40.46957294653211 40.7396449704142, 40.17450423546236 41.53846153846154, 40.9318271466494 42.337278106508876, 41.6264344850511 43.13609467455622, 39.62285625993897 43.93491124260355, 35.963423989920315 44.73372781065089, 35.279170198928526 45.532544378698226, 32.332893106326495 46.33136094674556, 30.891554022604144 47.1301775147929, 33.6516915994983 47.928994082840234, 33.98226065926354 48.72781065088758, 33.37688565507574 49.52662721893491, 36.14281012591095 50.32544378698225, 32.39294197876016 51.124260355029584, 32.85271529598776 51.92307692307693, 33.13864711032129 52.72189349112426, 32.56705780733437 53.5207100591716, 32.62164659045853 54.319526627218934, 33.41322576669465 55.11834319526627, 32.25107913484371 55.91715976331361, 34.937075509581774 56.71597633136094, 33.80999099209369 57.514792899408285, 35.34172370483064 58.31360946745562, 32.66213682394894 59.11242603550296, 34.08717294951427 59.91124260355029, 36.69664015289879 60.710059171597635, 36.73236739843839 61.50887573964497, 35.7385020337115 62.307692307692314, 34.12483070243674 63.10650887573964, 32.52223269229975 63.90532544378698, 34.02826400471944 64.70414201183432, 34.847599580363045 65.50295857988165, 32.72739787557157 66.30177514792899, 32.535871887837764 67.10059171597634, 34.599448104932954 67.89940828402366, 36.62327837126191 68.69822485207101, 35.447492842498455 69.49704142011834, 25.025866478206666 70.29585798816568, 18.620049314477807 71.09467455621302, 22.47615369454086 71.89349112426036, 20.33848296704354 72.6923076923077, 22.38674417748216 73.49112426035504, 19.995879110130694 74.28994082840237, 18.562471120904934 75.0887573964497, 21.030118177096984 75.88757396449704, 21.653150884132735 76.68639053254438, 17.711312154027517 77.48520710059172, 14.17623575316966 78.28402366863905, 20.54601120051073 79.0828402366864, 13.097268461666994 79.88165680473374, 8.740337027878397 80.68047337278107, 5.406085792040235 81.4792899408284, 5.484893366908087 82.27810650887574, 8.349303624611247 83.07692307692308, 0.23074888370893998 83.87573964497041, 1.6528918868620215 84.67455621301775, 0.3699098051431106 85.4733727810651, 0.0 86.27218934911244, 6.036212415902558 87.07100591715975, 8.581328971120834 87.8698224852071, 8.78703960388562 88.66863905325444, 14.705071100963826 89.46745562130178, 16.021204285778282 90.26627218934911, 15.006391411636589 91.06508875739645, 13.74916043065928 91.8639053254438, 15.397680883534434 92.66272189349112, 14.30302514689567 93.46153846153845, 14.849131248692645 94.2603550295858, 14.585742681324076 95.05917159763314, 15.136181687586042 95.85798816568047, 15.022202330323664 96.65680473372781, 15.79835067890198 97.45562130177515, 13.576224407362734 98.2544378698225, 16.13641516340491 99.05325443786982, 17.96423447208978 99.85207100591715, 18.207929008818226 100.6508875739645, 16.47205586154697 101.44970414201183, 17.470421942980316 102.24852071005917, 15.141788752193005 103.04733727810651, 14.854440213063935 103.84615384615385, 14.728144088311915 104.64497041420118, 14.333377254476757 105.44378698224853, 14.461124283986088 106.24260355029585, 11.264375436531598 107.0414201183432, 15.367488577000968 107.84023668639053, 13.314510206394084 108.63905325443787, 15.63824274737454 109.43786982248521, 16.29053891200309 110.23668639053254, 14.657580953003976 111.03550295857988, 14.39066605703416 111.83431952662723, 12.77487878171177 112.63313609467457, 11.765700133310851 113.43195266272188, 10.516713790323212 114.23076923076923, 13.581004487762769 115.02958579881657, 14.921486565491298 115.82840236686391, 14.60550020093394 116.62721893491124, 17.12799137690744 117.42603550295858, 17.577758164878706 118.22485207100593, 16.682716483875286 119.02366863905324, 18.607225585911262 119.82248520710058, 19.210551043322184 120.62130177514793, 20.091427680431774 121.42011834319527, 22.484200866691744 122.2189349112426, 22.43479367152752 123.01775147928994, 26.098087212292963 123.81656804733728, 24.201668434364755 124.61538461538463, 23.784450399093995 125.41420118343194, 22.39731082115562 126.21301775147928, 23.49685338527266 127.01183431952663, 19.880034197688172 127.81065088757396, 16.505279470088162 128.60946745562129, 14.222035538788264 129.40828402366864, 15.546412391508351 130.20710059171597, 16.589751273756484 131.0059171597633, 16.08408701540074 131.80473372781066, 15.275074088108424 132.60355029585799, 13.029016414800001 133.40236686390534, 14.645377805022477 134.20118343195267, 14.701932530458233" fill="none" stroke="#32ca5b" stroke-width="1.25"/>

</svg>