<?xml version="1.0" standalone="no"?>
<!DOCTYPE svg PUBLIC "-//W3C//DTD SVG 1.1//EN" "http://www.w3.org/Graphics/SVG/1.1/DTD/svg11.dtd">

<svg width="135" height="50" viewBox="0 0 135 50" preserveAspectRatio="none" 
  xmlns="http://www.w3.org/2000/svg"
  xmlns:xlink="http://www.w3.org/1999/xlink">


<polyline points="0.0, 0.0 0.7988165680473372, 2.041526020261122 1.5976331360946745, 6.489176688034382 2.396449704142012, 4.542398357502417 3.195266272189349, 7.202496592374567 3.994082840236686, 4.529604719925594 4.792899408284024, 3.31739068975372 5.591715976331361, 2.5647509130200614 6.390532544378698, 7.965932213005122 7.189349112426036, 8.439106043194142 7.988165680473372, 9.693831793737202 8.78698224852071, 6.296716369221186 9.585798816568047, 4.251866070886997 10.384615384615385, 8.943101032933654 11.183431952662723, 4.225262334285865 11.982248520710058, 14.474703735476721 12.781065088757396, 19.53538512345528 13.579881656804734, 20.756451857857336 14.378698224852071, 23.389570967224028 15.177514792899409, 20.12219948064473 15.976331360946745, 16.086416052942685 16.775147928994084, 16.281264101224583 17.57396449704142, 15.15564727167408 18.37278106508876, 10.026252683984481 19.171597633136095, 11.840065523084961 19.970414201183434, 15.538570068288514 20.76923076923077, 15.951784843928865 21.56804733727811, 18.032417180880675 22.366863905325445, 18.875518527101924 23.16568047337278, 19.386719890790943 23.964497041420117, 19.88053049630144 24.763313609467456, 23.0013312070736 25.562130177514792, 25.89063576558554 26.36094674556213, 24.86406531063953 27.159763313609467, 32.67607431849279 27.958579881656807, 30.94680518812394 28.757396449704142, 34.05060947710275 29.55621301775148, 30.157184229903805 30.355029585798817, 32.094725069940864 31.153846153846157, 38.1971795161279 31.95266272189349, 30.5519934378421 32.751479289940825, 28.80892706365618 33.55029585798817, 34.308813291828486 34.349112426035504, 40.027571607368436 35.14792899408284, 37.06890849794036 35.94674556213018, 38.37245322450064 36.74556213017752, 27.09472846778935 37.54437869822485, 26.754721422136157 38.34319526627219, 23.777785711574154 39.142011834319526, 29.656895313267466 39.94082840236687, 35.69677080605552 40.7396449704142, 34.478809255088336 41.53846153846154, 30.32308036170235 42.337278106508876, 30.859206889063103 43.13609467455622, 30.250463320062316 43.93491124260355, 24.784224008608387 44.73372781065089, 25.784989823856513 45.532544378698226, 22.201229306758176 46.33136094674556, 17.980631696275132 47.1301775147929, 21.121962648842455 47.928994082840234, 22.06153192721091 48.72781065088758, 24.51884638053797 49.52662721893491, 30.10460080513614 50.32544378698225, 26.072142408756356 51.124260355029584, 23.65735402711768 51.92307692307693, 29.163860324220703 52.72189349112426, 28.54017240133156 53.5207100591716, 26.079539473391698 54.319526627218934, 30.056945645520145 55.11834319526627, 25.58993866740671 55.91715976331361, 31.004739623459027 56.71597633136094, 32.15168547448814 57.514792899408285, 36.67571021267895 58.31360946745562, 35.35150618640303 59.11242603550296, 36.80531241456703 59.91124260355029, 39.06849255568849 60.710059171597635, 38.270781720510335 61.50887573964497, 36.1239106890966 62.307692307692314, 36.173042091938854 63.10650887573964, 33.16569528648768 63.90532544378698, 37.528905212479266 64.70414201183432, 38.518479202884194 65.50295857988165, 36.85187667824416 66.30177514792899, 34.64767275111464 67.10059171597634, 34.465056196556866 67.89940828402366, 39.10857181965842 68.69822485207101, 37.27813561778831 69.49704142011834, 36.725776395844704 70.29585798816568, 42.50488987666172 71.09467455621302, 43.18545619527079 71.89349112426036, 39.18725792687929 72.6923076923077, 39.3185920879473 73.49112426035504, 39.38823251789885 74.28994082840237, 38.5757927576436 75.0887573964497, 39.826159709941955 75.88757396449704, 44.86757489299223 76.68639053254438, 45.36315275667271 77.48520710059172, 42.78942377847391 78.28402366863905, 50.0 79.0828402366864, 46.248794503528444 79.88165680473374, 43.8835765302249 80.68047337278107, 40.93513594932248 81.4792899408284, 39.683148799636946 82.27810650887574, 39.871628296760164 83.07692307692308, 36.475992042782565 83.87573964497041, 37.8826048798245 84.67455621301775, 34.86459540743774 85.4733727810651, 36.03477291690576 86.27218934911244, 35.52043031134756 87.07100591715975, 35.532583961463295 87.8698224852071, 35.70711469874604 88.66863905325444, 36.960969076351006 89.46745562130178, 36.84962576809653 90.26627218934911, 35.29562390579657 91.06508875739645, 30.90818123037078 91.8639053254438, 30.672676222647 92.66272189349112, 29.72420335318607 93.46153846153845, 28.69877326426019 94.2603550295858, 27.718617693381226 95.05917159763314, 28.332346144198954 95.85798816568047, 28.286623856128166 96.65680473372781, 30.722585721188732 97.45562130177515, 30.85020864911247 98.2544378698225, 32.09163905431563 99.05325443786982, 32.13622130233899 99.85207100591715, 32.177588269018614 100.6508875739645, 32.18817396357021 101.44970414201183, 31.349936043228375 102.24852071005917, 32.85651780412921 103.04733727810651, 34.35805189984655 103.84615384615385, 34.49449451370459 104.64497041420118, 35.6569769834318 105.44378698224853, 33.69252242266633 106.24260355029585, 33.03590697031443 107.0414201183432, 34.10950162490526 107.84023668639053, 31.24875008373636 108.63905325443787, 34.16969231775173 109.43786982248521, 34.83942654613417 110.23668639053254, 31.623317142696898 111.03550295857988, 32.329022952058594 111.83431952662723, 31.186038512860627 112.63313609467457, 30.60320493323088 113.43195266272188, 30.486125546853 114.23076923076923, 31.289785982854212 115.02958579881657, 31.369656356866756 115.82840236686391, 29.60286151594526 116.62721893491124, 31.164927049536917 117.42603550295858, 33.60125086383342 118.22485207100593, 32.558835569653624 119.02366863905324, 31.918808150436114 119.82248520710058, 29.41688807807675 120.62130177514793, 28.75816006198187 121.42011834319527, 31.86486678193138 122.2189349112426, 30.59413311185819 123.01775147928994, 38.73169332895901 123.81656804733728, 36.65474570273928 124.61538461538463, 41.20844802540892 125.41420118343194, 39.30836313772365 126.21301775147928, 38.58248398425999 127.01183431952663, 30.97113963424504 127.81065088757396, 26.04279515984052 128.60946745562129, 17.58302437332698 129.40828402366864, 9.184707521069207 130.20710059171597, 7.082726820083428 131.0059171597633, 7.478494261492101 131.80473372781066, 8.184089118116251 132.60355029585799, 10.372879653085644 133.40236686390534, 5.14370722551399 134.20118343195267, 3.788533777332322" fill="none" stroke="#ff3a33" stroke-width="1.25"/>

</svg>