<?xml version="1.0" standalone="no"?>
<!DOCTYPE svg PUBLIC "-//W3C//DTD SVG 1.1//EN" "http://www.w3.org/Graphics/SVG/1.1/DTD/svg11.dtd">

<svg width="135" height="50" viewBox="0 0 135 50" preserveAspectRatio="none" 
  xmlns="http://www.w3.org/2000/svg"
  xmlns:xlink="http://www.w3.org/1999/xlink">


<polyline points="0.0, 34.802775356283234 0.7988165680473372, 34.96005764044825 1.5976331360946745, 34.258744215841155 2.396449704142012, 33.086059706296915 3.195266272189349, 30.855455070084098 3.994082840236686, 32.58142269262624 4.792899408284024, 37.80608470647612 5.591715976331361, 39.59576773976119 6.390532544378698, 37.66714187097637 7.189349112426036, 41.273734171730425 7.988165680473372, 37.41611489870771 8.78698224852071, 36.323901390691795 9.585798816568047, 36.68541114665974 10.384615384615385, 37.23185130308151 11.183431952662723, 38.03263665227876 11.982248520710058, 39.95078819845618 12.781065088757396, 37.03176076902529 13.579881656804734, 36.2657182965536 14.378698224852071, 39.11227666442574 15.177514792899409, 32.448303460399316 15.976331360946745, 40.27712717445777 16.775147928994084, 45.48681815790259 17.57396449704142, 50.0 18.37278106508876, 47.4874876722946 19.171597633136095, 46.797758677403856 19.970414201183434, 41.951465307080895 20.76923076923077, 40.57122962525241 21.56804733727811, 38.69793046618978 22.366863905325445, 37.03309917745957 23.16568047337278, 38.667689081482216 23.964497041420117, 36.22385302186694 24.763313609467456, 37.94671558385217 25.562130177514792, 21.61150581272041 26.36094674556213, 26.593972454846227 27.159763313609467, 29.937333579024273 27.958579881656807, 29.291244286896568 28.757396449704142, 23.44309205181134 29.55621301775148, 22.440216512962312 30.355029585798817, 23.96883848213898 31.153846153846157, 41.00975132760214 31.95266272189349, 39.671292789103106 32.751479289940825, 43.42728366686115 33.55029585798817, 35.05784007473852 34.349112426035504, 38.51166234754658 35.14792899408284, 39.10087601652178 35.94674556213018, 38.280252858670245 36.74556213017752, 38.34042505953955 37.54437869822485, 40.19272673322683 38.34319526627219, 43.28378842503436 39.142011834319526, 40.762069374086536 39.94082840236687, 40.89375556130893 40.7396449704142, 34.66894181191186 41.53846153846154, 31.613223776970834 42.337278106508876, 27.491958053234388 43.13609467455622, 30.415272976421935 43.93491124260355, 37.99559060427467 44.73372781065089, 38.24107510181682 45.532544378698226, 34.95845660623605 46.33136094674556, 36.624190681362265 47.1301775147929, 33.52541933332776 47.928994082840234, 29.473847087337845 48.72781065088758, 30.44534185082287 49.52662721893491, 28.45338497045779 50.32544378698225, 27.302954753609583 51.124260355029584, 30.347560331056094 51.92307692307693, 30.45249256795588 52.72189349112426, 31.384131493126276 53.5207100591716, 35.86889223702233 54.319526627218934, 32.15468810607033 55.11834319526627, 31.32783077636432 55.91715976331361, 34.55798318379462 56.71597633136094, 32.60323682834508 57.514792899408285, 30.873777683141707 58.31360946745562, 31.949392081950005 59.11242603550296, 28.97487313756932 59.91124260355029, 31.785040386165996 60.710059171597635, 31.852729968265685 61.50887573964497, 34.80846659213553 62.307692307692314, 34.206589785768266 63.10650887573964, 35.33598982432479 63.90532544378698, 37.93842061081102 64.70414201183432, 40.207987440988546 65.50295857988165, 38.78211479222673 66.30177514792899, 39.552484775100666 67.10059171597634, 38.632760358594695 67.89940828402366, 41.85516879896007 68.69822485207101, 44.18251434882449 69.49704142011834, 41.40494834502484 70.29585798816568, 40.01624696772941 71.09467455621302, 39.452021442509015 71.89349112426036, 41.41847203678585 72.6923076923077, 40.416332421724235 73.49112426035504, 37.661613364023886 74.28994082840237, 40.122832896916755 75.0887573964497, 39.87303237378686 75.88757396449704, 37.33267657309253 76.68639053254438, 37.32469332745125 77.48520710059172, 36.957768263375065 78.28402366863905, 37.2207555692201 79.0828402366864, 39.597132935241795 79.88165680473374, 42.4545369415131 80.68047337278107, 40.97243417472568 81.4792899408284, 39.03769613514698 82.27810650887574, 45.468400379194684 83.07692307692308, 43.01889042657617 83.87573964497041, 40.53465330972333 84.67455621301775, 38.99052489786398 85.4733727810651, 38.765860796828136 86.27218934911244, 39.792448546805 87.07100591715975, 39.14585877159434 87.8698224852071, 38.9304107127921 88.66863905325444, 37.91088436654663 89.46745562130178, 37.24885018058636 90.26627218934911, 35.486301154252246 91.06508875739645, 35.99168072874089 91.8639053254438, 35.37570829153168 92.66272189349112, 36.420111243676445 93.46153846153845, 36.4307414870075 94.2603550295858, 34.98825955644793 95.05917159763314, 33.18121412634789 95.85798816568047, 34.51757233261532 96.65680473372781, 34.17693261812201 97.45562130177515, 34.396690876837006 98.2544378698225, 34.23148507823915 99.05325443786982, 34.93440829102975 99.85207100591715, 35.106067855495354 100.6508875739645, 35.69265962596874 101.44970414201183, 34.65068546467582 102.24852071005917, 34.21597925030263 103.04733727810651, 34.36635870880947 103.84615384615385, 34.475052790373475 104.64497041420118, 33.54794056867011 105.44378698224853, 32.50058196135697 106.24260355029585, 32.259020479425885 107.0414201183432, 34.98008570788056 107.84023668639053, 34.135855316757976 108.63905325443787, 34.72194338448465 109.43786982248521, 33.33094993539948 110.23668639053254, 32.925968484342775 111.03550295857988, 33.234859374236684 111.83431952662723, 30.310874629765078 112.63313609467457, 32.61164217423442 113.43195266272188, 32.422564521292145 114.23076923076923, 30.703300881019096 115.02958579881657, 29.979517856258347 115.82840236686391, 27.963574056564116 116.62721893491124, 27.82603446716064 117.42603550295858, 27.27312880990188 118.22485207100593, 28.285006604754635 119.02366863905324, 26.590591708953504 119.82248520710058, 22.7348010272341 120.62130177514793, 24.009858377737665 121.42011834319527, 25.684177465142028 122.2189349112426, 24.296820335217284 123.01775147928994, 24.14250656107108 123.81656804733728, 24.53153587553255 124.61538461538463, 24.549298637242263 125.41420118343194, 30.129479517003983 126.21301775147928, 29.404115207401578 127.01183431952663, 37.477128318817044 127.81065088757396, 31.129595724853587 128.60946745562129, 29.226451195143422 129.40828402366864, 28.302034222493482 130.20710059171597, 30.013129836942188 131.0059171597633, 24.61957176531775 131.80473372781066, 20.561784430356685 132.60355029585799, 0.0 133.40236686390534, 12.401759305272074 134.20118343195267, 8.162816094845676" fill="none" stroke="#32ca5b" stroke-width="1.25"/>

</svg>