<?xml version="1.0" standalone="no"?>
<!DOCTYPE svg PUBLIC "-//W3C//DTD SVG 1.1//EN" "http://www.w3.org/Graphics/SVG/1.1/DTD/svg11.dtd">

<svg width="135" height="50" viewBox="0 0 135 50" preserveAspectRatio="none" 
  xmlns="http://www.w3.org/2000/svg"
  xmlns:xlink="http://www.w3.org/1999/xlink">


<polyline points="0.0, 27.95837926912196 0.7988165680473372, 20.784046342768193 1.5976331360946745, 12.825608376345063 2.396449704142012, 29.65522732411845 3.195266272189349, 21.865027874498875 3.994082840236686, 24.22955881371934 4.792899408284024, 21.922636904726307 5.591715976331361, 23.28674871902311 6.390532544378698, 19.534355814657893 7.189349112426036, 14.81868581279382 7.988165680473372, 19.442044179594014 8.78698224852071, 18.324781822912144 9.585798816568047, 16.350907740376734 10.384615384615385, 9.019933244833455 11.183431952662723, 16.015183817493693 11.982248520710058, 20.50823222376245 12.781065088757396, 41.38373491262769 13.579881656804734, 19.343457411137013 14.378698224852071, 32.75740883461877 15.177514792899409, 22.3063948925984 15.976331360946745, 36.399715808981 16.775147928994084, 36.8206454240978 17.57396449704142, 31.922000767852133 18.37278106508876, 33.516323854448935 19.171597633136095, 30.53486519430802 19.970414201183434, 36.0524854498602 20.76923076923077, 42.955501473932586 21.56804733727811, 44.24178693859028 22.366863905325445, 44.576482078499794 23.16568047337278, 42.36218924730702 23.964497041420117, 42.914520029285214 24.763313609467456, 43.33177310678565 25.562130177514792, 42.57464992423474 26.36094674556213, 50.0 27.159763313609467, 36.619827906467734 27.958579881656807, 33.857020486219305 28.757396449704142, 35.5117413694054 29.55621301775148, 20.055184912626352 30.355029585798817, 39.70191716949893 31.153846153846157, 46.40717539166147 31.95266272189349, 8.801370369990247 32.751479289940825, 38.43397433864925 33.55029585798817, 33.42684382850034 34.349112426035504, 29.14255401352479 35.14792899408284, 35.958315782642075 35.94674556213018, 31.08582687138121 36.74556213017752, 23.955833075814184 37.54437869822485, 20.150394459374567 38.34319526627219, 43.742526786930426 39.142011834319526, 38.94764181673286 39.94082840236687, 34.658329198409064 40.7396449704142, 35.13598609775809 41.53846153846154, 38.48211146783106 42.337278106508876, 34.88445985970835 43.13609467455622, 24.793028258225792 43.93491124260355, 25.57304191318291 44.73372781065089, 21.50196502065693 45.532544378698226, 23.454567155617305 46.33136094674556, 37.27774928869 47.1301775147929, 30.83690317822814 47.928994082840234, 29.072387485579267 48.72781065088758, 37.68467574684864 49.52662721893491, 12.826712639162302 50.32544378698225, 25.308060532734704 51.124260355029584, 25.133812306849578 51.92307692307693, 26.433103978156225 52.72189349112426, 23.528802948914514 53.5207100591716, 34.088321058364954 54.319526627218934, 30.05698157033288 55.11834319526627, 36.58399209513309 55.91715976331361, 25.235742739488266 56.71597633136094, 33.112816694478596 57.514792899408285, 19.48536425713007 58.31360946745562, 23.789415525019518 59.11242603550296, 42.73512958166344 59.91124260355029, 19.206041979062306 60.710059171597635, 27.53904155267196 61.50887573964497, 23.430754509186677 62.307692307692314, 17.674048376024324 63.10650887573964, 27.535300906312717 63.90532544378698, 21.860683903842304 64.70414201183432, 24.043980609140718 65.50295857988165, 21.29774530038707 66.30177514792899, 21.840347000117927 67.10059171597634, 20.4715489262476 67.89940828402366, 22.339075460289177 68.69822485207101, 4.431812636304003 69.49704142011834, 17.13594908985729 70.29585798816568, 8.661285573593416 71.09467455621302, 12.644555516944653 71.89349112426036, 23.796462833471196 72.6923076923077, 23.710750002025264 73.49112426035504, 18.409879899581256 74.28994082840237, 24.026329553932484 75.0887573964497, 25.904023311633285 75.88757396449704, 26.128213887973995 76.68639053254438, 21.252571055915332 77.48520710059172, 28.807912003686237 78.28402366863905, 19.756661838049926 79.0828402366864, 18.338344650663156 79.88165680473374, 20.890767961224686 80.68047337278107, 17.336916220244028 81.4792899408284, 14.142838325799593 82.27810650887574, 15.933684134713086 83.07692307692308, 18.58352714136237 83.87573964497041, 17.81882681071592 84.67455621301775, 21.688548661077025 85.4733727810651, 21.857334589912526 86.27218934911244, 23.855169471259785 87.07100591715975, 22.476590258212266 87.8698224852071, 23.56088567547774 88.66863905325444, 18.501086769134893 89.46745562130178, 23.92588566423186 90.26627218934911, 0.0 91.06508875739645, 26.996933069388014 91.8639053254438, 17.31849120749283 92.66272189349112, 22.0622656571901 93.46153846153845, 19.213525996994637 94.2603550295858, 27.942024654961322 95.05917159763314, 25.849444801408893 95.85798816568047, 24.141542534009652 96.65680473372781, 19.34113261193199 97.45562130177515, 22.996762539711312 98.2544378698225, 11.087718935316666 99.05325443786982, 14.385505480082614 99.85207100591715, 10.352755088788596 100.6508875739645, 7.0793652491355745 101.44970414201183, 8.78088036966211 102.24852071005917, 23.165091860075236 103.04733727810651, 24.042423741081294 103.84615384615385, 24.09255347981595 104.64497041420118, 22.72712437260928 105.44378698224853, 19.428795408976747 106.24260355029585, 20.183413757565397 107.0414201183432, 13.56736251263388 107.84023668639053, 17.43554314343111 108.63905325443787, 19.380682352298415 109.43786982248521, 18.360946175215027 110.23668639053254, 19.319642855521625 111.03550295857988, 22.06169179200399 111.83431952662723, 21.123169905223975 112.63313609467457, 18.57103177957064 113.43195266272188, 29.914096131130524 114.23076923076923, 21.68818097059406 115.02958579881657, 21.841814749751677 115.82840236686391, 28.65730795262428 116.62721893491124, 26.453778503304537 117.42603550295858, 15.991353088659904 118.22485207100593, 16.60164171357966 119.02366863905324, 22.14634697917008 119.82248520710058, 19.98080868020328 120.62130177514793, 31.41955250528111 121.42011834319527, 22.72600089250799 122.2189349112426, 28.565403444898635 123.01775147928994, 17.003664255573742 123.81656804733728, 20.022920631395408 124.61538461538463, 18.259829317927164 125.41420118343194, 29.496921704869827 126.21301775147928, 16.974425488733896 127.01183431952663, 5.406774992644777 127.81065088757396, 20.057813606747256 128.60946745562129, 16.215802075410014 129.40828402366864, 24.665092249177835 130.20710059171597, 16.106604447058427 131.0059171597633, 26.754224156138097 131.80473372781066, 17.586420436740223 132.60355029585799, 18.656839928254186 133.40236686390534, 26.934222962342393 134.20118343195267, 28.18516077912515" fill="none" stroke="#ff3a33" stroke-width="1.25"/>

</svg>