<?xml version="1.0" standalone="no"?>
<!DOCTYPE svg PUBLIC "-//W3C//DTD SVG 1.1//EN" "http://www.w3.org/Graphics/SVG/1.1/DTD/svg11.dtd">

<svg width="135" height="50" viewBox="0 0 135 50" preserveAspectRatio="none" 
  xmlns="http://www.w3.org/2000/svg"
  xmlns:xlink="http://www.w3.org/1999/xlink">


<polyline points="0.0, 42.799362482613574 0.7988165680473372, 39.705710153124144 1.5976331360946745, 39.96840202319811 2.396449704142012, 42.40045146961135 3.195266272189349, 40.2388503116311 3.994082840236686, 38.47317580965969 4.792899408284024, 37.018271541597045 5.591715976331361, 36.31969541133408 6.390532544378698, 39.32924372212822 7.189349112426036, 42.38038730825925 7.988165680473372, 38.372738746216385 8.78698224852071, 36.27459499797405 9.585798816568047, 37.21679476311538 10.384615384615385, 34.29737976121377 11.183431952662723, 40.867144145410144 11.982248520710058, 47.146843123245816 12.781065088757396, 44.13561448621777 13.579881656804734, 40.857246566811 14.378698224852071, 40.519772051681905 15.177514792899409, 33.87909740718469 15.976331360946745, 30.241969998643338 16.775147928994084, 26.883107921035034 17.57396449704142, 25.81593767642209 18.37278106508876, 21.37159140764356 19.171597633136095, 21.650571894609868 19.970414201183434, 20.510271237460653 20.76923076923077, 21.812347751688158 21.56804733727811, 18.23645210223223 22.366863905325445, 21.460790668424487 23.16568047337278, 22.116535834768765 23.964497041420117, 22.63491095747001 24.763313609467456, 24.92406217911325 25.562130177514792, 0.0 26.36094674556213, 33.75233132938578 27.159763313609467, 37.76369443980984 27.958579881656807, 38.66881084468696 28.757396449704142, 39.10288939799254 29.55621301775148, 40.96798258938349 30.355029585798817, 48.60435276081477 31.153846153846157, 46.5887698623558 31.95266272189349, 41.51417379049285 32.751479289940825, 47.121308492278935 33.55029585798817, 50.0 34.349112426035504, 49.29661626738579 35.14792899408284, 48.338012735195576 35.94674556213018, 38.66776920968951 36.74556213017752, 38.71474214560902 37.54437869822485, 38.85091754869431 38.34319526627219, 38.7895594340697 39.142011834319526, 44.870420523425246 39.94082840236687, 46.28907392420732 40.7396449704142, 42.908883856009474 41.53846153846154, 42.752266111147705 42.337278106508876, 41.13166794117567 43.13609467455622, 36.18005681474477 43.93491124260355, 33.87861109245742 44.73372781065089, 32.430687841898894 45.532544378698226, 31.320471487768636 46.33136094674556, 33.883400286677336 47.1301775147929, 34.794546236547255 47.928994082840234, 35.643449978537056 48.72781065088758, 40.457987869139025 49.52662721893491, 38.15635317000424 50.32544378698225, 37.71873665943545 51.124260355029584, 41.54880659959368 51.92307692307693, 39.87148975387274 52.72189349112426, 38.049225016465435 53.5207100591716, 37.53370430327268 54.319526627218934, 34.52043187708595 55.11834319526627, 38.12251180435714 55.91715976331361, 39.35252644064305 56.71597633136094, 41.01866184053106 57.514792899408285, 40.170531095809395 58.31360946745562, 42.530315700194215 59.11242603550296, 46.283556816276295 59.91124260355029, 46.507991374088256 60.710059171597635, 46.99362255105373 61.50887573964497, 45.940388730010454 62.307692307692314, 42.169540933942066 63.10650887573964, 45.34552470201579 63.90532544378698, 47.35283870950464 64.70414201183432, 44.69790655615598 65.50295857988165, 40.34680451551546 66.30177514792899, 40.84322694979811 67.10059171597634, 42.85077977470449 67.89940828402366, 40.80645327593368 68.69822485207101, 38.603957717090424 69.49704142011834, 38.079495780740615 70.29585798816568, 39.74379977046466 71.09467455621302, 32.37021575470013 71.89349112426036, 34.397613244948246 72.6923076923077, 31.390396430651492 73.49112426035504, 31.164718180433347 74.28994082840237, 32.89141643041289 75.0887573964497, 37.25099720144785 75.88757396449704, 35.01506448795178 76.68639053254438, 35.06341604800322 77.48520710059172, 40.477587107312125 78.28402366863905, 36.683474311194104 79.0828402366864, 34.24204389452613 79.88165680473374, 32.299019053410994 80.68047337278107, 28.438118380595444 81.4792899408284, 30.25031827899044 82.27810650887574, 26.655922640296147 83.07692307692308, 28.03975676680927 83.87573964497041, 25.784731304565746 84.67455621301775, 22.49734575164784 85.4733727810651, 24.831814783049946 86.27218934911244, 26.897231438283892 87.07100591715975, 24.97243286143581 87.8698224852071, 27.381055632558414 88.66863905325444, 27.316674163219858 89.46745562130178, 24.796095255465026 90.26627218934911, 25.05779538903611 91.06508875739645, 25.770942293561856 91.8639053254438, 23.577859583587433 92.66272189349112, 24.788010971379553 93.46153846153845, 23.463669844761416 94.2603550295858, 24.68499313136475 95.05917159763314, 22.79271758990714 95.85798816568047, 22.997334865349956 96.65680473372781, 21.95706714890256 97.45562130177515, 24.937737785996113 98.2544378698225, 26.54863459809717 99.05325443786982, 28.097973552254807 99.85207100591715, 27.390435602210957 100.6508875739645, 26.186257837400888 101.44970414201183, 27.329867279516584 102.24852071005917, 27.989934950552435 103.04733727810651, 27.277825408772028 103.84615384615385, 27.863066557252935 104.64497041420118, 25.539814533638328 105.44378698224853, 24.98918189673094 106.24260355029585, 25.913908583758406 107.0414201183432, 25.270578247761392 107.84023668639053, 27.581394710004787 108.63905325443787, 29.2354002869994 109.43786982248521, 25.769985136074354 110.23668639053254, 25.907859793491216 111.03550295857988, 25.65752571743784 111.83431952662723, 27.17427770830344 112.63313609467457, 26.56568993782498 113.43195266272188, 27.246064471207486 114.23076923076923, 26.3982475832199 115.02958579881657, 24.374395337994322 115.82840236686391, 28.346714725642425 116.62721893491124, 28.613748025441904 117.42603550295858, 27.688586832745727 118.22485207100593, 27.17899758153517 119.02366863905324, 26.04808968180731 119.82248520710058, 22.948223934957287 120.62130177514793, 27.580676860883095 121.42011834319527, 27.23310143503996 122.2189349112426, 34.002182682123156 123.01775147928994, 28.590989057029027 123.81656804733728, 28.228417572260376 124.61538461538463, 26.30033251662285 125.41420118343194, 25.3678919887842 126.21301775147928, 17.049551656696835 127.01183431952663, 19.286329506935285 127.81065088757396, 18.64384188789944 128.60946745562129, 20.28967638754646 129.40828402366864, 21.843687587170095 130.20710059171597, 21.036485332705443 131.0059171597633, 21.408528443304025 131.80473372781066, 21.61360623225531 132.60355029585799, 15.823559739357057 133.40236686390534, 17.06905332293707 134.20118343195267, 17.260667343481998" fill="none" stroke="#32ca5b" stroke-width="1.25"/>

</svg>