<?xml version="1.0" standalone="no"?>
<!DOCTYPE svg PUBLIC "-//W3C//DTD SVG 1.1//EN" "http://www.w3.org/Graphics/SVG/1.1/DTD/svg11.dtd">

<svg width="135" height="50" viewBox="0 0 135 50" preserveAspectRatio="none" 
  xmlns="http://www.w3.org/2000/svg"
  xmlns:xlink="http://www.w3.org/1999/xlink">


<polyline points="0.0, 44.56794298689038 0.7988165680473372, 43.77318440488188 1.5976331360946745, 38.77437500177776 2.396449704142012, 43.569046237553664 3.195266272189349, 43.108427049677466 3.994082840236686, 43.20995796766663 4.792899408284024, 42.97046100277837 5.591715976331361, 43.03437792784024 6.390532544378698, 44.73770553002544 7.189349112426036, 37.51485113535938 7.988165680473372, 38.30107715004379 8.78698224852071, 38.499660116750846 9.585798816568047, 40.44960764168405 10.384615384615385, 39.833197991433856 11.183431952662723, 39.75120204476405 11.982248520710058, 39.6144946066088 12.781065088757396, 40.11276957485481 13.579881656804734, 40.09961807447782 14.378698224852071, 40.60601678075942 15.177514792899409, 40.668575824238026 15.976331360946745, 38.05610443604975 16.775147928994084, 35.17114427936555 17.57396449704142, 37.110026237495255 18.37278106508876, 31.46338838212844 19.171597633136095, 35.84000355959474 19.970414201183434, 36.76301633280808 20.76923076923077, 38.97186010967248 21.56804733727811, 31.237512874759183 22.366863905325445, 35.05978963575784 23.16568047337278, 34.512987258377095 23.964497041420117, 33.49810286815194 24.763313609467456, 32.823176145804744 25.562130177514792, 31.73006432540923 26.36094674556213, 33.087970796743846 27.159763313609467, 32.17031189614718 27.958579881656807, 33.60019272678779 28.757396449704142, 30.08682017891892 29.55621301775148, 35.0518409144678 30.355029585798817, 46.03946651025539 31.153846153846157, 38.19990756594453 31.95266272189349, 22.968532279825865 32.751479289940825, 45.4314632832348 33.55029585798817, 37.33318844036747 34.349112426035504, 44.898910914525416 35.14792899408284, 47.18469123290048 35.94674556213018, 24.25187709490762 36.74556213017752, 17.610558826356932 37.54437869822485, 2.4957027634510967 38.34319526627219, 17.601493016750887 39.142011834319526, 31.07790450080839 39.94082840236687, 22.912022626414206 40.7396449704142, 28.292597715691475 41.53846153846154, 21.186133832370157 42.337278106508876, 20.08507577702208 43.13609467455622, 8.231739978564054 43.93491124260355, 8.574860290488456 44.73372781065089, 2.9646762421146957 45.532544378698226, 0.0 46.33136094674556, 13.728730876051607 47.1301775147929, 16.36254129778916 47.928994082840234, 20.150584096791768 48.72781065088758, 34.11348211954934 49.52662721893491, 24.994428986261184 50.32544378698225, 17.143434583965046 51.124260355029584, 22.868909019320107 51.92307692307693, 11.869437103900426 52.72189349112426, 12.839769313333651 53.5207100591716, 20.749164456989913 54.319526627218934, 24.77956946283841 55.11834319526627, 30.16562835276912 55.91715976331361, 29.098416024890973 56.71597633136094, 30.845868033163093 57.514792899408285, 27.581401193640897 58.31360946745562, 32.262974069473046 59.11242603550296, 50.0 59.91124260355029, 31.12499504545734 60.710059171597635, 33.46299887548483 61.50887573964497, 37.286731498904466 62.307692307692314, 29.303175267708582 63.10650887573964, 47.46296172465314 63.90532544378698, 47.03008042512857 64.70414201183432, 45.74463422614045 65.50295857988165, 34.90192888543932 66.30177514792899, 32.979693944535484 67.10059171597634, 43.231747566939696 67.89940828402366, 41.15163071604689 68.69822485207101, 37.533858616664226 69.49704142011834, 47.88953850849 70.29585798816568, 42.131950875121596 71.09467455621302, 29.953643136233893 71.89349112426036, 34.373353258212546 72.6923076923077, 35.626764502240746 73.49112426035504, 34.40939053166291 74.28994082840237, 36.10687146418742 75.0887573964497, 36.740552379837844 75.88757396449704, 39.64051365143544 76.68639053254438, 32.33597299252066 77.48520710059172, 37.52771891800318 78.28402366863905, 30.50444939245849 79.0828402366864, 32.46906505835046 79.88165680473374, 32.54770207936167 80.68047337278107, 30.594800624297076 81.4792899408284, 33.0509658945018 82.27810650887574, 31.611543207253305 83.07692307692308, 32.20941325477927 83.87573964497041, 27.47232332825529 84.67455621301775, 26.418724703497283 85.4733727810651, 23.623136865472784 86.27218934911244, 25.87892808045531 87.07100591715975, 23.837181416198053 87.8698224852071, 24.693716321624766 88.66863905325444, 24.91481945964429 89.46745562130178, 19.111672376659858 90.26627218934911, 37.26273291410634 91.06508875739645, 34.24748213019873 91.8639053254438, 34.030574426205675 92.66272189349112, 33.16066538357818 93.46153846153845, 29.687515873879995 94.2603550295858, 32.83295683847719 95.05917159763314, 35.10397344082478 95.85798816568047, 36.31123665621674 96.65680473372781, 29.53235538378219 97.45562130177515, 44.46639593192163 98.2544378698225, 32.35238525598436 99.05325443786982, 32.770563672258255 99.85207100591715, 29.07561192202704 100.6508875739645, 33.09651198622522 101.44970414201183, 32.5639590210597 102.24852071005917, 36.52743860301933 103.04733727810651, 35.273329934404494 103.84615384615385, 36.05603219327449 104.64497041420118, 36.46978610873951 105.44378698224853, 32.84645924087865 106.24260355029585, 33.42800690863686 107.0414201183432, 34.03814982206827 107.84023668639053, 35.726840596185326 108.63905325443787, 35.66130014699292 109.43786982248521, 32.659795060782535 110.23668639053254, 32.91550942859756 111.03550295857988, 32.654614483951136 111.83431952662723, 36.82908645566929 112.63313609467457, 30.299673558003835 113.43195266272188, 35.19608393742226 114.23076923076923, 35.208556920964725 115.02958579881657, 33.60258331531735 115.82840236686391, 39.157284743236474 116.62721893491124, 40.303691526134116 117.42603550295858, 30.820091537727407 118.22485207100593, 36.139436979016594 119.02366863905324, 36.5821905559911 119.82248520710058, 31.939080684634614 120.62130177514793, 39.333884150892935 121.42011834319527, 33.91744229475734 122.2189349112426, 37.709976439212106 123.01775147928994, 37.73167448285773 123.81656804733728, 34.571781182495464 124.61538461538463, 33.95252029724212 125.41420118343194, 36.70454440999011 126.21301775147928, 32.224325842605396 127.01183431952663, 27.167067086964348 127.81065088757396, 21.2999265428518 128.60946745562129, 12.551920008303286 129.40828402366864, 25.854750888420263 130.20710059171597, 23.60020563641366 131.0059171597633, 19.268858691550356 131.80473372781066, 10.766902715692064 132.60355029585799, 25.777745273038622 133.40236686390534, 25.320510930563668 134.20118343195267, 25.407584906879567" fill="none" stroke="#32ca5b" stroke-width="1.25"/>

</svg>