<?xml version="1.0" standalone="no"?>
<!DOCTYPE svg PUBLIC "-//W3C//DTD SVG 1.1//EN" "http://www.w3.org/Graphics/SVG/1.1/DTD/svg11.dtd">

<svg width="135" height="50" viewBox="0 0 135 50" preserveAspectRatio="none" 
  xmlns="http://www.w3.org/2000/svg"
  xmlns:xlink="http://www.w3.org/1999/xlink">


<polyline points="0.0, 36.78581459232623 0.7988165680473372, 37.22796108139824 1.5976331360946745, 37.57359153774851 2.396449704142012, 38.15966523383047 3.195266272189349, 35.19831160977206 3.994082840236686, 34.34890724786204 4.792899408284024, 33.795289046556285 5.591715976331361, 35.064003191857424 6.390532544378698, 35.64041850424706 7.189349112426036, 35.691529530821306 7.988165680473372, 31.853918197765573 8.78698224852071, 29.497760181986354 9.585798816568047, 30.496586974379447 10.384615384615385, 23.22319270130651 11.183431952662723, 32.01534383282135 11.982248520710058, 36.91173988207229 12.781065088757396, 38.5060948879533 13.579881656804734, 41.50764842794417 14.378698224852071, 38.98022556932775 15.177514792899409, 33.8408145947563 15.976331360946745, 31.2708904790843 16.775147928994084, 31.874769168657917 17.57396449704142, 30.02034153266928 18.37278106508876, 29.31784664433661 19.171597633136095, 31.25377547560571 19.970414201183434, 31.72477571807723 20.76923076923077, 31.790730601650967 21.56804733727811, 32.87512918799529 22.366863905325445, 33.40525992621252 23.16568047337278, 34.87014043434764 23.964497041420117, 36.26452100526546 24.763313609467456, 37.760264274849156 25.562130177514792, 36.65978529302673 26.36094674556213, 43.62444054465534 27.159763313609467, 40.3689508916596 27.958579881656807, 45.5946983610866 28.757396449704142, 42.06921526125285 29.55621301775148, 43.226350898637826 30.355029585798817, 46.534250054558065 31.153846153846157, 44.19985349080983 31.95266272189349, 41.27607223853031 32.751479289940825, 45.77061509398815 33.55029585798817, 47.139919633819545 34.349112426035504, 45.18271373313031 35.14792899408284, 45.89387404806358 35.94674556213018, 40.41849811211745 36.74556213017752, 40.79040740307137 37.54437869822485, 34.5425314802758 38.34319526627219, 38.32094781337294 39.142011834319526, 42.55440489909575 39.94082840236687, 39.999162378041916 40.7396449704142, 37.83547622576984 41.53846153846154, 38.81787729337541 42.337278106508876, 38.66223412659127 43.13609467455622, 35.75573972293027 43.93491124260355, 35.23805489829911 44.73372781065089, 34.337859265720816 45.532544378698226, 33.93385292574467 46.33136094674556, 37.42466300229289 47.1301775147929, 37.53324915308968 47.928994082840234, 38.696894284368305 48.72781065088758, 43.62276068484737 49.52662721893491, 41.126537973054184 50.32544378698225, 37.95728099343014 51.124260355029584, 40.10882835911612 51.92307692307693, 36.5692883545567 52.72189349112426, 36.67456019940048 53.5207100591716, 39.30207699637948 54.319526627218934, 33.34884513841633 55.11834319526627, 36.55442037980331 55.91715976331361, 39.166191710206355 56.71597633136094, 41.825709285434506 57.514792899408285, 39.917405339537524 58.31360946745562, 41.04214086004341 59.11242603550296, 43.89824368679702 59.91124260355029, 44.33270711075982 60.710059171597635, 43.00437948598462 61.50887573964497, 43.34314546128131 62.307692307692314, 41.63554441419986 63.10650887573964, 45.76425940767545 63.90532544378698, 46.454432612993536 64.70414201183432, 45.756124356890204 65.50295857988165, 43.1189836570502 66.30177514792899, 42.711416995604665 67.10059171597634, 45.39119705340473 67.89940828402366, 44.92118845072495 68.69822485207101, 44.95793735332526 69.49704142011834, 46.48990108304016 70.29585798816568, 44.68069077408386 71.09467455621302, 43.93994658645421 71.89349112426036, 44.545062446964614 72.6923076923077, 44.18767686807269 73.49112426035504, 44.40192454949379 74.28994082840237, 45.37940380382624 75.0887573964497, 47.627237240347995 75.88757396449704, 47.77300000618371 76.68639053254438, 46.86721705794023 77.48520710059172, 50.0 78.28402366863905, 48.02124022483671 79.0828402366864, 47.033274527423465 79.88165680473374, 45.87252061116753 80.68047337278107, 44.50077003882543 81.4792899408284, 45.626019785617565 82.27810650887574, 44.561400296965196 83.07692307692308, 45.65738533802079 83.87573964497041, 44.22340175071559 84.67455621301775, 44.27334691513578 85.4733727810651, 43.63241580963612 86.27218934911244, 44.223721496624016 87.07100591715975, 43.564805162420264 87.8698224852071, 43.85507193461871 88.66863905325444, 36.80911773267203 89.46745562130178, 42.91421642118024 90.26627218934911, 38.36992613470598 91.06508875739645, 39.35432476676367 91.8639053254438, 38.17637148215023 92.66272189349112, 38.70680320713592 93.46153846153845, 38.26405184599084 94.2603550295858, 37.92070214065248 95.05917159763314, 38.35995919829901 95.85798816568047, 39.4094930302427 96.65680473372781, 37.02476767209559 97.45562130177515, 37.936249022061226 98.2544378698225, 37.83102826533549 99.05325443786982, 37.84356471691013 99.85207100591715, 36.74975571419421 100.6508875739645, 39.41844116861207 101.44970414201183, 35.8675342464228 102.24852071005917, 37.54549678217188 103.04733727810651, 37.029653894512464 103.84615384615385, 38.27269404415865 104.64497041420118, 37.19911085846097 105.44378698224853, 37.09095355444132 106.24260355029585, 37.208568159084635 107.0414201183432, 35.89209138342474 107.84023668639053, 38.932645879543834 108.63905325443787, 40.511114682764166 109.43786982248521, 38.07641986521562 110.23668639053254, 37.934379743700184 111.03550295857988, 36.44315262164873 111.83431952662723, 36.49165520424449 112.63313609467457, 36.187420826723745 113.43195266272188, 36.39312892249193 114.23076923076923, 35.964051241689184 115.02958579881657, 36.49343517802979 115.82840236686391, 38.95008387388278 116.62721893491124, 39.74590042958572 117.42603550295858, 38.42204966774285 118.22485207100593, 38.81916963313418 119.02366863905324, 38.04723748463719 119.82248520710058, 38.64824899839824 120.62130177514793, 41.31737423886774 121.42011834319527, 41.4035439133329 122.2189349112426, 45.33441649814699 123.01775147928994, 43.10938013756142 123.81656804733728, 44.08569727942668 124.61538461538463, 42.59433128514057 125.41420118343194, 41.97215873020236 126.21301775147928, 37.040617267376966 127.01183431952663, 23.82532451344716 127.81065088757396, 17.46625434773989 128.60946745562129, 16.19945142829398 129.40828402366864, 13.476961710773313 130.20710059171597, 3.2409452448275013 131.0059171597633, 2.0748326348085127 131.80473372781066, 0.6321001697999704 132.60355029585799, 0.0 133.40236686390534, 1.9056701157564704 134.20118343195267, 0.7644942017738378" fill="none" stroke="#32ca5b" stroke-width="1.25"/>

</svg>