<?xml version="1.0" standalone="no"?>
<!DOCTYPE svg PUBLIC "-//W3C//DTD SVG 1.1//EN" "http://www.w3.org/Graphics/SVG/1.1/DTD/svg11.dtd">

<svg width="135" height="50" viewBox="0 0 135 50" preserveAspectRatio="none" 
  xmlns="http://www.w3.org/2000/svg"
  xmlns:xlink="http://www.w3.org/1999/xlink">


<polyline points="0.0, 17.165957126805544 0.7988165680473372, 19.46148621431117 1.5976331360946745, 21.68430524461692 2.396449704142012, 20.22656713825627 3.195266272189349, 25.79887650088984 3.994082840236686, 23.06269831711586 4.792899408284024, 18.26505906151755 5.591715976331361, 19.577541792580146 6.390532544378698, 21.462816285067614 7.189349112426036, 24.687906183971126 7.988165680473372, 28.134463859662244 8.78698224852071, 19.579747536577973 9.585798816568047, 16.014427424029815 10.384615384615385, 22.435593023344367 11.183431952662723, 15.840255174371798 11.982248520710058, 27.177694854836954 12.781065088757396, 38.26875780584598 13.579881656804734, 41.273878492255214 14.378698224852071, 41.675638897826694 15.177514792899409, 38.05941605872056 15.976331360946745, 35.61317046735715 16.775147928994084, 29.039656032557943 17.57396449704142, 26.349461940507158 18.37278106508876, 24.73208410438074 19.171597633136095, 24.914909721887227 19.970414201183434, 24.652207929742538 20.76923076923077, 25.235491661827925 21.56804733727811, 27.595241358176693 22.366863905325445, 26.17417277414797 23.16568047337278, 27.87595735831319 23.964497041420117, 29.52335684043729 24.763313609467456, 33.56072100717193 25.562130177514792, 39.387318341214126 26.36094674556213, 35.386045908745686 27.159763313609467, 44.92400228209116 27.958579881656807, 42.027552726310866 28.757396449704142, 45.18647167378526 29.55621301775148, 41.02216144618862 30.355029585798817, 44.6876735794759 31.153846153846157, 50.0 31.95266272189349, 47.569638237450995 32.751479289940825, 43.76266603819429 33.55029585798817, 48.56611165969672 34.349112426035504, 49.62900233978054 35.14792899408284, 45.610629398019036 35.94674556213018, 47.10838087086026 36.74556213017752, 39.48854159719253 37.54437869822485, 34.196631137965845 38.34319526627219, 32.86197471102915 39.142011834319526, 33.23210834646441 39.94082840236687, 41.449762128913534 40.7396449704142, 39.87699997823937 41.53846153846154, 36.97325271451618 42.337278106508876, 36.68620448276929 43.13609467455622, 35.672322523723096 43.93491124260355, 27.643606429503333 44.73372781065089, 26.789410279304366 45.532544378698226, 19.602822946274546 46.33136094674556, 19.32468548910885 47.1301775147929, 19.714674298620984 47.928994082840234, 21.621347827860557 48.72781065088758, 21.867068481394053 49.52662721893491, 26.6488716320262 50.32544378698225, 22.597132856145738 51.124260355029584, 23.603808035558853 51.92307692307693, 27.675894372095406 52.72189349112426, 24.13724409562802 53.5207100591716, 23.281597961401587 54.319526627218934, 26.750276133284352 55.11834319526627, 21.886327495325077 55.91715976331361, 28.46110566934002 56.71597633136094, 25.546449147256915 57.514792899408285, 31.60333341551086 58.31360946745562, 30.58897078111182 59.11242603550296, 30.84504595283923 59.91124260355029, 34.46644171943765 60.710059171597635, 36.64087138219237 61.50887573964497, 35.35881284692994 62.307692307692314, 35.748551797716345 63.10650887573964, 32.55894412358869 63.90532544378698, 38.55528193904027 64.70414201183432, 43.021865979876175 65.50295857988165, 41.82735784023374 66.30177514792899, 40.01222308762752 67.10059171597634, 39.63443574560116 67.89940828402366, 43.38817658768475 68.69822485207101, 41.02647986185125 69.49704142011834, 34.00865065563727 70.29585798816568, 33.440357955156955 71.09467455621302, 35.917947033199766 71.89349112426036, 32.52085592948001 72.6923076923077, 32.206567336756095 73.49112426035504, 30.431801564191286 74.28994082840237, 29.085915971291897 75.0887573964497, 30.61983804055788 75.88757396449704, 36.233898840142025 76.68639053254438, 36.600366961897485 77.48520710059172, 35.02393716099535 78.28402366863905, 44.481425838554564 79.0828402366864, 38.64906599673032 79.88165680473374, 35.63409154491883 80.68047337278107, 31.61868933887881 81.4792899408284, 30.644077799755205 82.27810650887574, 30.11290379670563 83.07692307692308, 23.144580287542542 83.87573964497041, 24.84199046451441 84.67455621301775, 22.846360062379073 85.4733727810651, 22.09983776161607 86.27218934911244, 18.82766466217538 87.07100591715975, 21.077044822871745 87.8698224852071, 21.321679341426655 88.66863905325444, 23.600362632214306 89.46745562130178, 25.440393813725425 90.26627218934911, 21.168113422856276 91.06508875739645, 19.06289714473896 91.8639053254438, 22.47654997602207 92.66272189349112, 21.621423412583493 93.46153846153845, 20.37366552992637 94.2603550295858, 20.5342219859314 95.05917159763314, 21.70462171330894 95.85798816568047, 20.492861617888117 96.65680473372781, 22.402085128074784 97.45562130177515, 20.704218036818865 98.2544378698225, 22.882578237340102 99.05325443786982, 24.668393253575967 99.85207100591715, 24.660504164863177 100.6508875739645, 24.43184687562098 101.44970414201183, 22.429999851272893 102.24852071005917, 20.778137445540736 103.04733727810651, 21.513657062699995 103.84615384615385, 21.47091144227575 104.64497041420118, 24.858067744080802 105.44378698224853, 24.283183504697252 106.24260355029585, 23.54778215894223 107.0414201183432, 25.748604848757516 107.84023668639053, 24.789404287080107 108.63905325443787, 27.357117681177893 109.43786982248521, 20.42831709254421 110.23668639053254, 10.230830719324041 111.03550295857988, 12.164796112067 111.83431952662723, 12.756264140584875 112.63313609467457, 10.967282790212979 113.43195266272188, 13.571210919458277 114.23076923076923, 8.687286490775106 115.02958579881657, 7.535081727950745 115.82840236686391, 8.208669075859362 116.62721893491124, 7.612300541829789 117.42603550295858, 10.933126262906939 118.22485207100593, 9.616917103198835 119.02366863905324, 9.416974351947449 119.82248520710058, 5.515053948853599 120.62130177514793, 5.674841503314178 121.42011834319527, 9.037899776225057 122.2189349112426, 13.081735223571103 123.01775147928994, 19.63317013892946 123.81656804733728, 17.29269683162781 124.61538461538463, 17.302093846897783 125.41420118343194, 14.629168195903256 126.21301775147928, 14.57125567773933 127.01183431952663, 8.72626650931337 127.81065088757396, 2.8263453719905423 128.60946745562129, 5.0395043037753515 129.40828402366864, 5.509385895662222 130.20710059171597, 7.480575250340967 131.0059171597633, 6.246929005351843 131.80473372781066, 4.4145749212899785 132.60355029585799, 2.7416411343012737 133.40236686390534, 2.975935236230894 134.20118343195267, 0.0" fill="none" stroke="#32ca5b" stroke-width="1.25"/>

</svg>