<?xml version="1.0" standalone="no"?>
<!DOCTYPE svg PUBLIC "-//W3C//DTD SVG 1.1//EN" "http://www.w3.org/Graphics/SVG/1.1/DTD/svg11.dtd">

<svg width="135" height="50" viewBox="0 0 135 50" preserveAspectRatio="none" 
  xmlns="http://www.w3.org/2000/svg"
  xmlns:xlink="http://www.w3.org/1999/xlink">


<polyline points="0.0, 32.6508362552184 0.7988165680473372, 31.77321389438154 1.5976331360946745, 30.046034076314456 2.396449704142012, 31.91146032232311 3.195266272189349, 30.489432115116145 3.994082840236686, 28.045325043469553 4.792899408284024, 29.707690295995164 5.591715976331361, 29.29108788659644 6.390532544378698, 30.23873382300612 7.189349112426036, 30.33607068360426 7.988165680473372, 27.373267243839532 8.78698224852071, 24.37158003971347 9.585798816568047, 27.024071766363445 10.384615384615385, 17.940649679115168 11.183431952662723, 27.8377417370141 11.982248520710058, 30.728656592017582 12.781065088757396, 35.425683960076725 13.579881656804734, 34.22273757064171 14.378698224852071, 33.271294539268766 15.177514792899409, 25.81871876708145 15.976331360946745, 27.08860079615047 16.775147928994084, 27.74150195252772 17.57396449704142, 25.123250117997962 18.37278106508876, 25.130598568378332 19.171597633136095, 26.954925314216283 19.970414201183434, 27.326973315085006 20.76923076923077, 27.327884231229927 21.56804733727811, 28.044065121402863 22.366863905325445, 29.054784260136017 23.16568047337278, 32.16334888140063 23.964497041420117, 32.16241343521907 24.763313609467456, 33.21292402532263 25.562130177514792, 31.35067903911775 26.36094674556213, 35.98256602639781 27.159763313609467, 35.034465350061225 27.958579881656807, 40.285987662198046 28.757396449704142, 33.784356175763506 29.55621301775148, 36.03293253953502 30.355029585798817, 38.84356545284284 31.153846153846157, 39.00670243646172 31.95266272189349, 33.026291957822544 32.751479289940825, 40.50976818304312 33.55029585798817, 41.62003631973491 34.349112426035504, 37.414239276656566 35.14792899408284, 38.49800766908814 35.94674556213018, 34.047417674761036 36.74556213017752, 32.32253487258887 37.54437869822485, 28.78502655891627 38.34319526627219, 34.11352917885406 39.142011834319526, 35.95029902902405 39.94082840236687, 34.30170240510026 40.7396449704142, 32.80314994575716 41.53846153846154, 35.882070654449706 42.337278106508876, 33.588717881676324 43.13609467455622, 28.79992857314808 43.93491124260355, 30.44196338233473 44.73372781065089, 28.69755551537592 45.532544378698226, 28.8795415899824 46.33136094674556, 33.9438806010419 47.1301775147929, 31.752357070171083 47.928994082840234, 35.44252974599807 48.72781065088758, 37.03266584980299 49.52662721893491, 32.151733219427584 50.32544378698225, 32.589148749107956 51.124260355029584, 34.3385379633702 51.92307692307693, 31.140929447870985 52.72189349112426, 30.020650199988474 53.5207100591716, 33.2148121836993 54.319526627218934, 29.740600634122426 55.11834319526627, 34.86292971673707 55.91715976331361, 34.099147973839145 56.71597633136094, 36.073019550280435 57.514792899408285, 33.60436445708194 58.31360946745562, 35.93201981331366 59.11242603550296, 39.899355270764325 59.91124260355029, 37.14033383934462 60.710059171597635, 36.277931314902155 61.50887573964497, 37.354156783365966 62.307692307692314, 34.426118900816434 63.10650887573964, 39.71476555397607 63.90532544378698, 41.43965579375155 64.70414201183432, 38.206785924843516 65.50295857988165, 35.3536201277863 66.30177514792899, 37.268101612365285 67.10059171597634, 43.2236361866673 67.89940828402366, 42.062885515717134 68.69822485207101, 44.19547631948499 69.49704142011834, 50.0 70.29585798816568, 33.354993887272585 71.09467455621302, 35.751568178462065 71.89349112426036, 37.71364123698104 72.6923076923077, 37.38775984790467 73.49112426035504, 36.52639718289738 74.28994082840237, 39.54755271905075 75.0887573964497, 41.40732809429185 75.88757396449704, 40.39131453503504 76.68639053254438, 38.068535420218666 77.48520710059172, 44.143194615078684 78.28402366863905, 39.76609793045745 79.0828402366864, 39.65415295592736 79.88165680473374, 37.03865500193938 80.68047337278107, 37.85723820558521 81.4792899408284, 39.44691008036431 82.27810650887574, 36.679066943920716 83.07692307692308, 39.63529959664866 83.87573964497041, 36.942347542624496 84.67455621301775, 37.6825905294133 85.4733727810651, 35.91054990570664 86.27218934911244, 36.163194418565126 87.07100591715975, 38.195033827611304 87.8698224852071, 37.478294445779106 88.66863905325444, 37.49035370867298 89.46745562130178, 36.494820635464166 90.26627218934911, 32.07229580224812 91.06508875739645, 31.688724125453955 91.8639053254438, 32.67951749359872 92.66272189349112, 33.510568987932345 93.46153846153845, 32.84869551300702 94.2603550295858, 31.961189208684353 95.05917159763314, 32.88623755471796 95.85798816568047, 33.95155704818154 96.65680473372781, 31.983633306759796 97.45562130177515, 31.92687068015842 98.2544378698225, 31.530301721868426 99.05325443786982, 34.917537136728185 99.85207100591715, 31.77943322698139 100.6508875739645, 26.746231602888816 101.44970414201183, 31.116482378839272 102.24852071005917, 31.50578323392849 103.04733727810651, 32.31943333029631 103.84615384615385, 33.98664904670596 104.64497041420118, 31.74972850368139 105.44378698224853, 31.038845204003017 106.24260355029585, 31.214409599479236 107.0414201183432, 29.000955999722223 107.84023668639053, 34.288671865951564 108.63905325443787, 34.55885645306019 109.43786982248521, 32.55224651286924 110.23668639053254, 32.70314170387208 111.03550295857988, 31.087285121084197 111.83431952662723, 30.588190903683653 112.63313609467457, 31.94264954528053 113.43195266272188, 29.660874758761963 114.23076923076923, 29.23325447154637 115.02958579881657, 31.08277024456551 115.82840236686391, 32.86411496256406 116.62721893491124, 34.280935787813945 117.42603550295858, 32.91272697997213 118.22485207100593, 33.01851282986038 119.02366863905324, 31.856587312278496 119.82248520710058, 32.99994777630804 120.62130177514793, 36.10886154012663 121.42011834319527, 35.76548110050803 122.2189349112426, 40.06192744308789 123.01775147928994, 36.96846910421587 123.81656804733728, 37.325599829973285 124.61538461538463, 35.349953856616295 125.41420118343194, 35.670031113097835 126.21301775147928, 30.550102190520363 127.01183431952663, 20.408594831434616 127.81065088757396, 13.19517094792128 128.60946745562129, 13.784545349934247 129.40828402366864, 12.689844904120726 130.20710059171597, 3.180543658168605 131.0059171597633, 2.0049020524630707 131.80473372781066, 1.4219180961636755 132.60355029585799, 0.5956765970029997 133.40236686390534, 0.3787927156861862 134.20118343195267, 0.0" fill="none" stroke="#32ca5b" stroke-width="1.25"/>

</svg>