<?xml version="1.0" standalone="no"?>
<!DOCTYPE svg PUBLIC "-//W3C//DTD SVG 1.1//EN" "http://www.w3.org/Graphics/SVG/1.1/DTD/svg11.dtd">

<svg width="135" height="50" viewBox="0 0 135 50" preserveAspectRatio="none" 
  xmlns="http://www.w3.org/2000/svg"
  xmlns:xlink="http://www.w3.org/1999/xlink">


<polyline points="0.0, 43.35546162684799 0.7988165680473372, 44.37010318850578 1.5976331360946745, 45.502860017444746 2.396449704142012, 44.39597434246281 3.195266272189349, 46.255745530674105 3.994082840236686, 44.48170320864586 4.792899408284024, 44.4922795079007 5.591715976331361, 44.74353919061212 6.390532544378698, 44.77525731400141 7.189349112426036, 46.121159614620225 7.988165680473372, 46.17163161137066 8.78698224852071, 44.63817333940317 9.585798816568047, 43.98065727889441 10.384615384615385, 45.07741405983372 11.183431952662723, 45.560749536306496 11.982248520710058, 47.967435337438005 12.781065088757396, 48.523479692633316 13.579881656804734, 48.90481917929835 14.378698224852071, 47.62586920350332 15.177514792899409, 48.026851354208425 15.976331360946745, 47.98328754733661 16.775147928994084, 48.297616657761715 17.57396449704142, 48.06454777413884 18.37278106508876, 45.88785614033091 19.171597633136095, 46.04664812876937 19.970414201183434, 46.663709849496136 20.76923076923077, 47.044865760316426 21.56804733727811, 46.38074951473982 22.366863905325445, 46.34064000177108 23.16568047337278, 46.45192102596353 23.964497041420117, 47.36559432527492 24.763313609467456, 47.85633007537296 25.562130177514792, 47.931932664471695 26.36094674556213, 47.613357438044034 27.159763313609467, 50.0 27.958579881656807, 48.75831428728616 28.757396449704142, 9.584232869769115 29.55621301775148, 15.450958742808163 30.355029585798817, 22.794228859652154 31.153846153846157, 11.971038397496734 31.95266272189349, 13.935455260918292 32.751479289940825, 16.38392043771523 33.55029585798817, 14.648060394551027 34.349112426035504, 12.103320318356973 35.14792899408284, 0.0 35.94674556213018, 7.059324395049929 36.74556213017752, 14.918571656166762 37.54437869822485, 13.175596302911144 38.34319526627219, 17.089093802345786 39.142011834319526, 15.160539283706148 39.94082840236687, 20.8019656637046 40.7396449704142, 21.63238082356376 41.53846153846154, 20.255991276332377 42.337278106508876, 22.02120170234587 43.13609467455622, 25.18344364075834 43.93491124260355, 25.480851247770364 44.73372781065089, 25.881939845491942 45.532544378698226, 23.52747344386625 46.33136094674556, 23.3342464656016 47.1301775147929, 27.583855246995448 47.928994082840234, 28.13819706968331 48.72781065088758, 27.00240163764712 49.52662721893491, 28.449161040131827 50.32544378698225, 28.483319565358713 51.124260355029584, 26.16623462263037 51.92307692307693, 26.22535328540973 52.72189349112426, 25.59587542059722 53.5207100591716, 25.698471311828254 54.319526627218934, 25.88357399824823 55.11834319526627, 25.934049242486974 55.91715976331361, 26.493184347122185 56.71597633136094, 27.057786427153292 57.514792899408285, 28.056495326810655 58.31360946745562, 27.67060174510398 59.11242603550296, 28.868680278638394 59.91124260355029, 31.351689383238696 60.710059171597635, 29.202558576272942 61.50887573964497, 29.023376881243667 62.307692307692314, 29.69991379651202 63.10650887573964, 29.766665640721506 63.90532544378698, 30.225024803682082 64.70414201183432, 33.56526157727692 65.50295857988165, 33.5389779316569 66.30177514792899, 32.51300962374211 67.10059171597634, 31.71724219493115 67.89940828402366, 33.85989753245477 68.69822485207101, 34.121297496707385 69.49704142011834, 34.811696747535805 70.29585798816568, 36.4391303393169 71.09467455621302, 35.22959606879713 71.89349112426036, 35.27244468063166 72.6923076923077, 36.19840107410182 73.49112426035504, 34.785528561595136 74.28994082840237, 35.11140350285647 75.0887573964497, 34.310093492681446 75.88757396449704, 32.77170318534133 76.68639053254438, 33.49939899472052 77.48520710059172, 33.98059814133093 78.28402366863905, 36.61434362155829 79.0828402366864, 36.11800751647522 79.88165680473374, 35.61640574449507 80.68047337278107, 34.30181507912355 81.4792899408284, 34.2207576019265 82.27810650887574, 34.099443009809185 83.07692307692308, 32.891517533270545 83.87573964497041, 34.140811818471406 84.67455621301775, 31.87293068533415 85.4733727810651, 32.85928239585126 86.27218934911244, 33.51892340604046 87.07100591715975, 34.09749011431206 87.8698224852071, 34.27954198965778 88.66863905325444, 33.822206718647784 89.46745562130178, 32.51414178733069 90.26627218934911, 32.32632114749111 91.06508875739645, 32.50829272027387 91.8639053254438, 32.1169080360972 92.66272189349112, 31.778103876341785 93.46153846153845, 31.872882616393493 94.2603550295858, 31.58342715696611 95.05917159763314, 32.03135408820625 95.85798816568047, 31.82720633577893 96.65680473372781, 32.87472437647415 97.45562130177515, 32.07121490847536 98.2544378698225, 31.79603380864008 99.05325443786982, 30.20910302058024 99.85207100591715, 31.629633163736916 100.6508875739645, 32.27751503180479 101.44970414201183, 31.40198905099839 102.24852071005917, 32.90526534133422 103.04733727810651, 34.09758159224779 103.84615384615385, 34.402811296672986 104.64497041420118, 34.32546417939576 105.44378698224853, 31.700943265775365 106.24260355029585, 29.98095610728926 107.0414201183432, 30.588575039302402 107.84023668639053, 29.784792877157546 108.63905325443787, 30.056457617393068 109.43786982248521, 28.648867371793497 110.23668639053254, 30.314670726184843 111.03550295857988, 30.971386024896592 111.83431952662723, 31.713071448489604 112.63313609467457, 31.453926923403365 113.43195266272188, 32.35776808527852 114.23076923076923, 32.39081900134757 115.02958579881657, 32.326756697940574 115.82840236686391, 32.24176045644992 116.62721893491124, 32.34665973206429 117.42603550295858, 32.53849618864829 118.22485207100593, 32.404924425922964 119.02366863905324, 32.85997892698319 119.82248520710058, 32.821810052513584 120.62130177514793, 32.28339223567223 121.42011834319527, 32.22513280981077 122.2189349112426, 32.22191702876144 123.01775147928994, 34.00548246884612 123.81656804733728, 33.82012177720915 124.61538461538463, 33.62053547113387 125.41420118343194, 32.87853180762206 126.21301775147928, 20.096403228507814 127.01183431952663, 17.28755027131918 127.81065088757396, 22.21160648127087 128.60946745562129, 21.413000433018972 129.40828402366864, 20.940597293601158 130.20710059171597, 22.498509051067675 131.0059171597633, 20.064011240515942 131.80473372781066, 21.57734087245993 132.60355029585799, 20.86819994266499 133.40236686390534, 21.327136550962887 134.20118343195267, 22.164692990959566" fill="none" stroke="#32ca5b" stroke-width="1.25"/>

</svg>