<?xml version="1.0" standalone="no"?>
<!DOCTYPE svg PUBLIC "-//W3C//DTD SVG 1.1//EN" "http://www.w3.org/Graphics/SVG/1.1/DTD/svg11.dtd">

<svg width="135" height="50" viewBox="0 0 135 50" preserveAspectRatio="none" 
  xmlns="http://www.w3.org/2000/svg"
  xmlns:xlink="http://www.w3.org/1999/xlink">


<polyline points="0.0, 25.7203522819052 0.7988165680473372, 20.151963766137857 1.5976331360946745, 16.645995570184272 2.396449704142012, 17.01608771580504 3.195266272189349, 13.33474465194256 3.994082840236686, 15.892396363895667 4.792899408284024, 15.294118975820723 5.591715976331361, 17.474237056382588 6.390532544378698, 19.430017370776007 7.189349112426036, 21.09584838524074 7.988165680473372, 18.791956551233994 8.78698224852071, 13.379482444123164 9.585798816568047, 19.331245800855378 10.384615384615385, 11.775303792598844 11.183431952662723, 21.54078247689735 11.982248520710058, 25.36583637034032 12.781065088757396, 28.75819147210226 13.579881656804734, 28.88380574648889 14.378698224852071, 26.246642502412804 15.177514792899409, 20.40237999569304 15.976331360946745, 19.356704915724002 16.775147928994084, 21.03725246098253 17.57396449704142, 19.56003815590445 18.37278106508876, 20.46436994529656 19.171597633136095, 19.91715611461395 19.970414201183434, 14.129595421666435 20.76923076923077, 9.390328127182396 21.56804733727811, 10.661031349784336 22.366863905325445, 9.096683555094858 23.16568047337278, 12.611807926405616 23.964497041420117, 11.587814978292375 24.763313609467456, 9.992536544940288 25.562130177514792, 6.901958480869733 26.36094674556213, 13.48001620854539 27.159763313609467, 9.72568804140322 27.958579881656807, 13.761348072214133 28.757396449704142, 16.413728944446618 29.55621301775148, 24.356331775766016 30.355029585798817, 27.706418336961807 31.153846153846157, 23.74120035120647 31.95266272189349, 23.919841911367584 32.751479289940825, 28.367456224999206 33.55029585798817, 31.671812554338093 34.349112426035504, 31.241835418256564 35.14792899408284, 33.88552275119377 35.94674556213018, 30.815484406181287 36.74556213017752, 32.415127169714985 37.54437869822485, 25.378651404935415 38.34319526627219, 32.392439533015086 39.142011834319526, 36.78505383992823 39.94082840236687, 37.444180160522194 40.7396449704142, 29.868297136014043 41.53846153846154, 31.113536018213473 42.337278106508876, 29.512116068085533 43.13609467455622, 23.940605861689455 43.93491124260355, 21.629998098243572 44.73372781065089, 22.43155896769603 45.532544378698226, 23.517789721348134 46.33136094674556, 27.08727661706647 47.1301775147929, 28.062089117521303 47.928994082840234, 31.391848947507278 48.72781065088758, 33.10809096190646 49.52662721893491, 30.096372959346912 50.32544378698225, 28.549054183756045 51.124260355029584, 32.63592219350534 51.92307692307693, 30.717436832195006 52.72189349112426, 31.1242388656708 53.5207100591716, 31.995323915707846 54.319526627218934, 28.83587070166222 55.11834319526627, 31.93239169794945 55.91715976331361, 31.451465776253258 56.71597633136094, 35.254805699491385 57.514792899408285, 29.147978141441193 58.31360946745562, 31.52868053307063 59.11242603550296, 36.411694559425634 59.91124260355029, 37.56429786224206 60.710059171597635, 33.435616393561155 61.50887573964497, 35.48944729521048 62.307692307692314, 33.586618279664975 63.10650887573964, 33.144293201983814 63.90532544378698, 32.88926150819406 64.70414201183432, 34.51710444567679 65.50295857988165, 32.17652051039004 66.30177514792899, 34.04153353483469 67.10059171597634, 36.77169395292319 67.89940828402366, 34.32076195584484 68.69822485207101, 36.75575462699124 69.49704142011834, 43.72379030204695 70.29585798816568, 44.12794903845668 71.09467455621302, 40.116082863295624 71.89349112426036, 41.17238601048377 72.6923076923077, 41.34983672578929 73.49112426035504, 40.16442170426877 74.28994082840237, 42.83002250402281 75.0887573964497, 45.82067487214928 75.88757396449704, 44.5335122829946 76.68639053254438, 43.73121564556099 77.48520710059172, 50.0 78.28402366863905, 48.396131252318725 79.0828402366864, 44.858656856265746 79.88165680473374, 40.6111729437038 80.68047337278107, 35.310236692366715 81.4792899408284, 38.33018368915338 82.27810650887574, 39.086096741532174 83.07692307692308, 43.37024741761094 83.87573964497041, 40.19037035013625 84.67455621301775, 39.25005800559868 85.4733727810651, 38.29243836023096 86.27218934911244, 40.818973464464754 87.07100591715975, 39.235736360986614 87.8698224852071, 40.073538653998284 88.66863905325444, 39.238684485164626 89.46745562130178, 35.46650045524237 90.26627218934911, 29.08061290770468 91.06508875739645, 34.63363216400889 91.8639053254438, 33.87254684236437 92.66272189349112, 32.06674699993004 93.46153846153845, 31.9792908327888 94.2603550295858, 30.98791320953914 95.05917159763314, 31.42357688199876 95.85798816568047, 33.98347484774438 96.65680473372781, 29.922549201853364 97.45562130177515, 29.610718703990596 98.2544378698225, 32.04872752334224 99.05325443786982, 29.96325821021729 99.85207100591715, 30.65663643111333 100.6508875739645, 30.746499227087696 101.44970414201183, 33.125926673002205 102.24852071005917, 36.39158111466214 103.04733727810651, 36.81278079207666 103.84615384615385, 38.024922656463055 104.64497041420118, 37.106807090138396 105.44378698224853, 35.71449552094988 106.24260355029585, 37.31698086992731 107.0414201183432, 34.718267577039576 107.84023668639053, 36.7940309282278 108.63905325443787, 36.87441912408033 109.43786982248521, 34.03822417715376 110.23668639053254, 33.777201169003646 111.03550295857988, 33.17374113464548 111.83431952662723, 31.70620144459343 112.63313609467457, 31.121644342153015 113.43195266272188, 29.185770681512047 114.23076923076923, 30.811206983611573 115.02958579881657, 33.38573647020235 115.82840236686391, 35.553067379242556 116.62721893491124, 37.03559905926812 117.42603550295858, 37.822190405647966 118.22485207100593, 38.931645995226184 119.02366863905324, 38.08889797456803 119.82248520710058, 37.47730096680682 120.62130177514793, 40.74667394117053 121.42011834319527, 40.63160629391296 122.2189349112426, 44.85195288176982 123.01775147928994, 41.27728527508926 123.81656804733728, 41.66854956879027 124.61538461538463, 40.30477555019091 125.41420118343194, 36.22087879721402 126.21301775147928, 32.89886099969338 127.01183431952663, 21.09766316821199 127.81065088757396, 15.634562433954702 128.60946745562129, 12.786888306681652 129.40828402366864, 13.453890580421241 130.20710059171597, 6.8732203210043625 131.0059171597633, 7.69769885336298 131.80473372781066, 6.328342029991704 132.60355029585799, 2.284191995304001 133.40236686390534, 2.8244809030793507 134.20118343195267, 0.0" fill="none" stroke="#32ca5b" stroke-width="1.25"/>

</svg>