<?xml version="1.0" standalone="no"?>
<!DOCTYPE svg PUBLIC "-//W3C//DTD SVG 1.1//EN" "http://www.w3.org/Graphics/SVG/1.1/DTD/svg11.dtd">

<svg width="135" height="50" viewBox="0 0 135 50" preserveAspectRatio="none" 
  xmlns="http://www.w3.org/2000/svg"
  xmlns:xlink="http://www.w3.org/1999/xlink">


<polyline points="0.0, 23.677922946254935 0.7988165680473372, 26.328554490984356 1.5976331360946745, 25.417746987019598 2.396449704142012, 26.161041408389185 3.195266272189349, 24.731750683119042 3.994082840236686, 24.26346682490438 4.792899408284024, 23.09995082561519 5.591715976331361, 23.829731813240237 6.390532544378698, 24.73404998004666 7.189349112426036, 25.783951076166673 7.988165680473372, 23.768595108382723 8.78698224852071, 21.82729223622097 9.585798816568047, 23.43272074094817 10.384615384615385, 19.02741899369634 11.183431952662723, 23.12191187543445 11.982248520710058, 25.614703366182056 12.781065088757396, 26.68754006534892 13.579881656804734, 26.345786380134783 14.378698224852071, 25.02116486987039 15.177514792899409, 19.10435147472354 15.976331360946745, 20.567438863791367 16.775147928994084, 18.57495168381118 17.57396449704142, 17.31634977451796 18.37278106508876, 15.251833481284468 19.171597633136095, 16.357382762653437 19.970414201183434, 19.1415138883455 20.76923076923077, 17.573839471770437 21.56804733727811, 17.109748704953446 22.366863905325445, 17.560578227718267 23.16568047337278, 18.644971105088974 23.964497041420117, 20.887979897377928 24.763313609467456, 22.514556049848338 25.562130177514792, 21.170029336242116 26.36094674556213, 26.85112772890612 27.159763313609467, 23.806407300919194 27.958579881656807, 26.51516388069052 28.757396449704142, 24.433170650212418 29.55621301775148, 26.308809845244856 30.355029585798817, 26.70132217877892 31.153846153846157, 25.075868252717182 31.95266272189349, 24.345334836418807 32.751479289940825, 28.271359754226655 33.55029585798817, 27.869264275672677 34.349112426035504, 26.422700111207853 35.14792899408284, 26.576896432873763 35.94674556213018, 24.809128499200185 36.74556213017752, 24.70893118111987 37.54437869822485, 20.126694305863225 38.34319526627219, 23.27044255392487 39.142011834319526, 25.996769191635664 39.94082840236687, 25.365385562625953 40.7396449704142, 24.684555900868155 41.53846153846154, 25.2465199405505 42.337278106508876, 23.984073502661932 43.13609467455622, 21.51952335573622 43.93491124260355, 17.570259893224428 44.73372781065089, 13.775165189239702 45.532544378698226, 13.193898060195073 46.33136094674556, 15.8200569194514 47.1301775147929, 16.654685871727967 47.928994082840234, 17.152277634088637 48.72781065088758, 21.671290275880917 49.52662721893491, 20.06866852293075 50.32544378698225, 19.244970183522263 51.124260355029584, 20.52877102110237 51.92307692307693, 18.15207227686737 52.72189349112426, 16.791404910545385 53.5207100591716, 17.144724857981227 54.319526627218934, 15.419495963744398 55.11834319526627, 18.959335992233484 55.91715976331361, 18.01824568185418 56.71597633136094, 19.921952451659557 57.514792899408285, 17.911249040055356 58.31360946745562, 19.80500283391901 59.11242603550296, 21.010539213802673 59.91124260355029, 49.51583340720426 60.710059171597635, 49.177495318677806 61.50887573964497, 48.51240270453634 62.307692307692314, 46.9546182304333 63.10650887573964, 49.59954286633188 63.90532544378698, 50.0 64.70414201183432, 48.022117248847216 65.50295857988165, 46.93983641151427 66.30177514792899, 46.22847527361149 67.10059171597634, 46.632616813884404 67.89940828402366, 45.41667054195391 68.69822485207101, 44.21569906129573 69.49704142011834, 46.15765792442828 70.29585798816568, 44.75733155885532 71.09467455621302, 43.14885091015201 71.89349112426036, 42.76601584392479 72.6923076923077, 42.28473336902383 73.49112426035504, 41.04889560366443 74.28994082840237, 41.509692366132676 75.0887573964497, 42.70875632194413 75.88757396449704, 41.95382085690511 76.68639053254438, 40.74415246410072 77.48520710059172, 42.645378210948046 78.28402366863905, 40.793798827595396 79.0828402366864, 39.37046891979487 79.88165680473374, 37.45670421053753 80.68047337278107, 36.65162944939659 81.4792899408284, 36.52643089078704 82.27810650887574, 34.63843855833617 83.07692307692308, 35.100977348298514 83.87573964497041, 34.0442616203875 84.67455621301775, 33.35682036439172 85.4733727810651, 32.391795064345665 86.27218934911244, 32.40375293101512 87.07100591715975, 31.344563053433987 87.8698224852071, 31.550132659229956 88.66863905325444, 31.016416411496134 89.46745562130178, 29.7632821666114 90.26627218934911, 26.51817444420299 91.06508875739645, 26.711912773332575 91.8639053254438, 25.80903683097763 92.66272189349112, 25.607348660724494 93.46153846153845, 25.51788458346593 94.2603550295858, 24.39246851928357 95.05917159763314, 23.857995561435935 95.85798816568047, 23.27091735398698 96.65680473372781, 20.813812509389454 97.45562130177515, 18.484480110772235 98.2544378698225, 17.98932979557144 99.05325443786982, 18.119625975288802 99.85207100591715, 16.546840206652313 100.6508875739645, 15.273334633804659 101.44970414201183, 16.595885737558156 102.24852071005917, 17.072626722253364 103.04733727810651, 16.815091355229157 103.84615384615385, 16.03096096016398 104.64497041420118, 15.47391995006667 105.44378698224853, 14.53662931841087 106.24260355029585, 14.23570172235744 107.0414201183432, 11.11250248989314 107.84023668639053, 13.858492868117848 108.63905325443787, 14.22188435736706 109.43786982248521, 12.446247611589438 110.23668639053254, 12.351475004668643 111.03550295857988, 10.027272671856508 111.83431952662723, 8.595992987902736 112.63313609467457, 7.208631085466205 113.43195266272188, 10.298481109678578 114.23076923076923, 8.245570952435548 115.02958579881657, 7.21369257000012 115.82840236686391, 8.153388167669227 116.62721893491124, 8.412399297576552 117.42603550295858, 7.1039418962425565 118.22485207100593, 6.539658317419186 119.02366863905324, 6.488455612289385 119.82248520710058, 5.596802549331249 120.62130177514793, 8.655361493814647 121.42011834319527, 7.53555589140022 122.2189349112426, 12.220267199001947 123.01775147928994, 9.673076291436457 123.81656804733728, 11.752554352457922 124.61538461538463, 10.735023134994028 125.41420118343194, 10.478871941907064 126.21301775147928, 5.384592404328037 127.01183431952663, 4.734965768096165 127.81065088757396, 5.175835711603474 128.60946745562129, 4.201035348076896 129.40828402366864, 4.398286637428661 130.20710059171597, 1.0881053544410377 131.0059171597633, 0.2482963925929066 131.80473372781066, 0.6603220320496441 132.60355029585799, 0.0 133.40236686390534, 2.2801079858060262 134.20118343195267, 1.382621302484353" fill="none" stroke="#32ca5b" stroke-width="1.25"/>

</svg>