<?xml version="1.0" standalone="no"?>
<!DOCTYPE svg PUBLIC "-//W3C//DTD SVG 1.1//EN" "http://www.w3.org/Graphics/SVG/1.1/DTD/svg11.dtd">

<svg width="135" height="50" viewBox="0 0 135 50" preserveAspectRatio="none" 
  xmlns="http://www.w3.org/2000/svg"
  xmlns:xlink="http://www.w3.org/1999/xlink">


<polyline points="0.0, 0.0 0.7988165680473372, 4.262069875660038 1.5976331360946745, 3.7106394398509157 2.396449704142012, 9.064541558803036 3.195266272189349, 8.526922566606757 3.994082840236686, 8.58999668385668 4.792899408284024, 11.920733904889284 5.591715976331361, 13.743662371738708 6.390532544378698, 20.613846667044065 7.189349112426036, 24.70282282301631 7.988165680473372, 18.973014965656915 8.78698224852071, 16.60278546887229 9.585798816568047, 20.568074935186996 10.384615384615385, 12.740253778277477 11.183431952662723, 25.367167922423324 11.982248520710058, 35.44172547878068 12.781065088757396, 40.071791026281595 13.579881656804734, 37.53801720643319 14.378698224852071, 35.784912689378125 15.177514792899409, 31.49072318305388 15.976331360946745, 30.38339426940318 16.775147928994084, 29.154520416318686 17.57396449704142, 25.808073315550327 18.37278106508876, 25.149769874380475 19.171597633136095, 29.21795872475591 19.970414201183434, 29.966309129752496 20.76923076923077, 31.356422525161527 21.56804733727811, 29.05210486000882 22.366863905325445, 32.0061395445383 23.16568047337278, 33.319121680182754 23.964497041420117, 36.600019774782275 24.763313609467456, 38.573780671882155 25.562130177514792, 37.06517224149361 26.36094674556213, 47.89145712443531 27.159763313609467, 44.4036672400341 27.958579881656807, 46.56192113985128 28.757396449704142, 42.00880325388713 29.55621301775148, 44.02035946329575 30.355029585798817, 46.998003333498886 31.153846153846157, 45.013888920895454 31.95266272189349, 41.49624431947208 32.751479289940825, 47.04427913499739 33.55029585798817, 50.0 34.349112426035504, 44.74948790197616 35.14792899408284, 46.195091662846124 35.94674556213018, 40.54307507218866 36.74556213017752, 38.149116279454006 37.54437869822485, 35.59278906897927 38.34319526627219, 39.05625131712402 39.142011834319526, 45.75720066643767 39.94082840236687, 43.37568043465615 40.7396449704142, 40.847586444887675 41.53846153846154, 41.68882901042911 42.337278106508876, 40.0457959441903 43.13609467455622, 35.19861531650794 43.93491124260355, 32.723631218026036 44.73372781065089, 31.61819098475953 45.532544378698226, 31.23109629439703 46.33136094674556, 34.944735142697475 47.1301775147929, 35.13838992182658 47.928994082840234, 35.34801383885714 48.72781065088758, 40.1640618479501 49.52662721893491, 36.55258501937897 50.32544378698225, 34.34622866648885 51.124260355029584, 37.29415529879323 51.92307692307693, 33.80862199615064 52.72189349112426, 33.26022757844273 53.5207100591716, 34.27791628046633 54.319526627218934, 30.380314767002687 55.11834319526627, 34.329131662124034 55.91715976331361, 35.40732714490862 56.71597633136094, 38.91818232627449 57.514792899408285, 37.09516881432881 58.31360946745562, 38.639520574307724 59.11242603550296, 42.23381512924771 59.91124260355029, 41.01533489001711 60.710059171597635, 40.91856629953758 61.50887573964497, 40.469545450822885 62.307692307692314, 38.953694331457456 63.10650887573964, 42.85546873807103 63.90532544378698, 45.51970430164678 64.70414201183432, 44.83461862557163 65.50295857988165, 42.00283431902001 66.30177514792899, 42.24706720846578 67.10059171597634, 44.169070653072936 67.89940828402366, 42.425390612944625 68.69822485207101, 38.2959544595971 69.49704142011834, 39.187686372551774 70.29585798816568, 36.96855257460153 71.09467455621302, 32.38325876377658 71.89349112426036, 32.6001142695273 72.6923076923077, 32.20897577914138 73.49112426035504, 29.930188931949704 74.28994082840237, 33.53947994576173 75.0887573964497, 37.17313748387717 75.88757396449704, 37.73039280534352 76.68639053254438, 33.291861624558166 77.48520710059172, 39.422513765972326 78.28402366863905, 36.4532952882808 79.0828402366864, 31.94572658074182 79.88165680473374, 31.976730653549424 80.68047337278107, 33.699171327996815 81.4792899408284, 34.52607829262594 82.27810650887574, 32.74878119706108 83.07692307692308, 34.32959492744865 83.87573964497041, 32.34435090933697 84.67455621301775, 32.877266969762566 85.4733727810651, 30.535282078147187 86.27218934911244, 31.229319077728864 87.07100591715975, 30.230088156120296 87.8698224852071, 30.180105256251938 88.66863905325444, 27.191150973044365 89.46745562130178, 27.13086096420619 90.26627218934911, 22.828446356200708 91.06508875739645, 25.95302463626349 91.8639053254438, 26.629694080799332 92.66272189349112, 27.505279591516135 93.46153846153845, 27.348380269792028 94.2603550295858, 26.290468878048586 95.05917159763314, 25.302223806752718 95.85798816568047, 26.851054406134573 96.65680473372781, 26.691212558650378 97.45562130177515, 27.924213678375192 98.2544378698225, 26.28601120152923 99.05325443786982, 26.805572099630155 99.85207100591715, 25.824331174900095 100.6508875739645, 24.482102687713294 101.44970414201183, 26.129878275634795 102.24852071005917, 26.132308473439785 103.04733727810651, 24.094642974119065 103.84615384615385, 26.665167672872965 104.64497041420118, 24.9762870331972 105.44378698224853, 24.417616332211086 106.24260355029585, 24.626159897258436 107.0414201183432, 21.95389012959508 107.84023668639053, 24.704917069537327 108.63905325443787, 25.60080697656375 109.43786982248521, 24.94581705528968 110.23668639053254, 25.423764646866235 111.03550295857988, 23.02621907618105 111.83431952662723, 23.75947920123409 112.63313609467457, 24.41696465696978 113.43195266272188, 24.89147483623225 114.23076923076923, 25.568747561460658 115.02958579881657, 25.739782963000536 115.82840236686391, 29.74664969084352 116.62721893491124, 30.888879920642008 117.42603550295858, 28.981353637632857 118.22485207100593, 29.614480316961778 119.02366863905324, 27.921124298619905 119.82248520710058, 27.08681932748489 120.62130177514793, 29.519600654919824 121.42011834319527, 29.28404448998557 122.2189349112426, 37.93231616998536 123.01775147928994, 34.495335454536594 123.81656804733728, 35.650158285515445 124.61538461538463, 35.484871356858655 125.41420118343194, 34.30375307055856 126.21301775147928, 27.963319802787694 127.01183431952663, 22.12595265348534 127.81065088757396, 17.84650884799203 128.60946745562129, 17.347167414294656 129.40828402366864, 17.841562673806045 130.20710059171597, 7.542169625940935 131.0059171597633, 11.131073587939404 131.80473372781066, 6.994347507676471 132.60355029585799, 6.336909038057778 133.40236686390534, 2.4827361878396776 134.20118343195267, 1.356860296491426" fill="none" stroke="#ff3a33" stroke-width="1.25"/>

</svg>