<?xml version="1.0" standalone="no"?>
<!DOCTYPE svg PUBLIC "-//W3C//DTD SVG 1.1//EN" "http://www.w3.org/Graphics/SVG/1.1/DTD/svg11.dtd">

<svg width="135" height="50" viewBox="0 0 135 50" preserveAspectRatio="none" 
  xmlns="http://www.w3.org/2000/svg"
  xmlns:xlink="http://www.w3.org/1999/xlink">


<polyline points="0.0, 16.734570329387047 0.7988165680473372, 16.152992075015597 1.5976331360946745, 15.825934454243129 2.396449704142012, 8.837205471857253 3.195266272189349, 13.230624174368286 3.994082840236686, 9.566692382393773 4.792899408284024, 10.692461160363708 5.591715976331361, 8.549216975325184 6.390532544378698, 14.80317392420768 7.189349112426036, 16.14351824740375 7.988165680473372, 19.873537046469533 8.78698224852071, 11.369475999677405 9.585798816568047, 12.992878839838307 10.384615384615385, 18.330595612679517 11.183431952662723, 14.792023047012199 11.982248520710058, 27.29007721802627 12.781065088757396, 38.66220038959626 13.579881656804734, 43.34144495791533 14.378698224852071, 41.79997640249887 15.177514792899409, 41.36892929604575 15.976331360946745, 35.82552260196989 16.775147928994084, 34.18888923838937 17.57396449704142, 32.48369723248858 18.37278106508876, 33.95029946589531 19.171597633136095, 32.03305648592072 19.970414201183434, 35.80198379854157 20.76923076923077, 38.01508575831887 21.56804733727811, 39.13080873076221 22.366863905325445, 32.60211036928947 23.16568047337278, 38.440900204517895 23.964497041420117, 39.785667431966395 24.763313609467456, 34.989501060496394 25.562130177514792, 37.95880475625588 26.36094674556213, 38.543808302849236 27.159763313609467, 50.0 27.958579881656807, 45.545671207796765 28.757396449704142, 49.7264884552472 29.55621301775148, 42.92043930128209 30.355029585798817, 44.11721124907051 31.153846153846157, 44.69427447965424 31.95266272189349, 43.718283856601815 32.751479289940825, 38.51902157099707 33.55029585798817, 40.48304845459615 34.349112426035504, 42.12026007332914 35.14792899408284, 39.932912078992246 35.94674556213018, 40.955040835518204 36.74556213017752, 34.518484624904275 37.54437869822485, 34.21353119271197 38.34319526627219, 34.62038559831776 39.142011834319526, 39.56928446302522 39.94082840236687, 44.97652216782059 40.7396449704142, 43.72351959348422 41.53846153846154, 38.30780871717263 42.337278106508876, 41.21345189617274 43.13609467455622, 36.30212736116833 43.93491124260355, 30.222577541327674 44.73372781065089, 29.485612504940452 45.532544378698226, 26.18413508966783 46.33136094674556, 20.778247725004817 47.1301775147929, 22.772094241652297 47.928994082840234, 23.82289162446355 48.72781065088758, 25.46351160227141 49.52662721893491, 30.64446641660436 50.32544378698225, 27.920319776456427 51.124260355029584, 28.164150636392034 51.92307692307693, 30.11949528678059 52.72189349112426, 29.509464763393282 53.5207100591716, 26.25762461846285 54.319526627218934, 27.576889525871145 55.11834319526627, 23.990697686816702 55.91715976331361, 29.9574946620762 56.71597633136094, 29.68716674576647 57.514792899408285, 32.98526302789549 58.31360946745562, 29.23846065098134 59.11242603550296, 31.898871140957848 59.91124260355029, 36.13115077023609 60.710059171597635, 40.723220757925645 61.50887573964497, 39.45348164316296 62.307692307692314, 39.8230157908856 63.10650887573964, 37.7537146311182 63.90532544378698, 44.80993930529702 64.70414201183432, 46.86356158257527 65.50295857988165, 46.05659638093527 66.30177514792899, 44.432000738283925 67.10059171597634, 43.08024883037804 67.89940828402366, 45.47961853012495 68.69822485207101, 43.16091474337661 69.49704142011834, 39.10477353162369 70.29585798816568, 43.65468921989227 71.09467455621302, 43.939747181977786 71.89349112426036, 38.670404367917286 72.6923076923077, 36.787814270607825 73.49112426035504, 38.419754064723634 74.28994082840237, 34.19599186153554 75.0887573964497, 35.43314330339602 75.88757396449704, 39.58411760579088 76.68639053254438, 39.90163187588059 77.48520710059172, 34.61102964371234 78.28402366863905, 44.46740011016503 79.0828402366864, 38.09217235145578 79.88165680473374, 35.67452864860169 80.68047337278107, 34.662202811541604 81.4792899408284, 32.17632750147176 82.27810650887574, 33.700624729107616 83.07692307692308, 32.95217548923995 83.87573964497041, 35.95072232553041 84.67455621301775, 29.74256253443765 85.4733727810651, 25.938824053900404 86.27218934911244, 25.831745046976085 87.07100591715975, 24.235887836960412 87.8698224852071, 20.934273662876357 88.66863905325444, 23.580578781292953 89.46745562130178, 24.197980558747556 90.26627218934911, 22.884768397694085 91.06508875739645, 20.441121427075647 91.8639053254438, 22.495533585908785 92.66272189349112, 19.887801914675656 93.46153846153845, 21.469741313656996 94.2603550295858, 20.617496635852227 95.05917159763314, 23.11329147650181 95.85798816568047, 22.491683713421043 96.65680473372781, 23.122041797413555 97.45562130177515, 20.251897502297442 98.2544378698225, 21.862156591812084 99.05325443786982, 24.54151928993076 99.85207100591715, 27.000988955646203 100.6508875739645, 26.638578902640553 101.44970414201183, 25.813777019533024 102.24852071005917, 28.013077273713087 103.04733727810651, 30.798388241380593 103.84615384615385, 29.72623222809662 104.64497041420118, 27.99444362758391 105.44378698224853, 25.72417131479669 106.24260355029585, 22.359113457277104 107.0414201183432, 22.379159928589313 107.84023668639053, 23.993453311586258 108.63905325443787, 26.78120754725245 109.43786982248521, 25.868846589742905 110.23668639053254, 22.878548717205245 111.03550295857988, 23.184895164498727 111.83431952662723, 21.518726037424937 112.63313609467457, 19.54129576584682 113.43195266272188, 16.033975425799476 114.23076923076923, 14.478305566208032 115.02958579881657, 17.291550029332964 115.82840236686391, 19.175730250693594 116.62721893491124, 18.447117379637923 117.42603550295858, 19.029304963343062 118.22485207100593, 16.4594197062032 119.02366863905324, 18.099981517607556 119.82248520710058, 17.034672439878182 120.62130177514793, 12.006099417641245 121.42011834319527, 13.973639154620649 122.2189349112426, 13.816097153206346 123.01775147928994, 24.986011806106266 123.81656804733728, 18.875769604543354 124.61538461538463, 15.923846056932831 125.41420118343194, 14.517938938698743 126.21301775147928, 15.40818425435846 127.01183431952663, 8.564533766131149 127.81065088757396, 5.641125320990105 128.60946745562129, 2.1605365278321265 129.40828402366864, 4.055858158682624 130.20710059171597, 7.444367524754249 131.0059171597633, 3.1535525090791867 131.80473372781066, 2.4645506725242656 132.60355029585799, 2.159673039387274 133.40236686390534, 2.758695377101632 134.20118343195267, 0.0" fill="none" stroke="#32ca5b" stroke-width="1.25"/>

</svg>