<?xml version="1.0" standalone="no"?>
<!DOCTYPE svg PUBLIC "-//W3C//DTD SVG 1.1//EN" "http://www.w3.org/Graphics/SVG/1.1/DTD/svg11.dtd">

<svg width="135" height="50" viewBox="0 0 135 50" preserveAspectRatio="none" 
  xmlns="http://www.w3.org/2000/svg"
  xmlns:xlink="http://www.w3.org/1999/xlink">


<polyline points="0.0, 26.15546691251363 0.7988165680473372, 29.65963528821238 1.5976331360946745, 16.488129123326885 2.396449704142012, 13.645081092633324 3.195266272189349, 26.712987878994877 3.994082840236686, 23.929231457024976 4.792899408284024, 29.609085413956276 5.591715976331361, 29.487407872425365 6.390532544378698, 28.374982133936623 7.189349112426036, 22.576680010214403 7.988165680473372, 14.612986123491616 8.78698224852071, 24.817130378728457 9.585798816568047, 20.44263258291448 10.384615384615385, 22.434483310530283 11.183431952662723, 24.68831941350845 11.982248520710058, 24.39553069463645 12.781065088757396, 21.707375452650087 13.579881656804734, 34.205148267477284 14.378698224852071, 7.012863836232744 15.177514792899409, 24.02400744643963 15.976331360946745, 23.391944600339055 16.775147928994084, 28.30225748599835 17.57396449704142, 23.14504585932177 18.37278106508876, 20.729484009005 19.171597633136095, 20.89333467258908 19.970414201183434, 22.672711092788127 20.76923076923077, 21.7338832871348 21.56804733727811, 31.684214693236797 22.366863905325445, 26.558595387738777 23.16568047337278, 24.507993781724327 23.964497041420117, 28.550599847419388 24.763313609467456, 21.76399315312513 25.562130177514792, 31.078552897352154 26.36094674556213, 26.121868877483102 27.159763313609467, 50.0 27.958579881656807, 17.224741406952248 28.757396449704142, 22.79232643281511 29.55621301775148, 23.7387319897276 30.355029585798817, 14.14306206929839 31.153846153846157, 29.777001279275673 31.95266272189349, 43.201268741013315 32.751479289940825, 0.6239294494137461 33.55029585798817, 15.548036628159878 34.349112426035504, 26.527594708686873 35.14792899408284, 21.104485744138106 35.94674556213018, 38.62041382015804 36.74556213017752, 20.59509740627906 37.54437869822485, 11.704648077777312 38.34319526627219, 15.167037425992625 39.142011834319526, 21.378379543821204 39.94082840236687, 25.563577494316185 40.7396449704142, 28.46778239543942 41.53846153846154, 21.037160983415045 42.337278106508876, 23.065987262699064 43.13609467455622, 30.021627178220033 43.93491124260355, 27.948849186859952 44.73372781065089, 33.71449865042928 45.532544378698226, 21.705127929627523 46.33136094674556, 24.718026612588364 47.1301775147929, 30.481128007939574 47.928994082840234, 28.433439835728976 48.72781065088758, 25.905321148251453 49.52662721893491, 18.910497744569273 50.32544378698225, 29.97055921107945 51.124260355029584, 30.909062577151442 51.92307692307693, 32.23579341337003 52.72189349112426, 23.220123170210634 53.5207100591716, 15.62763219274747 54.319526627218934, 33.83260668916737 55.11834319526627, 14.289087890490096 55.91715976331361, 25.79846147363799 56.71597633136094, 24.057108958617203 57.514792899408285, 27.458465541951 58.31360946745562, 23.927819713817446 59.11242603550296, 35.99556131817233 59.91124260355029, 49.51949247241593 60.710059171597635, 26.540402394633293 61.50887573964497, 30.00164599953826 62.307692307692314, 34.26154792493924 63.10650887573964, 26.518134985516095 63.90532544378698, 40.82811430485759 64.70414201183432, 29.069964956213962 65.50295857988165, 32.806643057173346 66.30177514792899, 24.418592827267098 67.10059171597634, 26.798554216187494 67.89940828402366, 28.803762163833436 68.69822485207101, 24.86517165674476 69.49704142011834, 17.533359869324794 70.29585798816568, 34.97032769560403 71.09467455621302, 19.350495177325282 71.89349112426036, 29.000750866247582 72.6923076923077, 22.304123926211822 73.49112426035504, 25.846302067954774 74.28994082840237, 20.922588788120674 75.0887573964497, 30.034948054541005 75.88757396449704, 27.72361405329437 76.68639053254438, 27.338101611995828 77.48520710059172, 28.262441316007514 78.28402366863905, 29.41300893313641 79.0828402366864, 21.091381242267975 79.88165680473374, 25.69347881834116 80.68047337278107, 25.726836207296806 81.4792899408284, 24.19392172402826 82.27810650887574, 27.087864275502522 83.07692307692308, 29.23150710095656 83.87573964497041, 28.750454180739165 84.67455621301775, 27.78250665606663 85.4733727810651, 28.418978462572355 86.27218934911244, 22.875488001931686 87.07100591715975, 26.285864155982257 87.8698224852071, 26.40407214278869 88.66863905325444, 26.455642834322223 89.46745562130178, 25.083797726084374 90.26627218934911, 21.557342674711176 91.06508875739645, 29.567723752046238 91.8639053254438, 33.3507966200521 92.66272189349112, 24.31127827453814 93.46153846153845, 26.238863585870064 94.2603550295858, 23.12081498515499 95.05917159763314, 29.443436626007617 95.85798816568047, 30.04127709244492 96.65680473372781, 22.736331151070548 97.45562130177515, 14.149214120316492 98.2544378698225, 46.13267033012596 99.05325443786982, 19.989270132136976 99.85207100591715, 20.66308856680486 100.6508875739645, 20.287593077188088 101.44970414201183, 28.520776881135053 102.24852071005917, 20.931962259760365 103.04733727810651, 26.00436166511705 103.84615384615385, 26.34443512892216 104.64497041420118, 25.413815103532954 105.44378698224853, 25.777778608686177 106.24260355029585, 21.6529876061128 107.0414201183432, 28.23985757559943 107.84023668639053, 26.57146984030402 108.63905325443787, 28.899071042448117 109.43786982248521, 25.21052501872978 110.23668639053254, 25.73077793687971 111.03550295857988, 23.510353844037088 111.83431952662723, 25.825962544151192 112.63313609467457, 31.034449683783354 113.43195266272188, 24.370615107664666 114.23076923076923, 39.89777068632897 115.02958579881657, 25.1031962531792 115.82840236686391, 24.309853220997464 116.62721893491124, 33.027720080317295 117.42603550295858, 29.774596264625963 118.22485207100593, 25.765194070105345 119.02366863905324, 22.85554171902672 119.82248520710058, 26.109863817426593 120.62130177514793, 26.726089570049403 121.42011834319527, 29.151289963741178 122.2189349112426, 27.899054371542526 123.01775147928994, 30.710113277610095 123.81656804733728, 29.264024205353923 124.61538461538463, 25.698444167375122 125.41420118343194, 26.379142880146777 126.21301775147928, 27.529484994927607 127.01183431952663, 18.613766390003107 127.81065088757396, 6.80812471426771 128.60946745562129, 26.42035221777571 129.40828402366864, 24.27044595757741 130.20710059171597, 9.900385176493998 131.0059171597633, 22.042342898870295 131.80473372781066, 6.634158063677302 132.60355029585799, 19.350652675230386 133.40236686390534, 0.0 134.20118343195267, 11.229064904706949" fill="none" stroke="#32ca5b" stroke-width="1.25"/>

</svg>