<?xml version="1.0" standalone="no"?>
<!DOCTYPE svg PUBLIC "-//W3C//DTD SVG 1.1//EN" "http://www.w3.org/Graphics/SVG/1.1/DTD/svg11.dtd">

<svg width="135" height="50" viewBox="0 0 135 50" preserveAspectRatio="none" 
  xmlns="http://www.w3.org/2000/svg"
  xmlns:xlink="http://www.w3.org/1999/xlink">


<polyline points="0.0, 0.9903254860353264 0.7988165680473372, 8.803505206954352 1.5976331360946745, 8.734600976032135 2.396449704142012, 10.335384364379776 3.195266272189349, 10.336394422390603 3.994082840236686, 7.055935447122843 4.792899408284024, 6.672339481779829 5.591715976331361, 6.4171076631334225 6.390532544378698, 8.101540926919697 7.189349112426036, 10.072258227979349 7.988165680473372, 5.991029173431993 8.78698224852071, 1.1017493206032303 9.585798816568047, 0.6085642377507066 10.384615384615385, 0.0 11.183431952662723, 7.726313762014477 11.982248520710058, 15.40413418279539 12.781065088757396, 14.964990504537948 13.579881656804734, 16.55458732531239 14.378698224852071, 12.496950819367548 15.177514792899409, 8.484176499208623 15.976331360946745, 9.981120923475494 16.775147928994084, 9.977947352622248 17.57396449704142, 11.216967771036195 18.37278106508876, 10.331781566838263 19.171597633136095, 10.389913062048908 19.970414201183434, 9.581706461287874 20.76923076923077, 10.652282948152237 21.56804733727811, 9.485087021065763 22.366863905325445, 11.082475575879975 23.16568047337278, 11.690969352204814 23.964497041420117, 13.728789831329028 24.763313609467456, 16.057161017612792 25.562130177514792, 15.38309844750056 26.36094674556213, 18.046892983421806 27.159763313609467, 16.25326746276582 27.958579881656807, 20.026665001377168 28.757396449704142, 17.637140086217308 29.55621301775148, 19.985472635218827 30.355029585798817, 26.31316748289133 31.153846153846157, 22.30689346699509 31.95266272189349, 20.566083629488265 32.751479289940825, 22.494416052666637 33.55029585798817, 24.567027157143656 34.349112426035504, 24.13968269628846 35.14792899408284, 23.841267055361442 35.94674556213018, 21.72538302304476 36.74556213017752, 20.92226891290891 37.54437869822485, 20.156177290841203 38.34319526627219, 21.657911186162096 39.142011834319526, 25.068433107691163 39.94082840236687, 23.7252283779093 40.7396449704142, 22.144981995572987 41.53846153846154, 25.160389427720357 42.337278106508876, 21.684980204130145 43.13609467455622, 18.87150676369084 43.93491124260355, 16.545297280828454 44.73372781065089, 15.775194785038913 45.532544378698226, 15.901445328269045 46.33136094674556, 17.752245131076645 47.1301775147929, 19.524085371694042 47.928994082840234, 21.56656382960069 48.72781065088758, 25.3847601105304 49.52662721893491, 24.28922256954957 50.32544378698225, 24.149736535240848 51.124260355029584, 26.948823858199905 51.92307692307693, 28.796610157681997 52.72189349112426, 23.11100608737821 53.5207100591716, 25.45527568479507 54.319526627218934, 26.954999184708473 55.11834319526627, 29.788240898349354 55.91715976331361, 30.748007623806288 56.71597633136094, 32.36958122160146 57.514792899408285, 29.93050965020127 58.31360946745562, 30.132321110489997 59.11242603550296, 31.674466982532433 59.91124260355029, 32.666094248310465 60.710059171597635, 33.14929912891037 61.50887573964497, 34.52639164743784 62.307692307692314, 30.796870275979472 63.10650887573964, 33.569254015820945 63.90532544378698, 35.20892772008208 64.70414201183432, 35.24230225133316 65.50295857988165, 34.92791729884681 66.30177514792899, 34.19221810516865 67.10059171597634, 37.40322393679663 67.89940828402366, 34.99434634480022 68.69822485207101, 34.167535450414185 69.49704142011834, 37.733803431619975 70.29585798816568, 38.3232502945902 71.09467455621302, 38.349370908713226 71.89349112426036, 39.2348989652212 72.6923076923077, 39.810684888630085 73.49112426035504, 39.43350814838652 74.28994082840237, 40.81674463423007 75.0887573964497, 44.223302201780584 75.88757396449704, 44.56147865674153 76.68639053254438, 43.71640576543515 77.48520710059172, 45.31131382221636 78.28402366863905, 44.68095782170943 79.0828402366864, 43.669148236466036 79.88165680473374, 42.42320132923694 80.68047337278107, 41.175317436494794 81.4792899408284, 43.23830587887262 82.27810650887574, 40.95999111330524 83.07692307692308, 41.68595894497861 83.87573964497041, 40.07564215999967 84.67455621301775, 39.652475055338215 85.4733727810651, 39.04111918173673 86.27218934911244, 34.905286547333205 87.07100591715975, 35.0707005848003 87.8698224852071, 37.405543758174815 88.66863905325444, 38.697929477538736 89.46745562130178, 37.23754389491245 90.26627218934911, 35.668533678430194 91.06508875739645, 35.24712461236349 91.8639053254438, 35.429114959968494 92.66272189349112, 35.52569642868892 93.46153846153845, 35.49099014683696 94.2603550295858, 35.907587593152314 95.05917159763314, 35.944362562972096 95.85798816568047, 36.40567865451603 96.65680473372781, 38.77614194517985 97.45562130177515, 39.328877368469314 98.2544378698225, 40.92932948619145 99.05325443786982, 42.56276830565145 99.85207100591715, 42.7641559537993 100.6508875739645, 41.698560321076386 101.44970414201183, 41.87397484372717 102.24852071005917, 42.20291355388045 103.04733727810651, 42.22431151572876 103.84615384615385, 41.30467959006388 104.64497041420118, 40.98039642244892 105.44378698224853, 41.98044194910928 106.24260355029585, 43.75949952068272 107.0414201183432, 43.49232214266664 107.84023668639053, 46.82638989716605 108.63905325443787, 46.91287381312935 109.43786982248521, 43.88513893236413 110.23668639053254, 43.33553833410381 111.03550295857988, 43.61449524420404 111.83431952662723, 43.14519712893403 112.63313609467457, 42.694951108275006 113.43195266272188, 41.72450764086641 114.23076923076923, 40.7777508846842 115.02958579881657, 39.652162234097304 115.82840236686391, 36.46985697736434 116.62721893491124, 39.28606484294879 117.42603550295858, 39.82909273155109 118.22485207100593, 39.451900059813546 119.02366863905324, 38.53775009971434 119.82248520710058, 37.24857155905196 120.62130177514793, 38.588399118811076 121.42011834319527, 37.82647563858964 122.2189349112426, 40.595342716581264 123.01775147928994, 34.93706872156311 123.81656804733728, 50.0 124.61538461538463, 48.932952111728376 125.41420118343194, 47.61269348415097 126.21301775147928, 45.334363981943355 127.01183431952663, 41.50866509321399 127.81065088757396, 40.83451917877368 128.60946745562129, 40.58369311481839 129.40828402366864, 41.77260484823061 130.20710059171597, 41.03309605775382 131.0059171597633, 40.966942638735624 131.80473372781066, 39.67658021558433 132.60355029585799, 41.28667827632425 133.40236686390534, 41.22659426521541 134.20118343195267, 40.65557944326766" fill="none" stroke="#ff3a33" stroke-width="1.25"/>

</svg>