<?xml version="1.0" standalone="no"?>
<!DOCTYPE svg PUBLIC "-//W3C//DTD SVG 1.1//EN" "http://www.w3.org/Graphics/SVG/1.1/DTD/svg11.dtd">

<svg width="135" height="50" viewBox="0 0 135 50" preserveAspectRatio="none" 
  xmlns="http://www.w3.org/2000/svg"
  xmlns:xlink="http://www.w3.org/1999/xlink">


<polyline points="0.0, 50.0 0.7988165680473372, 45.12804277263138 1.5976331360946745, 38.85777195211682 2.396449704142012, 49.003852350355196 3.195266272189349, 44.423420836877014 3.994082840236686, 48.490535466131554 4.792899408284024, 44.280090377414616 5.591715976331361, 44.699100723492 6.390532544378698, 36.66283379876026 7.189349112426036, 35.37539466723004 7.988165680473372, 32.725354576910696 8.78698224852071, 30.733689159062937 9.585798816568047, 33.319221020407774 10.384615384615385, 28.185095631144453 11.183431952662723, 27.547397329571123 11.982248520710058, 28.19158803819254 12.781065088757396, 23.143198184184076 13.579881656804734, 5.144295149949317 14.378698224852071, 15.158700253143124 15.177514792899409, 12.151068131851897 15.976331360946745, 32.47969016878497 16.775147928994084, 25.182565706054007 17.57396449704142, 19.740736669066724 18.37278106508876, 22.49233403313013 19.171597633136095, 19.25847208334453 19.970414201183434, 23.23440207863489 20.76923076923077, 17.97875379273157 21.56804733727811, 17.817959098486693 22.366863905325445, 16.08580221965507 23.16568047337278, 11.135379139346355 23.964497041420117, 17.106806224772836 24.763313609467456, 21.964563757844207 25.562130177514792, 20.877261853269097 26.36094674556213, 34.46741460580319 27.159763313609467, 20.72087857432785 27.958579881656807, 26.856893997083137 28.757396449704142, 19.800147117225645 29.55621301775148, 10.624707759930734 30.355029585798817, 17.375061422846912 31.153846153846157, 18.65833182261472 31.95266272189349, 6.940818595683716 32.751479289940825, 19.855005782825728 33.55029585798817, 27.20582411418601 34.349112426035504, 15.736725666347514 35.14792899408284, 28.778645756982936 35.94674556213018, 18.54744376222284 36.74556213017752, 11.147788398029505 37.54437869822485, 17.491447640035005 38.34319526627219, 29.37988489699145 39.142011834319526, 23.27969919162142 39.94082840236687, 25.448112684735502 40.7396449704142, 23.42889402737334 41.53846153846154, 24.771690906506212 42.337278106508876, 19.01325323695184 43.13609467455622, 16.319583516292642 43.93491124260355, 18.494078189508954 44.73372781065089, 12.140398609207503 45.532544378698226, 15.91257608102482 46.33136094674556, 25.165422455779023 47.1301775147929, 18.08245518936417 47.928994082840234, 20.91235093599628 48.72781065088758, 20.828415524137622 49.52662721893491, 20.89676056831985 50.32544378698225, 28.871500397286503 51.124260355029584, 36.3248482332646 51.92307692307693, 25.994663125410273 52.72189349112426, 27.00361650357222 53.5207100591716, 32.216115312901486 54.319526627218934, 24.64829872610292 55.11834319526627, 27.749670874959147 55.91715976331361, 30.396794793142163 56.71597633136094, 29.047916923193785 57.514792899408285, 22.623074400100883 58.31360946745562, 32.09111116075073 59.11242603550296, 45.07114594400271 59.91124260355029, 32.461808975451184 60.710059171597635, 23.873482398004473 61.50887573964497, 28.878661900339807 62.307692307692314, 29.592354044511637 63.10650887573964, 35.98610129384518 63.90532544378698, 34.2890114860541 64.70414201183432, 35.02101721287492 65.50295857988165, 33.81229918131954 66.30177514792899, 31.410059758225962 67.10059171597634, 27.891289972544968 67.89940828402366, 24.51197431085674 68.69822485207101, 21.422877517387043 69.49704142011834, 26.859773942105058 70.29585798816568, 11.578955900613987 71.09467455621302, 10.013881679891554 71.89349112426036, 13.61131499107883 72.6923076923077, 9.070151890487091 73.49112426035504, 4.7063656037454615 74.28994082840237, 9.397739134607262 75.0887573964497, 6.427846827260584 75.88757396449704, 15.757820939131426 76.68639053254438, 9.060850105818481 77.48520710059172, 12.702772601206538 78.28402366863905, 9.096204264857997 79.0828402366864, 11.145382574135796 79.88165680473374, 9.208675042563566 80.68047337278107, 8.26550210938729 81.4792899408284, 11.958722685513086 82.27810650887574, 12.45515625872486 83.07692307692308, 15.14075082320855 83.87573964497041, 14.840655065115735 84.67455621301775, 9.999068536527634 85.4733727810651, 9.222304629654639 86.27218934911244, 11.735021280884027 87.07100591715975, 14.473389629982291 87.8698224852071, 8.942842291585848 88.66863905325444, 12.726133685577562 89.46745562130178, 13.131455611213472 90.26627218934911, 16.21974093658 91.06508875739645, 17.477776357226986 91.8639053254438, 17.810792223879517 92.66272189349112, 9.882089491607589 93.46153846153845, 10.823320566399808 94.2603550295858, 15.785862581523267 95.05917159763314, 16.78744854038719 95.85798816568047, 12.935523749673191 96.65680473372781, 6.206701163847073 97.45562130177515, 20.084264536447265 98.2544378698225, 12.084731154911916 99.05325443786982, 8.902014884588692 99.85207100591715, 12.30013253398915 100.6508875739645, 14.878214930852499 101.44970414201183, 13.373376726863023 102.24852071005917, 12.978744749712353 103.04733727810651, 14.557451140093324 103.84615384615385, 15.12378078139521 104.64497041420118, 16.129843502935127 105.44378698224853, 11.63224838404968 106.24260355029585, 14.021629475007774 107.0414201183432, 13.524241848039233 107.84023668639053, 20.29255698823633 108.63905325443787, 14.79254615559781 109.43786982248521, 14.58140729664717 110.23668639053254, 11.585508666688044 111.03550295857988, 13.073231646755751 111.83431952662723, 16.29948526552945 112.63313609467457, 9.648922564660669 113.43195266272188, 19.23638450337429 114.23076923076923, 12.815248284498931 115.02958579881657, 15.102836784037196 115.82840236686391, 17.610939365063768 116.62721893491124, 18.06029231270029 117.42603550295858, 10.608883635717383 118.22485207100593, 12.597334051606918 119.02366863905324, 13.812668423340705 119.82248520710058, 11.517167133634999 120.62130177514793, 9.752433789573807 121.42011834319527, 2.8996558457960346 122.2189349112426, 9.984834618370405 123.01775147928994, 3.0776606676201417 123.81656804733728, 8.891902317576188 124.61538461538463, 5.367293639937061 125.41420118343194, 7.722351217451716 126.21301775147928, 10.06143063033591 127.01183431952663, 6.210318789686686 127.81065088757396, 6.3639556763084375 128.60946745562129, 16.15207453347898 129.40828402366864, 9.007279656975689 130.20710059171597, 10.269268717639076 131.0059171597633, 0.0 131.80473372781066, 10.735213393984571 132.60355029585799, 14.391128248979179 133.40236686390534, 17.75921439087852 134.20118343195267, 10.751128571161066" fill="none" stroke="#32ca5b" stroke-width="1.25"/>

</svg>