<?xml version="1.0" standalone="no"?>
<!DOCTYPE svg PUBLIC "-//W3C//DTD SVG 1.1//EN" "http://www.w3.org/Graphics/SVG/1.1/DTD/svg11.dtd">

<svg width="135" height="50" viewBox="0 0 135 50" preserveAspectRatio="none" 
  xmlns="http://www.w3.org/2000/svg"
  xmlns:xlink="http://www.w3.org/1999/xlink">


<polyline points="0.0, 42.78990802910309 0.7941176470588235, 43.49063913712094 1.588235294117647, 44.221308910344085 2.3823529411764706, 42.782147533100684 3.176470588235294, 41.12877875446952 3.9705882352941178, 37.474838987261634 4.764705882352941, 34.28063201506643 5.5588235294117645, 34.64602519614819 6.352941176470588, 32.14607644592022 7.147058823529411, 35.74496530171414 7.9411764705882355, 36.531084899310926 8.73529411764706, 38.134511363130876 9.529411764705882, 38.25483959389205 10.323529411764707, 39.92593454009686 11.117647058823529, 39.041313515473675 11.911764705882353, 42.38245865129376 12.705882352941176, 43.564626277956904 13.5, 44.981027237522966 14.294117647058822, 44.54691678907197 15.088235294117649, 45.03108812077771 15.882352941176471, 41.72094148881798 16.676470588235293, 41.33118257317233 17.47058823529412, 40.573016745145935 18.26470588235294, 39.40087454149928 19.058823529411764, 38.82269893535037 19.85294117647059, 40.113294762543774 20.647058823529413, 42.0916080136894 21.441176470588236, 41.73523370761376 22.235294117647058, 41.77793627085037 23.029411764705884, 42.115478619973004 23.823529411764707, 42.14769544389772 24.61764705882353, 42.66777364113186 25.41176470588235, 45.04558208391847 26.205882352941178, 43.454552983699514 27.0, 45.97805176996207 27.794117647058822, 46.232012291832056 28.588235294117645, 47.10845950599835 29.38235294117647, 44.08554803586443 30.176470588235297, 45.590015704983195 30.970588235294116, 46.816818319095894 31.764705882352942, 46.13513001031061 32.55882352941177, 44.72268224830525 33.35294117647059, 47.28300010469961 34.14705882352941, 48.674499173072576 34.94117647058824, 49.064409871249346 35.73529411764706, 50.0 36.52941176470588, 47.578077092577686 37.32352941176471, 47.96635386393531 38.11764705882353, 47.273890479148456 38.91176470588235, 45.51932397284395 39.70588235294118, 45.50152087729805 40.5, 43.42961015827732 41.294117647058826, 42.53878435764884 42.088235294117645, 41.625410411330144 42.88235294117647, 41.71715108769103 43.6764705882353, 40.04459018616593 44.470588235294116, 38.20217704373226 45.264705882352935, 32.06343201010751 46.05882352941177, 29.324040242641324 46.85294117647059, 23.380897694593543 47.64705882352941, 25.145354247283443 48.44117647058824, 21.70187303572565 49.23529411764706, 22.03612165419305 50.029411764705884, 17.90540772701558 50.8235294117647, 17.697356553445246 51.61764705882353, 18.324264074446656 52.411764705882355, 16.02479561109845 53.205882352941174, 16.216181311039517 54.0, 13.597262423499739 54.794117647058826, 7.7795102809381245 55.588235294117645, 6.405366890737381 56.38235294117647, 8.45176911459667 57.17647058823529, 11.658440023417215 57.970588235294116, 8.654530773298964 58.76470588235294, 4.521826068755941 59.55882352941176, 2.7710751570604644 60.352941176470594, 2.5679342152310247 61.14705882352941, 1.4835172351188106 61.94117647058823, 0.0 62.73529411764706, 4.256250201435948 63.529411764705884, 11.899396278890006 64.3235294117647, 14.769683156048579 65.11764705882354, 14.347904654379615 65.91176470588235, 10.707244434758163 66.70588235294117, 11.592417489621605 67.5, 16.087631301613335 68.29411764705883, 16.189327216632034 69.08823529411764, 13.710431417910604 69.88235294117648, 14.877784917797381 70.6764705882353, 15.496392513851301 71.47058823529412, 15.07729194476318 72.26470588235294, 14.054545988647234 73.05882352941175, 15.30957906535566 73.8529411764706, 15.523921706075752 74.64705882352942, 15.7961197343838 75.44117647058823, 15.868032502260052 76.23529411764706, 15.172013930694511 77.02941176470588, 14.694829738823367 77.8235294117647, 19.019671818504154 78.61764705882354, 18.77712985761761 79.41176470588236, 16.450796052092034 80.20588235294117, 14.962907817779941 81.0, 17.368108643229334 81.79411764705881, 17.575731606163284 82.58823529411765, 17.5634464582786 83.38235294117648, 18.13583285978194 84.17647058823529, 15.582534547371479 84.97058823529412, 16.274058099780138 85.76470588235294, 16.39791204653605 86.55882352941177, 15.824984973779266 87.3529411764706, 14.01430491423454 88.14705882352942, 14.904859769185528 88.94117647058823, 13.939612136096688 89.73529411764706, 14.206950058961326 90.52941176470587, 13.008626981145701 91.32352941176471, 12.30688137254888 92.11764705882354, 12.529923986144237 92.91176470588235, 12.568731273170197 93.70588235294117, 11.410284180219334 94.5, 11.767699666595961 95.29411764705883, 10.896463308464842 96.08823529411765, 8.654194710783933 96.88235294117648, 8.193080787825439 97.67647058823529, 7.93108657283396 98.47058823529412, 6.786097470532733 99.26470588235294, 6.407668097483084 100.05882352941177, 6.95693428011947 100.8529411764706, 7.958121727048267 101.6470588235294, 7.052896702109337 102.44117647058823, 9.533365104481135 103.23529411764706, 8.74156080339236 104.02941176470588, 9.259581442514305 104.82352941176471, 8.692846504887408 105.61764705882352, 6.3124364304781535 106.41176470588235, 9.488928845923601 107.20588235294117, 9.468908370365751 108.0, 9.489976814400961 108.79411764705883, 9.521335735762717 109.58823529411765, 10.9983151161452 110.38235294117646, 11.833935545308364 111.17647058823529, 12.735889017868049 111.97058823529413, 13.239959915323258 112.76470588235294, 14.051157210200508 113.55882352941177, 13.72436329140369 114.35294117647058, 13.139541848942219 115.1470588235294, 13.475118140584637 115.94117647058823, 14.494949537170315 116.73529411764706, 15.160800448554458 117.52941176470588, 14.504018421732159 118.32352941176471, 14.201541237850865 119.11764705882352, 14.38463317675688 119.91176470588235, 11.268709156844407 120.70588235294119, 13.134969601464435 121.5, 15.073008241634625 122.29411764705883, 17.698774831623098 123.08823529411764, 15.638314943831885 123.88235294117646, 17.721659510750044 124.6764705882353, 16.915895653650516 125.47058823529412, 16.823667090437272 126.26470588235294, 14.856547456482689 127.05882352941177, 12.841578932483886 127.85294117647058, 10.949013189405926 128.6470588235294, 10.641812495577865 129.44117647058823, 11.244105556538631 130.23529411764707, 10.728861910674931 131.02941176470588, 9.78615564598005 131.8235294117647, 9.393521988291935 132.61764705882354, 10.166600185531381 133.41176470588235, 8.59599120436468 134.2058823529412, 8.201468315359689" fill="none" stroke="#32ca5b" stroke-width="1.25"/>

</svg>