<?xml version="1.0" standalone="no"?>
<!DOCTYPE svg PUBLIC "-//W3C//DTD SVG 1.1//EN" "http://www.w3.org/Graphics/SVG/1.1/DTD/svg11.dtd">

<svg width="135" height="50" viewBox="0 0 135 50" preserveAspectRatio="none" 
  xmlns="http://www.w3.org/2000/svg"
  xmlns:xlink="http://www.w3.org/1999/xlink">


<polyline points="0.0, 3.580218329391545 0.7988165680473372, 8.35924804392491 1.5976331360946745, 6.2331192371611355 2.396449704142012, 16.49976687664036 3.195266272189349, 12.941810823474572 3.994082840236686, 12.967094257687753 4.792899408284024, 5.57324189620823 5.591715976331361, 1.4645785220682226 6.390532544378698, 6.30928532539168 7.189349112426036, 3.7781867567495193 7.988165680473372, 4.012255106547357 8.78698224852071, 6.496796302661193 9.585798816568047, 5.312862981062751 10.384615384615385, 8.77145172099895 11.183431952662723, 12.004616040809609 11.982248520710058, 14.342035962992309 12.781065088757396, 12.670277195459276 13.579881656804734, 22.93281179577203 14.378698224852071, 19.750311163796606 15.177514792899409, 18.81594679283901 15.976331360946745, 18.387459349057554 16.775147928994084, 23.17280499844185 17.57396449704142, 29.014845841143106 18.37278106508876, 40.466781353006034 19.171597633136095, 33.91433336694371 19.970414201183434, 42.85264384647048 20.76923076923077, 35.647181802142725 21.56804733727811, 35.69119771159511 22.366863905325445, 34.554669591499085 23.16568047337278, 33.24181722801816 23.964497041420117, 33.40154676761585 24.763313609467456, 33.17694272834667 25.562130177514792, 32.312100084457754 26.36094674556213, 32.95392454049868 27.159763313609467, 35.80221774349819 27.958579881656807, 34.54107583263627 28.757396449704142, 34.77784377470196 29.55621301775148, 33.5008702533413 30.355029585798817, 34.04031609712763 31.153846153846157, 48.45893027653304 31.95266272189349, 45.01234562429826 32.751479289940825, 42.37989998479216 33.55029585798817, 45.68842646966627 34.349112426035504, 46.51225719275857 35.14792899408284, 45.73489134602588 35.94674556213018, 47.38887902898253 36.74556213017752, 44.601203623645155 37.54437869822485, 41.75360554467957 38.34319526627219, 43.42472532970088 39.142011834319526, 45.09975176426465 39.94082840236687, 48.141210018540846 40.7396449704142, 50.0 41.53846153846154, 49.44169377143896 42.337278106508876, 49.90908708461336 43.13609467455622, 45.35103297142064 43.93491124260355, 48.403882459783375 44.73372781065089, 42.79008206845216 45.532544378698226, 42.799367620723885 46.33136094674556, 49.58416117603025 47.1301775147929, 31.959432523871833 47.928994082840234, 26.194903605268443 48.72781065088758, 27.784736925714444 49.52662721893491, 26.040029611907396 50.32544378698225, 21.32030060051126 51.124260355029584, 17.889320925475687 51.92307692307693, 20.162717317488717 52.72189349112426, 17.541209007300367 53.5207100591716, 15.70553033221456 54.319526627218934, 14.995454968463035 55.11834319526627, 15.656784540583788 55.91715976331361, 16.131488212414727 56.71597633136094, 19.262159451249435 57.514792899408285, 18.52094316307368 58.31360946745562, 17.82643930546362 59.11242603550296, 16.236621267096325 59.91124260355029, 18.718486381592957 60.710059171597635, 18.665626805584147 61.50887573964497, 17.851953575237427 62.307692307692314, 16.980413737573308 63.10650887573964, 17.61727652381956 63.90532544378698, 21.53359886276788 64.70414201183432, 22.635098606594045 65.50295857988165, 20.935575341635072 66.30177514792899, 17.550468242166612 67.10059171597634, 15.521557737922437 67.89940828402366, 16.15069239125038 68.69822485207101, 17.686487002842767 69.49704142011834, 17.1259348984116 70.29585798816568, 15.448530007384772 71.09467455621302, 10.421277108003098 71.89349112426036, 12.093486789388187 72.6923076923077, 13.704457798838938 73.49112426035504, 10.91597625937207 74.28994082840237, 11.142137640658408 75.0887573964497, 12.89565332328505 75.88757396449704, 16.539342986893686 76.68639053254438, 17.032198689434964 77.48520710059172, 13.92225299310121 78.28402366863905, 17.53423023700826 79.0828402366864, 16.834498441096713 79.88165680473374, 14.297922413149806 80.68047337278107, 14.593047362062695 81.4792899408284, 15.06689879162169 82.27810650887574, 15.546882691357297 83.07692307692308, 14.670167734435038 83.87573964497041, 16.030044938232372 84.67455621301775, 15.231068071768178 85.4733727810651, 17.007544010697035 86.27218934911244, 16.526836717360922 87.07100591715975, 17.538676088038997 87.8698224852071, 25.350870073759253 88.66863905325444, 25.026208243106456 89.46745562130178, 24.28200688541943 90.26627218934911, 25.03114507916614 91.06508875739645, 25.960512685175267 91.8639053254438, 25.695872683769462 92.66272189349112, 26.77135258496431 93.46153846153845, 28.319173170743987 94.2603550295858, 27.844392202276275 95.05917159763314, 26.87119583453 95.85798816568047, 27.849605086598118 96.65680473372781, 29.546550861888882 97.45562130177515, 28.297338338051226 98.2544378698225, 29.871213598145008 99.05325443786982, 27.954992891402732 99.85207100591715, 27.61897940730556 100.6508875739645, 26.0195853712155 101.44970414201183, 23.319381474552912 102.24852071005917, 24.65025009890346 103.04733727810651, 22.047063537432336 103.84615384615385, 20.3279344365976 104.64497041420118, 21.497531594538025 105.44378698224853, 21.143047057363095 106.24260355029585, 20.368272502749825 107.0414201183432, 19.720267473058268 107.84023668639053, 17.21132139466588 108.63905325443787, 18.874530376274755 109.43786982248521, 19.700747882150065 110.23668639053254, 19.031297798590764 111.03550295857988, 18.139300766349518 111.83431952662723, 15.782388181958055 112.63313609467457, 18.36931625688 113.43195266272188, 16.30865391058883 114.23076923076923, 16.11331196816813 115.02958579881657, 15.902984877525391 115.82840236686391, 16.389079965382827 116.62721893491124, 17.358783512902814 117.42603550295858, 19.364993372570392 118.22485207100593, 18.404131615849153 119.02366863905324, 18.964292981015973 119.82248520710058, 16.10148613891989 120.62130177514793, 14.165179834872408 121.42011834319527, 15.11322131541186 122.2189349112426, 14.66899123462644 123.01775147928994, 19.022627219273357 123.81656804733728, 17.531275377619952 124.61538461538463, 17.164183539132438 125.41420118343194, 15.990147160266305 126.21301775147928, 13.597174147267754 127.01183431952663, 10.400673210790538 127.81065088757396, 7.4448189065513075 128.60946745562129, 5.783374673107032 129.40828402366864, 4.731465685670835 130.20710059171597, 7.347227064411539 131.0059171597633, 4.493544833687906 131.80473372781066, 2.4254788990492693 132.60355029585799, 4.362900079809628 133.40236686390534, 5.056852526758686 134.20118343195267, 0.0" fill="none" stroke="#32ca5b" stroke-width="1.25"/>

</svg>