<?xml version="1.0" standalone="no"?>
<!DOCTYPE svg PUBLIC "-//W3C//DTD SVG 1.1//EN" "http://www.w3.org/Graphics/SVG/1.1/DTD/svg11.dtd">

<svg width="135" height="50" viewBox="0 0 135 50" preserveAspectRatio="none" 
  xmlns="http://www.w3.org/2000/svg"
  xmlns:xlink="http://www.w3.org/1999/xlink">


<polyline points="0.0, 37.357022401086226 0.7988165680473372, 36.14485227007903 1.5976331360946745, 37.263808718767486 2.396449704142012, 37.242521705786174 3.195266272189349, 39.625228940642 3.994082840236686, 39.17258410474359 4.792899408284024, 38.55986231611446 5.591715976331361, 39.74645256148281 6.390532544378698, 27.33318115466514 7.189349112426036, 27.151677914127674 7.988165680473372, 36.415112257623434 8.78698224852071, 36.017309423099896 9.585798816568047, 37.16916785645835 10.384615384615385, 24.57938201777937 11.183431952662723, 23.256124388024066 11.982248520710058, 35.90015576772239 12.781065088757396, 40.87228289152004 13.579881656804734, 40.43838611756082 14.378698224852071, 40.54687420771537 15.177514792899409, 40.597374140063216 15.976331360946745, 40.84557475283175 16.775147928994084, 40.40371041426758 17.57396449704142, 39.380538552499516 18.37278106508876, 39.75312299012658 19.171597633136095, 40.23464296082519 19.970414201183434, 20.7589365099601 20.76923076923077, 21.188897099331257 21.56804733727811, 31.942771608483213 22.366863905325445, 20.748586704927995 23.16568047337278, 36.9655808769327 23.964497041420117, 36.44271783158828 24.763313609467456, 38.95985582307334 25.562130177514792, 38.13497967304447 26.36094674556213, 37.66181445534854 27.159763313609467, 29.828075053689894 27.958579881656807, 38.10764645912696 28.757396449704142, 29.733867335007663 29.55621301775148, 28.266391581510923 30.355029585798817, 40.40273344892275 31.153846153846157, 32.36106178602153 31.95266272189349, 29.800178912670372 32.751479289940825, 40.01943689445345 33.55029585798817, 30.759287169834565 34.349112426035504, 31.811255939366095 35.14792899408284, 29.8973522709558 35.94674556213018, 30.3945189101687 36.74556213017752, 42.085776013778194 37.54437869822485, 40.860989398035215 38.34319526627219, 40.14007347620183 39.142011834319526, 37.907288928077136 39.94082840236687, 16.21426564499576 40.7396449704142, 26.98859746642004 41.53846153846154, 24.603799836702045 42.337278106508876, 27.870084297296426 43.13609467455622, 7.431661202220711 43.93491124260355, 9.488405164781437 44.73372781065089, 19.199017199376904 45.532544378698226, 9.69497730494987 46.33136094674556, 25.569561519901185 47.1301775147929, 5.071888156104256 47.928994082840234, 23.633222878878417 48.72781065088758, 21.79742202332304 49.52662721893491, 17.241193597419628 50.32544378698225, 17.884913651830843 51.124260355029584, 0.9916865940298604 51.92307692307693, 0.7690083093040112 52.72189349112426, 0.0 53.5207100591716, 19.436564773719795 54.319526627218934, 2.4803088795537986 55.11834319526627, 2.8683332073089525 55.91715976331361, 26.071595007180807 56.71597633136094, 25.39831911612218 57.514792899408285, 22.985937390139828 58.31360946745562, 14.421475402318567 59.11242603550296, 14.061553223155402 59.91124260355029, 4.9765087494014635 60.710059171597635, 23.165862713415716 61.50887573964497, 15.34541104723693 62.307692307692314, 17.251456091808244 63.10650887573964, 1.2908049713946075 63.90532544378698, 2.208303376744843 64.70414201183432, 21.02302399264724 65.50295857988165, 23.207476614426568 66.30177514792899, 20.18875915409698 67.10059171597634, 19.24047902761177 67.89940828402366, 19.7497714895454 68.69822485207101, 24.807163758623698 69.49704142011834, 20.475693272636132 70.29585798816568, 27.66784443918705 71.09467455621302, 4.950002219809241 71.89349112426036, 8.737077350261616 72.6923076923077, 12.381606564722624 73.49112426035504, 30.10884656680003 74.28994082840237, 29.067167946190015 75.0887573964497, 30.610159355338496 75.88757396449704, 32.61109395162773 76.68639053254438, 29.07901612091527 77.48520710059172, 27.932592136799016 78.28402366863905, 16.749029165741256 79.0828402366864, 34.884667303453064 79.88165680473374, 33.45645323813068 80.68047337278107, 33.284354414318045 81.4792899408284, 35.36990874576759 82.27810650887574, 39.14954680804122 83.07692307692308, 15.304180922441047 83.87573964497041, 20.30034135475485 84.67455621301775, 40.42167161446946 85.4733727810651, 40.23649327658575 86.27218934911244, 31.39261977363591 87.07100591715975, 28.904316665310226 87.8698224852071, 16.94839286890917 88.66863905325444, 18.7358524348256 89.46745562130178, 25.003238339919026 90.26627218934911, 16.764817787634694 91.06508875739645, 16.92597631948183 91.8639053254438, 15.818804099514042 92.66272189349112, 17.964161424516 93.46153846153845, 32.05908796195684 94.2603550295858, 36.063954752821665 95.05917159763314, 19.278204708590216 95.85798816568047, 32.94505820357386 96.65680473372781, 20.26889167600343 97.45562130177515, 37.5832708742654 98.2544378698225, 39.7992440092262 99.05325443786982, 25.890355767579404 99.85207100591715, 27.94039115250947 100.6508875739645, 44.74895679802451 101.44970414201183, 27.565534854635874 102.24852071005917, 27.569780888001137 103.04733727810651, 27.79459645775455 103.84615384615385, 27.525789580924158 104.64497041420118, 27.886858864731938 105.44378698224853, 25.129474541982592 106.24260355029585, 34.10911677754776 107.0414201183432, 26.56612664545656 107.84023668639053, 34.712973921850775 108.63905325443787, 30.885482834174567 109.43786982248521, 24.507090367658098 110.23668639053254, 24.98061310869379 111.03550295857988, 25.512777933261983 111.83431952662723, 25.017112197904616 112.63313609467457, 23.739987031807804 113.43195266272188, 23.196115693803925 114.23076923076923, 23.22543228255988 115.02958579881657, 23.907650551809926 115.82840236686391, 23.996887425089426 116.62721893491124, 24.311929927924293 117.42603550295858, 34.428974012087 118.22485207100593, 25.686801996023966 119.02366863905324, 27.028631756726156 119.82248520710058, 42.653726766227365 120.62130177514793, 44.598028599649886 121.42011834319527, 42.6856442374495 122.2189349112426, 46.94722578112663 123.01775147928994, 50.0 123.81656804733728, 48.393304241922344 124.61538461538463, 49.06592230963256 125.41420118343194, 47.494644785284365 126.21301775147928, 32.194922852512015 127.01183431952663, 30.72587053197577 127.81065088757396, 26.64132174976432 128.60946745562129, 26.58359200043094 129.40828402366864, 36.02486860384946 130.20710059171597, 36.46533543484986 131.0059171597633, 24.820279467002507 131.80473372781066, 24.01871584822256 132.60355029585799, 33.44554791713206 133.40236686390534, 34.27222639227459 134.20118343195267, 21.97475638999752" fill="none" stroke="#32ca5b" stroke-width="1.25"/>

</svg>