<?xml version="1.0" standalone="no"?>
<!DOCTYPE svg PUBLIC "-//W3C//DTD SVG 1.1//EN" "http://www.w3.org/Graphics/SVG/1.1/DTD/svg11.dtd">

<svg width="135" height="50" viewBox="0 0 135 50" preserveAspectRatio="none" 
  xmlns="http://www.w3.org/2000/svg"
  xmlns:xlink="http://www.w3.org/1999/xlink">


<polyline points="0.0, 35.24140408351753 0.7988165680473372, 36.190238997975875 1.5976331360946745, 36.05472575645561 2.396449704142012, 40.335322391700146 3.195266272189349, 38.9566195465659 3.994082840236686, 38.444018611940585 4.792899408284024, 38.60297758471494 5.591715976331361, 38.76839318363418 6.390532544378698, 39.34523043238991 7.189349112426036, 41.23859498622906 7.988165680473372, 38.489372239739446 8.78698224852071, 32.98643393142864 9.585798816568047, 33.62921859520828 10.384615384615385, 30.668930667430992 11.183431952662723, 37.99188068128575 11.982248520710058, 42.643901652070326 12.781065088757396, 44.07375361050636 13.579881656804734, 42.697348602412355 14.378698224852071, 42.50156669205586 15.177514792899409, 39.88372722802723 15.976331360946745, 38.85252669975055 16.775147928994084, 37.60701057035092 17.57396449704142, 34.15245758620687 18.37278106508876, 30.064555133436105 19.171597633136095, 6.901541654230534 19.970414201183434, 9.361990073471224 20.76923076923077, 9.940119472815537 21.56804733727811, 9.775873170136009 22.366863905325445, 13.194613638705773 23.16568047337278, 14.661979945997281 23.964497041420117, 16.66089596667146 24.763313609467456, 14.237937766179492 25.562130177514792, 13.456383983021064 26.36094674556213, 14.827484516604517 27.159763313609467, 13.956067673069034 27.958579881656807, 17.92230840333582 28.757396449704142, 15.712513285974605 29.55621301775148, 14.039366246392412 30.355029585798817, 10.000319888248946 31.153846153846157, 7.761425623318095 31.95266272189349, 1.0053272412303966 32.751479289940825, 5.469203673156282 33.55029585798817, 8.591875446449285 34.349112426035504, 9.818950897148394 35.14792899408284, 9.87492581881446 35.94674556213018, 4.0887011107710425 36.74556213017752, 6.328741044727194 37.54437869822485, 0.0 38.34319526627219, 13.346256143988239 39.142011834319526, 20.19587606887691 39.94082840236687, 18.728187176284518 40.7396449704142, 19.504875961117907 41.53846153846154, 17.022444459591863 42.337278106508876, 15.57931098099822 43.13609467455622, 14.432096307832174 43.93491124260355, 12.252324323703935 44.73372781065089, 12.373246194265516 45.532544378698226, 11.568502482545082 46.33136094674556, 14.686605957259621 47.1301775147929, 15.27982153520476 47.928994082840234, 18.23959414817631 48.72781065088758, 23.328534709129194 49.52662721893491, 20.16454290784017 50.32544378698225, 18.01885426886575 51.124260355029584, 21.472977889276613 51.92307692307693, 18.83522526276963 52.72189349112426, 17.614105150962004 53.5207100591716, 18.50334884400833 54.319526627218934, 16.906048257523032 55.11834319526627, 18.77797156761119 55.91715976331361, 20.92251120793551 56.71597633136094, 20.975610755782675 57.514792899408285, 25.662256703359926 58.31360946745562, 28.160655458163042 59.11242603550296, 31.989223420185787 59.91124260355029, 35.89202168594116 60.710059171597635, 36.91371647910956 61.50887573964497, 37.16281991146126 62.307692307692314, 36.37967730699968 63.10650887573964, 38.431553758948354 63.90532544378698, 38.26131789245581 64.70414201183432, 37.73971174208689 65.50295857988165, 36.013889176844145 66.30177514792899, 34.96113966353684 67.10059171597634, 36.98038634621575 67.89940828402366, 36.47733764166953 68.69822485207101, 35.245683832968474 69.49704142011834, 38.46842011394001 70.29585798816568, 38.09783606289987 71.09467455621302, 36.81876339617608 71.89349112426036, 37.610150155796774 72.6923076923077, 36.63755475808191 73.49112426035504, 35.62108044141639 74.28994082840237, 36.65181631723306 75.0887573964497, 38.67179231656756 75.88757396449704, 39.86975671545751 76.68639053254438, 38.96645642947152 77.48520710059172, 42.17846776543751 78.28402366863905, 43.31959805494694 79.0828402366864, 41.44172199556363 79.88165680473374, 39.4023959005695 80.68047337278107, 39.479710768699135 81.4792899408284, 40.32642848484547 82.27810650887574, 38.687625195987906 83.07692307692308, 29.56071129268154 83.87573964497041, 28.49556051415162 84.67455621301775, 29.6981036138367 85.4733727810651, 31.690978872678656 86.27218934911244, 33.57816580595272 87.07100591715975, 34.68545611164695 87.8698224852071, 36.74211060810156 88.66863905325444, 37.35988222378667 89.46745562130178, 35.99207063812502 90.26627218934911, 32.8675138312595 91.06508875739645, 33.36806942594527 91.8639053254438, 33.56359791968607 92.66272189349112, 33.34105210512083 93.46153846153845, 34.055861972166625 94.2603550295858, 34.512898471328974 95.05917159763314, 34.844004046161594 95.85798816568047, 36.23995390936807 96.65680473372781, 35.33152555945555 97.45562130177515, 36.73490461351243 98.2544378698225, 37.964570192887045 99.05325443786982, 38.93285245266107 99.85207100591715, 40.40708464293752 100.6508875739645, 40.7561047360883 101.44970414201183, 41.52639000688422 102.24852071005917, 41.93587363503374 103.04733727810651, 41.94616139656188 103.84615384615385, 42.490495297301 104.64497041420118, 41.12280084643884 105.44378698224853, 39.77202249089374 106.24260355029585, 40.344453238007816 107.0414201183432, 39.84352438223348 107.84023668639053, 41.577867129082954 108.63905325443787, 43.00925249655523 109.43786982248521, 41.41961102555802 110.23668639053254, 42.22388530223816 111.03550295857988, 41.267981390336836 111.83431952662723, 40.85917049356924 112.63313609467457, 41.04078436802929 113.43195266272188, 41.9005505308059 114.23076923076923, 41.76499090235971 115.02958579881657, 42.96616691908772 115.82840236686391, 44.64182505193475 116.62721893491124, 44.48267162375329 117.42603550295858, 43.18585994110044 118.22485207100593, 43.87128223695228 119.02366863905324, 43.620765366186504 119.82248520710058, 41.93116587654425 120.62130177514793, 44.01303386822863 121.42011834319527, 43.82440201438971 122.2189349112426, 49.962861570690194 123.01775147928994, 49.893399745730335 123.81656804733728, 50.0 124.61538461538463, 48.45869000031195 125.41420118343194, 48.719974215932545 126.21301775147928, 45.82864342988021 127.01183431952663, 41.319505919667115 127.81065088757396, 38.16050663927727 128.60946745562129, 39.05688122298624 129.40828402366864, 40.40116652533559 130.20710059171597, 38.24450647912671 131.0059171597633, 38.35876389848221 131.80473372781066, 37.03860103378801 132.60355029585799, 37.77736472260323 133.40236686390534, 36.271169300331366 134.20118343195267, 35.88055710548941" fill="none" stroke="#ff3a33" stroke-width="1.25"/>

</svg>