<?xml version="1.0" standalone="no"?>
<!DOCTYPE svg PUBLIC "-//W3C//DTD SVG 1.1//EN" "http://www.w3.org/Graphics/SVG/1.1/DTD/svg11.dtd">

<svg width="135" height="50" viewBox="0 0 135 50" preserveAspectRatio="none" 
  xmlns="http://www.w3.org/2000/svg"
  xmlns:xlink="http://www.w3.org/1999/xlink">


<polyline points="0.0, 37.683585664131236 0.7988165680473372, 39.411059548951314 1.5976331360946745, 38.674007808011 2.396449704142012, 38.308876323171816 3.195266272189349, 38.32729410558197 3.994082840236686, 37.89483149318574 4.792899408284024, 38.63833272867571 5.591715976331361, 41.00563117622348 6.390532544378698, 39.52465607535582 7.189349112426036, 39.33718125032172 7.988165680473372, 38.46284215454044 8.78698224852071, 39.361078892757966 9.585798816568047, 39.70868583205757 10.384615384615385, 35.66409734506738 11.183431952662723, 39.8103855125235 11.982248520710058, 40.41076336780123 12.781065088757396, 42.37530551509066 13.579881656804734, 45.61419518301835 14.378698224852071, 46.57481714753345 15.177514792899409, 46.10129943627243 15.976331360946745, 46.13023494110474 16.775147928994084, 44.87798047237244 17.57396449704142, 45.93012090333374 18.37278106508876, 43.64966472219693 19.171597633136095, 43.599974873936205 19.970414201183434, 43.314002610503714 20.76923076923077, 42.598535924299306 21.56804733727811, 43.215609432930876 22.366863905325445, 42.36849210215747 23.16568047337278, 43.382512067858784 23.964497041420117, 43.29643014934022 24.763313609467456, 45.02337481864946 25.562130177514792, 44.438661674741404 26.36094674556213, 46.42217620372119 27.159763313609467, 48.90132631825912 27.958579881656807, 47.82627364904158 28.757396449704142, 46.873566876756506 29.55621301775148, 46.83500857808647 30.355029585798817, 46.47005583083228 31.153846153846157, 46.586572831709624 31.95266272189349, 44.130531013082994 32.751479289940825, 46.256381220875454 33.55029585798817, 46.12834783899458 34.349112426035504, 48.17469002483121 35.14792899408284, 48.99299896069665 35.94674556213018, 45.607923290660224 36.74556213017752, 45.550477898673655 37.54437869822485, 43.39276558038385 38.34319526627219, 48.29200380049747 39.142011834319526, 50.0 39.94082840236687, 48.701704884135445 40.7396449704142, 48.69908457701159 41.53846153846154, 45.9389945675229 42.337278106508876, 47.55334264277282 43.13609467455622, 48.52275861806489 43.93491124260355, 45.24154244268799 44.73372781065089, 46.120314631699635 45.532544378698226, 44.31998547825248 46.33136094674556, 44.91192659453927 47.1301775147929, 45.302891789172364 47.928994082840234, 45.34653887650654 48.72781065088758, 45.824337726273455 49.52662721893491, 42.174884856167715 50.32544378698225, 42.27409803035078 51.124260355029584, 40.37114890106078 51.92307692307693, 40.62521520015653 52.72189349112426, 40.81144631743406 53.5207100591716, 41.77334368113472 54.319526627218934, 39.329164173235206 55.11834319526627, 39.88123828365873 55.91715976331361, 41.39583589685059 56.71597633136094, 41.768945271880646 57.514792899408285, 40.573846751458326 58.31360946745562, 39.811609045615285 59.11242603550296, 45.0250308056718 59.91124260355029, 45.206913430515236 60.710059171597635, 45.04984948979215 61.50887573964497, 45.453296722043746 62.307692307692314, 44.30834500032238 63.10650887573964, 43.641945983783046 63.90532544378698, 45.356999120090606 64.70414201183432, 44.28678935176157 65.50295857988165, 43.55240954690592 66.30177514792899, 43.287196343934234 67.10059171597634, 42.95123464649322 67.89940828402366, 43.16273730203067 68.69822485207101, 44.540474549649396 69.49704142011834, 36.258819418040105 70.29585798816568, 32.99432355369593 71.09467455621302, 35.9445650867563 71.89349112426036, 34.508313513196384 72.6923076923077, 0.0 73.49112426035504, 5.72922199527373 74.28994082840237, 14.367623538740265 75.0887573964497, 26.379942735755062 75.88757396449704, 22.273979978488885 76.68639053254438, 17.476163669095932 77.48520710059172, 10.030322493239712 78.28402366863905, 22.627279836260158 79.0828402366864, 28.285731785504257 79.88165680473374, 28.112648808941778 80.68047337278107, 26.136449667470817 81.4792899408284, 28.168793493335052 82.27810650887574, 25.69210794338784 83.07692307692308, 29.863498380853322 83.87573964497041, 28.89890740567061 84.67455621301775, 32.66410689230902 85.4733727810651, 30.763965857559267 86.27218934911244, 30.378926783586795 87.07100591715975, 29.826225117487116 87.8698224852071, 31.32516447718806 88.66863905325444, 29.546177865672018 89.46745562130178, 32.021434856191526 90.26627218934911, 30.64072870407461 91.06508875739645, 34.015937074452985 91.8639053254438, 34.99901686418752 92.66272189349112, 22.838343333310956 93.46153846153845, 28.219446740917796 94.2603550295858, 27.164519927099228 95.05917159763314, 29.28304291790054 95.85798816568047, 28.561217569846693 96.65680473372781, 24.22546921215422 97.45562130177515, 28.979994355068566 98.2544378698225, 31.252155210668132 99.05325443786982, 32.20220567769238 99.85207100591715, 29.33127766113095 100.6508875739645, 29.74221767756396 101.44970414201183, 31.45541567966299 102.24852071005917, 30.256372731223863 103.04733727810651, 31.932152380748015 103.84615384615385, 30.145692738798047 104.64497041420118, 30.275394525330324 105.44378698224853, 31.983245918855296 106.24260355029585, 35.524318321866936 107.0414201183432, 31.014708199617004 107.84023668639053, 35.08595799415692 108.63905325443787, 34.9454811535317 109.43786982248521, 33.442855413489305 110.23668639053254, 32.096934559553084 111.03550295857988, 31.268399093762127 111.83431952662723, 31.156195220320544 112.63313609467457, 31.57587094028578 113.43195266272188, 31.74615388629234 114.23076923076923, 34.840235750185435 115.02958579881657, 32.810218587402 115.82840236686391, 34.37698477943443 116.62721893491124, 31.8104742206842 117.42603550295858, 33.19464945404826 118.22485207100593, 34.05553702146813 119.02366863905324, 33.49648717068385 119.82248520710058, 32.9896157640489 120.62130177514793, 34.104583175253495 121.42011834319527, 34.28833541647385 122.2189349112426, 36.15104485606449 123.01775147928994, 36.74739015051734 123.81656804733728, 36.73830240352668 124.61538461538463, 35.83451467361003 125.41420118343194, 35.83423371885137 126.21301775147928, 33.650393809041354 127.01183431952663, 31.44316317166857 127.81065088757396, 28.47175894888408 128.60946745562129, 31.3558322144536 129.40828402366864, 28.20124293632723 130.20710059171597, 30.355307449146412 131.0059171597633, 32.34289282966782 131.80473372781066, 30.462078967278465 132.60355029585799, 32.34411514777349 133.40236686390534, 33.90171488596162 134.20118343195267, 34.79715267008194" fill="none" stroke="#32ca5b" stroke-width="1.25"/>

</svg>