<?xml version="1.0" standalone="no"?>
<!DOCTYPE svg PUBLIC "-//W3C//DTD SVG 1.1//EN" "http://www.w3.org/Graphics/SVG/1.1/DTD/svg11.dtd">

<svg width="135" height="50" viewBox="0 0 135 50" preserveAspectRatio="none" 
  xmlns="http://www.w3.org/2000/svg"
  xmlns:xlink="http://www.w3.org/1999/xlink">


<polyline points="0.0, 50.0 0.7988165680473372, 48.82618301183979 1.5976331360946745, 48.366090859820396 2.396449704142012, 49.96486851381442 3.195266272189349, 46.75131711685286 3.994082840236686, 22.586258811710866 4.792899408284024, 12.350793514175692 5.591715976331361, 12.22149092403365 6.390532544378698, 18.36768658772816 7.189349112426036, 24.04689589052338 7.988165680473372, 13.729646512235957 8.78698224852071, 10.745744837068585 9.585798816568047, 14.436288940389574 10.384615384615385, 22.142767346757076 11.183431952662723, 26.331045305499828 11.982248520710058, 33.436558245778556 12.781065088757396, 35.531240133282026 13.579881656804734, 35.55808985593057 14.378698224852071, 30.480328613019182 15.177514792899409, 26.969524211163144 15.976331360946745, 26.11793074146864 16.775147928994084, 23.51032393355181 17.57396449704142, 24.528601228709963 18.37278106508876, 24.06416959139113 19.171597633136095, 25.7359661676121 19.970414201183434, 24.503327135473675 20.76923076923077, 27.60542958397414 21.56804733727811, 30.717256981087036 22.366863905325445, 33.766016900917826 23.16568047337278, 36.10600061401067 23.964497041420117, 35.456410611001225 24.763313609467456, 36.29035933341828 25.562130177514792, 33.32909819388695 26.36094674556213, 35.74595302308084 27.159763313609467, 34.90213044634224 27.958579881656807, 41.60620592803685 28.757396449704142, 39.98362784215866 29.55621301775148, 43.171989438082385 30.355029585798817, 46.468592702577226 31.153846153846157, 45.94040841599783 31.95266272189349, 43.24096795856715 32.751479289940825, 47.467480270105575 33.55029585798817, 48.031028520403005 34.349112426035504, 45.672593003921676 35.14792899408284, 45.99343887571429 35.94674556213018, 40.39092603270997 36.74556213017752, 37.65666082601371 37.54437869822485, 37.631655908354475 38.34319526627219, 41.13115969759013 39.142011834319526, 45.92043503211444 39.94082840236687, 46.25266205309621 40.7396449704142, 43.734571385514435 41.53846153846154, 42.41335518062326 42.337278106508876, 37.84801064241723 43.13609467455622, 25.327314756203783 43.93491124260355, 21.441399652867347 44.73372781065089, 11.715522090813806 45.532544378698226, 18.369895828345953 46.33136094674556, 17.519460197617377 47.1301775147929, 22.115965454489256 47.928994082840234, 21.88594800812004 48.72781065088758, 25.404353981940673 49.52662721893491, 18.673631796916187 50.32544378698225, 21.452224444242066 51.124260355029584, 25.896857021409037 51.92307692307693, 22.306992060242642 52.72189349112426, 21.33675993737429 53.5207100591716, 24.108438147675564 54.319526627218934, 18.30320033420349 55.11834319526627, 17.851961054544883 55.91715976331361, 21.0732317908863 56.71597633136094, 23.959410884940446 57.514792899408285, 19.49840810986874 58.31360946745562, 18.219348322408763 59.11242603550296, 24.072440643636746 59.91124260355029, 26.00001243995888 60.710059171597635, 25.270009070571227 61.50887573964497, 26.528116744758663 62.307692307692314, 24.52445944161785 63.10650887573964, 28.134485401465888 63.90532544378698, 28.286375318255825 64.70414201183432, 28.34699918788396 65.50295857988165, 30.54063519183871 66.30177514792899, 31.533585315327663 67.10059171597634, 34.38193231748161 67.89940828402366, 30.617017880431074 68.69822485207101, 27.019296124731863 69.49704142011834, 33.947093587355354 70.29585798816568, 32.97550779148203 71.09467455621302, 33.10350247334453 71.89349112426036, 32.347549143981965 72.6923076923077, 28.46079489767184 73.49112426035504, 28.06757074483613 74.28994082840237, 29.473133824705737 75.0887573964497, 29.703792312036022 75.88757396449704, 33.777426882472426 76.68639053254438, 32.197469369021206 77.48520710059172, 37.23464915984096 78.28402366863905, 35.93778792294143 79.0828402366864, 35.10660124297577 79.88165680473374, 32.47269602660104 80.68047337278107, 30.38044569195904 81.4792899408284, 30.63976670912335 82.27810650887574, 28.76337069289314 83.07692307692308, 26.31529004158898 83.87573964497041, 23.888626758254176 84.67455621301775, 18.55136702900934 85.4733727810651, 22.481250212145852 86.27218934911244, 22.19684489769109 87.07100591715975, 25.18947352996182 87.8698224852071, 26.325588327428346 88.66863905325444, 23.28419897680901 89.46745562130178, 25.117302702153022 90.26627218934911, 20.958451008165113 91.06508875739645, 21.684164459664423 91.8639053254438, 20.96329857076831 92.66272189349112, 13.340819375787186 93.46153846153845, 0.43757066004703005 94.2603550295858, 8.196434820624328 95.05917159763314, 5.734026963486925 95.85798816568047, 12.118722982887048 96.65680473372781, 7.651421450789904 97.45562130177515, 8.600449576449725 98.2544378698225, 12.702574273914275 99.05325443786982, 13.869270721752644 99.85207100591715, 12.542668589805725 100.6508875739645, 8.4752412198222 101.44970414201183, 15.304961235112003 102.24852071005917, 10.537947314982894 103.04733727810651, 10.694428900930083 103.84615384615385, 0.0 104.64497041420118, 1.8947115883201007 105.44378698224853, 0.6868399215069542 106.24260355029585, 0.6550716646512528 107.0414201183432, 6.258938687759756 107.84023668639053, 7.9251419289499925 108.63905325443787, 5.183481280590622 109.43786982248521, 5.850596590946855 110.23668639053254, 9.08759671231263 111.03550295857988, 12.543572526579213 111.83431952662723, 11.097257783314989 112.63313609467457, 10.277216742408923 113.43195266272188, 10.571596572562052 114.23076923076923, 9.708539629414169 115.02958579881657, 9.539538389804772 115.82840236686391, 13.906837851243381 116.62721893491124, 13.809474751257305 117.42603550295858, 10.848778074999625 118.22485207100593, 11.53068002709515 119.02366863905324, 12.651037694531345 119.82248520710058, 12.59743360438031 120.62130177514793, 13.999090164065498 121.42011834319527, 14.957549795339148 122.2189349112426, 22.007276084420084 123.01775147928994, 18.328606350067314 123.81656804733728, 17.9174651258754 124.61538461538463, 16.752454661552935 125.41420118343194, 18.442076335498935 126.21301775147928, 14.741444327641503 127.01183431952663, 10.918584976610283 127.81065088757396, 9.07264482957448 128.60946745562129, 10.356708892641963 129.40828402366864, 13.161167825571612 130.20710059171597, 9.961621941528298 131.0059171597633, 15.507103670669212 131.80473372781066, 13.558871464050268 132.60355029585799, 13.901497223713264 133.40236686390534, 13.973419637813306 134.20118343195267, 13.651401410634929" fill="none" stroke="#32ca5b" stroke-width="1.25"/>

</svg>