<?xml version="1.0" standalone="no"?>
<!DOCTYPE svg PUBLIC "-//W3C//DTD SVG 1.1//EN" "http://www.w3.org/Graphics/SVG/1.1/DTD/svg11.dtd">

<svg width="135" height="50" viewBox="0 0 135 50" preserveAspectRatio="none" 
  xmlns="http://www.w3.org/2000/svg"
  xmlns:xlink="http://www.w3.org/1999/xlink">


<polyline points="0.0, 8.077180224082504 0.7988165680473372, 5.926959253212566 1.5976331360946745, 4.997942986660451 2.396449704142012, 10.433256844590458 3.195266272189349, 9.539907048683883 3.994082840236686, 5.31693767009333 4.792899408284024, 3.7229289517460926 5.591715976331361, 7.694509531980222 6.390532544378698, 7.074222106188055 7.189349112426036, 1.2936799490248558 7.988165680473372, 3.0759471904527826 8.78698224852071, 2.3248609896667927 9.585798816568047, 3.6890869502324857 10.384615384615385, 3.8697527439296895 11.183431952662723, 8.225718594971863 11.982248520710058, 8.972216355842171 12.781065088757396, 8.737581643044214 13.579881656804734, 5.774230665579771 14.378698224852071, 6.743339738616497 15.177514792899409, 6.2096566306959895 15.976331360946745, 8.546565604136056 16.775147928994084, 8.441245330376509 17.57396449704142, 7.1255559936299315 18.37278106508876, 9.412161528456314 19.171597633136095, 9.743977328627167 19.970414201183434, 1.5507040189282313 20.76923076923077, 8.109164770295187 21.56804733727811, 10.342912545222774 22.366863905325445, 8.815755518874768 23.16568047337278, 5.301084558755697 23.964497041420117, 3.16680364725438 24.763313609467456, 8.972216084485618 25.562130177514792, 10.748958748894935 26.36094674556213, 9.500522836379938 27.159763313609467, 15.858486292165274 27.958579881656807, 12.768118722346452 28.757396449704142, 9.636864546776723 29.55621301775148, 9.965267803184188 30.355029585798817, 10.614623520755519 31.153846153846157, 6.20026064217547 31.95266272189349, 5.126157711218692 32.751479289940825, 7.761631440639702 33.55029585798817, 10.446582215250107 34.349112426035504, 7.387498372726277 35.14792899408284, 12.30440992350673 35.94674556213018, 10.483030516169608 36.74556213017752, 6.507946400154372 37.54437869822485, 11.603693979155057 38.34319526627219, 17.78055697662886 39.142011834319526, 21.46038860236019 39.94082840236687, 17.033562338283577 40.7396449704142, 18.300511656873418 41.53846153846154, 16.000976572587426 42.337278106508876, 16.05350144622669 43.13609467455622, 11.579223815391494 43.93491124260355, 10.882951882378013 44.73372781065089, 10.047659020032668 45.532544378698226, 10.415378058017012 46.33136094674556, 10.818847054913652 47.1301775147929, 14.155423441528283 47.928994082840234, 11.771388976785444 48.72781065088758, 14.033146412261432 49.52662721893491, 10.607078587218139 50.32544378698225, 10.724439042469596 51.124260355029584, 12.006606805608666 51.92307692307693, 15.490305666331627 52.72189349112426, 15.078440775462013 53.5207100591716, 12.568313903530909 54.319526627218934, 7.758090205105216 55.11834319526627, 30.76967509722554 55.91715976331361, 31.63208876828995 56.71597633136094, 28.927944271208084 57.514792899408285, 33.389269911593516 58.31360946745562, 33.73352135730329 59.11242603550296, 30.721505415639133 59.91124260355029, 30.779975795739496 60.710059171597635, 33.04912215971792 61.50887573964497, 30.98902378126877 62.307692307692314, 30.353196194230936 63.10650887573964, 31.119006095318014 63.90532544378698, 30.515055211008146 64.70414201183432, 25.163008586208523 65.50295857988165, 24.45307288366103 66.30177514792899, 25.336740127082447 67.10059171597634, 21.835244049551054 67.89940828402366, 26.66904631667364 68.69822485207101, 30.61188363951246 69.49704142011834, 28.82070302582082 70.29585798816568, 33.31190572214258 71.09467455621302, 32.33985969276647 71.89349112426036, 30.164979982175588 72.6923076923077, 31.937698159797506 73.49112426035504, 36.59784001453996 74.28994082840237, 30.14872460148047 75.0887573964497, 38.4651382367568 75.88757396449704, 41.01366732704435 76.68639053254438, 40.72646789356368 77.48520710059172, 44.10141058720619 78.28402366863905, 43.08746643459511 79.0828402366864, 42.95208956452698 79.88165680473374, 43.55007268899012 80.68047337278107, 41.48171480890119 81.4792899408284, 44.12974968348907 82.27810650887574, 44.22396720850542 83.07692307692308, 48.828760840133036 83.87573964497041, 50.0 84.67455621301775, 41.15981916488292 85.4733727810651, 25.62175553822023 86.27218934911244, 25.439697783280803 87.07100591715975, 10.19623355222902 87.8698224852071, 20.85872379815208 88.66863905325444, 18.70597924295528 89.46745562130178, 12.773995004672006 90.26627218934911, 12.903676347376742 91.06508875739645, 13.820108678311255 91.8639053254438, 14.032149221976592 92.66272189349112, 19.315371839076573 93.46153846153845, 25.292210654105922 94.2603550295858, 19.639107399530182 95.05917159763314, 20.572659556582686 95.85798816568047, 18.807675537741535 96.65680473372781, 19.30475685851239 97.45562130177515, 17.762097077165162 98.2544378698225, 21.9851818815104 99.05325443786982, 21.634954021820402 99.85207100591715, 17.71405023813055 100.6508875739645, 9.034179272235342 101.44970414201183, 23.1587513850172 102.24852071005917, 21.140474904561053 103.04733727810651, 10.37047850559443 103.84615384615385, 19.75289357330459 104.64497041420118, 20.070224340937035 105.44378698224853, 14.52212668442642 106.24260355029585, 13.68279937715124 107.0414201183432, 16.558951169859274 107.84023668639053, 14.423265150211261 108.63905325443787, 20.0651040584704 109.43786982248521, 20.97835743486683 110.23668639053254, 20.883527150703195 111.03550295857988, 20.373035959254047 111.83431952662723, 18.695991758960485 112.63313609467457, 21.742465207767438 113.43195266272188, 21.387195039260707 114.23076923076923, 21.788189162700398 115.02958579881657, 24.974892089081536 115.82840236686391, 27.509592641601316 116.62721893491124, 28.102615631354027 117.42603550295858, 32.877917811649866 118.22485207100593, 28.93996307674777 119.02366863905324, 27.659252128351298 119.82248520710058, 31.599190219619068 120.62130177514793, 28.066953966136854 121.42011834319527, 30.96817637240757 122.2189349112426, 26.234758671899485 123.01775147928994, 21.430126527264775 123.81656804733728, 18.727168757953443 124.61538461538463, 22.73733314836484 125.41420118343194, 0.41707003648624913 126.21301775147928, 9.021011745204929 127.01183431952663, 6.969710309177524 127.81065088757396, 7.828343722087988 128.60946745562129, 8.080638988407344 129.40828402366864, 0.0 130.20710059171597, 7.248420631457324 131.0059171597633, 17.535699684960626 131.80473372781066, 22.713558665177043 132.60355029585799, 35.59765444541421 133.40236686390534, 41.84810725191198 134.20118343195267, 41.49669186868689" fill="none" stroke="#ff3a33" stroke-width="1.25"/>

</svg>