<?xml version="1.0" standalone="no"?>
<!DOCTYPE svg PUBLIC "-//W3C//DTD SVG 1.1//EN" "http://www.w3.org/Graphics/SVG/1.1/DTD/svg11.dtd">

<svg width="135" height="50" viewBox="0 0 135 50" preserveAspectRatio="none" 
  xmlns="http://www.w3.org/2000/svg"
  xmlns:xlink="http://www.w3.org/1999/xlink">


<polyline points="0.0, 6.966342802824517 0.7988165680473372, 14.67812536222712 1.5976331360946745, 14.10257389215887 2.396449704142012, 15.977275265653754 3.195266272189349, 14.35965675075449 3.994082840236686, 14.188078780286911 4.792899408284024, 14.02591633624242 5.591715976331361, 14.233645968426947 6.390532544378698, 15.438395805092528 7.189349112426036, 16.8851879975754 7.988165680473372, 26.906762388978358 8.78698224852071, 27.913783323725035 9.585798816568047, 26.881686549460138 10.384615384615385, 16.608477541953786 11.183431952662723, 24.117486918964893 11.982248520710058, 29.968856358501345 12.781065088757396, 39.654208780681486 13.579881656804734, 46.39202760098125 14.378698224852071, 48.31091885019255 15.177514792899409, 33.9604880429467 15.976331360946745, 33.86897409328338 16.775147928994084, 33.896939041651954 17.57396449704142, 33.449427622176515 18.37278106508876, 30.194975266801364 19.171597633136095, 32.011021214116155 19.970414201183434, 32.24083831374505 20.76923076923077, 33.92090727027497 21.56804733727811, 33.49906138712206 22.366863905325445, 34.105708785329405 23.16568047337278, 34.11046303754043 23.964497041420117, 34.12532206092757 24.763313609467456, 36.183498069742804 25.562130177514792, 35.83456709395445 26.36094674556213, 42.041060335128954 27.159763313609467, 48.02346016002584 27.958579881656807, 50.0 28.757396449704142, 45.49447246823954 29.55621301775148, 45.65183242716074 30.355029585798817, 46.155358931303795 31.153846153846157, 48.76730301663505 31.95266272189349, 48.46841424780404 32.751479289940825, 48.405518015797 33.55029585798817, 37.876817842808514 34.349112426035504, 33.57934615265864 35.14792899408284, 31.255938867374784 35.94674556213018, 31.10894384400476 36.74556213017752, 24.863369175140104 37.54437869822485, 37.21941595940693 38.34319526627219, 40.23605767464336 39.142011834319526, 40.140063909527555 39.94082840236687, 40.49581588761782 40.7396449704142, 27.352988069776302 41.53846153846154, 33.499929310292146 42.337278106508876, 27.506873706451394 43.13609467455622, 23.71450722454373 43.93491124260355, 24.529966605865585 44.73372781065089, 36.826077095040546 45.532544378698226, 44.80751999057251 46.33136094674556, 48.68539432654104 47.1301775147929, 43.50325064961082 47.928994082840234, 43.17017153156487 48.72781065088758, 40.789383574515554 49.52662721893491, 41.22753023671751 50.32544378698225, 39.561169150455136 51.124260355029584, 42.879481937291125 51.92307692307693, 33.28095679217339 52.72189349112426, 33.33774899595156 53.5207100591716, 34.55862827119762 54.319526627218934, 24.46411882992697 55.11834319526627, 28.745255747888876 55.91715976331361, 30.440142468530123 56.71597633136094, 24.907888039811617 57.514792899408285, 31.01344266269106 58.31360946745562, 18.64590810429594 59.11242603550296, 16.86777989400852 59.91124260355029, 17.06135918587145 60.710059171597635, 0.6741962750566536 61.50887573964497, 18.082182493262554 62.307692307692314, 17.013297225823184 63.10650887573964, 17.431005933684656 63.90532544378698, 15.980586551755962 64.70414201183432, 16.571200730260678 65.50295857988165, 17.371772494938618 66.30177514792899, 31.898442593441125 67.10059171597634, 17.537329999973203 67.89940828402366, 17.758319155205506 68.69822485207101, 18.530687716224968 69.49704142011834, 18.61886926079223 70.29585798816568, 28.660857205169687 71.09467455621302, 24.499856893679127 71.89349112426036, 24.266919730569185 72.6923076923077, 15.870458750434816 73.49112426035504, 11.244116433555671 74.28994082840237, 10.165750125296725 75.0887573964497, 9.950012416738039 75.88757396449704, 13.841006933866087 76.68639053254438, 15.83011055653792 77.48520710059172, 0.4241744277684951 78.28402366863905, 0.883391949673052 79.0828402366864, 0.97034825590008 79.88165680473374, 0.0 80.68047337278107, 3.0169423058889286 81.4792899408284, 1.0176967817506004 82.27810650887574, 2.194813967391386 83.07692307692308, 16.457973766908022 83.87573964497041, 0.6457800672599803 84.67455621301775, 14.402087786388082 85.4733727810651, 14.892040418234545 86.27218934911244, 17.669672610428083 87.07100591715975, 15.035908439335987 87.8698224852071, 26.087382250339108 88.66863905325444, 31.232093544193795 89.46745562130178, 28.883931305821005 90.26627218934911, 27.942986868606184 91.06508875739645, 34.392747724242064 91.8639053254438, 32.37186781340934 92.66272189349112, 39.839426743304244 93.46153846153845, 35.805530285277186 94.2603550295858, 34.04263451933854 95.05917159763314, 25.679320376345977 95.85798816568047, 27.176165421929344 96.65680473372781, 26.995037012080335 97.45562130177515, 26.759757008328705 98.2544378698225, 27.08021807756984 99.05325443786982, 27.046990359846625 99.85207100591715, 28.056918428066112 100.6508875739645, 27.24135801546428 101.44970414201183, 28.40154837591028 102.24852071005917, 29.48267122719009 103.04733727810651, 25.997987183020072 103.84615384615385, 25.636761617869002 104.64497041420118, 18.082992586151335 105.44378698224853, 27.490241295681155 106.24260355029585, 27.204874051525902 107.0414201183432, 8.358635173514472 107.84023668639053, 21.365895246474246 108.63905325443787, 24.16881873159207 109.43786982248521, 27.143260670009457 110.23668639053254, 13.055622953830067 111.03550295857988, 25.154917718534303 111.83431952662723, 14.75750899046641 112.63313609467457, 14.708849659069182 113.43195266272188, 25.07230591313261 114.23076923076923, 25.51201472247979 115.02958579881657, 26.03396759460716 115.82840236686391, 24.89605252213649 116.62721893491124, 25.157386242778333 117.42603550295858, 25.599641641973754 118.22485207100593, 24.61685248516328 119.02366863905324, 25.02225777073982 119.82248520710058, 24.875231213186584 120.62130177514793, 24.139090848425816 121.42011834319527, 24.215232452984395 122.2189349112426, 28.628668629243105 123.01775147928994, 28.78890379460502 123.81656804733728, 28.504403209074802 124.61538461538463, 29.43668202181633 125.41420118343194, 27.62358100721489 126.21301775147928, 26.890570502689325 127.01183431952663, 26.28132876735186 127.81065088757396, 27.15143556549025 128.60946745562129, 26.649200354480975 129.40828402366864, 26.412632613192798 130.20710059171597, 25.468295175332457 131.0059171597633, 27.54096069109433 131.80473372781066, 26.662644414477327 132.60355029585799, 15.562277740001823 133.40236686390534, 14.20594918467134 134.20118343195267, 15.632841098417558" fill="none" stroke="#ff3a33" stroke-width="1.25"/>

</svg>