<?xml version="1.0" standalone="no"?>
<!DOCTYPE svg PUBLIC "-//W3C//DTD SVG 1.1//EN" "http://www.w3.org/Graphics/SVG/1.1/DTD/svg11.dtd">

<svg width="135" height="50" viewBox="0 0 135 50" preserveAspectRatio="none" 
  xmlns="http://www.w3.org/2000/svg"
  xmlns:xlink="http://www.w3.org/1999/xlink">


<polyline points="0.0, 21.279109932715954 0.7988165680473372, 22.011571349294783 1.5976331360946745, 21.669179134568093 2.396449704142012, 14.901598505130284 3.195266272189349, 19.190741397211138 3.994082840236686, 24.16177019191985 4.792899408284024, 25.14241267403606 5.591715976331361, 21.34053295299988 6.390532544378698, 20.731537867432152 7.189349112426036, 17.63705800536775 7.988165680473372, 20.05940305508296 8.78698224852071, 15.459409982804742 9.585798816568047, 1.92931859599404 10.384615384615385, 3.4991620597197377 11.183431952662723, 13.609597049851699 11.982248520710058, 20.23167660325137 12.781065088757396, 23.41274296576802 13.579881656804734, 26.894567505697363 14.378698224852071, 26.361613120460248 15.177514792899409, 26.871700742656955 15.976331360946745, 25.88325064581281 16.775147928994084, 28.323327896714613 17.57396449704142, 29.398819188521003 18.37278106508876, 26.15555823779923 19.171597633136095, 25.89710164747951 19.970414201183434, 21.66210657580573 20.76923076923077, 28.738155795357066 21.56804733727811, 28.01998459030975 22.366863905325445, 27.39422614052512 23.16568047337278, 30.930093354696165 23.964497041420117, 30.13533910583039 24.763313609467456, 34.16697580092388 25.562130177514792, 35.23971032685325 26.36094674556213, 31.9338884472867 27.159763313609467, 31.566859456863217 27.958579881656807, 32.43633903484708 28.757396449704142, 33.50666720744029 29.55621301775148, 29.013682074813417 30.355029585798817, 32.32091221166976 31.153846153846157, 35.94532792092673 31.95266272189349, 29.104472181607623 32.751479289940825, 27.101306525088333 33.55029585798817, 42.397785541357415 34.349112426035504, 42.90574407011333 35.14792899408284, 41.58296384246813 35.94674556213018, 42.09294175426049 36.74556213017752, 35.879196073172004 37.54437869822485, 35.80656016658393 38.34319526627219, 35.591994792347634 39.142011834319526, 38.31824881870728 39.94082840236687, 43.51585477139274 40.7396449704142, 42.49130520579488 41.53846153846154, 40.50106638905046 42.337278106508876, 39.369931166379644 43.13609467455622, 40.08616611250991 43.93491124260355, 34.24343969060578 44.73372781065089, 33.47293387364873 45.532544378698226, 36.06144295159587 46.33136094674556, 37.353506476179085 47.1301775147929, 38.88732425301401 47.928994082840234, 40.47153266550892 48.72781065088758, 40.79457873978875 49.52662721893491, 40.956563456982806 50.32544378698225, 43.19815176178934 51.124260355029584, 40.99938679792507 51.92307692307693, 37.90511192694458 52.72189349112426, 31.170761863296825 53.5207100591716, 30.044835910365915 54.319526627218934, 31.309560717213053 55.11834319526627, 31.20359068676161 55.91715976331361, 35.23158107315749 56.71597633136094, 35.29085262932503 57.514792899408285, 36.50551002756287 58.31360946745562, 35.590863889215 59.11242603550296, 36.67705978760838 59.91124260355029, 36.248130169040046 60.710059171597635, 35.91076580518245 61.50887573964497, 36.079128340006164 62.307692307692314, 33.766030953686794 63.10650887573964, 32.78150138510817 63.90532544378698, 36.62066500504469 64.70414201183432, 39.75470349045353 65.50295857988165, 37.92097491265983 66.30177514792899, 38.620468623826184 67.10059171597634, 39.27322888024699 67.89940828402366, 42.54273357745863 68.69822485207101, 40.19557506523616 69.49704142011834, 39.5097594458532 70.29585798816568, 42.00604232358679 71.09467455621302, 43.775883738464785 71.89349112426036, 43.13433816079868 72.6923076923077, 44.3291444818451 73.49112426035504, 43.53561309472395 74.28994082840237, 42.218287254634035 75.0887573964497, 44.055133042242545 75.88757396449704, 44.394783520052464 76.68639053254438, 44.25569991143313 77.48520710059172, 44.94276582841393 78.28402366863905, 50.0 79.0828402366864, 45.615862173570804 79.88165680473374, 45.32610420342458 80.68047337278107, 45.645343348938574 81.4792899408284, 44.21801863546628 82.27810650887574, 44.492629392797234 83.07692307692308, 42.29328578741381 83.87573964497041, 42.885643375363394 84.67455621301775, 44.27639583891671 85.4733727810651, 44.47552288932327 86.27218934911244, 43.64191745762416 87.07100591715975, 45.01954931466595 87.8698224852071, 44.49837499247879 88.66863905325444, 44.32534791051743 89.46745562130178, 43.38082114452082 90.26627218934911, 39.139571301063675 91.06508875739645, 37.622017055886666 91.8639053254438, 37.01903778476265 92.66272189349112, 32.282119892090016 93.46153846153845, 31.92843190862627 94.2603550295858, 32.87013697314782 95.05917159763314, 33.908562840576664 95.85798816568047, 35.08590187862906 96.65680473372781, 34.519128271628546 97.45562130177515, 29.4960381053072 98.2544378698225, 28.861490828212954 99.05325443786982, 30.75997138142635 99.85207100591715, 30.21269063891023 100.6508875739645, 31.34273097265198 101.44970414201183, 32.196788439808174 102.24852071005917, 28.950334944947194 103.04733727810651, 29.666530997766987 103.84615384615385, 24.749055331191848 104.64497041420118, 24.067443432934446 105.44378698224853, 20.817351338302572 106.24260355029585, 12.13567931035967 107.0414201183432, 17.82013955602228 107.84023668639053, 13.449639543757064 108.63905325443787, 15.152126936396773 109.43786982248521, 10.22346114815071 110.23668639053254, 4.061382870036579 111.03550295857988, 4.337275568972462 111.83431952662723, 0.8271890841620527 112.63313609467457, 1.4906344169654666 113.43195266272188, 4.915444636708291 114.23076923076923, 3.7196055752658594 115.02958579881657, 8.533514965962139 115.82840236686391, 5.894352099354286 116.62721893491124, 4.18597320086173 117.42603550295858, 4.5684322553362176 118.22485207100593, 4.760878248322386 119.02366863905324, 5.0758291445215695 119.82248520710058, 5.5284332384253085 120.62130177514793, 0.39346609750562056 121.42011834319527, 9.170089234660143 122.2189349112426, 9.268999926459683 123.01775147928994, 16.434148636393452 123.81656804733728, 13.596022004641444 124.61538461538463, 14.412979577044752 125.41420118343194, 15.444728771612601 126.21301775147928, 17.42886365987315 127.01183431952663, 13.728232750264516 127.81065088757396, 12.256520650046898 128.60946745562129, 8.967756715038597 129.40828402366864, 7.903145188578955 130.20710059171597, 9.936641410380421 131.0059171597633, 7.991523050616917 131.80473372781066, 5.871311393496617 132.60355029585799, 5.352953775743432 133.40236686390534, 1.0613376990736507 134.20118343195267, 0.0" fill="none" stroke="#32ca5b" stroke-width="1.25"/>

</svg>