<?xml version="1.0" standalone="no"?>
<!DOCTYPE svg PUBLIC "-//W3C//DTD SVG 1.1//EN" "http://www.w3.org/Graphics/SVG/1.1/DTD/svg11.dtd">

<svg width="135" height="50" viewBox="0 0 135 50" preserveAspectRatio="none" 
  xmlns="http://www.w3.org/2000/svg"
  xmlns:xlink="http://www.w3.org/1999/xlink">


<polyline points="0.0, 23.866087927442123 0.7988165680473372, 24.885777347033798 1.5976331360946745, 21.048662504744247 2.396449704142012, 24.75201854942132 3.195266272189349, 19.164797119403616 3.994082840236686, 17.186484374727566 4.792899408284024, 14.113597438134166 5.591715976331361, 15.52440541556884 6.390532544378698, 17.418647331896267 7.189349112426036, 22.397424922668165 7.988165680473372, 16.8705407983797 8.78698224852071, 12.98425755711049 9.585798816568047, 15.797379350841782 10.384615384615385, 11.96326671174389 11.183431952662723, 25.043997602941037 11.982248520710058, 34.90802750914255 12.781065088757396, 38.389761338009244 13.579881656804734, 34.123618079153 14.378698224852071, 26.73926654817953 15.177514792899409, 23.48390665637407 15.976331360946745, 21.089469658415226 16.775147928994084, 20.81836097916507 17.57396449704142, 16.816268271672353 18.37278106508876, 13.815057291949252 19.171597633136095, 20.868185721125602 19.970414201183434, 22.873931391199072 20.76923076923077, 21.933836960488716 21.56804733727811, 19.99766193491205 22.366863905325445, 23.35008008622416 23.16568047337278, 25.26023882530003 23.964497041420117, 29.56104749376958 24.763313609467456, 33.84564397806058 25.562130177514792, 30.80547925846876 26.36094674556213, 42.23977126913422 27.159763313609467, 40.39889928619211 27.958579881656807, 43.2982432740269 28.757396449704142, 39.44727413329161 29.55621301775148, 41.21947609932665 30.355029585798817, 46.64411453499119 31.153846153846157, 44.12707949391147 31.95266272189349, 41.78415141553635 32.751479289940825, 47.21089806267902 33.55029585798817, 50.0 34.349112426035504, 47.15080660526001 35.14792899408284, 47.26983404358938 35.94674556213018, 41.408257634462096 36.74556213017752, 39.98908949801389 37.54437869822485, 36.881174042133104 38.34319526627219, 38.63711739506649 39.142011834319526, 44.70154176909277 39.94082840236687, 43.83001001598767 40.7396449704142, 41.311116634621385 41.53846153846154, 41.94770126150609 42.337278106508876, 39.305986585217056 43.13609467455622, 34.92391175969352 43.93491124260355, 33.12823841612676 44.73372781065089, 29.917438178669748 45.532544378698226, 29.626190767673222 46.33136094674556, 32.132511228148424 47.1301775147929, 32.899900508020224 47.928994082840234, 32.92242892424613 48.72781065088758, 37.92297796504167 49.52662721893491, 33.9445761875387 50.32544378698225, 32.60010484554442 51.124260355029584, 35.52853967164445 51.92307692307693, 31.081806297690733 52.72189349112426, 29.207651570605936 53.5207100591716, 30.51800920217751 54.319526627218934, 26.20162919768898 55.11834319526627, 29.833100679511816 55.91715976331361, 28.091406292567306 56.71597633136094, 30.823299115382863 57.514792899408285, 27.80344961693377 58.31360946745562, 30.065282587045143 59.11242603550296, 35.602106061781384 59.91124260355029, 35.39936695386299 60.710059171597635, 34.42673387210982 61.50887573964497, 34.27313569241328 62.307692307692314, 29.324561718293552 63.10650887573964, 33.94160652594668 63.90532544378698, 36.89727221280048 64.70414201183432, 35.170269393106516 65.50295857988165, 33.38172940384475 66.30177514792899, 33.778696929994325 67.10059171597634, 35.288775486977464 67.89940828402366, 32.1421790158218 68.69822485207101, 29.409067814938588 69.49704142011834, 30.251700738505043 70.29585798816568, 29.137995426245 71.09467455621302, 11.129583991228031 71.89349112426036, 7.762558888349494 72.6923076923077, 8.786304427209718 73.49112426035504, 7.872271204596866 74.28994082840237, 8.244029877018606 75.0887573964497, 11.57398708391662 75.88757396449704, 14.618464989447283 76.68639053254438, 11.325453317162324 77.48520710059172, 23.019548498480578 78.28402366863905, 18.316794533830237 79.0828402366864, 13.723556441514004 79.88165680473374, 9.358505247406741 80.68047337278107, 6.3815005438137815 81.4792899408284, 10.2354345583564 82.27810650887574, 7.175768524651622 83.07692307692308, 8.031627450479027 83.87573964497041, 2.477653707234062 84.67455621301775, 0.0 85.4733727810651, 2.313033739646344 86.27218934911244, 6.414386227999158 87.07100591715975, 7.827629411748401 87.8698224852071, 10.881199038577087 88.66863905325444, 12.97006619405906 89.46745562130178, 14.164757148157717 90.26627218934911, 9.007055448414942 91.06508875739645, 12.517967741635388 91.8639053254438, 14.122577489155125 92.66272189349112, 14.37457549483708 93.46153846153845, 13.688368474813622 94.2603550295858, 14.070886607246294 95.05917159763314, 12.982098663382851 95.85798816568047, 15.474032692522524 96.65680473372781, 14.706341589856468 97.45562130177515, 17.55633393540334 98.2544378698225, 19.691537945886814 99.05325443786982, 20.61405869577295 99.85207100591715, 19.030319216522315 100.6508875739645, 19.07706511972727 101.44970414201183, 18.902068417032797 102.24852071005917, 21.268413727788754 103.04733727810651, 19.393711012116594 103.84615384615385, 17.62982168736433 104.64497041420118, 17.6628368971692 105.44378698224853, 16.380573048734085 106.24260355029585, 14.840930977607748 107.0414201183432, 14.45003319829094 107.84023668639053, 18.388898907724357 108.63905325443787, 20.265241525491646 109.43786982248521, 17.493254342708735 110.23668639053254, 17.33731527276131 111.03550295857988, 15.91960291532616 111.83431952662723, 16.161646629869725 112.63313609467457, 16.137630362506663 113.43195266272188, 14.904785108989854 114.23076923076923, 15.366493083624434 115.02958579881657, 13.972212452058741 115.82840236686391, 16.15615981965412 116.62721893491124, 17.648622799119078 117.42603550295858, 18.607753601844674 118.22485207100593, 20.016638301237542 119.02366863905324, 19.636946593606574 119.82248520710058, 17.046931369559804 120.62130177514793, 20.885696912128612 121.42011834319527, 19.456720216598786 122.2189349112426, 27.556932899760895 123.01775147928994, 25.191343089725194 123.81656804733728, 22.696196511228422 124.61538461538463, 20.91651446948594 125.41420118343194, 22.23927343736946 126.21301775147928, 17.5881722989435 127.01183431952663, 12.83528040792733 127.81065088757396, 9.741227951970798 128.60946745562129, 11.392261397108063 129.40828402366864, 13.971666939736687 130.20710059171597, 9.166456295687556 131.0059171597633, 7.39812772364988 131.80473372781066, 4.860676791009636 132.60355029585799, 5.231559788630291 133.40236686390534, 4.793284950890025 134.20118343195267, 5.087092777493727" fill="none" stroke="#32ca5b" stroke-width="1.25"/>

</svg>