<?xml version="1.0" standalone="no"?>
<!DOCTYPE svg PUBLIC "-//W3C//DTD SVG 1.1//EN" "http://www.w3.org/Graphics/SVG/1.1/DTD/svg11.dtd">

<svg width="135" height="50" viewBox="0 0 135 50" preserveAspectRatio="none" 
  xmlns="http://www.w3.org/2000/svg"
  xmlns:xlink="http://www.w3.org/1999/xlink">


<polyline points="0.0, 23.264749403749217 0.7988165680473372, 26.232964451286346 1.5976331360946745, 28.401008812475027 2.396449704142012, 26.49821997387412 3.195266272189349, 29.05532222767258 3.994082840236686, 27.72471487776455 4.792899408284024, 25.702455555026077 5.591715976331361, 24.98368983543733 6.390532544378698, 22.88297597684194 7.189349112426036, 25.64524862084553 7.988165680473372, 29.719994299380087 8.78698224852071, 26.92275546681695 9.585798816568047, 25.851268918959363 10.384615384615385, 28.659267474474053 11.183431952662723, 22.754570184875675 11.982248520710058, 30.943713162678034 12.781065088757396, 36.64008851959804 13.579881656804734, 37.827760676458915 14.378698224852071, 37.90825911808843 15.177514792899409, 37.23569958017093 15.976331360946745, 34.053161812868794 16.775147928994084, 33.06157142811495 17.57396449704142, 32.175065503882536 18.37278106508876, 30.730162407510488 19.171597633136095, 31.26526662207475 19.970414201183434, 31.92176082133723 20.76923076923077, 33.50869127254559 21.56804733727811, 34.15959594784706 22.366863905325445, 33.94968047499523 23.16568047337278, 35.91601237091815 23.964497041420117, 37.18994700208257 24.763313609467456, 39.3078526299046 25.562130177514792, 40.53203577125028 26.36094674556213, 39.24489112518583 27.159763313609467, 46.29793808122935 27.958579881656807, 45.633518404665466 28.757396449704142, 47.120327062529434 29.55621301775148, 45.06661210380101 30.355029585798817, 46.88287480573139 31.153846153846157, 49.80468617379099 31.95266272189349, 47.89718942297937 32.751479289940825, 45.79973054313406 33.55029585798817, 48.84028968834732 34.349112426035504, 50.0 35.14792899408284, 48.038575296809825 35.94674556213018, 49.114898260154234 36.74556213017752, 45.703255633013825 37.54437869822485, 44.589243803443765 38.34319526627219, 42.206102306608834 39.142011834319526, 45.07513937200603 39.94082840236687, 48.265211132008375 40.7396449704142, 47.508480854172234 41.53846153846154, 46.452058964426755 42.337278106508876, 46.92209716612043 43.13609467455622, 45.405538400049934 43.93491124260355, 42.857957198084286 44.73372781065089, 41.3671483693593 45.532544378698226, 38.492541934112 46.33136094674556, 38.006862965109406 47.1301775147929, 40.15879160149382 47.928994082840234, 40.96144456112977 48.72781065088758, 40.15174009297455 49.52662721893491, 42.02115611595296 50.32544378698225, 40.176508362202235 51.124260355029584, 38.042478883921596 51.92307692307693, 41.887088688672875 52.72189349112426, 39.48079311074885 53.5207100591716, 39.31538556099288 54.319526627218934, 40.34939844018673 55.11834319526627, 38.961524730872156 55.91715976331361, 41.59195063355893 56.71597633136094, 42.21383944694869 57.514792899408285, 43.58275262708982 58.31360946745562, 42.047568424279056 59.11242603550296, 42.76570796002802 59.91124260355029, 45.65491430982322 60.710059171597635, 48.81928144118359 61.50887573964497, 48.55614176824516 62.307692307692314, 48.70839154297138 63.10650887573964, 46.32869210963817 63.90532544378698, 49.53864350035113 64.70414201183432, 49.52546321348129 65.50295857988165, 49.04980647959323 66.30177514792899, 47.04742012014258 67.10059171597634, 47.30986704147028 67.89940828402366, 49.350689309393005 68.69822485207101, 47.98079726419761 69.49704142011834, 39.26328942151488 70.29585798816568, 34.466713929547765 71.09467455621302, 28.959086218790542 71.89349112426036, 21.555240357809417 72.6923076923077, 27.386565355282706 73.49112426035504, 27.82293386295797 74.28994082840237, 26.209247826809097 75.0887573964497, 28.58981793089242 75.88757396449704, 33.08258760668216 76.68639053254438, 34.06264967119695 77.48520710059172, 27.76530698117538 78.28402366863905, 30.453998663042846 79.0828402366864, 27.069170985823334 79.88165680473374, 22.66449709728659 80.68047337278107, 20.918361144615265 81.4792899408284, 19.277596511018356 82.27810650887574, 20.915892196856525 83.07692307692308, 12.976727063960656 83.87573964497041, 4.507883653135164 84.67455621301775, 5.3483645993121804 85.4733727810651, 8.646623855477962 86.27218934911244, 14.242753008713194 87.07100591715975, 18.42575463422128 87.8698224852071, 18.183600939620188 88.66863905325444, 21.395009793042494 89.46745562130178, 23.255669987053036 90.26627218934911, 21.836034938494684 91.06508875739645, 19.284379819253804 91.8639053254438, 20.39450776342771 92.66272189349112, 11.3704809471911 93.46153846153845, 10.078702791744602 94.2603550295858, 8.940163689933092 95.05917159763314, 10.710762765785816 95.85798816568047, 10.028435490566139 96.65680473372781, 9.211652869492786 97.45562130177515, 11.584268445048016 98.2544378698225, 14.392618892299838 99.05325443786982, 18.23832281490884 99.85207100591715, 19.39508546700749 100.6508875739645, 19.589615826055123 101.44970414201183, 16.923254918286748 102.24852071005917, 15.278618411166454 103.04733727810651, 17.001243801571377 103.84615384615385, 15.485840392798 104.64497041420118, 16.584291991059903 105.44378698224853, 16.425572228421117 106.24260355029585, 17.294113971182 107.0414201183432, 18.682269022869395 107.84023668639053, 16.690941443978627 108.63905325443787, 18.635781553359035 109.43786982248521, 17.30333006409413 110.23668639053254, 15.538007802299775 111.03550295857988, 13.333635027677138 111.83431952662723, 12.752380297728408 112.63313609467457, 12.097859829391485 113.43195266272188, 13.39583911737673 114.23076923076923, 14.965616960153211 115.02958579881657, 16.00430531029187 115.82840236686391, 14.443329512495534 116.62721893491124, 14.989882164143367 117.42603550295858, 9.843247981948183 118.22485207100593, 3.5075552239586534 119.02366863905324, 5.9413641340621295 119.82248520710058, 6.900403545141343 120.62130177514793, 3.4114891818871356 121.42011834319527, 6.3060125491993455 122.2189349112426, 4.830077018802784 123.01775147928994, 15.596683758814066 123.81656804733728, 12.022558450328592 124.61538461538463, 11.157709440132397 125.41420118343194, 6.480779771169271 126.21301775147928, 3.955468579449243 127.01183431952663, 0.0 127.81065088757396, 0.3855046591873023 128.60946745562129, 2.547755023312815 129.40828402366864, 2.476146713530564 130.20710059171597, 3.6531965105479633 131.0059171597633, 3.7274162876878436 131.80473372781066, 2.6223031654133964 132.60355029585799, 0.8828126824861828 133.40236686390534, 1.312811896614381 134.20118343195267, 3.85793610776875" fill="none" stroke="#32ca5b" stroke-width="1.25"/>

</svg>